<svg width="150" height="150" viewBox="0 0 150 150" fill="none" xmlns="http://www.w3.org/2000/svg">
<rect width="150" height="150" fill="white"/>
<g clip-path="url(#clip0_1_3)">
<path fill-rule="evenodd" clip-rule="evenodd" d="M114 58C114.234 58.0001 114.423 58.1889 114.423 58.4227V86.0669H116.064L116.057 86.0742C116.291 86.0742 116.48 86.2632 116.48 86.4969V89.929C116.48 90.1629 116.291 90.3518 116.057 90.3518H110.71C110.392 90.3518 110.135 90.0957 110.134 89.7791V87.0324L110.717 84.7096H110.119C109.575 86.452 108.569 87.9151 107.207 88.956C105.619 90.1704 103.615 90.7818 101.247 90.7818C98.1388 90.7818 95.491 89.6349 93.5925 87.4625C91.7848 85.3957 90.786 82.4765 90.786 79.2708C90.7861 76.0652 91.7848 73.1688 93.5925 71.1323C95.491 68.9977 98.1313 67.8663 101.247 67.8663C103.675 67.8664 105.702 68.4622 107.283 69.6313C108.652 70.6496 109.635 72.106 110.119 73.8257H110.717L110.134 71.4645V58.4227C110.134 58.1888 110.324 58 110.558 58H114ZM102.555 71.5922C100.369 71.5923 98.5468 72.2188 97.2913 73.4105C95.8997 74.7305 95.1959 76.6988 95.1959 79.2633C95.1959 81.8279 95.8996 83.7974 97.2913 85.1174C98.5392 86.3089 100.332 86.9344 102.555 86.9345C104.779 86.9345 106.663 86.3016 107.994 85.11C109.492 83.7749 110.247 81.8053 110.247 79.2633C110.247 76.714 109.491 74.7456 107.994 73.4105C106.655 72.2187 104.741 71.5922 102.555 71.5922Z" fill="black"/>
<path d="M69.6854 68.2926C69.9197 68.2928 70.1092 68.4816 70.1092 68.7153V81.1077C70.1092 83.2574 70.5248 84.7595 71.3795 85.7024C72.2039 86.6073 73.4822 87.0446 75.3046 87.0448C77.4526 87.0448 79.2833 86.2149 80.5919 84.6613C81.9532 83.0471 82.6724 80.7312 82.6724 77.963V68.7153C82.6724 68.4816 82.8608 68.2929 83.095 68.2926H86.5366C86.7711 68.2926 86.9605 68.4814 86.9605 68.7153V86.0643H88.4967L88.4805 86.0482C88.7148 86.0482 88.9041 86.2372 88.9043 86.4708V89.9029C88.9043 90.1369 88.715 90.3256 88.4805 90.3256H83.2392C82.9293 90.3256 82.6728 90.0695 82.6724 89.753V86.3581L83.2541 84.0428H82.665C82.1885 86.0337 81.2654 87.6176 79.9269 88.7565C78.4444 90.0162 76.5227 90.6579 74.2158 90.6579C71.5609 90.6579 69.4806 89.9634 68.0436 88.5829C66.5008 87.1045 65.7144 84.8646 65.7144 81.9307V68.7153C65.7144 68.4814 65.9037 68.2926 66.1382 68.2926H69.6854Z" fill="black"/>
<path fill-rule="evenodd" clip-rule="evenodd" d="M46.2742 59.3064C46.4404 59.3064 46.5771 59.4419 46.5775 59.6076V62.6704C46.5775 62.8363 46.4405 62.9728 46.2742 62.9728H42.84C42.4923 62.973 42.2049 63.2593 42.2049 63.6062V66.3367C42.2048 69.331 41.0855 72.2195 39.089 74.5049C39.0588 74.535 39.021 74.5581 38.9758 74.5582L38.5893 74.5879V75.3502L39.043 75.3874C39.0883 75.3874 39.1271 75.4105 39.1573 75.4407C41.086 77.598 42.2049 80.525 42.2049 83.5346V86.0532C42.2049 86.4 42.4923 86.6876 42.84 86.6878H46.2742C46.4405 86.6878 46.5773 86.8231 46.5775 86.989V90.0517C46.5773 90.2176 46.4405 90.3529 46.2742 90.3529H40.9197C39.5961 90.3529 38.5297 89.2819 38.5297 87.9694V83.5346C38.5297 81.3094 37.72 79.2197 36.2527 77.6507C35.7914 77.0926 35.0274 76.7683 34.1957 76.7682H33.4238C33.1894 76.7682 33 76.5794 33 76.3456V73.5244C33.0002 73.2909 33.1895 73.1031 33.4238 73.1031H34.2031C35.0349 73.1029 35.7989 72.7784 36.2527 72.2354C37.7049 70.6741 38.5371 68.5317 38.5371 66.3367V61.6899C38.5372 60.37 39.6112 59.3064 40.9272 59.3064H46.2742ZM38.5595 75.0417V75.0639L38.5744 75.0329C38.5744 75.04 38.5595 75.0417 38.5595 75.0417Z" fill="black"/>
<path d="M61.0733 59.3151C61.2398 59.3151 61.3766 59.4516 61.3766 59.6175L61.2251 72.7722C61.2627 73.6999 60.5207 74.3785 59.598 74.469L59.183 74.5297V75.1333L59.598 75.1928C60.5057 75.291 61.2704 75.9631 61.2251 76.891L61.3766 90.0455C61.3765 90.2114 61.2397 90.3467 61.0733 90.3467H57.1782C57.0118 90.3467 56.8763 90.2114 56.8761 90.0455V78.6101C56.876 77.7354 56.1648 77.0189 55.2803 77.0186H46.1735C46.0073 77.0186 45.8705 76.8832 45.8702 76.7174V73.3758C45.8702 73.2098 46.0071 73.0734 46.1735 73.0734H55.2803C56.1573 73.073 56.8761 72.3641 56.8761 71.4819V59.6175C56.8761 59.4516 57.0117 59.3151 57.1782 59.3151H61.0733Z" fill="black"/>
</g>
<defs>
<clipPath id="clip0_1_3">
<rect width="84" height="33" fill="white" transform="translate(33 58)"/>
</clipPath>
</defs>
</svg>
