<svg width="146" height="32" viewBox="0 0 146 32" fill="none" xmlns="http://www.w3.org/2000/svg">
<g clip-path="url(#clip0_2_12651)">
<path fill-rule="evenodd" clip-rule="evenodd" d="M46.0781 2.12951C46.0781 1.0451 46.9668 0.166016 48.0631 0.166016H51.5212C52.3014 0.166016 53.0576 0.433488 53.661 0.922902L54.7129 1.77619L54.7392 1.79993C54.7635 1.79183 54.7877 1.78391 54.8121 1.77619C56.7099 1.17491 59.0125 1.06056 61.3626 1.06056C63.7128 1.06056 66.0154 1.17491 67.9132 1.77619C67.9376 1.78391 67.9618 1.79183 67.9861 1.79993L68.0124 1.77619L69.0643 0.922902C69.6677 0.433488 70.4239 0.166016 71.2041 0.166016H74.6622C75.7585 0.166016 76.6472 1.0451 76.6472 2.12951V3.3433C76.6472 4.28243 76.2473 5.17811 75.5454 5.81061L74.6968 6.57548C74.2825 6.94888 73.7853 7.22063 73.2452 7.36879L73.0444 7.42386C73.8308 9.2798 74.2652 11.2636 74.2652 12.8685C74.2652 19.3242 70.227 22.1124 66.669 24.569C63.8669 26.5037 61.3626 28.2327 61.3626 31.3856C61.3626 28.2327 58.8584 26.5037 56.0563 24.569C52.4983 22.1124 48.4601 19.3242 48.4601 12.8685C48.4601 11.2636 48.8945 9.2798 49.6809 7.42386L49.4801 7.36879C48.94 7.22063 48.4428 6.94888 48.0285 6.57548L47.1799 5.81061C46.478 5.17811 46.0781 4.28243 46.0781 3.3433V2.12951ZM63.9432 18.1463C63.9432 18.4548 63.8072 18.7505 63.5653 18.9686C63.3233 19.1867 62.9951 19.3092 62.6529 19.3092C62.3575 19.3092 62.0724 19.2178 61.8444 19.0525C62.2326 20.0804 63.2261 21.0544 64.7372 19.4881C66.0712 18.0327 64.6778 14.9632 63.3204 13.1417C62.868 12.5345 62.1252 12.2423 61.3626 12.2423C60.6001 12.2423 59.8573 12.5345 59.4049 13.1417C58.0475 14.9632 56.6541 18.0327 57.9881 19.4881C59.4992 21.0544 60.4927 20.0804 60.8809 19.0525C60.6529 19.2178 60.3678 19.3092 60.0724 19.3092C59.7302 19.3092 59.402 19.1867 59.16 18.9686C58.9181 18.7505 58.7821 18.4548 58.7821 18.1463H63.9432ZM56.4216 9.05978H52.8272L55.6599 11.3035C56.2833 11.7971 57.1945 11.6393 57.5802 10.9708C58.0672 10.1268 57.4203 9.05978 56.4216 9.05978ZM66.3037 9.05978H69.8981L67.0654 11.3035C66.442 11.7971 65.5308 11.6393 65.1451 10.9708C64.6581 10.1268 65.305 9.05978 66.3037 9.05978Z" fill="black"/>
<path d="M80.9287 22.28H84.1131V10.2683H80.9287V22.28ZM80.9287 8.39517H84.1131V5.53857H80.9287V8.39517Z" fill="black"/>
<path d="M86.165 26.2136H89.3494V20.9219H89.3963C90.0753 21.9521 91.1758 22.6312 92.8616 22.6312C95.9524 22.6312 98.0597 20.1726 98.0597 16.2858C98.0597 12.5395 96.0226 9.94043 92.8382 9.94043C91.1992 9.94043 90.0753 10.7131 89.3026 11.7668H89.2324V10.2682H86.165V26.2136ZM92.1826 19.9853C90.286 19.9853 89.2792 18.557 89.2792 16.3795C89.2792 14.2253 90.0753 12.516 92.0655 12.516C94.0324 12.516 94.8285 14.1082 94.8285 16.3795C94.8285 18.6507 93.7982 19.9853 92.1826 19.9853Z" fill="black"/>
<path d="M104.412 22.6312C107.41 22.6312 109.47 21.1795 109.47 18.7677C109.47 15.958 107.246 15.396 105.232 14.9746C103.523 14.6234 101.931 14.5297 101.931 13.4995C101.931 12.6331 102.75 12.1648 103.991 12.1648C105.349 12.1648 106.169 12.6331 106.309 13.9209H109.189C108.955 11.5092 107.199 9.94043 104.038 9.94043C101.298 9.94043 99.1442 11.1814 99.1442 13.7804C99.1442 16.4029 101.252 16.9882 103.406 17.4097C105.045 17.7375 106.567 17.8546 106.567 19.0019C106.567 19.8448 105.771 20.3834 104.366 20.3834C102.937 20.3834 101.954 19.7746 101.743 18.3931H98.793C98.9803 20.9453 100.924 22.6312 104.412 22.6312Z" fill="black"/>
<path d="M121.56 22.2798V10.2681H118.375V17.1988C118.375 18.791 117.462 19.9149 115.964 19.9149C114.606 19.9149 113.973 19.1422 113.973 17.7373V10.2681H110.812V18.2759C110.812 20.8983 112.311 22.6076 114.98 22.6076C116.666 22.6076 117.603 21.9754 118.422 20.8749H118.492V22.2798H121.56Z" fill="black"/>
<path d="M123.62 22.2799H126.805V15.3024C126.805 13.7102 127.671 12.6799 128.959 12.6799C130.129 12.6799 130.808 13.3824 130.808 14.7404V22.2799H133.993V15.3024C133.993 13.7102 134.812 12.6799 136.147 12.6799C137.318 12.6799 137.997 13.3824 137.997 14.7404V22.2799H141.181V14.2019C141.181 11.5795 139.753 9.94043 137.224 9.94043C135.702 9.94043 134.438 10.7365 133.618 12.0477H133.571C132.986 10.7834 131.768 9.94043 130.246 9.94043C128.584 9.94043 127.413 10.7834 126.758 11.8838H126.687V10.2682H123.62V22.2799Z" fill="black"/>
<path d="M0.53418 22.28H3.71857V5.53857H0.53418V22.28Z" fill="black"/>
<path d="M11.5047 22.6312C15.2276 22.6312 17.7798 19.8682 17.7798 16.2858C17.7798 12.7034 15.2276 9.94043 11.5047 9.94043C7.78169 9.94043 5.22949 12.7034 5.22949 16.2858C5.22949 19.8682 7.78169 22.6312 11.5047 22.6312ZM11.5047 20.196C9.53782 20.196 8.46075 18.6273 8.46075 16.2858C8.46075 13.9443 9.53782 12.3521 11.5047 12.3521C13.4481 12.3521 14.5486 13.9443 14.5486 16.2858C14.5486 18.6273 13.4481 20.196 11.5047 20.196Z" fill="black"/>
<path d="M24.5519 26.3775C26.3314 26.3775 27.8768 25.956 28.8836 25.0195C29.7733 24.1999 30.3119 23.0526 30.3119 21.3668V10.2682H27.2446V11.5326H27.1977C26.4719 10.5258 25.3714 9.94043 23.8729 9.94043C20.829 9.94043 18.6748 12.2351 18.6748 15.8175C18.6748 19.4468 21.2972 21.5541 23.9665 21.5541C25.4885 21.5541 26.4016 20.9453 27.1041 20.1492H27.1743V21.4604C27.1743 23.0995 26.308 23.9658 24.505 23.9658C23.0299 23.9658 22.3509 23.3804 22.0933 22.6312H18.9324C19.2602 24.9726 21.2738 26.3775 24.5519 26.3775ZM24.505 19.0019C22.866 19.0019 21.789 17.8077 21.789 15.7707C21.789 13.757 22.866 12.4926 24.4816 12.4926C26.4016 12.4926 27.3382 13.9912 27.3382 15.7473C27.3382 17.5268 26.5187 19.0019 24.505 19.0019Z" fill="black"/>
<path d="M38.0515 22.6312C41.7744 22.6312 44.3266 19.8682 44.3266 16.2858C44.3266 12.7034 41.7744 9.94043 38.0515 9.94043C34.3286 9.94043 31.7764 12.7034 31.7764 16.2858C31.7764 19.8682 34.3286 22.6312 38.0515 22.6312ZM38.0515 20.196C36.0847 20.196 35.0076 18.6273 35.0076 16.2858C35.0076 13.9443 36.0847 12.3521 38.0515 12.3521C39.9949 12.3521 41.0954 13.9443 41.0954 16.2858C41.0954 18.6273 39.9949 20.196 38.0515 20.196Z" fill="black"/>
<path d="M141.037 7.64602C141.037 7.1072 141.473 6.67041 142.013 6.67041H143.964C144.502 6.67041 144.94 7.1072 144.94 7.64602C144.94 8.1848 144.502 8.62164 143.964 8.62164H142.013C141.473 8.62164 141.037 8.1848 141.037 7.64602Z" fill="black"/>
</g>
<defs>
<clipPath id="clip0_2_12651">
<rect width="145.171" height="32" fill="white"/>
</clipPath>
</defs>
</svg>
