<svg width="19" height="19" viewBox="0 0 19 19" fill="none" xmlns="http://www.w3.org/2000/svg"><path fill-rule="evenodd" clip-rule="evenodd" d="M16.9297 0C18.0343 0 18.9297 0.895431 18.9297 2V16.9297C18.9297 18.0343 18.0343 18.9297 16.9297 18.9297H2C0.895431 18.9297 0 18.0343 0 16.9297V2C0 0.895431 0.895431 0 2 0H16.9297ZM2.91504 7.19238V16.2266H5.72559V7.19238H2.91504ZM12.8701 6.96875C11.5055 6.96889 10.5889 7.71695 10.2129 8.42676H10.1748V7.19238H7.4834V16.2266H10.2891V11.7559C10.2891 10.577 10.5127 9.43658 11.9746 9.43652C13.4113 9.43652 13.4326 10.7841 13.4326 11.832V16.2266H16.2383V11.2744C16.2383 8.84056 15.7096 6.96875 12.8701 6.96875ZM4.31836 2.70508C3.41834 2.70508 2.69141 3.43201 2.69141 4.33203C2.69149 5.23198 3.41839 5.95898 4.31836 5.95898C5.21826 5.9589 5.94523 5.23193 5.94531 4.33203C5.94531 3.43206 5.21831 2.70516 4.31836 2.70508Z" fill="rgb(0, 0, 0)"/></svg>