<svg width="141" height="32" viewBox="0 0 141 32" fill="none" xmlns="http://www.w3.org/2000/svg">
<path fill-rule="evenodd" clip-rule="evenodd" d="M26.2031 20.8C25.4075 20.8 24.6444 20.4839 24.0818 19.9213C23.5192 19.3587 23.2031 18.5956 23.2031 17.8V4H17.2031V17.8C17.2031 22.7704 21.2327 26.8 26.2031 26.8H32.8031V20.8H26.2031ZM44.2031 10C43.494 10 42.7918 10.1397 42.1366 10.4111C41.4815 10.6824 40.8862 11.0802 40.3847 11.5816C39.8833 12.0831 39.4855 12.6784 39.2142 13.3335C38.9428 13.9887 38.8031 14.6909 38.8031 15.4C38.8031 16.1091 38.9428 16.8113 39.2142 17.4665C39.4855 18.1216 39.8833 18.7169 40.3847 19.2184C40.8862 19.7198 41.4815 20.1176 42.1366 20.389C42.7918 20.6603 43.494 20.8 44.2031 20.8C45.6353 20.8 47.0088 20.2311 48.0215 19.2184C49.0342 18.2057 49.6031 16.8322 49.6031 15.4C49.6031 13.9678 49.0342 12.5943 48.0215 11.5816C47.0088 10.5689 45.6353 10 44.2031 10ZM32.8031 15.4C32.8031 9.1042 37.9073 4 44.2031 4C50.4989 4 55.6031 9.1042 55.6031 15.4C55.6031 21.6958 50.4989 26.8 44.2031 26.8C37.9073 26.8 32.8031 21.6958 32.8031 15.4ZM109.003 10C107.571 10 106.197 10.5689 105.185 11.5816C104.172 12.5943 103.603 13.9678 103.603 15.4C103.603 16.8322 104.172 18.2057 105.185 19.2184C106.197 20.2311 107.571 20.8 109.003 20.8C110.435 20.8 111.809 20.2311 112.822 19.2184C113.834 18.2057 114.403 16.8322 114.403 15.4C114.403 13.9678 113.834 12.5943 112.822 11.5816C111.809 10.5689 110.435 10 109.003 10ZM97.6031 15.4C97.6031 9.1042 102.707 4 109.003 4C115.299 4 120.403 9.1042 120.403 15.4C120.403 21.6958 115.299 26.8 109.003 26.8C102.707 26.8 97.6031 21.6958 97.6031 15.4ZM68.2031 4C61.9073 4 56.8031 9.1042 56.8031 15.4C56.8031 21.6958 61.9073 26.8 68.2031 26.8H85.0031C86.1845 26.8 87.3239 26.62 88.3955 26.2864L91.6031 28L95.0639 21.5176C95.9431 19.8674 96.4029 18.0264 96.4031 16.1566V15.4C96.4031 9.1042 91.2989 4 85.0031 4H68.2031ZM90.4031 15.4C90.4031 13.9678 89.8342 12.5943 88.8215 11.5816C87.8088 10.5689 86.4353 10 85.0031 10H68.2031C67.494 10 66.7918 10.1397 66.1366 10.4111C65.4815 10.6824 64.8862 11.0802 64.3847 11.5816C63.8833 12.0831 63.4855 12.6784 63.2142 13.3335C62.9428 13.9887 62.8031 14.6909 62.8031 15.4C62.8031 16.1091 62.9428 16.8113 63.2142 17.4665C63.4855 18.1216 63.8833 18.7169 64.3847 19.2184C64.8862 19.7198 65.4815 20.1176 66.1366 20.389C66.7918 20.6603 67.494 20.8 68.2031 20.8H85.0031C86.428 20.8 87.7952 20.2369 88.8067 19.2333C89.8182 18.2296 90.392 16.8669 90.4031 15.442V15.4Z" fill="black"/>
</svg>
