<svg width="127" height="32" viewBox="0 0 127 32" fill="none" xmlns="http://www.w3.org/2000/svg">
<path d="M14.5415 6.25879V2.25879H1.92969V29.7412H14.5415V25.7412C11.9579 25.7412 9.48018 24.7148 7.6534 22.888C5.82657 21.0612 4.80028 18.5835 4.80028 16C4.80028 13.4164 5.82657 10.9387 7.6534 9.11192C9.48018 7.2851 11.9579 6.25879 14.5415 6.25879Z" fill="black"/>
<path d="M14.5391 6.25879V25.7412C17.1226 25.7412 19.6003 24.7148 21.4272 22.888C23.254 21.0612 24.2802 18.5835 24.2802 16C24.2802 13.4164 23.254 10.9387 21.4272 9.11192C19.6003 7.2851 17.1226 6.25879 14.5391 6.25879Z" fill="black"/>
<path d="M31.3594 8.70605H34.1829V22.3061H31.3594V8.70605Z" fill="black"/>
<path d="M35.7661 17.6471C35.7661 16.6687 36.0566 15.7123 36.6008 14.8991C37.145 14.0859 37.9183 13.4526 38.8229 13.0794C39.7275 12.7063 40.7224 12.6101 41.6816 12.8031C42.6409 12.996 43.5213 13.4694 44.2112 14.1633C44.901 14.8572 45.3695 15.7402 45.5569 16.7006C45.7443 17.661 45.6425 18.6553 45.2641 19.5577C44.8858 20.46 44.2481 21.2298 43.4319 21.7693C42.6156 22.3089 41.6575 22.5939 40.679 22.5883C40.0301 22.5934 39.3866 22.4689 38.7864 22.2219C38.1862 21.975 37.6413 21.6108 37.1837 21.1507C36.7261 20.6904 36.365 20.1434 36.1216 19.5418C35.8782 18.9402 35.7573 18.2961 35.7661 17.6471ZM42.8437 17.6471C42.8326 17.2253 42.6974 16.8161 42.4549 16.4707C42.2125 16.1253 41.8736 15.8591 41.4806 15.7053C41.0877 15.5515 40.6581 15.517 40.2457 15.6061C39.8332 15.6951 39.4561 15.9038 39.1616 16.2061C38.8672 16.5083 38.6683 16.8906 38.59 17.3053C38.5117 17.72 38.5573 18.1485 38.7213 18.5373C38.8852 18.9261 39.1601 19.258 39.5118 19.4914C39.8633 19.7248 40.2758 19.8493 40.6978 19.8495C40.9852 19.8551 41.2705 19.8014 41.5361 19.6916C41.8017 19.582 42.0418 19.4187 42.2415 19.212C42.4411 19.0053 42.5959 18.7596 42.6963 18.4904C42.7968 18.2211 42.8405 17.9341 42.8249 17.6471H42.8437Z" fill="black"/>
<path d="M56.7631 12.9881V21.8446C56.7631 24.9693 54.316 26.2963 51.8407 26.2963C50.9676 26.368 50.0918 26.1945 49.3121 25.7954C48.5322 25.3964 47.8792 24.7875 47.4266 24.0375L49.8078 22.6634C50.0007 23.0525 50.3076 23.3734 50.6877 23.5836C51.0677 23.7938 51.5027 23.8832 51.9348 23.8399C52.2101 23.8738 52.4895 23.8465 52.7529 23.7599C53.0164 23.6732 53.2575 23.5295 53.4589 23.3388C53.6604 23.1481 53.8172 22.9154 53.9182 22.657C54.0192 22.3987 54.0618 22.1213 54.0431 21.8446V20.9881C53.7145 21.3865 53.2976 21.7027 52.8255 21.9119C52.3533 22.121 51.8389 22.2172 51.3231 22.1928C50.075 22.1928 48.8781 21.697 47.9955 20.8145C47.113 19.932 46.6172 18.735 46.6172 17.4869C46.6172 16.2388 47.113 15.0419 47.9955 14.1594C48.8781 13.2769 50.075 12.781 51.3231 12.781C51.8389 12.7567 52.3533 12.8529 52.8255 13.062C53.2976 13.2711 53.7145 13.5874 54.0431 13.9858V13.0446L56.7631 12.9881ZM54.0431 17.4587C54.0618 17.0084 53.9455 16.5628 53.709 16.1792C53.4724 15.7955 53.1266 15.4914 52.7158 15.3059C52.3051 15.1204 51.8483 15.0621 51.4041 15.1383C50.96 15.2146 50.5487 15.4219 50.2233 15.7337C49.8979 16.0455 49.6733 16.4476 49.5782 16.8882C49.4832 17.3287 49.522 17.7875 49.6898 18.2058C49.8578 18.6241 50.1469 18.9826 50.5201 19.2352C50.8933 19.4878 51.3336 19.623 51.7842 19.6234C52.0784 19.6446 52.3736 19.6038 52.6509 19.5039C52.9282 19.4038 53.1816 19.2467 53.3944 19.0427C53.6073 18.8387 53.775 18.5923 53.8867 18.3195C53.9985 18.0466 54.0517 17.7534 54.0431 17.4587Z" fill="black"/>
<path d="M58.3519 17.6472C58.3519 16.6696 58.642 15.7139 59.1853 14.9011C59.7286 14.0883 60.5009 13.455 61.4043 13.0813C62.3078 12.7076 63.3017 12.6103 64.2605 12.8017C65.2193 12.9931 66.0997 13.4647 66.7904 14.1566C67.481 14.8487 67.9509 15.73 68.1404 16.689C68.3301 17.6482 68.2309 18.642 67.8554 19.5447C67.48 20.4474 66.8452 21.2185 66.0314 21.7603C65.2176 22.3021 64.2613 22.5903 63.2837 22.5884C62.6335 22.5947 61.9885 22.4712 61.3867 22.2249C60.7849 21.9787 60.2383 21.6149 59.779 21.1546C59.3196 20.6944 58.9568 20.1471 58.7117 19.5448C58.4667 18.9426 58.3444 18.2974 58.3519 17.6472ZM65.4295 17.6472C65.4184 17.225 65.2829 16.8154 65.0401 16.4698C64.7973 16.1243 64.4578 15.8581 64.0643 15.7046C63.6708 15.5511 63.2407 15.5171 62.828 15.607C62.4153 15.6968 62.0383 15.9064 61.7442 16.2096C61.4501 16.5128 61.2519 16.896 61.1748 17.3112C61.0975 17.7265 61.1445 18.1553 61.3098 18.5439C61.4752 18.9326 61.7516 19.2638 62.1045 19.4961C62.4572 19.7283 62.8707 19.8513 63.2931 19.8496C63.5804 19.8553 63.8658 19.8015 64.1314 19.6918C64.397 19.5821 64.6371 19.4188 64.8367 19.2121C65.0363 19.0055 65.1911 18.7597 65.2916 18.4905C65.392 18.2213 65.4358 17.9342 65.4201 17.6472H65.4295Z" fill="black"/>
<path d="M69.5234 10.4941C69.5234 10.1628 69.6217 9.8389 69.8058 9.56341C69.9899 9.28789 70.2515 9.07317 70.5576 8.94637C70.8638 8.81957 71.2006 8.7864 71.5256 8.85104C71.8505 8.91568 72.149 9.07524 72.3834 9.30953C72.6176 9.54384 72.7772 9.84238 72.8418 10.1673C72.9065 10.4923 72.8733 10.8291 72.7465 11.1353C72.6197 11.4413 72.4049 11.703 72.1295 11.8871C71.854 12.0712 71.5301 12.1694 71.1987 12.1694C70.7559 12.1645 70.3327 11.9865 70.0195 11.6733C69.7064 11.3602 69.5283 10.937 69.5234 10.4941ZM69.7964 12.9883H72.6199V22.3059H69.7964V12.9883Z" fill="black"/>
<path d="M84.7068 17.6471C84.7384 18.2668 84.6472 18.8866 84.4384 19.4709C84.2296 20.0552 83.9072 20.5924 83.49 21.0516C83.0727 21.5109 82.5688 21.8831 82.0071 22.1468C81.4455 22.4105 80.8372 22.5605 80.2174 22.5883C79.6913 22.6233 79.1642 22.5391 78.6753 22.3419C78.1864 22.1446 77.7484 21.8396 77.3938 21.4495V26.0518H74.5703V12.9883H77.3938V13.8636C77.7489 13.4746 78.1872 13.171 78.6762 12.9754C79.1651 12.7797 79.692 12.6973 80.2174 12.7342C80.8348 12.7619 81.4406 12.9111 82.0003 13.173C82.56 13.435 83.0627 13.8047 83.4796 14.2608C83.8965 14.717 84.2194 15.2509 84.43 15.832C84.6405 16.4129 84.7346 17.0297 84.7068 17.6471ZM81.8833 17.6471C81.8721 17.2099 81.7322 16.7858 81.4811 16.4279C81.23 16.07 80.8787 15.794 80.4715 15.6349C80.0642 15.4756 79.6191 15.4402 79.1917 15.5329C78.7644 15.6256 78.374 15.8425 78.0693 16.1562C77.7647 16.4699 77.5594 16.8665 77.4793 17.2964C77.3991 17.7263 77.4476 18.1702 77.6187 18.5727C77.7898 18.975 78.0758 19.318 78.441 19.5585C78.8062 19.7991 79.2342 19.9264 79.6715 19.9248C79.971 19.9375 80.2698 19.8867 80.5483 19.7759C80.8269 19.665 81.0788 19.4965 81.2877 19.2815C81.4965 19.0664 81.6575 18.8096 81.7601 18.528C81.8628 18.2463 81.9047 17.9461 81.8833 17.6471Z" fill="black"/>
<path d="M93.3011 19.5105C93.3011 21.6564 91.4188 22.5694 89.4235 22.5694C88.6096 22.6426 87.7926 22.4701 87.0779 22.0741C86.3631 21.6782 85.7836 21.0769 85.4141 20.3482L87.8423 18.9741C87.9385 19.3099 88.1471 19.6025 88.4332 19.803C88.7193 20.0034 89.0655 20.0995 89.4141 20.0753C90.0823 20.0753 90.4211 19.8682 90.4211 19.4917C90.4211 18.4658 85.8376 19.0117 85.8376 15.7835C85.8376 13.7505 87.5505 12.7341 89.4894 12.7341C90.2263 12.701 90.9585 12.8683 91.608 13.2179C92.2576 13.5676 92.8004 14.0866 93.1788 14.72L90.7505 16C90.6432 15.7571 90.468 15.5506 90.2459 15.4053C90.0237 15.26 89.7642 15.1822 89.4988 15.1811C89.0094 15.1811 88.7176 15.3694 88.7176 15.6988C88.7176 16.7717 93.3011 16.0658 93.3011 19.5105Z" fill="black"/>
<path d="M103.532 12.9883V22.3059H100.708V21.4306C100.387 21.8181 99.9799 22.1247 99.5197 22.3258C99.0585 22.5269 98.5569 22.6168 98.0543 22.5883C96.1719 22.5883 94.5625 21.2424 94.5625 18.7295V12.9883H97.386V18.3059C97.3634 18.5282 97.3898 18.7527 97.4632 18.9639C97.5366 19.175 97.6543 19.3678 97.8086 19.5289C97.9639 19.6899 98.1521 19.8155 98.3601 19.8969C98.5681 19.9782 98.7912 20.0134 99.0143 20C100.031 20 100.746 19.3977 100.746 18.1177V12.9883H103.532Z" fill="black"/>
<path d="M119.53 16.5836V22.306H116.706V16.8283C116.706 15.8871 116.264 15.3036 115.37 15.3036C114.476 15.3036 113.911 15.953 113.911 17.0542V22.306H111.088V16.8283C111.088 15.8871 110.645 15.3036 109.751 15.3036C108.857 15.3036 108.292 15.953 108.292 17.0542V22.306H105.469V12.9883H108.292V13.8448C108.585 13.4664 108.966 13.1668 109.404 12.9729C109.841 12.779 110.32 12.6969 110.796 12.7342C111.273 12.7092 111.749 12.809 112.177 13.0235C112.604 13.238 112.968 13.56 113.233 13.9577C113.544 13.5421 113.954 13.2119 114.427 12.998C114.898 12.784 115.418 12.6932 115.935 12.7342C118.137 12.7342 119.53 14.2589 119.53 16.5836Z" fill="black"/>
<path d="M121.899 12.9317C123.042 12.9317 123.969 12.0046 123.969 10.8611C123.969 9.71759 123.042 8.79053 121.899 8.79053C120.755 8.79053 119.828 9.71759 119.828 10.8611C119.828 12.0046 120.755 12.9317 121.899 12.9317Z" fill="black"/>
</svg>
