<svg width="146" height="32" viewBox="0 0 146 32" fill="none" xmlns="http://www.w3.org/2000/svg">
<g clip-path="url(#clip0_605_2783)">
<path fill-rule="evenodd" clip-rule="evenodd" d="M46.0781 2.12951C46.0781 1.0451 46.9668 0.166016 48.0631 0.166016H51.5212C52.3014 0.166016 53.0576 0.433488 53.661 0.922902L54.7129 1.77619L54.7392 1.79993C54.7635 1.79183 54.7877 1.78391 54.8121 1.77619C56.7099 1.17491 59.0125 1.06056 61.3626 1.06056C63.7128 1.06056 66.0154 1.17491 67.9132 1.77619C67.9376 1.78391 67.9618 1.79183 67.9861 1.79993L68.0124 1.77619L69.0643 0.922902C69.6677 0.433488 70.4239 0.166016 71.2041 0.166016H74.6622C75.7585 0.166016 76.6472 1.0451 76.6472 2.12951V3.3433C76.6472 4.28243 76.2473 5.17811 75.5454 5.81061L74.6968 6.57548C74.2825 6.94888 73.7853 7.22063 73.2452 7.36879L73.0444 7.42386C73.8308 9.2798 74.2652 11.2636 74.2652 12.8685C74.2652 19.3242 70.227 22.1124 66.669 24.569C63.8669 26.5037 61.3626 28.2327 61.3626 31.3856C61.3626 28.2327 58.8584 26.5037 56.0563 24.569C52.4983 22.1124 48.4601 19.3242 48.4601 12.8685C48.4601 11.2636 48.8945 9.2798 49.6809 7.42386L49.4801 7.36879C48.94 7.22063 48.4428 6.94888 48.0285 6.57548L47.1799 5.81061C46.478 5.17811 46.0781 4.28243 46.0781 3.3433V2.12951ZM63.9432 18.1463C63.9432 18.4548 63.8072 18.7505 63.5653 18.9686C63.3233 19.1867 62.9951 19.3092 62.6529 19.3092C62.3575 19.3092 62.0724 19.2178 61.8444 19.0525C62.2326 20.0804 63.2261 21.0544 64.7372 19.4881C66.0712 18.0327 64.6778 14.9632 63.3204 13.1417C62.868 12.5345 62.1252 12.2423 61.3626 12.2423C60.6001 12.2423 59.8573 12.5345 59.4049 13.1417C58.0475 14.9632 56.6541 18.0327 57.9881 19.4881C59.4992 21.0544 60.4927 20.0804 60.8809 19.0525C60.6529 19.2178 60.3678 19.3092 60.0724 19.3092C59.7302 19.3092 59.402 19.1867 59.16 18.9686C58.9181 18.7505 58.7821 18.4548 58.7821 18.1463H63.9432ZM56.4216 9.05978H52.8272L55.6599 11.3035C56.2833 11.7971 57.1945 11.6393 57.5802 10.9708C58.0672 10.1268 57.4203 9.05978 56.4216 9.05978ZM66.3037 9.05978H69.8981L67.0654 11.3035C66.442 11.7971 65.5308 11.6393 65.1451 10.9708C64.6581 10.1268 65.305 9.05978 66.3037 9.05978Z" fill="black"/>
<path d="M80.9297 22.28H84.1141V10.2683H80.9297V22.28ZM80.9297 8.39517H84.1141V5.53857H80.9297V8.39517Z" fill="black"/>
<path d="M86.1641 26.2136H89.3484V20.9219H89.3953C90.0743 21.9521 91.1748 22.6312 92.8606 22.6312C95.9514 22.6312 98.0587 20.1726 98.0587 16.2858C98.0587 12.5395 96.0216 9.94043 92.8372 9.94043C91.1982 9.94043 90.0743 10.7131 89.3016 11.7668H89.2314V10.2682H86.1641V26.2136ZM92.1816 19.9853C90.285 19.9853 89.2782 18.557 89.2782 16.3795C89.2782 14.2253 90.0743 12.516 92.0645 12.516C94.0314 12.516 94.8275 14.1082 94.8275 16.3795C94.8275 18.6507 93.7972 19.9853 92.1816 19.9853Z" fill="black"/>
<path d="M104.409 22.6312C107.406 22.6312 109.466 21.1795 109.466 18.7677C109.466 15.958 107.242 15.396 105.228 14.9746C103.519 14.6234 101.927 14.5297 101.927 13.4995C101.927 12.6331 102.746 12.1648 103.987 12.1648C105.345 12.1648 106.165 12.6331 106.305 13.9209H109.185C108.951 11.5092 107.195 9.94043 104.034 9.94043C101.294 9.94043 99.1403 11.1814 99.1403 13.7804C99.1403 16.4029 101.248 16.9882 103.402 17.4097C105.041 17.7375 106.563 17.8546 106.563 19.0019C106.563 19.8448 105.767 20.3834 104.362 20.3834C102.933 20.3834 101.95 19.7746 101.739 18.3931H98.7891C98.9764 20.9453 100.92 22.6312 104.409 22.6312Z" fill="black"/>
<path d="M121.56 22.2798V10.2681H118.375V17.1988C118.375 18.791 117.462 19.9149 115.964 19.9149C114.606 19.9149 113.973 19.1422 113.973 17.7373V10.2681H110.812V18.2759C110.812 20.8983 112.311 22.6076 114.98 22.6076C116.666 22.6076 117.603 21.9754 118.422 20.8749H118.492V22.2798H121.56Z" fill="black"/>
<path d="M123.617 22.2799H126.802V15.3024C126.802 13.7102 127.668 12.6799 128.956 12.6799C130.126 12.6799 130.805 13.3824 130.805 14.7404V22.2799H133.99V15.3024C133.99 13.7102 134.809 12.6799 136.144 12.6799C137.315 12.6799 137.994 13.3824 137.994 14.7404V22.2799H141.178V14.2019C141.178 11.5795 139.75 9.94043 137.221 9.94043C135.699 9.94043 134.435 10.7365 133.615 12.0477H133.568C132.983 10.7834 131.765 9.94043 130.244 9.94043C128.581 9.94043 127.41 10.7834 126.755 11.8838H126.684V10.2682H123.617V22.2799Z" fill="black"/>
<path d="M0.53125 22.28H3.71564V5.53857H0.53125V22.28Z" fill="black"/>
<path d="M11.5017 22.6312C15.2247 22.6312 17.7768 19.8682 17.7768 16.2858C17.7768 12.7034 15.2247 9.94043 11.5017 9.94043C7.77876 9.94043 5.22656 12.7034 5.22656 16.2858C5.22656 19.8682 7.77876 22.6312 11.5017 22.6312ZM11.5017 20.196C9.53489 20.196 8.45782 18.6273 8.45782 16.2858C8.45782 13.9443 9.53489 12.3521 11.5017 12.3521C13.4451 12.3521 14.5456 13.9443 14.5456 16.2858C14.5456 18.6273 13.4451 20.196 11.5017 20.196Z" fill="black"/>
<path d="M24.5489 26.3775C26.3285 26.3775 27.8738 25.956 28.8807 25.0195C29.7704 24.1999 30.3089 23.0526 30.3089 21.3668V10.2682H27.2416V11.5326H27.1948C26.4689 10.5258 25.3685 9.94043 23.8699 9.94043C20.826 9.94043 18.6719 12.2351 18.6719 15.8175C18.6719 19.4468 21.2943 21.5541 23.9636 21.5541C25.4855 21.5541 26.3987 20.9453 27.1011 20.1492H27.1714V21.4604C27.1714 23.0995 26.305 23.9658 24.5021 23.9658C23.027 23.9658 22.348 23.3804 22.0904 22.6312H18.9294C19.2572 24.9726 21.2709 26.3775 24.5489 26.3775ZM24.5021 19.0019C22.8631 19.0019 21.786 17.8077 21.786 15.7707C21.786 13.757 22.8631 12.4926 24.4787 12.4926C26.3987 12.4926 27.3353 13.9912 27.3353 15.7473C27.3353 17.5268 26.5158 19.0019 24.5021 19.0019Z" fill="black"/>
<path d="M38.0486 22.6312C41.7715 22.6312 44.3237 19.8682 44.3237 16.2858C44.3237 12.7034 41.7715 9.94043 38.0486 9.94043C34.3256 9.94043 31.7734 12.7034 31.7734 16.2858C31.7734 19.8682 34.3256 22.6312 38.0486 22.6312ZM38.0486 20.196C36.0817 20.196 35.0047 18.6273 35.0047 16.2858C35.0047 13.9443 36.0817 12.3521 38.0486 12.3521C39.992 12.3521 41.0925 13.9443 41.0925 16.2858C41.0925 18.6273 39.992 20.196 38.0486 20.196Z" fill="black"/>
<path d="M141.039 7.64602C141.039 7.1072 141.475 6.67041 142.015 6.67041H143.966C144.504 6.67041 144.942 7.1072 144.942 7.64602C144.942 8.1848 144.504 8.62164 143.966 8.62164H142.015C141.475 8.62164 141.039 8.1848 141.039 7.64602Z" fill="black"/>
</g>
<defs>
<clipPath id="clip0_605_2783">
<rect width="145.171" height="32" fill="white"/>
</clipPath>
</defs>
</svg>
