<svg width="162" height="32" viewBox="0 0 162 32" fill="none" xmlns="http://www.w3.org/2000/svg">
<g clip-path="url(#clip0_605_2752)">
<path fill-rule="evenodd" clip-rule="evenodd" d="M20.4446 9.34824C19.129 8.4692 17.5822 8 16 8V0C19.1645 0 22.2579 0.938384 24.8891 2.69649C27.5203 4.45458 29.571 6.95345 30.7821 9.87704C31.993 12.8006 32.3099 16.0178 31.6926 19.1214C31.0752 22.2251 29.5514 25.0761 27.3137 27.3137C25.0761 29.5514 22.2251 31.0752 19.1214 31.6926C16.0178 32.3099 12.8006 31.993 9.87704 30.7821C6.95344 29.571 4.45458 27.5203 2.69649 24.8891C0.938384 22.2579 0 19.1645 0 16H8C8 17.5822 8.4692 19.129 9.34824 20.4446C10.2273 21.7602 11.4767 22.7855 12.9386 23.391C14.4003 23.9966 16.0089 24.155 17.5607 23.8462C19.1126 23.5376 20.538 22.7757 21.6569 21.6569C22.7757 20.538 23.5376 19.1126 23.8462 17.5607C24.155 16.0089 23.9966 14.4003 23.391 12.9386C22.7855 11.4767 21.7602 10.2273 20.4446 9.34824Z" fill="black"/>
<path fill-rule="evenodd" clip-rule="evenodd" d="M8 4.22794e-06C8 1.05058 7.79308 2.09087 7.39104 3.06148C6.989 4.03207 6.39972 4.91399 5.65685 5.65686C4.91399 6.39973 4.03208 6.989 3.06147 7.39104C2.09086 7.79308 1.05057 8 3.49688e-07 8L0 16C2.10115 16 4.18172 15.5862 6.12294 14.7821C8.06416 13.978 9.828 12.7994 11.3137 11.3137C12.7994 9.828 13.978 8.06416 14.7821 6.12294C15.5862 4.18172 16 2.10115 16 0L8 4.22794e-06Z" fill="black"/>
<path d="M100.499 11.562H96.6172V23.8919H100.499V11.562Z" fill="black"/>
<path d="M97.0449 9.25338C97.4505 9.6593 97.9577 9.86226 98.5665 9.86226C99.1753 9.86226 99.6745 9.6593 100.063 9.25338C100.453 8.83058 100.647 8.32314 100.647 7.73118C100.647 7.12231 100.453 6.61489 100.063 6.20899C99.6745 5.80305 99.1753 5.6001 98.5665 5.6001C97.9577 5.6001 97.4505 5.80305 97.0449 6.20899C96.6553 6.61489 96.4609 7.12231 96.4609 7.73118C96.4609 8.32314 96.6553 8.83058 97.0449 9.25338Z" fill="black"/>
<path d="M40.9219 23.8918V5.98047H44.905V20.3907H52.8459V23.8918H40.9219Z" fill="black"/>
<path fill-rule="evenodd" clip-rule="evenodd" d="M60.0218 24.1707C58.7534 24.1707 57.6033 23.8917 56.5715 23.3335C55.5567 22.7585 54.7534 21.9805 54.1614 20.9994C53.5694 20.0185 53.2734 18.9191 53.2734 17.7014C53.2734 16.4836 53.5694 15.3927 54.1614 14.4286C54.7534 13.4646 55.5567 12.7034 56.5715 12.1454C57.5863 11.5702 58.7365 11.2827 60.0218 11.2827C61.3073 11.2827 62.4574 11.5618 63.4722 12.1199C64.487 12.6781 65.2904 13.4477 65.8823 14.4286C66.4743 15.3927 66.7703 16.4836 66.7703 17.7014C66.7703 18.9191 66.4743 20.0185 65.8823 20.9994C65.2904 21.9805 64.487 22.7585 63.4722 23.3335C62.4574 23.8917 61.3073 24.1707 60.0218 24.1707ZM60.0218 20.6443C60.58 20.6443 61.0705 20.5259 61.4934 20.2891C61.9162 20.0354 62.2375 19.6887 62.4574 19.249C62.6942 18.7923 62.8126 18.2764 62.8126 17.7014C62.8126 17.1263 62.6942 16.6274 62.4574 16.2046C62.2206 15.7648 61.8908 15.4266 61.4679 15.1898C61.062 14.936 60.58 14.8092 60.0218 14.8092C59.4806 14.8092 58.9986 14.936 58.5758 15.1898C58.153 15.4266 57.8231 15.7648 57.5863 16.2046C57.3495 16.6443 57.2312 17.1517 57.2312 17.7267C57.2312 18.2849 57.3495 18.7923 57.5863 19.249C57.8231 19.6887 58.153 20.0354 58.5758 20.2891C58.9986 20.5259 59.4806 20.6443 60.0218 20.6443Z" fill="black"/>
<path fill-rule="evenodd" clip-rule="evenodd" d="M69.8437 28.712C70.8754 29.1855 72.0678 29.4223 73.4209 29.4223C74.7401 29.4223 75.9156 29.1602 76.9473 28.6359C77.9791 28.1115 78.7908 27.3843 79.3828 26.4541C79.9747 25.5239 80.2711 24.4245 80.2711 23.1559V11.5619H76.4652V12.3903C76.1822 12.152 75.8607 11.952 75.5012 11.7902C74.8415 11.4688 74.0889 11.3081 73.2433 11.3081C72.1101 11.3081 71.1037 11.5787 70.2243 12.1199C69.3447 12.6443 68.6513 13.3715 68.1439 14.3018C67.6364 15.2151 67.3828 16.2468 67.3828 17.397C67.3828 18.5302 67.6364 19.5619 68.1439 20.4921C68.6513 21.4223 69.3447 22.1581 70.2243 22.6993C71.1037 23.2405 72.1101 23.5111 73.2433 23.5111C74.072 23.5111 74.8247 23.3505 75.5012 23.0291C75.8289 22.8735 76.1249 22.69 76.3891 22.4787V23.2575C76.3891 24.12 76.1101 24.7881 75.5519 25.2617C75.0107 25.7353 74.2581 25.972 73.294 25.972C72.516 25.972 71.8479 25.8367 71.2898 25.5661C70.7486 25.2955 70.258 24.898 69.8183 24.3737L67.4335 26.7585C68.0255 27.6042 68.8289 28.2554 69.8437 28.712ZM75.3743 19.7056C74.9853 19.9424 74.5203 20.0608 73.979 20.0608C73.4378 20.0608 72.9642 19.9424 72.5583 19.7056C72.1692 19.4688 71.8648 19.1475 71.645 18.7415C71.4251 18.3187 71.3151 17.8705 71.3151 17.397C71.3151 16.8895 71.4251 16.4329 71.645 16.027C71.8648 15.6211 72.1777 15.2997 72.5836 15.0629C72.9895 14.8261 73.4547 14.7077 73.979 14.7077C74.5203 14.7077 74.9853 14.8261 75.3743 15.0629C75.7803 15.2997 76.0847 15.6211 76.2877 16.027C76.5075 16.4329 76.6175 16.8895 76.6175 17.397C76.6175 17.9043 76.5075 18.361 76.2877 18.7669C76.0847 19.1559 75.7803 19.4688 75.3743 19.7056Z" fill="black"/>
<path fill-rule="evenodd" clip-rule="evenodd" d="M88.4441 24.1707C87.1753 24.1707 86.0249 23.8917 84.9937 23.3335C83.9785 22.7585 83.1753 21.9805 82.5833 20.9994C81.9913 20.0185 81.6953 18.9191 81.6953 17.7014C81.6953 16.4836 81.9913 15.3927 82.5833 14.4286C83.1753 13.4646 83.9785 12.7034 84.9937 12.1454C86.0081 11.5702 87.1585 11.2827 88.4441 11.2827C89.7289 11.2827 90.8793 11.5618 91.8937 12.1199C92.9089 12.6781 93.7121 13.4477 94.3041 14.4286C94.8961 15.3927 95.1921 16.4836 95.1921 17.7014C95.1921 18.9191 94.8961 20.0185 94.3041 20.9994C93.7121 21.9805 92.9089 22.7585 91.8937 23.3335C90.8793 23.8917 89.7289 24.1707 88.4441 24.1707ZM88.4441 20.6443C89.0017 20.6443 89.4921 20.5259 89.9153 20.2891C90.3377 20.0354 90.6593 19.6887 90.8793 19.249C91.1161 18.7923 91.2345 18.2764 91.2345 17.7014C91.2345 17.1263 91.1161 16.6274 90.8793 16.2046C90.6425 15.7648 90.3129 15.4266 89.8897 15.1898C89.4841 14.936 89.0017 14.8092 88.4441 14.8092C87.9025 14.8092 87.4201 14.936 86.9977 15.1898C86.5745 15.4266 86.2449 15.7648 86.0081 16.2046C85.7713 16.6443 85.6529 17.1517 85.6529 17.7267C85.6529 18.2849 85.7713 18.7923 86.0081 19.249C86.2449 19.6887 86.5745 20.0354 86.9977 20.2891C87.4201 20.5259 87.9025 20.6443 88.4441 20.6443Z" fill="black"/>
<path fill-rule="evenodd" clip-rule="evenodd" d="M109.822 24.1454C108.994 24.1454 108.232 23.9847 107.539 23.6634C107.174 23.4943 106.844 23.2923 106.55 23.0576V29.0926H102.719V11.5619H106.6V12.4128C106.882 12.1825 107.195 11.9834 107.539 11.8155C108.232 11.4772 108.994 11.3081 109.822 11.3081C110.989 11.3081 112.021 11.5872 112.917 12.1454C113.831 12.7035 114.541 13.4646 115.048 14.4287C115.573 15.3927 115.835 16.4921 115.835 17.7267C115.835 18.9615 115.573 20.0608 115.048 21.0249C114.541 21.989 113.831 22.75 112.917 23.3082C112.021 23.8663 110.989 24.1454 109.822 24.1454ZM109.112 20.6443C109.67 20.6443 110.152 20.5175 110.558 20.2638C110.981 20.0101 111.311 19.6633 111.548 19.2236C111.784 18.7839 111.903 18.2849 111.903 17.7267C111.903 17.1517 111.784 16.6443 111.548 16.2046C111.311 15.7648 110.981 15.4266 110.558 15.1898C110.152 14.936 109.679 14.8092 109.137 14.8092C108.596 14.8092 108.114 14.936 107.692 15.1898C107.285 15.4266 106.964 15.7648 106.728 16.2046C106.491 16.6443 106.372 17.1517 106.372 17.7267C106.372 18.2849 106.482 18.7839 106.702 19.2236C106.939 19.6633 107.268 20.0101 107.692 20.2638C108.114 20.5175 108.588 20.6443 109.112 20.6443Z" fill="black"/>
<path d="M119.64 23.9174C120.35 24.1035 121.069 24.1965 121.796 24.1965C123.335 24.1965 124.553 23.8414 125.45 23.131C126.362 22.4206 126.819 21.465 126.819 20.2642C126.819 19.4862 126.676 18.8603 126.388 18.3868C126.101 17.8963 125.729 17.5073 125.272 17.2198C124.815 16.9322 124.333 16.7038 123.826 16.5347C123.318 16.3656 122.836 16.2218 122.38 16.1034C121.923 15.985 121.551 15.8498 121.263 15.6975C120.976 15.5453 120.832 15.3423 120.832 15.0886C120.832 14.8518 120.942 14.6742 121.162 14.5558C121.382 14.4206 121.711 14.353 122.151 14.353C122.608 14.353 123.073 14.4459 123.546 14.632C124.037 14.818 124.477 15.1394 124.866 15.5961L127.073 13.3635C126.515 12.6531 125.788 12.1203 124.891 11.7652C124.012 11.3931 123.048 11.207 121.999 11.207C121.002 11.207 120.13 11.3762 119.386 11.7144C118.642 12.0527 118.066 12.5178 117.661 13.1098C117.255 13.6848 117.052 14.3698 117.052 15.1648C117.052 15.909 117.196 16.5263 117.483 17.0168C117.77 17.4903 118.143 17.8625 118.599 18.133C119.056 18.4037 119.538 18.6151 120.046 18.7673C120.553 18.9195 121.035 19.0633 121.492 19.1986C121.948 19.317 122.321 19.4608 122.608 19.6299C122.913 19.7822 123.065 20.0105 123.065 20.3149C123.065 20.5517 122.938 20.7377 122.684 20.873C122.447 21.0083 122.101 21.076 121.644 21.076C120.984 21.076 120.375 20.9576 119.818 20.7208C119.259 20.4671 118.777 20.1204 118.371 19.6806L116.164 21.9132C116.587 22.3698 117.094 22.7758 117.686 23.131C118.295 23.4692 118.946 23.7314 119.64 23.9174Z" fill="black"/>
<path d="M133.893 24.1709C132.761 24.1709 131.754 23.9426 130.875 23.4859C130.012 23.0123 129.336 22.3696 128.845 21.5578C128.354 20.7291 128.109 19.7819 128.109 18.7163V11.562H131.991V18.6656C131.991 19.0884 132.058 19.4521 132.194 19.7565C132.346 20.061 132.566 20.2978 132.853 20.4669C133.141 20.636 133.488 20.7206 133.893 20.7206C134.469 20.7206 134.925 20.543 135.264 20.1878C135.602 19.8157 135.771 19.3083 135.771 18.6656V11.562H139.653V18.691C139.653 19.7735 139.408 20.7291 138.917 21.5578C138.426 22.3696 137.75 23.0123 136.887 23.4859C136.025 23.9426 135.027 24.1709 133.893 24.1709Z" fill="black"/>
<path d="M145.468 11.5619H141.586V23.8917H145.468V16.6866C145.468 16.2638 145.552 15.9086 145.721 15.6211C145.908 15.3335 146.153 15.1136 146.457 14.9615C146.762 14.7923 147.108 14.7077 147.497 14.7077C148.056 14.7077 148.52 14.8853 148.892 15.2405C149.282 15.5787 149.476 16.0608 149.476 16.6866V23.8917H153.358V16.6866C153.358 16.2638 153.443 15.9086 153.612 15.6211C153.798 15.3335 154.043 15.1136 154.348 14.9615C154.652 14.7923 154.999 14.7077 155.388 14.7077C155.946 14.7077 156.411 14.8853 156.783 15.2405C157.172 15.5787 157.366 16.0608 157.366 16.6866V23.8917H161.248V16.2553C161.248 15.2236 161.028 14.3441 160.588 13.6168C160.165 12.8726 159.582 12.306 158.838 11.9171C158.111 11.5111 157.273 11.3081 156.326 11.3081C155.362 11.3081 154.491 11.5195 153.713 11.9424C153.208 12.2118 152.766 12.5595 152.388 12.9854C152.035 12.5399 151.606 12.1753 151.1 11.8916C150.424 11.5027 149.654 11.3081 148.792 11.3081C147.878 11.3081 147.058 11.5027 146.331 11.8916C146.014 12.0535 145.727 12.2473 145.468 12.4731V11.5619Z" fill="black"/>
</g>
<defs>
<clipPath id="clip0_605_2752">
<rect width="161.6" height="32" fill="white"/>
</clipPath>
</defs>
</svg>
