<svg width="1440" height="1226" viewBox="0 0 1440 1226" fill="none" xmlns="http://www.w3.org/2000/svg">
<g clip-path="url(#clip0_2131_396)">
<path fill-rule="evenodd" clip-rule="evenodd" d="M809.477 83.6921C812.659 83.6171 817.226 83.6151 822.75 83.9011C828.193 84.1821 832.497 84.6181 835.46 84.9861C838.468 85.3611 841.101 87.0501 843.087 89.3401C844.822 91.3401 847.064 93.6721 849.091 95.0021C1022.6 107.948 1174.47 146.538 1280.8 200.91C1286.97 201.341 1294.77 199.179 1299.34 197.664C1301.85 196.832 1304.55 196.668 1307.03 197.599C1311.48 199.273 1319.5 202.722 1329.5 208.918C1339.73 215.259 1346.71 221.259 1350.29 224.625C1352.16 226.388 1353.22 228.794 1353.58 231.34C1354.32 236.435 1355.92 245.228 1358.66 249.911C1410.67 290.974 1440.08 337.676 1440.08 387.212V2149.15H0.078125V387.212C0.078125 311.265 69.2021 241.978 182.915 189.467C185.303 186.038 187.092 181.51 188.186 178.259C189.08 175.601 190.668 173.193 193.012 171.653C196.6 169.296 202.45 165.718 208.5 163.128C215.034 160.331 223.982 158.236 229.217 157.151C231.991 156.577 234.848 157.119 237.368 158.413C240.374 159.958 244.634 161.949 248.251 162.893C374.614 117.639 539.59 90.2471 720.078 90.2471C745.454 90.2471 770.523 90.7891 795.221 91.8461C797.328 90.6921 799.401 88.9972 801.051 87.4662C803.384 85.3042 806.296 83.7661 809.477 83.6921Z" fill="#FFFF78"/>
<mask id="mask0_2131_396" style="mask-type:luminance" maskUnits="userSpaceOnUse" x="-1" y="82" width="1443" height="2069">
<path d="M-0.921875 82.6489H1441.08V2150.65H-0.921875V82.6489Z" fill="white"/>
<path fill-rule="evenodd" clip-rule="evenodd" d="M809.477 83.6921C812.659 83.6171 817.226 83.6151 822.75 83.9011C828.193 84.1821 832.497 84.6181 835.46 84.9861C838.468 85.3611 841.101 87.0501 843.087 89.3401C844.822 91.3401 847.064 93.6721 849.091 95.0021C1022.6 107.948 1174.47 146.538 1280.8 200.91C1286.97 201.341 1294.77 199.179 1299.34 197.664C1301.85 196.832 1304.55 196.668 1307.03 197.599C1311.48 199.273 1319.5 202.722 1329.5 208.918C1339.73 215.259 1346.71 221.259 1350.29 224.625C1352.16 226.388 1353.22 228.794 1353.58 231.34C1354.32 236.435 1355.92 245.228 1358.66 249.911C1410.67 290.974 1440.08 337.676 1440.08 387.212V2149.15H0.078125V387.212C0.078125 311.265 69.2021 241.978 182.915 189.467C185.303 186.038 187.092 181.51 188.186 178.259C189.08 175.601 190.668 173.193 193.012 171.653C196.6 169.296 202.45 165.718 208.5 163.128C215.034 160.331 223.982 158.236 229.217 157.151C231.991 156.577 234.848 157.119 237.368 158.413C240.374 159.958 244.634 161.949 248.251 162.893C374.614 117.639 539.59 90.2471 720.078 90.2471C745.454 90.2471 770.523 90.7891 795.221 91.8461C797.328 90.6921 799.401 88.9972 801.051 87.4662C803.384 85.3042 806.296 83.7661 809.477 83.6921Z" fill="black"/>
</mask>
<g mask="url(#mask0_2131_396)">
<path fill-rule="evenodd" clip-rule="evenodd" d="M849.091 95.002L848.542 95.8379L848.758 95.98L849.016 96L849.091 95.002ZM1280.8 200.91L1280.34 201.801L1280.52 201.894L1280.73 201.908L1280.8 200.91ZM1358.66 249.911L1357.8 250.417L1357.9 250.58L1358.04 250.696L1358.66 249.911ZM1440.08 2149.15V2150.15H1441.08V2149.15H1440.08ZM0.078125 2149.15H-0.921875V2150.15H0.078125V2149.15ZM182.915 189.467L183.334 190.375L183.581 190.261L183.736 190.038L182.915 189.467ZM248.251 162.893L247.998 163.86L248.297 163.938L248.588 163.834L248.251 162.893ZM795.221 91.846L795.178 92.845L795.456 92.857L795.701 92.723L795.221 91.846ZM809.477 83.692L809.5 84.692C812.661 84.618 817.203 84.615 822.698 84.899L822.75 83.901L822.802 82.901C818.357 82.6659 813.904 82.5969 809.453 82.692L809.477 83.692ZM822.75 83.901L822.698 84.899C828.116 85.179 832.396 85.6129 835.336 85.9789L835.46 84.986L835.583 83.994C832.599 83.623 828.271 83.184 822.802 82.901L822.75 83.901ZM835.46 84.986L835.336 85.9789C838.043 86.3159 840.465 87.844 842.331 89.995L843.087 89.3399L843.842 88.6849C841.736 86.2559 838.893 84.405 835.583 83.994L835.46 84.986ZM843.087 89.3399L842.331 89.995C844.073 92.003 846.392 94.4269 848.542 95.8379L849.091 95.002L849.639 94.166C847.737 92.918 845.571 90.6769 843.842 88.6849L843.087 89.3399ZM849.091 95.002L849.016 96C1022.43 108.94 1174.16 147.507 1280.34 201.801L1280.8 200.91L1281.25 200.02C1174.77 145.569 1022.76 106.958 849.165 94.0049L849.091 95.002ZM1280.8 200.91L1280.73 201.908C1287.12 202.354 1295.08 200.13 1299.65 198.613L1299.34 197.664L1299.02 196.715C1294.46 198.228 1286.83 200.329 1280.87 199.913L1280.8 200.91ZM1299.34 197.664L1299.65 198.613C1302.01 197.833 1304.46 197.704 1306.68 198.535L1307.03 197.599L1307.38 196.663C1304.64 195.632 1301.69 195.83 1299.02 196.715L1299.34 197.664ZM1307.03 197.599L1306.68 198.535C1311.08 200.189 1319.04 203.611 1328.97 209.768L1329.5 208.918L1330.03 208.068C1319.96 201.834 1311.89 198.357 1307.38 196.663L1307.03 197.599ZM1329.5 208.918L1328.97 209.768C1339.14 216.068 1346.06 222.024 1349.6 225.353L1350.29 224.625L1350.97 223.897C1347.35 220.493 1340.33 214.45 1330.03 208.068L1329.5 208.918ZM1350.29 224.625L1349.6 225.353C1351.28 226.93 1352.25 229.112 1352.6 231.482L1353.58 231.34L1354.57 231.197C1354.18 228.477 1353.04 225.845 1350.97 223.897L1350.29 224.625ZM1353.58 231.34L1352.6 231.482C1352.96 234.047 1353.55 237.554 1354.4 241.017C1355.24 244.459 1356.35 247.945 1357.8 250.417L1358.66 249.911L1359.53 249.405C1358.23 247.194 1357.17 243.942 1356.34 240.543C1355.52 237.165 1354.94 233.727 1354.57 231.197L1353.58 231.34ZM1358.66 249.911L1358.04 250.696C1409.93 291.66 1439.08 338.104 1439.08 387.212H1441.08C1441.08 337.248 1411.41 290.288 1359.28 249.126L1358.66 249.911ZM1440.08 387.212H1439.08V2149.15H1441.08V387.212H1440.08ZM1440.08 2149.15V2148.15H0.078125V2150.15H1440.08V2149.15ZM0.078125 2149.15H1.07812V387.212H-0.921875V2149.15H0.078125ZM0.078125 387.212H1.07812C1.07812 349.563 18.2081 313.488 49.5821 280.237C80.9611 246.981 126.55 216.597 183.334 190.375L182.915 189.467L182.496 188.559C125.567 214.848 79.7381 245.363 48.1261 278.865C16.5121 312.371 -0.921875 348.914 -0.921875 387.212H0.078125ZM182.915 189.467L183.736 190.038C186.207 186.49 188.032 181.853 189.133 178.578L188.186 178.259L187.238 177.94C186.152 181.167 184.399 185.586 182.094 188.895L182.915 189.467ZM188.186 178.259L189.133 178.578C189.974 176.077 191.447 173.878 193.561 172.489L193.012 171.653L192.463 170.818C189.889 172.509 188.185 175.124 187.238 177.94L188.186 178.259ZM193.012 171.653L193.561 172.489C197.129 170.145 202.922 166.604 208.894 164.047L208.5 163.128L208.106 162.209C201.977 164.833 196.071 168.447 192.463 170.818L193.012 171.653ZM208.5 163.128L208.894 164.047C215.328 161.293 224.19 159.215 229.42 158.131L229.217 157.151L229.014 156.172C223.774 157.258 214.74 159.369 208.106 162.209L208.5 163.128ZM229.217 157.151L229.42 158.131C231.934 157.61 234.559 158.094 236.911 159.303L237.368 158.413L237.825 157.524C235.138 156.143 232.048 155.544 229.014 156.172L229.217 157.151ZM237.368 158.413L236.911 159.303C239.928 160.853 244.269 162.887 247.998 163.86L248.251 162.893L248.504 161.925C244.998 161.01 240.82 159.063 237.825 157.524L237.368 158.413ZM248.251 162.893L248.588 163.834C374.823 118.626 539.682 91.247 720.078 91.247V89.247C539.498 89.247 374.404 116.652 247.914 161.951L248.251 162.893ZM720.078 90.247V91.247C745.439 91.247 770.494 91.789 795.178 92.845L795.221 91.846L795.263 90.847C770.216 89.7782 745.148 89.2447 720.078 89.247V90.247ZM795.221 91.846L795.701 92.723C797.913 91.513 800.055 89.7539 801.731 88.1999L801.051 87.466L800.371 86.734C798.747 88.24 796.744 89.872 794.741 90.969L795.221 91.846ZM801.051 87.466L801.731 88.1999C803.943 86.1479 806.633 84.759 809.5 84.692L809.477 83.692L809.453 82.692C805.959 82.774 802.824 84.459 800.371 86.734L801.051 87.466Z" fill="black"/>
</g>
<path d="M822.497 88.6104C832.429 89.213 840.547 88.5913 840.63 87.222C840.713 85.8526 832.73 84.2541 822.798 83.6515C812.867 83.049 804.749 83.6706 804.666 85.04C804.583 86.4093 812.566 88.0079 822.497 88.6104Z" fill="#FFED78"/>
<path d="M840.084 87.2748C839.987 88.7548 832.059 89.4388 822.378 88.8018C812.696 88.1638 804.927 86.4468 805.024 84.9668M795.396 91.7268C795.32 92.8738 798.287 94.1118 803.148 95.1878M1352.96 227.472C1351.64 229.609 1339.24 224.341 1325.26 215.705C1311.29 207.069 1301.03 198.336 1302.35 196.199M1281.63 200.852C1280.33 202.777 1285.46 208.732 1294.37 216.256" stroke="black"/>
<path d="M1314.79 201.133C1310.4 198.669 1307.27 197.557 1305.25 197.14C1303.95 196.871 1303.4 198.105 1304.27 199.108C1314.25 210.619 1338.18 222.703 1349.5 227.537C1326.46 217.436 1317.66 206.985 1315.77 202.307C1315.57 201.821 1315.25 201.389 1314.79 201.133Z" fill="#FFEF78"/>
<path d="M325.379 398.588C328.77 404.411 339.287 416.813 354.223 419.833M616.667 231.554C617.988 233.394 622.095 238.371 627.586 241.293M523.672 239.806C522.509 241.845 520.628 245.67 516.348 247.053" stroke="black"/>
<path fill-rule="evenodd" clip-rule="evenodd" d="M959.056 107.041C1007.45 114.06 1053.48 123.152 1096.51 134.058C1102.77 138.494 1106 142.889 1105.28 146.799C1103.06 158.718 1064.87 161.613 1019.99 153.264C975.1 144.915 940.509 128.484 942.726 116.564C943.563 112.062 949.533 108.848 959.056 107.041Z" fill="black"/>
<path d="M1084.78 340.928C1077.62 343.61 1073.14 347.121 1072.55 351.144C1071.06 361.46 1095.81 371.24 1127.83 372.986C1156.49 374.55 1181.26 369.148 1187.22 360.602C1187.26 361.174 1187.25 361.749 1187.17 362.326C1185.45 374.164 1156.19 382.24 1121.81 380.365C1087.43 378.49 1060.96 367.373 1062.67 355.534C1063.57 349.339 1072.01 344.175 1084.78 340.928Z" fill="#FFED78"/>
<path d="M1090.01 339.433C1073.42 342.768 1062.39 348.98 1062.12 356.468C1061.67 368.539 1089.34 379.355 1123.92 380.625C1158.49 381.896 1186.88 373.14 1187.32 361.069C1189.16 368.043 1194.89 379.695 1207.76 382.875" stroke="black"/>
<path d="M1062.34 354.704C1061.17 358.49 1056.9 366.633 1049.22 368.923" stroke="black"/>
<path fill-rule="evenodd" clip-rule="evenodd" d="M328.658 406.608C326.907 391.005 296.417 380.323 258.587 381.21C290.547 381.559 315.336 390.42 316.762 403.137C318.423 417.939 287.805 432.36 248.376 435.348C212.816 438.042 182.234 430.516 175.355 418.156L175.362 418.224C177.265 435.183 213.124 446.331 255.455 443.123C297.786 439.915 330.56 423.567 328.658 406.608Z" fill="#FFED78"/>
<path d="M249.843 381.051C292.4 378.261 327.818 390.01 328.951 407.294C330.085 424.579 296.505 440.853 253.948 443.644C211.391 446.434 175.973 434.685 174.839 417.401C174.443 422.206 170.764 433.478 159.223 440.126" stroke="black"/>
<path d="M1206.16 210.909C1198.18 212.467 1192.77 215.469 1192.31 219.241C1191.53 225.566 1204.99 231.66 1222.36 232.85C1236.05 233.788 1248.1 231.395 1252.95 227.239C1250.59 233.834 1235.48 238.095 1217.87 236.889C1199.22 235.611 1184.82 228.691 1185.71 221.431C1186.34 216.233 1194.64 212.271 1206.16 210.909Z" fill="#FFED78"/>
<path d="M1220.95 209.974C1202.5 208.764 1187.15 213.856 1186.66 221.347C1186.17 228.838 1200.72 235.892 1219.17 237.101C1237.61 238.311 1252.96 233.219 1253.45 225.728C1254.04 229.039 1256.96 235.95 1263.98 237.101" stroke="black"/>
<path d="M1187.65 218.433C1184.86 223.145 1181.96 225.142 1177.5 226.872M856.882 135.235C856.757 137.149 850.627 138.305 843.192 137.817C835.757 137.33 829.831 135.383 829.957 133.469C830.082 131.555 836.212 130.399 843.647 130.886" stroke="black"/>
<path fill-rule="evenodd" clip-rule="evenodd" d="M608.389 227.39C611.58 228.674 613.568 230.263 613.977 232.097C615.395 238.455 597.308 245.331 573.578 247.455C549.849 249.58 529.463 246.148 528.044 239.791C527.207 236.037 533.169 232.102 543.078 229.072C530.51 232.662 522.759 237.696 523.84 242.543C525.52 250.072 547.877 254.295 573.777 251.977C599.678 249.658 619.313 241.675 617.634 234.146C617.022 231.402 613.663 229.099 608.389 227.39ZM830.206 133.284C830.699 131.538 836.983 130.562 844.244 131.104C845.643 131.209 846.976 131.362 848.213 131.554C847.453 131.462 846.69 131.388 845.926 131.331C839.407 130.844 833.786 131.642 833.37 133.112C832.956 134.583 837.905 136.17 844.424 136.657C849.844 137.062 854.642 136.577 856.345 135.557C855.238 137.107 849.281 137.938 842.461 137.429C835.201 136.887 829.714 135.031 830.206 133.284Z" fill="#FFED78"/>
<path d="M543.287 228.678C530.84 232.245 522.864 237.213 523.269 242.061C523.914 249.784 545.59 254.277 571.682 252.097C597.775 249.916 618.404 241.887 617.759 234.164C617.44 230.348 611.987 227.321 603.405 225.497" stroke="black"/>
<path d="M1013.15 99.6352L1019.18 92.7202L1045.98 98.4842L1047.67 106.797L1053.69 107.896L1056 118.335L1062.54 119.428L1066.04 136.351L980.527 119.43L991.445 105.56L997.869 106.831L1005.49 98.1212L1013.15 99.6352Z" fill="#DCE6DE"/>
<path d="M1069 95.5641L1072.23 94.9811L1079.26 133.584L1074.74 132.673L1069 95.5641ZM994.766 78.9511L992.22 76.8721L969.256 114.986L973.935 115.947L994.766 78.9511Z" fill="black"/>
<path d="M992.204 21.8381L1006.05 29.5681L1017.81 40.7381L1030.24 51.3911L1051.89 56.6511L1068.59 58.7721L1079.66 58.0361L1097.34 35.4471L1107.91 34.7441L1105.5 53.0851L1115.04 52.4501L1123.98 59.2951L1124.64 69.1841L1121.26 73.0441L1107.41 81.8641L1122.95 98.5041L1110.72 103.19L1084.75 92.1251L1075.88 95.4561L1049.47 99.2341L1045.96 98.4801L1019.17 92.7161L1015.04 91.8291L996.326 83.7821L971.633 52.7001L974.881 28.6471L972.093 17.1161L978.852 9.3941L988.908 8.7251L992.204 21.8381Z" fill="#FFFF78"/>
<path d="M1084.76 92.1282L1100.72 86.1312L1107.42 81.8682L1122.96 98.5082L1110.73 103.193L1084.76 92.1282ZM1090.7 56.9022L1079.64 57.6382L1097.32 35.0482L1107.89 34.3452L1105.47 52.6872L1090.7 56.9022Z" fill="white"/>
<path d="M972.098 17.1181L982.556 16.4221L988.912 8.72705L978.857 9.39605L972.098 17.1181ZM1123.98 59.298L1115.05 52.453L1115.85 64.52L1124.64 69.187L1123.98 59.298Z" fill="black"/>
<path d="M1030.24 51.3952L1017.82 40.7422L1008.05 59.5722L1022.12 70.7572L1030.24 51.3952Z" fill="#FA673A"/>
<path d="M991.99 21.8842L988.984 9.32422L982.617 16.9692L985.711 27.6192L991.99 21.8842Z" fill="#FFB195" fill-opacity="0.91"/>
<path d="M1095.28 71.1411L1074.77 78.5661L1075.89 95.4601L1084.76 92.1291L1100.72 86.1321L1095.28 71.1411Z" fill="#C1F174"/>
<path d="M974.881 28.6471L985.741 27.9241M974.881 28.6471L971.633 52.7001M974.881 28.6471L972.093 17.1161M985.741 27.9241L992.204 21.8381M985.741 27.9241L993.81 45.9721M985.741 27.9241L982.551 16.4201M971.633 52.7001L996.326 83.7821M971.633 52.7001L993.81 45.9721M972.093 17.1161L982.551 16.4201M972.093 17.1161L978.852 9.3941L988.908 8.7251M992.204 21.8381L1006.05 29.5681M992.204 21.8381L988.908 8.7251M993.81 45.9721L1006.05 29.5681M993.81 45.9721L1008.05 59.5691M982.551 16.4201L988.908 8.7251M1006.05 29.5681L1017.81 40.7381M1017.81 40.7381L1030.24 51.3911M1017.81 40.7381L1008.05 59.5691M1030.24 51.3911L1051.89 56.6511M1030.24 51.3911L1022.12 70.7531M1008.05 59.5691L996.326 83.7821M1008.05 59.5691L1022.12 70.7531M1051.89 56.6511L1068.59 58.7721M1051.89 56.6511L1051.67 77.6751M1022.12 70.7531L1015.04 91.8291M1022.12 70.7531L1051.67 77.6751M1068.59 58.7721L1074.76 78.5621M1068.59 58.7721L1079.66 58.0361M1051.67 77.6751L1049.47 99.2341M1051.67 77.6751L1074.76 78.5631M1079.66 58.0361L1090.72 57.3001M1079.66 58.0361L1097.34 35.4471L1107.91 34.7441L1105.5 53.0851M1090.72 57.3001L1095.27 71.1381M1090.72 57.3001L1105.5 53.0851M1095.27 71.1381L1100.72 86.1281M1095.27 71.1381L1074.76 78.5631M1095.27 71.1381L1115.84 64.5171M1105.5 53.0851L1115.04 52.4501M1115.04 52.4501L1123.98 59.2951L1124.64 69.1841M1115.04 52.4501L1115.84 64.5171M1124.64 69.1841L1121.26 73.0441L1107.41 81.8641M1124.64 69.1841L1115.84 64.5171M1107.41 81.8641L1100.72 86.1281M1107.41 81.8641L1122.95 98.5041L1110.72 103.19L1084.75 92.1251M1100.72 86.1281L1084.75 92.1251M1084.75 92.1251L1075.88 95.4561M1075.88 95.4561L1049.47 99.2341M1075.88 95.4561L1074.76 78.5631M1049.47 99.2341L1045.96 98.4801M1045.96 98.4801L1019.17 92.7161M1045.96 98.4801L1047.66 106.794M1015.04 91.8291L996.326 83.7821M1015.04 91.8291L1019.17 92.7161M1019.17 92.7161L1013.14 99.6311M1013.14 99.6311L1047.66 106.794M1013.14 99.6311L1005.48 98.1171L997.859 106.827M1047.66 106.794L1053.68 107.892L1055.99 118.331M997.859 106.827L1055.99 118.331M997.859 106.827L991.435 105.556L980.517 119.427L1066.02 136.348L1062.53 119.424L1055.99 118.331" stroke="black"/>
<path d="M1028.59 65.0301L1019.16 92.7381L1046 98.4262L1048.76 68.9562C1048.91 67.4254 1048.59 65.8862 1047.84 64.5394C1047.1 63.1926 1045.97 62.1007 1044.6 61.4061C1041.9 60.0285 1038.87 59.4079 1035.84 59.6102L1035.64 59.6242C1034.06 59.7276 1032.55 60.2962 1031.3 61.2582C1030.04 62.2202 1029.1 63.5334 1028.59 65.0301Z" fill="black" stroke="black"/>
<path d="M232.154 156.922C232.862 158.691 224.059 163.88 212.491 168.512C200.922 173.145 190.97 175.466 190.262 173.697M183.762 188.434C184.349 190.097 190.295 189.651 198.901 187.608" stroke="black"/>
<path d="M198.699 168.413C195.761 169.749 193.837 170.967 192.632 171.938C191.598 172.771 192.219 173.912 193.541 173.778C205.084 172.603 222.733 163.698 230.637 159.059C214.367 168.399 204.094 169.193 200.23 168.311C199.718 168.194 199.177 168.196 198.699 168.413Z" fill="#FFEF78"/>
<path d="M326.082 249.257C326.391 252.918 318.142 256.604 307.657 257.491C297.172 258.378 288.421 256.128 288.112 252.467C287.92 250.197 291.021 247.916 295.906 246.3" stroke="black"/>
</g>
<defs>
<clipPath id="clip0_2131_396">
<rect width="1440" height="1226" fill="white"/>
</clipPath>
</defs>
</svg>
