<svg width="868" height="868" viewBox="0 0 868 868" fill="none" xmlns="http://www.w3.org/2000/svg">
<circle cx="434" cy="434" r="433.5" fill="#FFCCCB" stroke="black"/>
<path d="M434 0.25C452.529 0.25 470.228 12.3185 486.365 34.2539C502.499 56.1842 517.039 87.9339 529.254 127.189C553.683 205.698 568.797 314.172 568.797 434C568.797 553.828 553.683 662.302 529.254 740.811C517.039 780.066 502.499 811.816 486.365 833.746C470.228 855.682 452.529 867.75 434 867.75C415.471 867.75 397.772 855.682 381.635 833.746C365.501 811.816 350.961 780.066 338.746 740.811C314.317 662.302 299.203 553.828 299.203 434C299.203 314.172 314.317 205.698 338.746 127.189C350.961 87.9339 365.501 56.1842 381.635 34.2539C397.772 12.3185 415.471 0.25 434 0.25Z" stroke="black" stroke-width="0.5"/>
<path d="M740.706 127.292C753.808 140.394 757.79 161.443 753.69 188.365C749.591 215.28 737.422 248.012 718.301 284.407C680.062 357.195 614.046 444.585 529.315 529.316C444.584 614.047 357.194 680.063 284.406 718.302C248.01 737.423 215.279 749.592 188.363 753.691C161.442 757.791 140.393 753.81 127.291 740.708C114.189 727.605 110.208 706.557 114.308 679.635C118.407 652.72 130.576 619.988 149.696 583.593C187.936 510.805 253.952 423.415 338.683 338.684C423.414 253.953 510.804 187.937 583.592 149.697C619.987 130.577 652.719 118.408 679.634 114.309C706.556 110.209 727.604 114.19 740.706 127.292Z" stroke="black" stroke-width="0.5"/>
<path d="M867.75 434C867.75 452.529 855.682 470.228 833.746 486.365C811.816 502.499 780.066 517.039 740.811 529.254C662.302 553.683 553.828 568.797 434 568.797C314.172 568.797 205.698 553.683 127.189 529.254C87.9339 517.039 56.1842 502.499 34.2539 486.365C12.3185 470.228 0.249993 452.529 0.249994 434C0.249995 415.471 12.3185 397.772 34.2539 381.635C56.1842 365.501 87.9339 350.961 127.189 338.746C205.698 314.317 314.172 299.203 434 299.203C553.828 299.203 662.302 314.317 740.811 338.746C780.066 350.961 811.816 365.501 833.746 381.635C855.682 397.772 867.75 415.471 867.75 434Z" stroke="black" stroke-width="0.5"/>
<circle cx="434" cy="433.951" r="134.375" stroke="black" stroke-width="0.5"/>
<path d="M740.706 740.706C727.604 753.808 706.555 757.79 679.633 753.69C652.718 749.591 619.986 737.422 583.591 718.301C510.803 680.062 423.413 614.046 338.682 529.315C253.951 444.584 187.935 357.194 149.696 284.406C130.575 248.01 118.406 215.279 114.307 188.363C110.207 161.442 114.189 140.393 127.291 127.291C140.393 114.189 161.441 110.208 188.363 114.308C215.278 118.407 248.01 130.576 284.405 149.696C357.193 187.936 444.583 253.952 529.314 338.683C614.045 423.414 680.061 510.804 718.301 583.592C737.421 619.987 749.59 652.719 753.689 679.634C757.789 706.556 753.808 727.604 740.706 740.706Z" stroke="black" stroke-width="0.5"/>
</svg>
