<svg width="2800" height="120" viewBox="0 0 2800 120" fill="none" xmlns="http://www.w3.org/2000/svg">
<g clip-path="url(#clip0_3950_1888)">
<g filter="url(#filter0_i_3950_1888)">
<path d="M0 60C47.55 20 95.1 20 142.65 60C190.2 100 237.75 100 285.3 60C332.85 20 380.4 20 427.95 60C475.5 100 523.05 100 570.6 60C618.15 20 665.7 20 713.25 60C760.8 100 808.35 100 855.9 60C903.45 20 951 20 998.55 60C1046.1 100 1093.65 100 1141.2 60C1188.75 20 1236.3 20 1283.85 60C1331.4 100 1378.95 100 1426.5 60C1474.05 20 1521.6 20 1569.15 60C1616.7 100 1664.25 100 1711.8 60C1759.35 20 1806.9 20 1854.45 60C1874.83 75 1888.41 85 1902 90V120H0V60Z" fill="#FFB89F"/>
</g>
<g filter="url(#filter1_i_3950_1888)">
<path d="M1712 60C1759.55 20 1807.1 20 1854.65 60C1902.2 100 1949.75 100 1997.3 60C2044.85 20 2092.4 20 2139.95 60C2187.5 100 2235.05 100 2282.6 60C2330.15 20 2377.7 20 2425.25 60C2472.8 100 2520.35 100 2567.9 60C2615.45 20 2663 20 2710.55 60C2758.1 100 2805.65 100 2853.2 60C2900.75 20 2948.3 20 2995.85 60C3043.4 100 3090.95 100 3138.5 60C3186.05 20 3233.6 20 3281.15 60C3328.7 100 3376.25 100 3423.8 60C3471.35 20 3518.9 20 3566.45 60C3586.83 75 3600.41 85 3614 90V120H1712V60Z" fill="#FFB89F"/>
</g>
</g>
<defs>
<filter id="filter0_i_3950_1888" x="0" y="30" width="1902" height="90" filterUnits="userSpaceOnUse" color-interpolation-filters="sRGB">
<feFlood flood-opacity="0" result="BackgroundImageFix"/>
<feBlend mode="normal" in="SourceGraphic" in2="BackgroundImageFix" result="shape"/>
<feColorMatrix in="SourceAlpha" type="matrix" values="0 0 0 0 0 0 0 0 0 0 0 0 0 0 0 0 0 0 127 0" result="hardAlpha"/>
<feOffset dy="1"/>
<feComposite in2="hardAlpha" operator="arithmetic" k2="-1" k3="1"/>
<feColorMatrix type="matrix" values="0 0 0 0 0 0 0 0 0 0 0 0 0 0 0 0 0 0 1 0"/>
<feBlend mode="normal" in2="shape" result="effect1_innerShadow_3950_1888"/>
</filter>
<filter id="filter1_i_3950_1888" x="1712" y="30" width="1902" height="90" filterUnits="userSpaceOnUse" color-interpolation-filters="sRGB">
<feFlood flood-opacity="0" result="BackgroundImageFix"/>
<feBlend mode="normal" in="SourceGraphic" in2="BackgroundImageFix" result="shape"/>
<feColorMatrix in="SourceAlpha" type="matrix" values="0 0 0 0 0 0 0 0 0 0 0 0 0 0 0 0 0 0 127 0" result="hardAlpha"/>
<feOffset dy="1"/>
<feComposite in2="hardAlpha" operator="arithmetic" k2="-1" k3="1"/>
<feColorMatrix type="matrix" values="0 0 0 0 0 0 0 0 0 0 0 0 0 0 0 0 0 0 1 0"/>
<feBlend mode="normal" in2="shape" result="effect1_innerShadow_3950_1888"/>
</filter>
<clipPath id="clip0_3950_1888">
<rect width="2800" height="120" fill="white"/>
</clipPath>
</defs>
</svg>
