<svg width="1955" height="93" viewBox="0 0 1955 93" fill="none" xmlns="http://www.w3.org/2000/svg">
<g clip-path="url(#clip0_3932_1814)">
<path d="M41.636 24.582L-1 66.0036V111H1956V66.0036L1909.55 29.4052C1872.45 0.165565 1820.84 -2.22554 1781.19 23.4571L1772.28 29.2314C1738.26 51.2596 1693.98 49.3526 1661.93 24.5565C1628.29 -1.47443 1581.38 -2.07917 1547.13 23.1589L1544.3 25.2447C1511.61 49.3419 1466.7 48.5954 1434.69 23.5999C1402.3 -1.6854 1356.74 -1.96239 1324.19 23.109L1323 24.0254C1290.97 48.6954 1246.26 48.3983 1214.56 23.3048C1182.81 -1.83312 1138 -2.08193 1105.97 22.7018L1104.5 23.8349C1072.47 48.6172 1027.68 48.4188 995.873 23.3537C963.949 -1.80105 918.972 -1.90123 886.937 23.111L884.259 25.202C853.012 49.5978 809.701 51.3948 776.541 29.671L757.738 17.3528C724.113 -4.6761 680.192 -2.85395 648.508 21.8845C615.144 47.9339 568.473 48.4364 534.555 23.1115L530.241 19.8897C498.987 -3.44642 456.081 -3.35609 424.926 20.1115L411.483 30.237C384.252 50.749 346.071 48.0763 321.964 23.9705C297.245 -0.746199 257.866 -2.84778 230.657 19.0976L217.384 29.8026C191.858 50.3906 154.914 48.419 131.724 25.231C106.92 0.428676 66.795 0.139617 41.636 24.582Z" fill="#FFB89F" stroke="black"/>
</g>
<defs>
<clipPath id="clip0_3932_1814">
<rect width="1955" height="93" fill="white"/>
</clipPath>
</defs>
</svg>
