<svg width="2500" height="93" viewBox="0 0 2500 93" fill="none" xmlns="http://www.w3.org/2000/svg">
<g clip-path="url(#clip0_3932_1814)">
<path d="M53.2424 24.582L-1.2793 66.0036V111H2501.28V66.0036L2441.88 29.4052C2394.44 0.165565 2328.44 -2.22554 2277.74 23.4571L2266.34 29.2314C2222.84 51.2596 2166.21 49.3526 2125.23 24.5565C2082.21 -1.47443 2022.22 -2.07917 1978.43 23.1589L1974.81 25.2447C1933 49.3419 1875.57 48.5954 1834.64 23.5999C1793.22 -1.6854 1734.96 -1.96239 1693.34 23.109L1691.82 24.0254C1650.86 48.6954 1593.68 48.3983 1553.15 23.3048C1512.54 -1.83312 1455.24 -2.08193 1414.28 22.7018L1412.41 23.8349C1371.45 48.6172 1314.17 48.4188 1273.49 23.3537C1232.67 -1.80105 1175.16 -1.90123 1134.19 23.111L1130.77 25.202C1090.81 49.5978 1035.42 51.3948 993.019 29.671L968.974 17.3528C925.975 -4.6761 869.81 -2.85395 829.294 21.8845C786.629 47.9339 726.947 48.4364 683.574 23.1115L678.057 19.8897C638.09 -3.44642 583.223 -3.35609 543.383 20.1115L526.193 30.237C491.37 50.749 442.546 48.0763 411.718 23.9705C380.109 -0.746199 329.751 -2.84778 294.957 19.0976L277.984 29.8026C245.342 50.3906 198.099 48.419 168.444 25.231C136.726 0.428676 85.4151 0.139617 53.2424 24.582Z" fill="#FFB89F" stroke="black"/>
</g>
<defs>
<clipPath id="clip0_3932_1814">
<rect width="2500" height="93" fill="white"/>
</clipPath>
</defs>
</svg>
