<svg width="803" height="171" viewBox="0 0 803 171" fill="none" xmlns="http://www.w3.org/2000/svg">
<path d="M631.674 0.5C639.707 0.500365 647.453 3.49535 653.398 8.89941L710.434 60.7588C716.469 66.2488 724.334 69.291 732.492 69.291H801.17L689.904 156.907C686.127 161.156 681.494 164.558 676.309 166.889C671.116 169.222 665.488 170.428 659.796 170.429H142.818C137.126 170.428 131.497 169.222 126.305 166.889C121.119 164.558 116.487 161.156 112.709 156.907L1.44336 69.291H66.4961C74.6545 69.29 82.5196 66.2475 88.5566 60.7588L145.592 8.90137C151.535 3.49463 159.199 0.5 167.232 0.5H631.674Z" fill="black"/>
<path d="M631.674 0.5V0V0V0.5ZM653.398 8.89941L653.735 8.52947L653.735 8.52942L653.398 8.89941ZM710.434 60.7588L710.77 60.3889L710.77 60.3888L710.434 60.7588ZM801.17 69.291L801.479 69.6838L802.613 68.791H801.17V69.291ZM689.904 156.907L689.595 156.514L689.56 156.542L689.531 156.575L689.904 156.907ZM676.309 166.889L676.514 167.345V167.345L676.309 166.889ZM659.796 170.429V170.929H659.796L659.796 170.429ZM142.818 170.429L142.818 170.929H142.818V170.429ZM126.305 166.889L126.1 167.345L126.1 167.345L126.305 166.889ZM112.709 156.907L113.083 156.575L113.053 156.542L113.018 156.514L112.709 156.907ZM1.44336 69.291V68.791H0.000206947L1.13403 69.6838L1.44336 69.291ZM66.4961 69.291V69.791H66.4962L66.4961 69.291ZM88.5566 60.7588L88.893 61.1287L88.893 61.1287L88.5566 60.7588ZM145.592 8.90137L145.928 9.27131L145.928 9.27123L145.592 8.90137ZM631.674 0.5V1C639.583 1.00036 647.209 3.94897 653.062 9.26941L653.398 8.89941L653.735 8.52942C647.697 3.04173 639.832 0.000371128 631.674 0V0.5ZM653.398 8.89941L653.062 9.26935L710.097 61.1287L710.434 60.7588L710.77 60.3888L653.735 8.52947L653.398 8.89941ZM710.434 60.7588L710.097 61.1287C716.224 66.7024 724.209 69.791 732.492 69.791V69.291V68.791C724.458 68.791 716.713 65.7952 710.77 60.3889L710.434 60.7588ZM732.492 69.291V69.791H801.17V69.291V68.791H732.492V69.291ZM801.17 69.291L800.861 68.8982L689.595 156.514L689.904 156.907L690.214 157.3L801.479 69.6838L801.17 69.291ZM689.904 156.907L689.531 156.575C685.8 160.771 681.224 164.131 676.104 166.433L676.309 166.889L676.514 167.345C681.763 164.985 686.454 161.541 690.278 157.239L689.904 156.907ZM676.309 166.889L676.104 166.433C670.976 168.737 665.418 169.928 659.796 169.929L659.796 170.429L659.796 170.929C665.559 170.928 671.257 169.707 676.514 167.345L676.309 166.889ZM659.796 170.429V169.929H142.818V170.429V170.929H659.796V170.429ZM142.818 170.429L142.818 169.929C137.197 169.928 131.638 168.737 126.51 166.433L126.305 166.889L126.1 167.345C131.357 169.707 137.055 170.928 142.818 170.929L142.818 170.429ZM126.305 166.889L126.51 166.433C121.389 164.131 116.813 160.771 113.083 156.575L112.709 156.907L112.335 157.239C116.16 161.541 120.85 164.986 126.1 167.345L126.305 166.889ZM112.709 156.907L113.018 156.514L1.75269 68.8982L1.44336 69.291L1.13403 69.6838L112.4 157.3L112.709 156.907ZM1.44336 69.291V69.791H66.4961V69.291V68.791H1.44336V69.291ZM66.4961 69.291L66.4962 69.791C74.779 69.79 82.7639 66.7011 88.893 61.1287L88.5566 60.7588L88.2203 60.3888C82.2752 65.7939 74.53 68.79 66.496 68.791L66.4961 69.291ZM88.5566 60.7588L88.893 61.1287L145.928 9.27131L145.592 8.90137L145.255 8.53142L88.2203 60.3888L88.5566 60.7588ZM145.592 8.90137L145.928 9.27123C151.781 3.94735 159.325 1 167.232 1V0.5V0C159.073 0 151.29 3.04191 145.255 8.5315L145.592 8.90137ZM167.232 0.5V1H631.674V0.5V0H167.232V0.5Z" fill="black"/>
<path d="M629.229 10.4824C637.191 10.483 644.876 13.402 650.832 18.6875L709.842 71.0703C715.797 76.3554 723.482 79.2742 731.443 79.2754H788.715L690.013 157C686.221 161.266 681.57 164.682 676.364 167.021C671.154 169.363 665.506 170.573 659.794 170.573H142.815C137.104 170.573 131.456 169.362 126.246 167.021C121.041 164.681 116.39 161.266 112.599 157L13.8965 79.2754H67.5088C75.4698 79.2741 83.1545 76.3552 89.1094 71.0703L148.119 18.6875C154.044 13.4036 161.705 10.4834 169.644 10.4824H629.229Z" fill="#FFCBCB"/>
<path d="M629.229 10.4824V10.2324V10.2324V10.4824ZM650.832 18.6875L650.998 18.5005V18.5005L650.832 18.6875ZM709.842 71.0703L709.676 71.2573V71.2573L709.842 71.0703ZM731.443 79.2754L731.443 79.5254H731.443V79.2754ZM788.715 79.2754L788.87 79.4718L789.436 79.0254H788.715V79.2754ZM690.013 157L689.858 156.804L689.841 156.817L689.826 156.834L690.013 157ZM676.364 167.021L676.467 167.25V167.25L676.364 167.021ZM659.794 170.573V170.823V170.823V170.573ZM142.815 170.573L142.815 170.823H142.815V170.573ZM126.246 167.021L126.144 167.249V167.249L126.246 167.021ZM112.599 157L112.785 156.834L112.771 156.817L112.753 156.804L112.599 157ZM13.8965 79.2754V79.0254H13.1749L13.7418 79.4718L13.8965 79.2754ZM67.5088 79.2754V79.5254H67.5088L67.5088 79.2754ZM89.1094 71.0703L89.2753 71.2573L89.2753 71.2573L89.1094 71.0703ZM148.119 18.6875L148.285 18.8745L148.286 18.8741L148.119 18.6875ZM169.644 10.4824V10.2324H169.644L169.644 10.4824ZM629.229 10.4824V10.7324C637.129 10.733 644.756 13.6296 650.666 18.8745L650.832 18.6875L650.998 18.5005C644.997 13.1745 637.252 10.233 629.229 10.2324V10.4824ZM650.832 18.6875L650.666 18.8745L709.676 71.2573L709.842 71.0703L710.008 70.8834L650.998 18.5005L650.832 18.6875ZM709.842 71.0703L709.676 71.2573C715.677 76.5829 723.421 79.5242 731.443 79.5254L731.443 79.2754L731.443 79.0254C723.543 79.0242 715.917 76.1278 710.008 70.8833L709.842 71.0703ZM731.443 79.2754V79.5254H788.715V79.2754V79.0254H731.443V79.2754ZM788.715 79.2754L788.56 79.079L689.858 156.804L690.013 157L690.167 157.196L788.87 79.4718L788.715 79.2754ZM690.013 157L689.826 156.834C686.057 161.073 681.435 164.469 676.262 166.793L676.364 167.021L676.467 167.25C681.705 164.896 686.384 161.458 690.2 157.166L690.013 157ZM676.364 167.021L676.262 166.793C671.084 169.12 665.471 170.323 659.794 170.323V170.573V170.823C665.541 170.823 671.224 169.605 676.467 167.25L676.364 167.021ZM659.794 170.573V170.323H142.815V170.573V170.823H659.794V170.573ZM142.815 170.573L142.815 170.323C137.139 170.323 131.526 169.119 126.349 166.792L126.246 167.021L126.144 167.249C131.386 169.604 137.068 170.823 142.815 170.823L142.815 170.573ZM126.246 167.021L126.349 166.792C121.176 164.468 116.554 161.073 112.785 156.834L112.599 157L112.412 157.166C116.227 161.458 120.906 164.895 126.144 167.249L126.246 167.021ZM112.599 157L112.753 156.804L14.0512 79.079L13.8965 79.2754L13.7418 79.4718L112.444 157.196L112.599 157ZM13.8965 79.2754V79.5254H67.5088V79.2754V79.0254H13.8965V79.2754ZM67.5088 79.2754L67.5088 79.5254C75.531 79.5241 83.2747 76.5827 89.2753 71.2573L89.1094 71.0703L88.9434 70.8833C83.0342 76.1276 75.4087 79.0241 67.5087 79.0254L67.5088 79.2754ZM89.1094 71.0703L89.2753 71.2573L148.285 18.8745L148.119 18.6875L147.953 18.5005L88.9434 70.8834L89.1094 71.0703ZM148.119 18.6875L148.286 18.8741C154.165 13.631 161.767 10.7334 169.644 10.7324L169.644 10.4824L169.644 10.2324C161.644 10.2334 153.924 13.1761 147.953 18.5009L148.119 18.6875ZM169.644 10.4824V10.7324H629.229V10.4824V10.2324H169.644V10.4824Z" fill="black"/>
</svg>
