<svg width="111" height="111" viewBox="0 0 111 111" fill="none" xmlns="http://www.w3.org/2000/svg">
<path d="M55.4169 110.068C85.5957 110.068 110.061 85.6036 110.061 55.4248C110.061 25.246 85.5957 0.78125 55.4169 0.78125C25.2381 0.78125 0.773438 25.246 0.773438 55.4248C0.773438 85.6036 25.2381 110.068 55.4169 110.068Z" fill="#C1F174"/>
<path d="M55.4321 110.099C85.6236 110.099 110.099 85.6236 110.099 55.4321C110.099 25.2407 85.6236 0.765625 55.4321 0.765625C25.2406 0.765625 0.765625 25.2407 0.765625 55.4321C0.765625 85.6236 25.2406 110.099 55.4321 110.099Z" stroke="black" stroke-width="1.53235" stroke-miterlimit="10"/>
<path d="M68.9033 68.8999C90.2519 47.5513 101.526 24.2124 94.0846 16.7711C86.6433 9.32972 63.3044 20.6038 41.9558 41.9524C20.6072 63.301 9.33318 86.6398 16.7745 94.0812C24.2159 101.523 47.5547 90.2485 68.9033 68.8999Z" stroke="black" stroke-width="1.53235" stroke-miterlimit="10"/>
<path d="M94.0846 94.0825C101.526 86.6411 90.2519 63.3023 68.9033 41.9537C47.5547 20.6051 24.2159 9.33102 16.7745 16.7724C9.33318 24.2137 20.6072 47.5526 41.9558 68.9012C63.3044 90.2498 86.6433 101.524 94.0846 94.0825Z" stroke="black" stroke-width="1.53235" stroke-miterlimit="10"/>
<path fill-rule="evenodd" clip-rule="evenodd" d="M66.6931 66.4877C59.7975 62.4499 51.1627 62.5266 44.3438 66.7405C48.5424 59.9139 48.619 51.2715 44.5813 44.3759C51.4922 48.406 60.1269 48.3217 66.9536 44.123C62.7473 50.942 62.663 59.5768 66.6931 66.4877Z" fill="black"/>
</svg>
