<svg width="814" height="121" viewBox="0 0 814 121" fill="none" xmlns="http://www.w3.org/2000/svg">
<g clip-path="url(#clip0_3970_1967)">
<path d="M-32 93L-0.321226 92.5126C0.225123 92.5042 0.769571 92.4461 1.30537 92.3389L8 91L9.47647 90.5386C13.7667 89.1979 17.6866 86.8783 20.9266 83.7628L29 76L785.5 79C793.117 87.8859 804.236 93 815.939 93H846V120H-32V93Z" fill="#FFB89F"/>
<path d="M689.851 0.425782C695.038 0.425113 700.175 1.44657 704.969 3.43164C709.762 5.41674 714.118 8.32651 717.786 11.9951L784.582 78.7949L762.904 103.203C758.212 108.484 752.455 112.711 746.012 115.605C739.568 118.5 732.584 119.998 725.521 119.999H90.1025C83.0384 119.999 76.054 118.502 69.6104 115.607C63.1668 112.712 57.4099 108.485 52.7188 103.203L28.9453 76.4365L93.3877 11.9951C100.796 4.58722 110.774 0.425782 121.249 0.425782H689.851Z" fill="black" stroke="black"/>
<path d="M686.581 6.32422C697.191 6.32497 707.367 10.539 714.871 18.04L780.365 83.543L762.904 103.203C758.212 108.484 752.455 112.711 746.012 115.605C739.568 118.5 732.584 119.998 725.521 119.999H90.1025C83.0385 119.999 76.0539 118.502 69.6104 115.607C63.1669 112.712 57.4098 108.485 52.7188 103.203L33.1465 81.166L96.2734 18.04C99.9796 14.3262 104.382 11.3795 109.229 9.36914C114.075 7.35883 119.271 6.3241 124.518 6.32422H686.581Z" fill="#FFCBCB" stroke="black"/>
<path d="M-4.30603 92.842H-573V-619H-4.30603C0.947601 -619 6.14976 -617.965 11.0033 -615.954C15.8568 -613.943 20.2667 -610.995 23.981 -607.28L93.537 -537.709C97.2515 -533.994 101.662 -531.046 106.515 -529.036C111.369 -527.025 116.571 -525.99 121.825 -525.99H690.36C700.97 -525.99 711.14 -530.206 718.64 -537.709L788.2 -607.281C791.915 -610.997 796.325 -613.944 801.179 -615.955C806.033 -617.966 811.236 -619 816.49 -619H1385.18V92.842H816.48C805.87 92.8412 794.694 88.6271 787.19 81.126L718.64 11.571C714.925 7.85591 710.514 4.90912 705.66 2.89886C700.806 0.888608 695.604 -0.145736 690.35 -0.14502H121.749C111.14 -0.14502 101.035 4.06998 93.534 11.571L23.979 81.126C20.2646 84.8405 15.8549 87.7869 11.0018 89.7972C6.14861 91.8074 0.946986 92.842 -4.30603 92.842Z" stroke="black"/>
</g>
<defs>
<clipPath id="clip0_3970_1967">
<rect width="814" height="121" fill="white"/>
</clipPath>
</defs>
</svg>
