<svg width="427" height="336" viewBox="0 0 427 336" fill="none" xmlns="http://www.w3.org/2000/svg">
<path d="M332.049 272.507C383.658 272.507 425.496 230.669 425.496 179.06C425.496 127.45 383.658 85.6128 332.049 85.6128C280.439 85.6128 238.602 127.45 238.602 179.06C238.602 230.669 280.439 272.507 332.049 272.507Z" fill="#FFFF78" stroke="black" stroke-width="1.57625" stroke-miterlimit="10"/>
<path d="M382.621 135.539C385.661 131.405 383.096 124.355 376.892 119.792C370.687 115.229 363.193 114.882 360.153 119.016C357.113 123.15 359.678 130.2 365.883 134.762C372.087 139.325 379.581 139.673 382.621 135.539Z" fill="#F9F871" stroke="black" stroke-width="1.57625" stroke-miterlimit="10"/>
<path d="M397.505 153.406C400.055 151.878 400.264 147.538 397.972 143.712C395.68 139.887 391.754 138.024 389.204 139.552C386.653 141.081 386.444 145.421 388.736 149.246C391.029 153.072 394.954 154.934 397.505 153.406Z" fill="#F9F871" stroke="black" stroke-width="1.57625" stroke-miterlimit="10"/>
<path d="M290.786 223.316C293.336 221.787 293.546 217.447 291.253 213.622C288.961 209.796 285.035 207.934 282.485 209.462C279.935 210.99 279.725 215.33 282.018 219.156C284.31 222.981 288.236 224.844 290.786 223.316Z" fill="#F9F871" stroke="black" stroke-width="1.57625" stroke-miterlimit="10"/>
<mask id="mask0_476_2906" style="mask-type:luminance" maskUnits="userSpaceOnUse" x="245" y="92" width="174" height="174">
<path d="M332.048 265.405C379.735 265.405 418.393 226.747 418.393 179.06C418.393 131.373 379.735 92.7148 332.048 92.7148C284.361 92.7148 245.703 131.373 245.703 179.06C245.703 226.747 284.361 265.405 332.048 265.405Z" fill="white"/>
</mask>
<g mask="url(#mask0_476_2906)">
<path fill-rule="evenodd" clip-rule="evenodd" d="M301.579 239.38C301.579 239.38 310.4 226.716 320.129 231.24C329.858 235.764 330.994 250.471 343.657 246.855C356.321 243.239 382.346 219.484 385.735 231.921C389.124 244.358 410.625 201.599 409.944 212.236L406.653 227.462L391.394 242.785L373.153 254.541L352.786 263.362C349.576 264.221 342.312 266.751 339.069 265.989L318.589 267.221L287.262 256.778L301.596 239.38H301.579Z" fill="black" stroke="black" stroke-width="1.57625" stroke-miterlimit="10"/>
</g>
<g filter="url(#filter0_d_476_2906)">
<path d="M101.574 191.716C102.89 180.009 107.47 169.722 115.316 160.857C123.451 151.76 136.223 144.765 153.633 139.871L185.475 130.804C191.172 129.336 195.338 127.433 197.971 125.095C200.865 122.786 202.502 119.94 202.882 116.558C203.642 109.794 200.975 104.225 194.88 99.8523C189.046 95.5085 179.494 92.5912 166.226 91.1005C152.438 89.5512 141.334 91.0698 132.916 95.6562C124.757 100.272 119.342 107.435 116.671 117.146L22.2331 106.535C28.0851 73.2082 44.421 48.5677 71.2406 32.6132C98.3205 16.688 132.933 11.0931 175.079 15.8285C216.964 20.5347 248.708 32.268 270.31 51.0286C292.172 69.8184 301.452 93.9123 298.148 123.31C296.482 138.139 291.118 150.709 282.057 161.019C273.024 171.068 259.788 178.67 242.349 183.823L206.386 194.404C201.209 195.93 197.144 198.107 194.192 200.937C191.529 203.536 189.949 207.046 189.452 211.469L189.189 213.81L102.166 204.033C101.649 201.604 101.377 199.334 101.351 197.223C101.324 195.113 101.399 193.277 101.574 191.716ZM132.293 319.249C116.424 317.466 104.173 311.611 95.541 301.684C86.9382 291.497 83.4553 279.119 85.0922 264.55C86.7292 249.981 92.8575 238.815 103.477 231.051C114.126 223.027 127.385 219.907 143.255 221.69C159.125 223.473 171.361 229.458 179.964 239.645C188.596 249.572 192.093 261.82 190.456 276.389C188.819 290.957 182.676 302.254 172.028 310.278C161.408 318.042 148.163 321.032 132.293 319.249Z" fill="#FFCBCB"/>
<path d="M143.338 220.954C159.351 222.753 171.773 228.805 180.521 239.159L180.522 239.159C189.306 249.261 192.849 261.723 191.192 276.471C189.535 291.22 183.301 302.709 172.473 310.869L172.464 310.876C161.664 318.771 148.223 321.784 132.211 319.985C116.199 318.186 103.761 312.265 94.982 302.17L94.9751 302.161C86.2275 291.802 82.6995 279.216 84.3567 264.467C86.0138 249.719 92.2329 238.354 103.04 230.453C113.867 222.298 127.324 219.155 143.338 220.954ZM175.161 15.0929C217.127 19.8081 249.036 31.5734 270.793 50.4674L271.817 51.3598C293.135 70.1836 302.162 94.2224 298.884 123.393C297.203 138.359 291.783 151.073 282.613 161.507L282.607 161.513C273.457 171.694 260.086 179.354 242.559 184.533L242.558 184.533L206.594 195.113L206.595 195.114C201.497 196.617 197.549 198.746 194.705 201.472L194.704 201.471C192.189 203.927 190.669 207.267 190.187 211.552L189.842 214.628L101.554 204.708L101.442 204.187C100.916 201.718 100.637 199.399 100.61 197.232C100.583 195.101 100.659 193.233 100.839 191.634C102.172 179.774 106.815 169.345 114.761 160.366L114.764 160.363C123.028 151.122 135.949 144.073 153.433 139.158L185.273 130.092L185.282 130.089L185.291 130.087C190.941 128.632 194.975 126.767 197.48 124.542L197.495 124.529L197.51 124.517C200.265 122.318 201.791 119.644 202.147 116.475C202.873 110.009 200.353 104.69 194.449 100.454L194.438 100.446C188.764 96.2218 179.374 93.3229 166.143 91.8364C152.447 90.2975 141.517 91.8169 133.28 96.3004C125.307 100.811 120.008 107.805 117.384 117.342L117.216 117.952L21.3683 107.182L21.5046 106.407C27.3904 72.8881 43.8401 48.0515 70.862 31.9767L70.8651 31.9751C98.124 15.9445 132.912 10.3458 175.161 15.0929Z" stroke="black" stroke-width="1.48032"/>
</g>
<path d="M84.1553 270.416C67.1408 273.97 56.5065 278.055 56.7976 281.624C57.3261 288.102 93.655 290.425 137.941 286.813C182.226 283.2 217.698 275.02 217.17 268.542C216.904 265.278 207.548 263.069 192.666 262.142" stroke="#111013" stroke-width="1.48032"/>
<defs>
<filter id="filter0_d_476_2906" x="20.5039" y="12.7202" width="285.407" height="314.142" filterUnits="userSpaceOnUse" color-interpolation-filters="sRGB">
<feFlood flood-opacity="0" result="BackgroundImageFix"/>
<feColorMatrix in="SourceAlpha" type="matrix" values="0 0 0 0 0 0 0 0 0 0 0 0 0 0 0 0 0 0 127 0" result="hardAlpha"/>
<feOffset dx="5.63379" dy="5.63379"/>
<feComposite in2="hardAlpha" operator="out"/>
<feColorMatrix type="matrix" values="0 0 0 0 0 0 0 0 0 0 0 0 0 0 0 0 0 0 1 0"/>
<feBlend mode="normal" in2="BackgroundImageFix" result="effect1_dropShadow_476_2906"/>
<feBlend mode="normal" in="SourceGraphic" in2="effect1_dropShadow_476_2906" result="shape"/>
</filter>
</defs>
</svg>
