<svg width="814" height="121" viewBox="0 0 814 121" fill="none" xmlns="http://www.w3.org/2000/svg">
<g clip-path="url(#clip0_3970_1968)">
<path d="M-32 28L-0.321226 28.4874C0.225124 28.4958 0.769569 28.5539 1.30537 28.6611L8 30L9.47647 30.4614C13.7667 31.8021 17.6866 34.1217 20.9266 37.2372L29 45L785.5 42C793.117 33.1141 804.236 28 815.939 28H846V1H-32V28Z" fill="#FFB89F"/>
<path d="M725.515 1C732.579 1.0013 739.562 2.4985 746.006 5.39355C752.449 8.28866 758.207 12.5162 762.898 17.7969L784.574 42.2021L717.78 109.008C710.374 116.417 700.332 120.58 689.854 120.58H121.319C116.131 120.58 110.994 119.559 106.201 117.573C101.408 115.588 97.0528 112.677 93.3848 109.008L28.9453 44.5547L52.7129 17.7959C57.404 12.5144 63.161 8.28664 69.6045 5.3916C76.0482 2.49657 83.0326 0.9999 90.0967 1H725.515Z" fill="black" stroke="black"/>
<path d="M746.012 5.39355C739.568 2.49854 732.584 1.00134 725.521 1H90.1025C83.0385 0.9999 76.0539 2.49664 69.6104 5.3916C63.1669 8.28661 57.4098 12.5145 52.7188 17.7959L33.1543 39.8232L96.2773 102.96C99.9918 106.675 104.401 109.623 109.255 111.634C114.109 113.645 119.312 114.68 124.565 114.68H686.581C697.191 114.68 707.371 110.463 714.871 102.959L780.362 37.4531L762.904 17.7969C758.212 12.5162 752.455 8.28866 746.012 5.39355Z" fill="#FFCBCB" stroke="black"/>
<path d="M-4.30603 739.842H-573V28H-4.30603C0.947601 28.0002 6.14976 29.0353 11.0033 31.0463C15.8568 33.0572 20.2667 36.0046 23.981 39.72L93.537 109.291C97.2515 113.006 101.662 115.954 106.515 117.964C111.369 119.975 116.571 121.01 121.825 121.01H690.36C700.97 121.01 711.14 116.794 718.64 109.291L788.2 39.719C791.915 36.0034 796.325 33.056 801.179 31.0452C806.033 29.0345 811.236 27.9997 816.49 28H1385.18V739.842H816.48C805.87 739.841 795.694 735.627 788.19 728.126L718.64 658.571C714.925 654.856 710.514 651.909 705.66 649.899C700.806 647.889 695.604 646.854 690.35 646.855H121.749C111.14 646.855 101.035 651.07 93.534 658.571L23.979 728.126C20.2646 731.84 15.8549 734.787 11.0018 736.797C6.14861 738.807 0.946986 739.842 -4.30603 739.842Z" stroke="black"/>
</g>
<defs>
<clipPath id="clip0_3970_1968">
<rect width="814" height="121" fill="white"/>
</clipPath>
</defs>
</svg>
