<svg width="118" height="118" viewBox="0 0 118 118" fill="none" xmlns="http://www.w3.org/2000/svg">
<path d="M58.63 116.26C90.4582 116.26 116.26 90.4582 116.26 58.63C116.26 26.8018 90.4582 1 58.63 1C26.8018 1 1 26.8018 1 58.63C1 90.4582 26.8018 116.26 58.63 116.26Z" fill="#FFFF78" stroke="black" stroke-width="2" stroke-miterlimit="10"/>
<path d="M89.8177 31.7905C91.6925 29.241 90.1105 24.8932 86.2841 22.0794C82.4577 19.2655 77.8359 19.0511 75.9611 21.6006C74.0863 24.15 75.6683 28.4979 79.4948 31.3118C83.3212 34.1256 87.9429 34.3399 89.8177 31.7905Z" fill="#F9F871" stroke="black" stroke-width="2" stroke-miterlimit="10"/>
<path d="M98.9984 42.8089C100.571 41.8665 100.7 39.1899 99.2866 36.8306C97.873 34.4714 95.4519 33.3228 93.8791 34.2653C92.3062 35.2077 92.1772 37.8842 93.5909 40.2435C95.0046 42.6027 97.4256 43.7514 98.9984 42.8089Z" fill="#F9F871" stroke="black" stroke-width="2" stroke-miterlimit="10"/>
<path d="M33.1821 85.9232C34.7549 84.9807 34.884 82.3041 33.4703 79.9448C32.0566 77.5856 29.6356 76.437 28.0627 77.3795C26.4899 78.3219 26.3608 80.9985 27.7745 83.3577C29.1882 85.717 31.6092 86.8656 33.1821 85.9232Z" fill="#F9F871" stroke="black" stroke-width="2" stroke-miterlimit="10"/>
<mask id="mask0_2_14624" style="mask-type:luminance" maskUnits="userSpaceOnUse" x="5" y="5" width="107" height="107">
<path d="M58.6289 111.88C88.0381 111.88 111.879 88.039 111.879 58.6299C111.879 29.2207 88.0381 5.37988 58.6289 5.37988C29.2197 5.37988 5.37891 29.2207 5.37891 58.6299C5.37891 88.039 29.2197 111.88 58.6289 111.88Z" fill="white"/>
</mask>
<g mask="url(#mask0_2_14624)">
<path fill-rule="evenodd" clip-rule="evenodd" d="M39.8378 95.8303C39.8378 95.8303 45.2778 88.0203 51.2778 90.8103C57.2778 93.6003 57.9778 102.67 65.7878 100.44C73.5978 98.2103 89.6478 83.5603 91.7378 91.2303C93.8278 98.9003 107.088 72.5303 106.668 79.0903L104.638 88.4803L95.2278 97.9303L83.9778 105.18L71.4178 110.62C69.4378 111.15 64.9578 112.71 62.9578 112.24L50.3278 113L31.0078 106.56L39.8478 95.8303H39.8378Z" fill="black" stroke="black" stroke-width="1.68" stroke-miterlimit="10"/>
</g>
</svg>
