<svg width="1440" height="479" viewBox="0 0 1440 479" fill="none" xmlns="http://www.w3.org/2000/svg">
<g clip-path="url(#clip0_2_11071)">
<path d="M28.5479 457.121L28.5479 431.829" stroke="#DCE6DE" stroke-width="0.5" stroke-linecap="round"/>
<path d="M41.1885 444.48L15.8965 444.48" stroke="#DCE6DE" stroke-width="0.5" stroke-linecap="round"/>
<path d="M28.5479 370.685L28.5479 345.393" stroke="#DCE6DE" stroke-width="0.5" stroke-linecap="round"/>
<path d="M41.1885 358.044L15.8965 358.044" stroke="#DCE6DE" stroke-width="0.5" stroke-linecap="round"/>
<path d="M114.978 457.121L114.978 431.829" stroke="#DCE6DE" stroke-width="0.5" stroke-linecap="round"/>
<path d="M127.618 444.48L102.326 444.48" stroke="#DCE6DE" stroke-width="0.5" stroke-linecap="round"/>
<path d="M201.407 457.121L201.407 431.829" stroke="#DCE6DE" stroke-width="0.5" stroke-linecap="round"/>
<path d="M214.048 444.48L188.756 444.48" stroke="#DCE6DE" stroke-width="0.5" stroke-linecap="round"/>
<path d="M114.978 370.685L114.978 345.393" stroke="#DCE6DE" stroke-width="0.5" stroke-linecap="round"/>
<path d="M127.618 358.044L102.326 358.044" stroke="#DCE6DE" stroke-width="0.5" stroke-linecap="round"/>
<path d="M201.407 370.685L201.407 345.393" stroke="#DCE6DE" stroke-width="0.5" stroke-linecap="round"/>
<path d="M214.048 358.044L188.756 358.044" stroke="#DCE6DE" stroke-width="0.5" stroke-linecap="round"/>
<path d="M287.837 457.12L287.837 431.828" stroke="#DCE6DE" stroke-width="0.5" stroke-linecap="round"/>
<path d="M300.478 444.479L275.186 444.479" stroke="#DCE6DE" stroke-width="0.5" stroke-linecap="round"/>
<path d="M287.837 370.685L287.837 345.393" stroke="#DCE6DE" stroke-width="0.5" stroke-linecap="round"/>
<path d="M300.478 358.044L275.186 358.044" stroke="#DCE6DE" stroke-width="0.5" stroke-linecap="round"/>
<path d="M374.267 457.12L374.267 431.828" stroke="#DCE6DE" stroke-width="0.5" stroke-linecap="round"/>
<path d="M386.907 444.479L361.615 444.479" stroke="#DCE6DE" stroke-width="0.5" stroke-linecap="round"/>
<path d="M460.696 457.12L460.696 431.828" stroke="#DCE6DE" stroke-width="0.5" stroke-linecap="round"/>
<path d="M473.337 444.479L448.045 444.479" stroke="#DCE6DE" stroke-width="0.5" stroke-linecap="round"/>
<path d="M374.267 370.685L374.267 345.393" stroke="#DCE6DE" stroke-width="0.5" stroke-linecap="round"/>
<path d="M386.907 358.044L361.615 358.044" stroke="#DCE6DE" stroke-width="0.5" stroke-linecap="round"/>
<path d="M460.696 370.685L460.696 345.393" stroke="#DCE6DE" stroke-width="0.5" stroke-linecap="round"/>
<path d="M473.337 358.044L448.045 358.044" stroke="#DCE6DE" stroke-width="0.5" stroke-linecap="round"/>
<path d="M547.134 457.12L547.134 431.828" stroke="#DCE6DE" stroke-width="0.5" stroke-linecap="round"/>
<path d="M559.774 444.479L534.482 444.479" stroke="#DCE6DE" stroke-width="0.5" stroke-linecap="round"/>
<path d="M547.134 370.685L547.134 345.393" stroke="#DCE6DE" stroke-width="0.5" stroke-linecap="round"/>
<path d="M559.774 358.044L534.482 358.044" stroke="#DCE6DE" stroke-width="0.5" stroke-linecap="round"/>
<path d="M633.563 457.12L633.563 431.828" stroke="#DCE6DE" stroke-width="0.5" stroke-linecap="round"/>
<path d="M646.204 444.479L620.912 444.479" stroke="#DCE6DE" stroke-width="0.5" stroke-linecap="round"/>
<path d="M719.993 457.12L719.993 431.828" stroke="#DCE6DE" stroke-width="0.5" stroke-linecap="round"/>
<path d="M732.634 444.479L707.342 444.479" stroke="#DCE6DE" stroke-width="0.5" stroke-linecap="round"/>
<path d="M633.563 370.685L633.563 345.393" stroke="#DCE6DE" stroke-width="0.5" stroke-linecap="round"/>
<path d="M646.204 358.044L620.912 358.044" stroke="#DCE6DE" stroke-width="0.5" stroke-linecap="round"/>
<path d="M719.993 370.685L719.993 345.393" stroke="#DCE6DE" stroke-width="0.5" stroke-linecap="round"/>
<path d="M732.634 358.044L707.342 358.044" stroke="#DCE6DE" stroke-width="0.5" stroke-linecap="round"/>
<path d="M28.5479 284.257L28.5479 258.965" stroke="#DCE6DE" stroke-width="0.5" stroke-linecap="round"/>
<path d="M41.1885 271.617L15.8965 271.617" stroke="#DCE6DE" stroke-width="0.5" stroke-linecap="round"/>
<path d="M28.5479 197.822L28.5479 172.53" stroke="#DCE6DE" stroke-width="0.5" stroke-linecap="round"/>
<path d="M41.1885 185.181L15.8965 185.181" stroke="#DCE6DE" stroke-width="0.5" stroke-linecap="round"/>
<path d="M114.978 284.257L114.978 258.965" stroke="#DCE6DE" stroke-width="0.5" stroke-linecap="round"/>
<path d="M127.618 271.617L102.326 271.617" stroke="#DCE6DE" stroke-width="0.5" stroke-linecap="round"/>
<path d="M201.407 284.257L201.407 258.965" stroke="#DCE6DE" stroke-width="0.5" stroke-linecap="round"/>
<path d="M214.048 271.617L188.756 271.617" stroke="#DCE6DE" stroke-width="0.5" stroke-linecap="round"/>
<path d="M114.978 197.822L114.978 172.53" stroke="#DCE6DE" stroke-width="0.5" stroke-linecap="round"/>
<path d="M127.618 185.181L102.326 185.181" stroke="#DCE6DE" stroke-width="0.5" stroke-linecap="round"/>
<path d="M201.407 197.822L201.407 172.53" stroke="#DCE6DE" stroke-width="0.5" stroke-linecap="round"/>
<path d="M214.048 185.181L188.756 185.181" stroke="#DCE6DE" stroke-width="0.5" stroke-linecap="round"/>
<path d="M28.5479 111.394L28.5479 86.1021" stroke="#DCE6DE" stroke-width="0.5" stroke-linecap="round"/>
<path d="M41.1885 98.7534L15.8965 98.7534" stroke="#DCE6DE" stroke-width="0.5" stroke-linecap="round"/>
<path d="M28.5479 24.9585L28.5479 -0.333459" stroke="#DCE6DE" stroke-width="0.5" stroke-linecap="round"/>
<path d="M41.1885 12.3179L15.8965 12.3179" stroke="#DCE6DE" stroke-width="0.5" stroke-linecap="round"/>
<path d="M114.978 111.394L114.978 86.1021" stroke="#DCE6DE" stroke-width="0.5" stroke-linecap="round"/>
<path d="M127.618 98.7534L102.326 98.7534" stroke="#DCE6DE" stroke-width="0.5" stroke-linecap="round"/>
<path d="M201.407 111.394L201.407 86.1021" stroke="#DCE6DE" stroke-width="0.5" stroke-linecap="round"/>
<path d="M214.048 98.7534L188.756 98.7534" stroke="#DCE6DE" stroke-width="0.5" stroke-linecap="round"/>
<path d="M114.978 24.9585L114.978 -0.333459" stroke="#DCE6DE" stroke-width="0.5" stroke-linecap="round"/>
<path d="M127.618 12.3179L102.326 12.3179" stroke="#DCE6DE" stroke-width="0.5" stroke-linecap="round"/>
<path d="M201.407 24.9585L201.407 -0.333459" stroke="#DCE6DE" stroke-width="0.5" stroke-linecap="round"/>
<path d="M214.048 12.3179L188.756 12.3179" stroke="#DCE6DE" stroke-width="0.5" stroke-linecap="round"/>
<path d="M287.837 284.257L287.837 258.965" stroke="#DCE6DE" stroke-width="0.5" stroke-linecap="round"/>
<path d="M300.478 271.617L275.186 271.617" stroke="#DCE6DE" stroke-width="0.5" stroke-linecap="round"/>
<path d="M287.837 197.822L287.837 172.53" stroke="#DCE6DE" stroke-width="0.5" stroke-linecap="round"/>
<path d="M300.478 185.181L275.186 185.181" stroke="#DCE6DE" stroke-width="0.5" stroke-linecap="round"/>
<path d="M374.267 284.257L374.267 258.965" stroke="#DCE6DE" stroke-width="0.5" stroke-linecap="round"/>
<path d="M386.907 271.617L361.615 271.617" stroke="#DCE6DE" stroke-width="0.5" stroke-linecap="round"/>
<path d="M460.696 284.257L460.696 258.965" stroke="#DCE6DE" stroke-width="0.5" stroke-linecap="round"/>
<path d="M473.337 271.617L448.045 271.617" stroke="#DCE6DE" stroke-width="0.5" stroke-linecap="round"/>
<path d="M374.267 197.822L374.267 172.53" stroke="#DCE6DE" stroke-width="0.5" stroke-linecap="round"/>
<path d="M386.907 185.181L361.615 185.181" stroke="#DCE6DE" stroke-width="0.5" stroke-linecap="round"/>
<path d="M460.696 197.822L460.696 172.53" stroke="#DCE6DE" stroke-width="0.5" stroke-linecap="round"/>
<path d="M473.337 185.181L448.045 185.181" stroke="#DCE6DE" stroke-width="0.5" stroke-linecap="round"/>
<path d="M547.134 284.257L547.134 258.965" stroke="#DCE6DE" stroke-width="0.5" stroke-linecap="round"/>
<path d="M559.774 271.617L534.482 271.617" stroke="#DCE6DE" stroke-width="0.5" stroke-linecap="round"/>
<path d="M547.134 197.822L547.134 172.53" stroke="#DCE6DE" stroke-width="0.5" stroke-linecap="round"/>
<path d="M559.774 185.181L534.482 185.181" stroke="#DCE6DE" stroke-width="0.5" stroke-linecap="round"/>
<path d="M633.563 284.257L633.563 258.965" stroke="#DCE6DE" stroke-width="0.5" stroke-linecap="round"/>
<path d="M646.204 271.617L620.912 271.617" stroke="#DCE6DE" stroke-width="0.5" stroke-linecap="round"/>
<path d="M719.993 284.257L719.993 258.965" stroke="#DCE6DE" stroke-width="0.5" stroke-linecap="round"/>
<path d="M732.634 271.617L707.342 271.617" stroke="#DCE6DE" stroke-width="0.5" stroke-linecap="round"/>
<path d="M633.563 197.822L633.563 172.53" stroke="#DCE6DE" stroke-width="0.5" stroke-linecap="round"/>
<path d="M646.204 185.181L620.912 185.181" stroke="#DCE6DE" stroke-width="0.5" stroke-linecap="round"/>
<path d="M719.993 197.822L719.993 172.53" stroke="#DCE6DE" stroke-width="0.5" stroke-linecap="round"/>
<path d="M732.634 185.181L707.342 185.181" stroke="#DCE6DE" stroke-width="0.5" stroke-linecap="round"/>
<path d="M287.837 111.394L287.837 86.1023" stroke="#DCE6DE" stroke-width="0.5" stroke-linecap="round"/>
<path d="M300.478 98.7534L275.186 98.7534" stroke="#DCE6DE" stroke-width="0.5" stroke-linecap="round"/>
<path d="M287.837 24.9585L287.837 -0.333459" stroke="#DCE6DE" stroke-width="0.5" stroke-linecap="round"/>
<path d="M300.478 12.3179L275.186 12.3179" stroke="#DCE6DE" stroke-width="0.5" stroke-linecap="round"/>
<path d="M374.267 111.394L374.267 86.1023" stroke="#DCE6DE" stroke-width="0.5" stroke-linecap="round"/>
<path d="M386.907 98.7534L361.615 98.7534" stroke="#DCE6DE" stroke-width="0.5" stroke-linecap="round"/>
<path d="M460.696 111.394L460.696 86.1023" stroke="#DCE6DE" stroke-width="0.5" stroke-linecap="round"/>
<path d="M473.337 98.7534L448.045 98.7534" stroke="#DCE6DE" stroke-width="0.5" stroke-linecap="round"/>
<path d="M374.267 24.9585L374.267 -0.333459" stroke="#DCE6DE" stroke-width="0.5" stroke-linecap="round"/>
<path d="M386.907 12.3179L361.615 12.3179" stroke="#DCE6DE" stroke-width="0.5" stroke-linecap="round"/>
<path d="M460.696 24.9585L460.696 -0.333459" stroke="#DCE6DE" stroke-width="0.5" stroke-linecap="round"/>
<path d="M473.337 12.3179L448.045 12.3179" stroke="#DCE6DE" stroke-width="0.5" stroke-linecap="round"/>
<path d="M547.134 111.394L547.134 86.1023" stroke="#DCE6DE" stroke-width="0.5" stroke-linecap="round"/>
<path d="M559.774 98.7537L534.482 98.7537" stroke="#DCE6DE" stroke-width="0.5" stroke-linecap="round"/>
<path d="M547.134 24.9587L547.134 -0.333214" stroke="#DCE6DE" stroke-width="0.5" stroke-linecap="round"/>
<path d="M559.774 12.3181L534.482 12.3181" stroke="#DCE6DE" stroke-width="0.5" stroke-linecap="round"/>
<path d="M633.563 111.394L633.563 86.1023" stroke="#DCE6DE" stroke-width="0.5" stroke-linecap="round"/>
<path d="M646.204 98.7537L620.912 98.7537" stroke="#DCE6DE" stroke-width="0.5" stroke-linecap="round"/>
<path d="M719.993 111.394L719.993 86.1023" stroke="#DCE6DE" stroke-width="0.5" stroke-linecap="round"/>
<path d="M732.634 98.7537L707.342 98.7537" stroke="#DCE6DE" stroke-width="0.5" stroke-linecap="round"/>
<path d="M633.563 24.9587L633.563 -0.333214" stroke="#DCE6DE" stroke-width="0.5" stroke-linecap="round"/>
<path d="M646.204 12.3181L620.912 12.3181" stroke="#DCE6DE" stroke-width="0.5" stroke-linecap="round"/>
<path d="M719.993 24.9587L719.993 -0.333214" stroke="#DCE6DE" stroke-width="0.5" stroke-linecap="round"/>
<path d="M732.634 12.3181L707.342 12.3181" stroke="#DCE6DE" stroke-width="0.5" stroke-linecap="round"/>
<path d="M806.438 457.121L806.438 431.829" stroke="#DCE6DE" stroke-width="0.5" stroke-linecap="round"/>
<path d="M819.087 444.48L793.795 444.48" stroke="#DCE6DE" stroke-width="0.5" stroke-linecap="round"/>
<path d="M806.438 370.686L806.438 345.394" stroke="#DCE6DE" stroke-width="0.5" stroke-linecap="round"/>
<path d="M819.087 358.045L793.795 358.045" stroke="#DCE6DE" stroke-width="0.5" stroke-linecap="round"/>
<path d="M892.868 457.121L892.868 431.829" stroke="#DCE6DE" stroke-width="0.5" stroke-linecap="round"/>
<path d="M905.517 444.48L880.225 444.48" stroke="#DCE6DE" stroke-width="0.5" stroke-linecap="round"/>
<path d="M979.298 457.121L979.298 431.829" stroke="#DCE6DE" stroke-width="0.5" stroke-linecap="round"/>
<path d="M991.946 444.48L966.654 444.48" stroke="#DCE6DE" stroke-width="0.5" stroke-linecap="round"/>
<path d="M892.868 370.686L892.868 345.394" stroke="#DCE6DE" stroke-width="0.5" stroke-linecap="round"/>
<path d="M905.517 358.045L880.225 358.045" stroke="#DCE6DE" stroke-width="0.5" stroke-linecap="round"/>
<path d="M979.298 370.686L979.298 345.394" stroke="#DCE6DE" stroke-width="0.5" stroke-linecap="round"/>
<path d="M991.946 358.045L966.654 358.045" stroke="#DCE6DE" stroke-width="0.5" stroke-linecap="round"/>
<path d="M1065.74 457.121L1065.74 431.829" stroke="#DCE6DE" stroke-width="0.5" stroke-linecap="round"/>
<path d="M1078.38 444.48L1053.09 444.48" stroke="#DCE6DE" stroke-width="0.5" stroke-linecap="round"/>
<path d="M1065.74 370.686L1065.74 345.394" stroke="#DCE6DE" stroke-width="0.5" stroke-linecap="round"/>
<path d="M1078.38 358.045L1053.09 358.045" stroke="#DCE6DE" stroke-width="0.5" stroke-linecap="round"/>
<path d="M1152.17 457.121L1152.17 431.829" stroke="#DCE6DE" stroke-width="0.5" stroke-linecap="round"/>
<path d="M1164.81 444.48L1139.52 444.48" stroke="#DCE6DE" stroke-width="0.5" stroke-linecap="round"/>
<path d="M1238.59 457.121L1238.59 431.829" stroke="#DCE6DE" stroke-width="0.5" stroke-linecap="round"/>
<path d="M1251.24 444.48L1225.95 444.48" stroke="#DCE6DE" stroke-width="0.5" stroke-linecap="round"/>
<path d="M1152.17 370.686L1152.17 345.394" stroke="#DCE6DE" stroke-width="0.5" stroke-linecap="round"/>
<path d="M1164.81 358.045L1139.52 358.045" stroke="#DCE6DE" stroke-width="0.5" stroke-linecap="round"/>
<path d="M1238.59 370.686L1238.59 345.394" stroke="#DCE6DE" stroke-width="0.5" stroke-linecap="round"/>
<path d="M1251.24 358.045L1225.95 358.045" stroke="#DCE6DE" stroke-width="0.5" stroke-linecap="round"/>
<path d="M1325.02 457.121L1325.02 431.829" stroke="#DCE6DE" stroke-width="0.5" stroke-linecap="round"/>
<path d="M1337.67 444.48L1312.38 444.48" stroke="#DCE6DE" stroke-width="0.5" stroke-linecap="round"/>
<path d="M1325.02 370.685L1325.02 345.393" stroke="#DCE6DE" stroke-width="0.5" stroke-linecap="round"/>
<path d="M1337.67 358.044L1312.38 358.044" stroke="#DCE6DE" stroke-width="0.5" stroke-linecap="round"/>
<path d="M1411.45 457.121L1411.45 431.829" stroke="#DCE6DE" stroke-width="0.5" stroke-linecap="round"/>
<path d="M1424.1 444.48L1398.81 444.48" stroke="#DCE6DE" stroke-width="0.5" stroke-linecap="round"/>
<path d="M1411.45 370.685L1411.45 345.393" stroke="#DCE6DE" stroke-width="0.5" stroke-linecap="round"/>
<path d="M1424.1 358.044L1398.81 358.044" stroke="#DCE6DE" stroke-width="0.5" stroke-linecap="round"/>
<path d="M806.438 284.258L806.438 258.966" stroke="#DCE6DE" stroke-width="0.5" stroke-linecap="round"/>
<path d="M819.087 271.617L793.795 271.617" stroke="#DCE6DE" stroke-width="0.5" stroke-linecap="round"/>
<path d="M806.438 197.822L806.438 172.53" stroke="#DCE6DE" stroke-width="0.5" stroke-linecap="round"/>
<path d="M819.087 185.182L793.795 185.182" stroke="#DCE6DE" stroke-width="0.5" stroke-linecap="round"/>
<path d="M892.868 284.258L892.868 258.966" stroke="#DCE6DE" stroke-width="0.5" stroke-linecap="round"/>
<path d="M905.517 271.617L880.225 271.617" stroke="#DCE6DE" stroke-width="0.5" stroke-linecap="round"/>
<path d="M979.298 284.258L979.298 258.966" stroke="#DCE6DE" stroke-width="0.5" stroke-linecap="round"/>
<path d="M991.946 271.617L966.654 271.617" stroke="#DCE6DE" stroke-width="0.5" stroke-linecap="round"/>
<path d="M892.868 197.822L892.868 172.53" stroke="#DCE6DE" stroke-width="0.5" stroke-linecap="round"/>
<path d="M905.517 185.182L880.225 185.182" stroke="#DCE6DE" stroke-width="0.5" stroke-linecap="round"/>
<path d="M979.298 197.822L979.298 172.53" stroke="#DCE6DE" stroke-width="0.5" stroke-linecap="round"/>
<path d="M991.946 185.182L966.654 185.182" stroke="#DCE6DE" stroke-width="0.5" stroke-linecap="round"/>
<path d="M1065.74 284.258L1065.74 258.966" stroke="#DCE6DE" stroke-width="0.5" stroke-linecap="round"/>
<path d="M1078.38 271.617L1053.09 271.617" stroke="#DCE6DE" stroke-width="0.5" stroke-linecap="round"/>
<path d="M1065.74 197.822L1065.74 172.53" stroke="#DCE6DE" stroke-width="0.5" stroke-linecap="round"/>
<path d="M1078.38 185.182L1053.09 185.182" stroke="#DCE6DE" stroke-width="0.5" stroke-linecap="round"/>
<path d="M1152.17 284.258L1152.17 258.966" stroke="#DCE6DE" stroke-width="0.5" stroke-linecap="round"/>
<path d="M1164.81 271.617L1139.52 271.617" stroke="#DCE6DE" stroke-width="0.5" stroke-linecap="round"/>
<path d="M1238.59 284.258L1238.59 258.966" stroke="#DCE6DE" stroke-width="0.5" stroke-linecap="round"/>
<path d="M1251.24 271.617L1225.95 271.617" stroke="#DCE6DE" stroke-width="0.5" stroke-linecap="round"/>
<path d="M1152.17 197.822L1152.17 172.53" stroke="#DCE6DE" stroke-width="0.5" stroke-linecap="round"/>
<path d="M1164.81 185.182L1139.52 185.182" stroke="#DCE6DE" stroke-width="0.5" stroke-linecap="round"/>
<path d="M1238.59 197.822L1238.59 172.53" stroke="#DCE6DE" stroke-width="0.5" stroke-linecap="round"/>
<path d="M1251.24 185.182L1225.95 185.182" stroke="#DCE6DE" stroke-width="0.5" stroke-linecap="round"/>
<path d="M806.438 111.395L806.438 86.1026" stroke="#DCE6DE" stroke-width="0.5" stroke-linecap="round"/>
<path d="M819.087 98.7539L793.795 98.7539" stroke="#DCE6DE" stroke-width="0.5" stroke-linecap="round"/>
<path d="M806.438 24.959L806.438 -0.33297" stroke="#DCE6DE" stroke-width="0.5" stroke-linecap="round"/>
<path d="M819.087 12.3184L793.795 12.3184" stroke="#DCE6DE" stroke-width="0.5" stroke-linecap="round"/>
<path d="M892.868 111.395L892.868 86.1026" stroke="#DCE6DE" stroke-width="0.5" stroke-linecap="round"/>
<path d="M905.517 98.7539L880.225 98.7539" stroke="#DCE6DE" stroke-width="0.5" stroke-linecap="round"/>
<path d="M979.298 111.395L979.298 86.1026" stroke="#DCE6DE" stroke-width="0.5" stroke-linecap="round"/>
<path d="M991.946 98.7539L966.654 98.7539" stroke="#DCE6DE" stroke-width="0.5" stroke-linecap="round"/>
<path d="M892.868 24.959L892.868 -0.33297" stroke="#DCE6DE" stroke-width="0.5" stroke-linecap="round"/>
<path d="M905.517 12.3184L880.225 12.3184" stroke="#DCE6DE" stroke-width="0.5" stroke-linecap="round"/>
<path d="M979.298 24.959L979.298 -0.33297" stroke="#DCE6DE" stroke-width="0.5" stroke-linecap="round"/>
<path d="M991.946 12.3184L966.654 12.3184" stroke="#DCE6DE" stroke-width="0.5" stroke-linecap="round"/>
<path d="M1065.74 111.395L1065.74 86.1026" stroke="#DCE6DE" stroke-width="0.5" stroke-linecap="round"/>
<path d="M1078.38 98.7537L1053.09 98.7537" stroke="#DCE6DE" stroke-width="0.5" stroke-linecap="round"/>
<path d="M1065.74 24.9587L1065.74 -0.333214" stroke="#DCE6DE" stroke-width="0.5" stroke-linecap="round"/>
<path d="M1078.38 12.3181L1053.09 12.3181" stroke="#DCE6DE" stroke-width="0.5" stroke-linecap="round"/>
<path d="M1152.17 111.395L1152.17 86.1026" stroke="#DCE6DE" stroke-width="0.5" stroke-linecap="round"/>
<path d="M1164.81 98.7537L1139.52 98.7537" stroke="#DCE6DE" stroke-width="0.5" stroke-linecap="round"/>
<path d="M1238.59 111.395L1238.59 86.1026" stroke="#DCE6DE" stroke-width="0.5" stroke-linecap="round"/>
<path d="M1251.24 98.7537L1225.95 98.7537" stroke="#DCE6DE" stroke-width="0.5" stroke-linecap="round"/>
<path d="M1152.17 24.9587L1152.17 -0.333214" stroke="#DCE6DE" stroke-width="0.5" stroke-linecap="round"/>
<path d="M1164.81 12.3181L1139.52 12.3181" stroke="#DCE6DE" stroke-width="0.5" stroke-linecap="round"/>
<path d="M1238.59 24.9587L1238.59 -0.333214" stroke="#DCE6DE" stroke-width="0.5" stroke-linecap="round"/>
<path d="M1251.24 12.3181L1225.95 12.3181" stroke="#DCE6DE" stroke-width="0.5" stroke-linecap="round"/>
<path d="M1325.02 284.258L1325.02 258.966" stroke="#DCE6DE" stroke-width="0.5" stroke-linecap="round"/>
<path d="M1337.67 271.618L1312.38 271.618" stroke="#DCE6DE" stroke-width="0.5" stroke-linecap="round"/>
<path d="M1325.02 197.823L1325.02 172.531" stroke="#DCE6DE" stroke-width="0.5" stroke-linecap="round"/>
<path d="M1337.67 185.182L1312.38 185.182" stroke="#DCE6DE" stroke-width="0.5" stroke-linecap="round"/>
<path d="M1411.45 284.258L1411.45 258.966" stroke="#DCE6DE" stroke-width="0.5" stroke-linecap="round"/>
<path d="M1424.1 271.618L1398.81 271.618" stroke="#DCE6DE" stroke-width="0.5" stroke-linecap="round"/>
<path d="M1411.45 197.823L1411.45 172.531" stroke="#DCE6DE" stroke-width="0.5" stroke-linecap="round"/>
<path d="M1424.1 185.182L1398.81 185.182" stroke="#DCE6DE" stroke-width="0.5" stroke-linecap="round"/>
<path d="M1325.02 111.395L1325.02 86.1031" stroke="#DCE6DE" stroke-width="0.5" stroke-linecap="round"/>
<path d="M1337.67 98.7542L1312.38 98.7542" stroke="#DCE6DE" stroke-width="0.5" stroke-linecap="round"/>
<path d="M1325.02 24.9592L1325.02 -0.332726" stroke="#DCE6DE" stroke-width="0.5" stroke-linecap="round"/>
<path d="M1337.67 12.3186L1312.38 12.3186" stroke="#DCE6DE" stroke-width="0.5" stroke-linecap="round"/>
<path d="M1411.45 111.395L1411.45 86.1031" stroke="#DCE6DE" stroke-width="0.5" stroke-linecap="round"/>
<path d="M1424.1 98.7542L1398.81 98.7542" stroke="#DCE6DE" stroke-width="0.5" stroke-linecap="round"/>
<path d="M1411.45 24.9592L1411.45 -0.332726" stroke="#DCE6DE" stroke-width="0.5" stroke-linecap="round"/>
<path d="M1424.1 12.3186L1398.81 12.3186" stroke="#DCE6DE" stroke-width="0.5" stroke-linecap="round"/>
</g>
<defs>
<clipPath id="clip0_2_11071">
<rect width="2100" height="479" fill="white" transform="translate(-330 -0.333496)"/>
</clipPath>
</defs>
</svg>
