<svg width="824" height="136" viewBox="0 0 824 136" fill="none" xmlns="http://www.w3.org/2000/svg">
<g clip-path="url(#clip0_3964_1826)">
<mask id="mask0_3964_1826" style="mask-type:alpha" maskUnits="userSpaceOnUse" x="0" y="0" width="824" height="136">
<rect width="824" height="136" fill="#D9D9D9"/>
</mask>
<g mask="url(#mask0_3964_1826)">
<path d="M694.784 0.277344C707.356 0.277404 719.342 3.97362 727.711 10.4541L811.804 75.5518H729.289C721.798 75.5515 714.566 77.7495 708.965 81.7295L653.451 121.154C647.851 125.134 640.619 127.332 633.127 127.332H200.845C193.353 127.332 186.121 125.135 180.518 121.156L125.004 81.7295C119.401 77.7495 112.169 75.5518 104.678 75.5518H11.8203L95.9131 10.4541C100.053 7.24996 105.128 4.68928 110.802 2.93652C116.476 1.18374 122.623 0.277597 128.84 0.277344H694.784Z" fill="#FFCBCB" stroke="black" stroke-width="0.5"/>
<mask id="mask1_3964_1826" style="mask-type:alpha" maskUnits="userSpaceOnUse" x="-179" y="0" width="1182" height="470">
<path d="M128.842 0.527344H694.786C707.314 0.527344 719.242 4.21145 727.56 10.6519L990.987 214.575C1005.73 225.991 1005.73 243.188 990.987 254.604L727.56 458.527C723.447 461.71 718.4 464.259 712.75 466.004C707.102 467.749 700.979 468.651 694.786 468.651H128.842C122.649 468.651 116.526 467.749 110.877 466.004C105.228 464.259 100.181 461.71 96.0681 458.527L-167.359 254.604C-182.104 243.188 -182.104 225.991 -167.359 214.575L96.0681 10.6519C100.181 7.46843 105.228 4.92022 110.877 3.17511C116.526 1.43 122.649 0.527596 128.842 0.527344Z" fill="#4FCB8D" stroke="black"/>
</mask>
<g mask="url(#mask1_3964_1826)">
<path d="M125.007 81.7305C119.404 77.7505 112.172 75.5527 104.681 75.5527H-18.998V83.252H103.725C111.341 83.252 118.686 85.5228 124.32 89.6221L177.979 128.654C183.616 132.753 190.959 135.024 198.575 135.024H635.423C643.039 135.024 650.384 132.754 656.019 128.654L709.675 89.6221C715.31 85.5221 722.654 83.2508 730.271 83.252H832.811V75.5527H729.292C721.801 75.5524 714.569 77.7504 708.968 81.7305L653.454 121.155C647.853 125.135 640.621 127.333 633.13 127.333H200.848C193.356 127.333 186.124 125.136 180.521 121.157L125.007 81.7305Z" fill="black" stroke="black"/>
</g>
</g>
</g>
<defs>
<clipPath id="clip0_3964_1826">
<rect width="824" height="136" fill="white"/>
</clipPath>
</defs>
</svg>
