<svg width="150" height="150" viewBox="0 0 150 150" fill="none" xmlns="http://www.w3.org/2000/svg">
<rect width="150" height="150" fill="#F8F872"/>
<path d="M75 98C110.346 98 139 87.9264 139 75.5C139 63.0736 110.346 53 75 53C39.6538 53 11 63.0736 11 75.5C11 87.9264 39.6538 98 75 98Z" fill="#F8F872"/>
<path d="M75 56.6116C91.7928 56.6116 107.539 58.8965 119.339 63.0436C124.808 64.9665 129.233 67.2579 132.135 69.6685C133.836 71.0819 135.863 73.2411 135.863 75.4957C135.863 77.7502 133.836 79.9094 132.135 81.3228C129.233 83.7356 124.808 86.027 119.339 87.9477C107.539 92.0948 91.7928 94.3797 75 94.3797C58.2072 94.3797 42.4608 92.0948 30.6609 87.9477C25.1919 86.0249 20.7674 83.7334 17.8654 81.3228C16.1641 79.9094 14.1372 77.7502 14.1372 75.4957C14.1372 73.2411 16.1641 71.0819 17.8654 69.6685C20.7674 67.2557 25.1919 64.9643 30.6609 63.0436C42.4608 58.8965 58.2072 56.6116 75 56.6116ZM75 53C39.6529 53 11 63.0739 11 75.5C11 87.9261 39.6529 98 75 98C110.347 98 139 87.9261 139 75.5C139 63.0739 110.345 53 75 53Z" fill="#171717"/>
<path d="M44.6357 69.2348H38.3048C37.68 69.2348 37.0985 69.5188 36.6656 70.0348C36.2309 70.5507 36.005 71.2314 36.0201 71.9468V78.9641L36.0069 79.48C35.99 80.0654 36.1782 80.616 36.5282 81.0344C36.882 81.4528 37.3563 81.6847 37.8606 81.6847H38.1655C38.6737 81.6847 39.1479 81.4528 39.5017 81.03C39.8555 80.6073 40.04 80.0523 40.0193 79.467L39.9892 78.5132H44.6357C47.9969 78.5132 49.8431 76.8656 49.8431 73.8805C49.8431 70.8954 48.0929 69.2327 44.6357 69.2327V69.2348ZM44.6357 75.3611H39.9835V72.7251H44.6357C45.0291 72.7251 46.2297 72.7251 46.2297 74.0843C46.2297 75.3611 45.0742 75.3611 44.6357 75.3611Z" fill="#171717"/>
<path d="M63.915 78.262C63.5706 77.8804 63.1095 77.681 62.6352 77.707L61.6528 77.7569L56.1575 77.9021L56.165 71.6305C56.1914 70.9997 55.9975 70.3992 55.6174 69.9418C55.2391 69.4844 54.7253 69.2329 54.1777 69.2329C53.63 69.2329 53.1256 69.48 52.7474 69.9288C52.3691 70.3775 52.1696 70.9715 52.1865 71.5959L52.196 71.947V78.9578L52.1922 79.1551C52.1715 79.825 52.386 80.4601 52.7907 80.9414C53.1953 81.4227 53.7392 81.6871 54.3207 81.6871H61.459L62.6653 81.7218C63.1471 81.7478 63.5875 81.5332 63.9281 81.1517C64.265 80.7701 64.4551 80.2585 64.4551 79.7122C64.4551 79.1659 64.2612 78.6457 63.9131 78.262H63.915Z" fill="#171717"/>
<path d="M80.106 69.9156C79.7428 69.4733 79.2516 69.2349 78.7266 69.2349H78.6569C78.145 69.2349 77.6651 69.4668 77.3038 69.8852C76.9406 70.3036 76.7467 70.8629 76.7486 71.4504L76.7618 73.2475C76.7787 75.114 76.4136 76.495 75.6797 77.3534C75.0981 78.0298 74.3039 78.3723 73.314 78.3723C72.215 78.3723 71.3474 78.0059 70.732 77.2906C69.9905 76.4278 69.6235 75.0555 69.6404 73.2042L69.6536 71.4504C69.6611 70.8607 69.4635 70.3036 69.1022 69.8852C68.7408 69.4668 68.2609 69.2349 67.7453 69.2349C67.2296 69.2349 66.7366 69.469 66.3752 69.9004C66.012 70.3361 65.82 70.9019 65.837 71.5003L65.8501 71.9468L65.901 74.945C65.9819 79.3001 68.8199 82.0013 73.314 82.0013C77.8082 82.0013 80.4222 79.311 80.5332 74.9818L80.6292 71.5349C80.6556 70.9279 80.4693 70.3535 80.1041 69.9156H80.106Z" fill="#171717"/>
<path d="M98.1364 69.7272C97.8259 69.3803 97.4212 69.2004 96.9846 69.2156L96.6101 69.2351H84.9494L84.3679 69.2112C83.9407 69.2026 83.5286 69.376 83.2162 69.7229C82.9056 70.0697 82.7344 70.5315 82.7344 71.0322C82.7344 71.533 82.9056 72.0013 83.2162 72.3481C83.5229 72.6906 83.9238 72.8836 84.3623 72.8597L85.4388 72.825H88.7284L88.7943 74.6222V78.9665L88.7849 79.3199C88.7642 79.9464 88.9656 80.5404 89.342 80.9891C89.7202 81.44 90.2265 81.685 90.7722 81.685C91.318 81.685 91.8337 81.4314 92.212 80.9761C92.5921 80.5144 92.786 79.9182 92.7596 79.283L92.7558 79.1334L92.7521 74.5962L92.8198 72.8229H96.0135L96.9959 72.8576C97.4344 72.8727 97.8353 72.6885 98.1458 72.3416C98.4525 71.9948 98.6238 71.533 98.6238 71.0344C98.6238 70.5358 98.4525 70.0719 98.1401 69.725L98.1364 69.7272Z" fill="#171717"/>
<path d="M107.958 68.9163C100.989 68.9163 100.031 72.0878 100.031 75.5108C100.031 81.2859 103.838 82.0837 107.958 82.0837C114.91 82.0837 115.868 78.9252 115.868 75.5108C115.868 72.0965 114.91 68.9163 107.958 68.9163ZM107.958 78.212C104.979 78.212 103.562 77.8087 103.562 75.5108C103.562 73.2129 104.979 72.7859 107.958 72.7859C110.937 72.7859 112.334 73.1934 112.334 75.5108C112.334 77.8282 110.86 78.212 107.958 78.212Z" fill="#171717"/>
</svg>
