<svg width="66" height="26" viewBox="0 0 66 26" fill="none" xmlns="http://www.w3.org/2000/svg">
<g clip-path="url(#clip0_1_75)">
<path fill-rule="evenodd" clip-rule="evenodd" d="M63.6426 0C63.8267 7.25059e-05 63.9756 0.148822 63.9756 0.333008V22.1133H65.2646L65.2588 22.1191C65.4429 22.1191 65.5916 22.268 65.5918 22.4521V25.1562C65.5918 25.3405 65.443 25.4893 65.2588 25.4893H61.0576C60.8082 25.4893 60.6057 25.2875 60.6055 25.0381V22.874L61.0635 21.0439H60.5937C60.1659 22.4167 59.3754 23.5695 58.3057 24.3896C57.0577 25.3464 55.483 25.8281 53.623 25.8281C51.1805 25.8281 49.1001 24.9245 47.6084 23.2129C46.1881 21.5845 45.4033 19.2845 45.4033 16.7588C45.4034 14.2332 46.1881 11.9512 47.6084 10.3467C49.1001 8.66483 51.1746 7.77344 53.623 7.77344C55.5306 7.7735 57.1232 8.24297 58.3652 9.16406C59.4408 9.96635 60.2134 11.1138 60.5937 12.4687H61.0635L60.6055 10.6084V0.333008C60.6055 0.148777 60.7542 0 60.9385 0H63.6426ZM54.6504 10.709C52.9331 10.7091 51.5011 11.2027 50.5146 12.1416C49.4212 13.1816 48.8682 14.7324 48.8682 16.7529C48.8682 18.7735 49.4211 20.3252 50.5146 21.3652C51.4951 22.304 52.9035 22.7968 54.6504 22.7969C56.3975 22.7969 57.8779 22.2982 58.9238 21.3594C60.1005 20.3075 60.6943 18.7557 60.6943 16.7529C60.6943 14.7444 60.1004 13.1935 58.9238 12.1416C57.8719 11.2026 56.3679 10.709 54.6504 10.709Z" fill="black"/>
<path d="M28.8242 8.10938C29.0083 8.10953 29.1572 8.25824 29.1572 8.44238V18.2061C29.1572 19.8998 29.4837 21.0833 30.1553 21.8262C30.803 22.5391 31.8074 22.8837 33.2393 22.8838C34.927 22.8838 36.3654 22.23 37.3936 21.0059C38.4632 19.7341 39.0283 17.9095 39.0283 15.7285V8.44238C39.0283 8.25829 39.1763 8.10961 39.3603 8.10938H42.0644C42.2487 8.10938 42.3975 8.25815 42.3975 8.44238V22.1113H43.6045L43.5918 22.0986C43.7759 22.0986 43.9246 22.2475 43.9248 22.4316V25.1357C43.9248 25.32 43.776 25.4687 43.5918 25.4687H39.4736C39.2301 25.4687 39.0286 25.2669 39.0283 25.0176V22.3428L39.4853 20.5186H39.0225C38.6481 22.0872 37.9228 23.3351 36.8711 24.2324C35.7063 25.2249 34.1964 25.7305 32.3838 25.7305C30.2978 25.7305 28.6633 25.1833 27.5342 24.0957C26.322 22.9309 25.7041 21.1661 25.7041 18.8545V8.44238C25.7041 8.25815 25.8529 8.10938 26.0371 8.10938H28.8242Z" fill="black"/>
<path fill-rule="evenodd" clip-rule="evenodd" d="M10.4297 1.0293C10.5603 1.0293 10.6677 1.13607 10.668 1.2666V3.67969C10.668 3.81043 10.5604 3.91797 10.4297 3.91797H7.73144C7.45821 3.91814 7.23242 4.14372 7.23242 4.41699V6.56836C7.23238 8.9275 6.3529 11.2033 4.78418 13.0039C4.7605 13.0276 4.73079 13.0458 4.69531 13.0459L4.3916 13.0693V13.6699L4.74805 13.6992C4.7837 13.6992 4.81412 13.7174 4.83789 13.7412C6.35327 15.4409 7.23242 17.747 7.23242 20.1182V22.1025C7.23242 22.3758 7.45821 22.6024 7.73144 22.6025H10.4297C10.5604 22.6025 10.6679 22.7091 10.668 22.8398V25.2529C10.6679 25.3836 10.5604 25.4902 10.4297 25.4902H6.22266C5.18264 25.4902 4.34473 24.6464 4.34473 23.6123V20.1182C4.34473 18.365 3.70859 16.7186 2.55566 15.4824C2.19323 15.0427 1.59299 14.7872 0.939453 14.7871H0.333008C0.148777 14.7871 0 14.6383 0 14.4541V12.2314C0.000189542 12.0474 0.148894 11.8994 0.333008 11.8994H0.945312C1.59886 11.8993 2.19915 11.6436 2.55566 11.2158C3.69667 9.98567 4.35054 8.29769 4.35059 6.56836V2.90723C4.35064 1.86726 5.19448 1.0293 6.22852 1.0293H10.4297ZM4.36816 13.4268V13.4443L4.37988 13.4199C4.37988 13.4255 4.36816 13.4268 4.36816 13.4268Z" fill="black"/>
<path d="M22.0576 1.03613C22.1884 1.03613 22.2959 1.14367 22.2959 1.27441L22.1768 11.6387C22.2064 12.3696 21.6234 12.9043 20.8984 12.9756L20.5723 13.0234V13.499L20.8984 13.5459C21.6116 13.6232 22.2124 14.1528 22.1768 14.8838L22.2959 25.248C22.2958 25.3787 22.1883 25.4853 22.0576 25.4853H18.9971C18.8664 25.4853 18.7599 25.3787 18.7598 25.248V16.2383C18.7597 15.5491 18.2009 14.9846 17.5059 14.9844H10.3506C10.22 14.9844 10.1125 14.8777 10.1123 14.7471V12.1143C10.1123 11.9835 10.2198 11.876 10.3506 11.876H17.5059C18.195 11.8757 18.7598 11.3172 18.7598 10.6221V1.27441C18.7598 1.14367 18.8663 1.03614 18.9971 1.03613H22.0576Z" fill="black"/>
</g>
<defs>
<clipPath id="clip0_1_75">
<rect width="66" height="26" fill="white"/>
</clipPath>
</defs>
</svg>
