<svg xmlns="http://www.w3.org/2000/svg" width="489" height="571" fill="none" viewBox="0 0 489 571"><mask id="a" width="490" height="544" x="-.66" y="27" fill="#000" maskUnits="userSpaceOnUse"><path fill="#fff" d="M-.66 27h490v544h-490z"/><path d="M244.417 28c64.553 0 123.252 12.031 166.901 31.676.595.1 1.267.088 1.96 0 3.811-.484 7.814-.76 11.199 1.055l5.653 3.032c3.281 1.759 5.287 5.054 6.755 8.475a7.2 7.2 0 0 0 .702 1.304c31.914 19.805 50.907 44.65 50.907 71.626a58 58 0 0 1-.029 1.817h.029v422.78H.34v-422.78h.03q-.03-.906-.03-1.817c0-30.755 24.684-58.74 65.06-79.644l-.005.002c.716-.575 1.326-1.496 1.834-2.528 1.767-3.594 4.15-7.044 7.827-8.633l7.02-3.033c3.57-1.543 7.59-1.047 11.25.27.977.353 1.91.584 2.622.56C137.082 37.008 188.558 28 244.417 28"/></mask><path fill="#ffff78" d="M244.417 28c64.553 0 123.252 12.031 166.901 31.676.595.1 1.267.088 1.96 0 3.811-.484 7.814-.76 11.199 1.055l5.653 3.032c3.281 1.759 5.287 5.054 6.755 8.475a7.2 7.2 0 0 0 .702 1.304c31.914 19.805 50.907 44.65 50.907 71.626a58 58 0 0 1-.029 1.817h.029v422.78H.34v-422.78h.03q-.03-.906-.03-1.817c0-30.755 24.684-58.74 65.06-79.644l-.005.002c.716-.575 1.326-1.496 1.834-2.528 1.767-3.594 4.15-7.044 7.827-8.633l7.02-3.033c3.57-1.543 7.59-1.047 11.25.27.977.353 1.91.584 2.622.56C137.082 37.008 188.558 28 244.417 28"/><path fill="#000" d="M244.417 28v-.339zm166.901 31.676-.139.309.04.018.043.007zm1.96 0 .043.336zm11.199 1.055-.161.3zm5.653 3.032.16-.3zm6.755 8.475-.312.134zm.702 1.304-.277.196.04.056.058.036zm50.907 71.626h.339zm-.029 1.817-.339-.01-.011.349h.35zm.029 0h.339v-.339h-.339zm0 422.78v.339h.339v-.339zm-488.154 0H0v.339h.34zm0-422.78v-.339H0v.339zm.03 0v.339h.349l-.011-.349zm-.03-1.817H0zM65.4 65.524l.155.302-.29-.613zm-.005.002-.212-.264.347.576zm1.834-2.528.304.15zm7.827-8.633-.135-.311zm7.02-3.033.134.311zm11.25.27-.116.32zm2.622.56.012.339.054-.002.051-.019zM244.417 28v.339c64.515 0 123.165 12.025 166.762 31.646l.139-.31.139-.308c-43.7-19.668-102.449-31.706-167.04-31.706zm166.901 31.676-.056.334c.638.108 1.345.093 2.059.002l-.043-.336-.042-.337c-.674.086-1.31.096-1.861.003zm1.96 0 .043.336c3.815-.485 7.716-.74 10.995 1.018l.161-.299.16-.298c-3.491-1.872-7.596-1.577-11.401-1.093zm11.199 1.055-.161.3 5.654 3.03.16-.298.16-.3-5.653-3.03zm5.653 3.032-.16.298c3.176 1.704 5.144 4.909 6.603 8.31l.312-.133.311-.133c-1.475-3.44-3.521-6.826-6.906-8.641zm6.755 8.475-.312.134c.22.511.466.983.737 1.366l.277-.196.276-.196a7 7 0 0 1-.667-1.241zm.702 1.304-.179.288c31.873 19.779 50.747 44.534 50.747 71.338h.678c0-27.149-19.111-52.083-51.067-71.914zm50.907 71.626h-.339q0 .904-.029 1.807l.339.01.339.011q.029-.912.029-1.828zm-.029 1.817v.339h.029v-.678h-.029zm.029 0h-.339v422.78h.678v-422.78zm0 422.78v-.339H.34v.678h488.154zm-488.154 0h.339v-422.78H0v422.78zm0-422.78v.339h.03v-.678H.34zm.03 0 .338-.01a57 57 0 0 1-.03-1.807H0q0 .916.03 1.828zm-.03-1.817h.339c0-30.559 24.535-58.457 64.876-79.342l-.156-.302-.155-.3C24.834 86.143 0 114.217 0 145.167zM65.4 65.524l-.135-.31-.02.009-.005.002-.002.002.005-.003.018-.009.135.311.134.312.02-.01.005-.003h.002l-.005.002-.018.009zm-.005.002.213.265c.773-.622 1.41-1.595 1.925-2.643l-.305-.15-.304-.15c-.499 1.015-1.083 1.885-1.74 2.414zm1.834-2.528.304.15c1.758-3.575 4.096-6.933 7.657-8.472l-.134-.31-.135-.312c-3.79 1.638-6.22 5.182-7.997 8.794zm7.827-8.633.134.311 7.02-3.033-.135-.311-.134-.311-7.02 3.033zm7.02-3.033.134.311c3.458-1.494 7.381-1.024 11 .279l.115-.32.115-.318c-3.7-1.332-7.818-1.854-11.5-.263zm11.25.27-.116.32c.987.355 1.97.605 2.75.579l-.012-.339-.011-.339c-.646.022-1.527-.19-2.497-.54zm2.622.56.117.318c41.092-15.139 92.528-24.141 148.352-24.141v-.678c-55.893 0-107.409 9.013-148.586 24.183z" mask="url(#a)"/><ellipse cx="33.289" cy="11.566" fill="#ffdf78" rx="33.289" ry="11.566" transform="matrix(.99852 .05447 -.14335 .98967 346.758 216.873)"/><ellipse cx="31.008" cy="10.079" fill="#ffff78" rx="31.008" ry="10.079" transform="matrix(.99852 .05447 -.14335 .98967 351.82 216)"/><path stroke="#000" stroke-width=".534" d="M359.696 219.721c-8.856 1.781-14.745 5.098-14.892 9.096-.237 6.447 14.538 12.222 33 12.901 18.463.678 33.621-3.997 33.858-10.443.983 3.724 4.04 9.946 10.912 11.644"/><path stroke="#000" stroke-width=".534" d="M344.92 227.876c-.625 2.021-2.901 6.37-7.002 7.593"/><path fill="#ffed78" fill-rule="evenodd" d="M393.848 110.131c-5.427 1.062-9.109 3.107-9.423 5.674-.526 4.31 8.641 8.461 20.474 9.271 9.331.64 17.534-.99 20.843-3.82-1.612 4.492-11.901 7.395-23.901 6.573-12.704-.871-22.514-5.585-21.91-10.531.432-3.539 6.082-6.238 13.917-7.167" clip-rule="evenodd"/><path stroke="#000" stroke-width=".681" d="M403.938 109.492c-12.565-.824-23.023 2.645-23.358 7.749-.334 5.103 9.581 9.908 22.147 10.732 12.565.825 23.023-2.645 23.358-7.748.399 2.256 2.392 6.964 7.174 7.748"/><path stroke="#000" stroke-width=".681" d="M381.257 115.255c-1.902 3.21-3.88 4.571-6.917 5.749"/><path stroke="#000" stroke-width=".534" d="M124.936 101.116c1.811 3.11 7.428 9.734 15.405 11.347"/><ellipse cx="41.054" cy="16.504" fill="#ffdf78" rx="41.054" ry="16.504" transform="matrix(-.99714 .07556 .1115 .99377 124.846 89)"/><ellipse cx="38.24" cy="14.404" fill="#ffff78" rx="38.24" ry="14.404" transform="matrix(-.99714 .07556 .1115 .99377 118.729 89.233)"/><path stroke="#000" stroke-width=".534" d="M84.592 91.75c22.729-1.49 41.645 4.785 42.251 14.017s-17.33 17.923-40.059 19.414c-22.729 1.49-41.645-4.785-42.25-14.016-.213 2.566-2.178 8.586-8.341 12.137"/><path stroke="#000" stroke-width=".34" d="M434.806 69.976c-.827 1.258-5.138-.116-9.629-3.07-4.491-2.952-7.461-6.365-6.634-7.623M411.938 59.633c-.898 1.158 1.629 4.715 6.027 8.843M87.545 50c.373.858-3.136 3.212-7.839 5.258-4.702 2.045-8.817 3.008-9.19 2.15M65.55 65.045c.538 1.606 5.745 1.313 11.63-.655 2.335-.78 4.426-1.708 6.066-2.642"/><path fill="#000" fill-rule="evenodd" d="M327.67 34.442c26.453 5.503 51.53 12.072 74.896 19.538 3.297 2.656 4.93 5.187 4.398 7.318-1.625 6.498-22.78 6.806-47.252.688-24.471-6.118-42.993-16.344-41.368-22.843.613-2.454 4.013-4.026 9.326-4.701" clip-rule="evenodd"/><path fill="#dce6de" d="m358.97 39.214 2.374-2.722 10.546 2.269.668 3.272 2.37.432.909 4.108 2.573.43 1.375 6.661-33.654-6.66 4.297-5.459 2.529.5 3-3.427z"/><path fill="#000" d="m380.95 37.611 1.273-.229 2.767 15.193-1.78-.358zM351.736 31.073l-1.002-.818-9.038 15 1.842.379z"/><path fill="#ffff78" d="m350.726 8.595 5.45 3.042 4.631 4.397 4.89 4.192 8.52 2.07 6.575.835 4.353-.29 6.962-8.89 4.16-.277-.952 7.219 3.756-.25 3.519 2.694.259 3.892-1.33 1.52-5.45 3.47 6.116 6.55-4.814 1.844-10.22-4.355-3.49 1.311-10.396 1.487-1.379-.297-10.547-2.268-1.624-.35-7.366-3.167-9.719-12.233 1.278-9.466-1.097-4.539 2.66-3.039 3.958-.263z"/><path fill="#fff" d="m387.154 36.26 6.283-2.36 2.635-1.679 6.117 6.549-4.815 1.844zM389.492 22.395l-4.354.29 6.962-8.89 4.16-.277-.952 7.218z"/><path fill="#000" d="m342.813 6.737 4.116-.274 2.501-3.028-3.957.263zM402.593 23.338l-3.519-2.694.316 4.75 3.462 1.836z"/><path fill="#fa673a" d="m365.697 20.228-4.89-4.193-3.845 7.411 5.54 4.402z"/><path fill="#ffb195" fill-opacity=".91" d="M350.643 8.613 349.46 3.67l-2.506 3.009 1.218 4.19z"/><path fill="#c1f174" d="m391.296 28-8.074 2.922.443 6.649 3.49-1.312 6.283-2.36z"/><path stroke="#000" stroke-width=".394" d="m343.908 11.275 4.275-.285m-4.275.285-1.278 9.466m1.278-9.466-1.097-4.539m5.372 4.254 2.543-2.395m-2.543 2.395 3.175 7.103m-3.175-7.103-1.256-4.527m3.799 2.132 5.45 3.042m-5.45-3.042-1.297-5.161m6.747 8.203 4.631 4.397m-4.631-4.397-4.818 6.456m9.449-2.06 4.89 4.193m-4.89-4.192-3.845 7.41m8.735-3.218 8.52 2.07m-8.52-2.07-3.195 7.62m11.715-5.55 6.575.835m-6.575-.834-.085 8.274m6.66-7.44 2.426 7.79m-2.426-7.79 4.353-.29m4.354-.29 1.793 5.447m-1.793-5.446-4.354.29m4.354-.29 5.816-1.66m3.756-.25 3.519 2.695.259 3.892m-3.778-6.586.316 4.75m-.316-4.75-3.756.25m7.534 6.336-1.33 1.52-5.45 3.47m6.78-4.99-3.462-1.837m-5.953 8.506-2.142-5.9m2.142 5.9-6.283 2.36m6.283-2.36 2.635-1.678m-12.408 5.35-10.396 1.486m10.396-1.487-.443-6.649m.443 6.65 3.49-1.312m-13.886 2.798.867-8.485m-.867 8.485-1.379-.297m-12.171-2.618-7.366-3.167m7.366 3.167 2.787-8.295m-2.787 8.295 1.624.35m-8.99-3.517-9.719-12.233m9.719 12.233 4.613-9.53m-14.332-2.703 8.728-2.648m0 0 5.604 5.352m0 0 5.54 4.401m0 0 11.63 2.725m0 0 9.086.35m0 0 8.074-2.923m0 0 8.095-2.606m-52.46-18.93-4.116.274m4.116-.273 2.502-3.029m-6.618 3.302 2.66-3.039 3.958-.263m35.716 19.408 6.962-8.891 4.16-.277-.952 7.219m-8.164 15.365 10.22 4.355 4.814-1.845-6.116-6.548m-34.73 4.27-2.374 2.722m2.374-2.721 10.547 2.268m-12.921.453 13.589 2.82m-13.589-2.82-3.013-.596-3 3.428m19.602-.013-.668-3.272m.668 3.272 2.369.433.909 4.108m-22.88-4.528 22.88 4.528m-22.88-4.528-2.528-.5-4.297 5.46 33.653 6.659-1.375-6.66-2.573-.431"/><path fill="#000" stroke="#000" stroke-width=".394" d="m365.047 25.594-3.712 10.905 10.564 2.239 1.087-11.599a3.02 3.02 0 0 0-1.637-2.971 6.64 6.64 0 0 0-3.45-.707l-.079.005a3.15 3.15 0 0 0-2.773 2.128Z"/></svg>