<svg xmlns="http://www.w3.org/2000/svg" width="1919" height="1783" fill="none" viewBox="0 0 1919 1783"><path fill="#000" stroke="#000" d="M1515.78 26.5c29.43 0 57.38 12.9 76.48 35.295l187.8 220.268h49.79v58.389l87.31 102.402.51.597-.76.209-87.06 24.105v873.465l87.06 24.11.76.21-.51.6-324.91 381.06a100.5 100.5 0 0 1-76.47 35.29H459.776c-29.43 0-57.381-12.9-76.476-35.29l-275.583-323.22h-3.59v-4.21l-45.73-53.63-.508-.6.756-.21 45.482-12.59V456.252L58.646 443.66l-.756-.209.509-.597 45.728-53.632V282.063h91.367L413.246 26.676l.15-.176z"/><path fill="#fdf2d4" stroke="#000" d="M1458.78.5c29.43 0 57.38 12.9 76.48 35.295l187.8 220.268h49.79v58.389l87.31 102.402.51.597-.76.209-87.06 24.105v873.465l87.06 24.11.76.21-.51.6-324.91 381.06a100.5 100.5 0 0 1-76.47 35.29H402.776c-29.43 0-57.381-12.9-76.476-35.29L50.717 1397.99h-3.59v-4.21l-45.73-53.63-.508-.6.756-.21 45.482-12.59V430.252L1.646 417.66l-.756-.209.509-.597 45.728-53.632V256.063h91.367L356.246.676l.15-.176z"/></svg>