<svg xmlns="http://www.w3.org/2000/svg" width="1440" height="1226" fill="none" viewBox="0 0 1440 1226"><g clip-path="url(#a)"><path fill="#ffff78" fill-rule="evenodd" d="M809.477 83.692c3.182-.075 7.749-.077 13.273.21 5.443.28 9.747.716 12.71 1.084 3.008.375 5.641 2.064 7.627 4.354 1.735 2 3.977 4.332 6.004 5.662C1022.6 107.948 1174.47 146.538 1280.8 200.91c6.17.431 13.97-1.731 18.54-3.246 2.51-.832 5.21-.996 7.69-.065 4.45 1.674 12.47 5.123 22.47 11.319 10.23 6.341 17.21 12.341 20.79 15.707 1.87 1.763 2.93 4.169 3.29 6.715.74 5.095 2.34 13.888 5.08 18.571 52.01 41.063 81.42 87.765 81.42 137.301V2149.15H.078V387.212c0-75.947 69.124-145.234 182.837-197.745 2.388-3.429 4.177-7.957 5.271-11.208.894-2.658 2.482-5.066 4.826-6.606 3.588-2.357 9.438-5.935 15.488-8.525 6.534-2.797 15.482-4.892 20.717-5.977 2.774-.574 5.631-.032 8.151 1.262 3.006 1.545 7.266 3.536 10.883 4.48 126.363-45.254 291.339-72.646 471.827-72.646a1758 1758 0 0 1 75.143 1.6c2.107-1.155 4.18-2.85 5.83-4.38 2.333-2.163 5.245-3.7 8.426-3.775" clip-rule="evenodd"/><mask id="b" width="1443" height="2069" x="-1" y="82" maskUnits="userSpaceOnUse" style="mask-type:luminance"><path fill="#fff" d="M-.922 82.649H1441.08V2150.65H-.922z"/><path fill="#000" fill-rule="evenodd" d="M809.477 83.692c3.182-.075 7.749-.077 13.273.21 5.443.28 9.747.716 12.71 1.084 3.008.375 5.641 2.064 7.627 4.354 1.735 2 3.977 4.332 6.004 5.662C1022.6 107.948 1174.47 146.538 1280.8 200.91c6.17.431 13.97-1.731 18.54-3.246 2.51-.832 5.21-.996 7.69-.065 4.45 1.674 12.47 5.123 22.47 11.319 10.23 6.341 17.21 12.341 20.79 15.707 1.87 1.763 2.93 4.169 3.29 6.715.74 5.095 2.34 13.888 5.08 18.571 52.01 41.063 81.42 87.765 81.42 137.301V2149.15H.078V387.212c0-75.947 69.124-145.234 182.837-197.745 2.388-3.429 4.177-7.957 5.271-11.208.894-2.658 2.482-5.066 4.826-6.606 3.588-2.357 9.438-5.935 15.488-8.525 6.534-2.797 15.482-4.892 20.717-5.977 2.774-.574 5.631-.032 8.151 1.262 3.006 1.545 7.266 3.536 10.883 4.48 126.363-45.254 291.339-72.646 471.827-72.646a1758 1758 0 0 1 75.143 1.6c2.107-1.155 4.18-2.85 5.83-4.38 2.333-2.163 5.245-3.7 8.426-3.775" clip-rule="evenodd"/></mask><g mask="url(#b)"><path fill="#000" fill-rule="evenodd" d="m849.091 95.002-.549.836.216.142.258.02zM1280.8 200.91l-.46.891.18.093.21.014zm77.86 49.001-.86.506.1.163.14.116zm81.42 1899.239v1h1v-1zm-1440.002 0h-1v1h1zM182.915 189.467l.419.908.247-.114.155-.223zm65.336-26.574-.253.967.299.078.291-.104zm546.97-71.047-.043.999.278.012.245-.134zm14.256-8.154.023 1c3.161-.074 7.703-.077 13.198.207l.052-.998.052-1a180 180 0 0 0-13.349-.209zm13.273.209-.052.998c5.418.28 9.698.714 12.638 1.08l.124-.993.123-.992c-2.984-.371-7.312-.81-12.781-1.093zm12.71 1.085-.124.993c2.707.337 5.129 1.865 6.995 4.016l.756-.655.755-.655c-2.106-2.43-4.949-4.28-8.259-4.691zm7.627 4.354-.756.655c1.742 2.008 4.061 4.432 6.211 5.843l.549-.836.548-.836c-1.902-1.248-4.068-3.49-5.797-5.481zm6.004 5.662-.075.998c173.414 12.94 325.144 51.507 431.324 105.801l.46-.891.45-.89c-106.48-54.451-258.49-93.062-432.085-106.015zM1280.8 200.91l-.07.998c6.39.446 14.35-1.778 18.92-3.295l-.31-.949-.32-.949c-4.56 1.513-12.19 3.614-18.15 3.198zm18.54-3.246.31.949c2.36-.78 4.81-.909 7.03-.078l.35-.936.35-.936c-2.74-1.031-5.69-.833-8.36.052zm7.69-.065-.35.936c4.4 1.654 12.36 5.076 22.29 11.233l.53-.85.53-.85c-10.07-6.234-18.14-9.711-22.65-11.405zm22.47 11.319-.53.85c10.17 6.3 17.09 12.256 20.63 15.585l.69-.728.68-.728c-3.62-3.404-10.64-9.447-20.94-15.829zm20.79 15.707-.69.728c1.68 1.577 2.65 3.759 3 6.129l.98-.142.99-.143c-.39-2.72-1.53-5.352-3.6-7.3zm3.29 6.715-.98.142c.36 2.565.95 6.072 1.8 9.535.84 3.442 1.95 6.928 3.4 9.4l.86-.506.87-.506c-1.3-2.211-2.36-5.463-3.19-8.862-.82-3.378-1.4-6.816-1.77-9.346zm5.08 18.571-.62.785c51.89 40.964 81.04 87.408 81.04 136.516h2c0-49.964-29.67-96.924-81.8-138.086zm81.42 137.301h-1V2149.15h2V387.212zm0 1761.938v-1H.078v2H1440.08zm-1440.002 0h1V387.212h-2V2149.15zm0-1761.938h1c0-37.649 17.13-73.724 48.504-106.975 31.38-33.256 76.968-63.64 133.752-89.862l-.419-.908-.419-.908c-56.929 26.289-102.758 56.804-134.37 90.306C16.512 312.371-.922 348.914-.922 387.212zm182.837-197.745.821.571c2.471-3.548 4.296-8.185 5.397-11.46l-.947-.319-.948-.319c-1.086 3.227-2.839 7.646-5.144 10.955zm5.271-11.208.947.319c.841-2.501 2.314-4.7 4.428-6.089l-.549-.836-.549-.835c-2.574 1.691-4.278 4.306-5.225 7.122zm4.826-6.606.549.836c3.568-2.344 9.361-5.885 15.333-8.442l-.394-.919-.394-.919c-6.129 2.624-12.035 6.238-15.643 8.609zm15.488-8.525.394.919c6.434-2.754 15.296-4.832 20.526-5.916l-.203-.98-.203-.979c-5.24 1.086-14.274 3.197-20.908 6.037zm20.717-5.977.203.98c2.514-.521 5.139-.037 7.491 1.172l.457-.89.457-.889c-2.687-1.381-5.777-1.98-8.811-1.352zm8.151 1.262-.457.89c3.017 1.55 7.358 3.584 11.087 4.557l.253-.967.253-.968c-3.506-.915-7.684-2.862-10.679-4.401zm10.883 4.48.337.941c126.235-45.208 291.094-72.587 471.49-72.587v-2c-180.58 0-345.674 27.405-472.164 72.704zm471.827-72.646v1c25.361 0 50.416.542 75.1 1.598l.043-.999.042-.999a1760 1760 0 0 0-75.185-1.6zm75.143 1.599.48.877c2.212-1.21 4.354-2.97 6.03-4.523l-.68-.734-.68-.732c-1.624 1.506-3.627 3.138-5.63 4.235zm5.83-4.38.68.734c2.212-2.052 4.902-3.441 7.769-3.508l-.023-1-.024-1c-3.494.082-6.629 1.767-9.082 4.042z" clip-rule="evenodd"/></g><path fill="#ffed78" d="M822.497 88.61c9.932.603 18.05-.019 18.133-1.388.083-1.37-7.9-2.968-17.832-3.57-9.931-.603-18.049.019-18.132 1.388-.083 1.37 7.9 2.968 17.831 3.57"/><path stroke="#000" d="M840.084 87.275c-.097 1.48-8.025 2.164-17.706 1.527-9.682-.638-17.451-2.355-17.354-3.835m-9.628 6.76c-.076 1.147 2.891 2.385 7.752 3.46m549.812 132.285c-1.32 2.137-13.72-3.131-27.7-11.767-13.97-8.636-24.23-17.369-22.91-19.506m-20.72 4.653c-1.3 1.925 3.83 7.88 12.74 15.404"/><path fill="#ffef78" d="M1314.79 201.133c-4.39-2.464-7.52-3.576-9.54-3.993-1.3-.269-1.85.965-.98 1.968 9.98 11.511 33.91 23.595 45.23 28.429-23.04-10.101-31.84-20.552-33.73-25.23-.2-.486-.52-.918-.98-1.174"/><path stroke="#000" d="M325.379 398.588c3.391 5.823 13.908 18.225 28.844 21.245m262.444-188.279c1.321 1.84 5.428 6.817 10.919 9.739m-103.914-1.487c-1.163 2.039-3.044 5.864-7.324 7.247"/><path fill="#000" fill-rule="evenodd" d="M959.056 107.041c48.394 7.019 94.424 16.111 137.454 27.017 6.26 4.436 9.49 8.831 8.77 12.741-2.22 11.919-40.41 14.814-85.29 6.465-44.89-8.349-79.481-24.78-77.264-36.7.837-4.502 6.807-7.716 16.33-9.523" clip-rule="evenodd"/><path fill="#ffed78" d="M1084.78 340.928c-7.16 2.682-11.64 6.193-12.23 10.216-1.49 10.316 23.26 20.096 55.28 21.842 28.66 1.564 53.43-3.838 59.39-12.384.04.572.03 1.147-.05 1.724-1.72 11.838-30.98 19.914-65.36 18.039s-60.85-12.992-59.14-24.831c.9-6.195 9.34-11.359 22.11-14.606"/><path stroke="#000" d="M1090.01 339.433c-16.59 3.335-27.62 9.547-27.89 17.035-.45 12.071 27.22 22.887 61.8 24.157 34.57 1.271 62.96-7.485 63.4-19.556 1.84 6.974 7.57 18.626 20.44 21.806"/><path stroke="#000" d="M1062.34 354.704c-1.17 3.786-5.44 11.929-13.12 14.219"/><path fill="#ffed78" fill-rule="evenodd" d="M328.658 406.608c-1.751-15.603-32.241-26.285-70.071-25.398 31.96.349 56.749 9.21 58.175 21.927 1.661 14.802-28.957 29.223-68.386 32.211-35.56 2.694-66.142-4.832-73.021-17.192l.007.068c1.903 16.959 37.762 28.107 80.093 24.899s75.105-19.556 73.203-36.515" clip-rule="evenodd"/><path stroke="#000" d="M249.843 381.051c42.557-2.79 77.975 8.959 79.108 26.243 1.134 17.285-32.446 33.559-75.003 36.35-42.557 2.79-77.975-8.959-79.109-26.243-.396 4.805-4.075 16.077-15.616 22.725"/><path fill="#ffed78" d="M1206.16 210.909c-7.98 1.558-13.39 4.56-13.85 8.332-.78 6.325 12.68 12.419 30.05 13.609 13.69.938 25.74-1.455 30.59-5.611-2.36 6.595-17.47 10.856-35.08 9.65-18.65-1.278-33.05-8.198-32.16-15.458.63-5.198 8.93-9.16 20.45-10.522"/><path stroke="#000" d="M1220.95 209.974c-18.45-1.21-33.8 3.882-34.29 11.373s14.06 14.545 32.51 15.754c18.44 1.21 33.79-3.882 34.28-11.373.59 3.311 3.51 10.222 10.53 11.373"/><path stroke="#000" d="M1187.65 218.433c-2.79 4.712-5.69 6.709-10.15 8.439m-320.618-91.637c-.125 1.914-6.255 3.07-13.69 2.582-7.435-.487-13.361-2.434-13.235-4.348.125-1.914 6.255-3.07 13.69-2.583"/><path fill="#ffed78" fill-rule="evenodd" d="M608.389 227.39c3.191 1.284 5.179 2.873 5.588 4.707 1.418 6.358-16.669 13.234-40.399 15.358-23.729 2.125-44.115-1.307-45.534-7.664-.837-3.754 5.125-7.689 15.034-10.719-12.568 3.59-20.319 8.624-19.238 13.471 1.68 7.529 24.037 11.752 49.937 9.434 25.901-2.319 45.536-10.302 43.857-17.831-.612-2.744-3.971-5.047-9.245-6.756m221.817-94.106c.493-1.746 6.777-2.722 14.038-2.18 1.399.105 2.732.258 3.969.45a50 50 0 0 0-2.287-.223c-6.519-.487-12.14.311-12.556 1.781-.414 1.471 4.535 3.058 11.054 3.545 5.42.405 10.218-.08 11.921-1.1-1.107 1.55-7.064 2.381-13.884 1.872-7.26-.542-12.747-2.398-12.255-4.145" clip-rule="evenodd"/><path stroke="#000" d="M543.287 228.678c-12.447 3.567-20.423 8.535-20.018 13.383.645 7.723 22.321 12.216 48.413 10.036 26.093-2.181 46.722-10.21 46.077-17.933-.319-3.816-5.772-6.843-14.354-8.667"/><path fill="#dce6de" d="m1013.15 99.635 6.03-6.915 26.8 5.764 1.69 8.313 6.02 1.099 2.31 10.439 6.54 1.093 3.5 16.923-85.513-16.921 10.918-13.87 6.424 1.271 7.621-8.71z"/><path fill="#000" d="m1069 95.564 3.23-.583 7.03 38.603-4.52-.911zm-74.234-16.613-2.546-2.079-22.964 38.114 4.679.961z"/><path fill="#ffff78" d="m992.204 21.838 13.846 7.73 11.76 11.17 12.43 10.653 21.65 5.26 16.7 2.121 11.07-.736 17.68-22.589 10.57-.703-2.41 18.341 9.54-.635 8.94 6.845.66 9.89-3.38 3.86-13.85 8.82 15.54 16.64-12.23 4.685-25.97-11.065-8.87 3.331-26.41 3.778-3.51-.754-26.79-5.764-4.13-.887-18.714-8.047L971.633 52.7l3.248-24.053-2.788-11.53 6.759-7.723 10.056-.669z"/><path fill="#fff" d="m1084.76 92.128 15.96-5.997 6.7-4.263 15.54 16.64-12.23 4.685zm5.94-35.226-11.06.736 17.68-22.59 10.57-.703-2.42 18.342z"/><path fill="#000" d="m972.098 17.118 10.458-.696 6.356-7.695-10.055.67zm151.882 42.18-8.93-6.845.8 12.067 8.79 4.667z"/><path fill="#fa673a" d="m1030.24 51.395-12.42-10.653-9.77 18.83 14.07 11.185z"/><path fill="#ffb195" fill-opacity=".91" d="m991.99 21.884-3.006-12.56-6.367 7.645 3.094 10.65z"/><path fill="#c1f174" d="m1095.28 71.141-20.51 7.425 1.12 16.894 8.87-3.33 15.96-5.998z"/><path stroke="#000" d="m974.881 28.647 10.86-.723m-10.86.723L971.633 52.7m3.248-24.053-2.788-11.53m13.648 10.807 6.463-6.086m-6.463 6.086 8.069 18.048m-8.069-18.048-3.19-11.504M971.633 52.7l24.693 31.082M971.633 52.7l22.177-6.728m-21.717-28.856 10.458-.696m-10.458.696 6.759-7.722 10.056-.669m3.296 13.113 13.846 7.73m-13.846-7.73-3.296-13.113m4.902 37.247 12.24-16.404m-12.24 16.404 14.24 13.597M982.551 16.42l6.357-7.695m17.142 20.843 11.76 11.17m0 0 12.43 10.653m-12.43-10.653-9.76 18.831m22.19-8.178 21.65 5.26m-21.65-5.26-8.12 19.362m-14.07-11.184-11.724 24.213m11.724-24.213 14.07 11.184m29.77-14.102 16.7 2.121m-16.7-2.12-.22 21.023m-29.55-6.922-7.08 21.076m7.08-21.076 29.55 6.922m16.92-18.903 6.17 19.79m-6.17-19.79 11.07-.736m-27.99 19.64-2.2 21.558m2.2-21.559 23.09.888m4.9-20.527 11.06-.736m-11.06.736 17.68-22.589 10.57-.703-2.41 18.341m-14.78 4.215 4.55 13.838m-4.55-13.838 14.78-4.215m-10.23 18.053 5.45 14.99m-5.45-14.99-20.51 7.425m20.51-7.425 20.57-6.62m-10.34-11.433 9.54-.635m0 0 8.94 6.845.66 9.89m-9.6-16.735.8 12.067m8.8 4.667-3.38 3.86-13.85 8.82m17.23-12.68-8.8-4.667m-8.43 17.347-6.69 4.264m6.69-4.264 15.54 16.64-12.23 4.686-25.97-11.065m15.97-5.997-15.97 5.997m0 0-8.87 3.331m0 0-26.41 3.778m26.41-3.778-1.12-16.893m-25.29 20.671-3.51-.754m0 0-26.79-5.764m26.79 5.764 1.7 8.314m-32.62-14.965-18.714-8.047m18.714 8.047 4.13.887m0 0-6.03 6.915m0 0 34.52 7.163m-34.52-7.163-7.66-1.514-7.621 8.71m49.801-.033 6.02 1.098 2.31 10.439m-58.131-11.504 58.131 11.504m-58.131-11.504-6.424-1.271-10.918 13.871 85.503 16.921-3.49-16.924-6.54-1.093"/><path fill="#000" stroke="#000" d="m1028.59 65.03-9.43 27.708 26.84 5.688 2.76-29.47c.15-1.53-.17-3.07-.92-4.417a7.64 7.64 0 0 0-3.24-3.133 16.8 16.8 0 0 0-8.76-1.796l-.2.014a7.97 7.97 0 0 0-4.34 1.634 8 8 0 0 0-2.71 3.772Z"/><path stroke="#000" d="M232.154 156.922c.708 1.769-8.095 6.958-19.663 11.59-11.569 4.633-21.521 6.954-22.229 5.185m-6.5 14.737c.587 1.663 6.533 1.217 15.139-.826"/><path fill="#ffef78" d="M198.699 168.413c-2.938 1.336-4.862 2.554-6.067 3.525-1.034.833-.413 1.974.909 1.84 11.543-1.175 29.192-10.08 37.096-14.719-16.27 9.34-26.543 10.134-30.407 9.252-.512-.117-1.053-.115-1.531.102"/><path stroke="#000" d="M326.082 249.257c.309 3.661-7.94 7.347-18.425 8.234s-19.236-1.363-19.545-5.024c-.192-2.27 2.909-4.551 7.794-6.167"/></g><defs><clipPath id="a"><path fill="#fff" d="M0 0h1440v1226H0z"/></clipPath></defs></svg>