<svg xmlns="http://www.w3.org/2000/svg" width="83" height="83" fill="none" viewBox="0 0 83 83"><path fill="#ffff78" d="M41.5 82C63.868 82 82 63.868 82 41.5S63.868 1 41.5 1 1 19.133 1 41.5 19.133 82 41.5 82"/><path fill="#39bf97" d="M41.5 82C63.868 82 82 63.868 82 41.5S63.868 1 41.5 1 1 19.133 1 41.5 19.133 82 41.5 82"/><path stroke="#000" stroke-width="2" d="M41.5 82C63.868 82 82 63.868 82 41.5S63.868 1 41.5 1 1 19.133 1 41.5 19.133 82 41.5 82Z"/><path fill="#000" stroke="#000" d="M76.406 46.19c.685 15.486-15.773 26.814-24.095 30.546-2.292 0-6.538-.433-5.158-2.153 1.72-2.152 1.72-2.579 0-10.322-1.38-6.193 6.883-4.878 11.182-3.445 1.72.86 5.766 2.065 8.176 0 3.012-2.579 3.012-5.164 2.58-6.883-.428-1.72.859-6.451 7.315-7.743Z"/><path fill="#fff" stroke="#000" d="M12.583 54.963c.497-.28 1.158-.234 1.872.146.701.38 1.41 1.07 1.935 2 .527.93.755 1.895.714 2.69-.035.802-.345 1.399-.836 1.673-.498.281-1.158.234-1.866-.146s-1.415-1.076-1.942-2c-.526-.93-.754-1.895-.713-2.69.04-.801.345-1.398.836-1.673Z"/></svg>