<svg xmlns="http://www.w3.org/2000/svg" width="118" height="118" fill="none" viewBox="0 0 118 118"><path fill="#ffff78" stroke="#000" stroke-miterlimit="10" stroke-width="2" d="M58.63 116.26c31.828 0 57.63-25.802 57.63-57.63S90.458 1 58.63 1 1 26.802 1 58.63s25.802 57.63 57.63 57.63Z"/><path fill="#f9f871" stroke="#000" stroke-miterlimit="10" stroke-width="2" d="M89.818 31.79c1.874-2.549.293-6.897-3.534-9.71s-8.448-3.029-10.323-.48-.293 6.898 3.534 9.712 8.448 3.028 10.323.479ZM98.998 42.809c1.573-.942 1.702-3.62.289-5.978-1.414-2.36-3.835-3.508-5.408-2.566s-1.702 3.62-.288 5.978c1.414 2.36 3.835 3.508 5.407 2.566ZM33.182 85.923c1.573-.942 1.702-3.619.288-5.978-1.413-2.36-3.834-3.508-5.407-2.565-1.573.942-1.702 3.619-.288 5.978s3.834 3.508 5.407 2.565Z"/><mask id="a" width="107" height="107" x="5" y="5" maskUnits="userSpaceOnUse" style="mask-type:luminance"><path fill="#fff" d="M58.629 111.88c29.41 0 53.25-23.841 53.25-53.25 0-29.41-23.84-53.25-53.25-53.25S5.379 29.22 5.379 58.63c0 29.409 23.84 53.25 53.25 53.25"/></mask><g mask="url(#a)"><path fill="#000" fill-rule="evenodd" stroke="#000" stroke-miterlimit="10" stroke-width="1.68" d="M39.838 95.83s5.44-7.81 11.44-5.02 6.7 11.86 14.51 9.63 23.86-16.88 25.95-9.21 15.35-18.7 14.93-12.14l-2.03 9.39-9.41 9.45-11.25 7.25-12.56 5.44c-1.98.53-6.46 2.09-8.46 1.62l-12.63.76-19.32-6.44 8.84-10.73z" clip-rule="evenodd"/></g></svg>