<svg width="84" height="33" viewBox="0 0 84 33" fill="none" xmlns="http://www.w3.org/2000/svg">
<g clip-path="url(#clip0_298_6475)">
<path d="M54.3652 27.9903L52.861 27.9903L52.861 10.9963C52.861 10.7672 52.6758 10.5825 52.4461 10.5825L49.0746 10.5825C48.8449 10.5825 48.6596 10.7672 48.6596 10.9963L48.6596 20.0549C48.6596 22.7665 47.9557 25.0349 46.622 26.616C45.3401 28.1381 43.5469 28.9509 41.4425 28.9509C39.6567 28.9509 38.4045 28.5223 37.5968 27.6357C36.7595 26.7121 36.352 25.2417 36.352 23.136L36.352 10.9963C36.352 10.7672 36.1667 10.5825 35.937 10.5825L32.4618 10.5825C32.2321 10.5825 32.0469 10.7672 32.0469 10.9963L32.0469 23.9413C32.0469 26.8155 32.8175 29.01 34.3291 30.4582C35.737 31.8103 37.7747 32.4901 40.3755 32.4901C42.6355 32.4901 44.5176 31.862 45.9699 30.6281C47.2814 29.5124 48.1854 27.9608 48.6522 26.0102H49.2302L48.6596 28.2785L48.6596 31.6034C48.6596 31.9138 48.9116 32.165 49.2154 32.165L54.3504 32.165C54.5801 32.165 54.7653 31.9802 54.7653 31.7512L54.7653 28.3893C54.7653 28.1603 54.5801 27.9756 54.3504 27.9756L54.3652 27.9903Z" fill="white"></path>
<path d="M81.3742 27.9934L79.7662 27.9934L79.7662 0.913768C79.7662 0.684718 79.581 0.5 79.3513 0.5L75.9798 0.5C75.7501 0.5 75.5649 0.684718 75.5649 0.913768L75.5649 13.6889L76.1354 16.0015H75.55C75.0758 14.3169 74.1125 12.8909 72.7714 11.8934C71.2227 10.7482 69.2369 10.1644 66.8584 10.1644C63.8055 10.1644 61.2195 11.2727 59.3596 13.3638C57.5887 15.3587 56.6106 18.196 56.6106 21.3362C56.6106 24.4764 57.5887 27.3358 59.3596 29.3603C61.2195 31.4883 63.8129 32.6114 66.8584 32.6114C69.1776 32.6114 71.1412 32.0129 72.6973 30.8233C74.031 29.8037 75.0165 28.3702 75.55 26.6634H76.1354L75.5649 28.9392L75.5649 31.6287C75.5649 31.939 75.8168 32.1902 76.128 32.1902L78.5436 32.1902L81.3667 32.1902C81.5964 32.1902 81.7817 32.0055 81.7817 31.7764L81.7817 28.4146C81.7817 28.1855 81.5964 28.0008 81.3667 28.0008L81.3742 27.9934ZM75.676 21.3288C75.676 23.8188 74.935 25.7472 73.4679 27.055C72.1638 28.2225 70.3187 28.8431 68.1402 28.8431C65.9618 28.8431 64.2056 28.2299 62.983 27.0624C61.6196 25.7694 60.9305 23.841 60.9305 21.3288C60.9305 18.8166 61.6196 16.8882 62.983 15.5951C64.2131 14.4277 65.9988 13.8145 68.1402 13.8145C70.2817 13.8145 72.1564 14.4277 73.4679 15.5951C74.935 16.903 75.676 18.8314 75.676 21.3288Z" fill="white"></path>
<path d="M25.6486 17.2901L25.6486 16.6916L26.0561 16.6325C26.9601 16.5438 27.6862 15.8789 27.6492 14.97L27.7974 2.08412C27.7974 1.92157 27.664 1.78857 27.501 1.78857L23.685 1.78857C23.5219 1.78857 23.3886 1.92157 23.3886 2.08412L23.3886 13.7066C23.3886 14.5711 22.6846 15.2656 21.8251 15.2656L12.9037 15.2656C12.7407 15.2656 12.6073 15.3986 12.6073 15.5611L12.6073 18.8343C12.6073 18.9969 12.7407 19.1299 12.9037 19.1299L21.8251 19.1299C22.692 19.1299 23.3886 19.8318 23.3886 20.6889L23.3886 31.8902C23.3886 32.0528 23.5219 32.1858 23.685 32.1858L27.501 32.1858C27.664 32.1858 27.7974 32.0528 27.7974 31.8902L27.6492 19.0043C27.6937 18.0955 26.9453 17.4379 26.0561 17.3418L25.6486 17.2827V17.2901Z" fill="white"></path>
<path d="M13.0131 1.77832L7.76694 1.77832C6.47763 1.77832 5.42544 2.82013 5.42544 4.11315L5.42544 8.6646C5.42544 10.8147 4.61036 12.9131 3.18768 14.4426C2.74309 14.9746 1.9947 15.2923 1.17962 15.2923L0.416414 15.2923C0.18671 15.2923 0.00146484 15.477 0.00146484 15.706L0.00146484 18.4694C0.00146484 18.6985 0.18671 18.8832 0.416414 18.8832L1.17221 18.8832C1.98729 18.8832 2.73568 19.2009 3.18768 19.7477C4.62518 21.2845 5.41803 23.3312 5.41803 25.5109L5.41803 29.8554C5.41803 31.1411 6.46281 32.1903 7.75953 32.1903L13.0057 32.1903C13.1687 32.1903 13.3021 32.0573 13.3021 31.8947L13.3021 28.8949C13.3021 28.7324 13.1687 28.5994 13.0057 28.5994L9.64162 28.5994C9.30077 28.5994 9.0192 28.3186 9.0192 27.9787L9.0192 25.5109C9.0192 22.5628 7.92254 19.696 6.03304 17.5828C6.00341 17.5532 5.96636 17.5311 5.9219 17.5311L5.47731 17.4941L5.47731 16.7479L5.85521 16.7183C5.89967 16.7183 5.93672 16.6961 5.96636 16.6666C7.92254 14.4278 9.0192 11.5979 9.0192 8.6646L9.0192 5.98989C9.0192 5.65001 9.30077 5.36924 9.64162 5.36924L13.0057 5.36924C13.1687 5.36924 13.3021 5.23624 13.3021 5.07369L13.3021 2.07387C13.3021 1.91132 13.1687 1.77832 13.0057 1.77832H13.0131ZM5.44767 17.2133V17.1912C5.44767 17.1912 5.46249 17.1912 5.46249 17.1838L5.44767 17.2133Z" fill="white"></path>
</g>
<defs>
<clipPath id="clip0_298_6475">
<rect width="84" height="32.1818" fill="white" transform="translate(0 0.5)"></rect>
</clipPath>
</defs>
</svg>