<svg width="30" height="29" viewBox="0 0 30 29" fill="none" xmlns="http://www.w3.org/2000/svg">
<path d="M1 10H29" stroke="#111013" stroke-width="2" stroke-linecap="round" stroke-linejoin="round"/>
<path d="M6.5 25H4C2.34315 25 1 23.6569 1 22V4C1 2.34315 2.34315 1 4 1H26C27.6569 1 29 2.34315 29 4V22C29 23.6569 27.6569 25 26 25H23.5" stroke="#111013" stroke-width="2" stroke-linecap="round" stroke-linejoin="round"/>
<path d="M5.5 6C5.77614 6 6 5.77614 6 5.5C6 5.22386 5.77614 5 5.5 5C5.22386 5 5 5.22386 5 5.5C5 5.77614 5.22386 6 5.5 6Z" fill="#111013" stroke="#111013" stroke-width="2" stroke-linecap="round" stroke-linejoin="round"/>
<path d="M10.5 6C10.7761 6 11 5.77614 11 5.5C11 5.22386 10.7761 5 10.5 5C10.2239 5 10 5.22386 10 5.5C10 5.77614 10.2239 6 10.5 6Z" fill="#111013" stroke="#111013" stroke-width="2" stroke-linecap="round" stroke-linejoin="round"/>
<path d="M10.5 14.5L19.3301 19.7942L16.732 21.2943L19.2321 25.6243L15.7681 27.6243L13.268 23.2942L10.6699 24.7942L10.5 14.5Z" stroke="#111013" stroke-width="2" stroke-linecap="round" stroke-linejoin="round"/>
</svg>
