<svg width="162" height="32" viewBox="0 0 162 32" fill="none" xmlns="http://www.w3.org/2000/svg">
<g clip-path="url(#clip0_2_12620)">
<path fill-rule="evenodd" clip-rule="evenodd" d="M20.4446 9.34824C19.129 8.4692 17.5822 8 16 8V0C19.1645 0 22.2579 0.938384 24.8891 2.69649C27.5203 4.45458 29.571 6.95345 30.7821 9.87704C31.993 12.8006 32.3099 16.0178 31.6926 19.1214C31.0752 22.2251 29.5514 25.0761 27.3137 27.3137C25.0761 29.5514 22.2251 31.0752 19.1214 31.6926C16.0178 32.3099 12.8006 31.993 9.87704 30.7821C6.95344 29.571 4.45458 27.5203 2.69649 24.8891C0.938384 22.2579 0 19.1645 0 16H8C8 17.5822 8.4692 19.129 9.34824 20.4446C10.2273 21.7602 11.4767 22.7855 12.9386 23.391C14.4003 23.9966 16.0089 24.155 17.5607 23.8462C19.1126 23.5376 20.538 22.7757 21.6569 21.6569C22.7757 20.538 23.5376 19.1126 23.8462 17.5607C24.155 16.0089 23.9966 14.4003 23.391 12.9386C22.7855 11.4767 21.7602 10.2273 20.4446 9.34824Z" fill="black"/>
<path fill-rule="evenodd" clip-rule="evenodd" d="M8 4.22794e-06C8 1.05058 7.79308 2.09087 7.39104 3.06148C6.989 4.03207 6.39972 4.91399 5.65685 5.65686C4.91399 6.39973 4.03208 6.989 3.06147 7.39104C2.09086 7.79308 1.05057 8 3.49688e-07 8L0 16C2.10115 16 4.18172 15.5862 6.12294 14.7821C8.06416 13.978 9.828 12.7994 11.3137 11.3137C12.7994 9.828 13.978 8.06416 14.7821 6.12294C15.5862 4.18172 16 2.10115 16 0L8 4.22794e-06Z" fill="black"/>
<path d="M100.495 11.562H96.6133V23.8919H100.495V11.562Z" fill="black"/>
<path d="M97.0459 9.25338C97.4515 9.6593 97.9587 9.86226 98.5675 9.86226C99.1763 9.86226 99.6755 9.6593 100.064 9.25338C100.454 8.83058 100.648 8.32314 100.648 7.73118C100.648 7.12231 100.454 6.61489 100.064 6.20899C99.6755 5.80305 99.1763 5.6001 98.5675 5.6001C97.9587 5.6001 97.4515 5.80305 97.0459 6.20899C96.6563 6.61489 96.4619 7.12231 96.4619 7.73118C96.4619 8.32314 96.6563 8.83058 97.0459 9.25338Z" fill="black"/>
<path d="M40.9248 23.8918V5.98047H44.9079V20.3907H52.8488V23.8918H40.9248Z" fill="black"/>
<path fill-rule="evenodd" clip-rule="evenodd" d="M60.0218 24.1707C58.7534 24.1707 57.6033 23.8917 56.5715 23.3335C55.5567 22.7585 54.7534 21.9805 54.1614 20.9994C53.5694 20.0185 53.2734 18.9191 53.2734 17.7014C53.2734 16.4836 53.5694 15.3927 54.1614 14.4286C54.7534 13.4646 55.5567 12.7034 56.5715 12.1454C57.5863 11.5702 58.7365 11.2827 60.0218 11.2827C61.3073 11.2827 62.4574 11.5618 63.4722 12.1199C64.487 12.6781 65.2904 13.4477 65.8823 14.4286C66.4743 15.3927 66.7703 16.4836 66.7703 17.7014C66.7703 18.9191 66.4743 20.0185 65.8823 20.9994C65.2904 21.9805 64.487 22.7585 63.4722 23.3335C62.4574 23.8917 61.3073 24.1707 60.0218 24.1707ZM60.0218 20.6443C60.58 20.6443 61.0705 20.5259 61.4934 20.2891C61.9162 20.0354 62.2375 19.6887 62.4574 19.249C62.6942 18.7923 62.8126 18.2764 62.8126 17.7014C62.8126 17.1263 62.6942 16.6274 62.4574 16.2046C62.2206 15.7648 61.8908 15.4266 61.4679 15.1898C61.062 14.936 60.58 14.8092 60.0218 14.8092C59.4806 14.8092 58.9986 14.936 58.5758 15.1898C58.153 15.4266 57.8231 15.7648 57.5863 16.2046C57.3495 16.6443 57.2312 17.1517 57.2312 17.7267C57.2312 18.2849 57.3495 18.7923 57.5863 19.249C57.8231 19.6887 58.153 20.0354 58.5758 20.2891C58.9986 20.5259 59.4806 20.6443 60.0218 20.6443Z" fill="black"/>
<path fill-rule="evenodd" clip-rule="evenodd" d="M69.8447 28.712C70.8764 29.1855 72.0687 29.4223 73.4219 29.4223C74.7411 29.4223 75.9166 29.1602 76.9483 28.6359C77.98 28.1115 78.7918 27.3843 79.3838 26.4541C79.9757 25.5239 80.2721 24.4245 80.2721 23.1559V11.5619H76.4662V12.3903C76.1832 12.152 75.8617 11.952 75.5022 11.7902C74.8425 11.4688 74.0899 11.3081 73.2443 11.3081C72.1111 11.3081 71.1047 11.5787 70.2252 12.1199C69.3456 12.6443 68.6523 13.3715 68.1448 14.3018C67.6374 15.2151 67.3838 16.2468 67.3838 17.397C67.3838 18.5302 67.6374 19.5619 68.1448 20.4921C68.6523 21.4223 69.3456 22.1581 70.2252 22.6993C71.1047 23.2405 72.1111 23.5111 73.2443 23.5111C74.073 23.5111 74.8256 23.3505 75.5022 23.0291C75.8299 22.8735 76.1259 22.69 76.3901 22.4787V23.2575C76.3901 24.12 76.1111 24.7881 75.5529 25.2617C75.0117 25.7353 74.2591 25.972 73.295 25.972C72.517 25.972 71.8489 25.8367 71.2907 25.5661C70.7495 25.2955 70.259 24.898 69.8192 24.3737L67.4345 26.7585C68.0264 27.6042 68.8299 28.2554 69.8447 28.712ZM75.3753 19.7056C74.9863 19.9424 74.5212 20.0608 73.9799 20.0608C73.4387 20.0608 72.9651 19.9424 72.5592 19.7056C72.1702 19.4688 71.8658 19.1475 71.6459 18.7415C71.426 18.3187 71.3161 17.8705 71.3161 17.397C71.3161 16.8895 71.426 16.4329 71.6459 16.027C71.8658 15.6211 72.1787 15.2997 72.5846 15.0629C72.9905 14.8261 73.4556 14.7077 73.9799 14.7077C74.5212 14.7077 74.9863 14.8261 75.3753 15.0629C75.7812 15.2997 76.0856 15.6211 76.2887 16.027C76.5085 16.4329 76.6184 16.8895 76.6184 17.397C76.6184 17.9043 76.5085 18.361 76.2887 18.7669C76.0856 19.1559 75.7812 19.4688 75.3753 19.7056Z" fill="black"/>
<path fill-rule="evenodd" clip-rule="evenodd" d="M88.4412 24.1707C87.1724 24.1707 86.022 23.8917 84.9908 23.3335C83.9756 22.7585 83.1724 21.9805 82.5804 20.9994C81.9884 20.0185 81.6924 18.9191 81.6924 17.7014C81.6924 16.4836 81.9884 15.3927 82.5804 14.4286C83.1724 13.4646 83.9756 12.7034 84.9908 12.1454C86.0052 11.5702 87.1556 11.2827 88.4412 11.2827C89.726 11.2827 90.8764 11.5618 91.8908 12.1199C92.906 12.6781 93.7092 13.4477 94.3012 14.4286C94.8932 15.3927 95.1892 16.4836 95.1892 17.7014C95.1892 18.9191 94.8932 20.0185 94.3012 20.9994C93.7092 21.9805 92.906 22.7585 91.8908 23.3335C90.8764 23.8917 89.726 24.1707 88.4412 24.1707ZM88.4412 20.6443C88.9988 20.6443 89.4892 20.5259 89.9124 20.2891C90.3348 20.0354 90.6564 19.6887 90.8764 19.249C91.1132 18.7923 91.2316 18.2764 91.2316 17.7014C91.2316 17.1263 91.1132 16.6274 90.8764 16.2046C90.6396 15.7648 90.31 15.4266 89.8868 15.1898C89.4812 14.936 88.9988 14.8092 88.4412 14.8092C87.8996 14.8092 87.4172 14.936 86.9948 15.1898C86.5716 15.4266 86.242 15.7648 86.0052 16.2046C85.7684 16.6443 85.65 17.1517 85.65 17.7267C85.65 18.2849 85.7684 18.7923 86.0052 19.249C86.242 19.6887 86.5716 20.0354 86.9948 20.2891C87.4172 20.5259 87.8996 20.6443 88.4412 20.6443Z" fill="black"/>
<path fill-rule="evenodd" clip-rule="evenodd" d="M109.825 24.1454C108.997 24.1454 108.235 23.9847 107.542 23.6634C107.177 23.4943 106.847 23.2923 106.553 23.0576V29.0926H102.722V11.5619H106.603V12.4128C106.885 12.1825 107.198 11.9834 107.542 11.8155C108.235 11.4772 108.997 11.3081 109.825 11.3081C110.992 11.3081 112.024 11.5872 112.92 12.1454C113.834 12.7035 114.544 13.4646 115.051 14.4287C115.576 15.3927 115.838 16.4921 115.838 17.7267C115.838 18.9615 115.576 20.0608 115.051 21.0249C114.544 21.989 113.834 22.75 112.92 23.3082C112.024 23.8663 110.992 24.1454 109.825 24.1454ZM109.115 20.6443C109.673 20.6443 110.155 20.5175 110.561 20.2638C110.984 20.0101 111.314 19.6633 111.55 19.2236C111.787 18.7839 111.906 18.2849 111.906 17.7267C111.906 17.1517 111.787 16.6443 111.55 16.2046C111.314 15.7648 110.984 15.4266 110.561 15.1898C110.155 14.936 109.682 14.8092 109.14 14.8092C108.599 14.8092 108.117 14.936 107.694 15.1898C107.288 15.4266 106.967 15.7648 106.73 16.2046C106.494 16.6443 106.375 17.1517 106.375 17.7267C106.375 18.2849 106.485 18.7839 106.705 19.2236C106.942 19.6633 107.271 20.0101 107.694 20.2638C108.117 20.5175 108.59 20.6443 109.115 20.6443Z" fill="black"/>
<path d="M119.637 23.9174C120.348 24.1035 121.066 24.1965 121.793 24.1965C123.332 24.1965 124.55 23.8414 125.447 23.131C126.36 22.4206 126.816 21.465 126.816 20.2642C126.816 19.4862 126.673 18.8603 126.385 18.3868C126.098 17.8963 125.726 17.5073 125.269 17.2198C124.812 16.9322 124.33 16.7038 123.823 16.5347C123.316 16.3656 122.833 16.2218 122.377 16.1034C121.92 15.985 121.548 15.8498 121.26 15.6975C120.973 15.5453 120.829 15.3423 120.829 15.0886C120.829 14.8518 120.94 14.6742 121.159 14.5558C121.379 14.4206 121.708 14.353 122.148 14.353C122.605 14.353 123.07 14.4459 123.544 14.632C124.034 14.818 124.474 15.1394 124.863 15.5961L127.07 13.3635C126.512 12.6531 125.785 12.1203 124.888 11.7652C124.009 11.3931 123.045 11.207 121.996 11.207C120.999 11.207 120.128 11.3762 119.384 11.7144C118.639 12.0527 118.064 12.5178 117.658 13.1098C117.252 13.6848 117.049 14.3698 117.049 15.1648C117.049 15.909 117.193 16.5263 117.48 17.0168C117.768 17.4903 118.14 17.8625 118.596 18.133C119.053 18.4037 119.536 18.6151 120.043 18.7673C120.55 18.9195 121.032 19.0633 121.489 19.1986C121.945 19.317 122.318 19.4608 122.605 19.6299C122.91 19.7822 123.062 20.0105 123.062 20.3149C123.062 20.5517 122.935 20.7377 122.681 20.873C122.444 21.0083 122.098 21.076 121.641 21.076C120.981 21.076 120.372 20.9576 119.815 20.7208C119.256 20.4671 118.774 20.1204 118.368 19.6806L116.161 21.9132C116.584 22.3698 117.092 22.7758 117.684 23.131C118.292 23.4692 118.944 23.7314 119.637 23.9174Z" fill="black"/>
<path d="M133.894 24.1709C132.762 24.1709 131.755 23.9426 130.876 23.4859C130.013 23.0123 129.337 22.3696 128.846 21.5578C128.355 20.7291 128.11 19.7819 128.11 18.7163V11.562H131.992V18.6656C131.992 19.0884 132.059 19.4521 132.195 19.7565C132.347 20.061 132.567 20.2978 132.854 20.4669C133.142 20.636 133.489 20.7206 133.894 20.7206C134.47 20.7206 134.926 20.543 135.265 20.1878C135.603 19.8157 135.772 19.3083 135.772 18.6656V11.562H139.654V18.691C139.654 19.7735 139.409 20.7291 138.918 21.5578C138.427 22.3696 137.751 23.0123 136.888 23.4859C136.026 23.9426 135.028 24.1709 133.894 24.1709Z" fill="black"/>
<path d="M145.465 11.5619H141.583V23.8917H145.465V16.6866C145.465 16.2638 145.549 15.9086 145.718 15.6211C145.905 15.3335 146.15 15.1136 146.454 14.9615C146.759 14.7923 147.105 14.7077 147.494 14.7077C148.053 14.7077 148.517 14.8853 148.889 15.2405C149.279 15.5787 149.473 16.0608 149.473 16.6866V23.8917H153.355V16.6866C153.355 16.2638 153.44 15.9086 153.609 15.6211C153.795 15.3335 154.04 15.1136 154.345 14.9615C154.649 14.7923 154.996 14.7077 155.385 14.7077C155.943 14.7077 156.408 14.8853 156.78 15.2405C157.169 15.5787 157.363 16.0608 157.363 16.6866V23.8917H161.245V16.2553C161.245 15.2236 161.025 14.3441 160.585 13.6168C160.162 12.8726 159.579 12.306 158.835 11.9171C158.108 11.5111 157.27 11.3081 156.323 11.3081C155.359 11.3081 154.488 11.5195 153.71 11.9424C153.205 12.2118 152.763 12.5595 152.385 12.9854C152.032 12.5399 151.603 12.1753 151.097 11.8916C150.421 11.5027 149.651 11.3081 148.789 11.3081C147.875 11.3081 147.055 11.5027 146.328 11.8916C146.011 12.0535 145.724 12.2473 145.465 12.4731V11.5619Z" fill="black"/>
</g>
<defs>
<clipPath id="clip0_2_12620">
<rect width="161.6" height="32" fill="white"/>
</clipPath>
</defs>
</svg>
