<svg width="141" height="32" viewBox="0 0 141 32" fill="none" xmlns="http://www.w3.org/2000/svg">
<path fill-rule="evenodd" clip-rule="evenodd" d="M26.2002 20.8C25.4045 20.8 24.6415 20.4839 24.0789 19.9213C23.5163 19.3587 23.2002 18.5956 23.2002 17.8V4H17.2002V17.8C17.2002 22.7704 21.2298 26.8 26.2002 26.8H32.8002V20.8H26.2002ZM44.2002 10C43.4911 10 42.7889 10.1397 42.1337 10.4111C41.4785 10.6824 40.8833 11.0802 40.3818 11.5816C39.8804 12.0831 39.4826 12.6784 39.2112 13.3335C38.9399 13.9887 38.8002 14.6909 38.8002 15.4C38.8002 16.1091 38.9399 16.8113 39.2112 17.4665C39.4826 18.1216 39.8804 18.7169 40.3818 19.2184C40.8833 19.7198 41.4785 20.1176 42.1337 20.389C42.7889 20.6603 43.4911 20.8 44.2002 20.8C45.6324 20.8 47.0059 20.2311 48.0186 19.2184C49.0313 18.2057 49.6002 16.8322 49.6002 15.4C49.6002 13.9678 49.0313 12.5943 48.0186 11.5816C47.0059 10.5689 45.6324 10 44.2002 10ZM32.8002 15.4C32.8002 9.1042 37.9044 4 44.2002 4C50.496 4 55.6002 9.1042 55.6002 15.4C55.6002 21.6958 50.496 26.8 44.2002 26.8C37.9044 26.8 32.8002 21.6958 32.8002 15.4ZM109 10C107.568 10 106.195 10.5689 105.182 11.5816C104.169 12.5943 103.6 13.9678 103.6 15.4C103.6 16.8322 104.169 18.2057 105.182 19.2184C106.195 20.2311 107.568 20.8 109 20.8C110.432 20.8 111.806 20.2311 112.819 19.2184C113.831 18.2057 114.4 16.8322 114.4 15.4C114.4 13.9678 113.831 12.5943 112.819 11.5816C111.806 10.5689 110.432 10 109 10ZM97.6002 15.4C97.6002 9.1042 102.704 4 109 4C115.296 4 120.4 9.1042 120.4 15.4C120.4 21.6958 115.296 26.8 109 26.8C102.704 26.8 97.6002 21.6958 97.6002 15.4ZM68.2002 4C61.9044 4 56.8002 9.1042 56.8002 15.4C56.8002 21.6958 61.9044 26.8 68.2002 26.8H85.0002C86.1816 26.8 87.321 26.62 88.3926 26.2864L91.6002 28L95.061 21.5176C95.9401 19.8674 96.4 18.0264 96.4002 16.1566V15.4C96.4002 9.1042 91.296 4 85.0002 4H68.2002ZM90.4002 15.4C90.4002 13.9678 89.8313 12.5943 88.8186 11.5816C87.8059 10.5689 86.4324 10 85.0002 10H68.2002C67.4911 10 66.7889 10.1397 66.1337 10.4111C65.4785 10.6824 64.8833 11.0802 64.3818 11.5816C63.8804 12.0831 63.4826 12.6784 63.2112 13.3335C62.9399 13.9887 62.8002 14.6909 62.8002 15.4C62.8002 16.1091 62.9399 16.8113 63.2112 17.4665C63.4826 18.1216 63.8804 18.7169 64.3818 19.2184C64.8833 19.7198 65.4785 20.1176 66.1337 20.389C66.7889 20.6603 67.4911 20.8 68.2002 20.8H85.0002C86.4251 20.8 87.7923 20.2369 88.8038 19.2333C89.8153 18.2296 90.3891 16.8669 90.4002 15.442V15.4Z" fill="black"/>
</svg>
