<svg width="127" height="32" viewBox="0 0 127 32" fill="none" xmlns="http://www.w3.org/2000/svg">
<path d="M14.5415 6.25879V2.25879H1.92969V29.7412H14.5415V25.7412C11.9579 25.7412 9.48018 24.7148 7.6534 22.888C5.82657 21.0612 4.80028 18.5835 4.80028 16C4.80028 13.4164 5.82657 10.9387 7.6534 9.11192C9.48018 7.2851 11.9579 6.25879 14.5415 6.25879Z" fill="black"/>
<path d="M14.541 6.25879V25.7412C17.1245 25.7412 19.6023 24.7148 21.4291 22.888C23.2559 21.0612 24.2822 18.5835 24.2822 16C24.2822 13.4164 23.2559 10.9387 21.4291 9.11192C19.6023 7.2851 17.1245 6.25879 14.541 6.25879Z" fill="black"/>
<path d="M31.3604 8.70605H34.1839V22.3061H31.3604V8.70605Z" fill="black"/>
<path d="M35.7651 17.6471C35.7651 16.6687 36.0556 15.7123 36.5998 14.8991C37.144 14.0859 37.9174 13.4526 38.8219 13.0794C39.7265 12.7063 40.7214 12.6101 41.6807 12.8031C42.6399 12.996 43.5203 13.4694 44.2102 14.1633C44.9001 14.8572 45.3685 15.7402 45.556 16.7006C45.7434 17.661 45.6415 18.6553 45.2632 19.5577C44.8848 20.46 44.2472 21.2298 43.4309 21.7693C42.6146 22.3089 41.6565 22.5939 40.678 22.5883C40.0291 22.5934 39.3856 22.4689 38.7854 22.2219C38.1852 21.975 37.6403 21.6108 37.1827 21.1507C36.7251 20.6904 36.3641 20.1434 36.1206 19.5418C35.8772 18.9402 35.7563 18.2961 35.7651 17.6471ZM42.8427 17.6471C42.8316 17.2253 42.6964 16.8161 42.4539 16.4707C42.2115 16.1253 41.8727 15.8591 41.4796 15.7053C41.0867 15.5515 40.6571 15.517 40.2447 15.6061C39.8322 15.6951 39.4552 15.9038 39.1607 16.2061C38.8662 16.5083 38.6673 16.8906 38.589 17.3053C38.5107 17.72 38.5563 18.1485 38.7203 18.5373C38.8842 18.9261 39.1592 19.258 39.5108 19.4914C39.8623 19.7248 40.2748 19.8493 40.6969 19.8495C40.9842 19.8551 41.2696 19.8014 41.5352 19.6916C41.8008 19.582 42.0409 19.4187 42.2405 19.212C42.4401 19.0053 42.5949 18.7596 42.6954 18.4904C42.7958 18.2211 42.8395 17.9341 42.8239 17.6471H42.8427Z" fill="black"/>
<path d="M56.7621 12.9881V21.8446C56.7621 24.9693 54.315 26.2963 51.8397 26.2963C50.9666 26.368 50.0908 26.1945 49.3111 25.7954C48.5312 25.3964 47.8782 24.7875 47.4256 24.0375L49.8068 22.6634C49.9997 23.0525 50.3067 23.3734 50.6867 23.5836C51.0668 23.7938 51.5018 23.8832 51.9339 23.8399C52.2092 23.8738 52.4885 23.8465 52.7519 23.7599C53.0155 23.6732 53.2565 23.5295 53.4579 23.3388C53.6594 23.1481 53.8162 22.9154 53.9172 22.657C54.0182 22.3987 54.0608 22.1213 54.0421 21.8446V20.9881C53.7135 21.3865 53.2966 21.7027 52.8245 21.9119C52.3523 22.121 51.838 22.2172 51.3221 22.1928C50.074 22.1928 48.8771 21.697 47.9946 20.8145C47.112 19.932 46.6162 18.735 46.6162 17.4869C46.6162 16.2388 47.112 15.0419 47.9946 14.1594C48.8771 13.2769 50.074 12.781 51.3221 12.781C51.838 12.7567 52.3523 12.8529 52.8245 13.062C53.2966 13.2711 53.7135 13.5874 54.0421 13.9858V13.0446L56.7621 12.9881ZM54.0421 17.4587C54.0608 17.0084 53.9445 16.5628 53.708 16.1792C53.4715 15.7955 53.1257 15.4914 52.7148 15.3059C52.3041 15.1204 51.8474 15.0621 51.4031 15.1383C50.959 15.2146 50.5477 15.4219 50.2223 15.7337C49.897 16.0455 49.6723 16.4476 49.5772 16.8882C49.4822 17.3287 49.5211 17.7875 49.6889 18.2058C49.8568 18.6241 50.1459 18.9826 50.5191 19.2352C50.8924 19.4878 51.3326 19.623 51.7833 19.6234C52.0774 19.6446 52.3726 19.6038 52.6499 19.5039C52.9273 19.4038 53.1806 19.2467 53.3934 19.0427C53.6063 18.8387 53.774 18.5923 53.8858 18.3195C53.9975 18.0466 54.0508 17.7534 54.0421 17.4587Z" fill="black"/>
<path d="M58.3529 17.6472C58.3529 16.6696 58.6429 15.7139 59.1863 14.9011C59.7296 14.0883 60.5019 13.455 61.4053 13.0813C62.3087 12.7076 63.3027 12.6103 64.2615 12.8017C65.2203 12.9931 66.1006 13.4647 66.7914 14.1566C67.482 14.8487 67.9518 15.73 68.1414 16.689C68.331 17.6482 68.2318 18.642 67.8564 19.5447C67.481 20.4474 66.8461 21.2185 66.0324 21.7603C65.2186 22.3021 64.2623 22.5903 63.2846 22.5884C62.6345 22.5947 61.9895 22.4712 61.3877 22.2249C60.7859 21.9787 60.2393 21.6149 59.78 21.1546C59.3206 20.6944 58.9578 20.1471 58.7127 19.5448C58.4677 18.9426 58.3453 18.2974 58.3529 17.6472ZM65.4305 17.6472C65.4194 17.225 65.2839 16.8154 65.0411 16.4698C64.7982 16.1243 64.4587 15.8581 64.0652 15.7046C63.6717 15.5511 63.2417 15.5171 62.829 15.607C62.4163 15.6968 62.0393 15.9064 61.7452 16.2096C61.451 16.5128 61.2529 16.896 61.1757 17.3112C61.0985 17.7265 61.1454 18.1553 61.3108 18.5439C61.4762 18.9326 61.7526 19.2638 62.1054 19.4961C62.4582 19.7283 62.8716 19.8513 63.294 19.8496C63.5814 19.8553 63.8667 19.8015 64.1323 19.6918C64.3979 19.5821 64.638 19.4188 64.8377 19.2121C65.0373 19.0055 65.1921 18.7597 65.2925 18.4905C65.393 18.2213 65.4367 17.9342 65.4211 17.6472H65.4305Z" fill="black"/>
<path d="M69.5244 10.4941C69.5244 10.1628 69.6227 9.8389 69.8068 9.56341C69.9909 9.28789 70.2525 9.07317 70.5586 8.94637C70.8647 8.81957 71.2016 8.7864 71.5266 8.85104C71.8515 8.91568 72.15 9.07524 72.3844 9.30953C72.6186 9.54384 72.7782 9.84238 72.8428 10.1673C72.9075 10.4923 72.8742 10.8291 72.7475 11.1353C72.6207 11.4413 72.4059 11.703 72.1304 11.8871C71.855 12.0712 71.5311 12.1694 71.1997 12.1694C70.7569 12.1645 70.3336 11.9865 70.0205 11.6733C69.7074 11.3602 69.5293 10.937 69.5244 10.4941ZM69.7974 12.9883H72.6209V22.3059H69.7974V12.9883Z" fill="black"/>
<path d="M84.7058 17.6471C84.7374 18.2668 84.6462 18.8866 84.4374 19.4709C84.2286 20.0552 83.9063 20.5924 83.489 21.0516C83.0717 21.5109 82.5678 21.8831 82.0061 22.1468C81.4445 22.4105 80.8363 22.5605 80.2164 22.5883C79.6904 22.6233 79.1632 22.5391 78.6744 22.3419C78.1854 22.1446 77.7474 21.8396 77.3929 21.4495V26.0518H74.5693V12.9883H77.3929V13.8636C77.7479 13.4746 78.1863 13.171 78.6752 12.9754C79.1642 12.7797 79.691 12.6973 80.2164 12.7342C80.8338 12.7619 81.4396 12.9111 81.9994 13.173C82.5591 13.435 83.0618 13.8047 83.4786 14.2608C83.8955 14.717 84.2185 15.2509 84.429 15.832C84.6395 16.4129 84.7337 17.0297 84.7058 17.6471ZM81.8823 17.6471C81.8712 17.2099 81.7312 16.7858 81.4801 16.4279C81.229 16.07 80.8778 15.794 80.4705 15.6349C80.0633 15.4756 79.6181 15.4402 79.1907 15.5329C78.7634 15.6256 78.373 15.8425 78.0683 16.1562C77.7637 16.4699 77.5584 16.8665 77.4783 17.2964C77.3981 17.7263 77.4466 18.1702 77.6177 18.5727C77.7888 18.975 78.0748 19.318 78.44 19.5585C78.8052 19.7991 79.2332 19.9264 79.6705 19.9248C79.97 19.9375 80.2688 19.8867 80.5473 19.7759C80.8259 19.665 81.0779 19.4965 81.2867 19.2815C81.4955 19.0664 81.6565 18.8096 81.7592 18.528C81.8619 18.2463 81.9037 17.9461 81.8823 17.6471Z" fill="black"/>
<path d="M93.2992 19.5105C93.2992 21.6564 91.4168 22.5694 89.4215 22.5694C88.6077 22.6426 87.7907 22.4701 87.0759 22.0741C86.3612 21.6782 85.7816 21.0769 85.4121 20.3482L87.8403 18.9741C87.9365 19.3099 88.1451 19.6025 88.4312 19.803C88.7173 20.0034 89.0636 20.0995 89.4121 20.0753C90.0803 20.0753 90.4192 19.8682 90.4192 19.4917C90.4192 18.4658 85.8356 19.0117 85.8356 15.7835C85.8356 13.7505 87.5486 12.7341 89.4874 12.7341C90.2243 12.701 90.9566 12.8683 91.6061 13.2179C92.2557 13.5676 92.7985 14.0866 93.1768 14.72L90.7486 16C90.6413 15.7571 90.466 15.5506 90.2439 15.4053C90.0217 15.26 89.7622 15.1822 89.4968 15.1811C89.0074 15.1811 88.7156 15.3694 88.7156 15.6988C88.7156 16.7717 93.2992 16.0658 93.2992 19.5105Z" fill="black"/>
<path d="M103.529 12.9883V22.3059H100.705V21.4306C100.385 21.8181 99.977 22.1247 99.5167 22.3258C99.0556 22.5269 98.5539 22.6168 98.0513 22.5883C96.169 22.5883 94.5596 21.2424 94.5596 18.7295V12.9883H97.3831V18.3059C97.3605 18.5282 97.3869 18.7527 97.4603 18.9639C97.5337 19.175 97.6513 19.3678 97.8057 19.5289C97.961 19.6899 98.1492 19.8155 98.3572 19.8969C98.5652 19.9782 98.7883 20.0134 99.0113 20C100.028 20 100.743 19.3977 100.743 18.1177V12.9883H103.529Z" fill="black"/>
<path d="M119.529 16.5836V22.306H116.705V16.8283C116.705 15.8871 116.263 15.3036 115.369 15.3036C114.475 15.3036 113.91 15.953 113.91 17.0542V22.306H111.087V16.8283C111.087 15.8871 110.644 15.3036 109.75 15.3036C108.856 15.3036 108.291 15.953 108.291 17.0542V22.306H105.468V12.9883H108.291V13.8448C108.584 13.4664 108.965 13.1668 109.403 12.9729C109.84 12.779 110.319 12.6969 110.795 12.7342C111.272 12.7092 111.748 12.809 112.176 13.0235C112.603 13.238 112.967 13.56 113.232 13.9577C113.543 13.5421 113.953 13.2119 114.426 12.998C114.897 12.784 115.417 12.6932 115.934 12.7342C118.136 12.7342 119.529 14.2589 119.529 16.5836Z" fill="black"/>
<path d="M121.902 12.9317C123.045 12.9317 123.972 12.0046 123.972 10.8611C123.972 9.71759 123.045 8.79053 121.902 8.79053C120.758 8.79053 119.831 9.71759 119.831 10.8611C119.831 12.0046 120.758 12.9317 121.902 12.9317Z" fill="black"/>
</svg>
