<svg width="132" height="52" viewBox="0 0 132 52" fill="none" xmlns="http://www.w3.org/2000/svg"><mask id="mask0_804_3350" style="mask-type:alpha" maskUnits="userSpaceOnUse" x="0" y="0" width="132" height="52"><path d="M87.7486 44.5144H85.3208V16.9948C85.3208 16.6239 85.0217 16.3247 84.6511 16.3247H79.2091C78.8384 16.3247 78.5394 16.6239 78.5394 16.9948V31.6638C78.5394 36.055 77.4031 39.7282 75.2504 42.2889C73.1813 44.7536 70.2869 46.0696 66.89 46.0696C64.0077 46.0696 61.9865 45.3756 60.6827 43.94C59.3313 42.4445 58.6736 40.0633 58.6736 36.6532V16.9948C58.6736 16.6239 58.3745 16.3247 58.0039 16.3247H52.3943C52.0237 16.3247 51.7246 16.6239 51.7246 16.9948V37.9574C51.7246 42.6117 52.9685 46.1656 55.4086 48.5107C57.6808 50.7002 60.9698 51.801 65.168 51.801C68.8156 51.801 71.8535 50.7838 74.198 48.7859C76.3147 46.9791 77.7741 44.4664 78.5274 41.3077H79.4602L78.5394 44.9808V50.365C78.5394 50.8678 78.946 51.2746 79.4366 51.2746H87.725C88.0956 51.2746 88.3947 50.9754 88.3947 50.6046V45.1604C88.3947 44.7896 88.0956 44.4904 87.725 44.4904L87.7486 44.5144Z" fill="black"/><path d="M131.342 44.5218H128.746V0.67004C128.746 0.299125 128.447 0 128.077 0H122.635C122.264 0 121.965 0.299125 121.965 0.67004V21.3575L122.886 25.1026H121.941C121.176 22.3746 119.621 20.0653 117.456 18.45C114.956 16.5955 111.751 15.6502 107.912 15.6502C102.984 15.6502 98.8103 17.445 95.8084 20.8311C92.9496 24.0616 91.3711 28.6562 91.3711 33.7413C91.3711 38.8264 92.9496 43.4571 95.8084 46.7354C98.8103 50.1813 102.996 52 107.912 52C111.655 52 114.825 51.0308 117.337 49.1045C119.489 47.4533 121.08 45.1318 121.941 42.3679H122.886L121.965 46.0534V50.4085C121.965 50.9112 122.372 51.318 122.874 51.318H131.33C131.701 51.318 132 51.0188 132 50.6477V45.2038C132 44.833 131.701 44.5338 131.33 44.5338L131.342 44.5218ZM122.145 33.7293C122.145 37.7616 120.949 40.8843 118.58 43.0023C116.475 44.8926 113.497 45.8978 109.981 45.8978C106.465 45.8978 103.63 44.9046 101.657 43.0143C99.456 40.9203 98.3437 37.7973 98.3437 33.7293C98.3437 29.6612 99.456 26.5384 101.657 24.4445C103.642 22.554 106.525 21.5609 109.981 21.5609C113.438 21.5609 116.463 22.554 118.58 24.4445C120.949 26.5623 122.145 29.6852 122.145 33.7293Z" fill="black"/><path d="M41.3956 27.1885V26.2193L42.0533 26.1236C43.5127 25.9801 44.6846 24.9032 44.625 23.4315L44.8641 2.56454C44.8641 2.30131 44.6486 2.08594 44.3855 2.08594H38.2262C37.9631 2.08594 37.7476 2.30131 37.7476 2.56454V21.3855C37.7476 22.7854 36.6116 23.9101 35.2242 23.9101H20.8241C20.561 23.9101 20.3457 24.1255 20.3457 24.3887V29.6892C20.3457 29.9524 20.561 30.1678 20.8241 30.1678H35.2242C36.6235 30.1678 37.7476 31.3045 37.7476 32.6924V50.8314C37.7476 51.0946 37.9631 51.3098 38.2262 51.3098H44.3855C44.6486 51.3098 44.8641 51.0946 44.8641 50.8314L44.625 29.9644C44.6966 28.4927 43.4887 27.4278 42.0533 27.2723L41.3956 27.1765V27.1885Z" fill="black"/><path d="M21.0021 2.06934H12.5343C10.4532 2.06934 8.75484 3.75639 8.75484 5.85028V13.2207C8.75484 16.7025 7.43921 20.1006 5.14289 22.5773C4.42528 23.4388 3.21729 23.9533 1.90167 23.9533H0.669769C0.299004 23.9533 0 24.2524 0 24.6234V29.0983C0 29.4692 0.299004 29.7683 0.669769 29.7683H1.88971C3.20533 29.7683 4.41332 30.2828 5.14289 31.1682C7.46316 33.657 8.74288 36.9712 8.74288 40.501V47.5364C8.74288 49.6183 10.4293 51.3174 12.5223 51.3174H20.9901C21.2532 51.3174 21.4685 51.1019 21.4685 50.8387V45.9808C21.4685 45.7176 21.2532 45.5024 20.9901 45.5024H15.5602C15.01 45.5024 14.5555 45.0476 14.5555 44.4973V40.501C14.5555 35.7269 12.7854 31.0845 9.73557 27.6625C9.68775 27.6146 9.62794 27.5787 9.55617 27.5787L8.83856 27.5189V26.3104L9.44854 26.2626C9.5203 26.2626 9.58008 26.2267 9.62794 26.1788C12.7854 22.5534 14.5555 17.9708 14.5555 13.2207V8.88939C14.5555 8.33901 15.01 7.88434 15.5602 7.88434H20.9901C21.2532 7.88434 21.4685 7.66895 21.4685 7.40572V2.54794C21.4685 2.28471 21.2532 2.06934 20.9901 2.06934H21.0021ZM8.79074 27.0642V27.0283C8.79074 27.0283 8.81465 27.0283 8.81465 27.0164L8.79074 27.0642Z" fill="black"/></mask><g mask="url(#mask0_804_3350)"><path d="M166 -68H-66V63H166V-68Z" fill="black"/><g filter="url(#filter0_f_804_3350)"><path d="M94.5781 -49.6295C80.2215 -111.641 136.248 -177.615 219.718 -196.986C303.189 -216.357 382.492 -181.791 396.849 -119.779C411.205 -57.7682 355.178 8.20555 271.709 27.5769C188.239 46.9483 108.934 12.3818 94.5781 -49.6295Z" fill="#4CC2EF"/><path d="M-114.332 89.0416C-128.564 27.5676 -74.0344 -37.5996 7.46322 -56.5132C88.9608 -75.427 166.566 -40.925 180.797 20.549C195.03 82.023 140.5 147.19 59.0024 166.104C-22.4952 185.018 -100.099 150.516 -114.332 89.0416Z" fill="#733BD2"/><path d="M-234.671 107.025C-254.604 20.9307 -176.09 -70.8343 -59.3067 -97.9375C57.477 -125.04 168.307 -77.2171 188.24 8.87803C208.172 94.9732 129.658 186.738 12.8746 213.841C-103.909 240.944 -214.739 193.121 -234.671 107.025Z" fill="#111214" fill-opacity="0.8"/><path d="M-160.116 101.169C-184.381 -3.64255 -6.10614 -134.548 238.073 -191.216C482.251 -247.884 699.868 -208.856 724.133 -104.044C748.399 0.767853 570.124 131.674 325.946 188.341C81.7672 245.01 -135.85 205.982 -160.116 101.169Z" fill="#111214" fill-opacity="0.8"/><path d="M404.054 222.467C428.961 114.884 340.073 2.35596 205.515 -28.8715C70.9586 -60.0991 -58.3125 1.79945 -83.2196 109.383C-108.127 216.966 -19.2382 329.494 115.318 360.722C249.876 391.95 379.146 330.05 404.054 222.467Z" fill="#38E0EC"/><path d="M195.018 162.729C215.577 73.9305 144.134 -18.503 35.4451 -43.727C-73.2429 -68.951 -178.018 -17.4136 -198.576 71.385C-219.134 160.184 -147.691 252.617 -39.0028 277.841C69.6854 303.065 174.461 251.528 195.018 162.729Z" fill="#FF6FFF"/><path d="M442.566 12.7567C468.684 -100.052 368.619 -219.638 219.065 -254.346C69.5114 -289.054 -72.8978 -225.741 -99.0145 -112.932C-125.132 -0.122864 -25.0666 119.463 124.487 154.171C274.041 188.879 416.45 125.565 442.566 12.7567Z" fill="#733BD2"/><path d="M62.5001 92C27.9823 92 0 74.8274 0 53.6438C47.3898 31.9163 27.9823 10 62.5001 10C97.0176 10 78.1132 30.4222 125 53.6438C125 74.8274 97.0176 92 62.5001 92Z" fill="url(#paint0_linear_804_3350)"/></g></g><defs><filter id="filter0_f_804_3350" x="-536.41" y="-562.498" width="1647.46" height="1229.96" filterUnits="userSpaceOnUse" color-interpolation-filters="sRGB"><feFlood flood-opacity="0" result="BackgroundImageFix"/><feBlend mode="normal" in="SourceGraphic" in2="BackgroundImageFix" result="shape"/><feGaussianBlur stdDeviation="149.323" result="effect1_foregroundBlur_804_3350"/></filter><linearGradient id="paint0_linear_804_3350" x1="0" y1="53.6438" x2="125" y2="53.6438" gradientUnits="userSpaceOnUse"><stop stop-color="#FF6FFF"/><stop offset="0.808121" stop-color="#7654FC"/></linearGradient></defs></svg>