<svg width="100" height="46" viewBox="0 0 100 46" fill="none" xmlns="http://www.w3.org/2000/svg">
<g clip-path="url(#clip0_158_1040)">
<path d="M39.2118 18.778C39.2118 19.3865 39.2775 19.8799 39.3927 20.2418C39.5243 20.6036 39.6887 20.9984 39.919 21.426C40.0012 21.5576 40.0341 21.6892 40.0341 21.8043C40.0341 21.9688 39.9354 22.1332 39.7216 22.2977L38.6854 22.9885C38.5374 23.0872 38.3894 23.1365 38.2578 23.1365C38.0933 23.1365 37.9289 23.0543 37.7644 22.9063C37.5341 22.6596 37.3368 22.3964 37.1723 22.1332C37.0078 21.8536 36.8433 21.5411 36.6624 21.1628C35.3795 22.676 33.7677 23.4326 31.8269 23.4326C30.4453 23.4326 29.3433 23.0378 28.5374 22.2484C27.7315 21.4589 27.3203 20.4063 27.3203 19.0905C27.3203 17.6924 27.8137 16.5576 28.817 15.7023C29.8203 14.8471 31.1525 14.4194 32.8466 14.4194C33.4058 14.4194 33.9815 14.4688 34.59 14.551C35.1986 14.6332 35.8236 14.7648 36.4815 14.9128V13.7122C36.4815 12.4622 36.2183 11.5905 35.7085 11.0806C35.1822 10.5707 34.294 10.324 33.0275 10.324C32.4519 10.324 31.8598 10.3898 31.2512 10.5378C30.6427 10.6859 30.0506 10.8668 29.4749 11.0971C29.2118 11.2122 29.0144 11.278 28.8993 11.3109C28.7841 11.3438 28.7019 11.3602 28.6361 11.3602C28.4058 11.3602 28.2907 11.1957 28.2907 10.8503V10.0444C28.2907 9.78126 28.3236 9.58389 28.4058 9.46876C28.4881 9.35363 28.6361 9.2385 28.8664 9.12337C29.442 8.82732 30.1328 8.5806 30.9387 8.38324C31.7447 8.16942 32.5999 8.07074 33.5045 8.07074C35.4618 8.07074 36.8927 8.51482 37.8137 9.40297C38.7183 10.2911 39.1789 11.6398 39.1789 13.449V18.778H39.2118ZM32.5341 21.278C33.0769 21.278 33.6361 21.1793 34.2282 20.9819C34.8203 20.7846 35.3466 20.4227 35.7907 19.9293C36.0539 19.6168 36.2512 19.2714 36.3499 18.8767C36.4486 18.4819 36.5144 18.0049 36.5144 17.4457V16.7549C36.0374 16.6398 35.5275 16.5411 35.0012 16.4753C34.4749 16.4096 33.965 16.3767 33.4552 16.3767C32.3532 16.3767 31.5473 16.5905 31.0045 17.0346C30.4618 17.4786 30.1986 18.1036 30.1986 18.926C30.1986 19.699 30.396 20.2747 30.8072 20.6694C31.2019 21.0806 31.7775 21.278 32.5341 21.278ZM45.7414 23.0543C45.4453 23.0543 45.2479 23.0049 45.1164 22.8898C44.9848 22.7911 44.8697 22.5609 44.771 22.2484L40.9058 9.53455C40.8072 9.2056 40.7578 8.99179 40.7578 8.87666C40.7578 8.6135 40.8894 8.46547 41.1525 8.46547H42.7644C43.0769 8.46547 43.2907 8.51482 43.4058 8.62995C43.5374 8.72863 43.6361 8.95889 43.7348 9.27139L46.4979 20.1596L49.0637 9.27139C49.146 8.94245 49.2447 8.72863 49.3762 8.62995C49.5078 8.53126 49.7381 8.46547 50.0341 8.46547H51.3499C51.6624 8.46547 51.8762 8.51482 52.0078 8.62995C52.1394 8.72863 52.2545 8.95889 52.3203 9.27139L54.919 20.2911L57.7644 9.27139C57.8631 8.94245 57.9782 8.72863 58.0933 8.62995C58.2249 8.53126 58.4387 8.46547 58.7348 8.46547H60.2644C60.5275 8.46547 60.6756 8.59705 60.6756 8.87666C60.6756 8.95889 60.6591 9.04113 60.6427 9.13982C60.6262 9.2385 60.5933 9.37008 60.5275 9.551L56.5637 22.2648C56.465 22.5938 56.3499 22.8076 56.2183 22.9063C56.0868 23.0049 55.8729 23.0707 55.5933 23.0707H54.1789C53.8664 23.0707 53.6525 23.0214 53.521 22.9063C53.3894 22.7911 53.2743 22.5773 53.2085 22.2484L50.6591 11.6398L48.1262 22.2319C48.044 22.5609 47.9453 22.7747 47.8137 22.8898C47.6822 23.0049 47.4519 23.0543 47.1558 23.0543H45.7414ZM66.8762 23.4984C66.021 23.4984 65.1657 23.3997 64.3433 23.2023C63.521 23.0049 62.8795 22.7911 62.4519 22.5444C62.1887 22.3964 62.0078 22.2319 61.942 22.0839C61.8762 21.9359 61.8433 21.7714 61.8433 21.6234V20.7846C61.8433 20.4392 61.9749 20.2747 62.2216 20.2747C62.3203 20.2747 62.419 20.2911 62.5177 20.324C62.6164 20.3569 62.7644 20.4227 62.9289 20.4885C63.4881 20.7352 64.0966 20.9326 64.7381 21.0642C65.396 21.1957 66.0374 21.2615 66.6953 21.2615C67.7315 21.2615 68.5374 21.0806 69.0966 20.7188C69.6558 20.3569 69.9519 19.8306 69.9519 19.1563C69.9519 18.6957 69.8039 18.3174 69.5078 18.0049C69.2118 17.6924 68.6525 17.4128 67.8466 17.1497L65.4618 16.4096C64.2611 16.0313 63.3729 15.4721 62.8302 14.7319C62.2874 14.0082 62.0078 13.2023 62.0078 12.3471C62.0078 11.6563 62.1558 11.0477 62.4519 10.5214C62.7479 9.99508 63.1427 9.53455 63.6361 9.17271C64.1295 8.79442 64.6887 8.51482 65.3466 8.31745C66.0045 8.12008 66.6953 8.03784 67.419 8.03784C67.7808 8.03784 68.1591 8.05429 68.521 8.10363C68.8993 8.15297 69.2447 8.21876 69.59 8.28455C69.919 8.36679 70.2315 8.44903 70.5275 8.54771C70.8236 8.64639 71.0539 8.74508 71.2183 8.84376C71.4486 8.97534 71.6131 9.10692 71.7118 9.25495C71.8104 9.38653 71.8598 9.56745 71.8598 9.79771V10.5707C71.8598 10.9161 71.7282 11.0971 71.4815 11.0971C71.3499 11.0971 71.1361 11.0313 70.8565 10.8997C69.919 10.4721 68.8664 10.2582 67.6986 10.2582C66.7611 10.2582 66.021 10.4063 65.5111 10.7188C65.0012 11.0313 64.7381 11.5082 64.7381 12.1826C64.7381 12.6431 64.9025 13.0378 65.2315 13.3503C65.5604 13.6628 66.169 13.9753 67.0407 14.2549L69.3762 14.9951C70.5604 15.3734 71.4157 15.8997 71.9256 16.574C72.4354 17.2484 72.6821 18.0214 72.6821 18.8767C72.6821 19.5839 72.5341 20.2253 72.2545 20.7846C71.9585 21.3438 71.5637 21.8372 71.0539 22.2319C70.544 22.6431 69.9354 22.9392 69.2282 23.153C68.4881 23.3832 67.715 23.4984 66.8762 23.4984Z" fill="white"/>
<path fill-rule="evenodd" clip-rule="evenodd" d="M69.9827 31.4918C64.5715 35.4885 56.7096 37.6102 49.9498 37.6102C40.4761 37.6102 31.9399 34.1069 25.4925 28.2845C24.9827 27.824 25.4432 27.199 26.0517 27.5609C33.0254 31.6069 41.6274 34.0576 50.5254 34.0576C56.5287 34.0576 63.1241 32.8076 69.1932 30.2418C70.0978 29.8306 70.8708 30.8339 69.9827 31.4918Z" fill="white"/>
<path fill-rule="evenodd" clip-rule="evenodd" d="M72.2355 28.926C71.5448 28.0378 67.6632 28.4983 65.9033 28.7121C65.377 28.7779 65.2948 28.3174 65.7717 27.972C68.8638 25.801 73.9461 26.426 74.5382 27.1496C75.1303 27.8898 74.3737 32.972 71.479 35.4062C71.0349 35.7845 70.6073 35.5871 70.8046 35.0937C71.4625 33.4654 72.9263 29.7977 72.2355 28.926Z" fill="white"/>
</g>
<defs>
<clipPath id="clip0_158_1040">
<rect width="50" height="29.9342" fill="white" transform="translate(25 7.85712)"/>
</clipPath>
</defs>
</svg>
