<svg width="100" height="46" viewBox="0 0 100 46" fill="none" xmlns="http://www.w3.org/2000/svg">
<path d="M13.3021 29.7266C13.9484 29.6675 15.5318 29.41 15.3904 28.4012C15.3399 28.0783 15.1077 27.3671 13.0355 27.8314C10.9593 27.3692 10.729 28.0783 10.6806 28.4012C10.5412 29.4079 12.1125 29.6654 12.7568 29.7266V30.6572H10.6806L10.8724 31.3811H15.1844L15.3763 30.6572H13.3V29.7266H13.3021Z" fill="white"/>
<path d="M13.0402 13.08L8.3384 14.0592L7.31244 12.9111C6.22581 11.6934 4.40207 11.6259 3.23672 12.7613L3.00648 12.9808C1.83911 14.1141 1.77246 16.0198 2.855 17.2396C2.85702 17.2417 2.85904 17.246 2.86308 17.2481L4.06075 18.4046L3.58209 20.1837C2.03906 20.3039 1.31803 20.5445 1.30592 20.5529C1.16252 20.6057 1.07163 20.7555 1.08779 20.9138L1.27562 22.3405L1.35842 22.3869C1.62098 22.5325 1.68763 22.7478 2.04309 24.0499L2.10571 24.28C2.49146 25.6898 2.81663 26.3081 3.45686 26.7893L4.54749 30.9088L10.0289 33.8022H16.0435L21.5248 30.9088L22.6195 26.7893C23.2618 26.3081 23.5849 25.6919 23.9707 24.28L24.0333 24.0499C24.3888 22.7499 24.4554 22.5304 24.718 22.3869L24.8008 22.3405L24.9906 20.9138C25.0047 20.7555 24.9159 20.6057 24.7705 20.5529C24.7604 20.5529 24.0373 20.3018 22.4943 20.1837L22.0176 18.4046L23.2173 17.2523C24.308 16.0409 24.2534 14.1331 23.0921 12.9934C23.0881 12.9892 23.0841 12.985 23.08 12.9808L22.8497 12.7571C21.6864 11.6195 19.8606 11.685 18.7741 12.8985C18.7741 12.8985 18.77 12.9027 18.768 12.9048L17.742 14.0529L13.0442 13.0778M13.0442 14.3863L19.8667 15.9544L21.1815 20.1309H20.5635C19.5738 20.1393 18.5842 20.2111 17.6026 20.3482C17.0533 20.4242 16.506 20.5213 15.9606 20.6353C15.5183 20.7366 15.1629 20.8273 14.8478 20.9096C14.1551 21.089 13.6946 21.2093 13.0503 21.2114H13.0341C12.3879 21.2114 11.9294 21.0911 11.2367 20.9096C10.9236 20.8273 10.5681 20.7344 10.1238 20.6353C9.57648 20.5129 9.02913 20.4158 8.47774 20.344C7.49624 20.2069 6.50859 20.133 5.51895 20.1267H4.89487L6.21371 15.9522L13.0362 14.3863H13.0402H13.0442ZM4.0971 26.1351C3.80829 25.9155 3.57603 25.6264 3.41849 25.2908C3.24076 24.9088 3.12766 24.4994 3.07919 24.0794C2.87116 22.5009 3.08928 21.969 3.23874 21.7897C3.37406 21.6272 3.54371 21.5005 3.73356 21.4204C4.07892 21.2811 4.44247 21.1945 4.81409 21.1671C5.23216 21.1249 5.65225 21.1038 6.07232 21.108C6.46214 21.108 6.90443 21.1207 7.37702 21.146C7.39118 21.146 8.96045 21.2937 9.86527 21.6208C10.3096 21.7813 10.9135 22.0408 11.0387 22.4566C11.1639 22.8723 11.069 23.917 10.8428 24.4741C10.5459 25.1199 10.1036 25.6813 9.5563 26.1097C9.25533 26.3228 8.40913 26.8188 7.05792 26.8188H7.02762C5.99761 26.8125 5.1756 26.6753 4.57778 26.4094C4.41015 26.3355 4.24857 26.2448 4.10114 26.1351M20.6705 30.1723L15.8052 32.7407H10.2753L5.40989 30.1723L4.65857 27.3316C5.40989 27.5173 6.17937 27.6102 6.95087 27.6102C7.3084 27.6102 7.66383 27.5912 8.01931 27.5469C9.9663 27.3063 10.9397 26.0295 11.1135 25.7763C11.4992 25.217 11.9355 24.223 12.3111 23.324C12.4444 23.0074 12.9715 22.9926 13.0402 22.9926C13.1089 22.9926 13.636 23.0074 13.7693 23.324C14.145 24.223 14.5772 25.217 14.967 25.7763C15.1427 26.0295 16.1202 27.3063 18.0611 27.5469C18.4166 27.5891 18.772 27.6102 19.1295 27.6102C19.9011 27.6102 20.6705 27.5195 21.4198 27.3316L20.6705 30.1723ZM22.9992 24.0794C22.9508 24.4994 22.8356 24.9088 22.6599 25.2908C22.5024 25.6243 22.2681 25.9155 21.9813 26.1351C21.8318 26.2448 21.6723 26.3355 21.5047 26.4094C20.9068 26.6753 20.0828 26.8125 19.0548 26.8188H19.0225C17.6713 26.8188 16.8311 26.3228 16.5241 26.1097C15.9748 25.6834 15.5345 25.122 15.2356 24.4784C15.0053 23.9233 14.9084 22.885 15.0377 22.4608C15.1669 22.0366 15.7688 21.7855 16.2131 21.6251C17.1159 21.2979 18.6852 21.1523 18.7014 21.1502C19.1739 21.127 19.6142 21.1122 20.0061 21.1122C20.4262 21.108 20.8462 21.1291 21.2643 21.1713C21.6339 21.2008 21.9974 21.2853 22.3448 21.4246C22.5347 21.5048 22.7044 21.6314 22.8397 21.7939C22.9891 21.969 23.2073 22.5051 22.9992 24.0816" fill="white"/>
<path d="M39.7392 24.7289C39.42 24.311 39 23.9903 38.5192 23.8024C38.8444 23.5809 39.1191 23.2896 39.3271 22.9498C39.6119 22.4665 39.7553 21.9073 39.7432 21.3396C39.7432 20.3815 39.3837 19.6196 38.6748 19.0772C37.9659 18.5327 36.9924 18.2774 35.7362 18.2774H30.7617V29.8256H36.0411C37.4085 29.8256 38.4627 29.5512 39.1918 29.0088C39.9209 28.4665 40.3067 27.656 40.3067 26.6325C40.3067 25.8727 40.1148 25.2312 39.7371 24.7289M32.6017 19.896H35.5948C36.3481 19.896 36.9298 20.0395 37.3256 20.3245C37.7195 20.6094 37.8952 20.9956 37.8952 21.5295C37.8952 22.0635 37.7074 22.4602 37.3256 22.7345C36.9419 23.0089 36.3461 23.163 35.5948 23.163H32.6017V19.8939V19.896ZM37.8588 27.7806C37.4468 28.0613 36.8126 28.2048 35.9785 28.2048H32.6017V24.788H35.9785C37.6407 24.788 38.4506 25.3494 38.4506 26.5038C38.4506 27.0926 38.2588 27.5104 37.8609 27.7806" fill="white"/>
<path d="M51.9553 21.001V22.0478C51.6462 21.7228 51.2807 21.4654 50.8767 21.286C50.3153 21.0411 49.7134 20.9166 49.1055 20.9251C48.3481 20.9145 47.5988 21.0981 46.9243 21.4569C46.284 21.7988 45.7488 22.3222 45.3812 22.9679C44.6359 24.3482 44.6359 26.0344 45.3812 27.4146C45.7508 28.0604 46.284 28.588 46.9222 28.9341C47.5968 29.2992 48.3461 29.4828 49.1055 29.4723C49.6892 29.4765 50.2688 29.3604 50.8101 29.1325C51.2059 28.9637 51.5695 28.7167 51.8785 28.4086V28.6745C51.8785 29.5884 51.6644 30.2721 51.2403 30.709C50.8162 31.1458 50.1436 31.3695 49.2368 31.3695C48.6672 31.3695 48.0997 31.2725 47.5605 31.0804C47.0656 30.9137 46.6052 30.6499 46.2073 30.3017L46.072 30.1814L45.2035 31.6418L45.2984 31.7325C45.8053 32.1884 46.4011 32.5197 47.0454 32.7054C47.7725 32.9313 48.5258 33.0431 49.2852 33.041C50.7212 33.041 51.824 32.6675 52.5551 31.9288C53.2862 31.1923 53.6599 30.0421 53.6599 28.5184V21.001H51.9553ZM51.5715 26.5451C51.3473 26.9397 51.0221 27.2584 50.6344 27.4716C50.2123 27.6995 49.7457 27.8135 49.2711 27.8072C48.7924 27.8156 48.3199 27.7016 47.8917 27.4716C47.5018 27.2605 47.1787 26.9397 46.9546 26.5451C46.7263 26.1357 46.6092 25.6672 46.6152 25.1923C46.6152 24.4073 46.8556 23.7931 47.3483 23.3119C47.8432 22.8308 48.4855 22.5881 49.2711 22.5881C50.0568 22.5881 50.6869 22.8287 51.1777 23.3119C51.6685 23.7952 51.9128 24.4073 51.9128 25.1923C51.9189 25.6651 51.7997 26.1314 51.5715 26.5409V26.5451Z" fill="white"/>
<path d="M63.2177 19.3562C62.3955 18.6323 61.2563 18.2714 59.8346 18.2714H55.4883V29.8197H57.3342V26.424H59.8367C61.2587 26.424 62.3979 26.0631 63.2195 25.3392C64.0418 24.6153 64.472 23.6065 64.472 22.3446C64.472 21.0825 64.0418 20.08 63.2177 19.3583M61.9171 24.0962C61.4364 24.5035 60.7189 24.7103 59.7882 24.7103H57.3262V19.9956H59.7821C60.7129 19.9956 61.4304 20.2024 61.9111 20.6098C62.3912 21.0171 62.622 21.5848 62.622 22.353C62.622 23.1212 62.3894 23.6931 61.9111 24.0962H61.9171Z" fill="white"/>
<path d="M80.409 21.9023C79.7728 21.248 78.9102 20.9167 77.8379 20.9167C77.224 20.9041 76.6138 21.0286 76.0487 21.2776C75.677 21.4443 75.3415 21.687 75.0608 21.9888V20.999H73.3379V29.8206H75.1174V25.281C75.1174 24.42 75.3355 23.7531 75.7638 23.3015C76.1921 22.8477 76.7915 22.622 77.5433 22.622C78.2036 22.622 78.7126 22.814 79.0596 23.196C79.4054 23.578 79.5849 24.171 79.5849 24.9455V29.8227H81.3662V24.7661C81.3662 23.5189 81.0433 22.5544 80.4072 21.9001L80.4108 21.8959L80.409 21.9023Z" fill="white"/>
<path d="M89.4075 22.0126C89.1166 21.7045 88.7732 21.4555 88.3955 21.2782C87.8684 21.0355 87.2991 20.911 86.7214 20.9173C85.9557 20.9068 85.2003 21.1009 84.5298 21.4829C83.89 21.8522 83.3623 22.4009 83.0051 23.0657C82.6292 23.7833 82.4394 24.5894 82.4539 25.4062C82.4394 26.225 82.6292 27.0354 83.0051 27.7551C83.3605 28.4262 83.8876 28.977 84.5298 29.3485C85.2027 29.7305 85.9557 29.9246 86.7214 29.914C87.3153 29.9204 87.9051 29.7895 88.4443 29.5299C88.8298 29.3421 89.1774 29.0804 89.4684 28.7554V29.817H91.1888V17.1861L89.4075 18.14V22.0126ZM89.0882 26.8982C88.8762 27.314 88.5575 27.6601 88.1653 27.8944C87.3394 28.3713 86.3376 28.3713 85.5117 27.8944C85.122 27.6559 84.8027 27.3119 84.5888 26.8982C84.134 25.9634 84.134 24.8596 84.5888 23.9247C84.8027 23.511 85.122 23.1691 85.5117 22.937C86.3394 22.4706 87.3376 22.4706 88.1653 22.937C88.5575 23.167 88.8786 23.5089 89.0882 23.9247C89.5346 24.8617 89.5346 25.9634 89.0882 26.9003" fill="white"/>
<path d="M71.0886 21.8313C70.4627 21.2278 69.606 20.9218 68.3964 20.9218C66.5729 20.9218 65.397 21.7301 65.397 21.7301L66.1892 23.1462C66.1892 23.1462 66.9705 22.5784 68.3338 22.5784C68.8976 22.5784 69.4121 22.7389 69.7494 23.0618C70.0868 23.3825 70.2524 23.8531 70.2524 24.4673V24.6129H68.0711C66.9036 24.6129 66.0332 24.8535 65.4862 25.3368C64.4741 26.2505 64.3633 27.8502 65.2398 28.9076C65.3265 29.0131 65.4235 29.1123 65.5265 29.201C66.1042 29.6821 66.8675 29.9248 67.8109 29.9248C68.3862 29.9375 68.9579 29.8277 69.491 29.5977C69.8042 29.4584 70.0892 29.2558 70.3271 29.0026V29.8277H72.0319V24.5327C72.0319 23.3508 71.7145 22.4392 71.0868 21.8334M70.2524 27.0357C70.091 27.4556 69.8042 27.8102 69.4344 28.0466C69.0187 28.2998 68.5416 28.4286 68.0615 28.4158C67.5338 28.4158 67.1223 28.3019 66.8332 28.0782C66.5603 27.8777 66.4048 27.5443 66.4193 27.196C66.4193 26.9112 66.4193 26.0416 68.138 26.0416H70.2542V27.0357H70.2524Z" fill="white"/>
<path d="M98.7274 21.8313C98.1009 21.2278 97.2449 20.9218 96.037 20.9218C94.2111 20.9218 93.0376 21.7301 93.0376 21.7301L93.8298 23.1462C93.8298 23.1462 94.6111 22.5784 95.9744 22.5784C96.5376 22.5784 97.0527 22.7389 97.39 23.0618C97.7274 23.3825 97.8931 23.8531 97.8931 24.4673V24.6129H95.7117C94.5443 24.6129 93.6738 24.8535 93.1268 25.3368C92.1147 26.2505 92.0039 27.8502 92.8804 28.9076C92.9672 29.0131 93.0641 29.1123 93.1671 29.201C93.7449 29.6821 94.5081 29.9248 95.4515 29.9248C96.0292 29.9375 96.6003 29.8256 97.134 29.5977C97.4467 29.4584 97.7316 29.2558 97.9702 29.0025V29.8277H99.6702V24.5348C99.6702 23.353 99.3515 22.4413 98.7232 21.8355M97.8913 27.0378C97.7298 27.4577 97.4425 27.8123 97.0732 28.0487C96.6551 28.304 96.1786 28.4307 95.6955 28.418C95.1684 28.418 94.7563 28.304 94.4678 28.0803C94.1949 27.8798 94.0394 27.5464 94.0539 27.1981C94.0539 26.9133 94.0539 26.0437 95.7726 26.0437H97.8913V27.0378Z" fill="white"/>
<path d="M43.4278 29.8233H41.6484V22.0591L43.4278 21.0482V29.8233Z" fill="white"/>
<path d="M42.5361 20.3909C42.2311 20.3993 41.9342 20.279 41.7161 20.0574C41.5 19.8442 41.3808 19.5466 41.3849 19.2365C41.3808 18.9241 41.5 18.6244 41.7141 18.4071C41.9322 18.1791 42.2291 18.0546 42.5361 18.063C42.839 18.0546 43.1339 18.1707 43.3561 18.388C43.5722 18.597 43.6934 18.8924 43.6893 19.2006C43.6953 19.5171 43.5762 19.8231 43.3601 20.0447C43.144 20.2727 42.845 20.3993 42.5381 20.3909" fill="white"/>
</svg>
