<svg width="100" height="46" viewBox="0 0 100 46" fill="none" xmlns="http://www.w3.org/2000/svg">
<g clip-path="url(#clip0_158_1059)">
<path d="M35.3097 20.2663C35.1585 19.1592 34.546 18.1988 33.4335 17.3297L32.7935 16.9007L32.365 17.5456C31.8183 18.3759 31.5437 19.53 31.6343 20.6344C31.6755 21.0218 31.8019 21.7193 32.1974 22.3282C31.8019 22.5441 31.0217 22.8403 29.9835 22.8181H10.1125L10.0741 23.0478C9.88726 24.1577 9.89001 27.6229 12.1232 30.2855C13.8208 32.3087 16.3644 33.3356 19.6827 33.3356C26.8795 33.3356 32.2057 29.9977 34.6998 23.928C35.6805 23.9474 37.7928 23.9335 38.8778 21.8467C38.9053 21.7996 38.9712 21.6723 39.1607 21.2765L39.2651 21.0606L38.6553 20.651C37.9961 20.2054 36.4798 20.0421 35.3124 20.2663H35.3097ZM26.0005 12.8571H22.9789V15.6248H26.0005V12.8571ZM26.0005 16.1783H22.9789V18.9461H26.0005V16.1783ZM22.4295 16.1783H19.4079V18.9461H22.4295V16.1783ZM18.8586 16.1783H15.837V18.9461H18.8586V16.1783ZM15.2876 19.4996H12.2661V22.2674H15.2876V19.4996ZM18.8586 19.4996H15.837V22.2674H18.8586V19.4996ZM22.4295 19.4996H19.4079V22.2674H22.4295V19.4996ZM26.0005 19.4996H22.9789V22.2674H26.0005V19.4996ZM29.5714 19.4996H26.5499V22.2674H29.5714V19.4996ZM47.9343 18.8796C47.7118 18.8796 47.5305 18.9544 47.3849 19.1011C47.2393 19.2478 47.1679 19.436 47.1679 19.6601V23.4049C46.4207 22.7905 45.5583 22.4805 44.5776 22.4805C43.4377 22.4805 42.4625 22.8901 41.6549 23.7121C40.8473 24.5314 40.4463 25.5222 40.4463 26.6847C40.4463 27.8471 40.8501 28.8352 41.6549 29.6572C42.4625 30.4765 43.4349 30.8889 44.5776 30.8889C45.7203 30.8889 46.6817 30.4792 47.5003 29.6572C48.3079 28.8462 48.7089 27.8554 48.7089 26.6847V19.6601C48.7089 19.436 48.6347 19.2478 48.4837 19.1011C48.3326 18.9544 48.1513 18.8796 47.9343 18.8796ZM46.9647 27.7032C46.8301 28.0215 46.646 28.301 46.4125 28.5391C46.1791 28.7799 45.9043 28.9681 45.5912 29.1092C45.2753 29.2504 44.9402 29.3195 44.5803 29.3195C44.2205 29.3195 43.8771 29.2504 43.5613 29.1092C43.2454 28.9681 42.9734 28.7799 42.7427 28.5418C42.5119 28.3038 42.3279 28.0243 42.1933 27.706C42.0587 27.3849 41.9901 27.0445 41.9901 26.6847C41.9901 26.3248 42.0587 25.9844 42.1933 25.6633C42.3279 25.3423 42.5119 25.0655 42.7427 24.8275C42.9734 24.5895 43.2481 24.4013 43.5613 24.2601C43.8771 24.1189 44.215 24.0498 44.5803 24.0498C44.9457 24.0498 45.2753 24.1189 45.5912 24.2601C45.9071 24.4013 46.1791 24.5895 46.4125 24.8303C46.646 25.0711 46.8301 25.3506 46.9647 25.6661C47.0993 25.9844 47.1679 26.3221 47.1679 26.6819C47.1679 27.0417 47.0993 27.3822 46.9647 27.6977V27.7032ZM81.7047 23.7149C80.8887 22.8956 79.9133 22.4832 78.782 22.4832C77.65 22.4832 76.6667 22.8928 75.8591 23.7149C75.0515 24.5341 74.6505 25.525 74.6505 26.6874C74.6505 27.8499 75.0543 28.838 75.8591 29.66C76.6667 30.4792 77.6393 30.8916 78.782 30.8916C79.82 30.8916 80.718 30.5512 81.482 29.8703C81.63 29.7153 81.7047 29.5271 81.7047 29.3085C81.7047 29.0898 81.6333 28.8961 81.4873 28.7494C81.342 28.6027 81.158 28.528 80.938 28.528C80.746 28.5335 80.5753 28.5972 80.43 28.7245C80.1993 28.9238 79.9493 29.076 79.6773 29.1756C79.4053 29.2752 79.1087 29.3251 78.7847 29.3251C78.4987 29.3251 78.224 29.2808 77.9633 29.1895C77.702 29.0981 77.458 28.9736 77.2407 28.8103C77.0207 28.647 76.8313 28.4533 76.6693 28.2236C76.5073 27.9966 76.3837 27.7447 76.3013 27.468H82.144C82.3607 27.468 82.542 27.3932 82.6933 27.2465C82.8447 27.0999 82.9187 26.9117 82.9187 26.6874C82.9187 26.1062 82.8167 25.5665 82.6167 25.0711C82.416 24.5729 82.1107 24.1217 81.71 23.7177L81.7047 23.7149ZM76.2958 25.9069C76.3755 25.6329 76.4963 25.381 76.6584 25.1513C76.8207 24.9244 77.0127 24.7278 77.2327 24.5646C77.4553 24.4013 77.6967 24.2767 77.9633 24.1854C78.2293 24.0941 78.5013 24.0498 78.782 24.0498C79.062 24.0498 79.334 24.0941 79.5973 24.1854C79.8613 24.2767 80.1033 24.4013 80.32 24.5646C80.54 24.7278 80.732 24.9216 80.894 25.1513C81.0587 25.3783 81.1827 25.6302 81.268 25.9069H76.2958ZM89.7967 23.0091C89.6593 22.8735 89.486 22.7683 89.2773 22.6908C89.0687 22.6133 88.8407 22.5607 88.5907 22.5303C88.3433 22.4999 88.11 22.486 87.8933 22.486C87.4013 22.486 86.94 22.5662 86.506 22.7268C86.072 22.8873 85.6707 23.1171 85.3027 23.4159V23.2665C85.3027 23.0506 85.2287 22.868 85.0773 22.7157C84.9267 22.5635 84.748 22.486 84.5367 22.486C84.3247 22.486 84.138 22.5635 83.9873 22.7157C83.836 22.868 83.762 23.0534 83.762 23.2665V30.1111C83.762 30.327 83.836 30.5097 83.9873 30.6619C84.138 30.8141 84.3193 30.8916 84.5367 30.8916C84.7533 30.8916 84.9293 30.8141 85.0773 30.6619C85.2287 30.5097 85.3027 30.3242 85.3027 30.1111V26.6874C85.3027 26.3221 85.3713 25.9789 85.506 25.6578C85.6407 25.3367 85.8247 25.06 86.058 24.822C86.292 24.5839 86.5667 24.3957 86.8793 24.2601C87.1953 24.1217 87.5307 24.0526 87.8907 24.0526C88.25 24.0526 88.5907 24.1162 88.9013 24.2408C89.0247 24.2961 89.132 24.3238 89.2253 24.3238C89.3327 24.3238 89.434 24.3044 89.5273 24.2629C89.6207 24.2214 89.7033 24.166 89.772 24.0941C89.8407 24.0221 89.8953 23.9391 89.9367 23.8422C89.978 23.7481 90 23.6457 90 23.535C90 23.3191 89.9313 23.1447 89.794 23.0091H89.7967ZM56.6391 23.7149C55.8233 22.8956 54.8482 22.4832 53.7165 22.4832C52.5847 22.4832 51.6014 22.8928 50.7938 23.7149C49.9862 24.5341 49.5852 25.525 49.5852 26.6874C49.5852 27.8499 49.9889 28.838 50.7938 29.66C51.6014 30.4792 52.5738 30.8916 53.7165 30.8916C54.8592 30.8916 55.8206 30.482 56.6391 29.66C57.4467 28.849 57.8478 27.8582 57.8478 26.6874C57.8423 26.1062 57.7407 25.5692 57.5429 25.0739C57.3423 24.5784 57.0429 24.1245 56.6391 23.7149ZM56.1035 27.7032C55.9689 28.0215 55.7849 28.301 55.5514 28.5391C55.3179 28.7799 55.0432 28.9681 54.7301 29.1092C54.4169 29.2504 54.0791 29.3195 53.7192 29.3195C53.3594 29.3195 53.016 29.2504 52.7001 29.1092C52.3843 28.9681 52.1123 28.7799 51.8815 28.5418C51.6508 28.3038 51.4668 28.0243 51.3322 27.706C51.1976 27.3849 51.1289 27.0445 51.1289 26.6847C51.1289 26.3248 51.1976 25.9844 51.3322 25.6633C51.4668 25.3423 51.6508 25.0655 51.8815 24.8275C52.1123 24.5895 52.387 24.4013 52.7001 24.2601C53.016 24.1189 53.3539 24.0498 53.7192 24.0498C54.0845 24.0498 54.4142 24.1189 54.7301 24.2601C55.0459 24.4013 55.3179 24.5895 55.5514 24.8303C55.7849 25.0711 55.9689 25.3506 56.1035 25.6661C56.2381 25.9844 56.3068 26.3221 56.3068 26.6819C56.3068 27.0417 56.2381 27.3822 56.1035 27.6977V27.7032ZM73.8154 23.2637C73.8154 23.1586 73.7934 23.0589 73.7522 22.9648C73.711 22.8707 73.6561 22.785 73.5874 22.7129C73.5187 22.641 73.4363 22.5829 73.3429 22.5441C73.2495 22.5054 73.1479 22.4832 73.0408 22.4832C72.8869 22.4832 72.7496 22.522 72.6287 22.6023L68.2173 25.5222V19.6657C68.2173 19.4443 68.1431 19.2588 67.992 19.1066C67.8409 18.9544 67.6624 18.8769 67.4509 18.8769C67.2393 18.8769 67.0526 18.9544 66.9015 19.1066C66.7504 19.2588 66.6763 19.4443 66.6763 19.6657V30.1001C66.6763 30.3159 66.7504 30.5014 66.9015 30.6564C67.0526 30.8113 67.2339 30.8889 67.4509 30.8889C67.6679 30.8889 67.8437 30.8113 67.992 30.6564C68.1431 30.5014 68.2173 30.3159 68.2173 30.1001V27.3904L69.1182 26.7898L72.5271 30.684C72.6645 30.8196 72.8375 30.8861 73.0435 30.8861C73.1507 30.8861 73.2523 30.8667 73.3457 30.8252C73.4391 30.7864 73.5215 30.7283 73.5901 30.6564C73.6588 30.5844 73.7137 30.5014 73.7549 30.4045C73.7962 30.3104 73.8181 30.208 73.8181 30.1056C73.8181 29.9008 73.7467 29.7181 73.6039 29.5576L70.4313 25.9236L73.5215 23.8809C73.7193 23.7453 73.8154 23.5378 73.8154 23.2582V23.2637ZM61.0067 24.822C61.2429 24.5839 61.5176 24.3957 61.8335 24.2601C62.1494 24.1217 62.4845 24.0526 62.8443 24.0526C63.1685 24.0526 63.4679 24.1079 63.7453 24.2186C64.02 24.3293 64.2837 24.4926 64.5337 24.7058C64.682 24.8247 64.8496 24.8856 65.0363 24.8856C65.2589 24.8856 65.4401 24.8109 65.5857 24.6615C65.7313 24.512 65.8027 24.3238 65.8027 24.0996C65.8027 23.8754 65.7149 23.6678 65.5363 23.5073C64.7781 22.8265 63.8799 22.486 62.8443 22.486C61.7044 22.486 60.7293 22.8956 59.9217 23.7177C59.1141 24.5369 58.7131 25.5277 58.7131 26.6902C58.7131 27.8527 59.1169 28.8407 59.9217 29.6627C60.7293 30.482 61.7017 30.8944 62.8443 30.8944C63.8772 30.8944 64.7754 30.554 65.5363 29.8731C65.6983 29.707 65.7808 29.516 65.7808 29.2947C65.7808 29.0732 65.7093 28.8823 65.5637 28.7356C65.4182 28.5889 65.2341 28.5141 65.0144 28.5141C64.8276 28.5196 64.6655 28.575 64.5282 28.6802C64.281 28.8961 64.0228 29.0566 63.7453 29.1646C63.4707 29.2725 63.1713 29.3251 62.8443 29.3251C62.4845 29.3251 62.1494 29.2559 61.8335 29.1175C61.5176 28.9791 61.2429 28.7909 61.0067 28.5557C60.7705 28.3204 60.5837 28.0381 60.4491 27.7198C60.3145 27.3987 60.2458 27.0556 60.2458 26.6902C60.2458 26.3248 60.3145 25.9817 60.4491 25.6606C60.5837 25.3395 60.7705 25.0628 61.0067 24.8247V24.822Z" fill="white"/>
</g>
<defs>
<clipPath id="clip0_158_1059">
<rect width="80" height="20.4912" fill="white" transform="translate(10 12.8571)"/>
</clipPath>
</defs>
</svg>
