<svg width="100" height="22" viewBox="0 0 100 22" fill="none" xmlns="http://www.w3.org/2000/svg">
<path d="M2.46308 17.0907C2.02538 17.0916 1.59527 16.9764 1.21669 16.7567C0.838105 16.537 0.524626 16.2208 0.308272 15.8403C0.0952296 15.4625 -0.0110202 15.0338 0.000903842 14.6002C0.0128279 14.1667 0.142477 13.7445 0.375962 13.379L4.81343 6.41066C5.04055 6.03606 5.363 5.72856 5.74786 5.51946C6.13271 5.31036 6.56617 5.20716 7.00397 5.22036C7.44143 5.23086 7.86825 5.35736 8.24075 5.58706C8.61325 5.81666 8.91806 6.14106 9.12399 6.52716C9.53765 7.30936 9.48594 8.25046 8.99049 8.98476L4.55584 15.9531C4.33095 16.3035 4.02124 16.5915 3.65541 16.7904C3.28957 16.9892 2.87946 17.0925 2.46308 17.0907Z" fill="#111214"/>
<path d="M10.0758 17.0908C9.18077 17.0908 8.3572 16.6123 7.92474 15.8433C7.71217 15.4665 7.60617 15.0389 7.61809 14.6065C7.63002 14.1741 7.75942 13.753 7.99243 13.3885L12.4214 6.43615C12.6452 6.05635 12.9665 5.74335 13.352 5.52965C13.7375 5.31585 14.1732 5.20915 14.6139 5.22055C15.5164 5.24025 16.3343 5.74515 16.748 6.53485C17.1588 7.32455 17.0986 8.27125 16.5881 9.00365L12.1601 15.9561C11.9359 16.305 11.6274 16.5919 11.2632 16.7902C10.8989 16.9885 10.4905 17.0919 10.0758 17.0908Z" fill="#111214"/>
<path d="M17.517 17.149C18.7787 17.149 19.8015 16.1476 19.8015 14.9124C19.8015 13.6772 18.7787 12.6758 17.517 12.6758C16.2552 12.6758 15.2324 13.6772 15.2324 14.9124C15.2324 16.1476 16.2552 17.149 17.517 17.149Z" fill="#111214"/>
<path fill-rule="evenodd" clip-rule="evenodd" d="M100 5.7875H96.662L94.322 11.8204L91.9941 5.7875H88.6557L92.7143 15.3205L90.19 21.6232H93.504L100 5.7875ZM79.6971 11.0899C79.6971 12.6129 81.0283 13.6151 82.3361 13.6151C83.6212 13.6151 84.8839 12.6825 84.8839 11.0889C84.8839 9.4954 83.6212 8.5618 82.3361 8.5618C81.0283 8.5618 79.6971 9.5659 79.6971 11.0899ZM84.8839 16.413V15.2068C84.207 16.2315 82.6275 16.6189 81.8171 16.6189C79.1339 16.6189 76.4498 14.5035 76.4498 11.0889C76.4498 7.6753 79.133 5.56 81.8171 5.56C82.4931 5.56 84.0725 5.7856 84.8839 6.9702V5.7912H87.9957V16.4149L84.8839 16.413ZM75.5642 16.413H72.4524V15.093C71.9325 16.0708 70.6717 16.6405 69.363 16.6405C66.6564 16.6405 64.2656 14.4791 64.2656 11.1322C64.2656 7.7223 66.6564 5.5581 69.363 5.5581C70.6698 5.5581 71.9343 6.1034 72.4524 7.0821V0H75.5642V16.413ZM72.3847 11.0654C72.3847 9.4728 71.2349 8.5393 69.9497 8.5393C68.6185 8.5393 67.5128 9.5405 67.5128 11.0654C67.5128 12.6392 68.6185 13.6358 69.9488 13.6358C71.2584 13.6377 72.3847 12.5904 72.3847 11.0654ZM56.5715 10.7909C56.5715 9.1758 57.4063 8.6295 58.511 8.6295C59.5705 8.6295 60.3377 9.3346 60.3377 10.7449V16.4111H63.4721V10.0633C63.4721 7.0379 61.9829 5.5581 59.6147 5.5581C58.3747 5.5581 57.1346 6.2632 56.5705 7.3331V5.7875H53.438V16.4111H56.5715V10.7909ZM47.0732 16.5935C44.0967 16.5935 41.6138 14.4095 41.6138 11.0645C41.6138 7.7176 44.0939 5.5553 47.0732 5.5553C50.0525 5.5553 52.5542 7.7176 52.5542 11.0645C52.5542 14.4114 50.0497 16.5935 47.0732 16.5935ZM47.0732 13.5004C48.38 13.5004 49.464 12.5433 49.464 11.0654C49.464 9.6317 48.381 8.653 47.0732 8.653C46.7583 8.6481 46.4457 8.7073 46.1545 8.8271C45.8632 8.9469 45.5994 9.1247 45.3791 9.3497C45.1575 9.5759 44.9836 9.8444 44.8678 10.1391C44.752 10.4339 44.6966 10.7489 44.705 11.0654C44.7059 12.5452 45.788 13.5004 47.0732 13.5004ZM35.9946 8.6305C36.9187 8.6305 37.731 9.3591 37.731 10.7458V16.413H40.8429V10.3791C40.8429 7.1714 39.2832 5.5562 36.7834 5.5562C36.0406 5.5562 34.6417 5.7818 33.6264 7.444C33.0397 6.2152 31.9125 5.5778 30.2465 5.5778C29.6681 5.5749 29.1011 5.7386 28.6133 6.0494C28.1255 6.3601 27.7375 6.8048 27.4957 7.3303V5.7884H24.3594V16.412H27.4929V10.7909C27.4929 9.1758 28.3728 8.6295 29.3196 8.6295C30.2221 8.6295 31.0325 9.3346 31.056 10.6772V16.412H34.1904V10.7909C34.1904 9.2463 35.0027 8.6305 35.9946 8.6305Z" fill="#111214"/>
</svg>
