<?xml version="1.0" encoding="UTF-8"?>
<svg xmlns="http://www.w3.org/2000/svg" width="101" height="46" viewBox="0 0 101 46" fill="none">
  <g clip-path="url(#clip0_119_1151)">
    <path fill-rule="evenodd" clip-rule="evenodd" d="M3.55265 28.5941C2.94874 29.127 2.41588 29.0559 1.88302 29.127C1.38569 29.127 0.923875 29.3401 0.533112 29.6598C-0.141844 30.3703 -0.141844 31.5071 0.568636 32.182C1.24359 32.857 2.34483 32.857 3.01979 32.182C3.33951 31.7913 3.51713 31.3295 3.51713 30.8321C3.55265 30.2993 3.55265 29.7309 4.04999 29.1625C4.61837 28.6652 5.18675 28.6652 5.71961 28.6296C6.21695 28.6296 6.67876 28.4165 7.06952 28.0968C7.74448 27.3863 7.74448 26.2495 7.034 25.5746C6.35904 24.8996 5.2578 24.8996 4.58285 25.5746C4.26313 25.9653 4.08551 26.4272 4.04999 26.9245C3.97894 27.4573 4.08551 27.9902 3.55265 28.5941Z" fill="white"></path>
    <path fill-rule="evenodd" clip-rule="evenodd" d="M15.666 16.4094C15.0621 16.9423 14.5293 16.8712 13.9964 16.9423C13.4991 16.9778 13.0372 17.1554 12.6465 17.4751C12.0426 18.2211 12.1492 19.3579 12.8952 19.9618C13.5346 20.4947 14.4937 20.4947 15.1332 19.9618C15.4529 19.5711 15.6305 19.1092 15.666 18.6119C15.7015 18.079 15.7015 17.5107 16.1989 16.9423C16.7673 16.4449 17.3357 16.4449 17.8685 16.4094C18.3658 16.4094 18.8277 16.1963 19.2184 15.8766C19.8579 15.1306 19.8223 14.0293 19.0763 13.3544C18.4014 12.7505 17.3712 12.7505 16.6962 13.3544C16.3765 13.7451 16.1989 14.2069 16.1634 14.7043C16.1278 15.2727 16.1989 15.8055 15.666 16.4094Z" fill="white"></path>
    <path fill-rule="evenodd" clip-rule="evenodd" d="M15.6664 29.1626C16.1992 29.7665 16.1282 30.2993 16.1992 30.8322C16.1992 31.3295 16.4124 31.7913 16.7321 32.1821C17.4426 32.8571 18.5793 32.8571 19.2543 32.1466C19.9293 31.4716 19.9293 30.3704 19.2543 29.6954C18.8635 29.3757 18.4017 29.1981 17.9044 29.1626C17.3715 29.127 16.8031 29.127 16.2348 28.6297C15.7374 28.0613 15.7374 27.4929 15.7019 26.9601C15.7019 26.4627 15.4888 26.0009 15.169 25.6102C14.4586 24.9352 13.3218 24.9352 12.6468 25.6457C11.9719 26.3206 11.9719 27.4219 12.6468 28.0968C13.0376 28.4166 13.4994 28.5942 13.9968 28.6297C14.5296 28.7008 15.0625 28.6297 15.6664 29.1626Z" fill="white"></path>
    <path fill-rule="evenodd" clip-rule="evenodd" d="M3.55188 16.9423C4.08474 17.5462 4.01369 18.0791 4.08474 18.6119C4.08474 19.1093 4.26236 19.5711 4.58208 19.9619C5.18598 20.7434 6.32275 20.85 7.06876 20.2461C7.81476 19.6421 7.95685 18.5054 7.35295 17.7594C7.2819 17.6528 7.17533 17.5818 7.06876 17.4752C6.67799 17.1555 6.21618 16.9778 5.71884 16.9423C5.18598 16.9068 4.6176 16.9068 4.04922 16.4095C3.55188 15.8411 3.55188 15.2727 3.51636 14.7398C3.51636 14.2425 3.33874 13.7452 2.9835 13.3899C2.27302 12.715 1.13625 12.715 0.461295 13.4254C-0.213661 14.1004 -0.213661 15.2016 0.461295 15.8766C0.923107 16.2318 1.38492 16.4095 1.88225 16.4095C2.41511 16.4805 2.94797 16.4095 3.55188 16.9423Z" fill="white"></path>
    <path fill-rule="evenodd" clip-rule="evenodd" d="M9.87558 24.8997C11.0479 24.8997 12.007 23.9405 12.007 22.7682C12.007 21.5959 11.0479 20.6368 9.87558 20.6368C8.70329 20.6368 7.74414 21.5959 7.74414 22.7682C7.74414 23.976 8.66776 24.8997 9.87558 24.8997Z" fill="white"></path>
    <path d="M30.6939 24.8641L29.9479 26.6758C29.8769 26.889 29.6637 27.0311 29.4506 27.0311H29.0243C28.7756 27.0311 28.5625 26.8179 28.5625 26.5693C28.5625 26.4982 28.5625 26.4627 28.598 26.3916L31.7597 18.8961C31.8307 18.6829 32.0439 18.5408 32.257 18.5408H32.8254C33.0385 18.5408 33.2517 18.6829 33.3227 18.8961L36.4843 26.3916C36.5199 26.4627 36.5199 26.4982 36.5199 26.5693C36.5199 26.8179 36.3067 27.0311 36.0581 27.0311H35.5252C35.3121 27.0311 35.0989 26.889 35.0279 26.6758L34.2819 24.8641H30.6939ZM31.2623 23.4787H33.749L32.5057 20.4591L31.2623 23.4787Z" fill="white"></path>
    <path d="M43.5524 21.6315L45.3996 18.8606C45.5417 18.683 45.7549 18.5764 45.968 18.5409H46.5364C46.7851 18.5409 46.9627 18.7185 46.9627 18.9672C46.9627 19.0382 46.9272 19.1448 46.8917 19.2158L44.5115 22.6972L46.9982 26.3561C47.0338 26.4272 47.0693 26.4982 47.0693 26.6048C47.0693 26.8535 46.8917 27.0311 46.643 27.0311H46.0746C45.8615 27.0311 45.6483 26.9245 45.5062 26.7469L43.5169 23.8695L41.5631 26.7114C41.421 26.889 41.2078 26.9956 40.9947 26.9956H40.4263C40.1776 26.9956 40 26.818 40 26.5693C40 26.4982 40.0355 26.3917 40.071 26.3206L42.5577 22.6616L40.1776 19.1803C40.1421 19.1092 40.1066 19.0382 40.1066 18.9316C40.1066 18.683 40.2842 18.5053 40.5329 18.5053H41.1012C41.3144 18.5053 41.5275 18.6119 41.6696 18.8251L43.5524 21.6315Z" fill="white"></path>
    <path d="M54.8503 18.4343C57.3725 18.4343 59.2553 20.1749 59.2553 22.8037C59.3263 25.1483 57.4435 27.1021 55.0989 27.1732C55.0279 27.1732 54.9213 27.1732 54.8503 27.1732C52.3281 27.1732 50.4453 25.4325 50.4453 22.8392C50.3743 20.4947 52.257 18.5408 54.6016 18.4698C54.6727 18.4343 54.7437 18.4343 54.8503 18.4343ZM54.8503 25.7522C56.6265 25.7522 57.6922 24.4378 57.6922 22.7682C57.6922 21.0275 56.4489 19.7842 54.8503 19.7842C53.2517 19.7842 52.0084 20.992 52.0084 22.7682C51.9373 24.3312 53.1451 25.6456 54.7082 25.7167C54.7437 25.7522 54.7792 25.7522 54.8503 25.7522Z" fill="white"></path>
    <path d="M70.5507 18.5764C70.7994 18.5764 70.977 18.7895 71.0125 19.0382V26.6048C71.0125 26.8534 70.7994 27.0311 70.5507 27.0666H70.1244C69.9113 27.0666 69.6981 26.96 69.5916 26.7824L65.1866 21.2051V26.6048C65.1866 26.8534 64.9734 27.0311 64.7248 27.0666H64.2274C63.9788 27.0666 63.8011 26.8534 63.7656 26.6048V19.0026C63.7656 18.754 63.9788 18.5764 64.2274 18.5408H64.6537C64.8669 18.5408 65.08 18.6474 65.1866 18.825L69.6271 24.4378V19.0026C69.6271 18.754 69.8402 18.5764 70.0889 18.5408H70.5507V18.5764Z" fill="white"></path>
    <path d="M77.8693 26.5693C77.8693 26.8179 77.6562 26.9955 77.4075 27.0311H76.8036C76.5549 27.0311 76.3773 26.8179 76.3418 26.5693V19.0026C76.3418 18.754 76.5549 18.5764 76.8036 18.5408H77.4075C77.6562 18.5408 77.8338 18.754 77.8693 19.0026V26.5693Z" fill="white"></path>
    <path d="M88.5973 19.0026C88.5973 18.754 88.8104 18.5764 89.0591 18.5408H89.6275C89.8761 18.5408 90.0538 18.754 90.0893 19.0026V23.5142C90.0893 26.1074 88.5262 27.1376 86.75 27.1376C84.6541 27.1376 83.1621 25.8943 83.1621 23.4076V19.0026C83.1621 18.754 83.3752 18.5764 83.6239 18.5408H84.2278C84.4765 18.5408 84.6541 18.754 84.6896 19.0026V23.1234C84.6896 24.6865 85.3291 25.7522 86.7856 25.7522C88.0644 25.7522 88.6683 24.8641 88.6683 23.1945L88.5973 19.0026Z" fill="white"></path>
    <path d="M95.0259 25.0773C95.0969 25.0062 95.2035 24.9352 95.3456 24.9352C95.4877 24.9352 95.5943 24.9707 95.7009 25.0773C96.1271 25.468 96.66 25.7167 97.2284 25.7522C97.9389 25.7522 98.4717 25.397 98.4717 24.7576C98.4717 23.0879 94.6351 23.5142 94.6351 20.7434C94.6351 19.4645 95.6298 18.3988 97.2639 18.3988C97.9744 18.3988 98.6849 18.5764 99.2888 18.9316C99.4309 19.0027 99.5019 19.1448 99.5019 19.3224C99.5019 19.3934 99.4664 19.4645 99.4309 19.5355L99.2177 19.9263C99.1467 20.0684 98.9691 20.175 98.827 20.175C98.7559 20.175 98.6849 20.175 98.6138 20.1394C98.2231 19.9618 97.8323 19.8197 97.406 19.8197C96.66 19.8197 96.2337 20.175 96.2337 20.7434C96.2337 22.484 100.07 21.9512 100.07 24.7576C100.07 26.1785 98.827 27.1377 97.2284 27.1377C96.3048 27.1377 95.3811 26.7824 94.7417 26.1075C94.6351 26.0009 94.5996 25.8943 94.5996 25.7522C94.5996 25.6457 94.6351 25.5391 94.7062 25.468L95.0259 25.0773Z" fill="white"></path>
  </g>
  <defs>
    <clipPath id="clip0_119_1151">
      <rect width="100" height="19.8579" fill="white" transform="translate(0 12.8571)"></rect>
    </clipPath>
  </defs>
</svg>
