<svg width="100" height="46" viewBox="0 0 100 46" fill="none" xmlns="http://www.w3.org/2000/svg">
<g clip-path="url(#clip0_158_1050)">
<path d="M56.9506 17.809C55.4157 17.809 54.2727 18.5627 54.2727 20.3765C54.2727 21.7432 55.0261 22.6919 56.868 22.6919C58.4291 22.6919 59.4894 21.772 59.4894 20.3201C59.4894 18.6747 58.5406 17.809 56.9506 17.809ZM53.8809 30.616C53.5177 31.0618 53.1558 31.5354 53.1558 32.0943C53.1558 33.2094 54.5778 33.545 56.5312 33.545C58.1493 33.545 60.3535 33.4317 60.3535 31.9272C60.3535 31.033 59.2931 30.9776 57.9532 30.8936L53.8809 30.616ZM62.1388 17.8934C62.6401 18.5352 63.171 19.4281 63.171 20.7115C63.171 23.8081 60.7437 25.6214 57.2293 25.6214C56.3356 25.6214 55.5265 25.5101 55.0249 25.3708L54.1039 26.8492L56.8376 27.0162C61.6645 27.3237 64.5093 27.4635 64.5093 31.1727C64.5093 34.3819 61.6922 36.1942 56.8376 36.1942C51.7882 36.1942 49.8633 34.9107 49.8633 32.7071C49.8633 31.4511 50.4214 30.7831 51.3978 29.861C50.4769 29.4717 50.1704 28.7746 50.1704 28.021C50.1704 27.4068 50.4769 26.849 50.9798 26.3186C51.4818 25.789 52.0396 25.2582 52.7092 24.6446C51.3424 23.9752 50.3099 22.5244 50.3099 20.4597C50.3099 17.2518 52.4304 15.0486 56.698 15.0486C57.8978 15.0486 58.6236 15.159 59.2653 15.3275H64.7058V17.6982L62.1388 17.8934Z" fill="white"/>
<path d="M69.6192 12.8238C68.0286 12.8238 67.1083 11.9023 67.1083 10.3115C67.1083 8.72269 68.0286 7.85718 69.6192 7.85718C71.2374 7.85718 72.1581 8.72269 72.1581 10.3115C72.1581 11.9023 71.2374 12.8238 69.6192 12.8238ZM66.0197 29.5893V27.3864L67.443 27.1917C67.8338 27.1351 67.8892 27.0521 67.8892 26.6326V18.4306C67.8892 18.1244 67.8059 17.9283 67.5261 17.8452L66.0197 17.3147L66.3265 15.0557H72.102V26.6328C72.102 27.08 72.1289 27.1353 72.5485 27.1919L73.9715 27.3866V29.5895H66.0195" fill="white"/>
<path d="M85.0029 28.5082C83.8027 29.0933 82.0455 29.6235 80.4545 29.6235C77.1348 29.6235 75.8797 28.2856 75.8797 25.1318V17.823C75.8797 17.656 75.8797 17.5439 75.6557 17.5439H73.7031V15.0611C76.1589 14.7814 77.1347 13.5536 77.4416 10.5127H80.0923V14.4756C80.0923 14.6702 80.0923 14.7545 80.3157 14.7545H84.2491V17.5439H80.0923V24.2112C80.0923 25.8575 80.4834 26.4986 81.9891 26.4986C82.7712 26.4986 83.5794 26.3039 84.249 26.0526L85.0029 28.5082Z" fill="white"/>
<path d="M43.6657 21.1868L30.9087 8.43137C30.1747 7.6967 28.9832 7.6967 28.2483 8.43137L25.5995 11.0805L28.9594 14.4405C29.7406 14.1767 30.6359 14.3536 31.2582 14.976C31.8838 15.6024 32.0594 16.5053 31.789 17.2891L35.0274 20.5275C35.8109 20.2575 36.7149 20.4319 37.3405 21.0586C38.2151 21.933 38.2151 23.3499 37.3405 24.2245C36.4657 25.0994 35.0489 25.0994 34.1736 24.2245C33.5159 23.5663 33.3533 22.6 33.6864 21.7897L30.6662 18.7695L30.6659 26.7171C30.8792 26.8227 31.0804 26.9636 31.2581 27.1405C32.1325 28.0148 32.1325 29.4313 31.2581 30.3071C30.3835 31.1813 28.966 31.1813 28.0922 30.3071C27.2177 29.4314 27.2177 28.0148 28.0922 27.1405C28.3084 26.9247 28.5584 26.7614 28.8253 26.652V18.6306C28.5583 18.5216 28.3085 18.3595 28.0921 18.142C27.4297 17.4801 27.2702 16.5079 27.6099 15.6945L24.2976 12.3817L15.5512 21.1279C14.8163 21.8631 14.8163 23.0546 15.5512 23.7893L28.3074 36.5447C29.0418 37.2794 30.2329 37.2794 30.9683 36.5447L43.6656 23.8496C44.4002 23.1145 44.4002 21.9227 43.6656 21.1879" fill="white"/>
</g>
<defs>
<clipPath id="clip0_158_1050">
<rect width="70" height="29.2376" fill="white" transform="translate(15 7.85727)"/>
</clipPath>
</defs>
</svg>
