<svg width="101" height="46" viewBox="0 0 101 46" fill="none" xmlns="http://www.w3.org/2000/svg">
<path d="M19.6166 21.4002L18.4185 22.4865C18.3866 22.5184 18.3706 22.5504 18.3546 22.5983C18.3227 22.7421 18.4026 22.8858 18.5463 22.9178L20.0639 23.3491C20.0958 23.0136 20.0798 22.6782 20 22.3427C19.9201 22.0072 19.7923 21.6878 19.6166 21.4002Z" fill="white"/>
<path d="M16.534 23.381L16.9653 23.5886L17.3966 23.381L17.5085 22.9177L17.2049 22.5343H16.7098L16.4062 22.9177L16.534 23.381Z" fill="white"/>
<path d="M16.199 21.7836C16.3428 21.7836 16.4706 21.6717 16.4706 21.528L16.5664 19.9306L16.247 19.9945C15.6879 20.1223 15.1767 20.4098 14.7773 20.8091L16.0712 21.7516C16.1192 21.7676 16.1511 21.7836 16.199 21.7836Z" fill="white"/>
<path d="M18.1612 23.8442C18.0334 23.9081 17.9854 24.0359 18.0174 24.1637L18.6404 25.6493C19.0238 25.4097 19.3592 25.0742 19.5988 24.6909C19.7266 24.5151 19.8225 24.3075 19.9023 24.0838L18.3049 23.8123C18.257 23.8123 18.2091 23.8283 18.1612 23.8442Z" fill="white"/>
<path d="M23.9768 24.0838L22.7628 18.8603C22.6829 18.6048 22.4912 18.3971 22.2516 18.2693L17.3796 15.9371C17.2518 15.8732 17.108 15.8572 16.9802 15.8572C16.8524 15.8572 16.7087 15.8572 16.5809 15.8892L11.7088 18.2374C11.4692 18.3492 11.2935 18.5568 11.2296 18.8284L10.0156 24.0838C9.96764 24.3554 10.0315 24.627 10.1913 24.8506L13.5618 29.0198C13.7535 29.2115 14.025 29.3393 14.2966 29.3553H19.6798C19.9674 29.3872 20.2389 29.2594 20.4146 29.0198L23.7851 24.8506C23.9449 24.627 24.0088 24.3554 23.9768 24.0838ZM21.9961 24.4193C21.9641 24.4193 21.9481 24.4193 21.9162 24.4033C21.9002 24.3873 21.9002 24.3873 21.8842 24.3873C21.8523 24.3873 21.8363 24.3714 21.8203 24.3714C21.7564 24.3554 21.7085 24.3394 21.6446 24.3075C21.6127 24.3075 21.5807 24.2915 21.5488 24.2755H21.5328C21.3731 24.2116 21.1974 24.1637 21.0216 24.1318H21.0057C20.9577 24.1318 20.9098 24.1477 20.8779 24.1797C20.8779 24.1797 20.8779 24.1957 20.8619 24.1957L20.7341 24.1797C20.4306 25.0902 19.8236 25.857 18.9929 26.3521L19.0409 26.4799C19.0409 26.4799 19.0249 26.4799 19.0249 26.4959C18.9929 26.5438 18.9929 26.6077 19.0089 26.6557C19.0728 26.8154 19.1527 26.9751 19.2645 27.1189V27.1349C19.2965 27.1668 19.3124 27.1828 19.3284 27.2147C19.3763 27.2627 19.4083 27.3106 19.4402 27.3745C19.4562 27.3905 19.4722 27.4064 19.4722 27.4224C19.4722 27.4224 19.4881 27.4224 19.4881 27.4384C19.5201 27.5183 19.5201 27.6141 19.5041 27.694C19.4881 27.7738 19.4242 27.8377 19.3603 27.8697C19.3124 27.8857 19.2805 27.9016 19.2326 27.9016C19.1048 27.9016 18.9929 27.8218 18.929 27.7099C18.9131 27.7099 18.9131 27.694 18.9131 27.694C18.8971 27.678 18.8971 27.662 18.8811 27.646C18.8492 27.5981 18.8332 27.5342 18.8172 27.4703L18.7853 27.3745V27.3585C18.7214 27.1988 18.6575 27.039 18.5776 26.8793C18.5457 26.8314 18.4978 26.7994 18.4498 26.7834C18.4498 26.7675 18.4498 26.7675 18.4339 26.7675L18.37 26.6557C18.2102 26.7036 18.0345 26.7675 17.8588 26.7994C17.5713 26.8633 17.2837 26.8953 16.9962 26.8953C16.517 26.8953 16.0537 26.8154 15.6065 26.6397L15.5426 26.7675C15.5426 26.7834 15.5426 26.7834 15.5266 26.7834C15.4787 26.7994 15.4307 26.8314 15.3988 26.8793C15.3189 27.039 15.2391 27.1988 15.1911 27.3745L15.1592 27.4703C15.1432 27.5342 15.1113 27.5821 15.0953 27.646C15.0793 27.662 15.0633 27.678 15.0633 27.694C15.0474 27.694 15.0474 27.7099 15.0474 27.7099C14.9835 27.8218 14.8717 27.9016 14.7439 27.9016C14.6959 27.9016 14.648 27.8857 14.6161 27.8697C14.4723 27.7898 14.4084 27.5981 14.4883 27.4384C14.5043 27.4384 14.5043 27.4224 14.5043 27.4224C14.5202 27.4064 14.5202 27.3905 14.5362 27.3745C14.5841 27.3106 14.6161 27.2467 14.648 27.2147C14.68 27.1828 14.6959 27.1668 14.7119 27.1349V27.1189C14.8078 26.9751 14.9036 26.8154 14.9675 26.6557C14.9835 26.6077 14.9835 26.5438 14.9515 26.4959C14.9515 26.4959 14.9356 26.4959 14.9356 26.4799L14.9994 26.3521C14.8397 26.2723 14.7119 26.1764 14.5682 26.0646C13.9452 25.5854 13.4979 24.9305 13.2583 24.1957L13.1145 24.2116C13.1145 24.2116 13.1145 24.1957 13.0985 24.1957C13.0666 24.1637 13.0187 24.1477 12.9708 24.1477H12.9548C12.7791 24.1797 12.6034 24.2276 12.4436 24.2915H12.4276C12.3957 24.2915 12.3637 24.3075 12.3318 24.3235C12.2839 24.3394 12.22 24.3714 12.1561 24.3873C12.1241 24.3873 12.0922 24.3873 12.0922 24.4033C12.0922 24.4193 12.0922 24.4193 12.0762 24.4193C12.0443 24.4353 12.0283 24.4353 11.9963 24.4353C11.8526 24.4512 11.7088 24.3554 11.6769 24.2116C11.6449 24.0359 11.7567 23.8762 11.9324 23.8442C11.9484 23.8283 11.9484 23.8283 11.9644 23.8283C11.9963 23.8283 12.0123 23.8123 12.0283 23.8123C12.0922 23.8123 12.1561 23.7963 12.22 23.7963C12.2519 23.7803 12.2839 23.7803 12.3158 23.7803H12.3318C12.5235 23.7644 12.6992 23.7324 12.8749 23.6845C12.9228 23.6525 12.9708 23.6206 12.9867 23.5727C12.9867 23.5727 13.0027 23.5727 13.0027 23.5567L13.1305 23.5248C12.9867 22.6142 13.1784 21.6877 13.6736 20.905C13.6896 20.8731 13.7056 20.8571 13.7215 20.8251L13.6257 20.7293V20.7133C13.6417 20.6654 13.6097 20.6015 13.5778 20.5696C13.434 20.4577 13.2902 20.3619 13.1305 20.2661C13.0985 20.2501 13.0666 20.2341 13.0346 20.2181C12.9708 20.1862 12.9069 20.1542 12.8589 20.1223C12.843 20.1223 12.811 20.0903 12.811 20.0903C12.811 20.0903 12.811 20.0744 12.795 20.0744C12.6672 19.9626 12.6353 19.7709 12.7311 19.6271C12.795 19.5472 12.8749 19.5153 12.9708 19.5153C13.0506 19.5153 13.1305 19.5472 13.1944 19.5952C13.1944 19.5952 13.1944 19.5952 13.2104 19.6111C13.2263 19.6271 13.2423 19.6271 13.2583 19.6431C13.3062 19.691 13.3382 19.7389 13.3861 19.7868C13.402 19.8028 13.434 19.8188 13.45 19.8507C13.5778 19.9785 13.7056 20.1063 13.8493 20.2181C13.8653 20.2341 13.9132 20.2501 13.9452 20.2501C13.9771 20.2501 13.9931 20.2341 14.0091 20.2341H14.025L14.1209 20.298C14.648 19.7389 15.3349 19.3396 16.0857 19.1798C16.2774 19.1479 16.4531 19.1159 16.6288 19.1L16.6448 18.9722L16.6607 18.9562C16.7087 18.9242 16.7246 18.8763 16.7406 18.8284C16.7406 18.6367 16.7406 18.461 16.7087 18.2853V18.2693C16.7087 18.2374 16.7087 18.2054 16.6927 18.1735C16.6767 18.1096 16.6607 18.0457 16.6607 17.9818V17.9019C16.6607 17.822 16.6927 17.7422 16.7566 17.6783C16.8205 17.6144 16.9163 17.5824 17.0122 17.5824C17.1719 17.5824 17.2997 17.7422 17.2837 17.9019V17.9978C17.2678 18.0616 17.2678 18.1255 17.2518 18.1894C17.2518 18.2214 17.2358 18.2533 17.2358 18.2853V18.3013C17.2039 18.4929 17.2039 18.6687 17.2039 18.8444C17.2198 18.8923 17.2358 18.9402 17.2837 18.9722L17.2997 18.9881L17.3157 19.1159C18.0665 19.1958 18.8013 19.4833 19.3923 19.9466C19.5201 20.0744 19.6639 20.2022 19.7916 20.33L19.9194 20.2341C19.9354 20.2501 19.9674 20.2501 19.9833 20.2501C20.0153 20.2501 20.0472 20.2341 20.0792 20.2181C20.2229 20.1223 20.3507 19.9945 20.4785 19.8667C20.4945 19.8507 20.5264 19.8348 20.5424 19.8028C20.5744 19.7549 20.6223 19.707 20.6702 19.659C20.6862 19.659 20.7022 19.6431 20.7181 19.6271L20.7341 19.6111C20.798 19.5632 20.8779 19.5313 20.9577 19.5313C21.0376 19.5313 21.1335 19.5792 21.1814 19.6431C21.2932 19.7868 21.2613 19.9785 21.1175 20.0903C21.1175 20.0903 21.1175 20.0903 21.1015 20.1063C21.0855 20.1223 21.0696 20.1223 21.0536 20.1383C20.9897 20.1702 20.9418 20.2022 20.8779 20.2341C20.8459 20.2501 20.814 20.2661 20.782 20.282C20.6223 20.3619 20.4785 20.4737 20.3348 20.5855C20.3028 20.6175 20.2868 20.6814 20.2868 20.7293V20.7453L20.191 20.8411C20.4466 21.2405 20.6383 21.6877 20.7501 22.151C20.8459 22.6142 20.8779 23.0935 20.814 23.5567L20.9418 23.5886C20.9418 23.5886 20.9577 23.5886 20.9577 23.6046C20.9737 23.6525 21.0216 23.7005 21.0696 23.7164C21.2453 23.7644 21.437 23.7963 21.6127 23.8123H21.6287C21.6606 23.8283 21.6925 23.8283 21.7245 23.8283C21.7884 23.8283 21.8523 23.8283 21.9162 23.8442C21.9322 23.8442 21.9801 23.8442 21.9801 23.8602C21.9801 23.8762 21.9801 23.8762 21.9961 23.8762C22.1558 23.9081 22.2676 24.0359 22.3155 24.1957C22.2676 24.3235 22.1398 24.4193 21.9961 24.4193Z" fill="white"/>
<path d="M15.511 22.8219C15.6069 22.7101 15.5909 22.5504 15.4791 22.4545L14.297 21.4002C13.9456 21.9913 13.7858 22.6782 13.8497 23.3491L15.3832 22.9018C15.4471 22.8858 15.4791 22.8698 15.511 22.8219Z" fill="white"/>
<path d="M15.6049 23.8283L14.0234 24.0999C14.2471 24.7388 14.6943 25.2979 15.2534 25.6653L15.8604 24.1957C15.8924 24.1478 15.8924 24.0839 15.8764 24.036C15.8604 23.9082 15.7327 23.8283 15.6049 23.8283Z" fill="white"/>
<path d="M17.0436 24.5152C16.9318 24.4513 16.804 24.4832 16.7241 24.5791L15.9414 26.0008C16.2609 26.0966 16.6123 26.1605 16.9478 26.1605C17.1874 26.1605 17.427 26.1285 17.6506 26.0806C17.7624 26.0487 17.8583 26.0327 17.9382 26.0167L17.1714 24.627C17.1235 24.5791 17.0915 24.5471 17.0436 24.5152Z" fill="white"/>
<path d="M17.4914 21.6718C17.5713 21.7836 17.731 21.7995 17.8428 21.7357L19.1367 20.8092C18.6575 20.3299 18.0186 20.0264 17.3477 19.9466L17.4435 21.5599C17.4435 21.6079 17.4595 21.6398 17.4914 21.6718Z" fill="white"/>
<path d="M33.0352 25.3299C32.7955 25.0104 32.5559 24.7229 32.3163 24.4353C32.0927 24.1638 31.8531 23.9242 31.5975 23.6846C32.0607 23.2373 32.4761 22.79 32.8754 22.3587C33.2588 21.9274 33.6581 21.4642 34.0735 21.0009H32.0288C31.917 21.1287 31.7732 21.2885 31.6294 21.4642C31.4857 21.6399 31.3259 21.8156 31.1502 22.0233C30.9745 22.2149 30.7988 22.4066 30.6231 22.6143C30.4314 22.806 30.2876 22.9817 30.1119 23.1734V23.1894H30.0959L30.1119 23.1734V18.0937L28.3867 18.3652V27.119H30.1119V24.4513C30.3196 24.611 30.5113 24.8027 30.687 25.0104C30.8946 25.234 31.0863 25.4736 31.262 25.7133C31.4218 25.9688 31.5975 26.2084 31.7572 26.4481C31.917 26.6877 32.0607 26.8953 32.1885 27.103H34.1533C34.0255 26.8474 33.8658 26.5599 33.6741 26.2564C33.4824 25.9529 33.2588 25.6334 33.0352 25.3299Z" fill="white"/>
<path d="M30.1126 23.1893V23.1733C30.1126 23.1733 30.0966 23.1893 30.1126 23.1893Z" fill="white"/>
<path d="M38.417 20.985V25.6813C38.3052 25.7133 38.1933 25.7133 38.0496 25.7293C37.9058 25.7452 37.778 25.7452 37.6502 25.7452C37.2509 25.7293 36.9793 25.6015 36.8355 25.3619C36.6918 25.1222 36.6119 24.7229 36.6119 24.1638V20.985H34.8867V24.3555C34.8867 24.7389 34.9187 25.1382 35.0145 25.5056C35.0944 25.8411 35.2381 26.1446 35.4458 26.4161C35.6694 26.6717 35.941 26.8634 36.2605 26.9912C36.6758 27.135 37.1071 27.2148 37.5544 27.1989C38.0336 27.1989 38.5288 27.1669 39.008 27.087C39.3914 27.0391 39.7748 26.9593 40.1422 26.8634V20.985H38.417Z" fill="white"/>
<path d="M46.7729 21.7517C46.5493 21.4801 46.2618 21.2565 45.9423 21.1127C45.5749 20.937 45.1915 20.8731 44.7922 20.8731C44.5685 20.8731 44.3449 20.8891 44.1213 20.937C43.9136 20.985 43.7059 21.0488 43.5143 21.1287V18.0937L41.7891 18.3652V26.8953C41.9328 26.9592 42.1085 27.0231 42.3162 27.0551C42.5239 27.103 42.7315 27.1349 42.9392 27.1669C43.1628 27.1829 43.3865 27.2148 43.6101 27.2308C43.8337 27.2468 44.0574 27.2627 44.265 27.2627C44.7283 27.2627 45.1755 27.1988 45.6068 27.0391C45.9742 26.8953 46.3097 26.6717 46.5972 26.3842C46.8688 26.0966 47.0765 25.7612 47.2042 25.3778C47.364 24.9465 47.4279 24.4992 47.4279 24.052C47.4439 23.6047 47.38 23.1574 47.2841 22.7581C47.1883 22.3907 47.0126 22.0552 46.7729 21.7517ZM45.3193 25.282C45.0637 25.6174 44.6644 25.7931 44.2491 25.7612C44.0893 25.7612 43.9456 25.7612 43.8178 25.7452C43.69 25.7292 43.5782 25.7133 43.4983 25.6973V22.5664C43.6261 22.4865 43.7698 22.4226 43.9136 22.3907C44.0893 22.3427 44.265 22.3268 44.4407 22.3268C45.2554 22.3268 45.6707 22.8699 45.6707 23.9881C45.6867 24.4513 45.5589 24.8986 45.3193 25.282Z" fill="white"/>
<path d="M51.3738 20.8411C51.0064 20.8411 50.639 20.905 50.2876 21.0488C49.9362 21.1765 49.6327 21.3842 49.3611 21.6558C49.0736 21.9593 48.8499 22.2947 48.7062 22.6781C48.5464 23.1254 48.4506 23.6046 48.4666 24.0838C48.4666 24.4991 48.5305 24.9304 48.6263 25.3617C48.7541 25.7291 48.9458 26.0806 49.2174 26.3681C49.5049 26.6556 49.8403 26.8793 50.2237 27.023C50.687 27.1987 51.1662 27.2786 51.6614 27.2626C51.885 27.2626 52.1086 27.2467 52.3163 27.2307C52.5399 27.1987 52.7316 27.1668 52.9233 27.1348C53.099 27.1189 53.2747 27.071 53.4505 27.023C53.5782 26.9751 53.706 26.9432 53.8179 26.8793L53.5783 25.4736C53.3386 25.5694 53.0831 25.6493 52.8275 25.6972C52.524 25.7451 52.2045 25.7771 51.901 25.7771C51.4857 25.793 51.0703 25.6812 50.7189 25.4576C50.4314 25.2659 50.2557 24.9624 50.2237 24.6269H54.1373C54.1373 24.5311 54.1373 24.4352 54.1533 24.3075C54.1693 24.1797 54.1693 24.0678 54.1693 23.972C54.1693 22.9497 53.9137 22.1669 53.4185 21.6398C52.9233 21.1127 52.2364 20.8411 51.3738 20.8411ZM50.2397 23.4289C50.2557 23.2851 50.2876 23.1413 50.3355 22.9976C50.3835 22.8538 50.4633 22.726 50.5592 22.6142C50.655 22.5024 50.7828 22.4225 50.9106 22.3586C51.0703 22.2788 51.2301 22.2468 51.4058 22.2468C51.5815 22.2468 51.7412 22.2788 51.901 22.3586C52.0288 22.4225 52.1406 22.5184 52.2364 22.6302C52.3163 22.742 52.3962 22.8538 52.4281 22.9976C52.476 23.1413 52.508 23.2851 52.508 23.4289H50.2397Z" fill="white"/>
<path d="M58.7346 20.9211C58.5908 20.8891 58.463 20.8732 58.3352 20.8732C58.2234 20.8732 58.1116 20.8572 57.9998 20.8572C57.5365 20.8412 57.0573 20.8891 56.594 21.0009C56.2266 21.0808 55.8592 21.1767 55.5078 21.3045V27.087H57.233V22.4386C57.3448 22.4067 57.4566 22.3907 57.5685 22.3747C57.7122 22.3587 57.84 22.3428 57.9678 22.3428C58.1914 22.3428 58.4151 22.3587 58.6387 22.4067C58.8464 22.4386 59.0221 22.4865 59.1818 22.5185L59.4694 21.0808C59.3575 21.0329 59.2457 21.0009 59.1339 20.985C58.9901 20.953 58.8624 20.9371 58.7346 20.9211Z" fill="white"/>
<path d="M65.0792 21.6079C64.8715 21.3523 64.584 21.1606 64.2645 21.0488C63.8492 20.9051 63.4179 20.8252 62.9866 20.8412C62.5074 20.8412 62.0122 20.8731 61.5329 20.953C61.1496 21.0169 60.7662 21.0967 60.3988 21.1926L60.3828 27.055H62.108V22.3587C62.2198 22.3427 62.3316 22.3267 62.4754 22.3267C62.6192 22.3108 62.747 22.3108 62.8748 22.3108C63.2741 22.3108 63.5457 22.4386 63.6894 22.6622C63.8332 22.9018 63.9131 23.2852 63.9131 23.8443V27.055H65.6383V23.6206C65.6383 23.2373 65.6063 22.8539 65.5105 22.4865C65.4306 22.167 65.2868 21.8635 65.0792 21.6079Z" fill="white"/>
<path d="M69.855 20.8411C69.4876 20.8411 69.1202 20.905 68.7688 21.0488C68.4173 21.1765 68.1138 21.3842 67.8423 21.6558C67.5548 21.9593 67.3311 22.2947 67.1874 22.6781C67.0276 23.1254 66.9318 23.6046 66.9477 24.0838C66.9318 24.4991 66.9957 24.9304 67.1075 25.3617C67.2353 25.7291 67.427 26.0806 67.6985 26.3681C67.9861 26.6556 68.3215 26.8793 68.7049 27.023C69.1681 27.1987 69.6473 27.2786 70.1425 27.2626C70.3662 27.2626 70.5898 27.2467 70.7975 27.2307C71.0211 27.1987 71.2128 27.1668 71.4045 27.1348C71.5802 27.1189 71.7559 27.071 71.9316 27.023C72.0594 26.9751 72.1872 26.9432 72.299 26.8793L72.0594 25.4736C71.8198 25.5694 71.5642 25.6493 71.3086 25.6972C71.0051 25.7451 70.6857 25.7771 70.3821 25.7771C69.9668 25.793 69.5515 25.6812 69.2001 25.4576C68.9125 25.2659 68.7368 24.9624 68.7049 24.6269H72.6185C72.6185 24.5311 72.6345 24.4352 72.6345 24.3075C72.6505 24.1797 72.6505 24.0678 72.6505 23.972C72.6505 22.9497 72.3949 22.1669 71.8997 21.6398C71.4045 21.1127 70.7176 20.8411 69.855 20.8411ZM68.7209 23.4129C68.7368 23.2691 68.7688 23.1254 68.8167 22.9816C68.8646 22.8378 68.9445 22.7101 69.0403 22.5982C69.1362 22.4864 69.264 22.4065 69.3918 22.3426C69.5515 22.2628 69.7112 22.2308 69.887 22.2308C70.0627 22.2308 70.2224 22.2628 70.3821 22.3426C70.5099 22.4065 70.6218 22.5024 70.7176 22.6142C70.8134 22.726 70.8773 22.8538 70.9093 22.9976C70.9572 23.1413 70.9892 23.2851 70.9892 23.4289L68.7209 23.4129Z" fill="white"/>
<path d="M77.1846 25.6973C77.0088 25.7293 76.8172 25.7453 76.6255 25.7453C76.2261 25.7453 75.9705 25.6334 75.8427 25.4258C75.699 25.1702 75.6351 24.8667 75.6511 24.5632V22.4227H77.7277V20.985H75.6511V19.1959L73.9259 19.4675V24.5951C73.9099 24.9466 73.9418 25.314 74.0217 25.6654C74.1016 25.9689 74.2294 26.2564 74.4211 26.496C74.6128 26.7197 74.8683 26.9114 75.1559 27.0232C75.5233 27.1669 75.9226 27.2308 76.322 27.2149C76.6414 27.2149 76.9609 27.1829 77.2644 27.119C77.504 27.0551 77.7436 26.9912 77.9673 26.8954L77.7277 25.5536C77.552 25.6175 77.3762 25.6654 77.1846 25.6973Z" fill="white"/>
<path d="M81.5145 20.8411C81.1471 20.8411 80.7797 20.905 80.4282 21.0488C80.0768 21.1765 79.7733 21.3842 79.5017 21.6558C79.2142 21.9593 78.9906 22.2947 78.8468 22.6781C78.6871 23.1254 78.5912 23.6046 78.6072 24.0838C78.6072 24.4991 78.6711 24.9304 78.7669 25.3617C78.8947 25.7291 79.0864 26.0806 79.358 26.3681C79.6455 26.6556 79.981 26.8793 80.3643 27.023C80.8276 27.1987 81.3068 27.2786 81.802 27.2626C82.0256 27.2626 82.2493 27.2467 82.4569 27.2307C82.6806 27.1987 82.8723 27.1668 83.0639 27.1348C83.2397 27.1189 83.4154 27.071 83.5911 27.023C83.7189 26.9751 83.8467 26.9432 83.9585 26.8793L83.7189 25.4736C83.4793 25.5694 83.2237 25.6493 82.9681 25.6972C82.6646 25.7451 82.3451 25.7771 82.0416 25.7771C81.6263 25.793 81.211 25.6812 80.8595 25.4576C80.588 25.2659 80.3963 24.9624 80.3643 24.6269H84.278C84.278 24.5311 84.2939 24.4352 84.2939 24.3075C84.3099 24.1797 84.3099 24.0678 84.3099 23.972C84.3099 22.9497 84.0543 22.1669 83.5591 21.6398C83.0639 21.1127 82.3771 20.8411 81.5145 20.8411ZM80.3963 23.4129C80.4123 23.2691 80.4442 23.1254 80.4921 22.9816C80.5401 22.8378 80.6199 22.7101 80.7158 22.5982C80.8116 22.4864 80.9394 22.4065 81.0672 22.3426C81.2269 22.2628 81.3867 22.2308 81.5624 22.2308C81.7381 22.2308 81.8978 22.2628 82.0576 22.3426C82.1854 22.4065 82.2972 22.5024 82.393 22.6142C82.4729 22.726 82.5528 22.8538 82.5847 22.9976C82.6326 23.1413 82.6646 23.2851 82.6646 23.4289L80.3963 23.4129Z" fill="white"/>
<path d="M89.9013 24.7707C89.8374 24.579 89.7416 24.3873 89.5978 24.2436C89.438 24.0519 89.2464 23.9081 89.0227 23.7963C88.7192 23.6365 88.3997 23.4928 88.0803 23.381C87.8886 23.3171 87.7288 23.2532 87.617 23.1893C87.5052 23.1254 87.4094 23.0775 87.3455 23.0295C87.2816 22.9816 87.2336 22.9337 87.2017 22.8698C87.1857 22.8059 87.1697 22.742 87.1697 22.6781C87.1697 22.3746 87.4413 22.2308 87.9844 22.2308C88.24 22.2149 88.5116 22.2468 88.7671 22.2947C88.9908 22.3586 89.1984 22.4065 89.4221 22.4864L89.7256 21.1446C89.454 21.0488 89.1825 20.9849 88.9109 20.9369C88.5595 20.873 88.1921 20.8411 87.8406 20.8411C87.1058 20.8411 86.5308 21.0008 86.0995 21.3363C85.6842 21.6558 85.4445 22.1669 85.4605 22.6941C85.4605 22.9497 85.4925 23.2052 85.5883 23.4449C85.6682 23.6525 85.78 23.8282 85.9397 23.988C86.1155 24.1477 86.2912 24.2755 86.4988 24.3713C86.7225 24.4832 86.9621 24.595 87.2336 24.6908C87.5052 24.7707 87.7767 24.8985 88.0164 25.0423C88.1601 25.0902 88.256 25.2339 88.2719 25.3937C88.2879 25.5374 88.2081 25.6812 88.0803 25.7451C87.8726 25.825 87.633 25.8569 87.4093 25.841C87.0739 25.841 86.7704 25.809 86.4829 25.7771C86.1794 25.7132 85.8758 25.6173 85.5883 25.5055L85.3008 26.9112C85.5404 26.9911 85.78 27.071 86.0356 27.1348C86.4829 27.2467 86.9301 27.2946 87.3934 27.2786C88.224 27.2786 88.863 27.1189 89.3103 26.8154C89.7735 26.5119 90.0291 25.9847 89.9971 25.4416C89.9971 25.218 89.9652 24.9943 89.9013 24.7707Z" fill="white"/>
</svg>
