<svg width="100" height="46" viewBox="0 0 100 46" fill="none" xmlns="http://www.w3.org/2000/svg">
<g clip-path="url(#clip0_158_1118)">
<path d="M62.1696 33.3862H60.7371V17.1552C60.7371 16.9365 60.5606 16.76 60.3419 16.76H57.131C56.9122 16.76 56.7358 16.9365 56.7358 17.1552V25.8071C56.7358 28.397 56.0654 30.5635 54.7951 32.0736C53.5743 33.5274 51.8665 34.3036 49.8623 34.3036C48.1616 34.3036 46.9689 33.8943 46.1997 33.0475C45.4023 32.1654 45.0142 30.7611 45.0142 28.7498V17.1552C45.0142 16.9365 44.8377 16.76 44.619 16.76H41.3093C41.0905 16.76 40.9141 16.9365 40.9141 17.1552V29.519C40.9141 32.2642 41.648 34.3601 43.0876 35.7433C44.4284 37.0347 46.3691 37.6839 48.8461 37.6839C50.9985 37.6839 52.7909 37.0841 54.1741 35.9056C55.4232 34.84 56.2841 33.358 56.7287 31.495H57.2792L56.7358 33.6615V36.8371C56.7358 37.1335 56.9757 37.3734 57.265 37.3734H62.1555C62.3743 37.3734 62.5507 37.197 62.5507 36.9782V33.7673C62.5507 33.5486 62.3743 33.3721 62.1555 33.3721L62.1696 33.3862Z" fill="black"/>
<path d="M87.889 33.3907H86.3577V7.5269C86.3577 7.30814 86.1813 7.13171 85.9625 7.13171H82.7516C82.5328 7.13171 82.3564 7.30814 82.3564 7.5269V19.7284L82.8998 21.9372H82.3423C81.8906 20.3282 80.9732 18.9662 79.6959 18.0135C78.221 16.9197 76.3298 16.3622 74.0645 16.3622C71.157 16.3622 68.6941 17.4208 66.9228 19.4179C65.2362 21.3233 64.3047 24.0331 64.3047 27.0323C64.3047 30.0316 65.2362 32.7626 66.9228 34.6962C68.6941 36.7286 71.1641 37.8013 74.0645 37.8013C76.2733 37.8013 78.1434 37.2297 79.6253 36.0935C80.8956 35.1196 81.8342 33.7506 82.3423 32.1204H82.8998L82.3564 34.294V36.8627C82.3564 37.1591 82.5963 37.399 82.8927 37.399H85.1933H87.882C88.1008 37.399 88.2772 37.2226 88.2772 37.0038V33.7929C88.2772 33.5741 88.1008 33.3977 87.882 33.3977L87.889 33.3907ZM82.4622 27.0253C82.4622 29.4035 81.7566 31.2454 80.3593 32.4944C79.1172 33.6094 77.3601 34.2022 75.2853 34.2022C73.2106 34.2022 71.5381 33.6165 70.3737 32.5015C69.0752 31.2665 68.4189 29.4247 68.4189 27.0253C68.4189 24.6259 69.0752 22.7841 70.3737 21.5491C71.5451 20.4341 73.2459 19.8484 75.2853 19.8484C77.3248 19.8484 79.1102 20.4341 80.3593 21.5491C81.7566 22.7982 82.4622 24.64 82.4622 27.0253Z" fill="black"/>
<path d="M34.8187 23.1675V22.5959L35.2068 22.5394C36.0678 22.4548 36.7594 21.8196 36.7241 20.9516L36.8652 8.64428C36.8652 8.48902 36.7382 8.362 36.5829 8.362H32.9486C32.7933 8.362 32.6663 8.48902 32.6663 8.64428V19.7449C32.6663 20.5705 31.9959 21.2339 31.1773 21.2339H22.6807C22.5255 21.2339 22.3984 21.3609 22.3984 21.5162V24.6424C22.3984 24.7977 22.5255 24.9247 22.6807 24.9247H31.1773C32.003 24.9247 32.6663 25.5951 32.6663 26.4137V37.1121C32.6663 37.2673 32.7933 37.3943 32.9486 37.3943H36.5829C36.7382 37.3943 36.8652 37.2673 36.8652 37.1121L36.7241 24.8047C36.7664 23.9367 36.0537 23.3086 35.2068 23.2169L34.8187 23.1604V23.1675Z" fill="black"/>
<path d="M22.7826 8.35223H17.7863C16.5584 8.35223 15.5563 9.34727 15.5563 10.5822V14.9293C15.5563 16.9829 14.7801 18.9871 13.4251 20.4479C13.0017 20.956 12.2889 21.2594 11.5127 21.2594H10.7858C10.567 21.2594 10.3906 21.4358 10.3906 21.6546V24.2939C10.3906 24.5127 10.567 24.6891 10.7858 24.6891H11.5056C12.2819 24.6891 12.9946 24.9925 13.4251 25.5148C14.7942 26.9826 15.5493 28.9374 15.5493 31.0192V35.1687C15.5493 36.3966 16.5443 37.3987 17.7793 37.3987H22.7756C22.9308 37.3987 23.0579 37.2717 23.0579 37.1164V34.2513C23.0579 34.096 22.9308 33.969 22.7756 33.969H19.5717C19.2471 33.969 18.9789 33.7008 18.9789 33.3762V31.0192C18.9789 28.2035 17.9345 25.4654 16.135 23.4471C16.1068 23.4188 16.0715 23.3977 16.0291 23.3977L15.6057 23.3624V22.6496L15.9656 22.6214C16.008 22.6214 16.0433 22.6002 16.0715 22.572C17.9345 20.4338 18.9789 17.7309 18.9789 14.9293V12.3747C18.9789 12.0501 19.2471 11.7819 19.5717 11.7819H22.7756C22.9308 11.7819 23.0579 11.6549 23.0579 11.4996V8.63451C23.0579 8.47926 22.9308 8.35223 22.7756 8.35223H22.7826ZM15.5775 23.0942V23.0731C15.5775 23.0731 15.5916 23.0731 15.5916 23.066L15.5775 23.0942Z" fill="black"/>
</g>
<defs>
<clipPath id="clip0_158_1118">
<rect width="80" height="30.7368" fill="white" transform="translate(10.3906 7.13165)"/>
</clipPath>
</defs>
</svg>
