<?xml version="1.0" encoding="UTF-8"?>
<svg xmlns="http://www.w3.org/2000/svg" width="75" height="45" viewBox="0 0 75 45" fill="none">
  <g clip-path="url(#clip0_665_2072)">
    <path d="M25.0573 28.0184C23.6119 28.0184 22.4618 27.5995 21.6068 26.772C20.7517 25.9342 20.3242 24.7285 20.3242 23.1347V20.3353C20.3242 18.7517 20.7517 17.5358 21.6068 16.6981C22.4618 15.8603 23.6119 15.4516 25.0573 15.4516C26.4925 15.4516 27.5918 15.8501 28.3552 16.647C29.1185 17.4439 29.5053 18.5371 29.5053 19.9164V19.9981H27.9378V19.8755C27.9378 18.9968 27.7037 18.2817 27.2355 17.7198C26.7673 17.1578 26.0344 16.8718 25.0573 16.8718C24.07 16.8718 23.2964 17.1783 22.7467 17.7811C22.1869 18.3839 21.9121 19.2319 21.9121 20.3046V23.1654C21.9121 24.2382 22.1869 25.0759 22.7467 25.6889C23.3066 26.302 24.07 26.6085 25.0573 26.6085C26.0446 26.6085 26.7673 26.3224 27.2355 25.7604C27.7037 25.1985 27.9378 24.4731 27.9378 23.6047V23.3288H29.5053V23.5536C29.5053 24.9329 29.1185 26.0261 28.3552 26.823C27.5918 27.6199 26.4925 28.0184 25.0573 28.0184Z" fill="white"></path>
    <path d="M43.3789 27.7834V15.6968H50.8399V17.1272H44.9464V20.9994H50.219V22.4297H44.9464V26.3428H50.9315V27.7732H43.3789V27.7834Z" fill="white"></path>
    <path d="M39.3385 15.6968L36.285 21.2548H35.888L32.8548 15.6968H31.043L35.2976 23.2573V27.7834H36.8753V23.2573L41.1198 15.6968H39.3385Z" fill="white"></path>
    <path d="M70.3204 15.6968H67.44L63.8164 27.7732H65.4449L66.3205 24.7899H71.4196L72.3151 27.7732H73.9337L70.3204 15.6968ZM66.7274 23.3493L68.5695 17.1374H69.1905L71.0326 23.3493H66.7274Z" fill="white"></path>
    <path d="M55.2668 22.8793V27.7834H53.6992V15.6968H58.6157C59.3584 15.6968 60.02 15.8296 60.5799 16.085C61.1501 16.3405 61.5875 16.7083 61.9135 17.1885C62.2388 17.6687 62.3917 18.2408 62.3917 18.9049V19.099C62.3917 19.8857 62.2084 20.4987 61.8319 20.9585C61.4554 21.4183 61.0179 21.735 60.4983 21.9087V22.1539H60.8955C61.7198 22.1539 62.3814 22.8282 62.3814 23.6558V27.7834H60.8138V23.8703C60.8138 23.3288 60.3764 22.8793 59.8269 22.8793H55.2668ZM55.2668 21.4489H58.4628C59.206 21.4489 59.786 21.265 60.2034 20.8972C60.6207 20.5294 60.8242 20.0186 60.8242 19.3647V19.2421C60.8242 18.578 60.6207 18.0569 60.2235 17.6891C59.8269 17.3213 59.2365 17.1374 58.4731 17.1374H55.2771V21.4489H55.2668Z" fill="white"></path>
  </g>
  <g clip-path="url(#clip1_665_2072)">
    <path d="M1.5704 18.1469C0.684868 18.1469 -0.0276364 18.8825 0.00289929 19.7816C0.033435 20.599 0.695047 21.2631 1.50933 21.2937C2.40505 21.3243 3.13791 20.6092 3.13791 19.7203V19.138C3.13791 18.5862 3.57559 18.1469 4.12523 18.1469H4.68505C5.54008 18.1469 6.25257 17.4726 6.2729 16.6246C6.30342 15.7357 5.59093 15.0103 4.71558 15.0001C3.84024 14.9899 3.13791 15.7255 3.13791 16.6042V17.258C3.13791 17.7485 2.74095 18.1469 2.25237 18.1469H1.5704Z" fill="white"></path>
    <path d="M3.13791 24.1649C3.13791 23.276 2.40505 22.5609 1.50933 22.5915C0.695047 22.6222 0.033435 23.2863 0.00289929 24.1036C-0.0276364 25.0027 0.684868 25.7383 1.5704 25.7383H2.15059C2.70023 25.7383 3.13791 26.1777 3.13791 26.7294V27.2912C3.13791 28.1495 3.8097 28.8647 4.65452 28.8851C5.54008 28.9158 6.26273 28.2006 6.2729 27.3219C6.2831 26.4433 5.55024 25.7383 4.67489 25.7383H4.02345C3.53487 25.7383 3.13791 25.3399 3.13791 24.8494V24.1649Z" fill="white"></path>
    <path d="M5.81445 26.1979C5.18338 25.5644 4.16553 25.5849 3.55481 26.2388C3.00517 26.8415 3.00517 27.7814 3.55481 28.3741C4.16553 29.0279 5.18338 29.0484 5.81445 28.4149L6.22157 28.0063C6.60837 27.6181 7.22928 27.6181 7.61608 28.0063L8.013 28.4048C8.61359 29.0075 9.59073 29.0382 10.2116 28.4558C10.8529 27.8428 10.8732 26.8313 10.2523 26.2081C9.64162 25.5849 8.62375 25.5951 8.013 26.2183L7.55498 26.6781C7.20896 27.0255 6.64915 27.0255 6.30304 26.6781L5.81445 26.1979Z" fill="white"></path>
    <path d="M9.13296 25.7381C8.24737 25.7381 7.53487 26.4737 7.5654 27.3728C7.59597 28.1902 8.25757 28.8542 9.07186 28.8849C9.96758 28.9155 10.7004 28.2004 10.7004 27.3115V26.7291C10.7004 26.1775 11.1381 25.7381 11.6877 25.7381H12.2475C13.1026 25.7381 13.8151 25.0638 13.8354 24.2158C13.866 23.3269 13.1535 22.6015 12.2781 22.5913C11.4027 22.5811 10.7004 23.3167 10.7004 24.1954V24.8492C10.7004 25.3396 10.3035 25.7381 9.81493 25.7381H9.13296Z" fill="white"></path>
    <path d="M0.460854 23.0613C-0.170218 23.6948 -0.149861 24.7164 0.501566 25.3295C1.10211 25.8812 2.03854 25.8812 2.6289 25.3295C3.28033 24.7164 3.30069 23.6948 2.66961 23.0613L2.26247 22.6526C1.87568 22.2644 1.87568 21.6411 2.26247 21.2529L2.65944 20.8545C3.25997 20.2517 3.29051 19.2708 2.71032 18.6476C2.09962 18.0039 1.09193 17.9835 0.471033 18.6067C-0.149861 19.2198 -0.139682 20.2414 0.481212 20.8545L0.939248 21.3142C1.28532 21.6616 1.28532 22.2235 0.939248 22.5709L0.460854 23.0613Z" fill="white"></path>
    <path d="M11.1581 23.0613C10.527 23.6948 10.5474 24.7164 11.1988 25.3295C11.7994 25.8812 12.7358 25.8812 13.3262 25.3295C13.9776 24.7164 13.998 23.6948 13.3669 23.0613L12.9597 22.6526C12.5729 22.2644 12.5729 21.6411 12.9597 21.2529L13.3567 20.8545C13.9573 20.2517 13.9878 19.2708 13.4076 18.6476C12.7969 18.0039 11.7892 17.9835 11.1683 18.6067C10.5474 19.2198 10.5576 20.2414 11.1785 20.8545L11.6365 21.3142C11.9826 21.6616 11.9826 22.2235 11.6365 22.5709L11.1581 23.0613Z" fill="white"></path>
    <path d="M9.13388 18.147C9.99961 18.147 10.7014 17.4426 10.7014 16.5736C10.7014 15.7046 9.99961 15.0002 9.13388 15.0002C8.26816 15.0002 7.56641 15.7046 7.56641 16.5736C7.56641 17.4426 8.26816 18.147 9.13388 18.147Z" fill="white"></path>
  </g>
  <defs>
    <clipPath id="clip0_665_2072">
      <rect width="53.741" height="12.6452" fill="white" transform="translate(20.3242 15.4516)"></rect>
    </clipPath>
    <clipPath id="clip1_665_2072">
      <rect width="13.9998" height="14" fill="white" transform="translate(0 15)"></rect>
    </clipPath>
  </defs>
</svg>
