<?xml version="1.0" encoding="UTF-8"?>
<svg xmlns="http://www.w3.org/2000/svg" width="31" height="24" viewBox="0 0 31 24" fill="none">
  <g clip-path="url(#clip0_820_2119)">
    <path d="M5.23145 3.03469C5.75063 2.99234 6.27315 2.9277 6.79234 2.8508C6.32985 3.61532 5.80622 4.34641 5.23145 5.02958V3.03469ZM5.30037 8.80873C5.25702 8.25818 5.23589 7.69538 5.23145 7.12812C6.59111 5.80748 7.6973 4.25168 8.50332 2.53652C9.01806 2.42508 9.5417 2.29134 10.052 2.14534C9.89745 2.54544 9.72625 2.93662 9.5417 3.30996C8.56336 5.30931 7.20813 7.10137 5.54941 8.58472C5.47158 8.65828 5.38598 8.73518 5.30037 8.80873ZM5.75063 11.839C5.64724 11.3831 5.55719 10.9151 5.48492 10.4503C5.92629 10.1193 6.35098 9.76717 6.75009 9.40608C9.12145 7.25628 10.7124 4.66069 11.4795 1.69399C11.9597 1.52682 12.4445 1.34182 12.9114 1.14344C12.6335 2.50197 12.1877 3.8215 11.5918 5.07304C10.6179 7.07574 9.26265 8.86891 7.60725 10.3556C7.02025 10.885 6.39767 11.3787 5.75063 11.839ZM6.53553 14.4312C6.38099 14.0267 6.23535 13.6143 6.11084 13.193C7.06694 12.6035 7.97191 11.9248 8.80349 11.1681C11.8875 8.36963 13.6363 4.83678 14.0009 0.661992C14.5624 0.400093 15.0004 0.171627 15.3261 0C15.2272 2.36824 14.6569 4.69078 13.6407 6.83501C12.6679 8.83771 11.316 10.6353 9.66176 12.1231C8.70121 12.9913 7.65061 13.7648 6.53553 14.4312ZM7.62504 16.7393C7.41381 16.3693 7.21703 15.9825 7.03692 15.6003C8.41772 14.8781 9.69956 13.9843 10.858 12.9389C14.4212 9.70253 16.1922 5.48094 16.1155 0.400093V0.237381C16.5613 0.464732 16.9682 0.661992 17.3929 0.851451C17.3762 3.66659 16.8014 6.27221 15.6863 8.5981C14.7169 10.6052 13.3661 12.4018 11.7118 13.8896C10.48 15.0118 9.10367 15.9703 7.62504 16.7393ZM9.00917 18.8333C8.74791 18.489 8.49109 18.1368 8.25429 17.7757C9.95304 17.0012 11.5228 15.9703 12.9081 14.7143C16.4712 11.4779 18.2378 7.24402 18.1611 2.13197V1.17799C18.5813 1.35073 19.0093 1.51344 19.4385 1.66835V2.11525C19.4818 5.12431 18.9115 7.8971 17.7364 10.3601C16.7714 12.3672 15.4206 14.1693 13.7652 15.6605C12.3411 16.9454 10.7424 18.0164 9.00917 18.8333ZM10.7246 20.7547C10.5701 20.6042 10.4155 20.4493 10.2666 20.2944L10.2532 20.2521L10.2321 20.2554C10.0776 20.0971 9.92747 19.9289 9.77739 19.7617C11.6774 18.9793 13.4306 17.8693 14.9526 16.4863C18.5168 13.2488 20.2834 8.99708 20.21 3.85605V1.92245C20.6303 2.05507 21.0594 2.17989 21.4885 2.29134V3.83933C21.5308 6.8651 20.9605 9.65461 19.782 12.1231C18.817 14.1348 17.4707 15.9402 15.8108 17.4313C14.3011 18.8033 12.5812 19.9211 10.7246 20.7547ZM12.8258 22.4955C12.4278 22.2113 12.0331 21.9104 11.6551 21.5928C13.8086 20.7458 15.7719 19.4775 17.4318 17.8615C20.7037 14.6675 22.3246 10.5362 22.2512 5.58904V2.48526C22.6759 2.58333 23.105 2.67026 23.5297 2.7427V5.57121C23.5975 10.3645 22.17 14.4613 19.2839 17.7579C17.4918 19.7829 15.2917 21.3944 12.8258 22.4955ZM15.4462 24C14.9448 23.7805 14.4556 23.5275 13.9842 23.2477C15.8364 22.4821 17.543 21.4033 19.0316 20.0626C22.6081 16.8251 24.3791 12.54 24.3013 7.32538V2.86752C24.726 2.9277 25.1551 2.97896 25.5798 3.01797V7.30309C25.6265 10.3857 25.0428 13.2187 23.851 15.7162C22.8771 17.7412 21.5186 19.5511 19.8465 21.0467C18.5213 22.2336 17.0416 23.2266 15.4462 24Z" fill="#191919" fill-opacity="0.29"></path>
    <path d="M0 15.6103H31V8.38965H0V15.6103Z" fill="black"></path>
    <path d="M5.40615 10.1216C5.3361 10.1216 5.26607 10.1372 5.2027 10.1662C5.13599 10.1985 5.07929 10.2497 5.04149 10.3144L2.72461 13.8038H3.48171L5.04149 11.3352V13.8038H5.67186V10.4403C5.67629 10.3567 5.65073 10.2754 5.59959 10.2085C5.55179 10.1505 5.48063 10.1193 5.40615 10.1216Z" fill="white"></path>
    <path d="M10.0503 10.1494H9.41442V12.1555C9.41773 12.3159 9.4033 12.4764 9.37217 12.6347C9.35216 12.7472 9.30547 12.8542 9.23654 12.9456C9.17539 13.0236 9.09201 13.0827 8.99862 13.115C8.88745 13.1518 8.77072 13.1696 8.65287 13.1663H8.53169C8.41384 13.1696 8.296 13.1529 8.18371 13.1172C8.09032 13.086 8.00917 13.027 7.95025 12.949C7.88354 12.8553 7.83796 12.7495 7.81572 12.6369C7.7846 12.4786 7.77125 12.3159 7.77348 12.1543V10.1494H7.13867V12.1543C7.13867 12.6893 7.25985 13.0972 7.5011 13.3802C7.76236 13.6711 8.14258 13.8271 8.53169 13.8037H8.65399C9.0431 13.8249 9.4222 13.6689 9.68347 13.378C9.94917 13.0281 10.0792 12.5934 10.0503 12.1543V10.1494Z" fill="white"></path>
    <path d="M11.7063 10.1494H11.5195V10.7869H11.7074C12.1065 10.7869 12.3055 11.0031 12.3055 11.4333V13.8037H12.9348V11.4333C12.9559 11.09 12.8436 10.7523 12.6224 10.4893C12.38 10.2497 12.0465 10.126 11.7063 10.1494Z" fill="white"></path>
    <path d="M19.1992 10.7869H20.1286V13.8037H20.7646V10.7869H21.694V10.1494H19.1992V10.7869Z" fill="white"></path>
    <path d="M23.1602 13.8037H23.7961V10.1494H23.1602V13.8037Z" fill="white"></path>
    <path d="M27.0284 11.8512L27.9389 10.1505H27.2152L26.6782 11.2093L26.1401 10.1505H25.4108L26.318 11.7799L25.2607 13.8037H25.9623L26.6782 12.4352L27.3931 13.8037H28.089L27.0284 11.8512Z" fill="white"></path>
    <path d="M17.732 11.9392C17.7353 11.6929 17.6964 11.4467 17.6175 11.2137C17.5474 11.0064 17.4374 10.8148 17.2951 10.6487C17.2473 10.5941 17.1939 10.5451 17.1394 10.4994L17.245 10.272L16.7247 10.0291L16.6347 10.2207C16.479 10.1717 16.3167 10.1483 16.1522 10.1494H15.9888C15.7653 10.1472 15.5452 10.1918 15.3417 10.2809C15.1505 10.3656 14.9793 10.4916 14.8414 10.6487C14.698 10.8148 14.5891 11.0064 14.519 11.2137C14.4401 11.4467 14.4012 11.693 14.4034 11.9393C14.4023 12.1867 14.4412 12.4341 14.5213 12.6681C14.5924 12.8843 14.7025 13.0849 14.8459 13.261C14.9226 13.3535 15.0104 13.436 15.1049 13.5084L15.0238 13.6823L15.5441 13.9252L15.6219 13.7592C15.742 13.7893 15.8642 13.806 15.9888 13.8038H16.1522C16.3734 13.8071 16.5936 13.7569 16.7926 13.6589C16.9849 13.563 17.1539 13.4271 17.2895 13.261C17.4329 13.0849 17.543 12.8843 17.6153 12.6681C17.6942 12.4341 17.7342 12.1867 17.732 11.9392ZM15.3628 12.9712C15.3395 12.9478 15.3017 12.9099 15.2817 12.8843C15.1905 12.7673 15.1205 12.6336 15.0771 12.4909C15.0249 12.3293 15.0004 12.161 15.0015 11.9916C15.0005 11.8167 15.0249 11.6417 15.0771 11.4745C15.1194 11.3285 15.1905 11.1926 15.2839 11.0733C15.3695 10.9652 15.4774 10.8772 15.5997 10.8136C15.7219 10.7512 15.8754 10.7122 15.9988 10.7122C16.1211 10.7122 16.1689 10.7178 16.1689 10.7178C16.2478 10.7222 16.3056 10.7312 16.3801 10.7501M17.135 11.9916C17.1372 12.161 17.1127 12.3293 17.0627 12.4909C17.0205 12.6336 16.9515 12.7673 16.8615 12.8843C16.777 12.9924 16.6692 13.0805 16.5469 13.1418C16.4223 13.2031 16.2467 13.2331 16.1411 13.2376C16.0143 13.242 15.9143 13.2432 15.8798 13.2399L16.8337 11.1547C16.847 11.1246 16.8682 11.0767 16.8682 11.0767C16.9482 11.1881 17.0205 11.3419 17.0605 11.4745C17.1116 11.6417 17.1372 11.8167 17.135 11.9916Z" fill="white"></path>
  </g>
  <defs>
    <clipPath id="clip0_820_2119">
      <rect width="31" height="24" fill="white"></rect>
    </clipPath>
  </defs>
</svg>
