<svg width="101" height="46" viewBox="0 0 101 46" fill="none" xmlns="http://www.w3.org/2000/svg">
<path d="M2.46308 28.9512C2.02538 28.9521 1.59527 28.8369 1.21669 28.6172C0.838105 28.3975 0.524626 28.0813 0.308272 27.7008C0.0952296 27.323 -0.0110202 26.8943 0.000903845 26.4607C0.0128279 26.0272 0.142477 25.605 0.375962 25.2395L4.81343 18.2712C5.04055 17.8966 5.363 17.5891 5.74786 17.38C6.13271 17.1709 6.56617 17.0677 7.00397 17.0809C7.44143 17.0914 7.86825 17.2179 8.24075 17.4476C8.61325 17.6772 8.91806 18.0016 9.12399 18.3877C9.53765 19.1699 9.48594 20.111 8.99049 20.8453L4.55584 27.8136C4.33095 28.164 4.02124 28.452 3.65541 28.6509C3.28957 28.8497 2.87946 28.953 2.46308 28.9512Z" fill="white"/>
<path d="M10.0758 28.9509C9.18077 28.9509 8.3572 28.4724 7.92474 27.7034C7.71217 27.3266 7.60617 26.899 7.61809 26.4666C7.63002 26.0342 7.75942 25.6131 7.99243 25.2486L12.4214 18.2963C12.6452 17.9165 12.9665 17.6035 13.352 17.3898C13.7375 17.176 14.1732 17.0693 14.6139 17.0807C15.5164 17.1004 16.3343 17.6053 16.748 18.395C17.1588 19.1847 17.0986 20.1314 16.5881 20.8638L12.1601 27.8162C11.9359 28.1651 11.6274 28.452 11.2632 28.6503C10.8989 28.8486 10.4905 28.952 10.0758 28.9509Z" fill="white"/>
<path d="M17.517 29.0092C18.7787 29.0092 19.8015 28.0078 19.8015 26.7726C19.8015 25.5374 18.7787 24.536 17.517 24.536C16.2552 24.536 15.2324 25.5374 15.2324 26.7726C15.2324 28.0078 16.2552 29.0092 17.517 29.0092Z" fill="white"/>
<path fill-rule="evenodd" clip-rule="evenodd" d="M100 17.6477H96.662L94.322 23.6806L91.9941 17.6477H88.6557L92.7143 27.1807L90.19 33.4834H93.504L100 17.6477ZM79.6971 22.9501C79.6971 24.4731 81.0283 25.4753 82.3361 25.4753C83.6212 25.4753 84.8839 24.5427 84.8839 22.9491C84.8839 21.3556 83.6212 20.422 82.3361 20.422C81.0283 20.422 79.6971 21.4261 79.6971 22.9501ZM84.8839 28.2732V27.067C84.207 28.0917 82.6275 28.4791 81.8171 28.4791C79.1339 28.4791 76.4498 26.3637 76.4498 22.9491C76.4498 19.5355 79.133 17.4202 81.8171 17.4202C82.4931 17.4202 84.0725 17.6458 84.8839 18.8304V17.6514H87.9957V28.2751L84.8839 28.2732ZM75.5642 28.2732H72.4524V26.9532C71.9325 27.931 70.6717 28.5007 69.363 28.5007C66.6564 28.5007 64.2656 26.3393 64.2656 22.9924C64.2656 19.5825 66.6564 17.4183 69.363 17.4183C70.6698 17.4183 71.9343 17.9636 72.4524 18.9423V11.8602H75.5642V28.2732ZM72.3847 22.9256C72.3847 21.333 71.2349 20.3995 69.9497 20.3995C68.6185 20.3995 67.5128 21.4007 67.5128 22.9256C67.5128 24.4994 68.6185 25.496 69.9488 25.496C71.2584 25.4979 72.3847 24.4506 72.3847 22.9256ZM56.5715 22.6511C56.5715 21.036 57.4063 20.4897 58.511 20.4897C59.5705 20.4897 60.3377 21.1948 60.3377 22.6051V28.2713H63.4721V21.9235C63.4721 18.8981 61.9829 17.4183 59.6147 17.4183C58.3747 17.4183 57.1346 18.1234 56.5705 19.1933V17.6477H53.438V28.2713H56.5715V22.6511ZM47.0732 28.4537C44.0967 28.4537 41.6138 26.2697 41.6138 22.9247C41.6138 19.5778 44.0939 17.4155 47.0732 17.4155C50.0525 17.4155 52.5542 19.5778 52.5542 22.9247C52.5542 26.2716 50.0497 28.4537 47.0732 28.4537ZM47.0732 25.3606C48.38 25.3606 49.464 24.4035 49.464 22.9256C49.464 21.4919 48.381 20.5132 47.0732 20.5132C46.7583 20.5083 46.4457 20.5675 46.1545 20.6873C45.8632 20.8071 45.5994 20.9849 45.3791 21.2099C45.1575 21.4361 44.9836 21.7046 44.8678 21.9993C44.752 22.2941 44.6966 22.6091 44.705 22.9256C44.7059 24.4054 45.788 25.3606 47.0732 25.3606ZM35.9946 20.4907C36.9187 20.4907 37.731 21.2193 37.731 22.606V28.2732H40.8429V22.2393C40.8429 19.0316 39.2832 17.4164 36.7834 17.4164C36.0406 17.4164 34.6417 17.642 33.6264 19.3042C33.0397 18.0754 31.9125 17.438 30.2465 17.438C29.6681 17.4351 29.1011 17.5988 28.6133 17.9096C28.1255 18.2203 27.7375 18.665 27.4957 19.1905V17.6486H24.3594V28.2722H27.4929V22.6511C27.4929 21.036 28.3728 20.4897 29.3196 20.4897C30.2221 20.4897 31.0325 21.1948 31.056 22.5374V28.2722H34.1904V22.6511C34.1904 21.1065 35.0027 20.4907 35.9946 20.4907Z" fill="white"/>
</svg>
