<svg width="100" height="46" viewBox="0 0 100 46" fill="none" xmlns="http://www.w3.org/2000/svg">
<g clip-path="url(#clip0_119_1203)">
<path d="M9.61583 13.9286H0V31.2153H9.61583C15.7492 31.2153 19.7108 27.8228 19.7108 22.5736C19.7108 17.3245 15.7483 13.9286 9.61583 13.9286ZM9.40417 27.7895H4.22917V17.3561H9.40417C12.82 17.3561 15.025 19.4045 15.025 22.572C15.025 25.7395 12.82 27.7878 9.40417 27.7878V27.7895Z" fill="white"/>
<path d="M37.4402 25.6203C39.7102 24.5694 40.9093 22.7111 40.9093 20.2444C40.9093 16.3494 37.8577 13.9286 32.9452 13.9286H22.541V31.2153H26.9585V26.4586H32.7385L36.1218 31.2153H40.9935L37.1035 25.7753L37.4385 25.6211H37.441L37.4402 25.6203ZM32.6252 23.1619H26.9594V17.3053H32.6252C34.9435 17.3053 36.2227 18.3486 36.2227 20.2453C36.2227 22.1419 34.9118 23.1611 32.6252 23.1611V23.1619Z" fill="white"/>
<path d="M81.8718 13.9286H60.9785L62.311 17.3311H69.1202V31.2153H73.756V17.3311H80.5377L81.8702 13.9286H81.871H81.8718Z" fill="white"/>
<path d="M50.481 13.9286L42.9785 31.2153H47.6527L48.5785 28.7486C52.1035 27.7078 54.5527 27.6328 58.0202 28.8644L58.8985 31.2153H63.6793L56.146 13.9286H50.4793H50.4818H50.481ZM49.7877 25.3878L53.046 17.6153H53.5043L56.7927 25.4628C54.4044 24.5161 52.1777 24.4419 49.7877 25.3878Z" fill="white"/>
<path d="M86.8013 13.9286L79.2988 31.2153H83.973L84.8988 28.7486C88.4238 27.7078 90.873 27.6328 94.3405 28.8644L95.2188 31.2153H99.9997L92.4655 13.9286H86.7988H86.8013ZM86.1072 25.3878L89.3655 17.6153H89.8238L93.1122 25.4628C90.7238 24.5161 88.4972 24.4419 86.1072 25.3878Z" fill="white"/>
</g>
<defs>
<clipPath id="clip0_119_1203">
<rect width="100" height="17.2642" fill="white" transform="translate(0 13.9286)"/>
</clipPath>
</defs>
</svg>
