<?xml version="1.0" encoding="UTF-8"?>
<svg xmlns="http://www.w3.org/2000/svg" width="229" height="30" viewBox="0 0 229 30" fill="none">
  <g clip-path="url(#clip0_877_5379)">
    <path d="M69.9217 1.75098C69.8454 1.75098 69.8072 1.78922 69.8072 1.86569V23.0863L57.5556 1.82745C57.5175 1.78922 57.5175 1.78921 57.4793 1.78921H54.6931C54.6549 1.78921 54.6549 1.78922 54.6168 1.82745C54.5786 1.86569 54.5786 1.86568 54.5786 1.90392V28.057C54.5786 28.1334 54.6168 28.1717 54.6931 28.1717H56.9831C57.0213 28.1717 57.0213 28.1717 57.0595 28.1334C57.0976 28.0952 57.0976 28.0952 57.0976 28.057V6.56864L69.9599 28.1334C69.9599 28.1717 69.998 28.1717 70.0362 28.1717H72.2499C72.288 28.1717 72.288 28.1717 72.3262 28.1334C72.3644 28.0952 72.3644 28.0952 72.3644 28.057V1.86569C72.3644 1.78922 72.3262 1.75098 72.2499 1.75098H69.9217ZM182.399 16.9304L182.056 16.3187L182.17 16.2804L182.514 16.1657C185.147 15.3628 186.521 13.8716 186.865 11.501C187.056 9.93336 187.056 8.36571 186.865 6.83629C186.674 5.00099 185.529 3.54805 183.544 2.59216C182.399 2.05686 181.14 1.78921 179.88 1.78921C177.514 1.78921 170.453 1.86569 170.377 1.86569C170.301 1.86569 170.262 1.90392 170.262 1.98039V28.0952C170.262 28.1716 170.301 28.2099 170.377 28.2099H172.972C173.049 28.2099 173.087 28.1716 173.087 28.0952V16.9304H175.606H178.01C178.43 16.9304 179.193 17.0069 179.537 17.5804C181.56 20.8687 185.567 28.1334 185.605 28.2099C185.644 28.2481 185.644 28.2481 185.682 28.2481H187.17C187.247 28.2481 187.285 28.2099 187.285 28.1334V24.7305C187.285 24.6922 187.285 24.6922 187.285 24.654C185.644 22.4746 183.506 18.8422 182.399 16.9304ZM184.422 9.09218C184.422 12.4187 183.544 14.2157 178.812 14.2157H173.087V4.27452H176.598H180.338C182.896 4.27452 184.422 6.07158 184.422 9.09218ZM39.6935 1.86569H42.2889C42.3652 1.86569 42.4034 1.90392 42.4034 1.98039V28.0952C42.4034 28.1716 42.3652 28.2099 42.2889 28.2099H39.6935C39.6172 28.2099 39.579 28.1716 39.579 28.0952V1.98039C39.579 1.90392 39.6554 1.86569 39.6935 1.86569ZM214.154 7.79218C214.116 5.99512 213.2 4.31275 211.712 3.31863C210.223 2.28627 208.467 1.75098 206.674 1.78921C204.269 1.78921 197.552 1.82745 197.475 1.82745C197.399 1.82745 197.361 1.86568 197.361 1.94215V28.057C197.361 28.1334 197.399 28.1717 197.475 28.1717C197.514 28.1717 201.254 28.2099 204.155 28.2099C205.147 28.2099 206.063 28.2099 206.712 28.2099C207.551 28.2099 208.391 28.0952 209.193 27.8658C212.36 26.9864 214.192 24.7687 214.154 21.7863C214.154 20.9452 214.154 20.1422 214.154 19.301C214.154 18.651 214.154 18.001 214.154 17.351C214.154 16.4716 214.154 15.5922 214.154 14.7128C214.231 12.4187 214.231 10.0863 214.154 7.79218ZM211.712 20.9452C211.712 22.2452 211.215 23.4687 210.299 24.3863C209.422 25.2275 208.238 25.7246 207.017 25.7246H200.033V4.35099H207.628C208.658 4.38923 209.651 4.80981 210.376 5.53628C211.177 6.33922 211.635 7.40983 211.635 8.55689C211.597 9.58924 211.712 20.104 211.712 20.9452ZM101.028 7.79218C100.99 5.99512 100.074 4.31275 98.585 3.31863C97.0965 2.28627 95.3408 1.75098 93.547 1.78921C91.1425 1.78921 84.4251 1.82745 84.3488 1.82745C84.2724 1.82745 84.2343 1.86568 84.2343 1.94215V28.057C84.2343 28.1334 84.2724 28.1717 84.3488 28.1717C84.3869 28.1717 88.1273 28.2099 91.028 28.2099C92.0203 28.2099 92.9363 28.2099 93.5851 28.2099C94.4248 28.2099 95.2645 28.0952 96.066 27.8658C99.2338 26.9864 101.066 24.7687 101.028 21.7863C101.028 20.9452 101.028 20.1422 101.028 19.301C101.028 18.651 101.028 18.001 101.028 17.351C101.028 16.4716 101.028 15.5922 101.028 14.7128C101.104 12.4187 101.104 10.0863 101.028 7.79218ZM98.585 20.9452C98.585 22.2452 98.0888 23.4687 97.1728 24.3863C96.295 25.2275 95.1118 25.7246 93.8905 25.7246H86.9059V4.35099H94.4248C95.4553 4.38923 96.4477 4.80981 97.1728 5.53628C97.9743 6.33922 98.4323 7.40983 98.4323 8.55689C98.4705 9.58924 98.585 20.104 98.585 20.9452ZM154.576 2.05687C154.576 2.01863 154.538 1.98039 154.461 1.98039H150.645C150.606 1.98039 150.568 2.01863 150.53 2.05687L143.927 27.8658C143.927 27.904 143.927 27.9422 143.965 27.9422C144.004 27.9805 144.004 27.9805 144.042 27.9805H146.561C146.599 27.9805 146.637 27.9422 146.675 27.904C146.675 27.8658 147.82 22.8952 148.355 20.6775C148.469 20.1804 148.584 20.0657 149.003 20.0657H149.08C150.301 20.104 156.293 20.0657 157.057 20.0657L159.156 27.904C159.156 27.9422 159.194 27.9805 159.27 27.9805H161.217C161.293 27.9805 161.331 27.9422 161.331 27.8658V24.7305V24.6922C159.27 18.1157 154.614 2.20981 154.576 2.05687ZM156.331 17.5422H149.232L152.591 4.80981L156.331 17.5422ZM13.9691 2.01863H13.0912C13.0531 2.01863 13.0149 2.05686 12.9767 2.09509L7.82421 23.201L2.55718 2.01863C2.55718 1.98039 2.51901 1.94215 2.44268 1.94215H0.1145C0.0763334 1.94215 0.038167 1.94216 0.038167 1.98039C1.45026e-07 2.01863 0 2.01863 0 2.05687L6.60287 27.7893C6.60287 27.8275 6.64103 27.8658 6.71737 27.8658H9.04555C9.08371 27.8658 9.12188 27.8275 9.16005 27.7893L14.1217 8.1363V2.13333C14.1217 2.0951 14.1217 2.0951 14.0836 2.05687C14.0454 2.01863 14.0072 2.01863 13.9691 2.01863ZM29.5793 1.94215H27.2511C27.213 1.94215 27.1748 1.98039 27.1366 2.01863L21.8696 23.201L16.6789 2.09509C16.6789 2.05686 16.6026 2.01863 16.5644 2.01863H15.6866C15.6484 2.01863 15.6484 2.01863 15.6102 2.05687C15.6102 2.0951 15.5721 2.0951 15.5721 2.13333V8.17453L20.5338 27.7893C20.5338 27.8275 20.5719 27.8658 20.6483 27.8658H22.9764C23.0146 27.8658 23.0528 27.8275 23.091 27.7893L29.6938 2.05687C29.6938 2.01863 29.6938 1.98039 29.6556 1.98039C29.6175 1.98039 29.5793 1.94215 29.5793 1.94215ZM122.821 2.01863H121.943C121.905 2.01863 121.867 2.05686 121.829 2.09509L116.638 23.201L111.371 2.01863C111.371 1.98039 111.333 1.94215 111.256 1.94215H108.928C108.89 1.94215 108.852 1.94216 108.852 1.98039C108.852 2.01863 108.852 2.05687 108.852 2.05687L115.455 27.7893C115.455 27.8275 115.493 27.8658 115.569 27.8658H117.859C117.897 27.8658 117.936 27.8275 117.974 27.7893L122.935 8.1363V2.13333C122.935 2.0951 122.935 2.0951 122.897 2.05687C122.897 2.01863 122.859 2.01863 122.821 2.01863ZM138.393 1.94215H136.065C136.027 1.94215 135.989 1.98039 135.95 2.01863L130.683 23.201L125.493 2.09509C125.493 2.05686 125.454 2.01863 125.378 2.01863H124.5C124.462 2.01863 124.462 2.01863 124.424 2.05687C124.424 2.0951 124.386 2.0951 124.386 2.13333V8.17453L129.347 27.7893C129.347 27.8275 129.386 27.8658 129.462 27.8658H131.752C131.79 27.8658 131.828 27.8275 131.867 27.7893L138.469 2.05687C138.469 2.01863 138.469 1.98039 138.431 1.98039C138.469 1.98039 138.431 1.94215 138.393 1.94215Z" fill="white"></path>
    <path d="M222.36 6.22413C222.36 4.92413 223.238 3.81529 224.498 3.47117L224.727 2.47705C222.857 2.70646 221.444 4.31236 221.406 6.18589C221.406 8.09766 222.857 9.70355 224.727 9.93296L224.498 8.93885C223.276 8.63296 222.36 7.52413 222.36 6.22413ZM228.047 6.22413C228.047 4.92413 227.169 3.81529 225.91 3.47117L225.681 2.47705C227.551 2.70646 229.001 4.31236 229.001 6.18589C229.001 8.09766 227.589 9.70355 225.681 9.93296L225.91 8.93885C227.169 8.63296 228.047 7.52413 228.047 6.22413Z" fill="white"></path>
  </g>
  <defs>
    <clipPath id="clip0_877_5379">
      <rect width="229" height="30" fill="white"></rect>
    </clipPath>
  </defs>
</svg>
