<svg width="100" height="46" viewBox="0 0 100 46" fill="none" xmlns="http://www.w3.org/2000/svg">
<g clip-path="url(#clip0_119_1215)">
<path d="M27.3429 18.6731C28.4611 18.6731 29.1775 19.5826 28.9442 20.707L27.6379 26.9318C27.6204 27.1405 27.6759 27.3276 27.8064 27.494C27.9359 27.6604 28.1127 27.7441 28.3368 27.7441H31.1569L32.7304 20.708C32.9791 19.5815 34.0829 18.6731 35.2042 18.6731C36.3357 18.6731 37.0562 19.598 36.8116 20.7359L34.5197 31.3676H30.8291L30.8167 31.38H26.977C25.8588 31.38 24.9616 30.947 24.2864 30.0809C23.6029 29.2231 23.3614 28.2196 23.5629 27.0693L24.8773 20.7245C25.1117 19.5929 26.2175 18.6731 27.3429 18.6731Z" fill="white"/>
<path d="M57.8084 18.6731H60.0048C61.0057 18.6731 61.6405 19.4937 61.42 20.5003C61.201 21.4946 60.2275 22.2965 59.239 22.2965H58.8393C58.5907 22.2965 58.3653 22.3844 58.165 22.559C57.9715 22.7337 57.8474 22.9549 57.7897 23.2215L56.092 31.381H52.0664L53.9523 22.1849C54.4537 20.1355 55.7395 18.9655 57.8084 18.6741V18.6731Z" fill="white"/>
<path d="M65.656 31.3302C64.4519 31.2547 63.5335 30.985 62.9001 30.5179C62.2671 30.0518 61.78 29.4182 61.4376 28.6183C60.6914 26.8944 60.7739 24.9328 61.6844 22.7335C62.9241 20.2262 65.0414 18.8806 68.0331 18.6977H71.2383L71.746 16.4911C71.9991 15.3915 73.0769 14.512 74.1704 14.512C75.2643 14.512 75.9869 15.4163 75.7503 16.5304L74.0538 24.536C73.8141 25.6666 72.709 26.5823 71.5848 26.5823C70.4605 26.5823 69.7413 25.6625 69.9828 24.5297L70.4871 22.1713H68.4494C67.4564 22.2044 66.6618 22.4834 66.067 23.0084C65.4708 23.5004 65.0894 24.0998 64.9229 24.8077C64.4256 26.7487 65.0309 27.7315 66.7379 27.7564H71.6061C72.5838 27.7564 73.2096 28.5501 73.0075 29.533L72.6269 31.3798L65.6549 31.3302H65.656Z" fill="white"/>
<path d="M92.6676 27.6045H93.4806C94.5269 27.6045 95.1888 28.4644 94.9544 29.5155C94.7234 30.549 93.7109 31.3799 92.683 31.3799H91.87C90.8309 31.3799 90.169 30.5304 90.3933 29.4855C90.616 28.4448 91.6338 27.6035 92.6688 27.6035L92.6676 27.6045Z" fill="white"/>
<path d="M50.9115 29.7614C51.1253 28.7486 50.5598 27.9135 49.6238 27.7688L50.8253 21.9378C51.1961 20.1385 50.0501 18.6854 48.261 18.6854H44.2886C41.2958 18.8683 39.1797 20.2139 37.9402 22.7212C37.0296 24.9205 36.9474 26.8821 37.6935 28.606C38.0358 29.4059 38.5229 30.0384 39.156 30.5056C39.7891 30.9716 40.7069 31.2424 41.9114 31.3179L44.6453 31.3375L48.8835 31.3675L48.8858 31.3592C49.4479 31.3623 50.0111 31.3654 50.5733 31.3675L50.9126 29.7614H50.9115ZM42.9938 27.744C41.2865 27.7192 40.6812 26.7364 41.1786 24.7954C41.3451 24.0875 41.7264 23.4881 42.3225 22.9961C42.933 22.4546 43.7561 22.1755 44.7911 22.159H46.7171L46.452 23.4963H46.4644L45.6023 27.745H42.9926L42.9938 27.744Z" fill="white"/>
<path d="M87.7353 27.7606C85.5235 27.7606 83.3121 27.7586 81.1004 27.7576L86.542 22.1332C86.908 21.755 87.1604 21.293 87.2616 20.8176C87.5121 19.6332 86.7599 18.6731 85.5824 18.6731H78.5256C77.6931 18.6731 76.8764 19.351 76.6994 20.1882C76.6908 20.2274 76.6859 20.2646 76.6818 20.3029C76.6694 20.3453 76.657 20.3887 76.648 20.4321C76.4451 21.3901 77.0538 22.1663 78.0055 22.1663H80.6631C80.8578 22.1663 80.9241 22.3864 80.7786 22.5456L80.7753 22.5487L75.367 28.4097C75.1195 28.6774 74.9241 28.9874 74.8206 29.315C74.4648 30.4343 75.1349 31.379 76.2213 31.379H88.6488C88.792 30.732 88.9345 30.085 89.0763 29.4391C89.2668 28.5771 88.6139 27.7596 87.7364 27.7586L87.7353 27.7606Z" fill="white"/>
<path d="M22.4525 23.8054L21.6529 27.6862H21.656L20.7742 31.384L10.4792 31.3189C9.93656 31.2807 8.70736 31.1877 7.48434 30.0178C7.48434 30.0178 7.34456 29.8751 7.16779 29.6477C7.16779 29.6477 6.84303 29.2261 6.63028 28.762C6.39184 28.2432 6.10098 27.3554 6.86255 25.6843C7.67344 23.9025 9.32712 22.7884 9.60049 23.0003C9.78859 23.147 9.20378 23.7991 9.26235 25.0177C9.27983 25.3877 9.31785 26.1721 9.9006 26.8335C9.98179 26.9255 10.5337 27.5342 11.4299 27.6645C11.6118 27.6913 11.766 27.6913 11.8759 27.6872H17.5368L18.32 23.8922C18.5625 22.7202 19.6961 21.76 20.8503 21.7538H20.8626C21.0938 21.7538 21.3128 21.7921 21.51 21.8686C21.7495 21.9585 21.9572 22.1042 22.1206 22.2944C22.1339 22.3099 22.1483 22.3254 22.1606 22.3409C22.4659 22.7285 22.5707 23.2473 22.4556 23.8064L22.4525 23.8054Z" fill="white"/>
<path d="M23.8166 16.6503C23.6737 17.3252 23.2441 17.9236 22.6881 18.3122C22.2678 18.6068 21.7735 18.7804 21.2801 18.7752L14.3325 18.7059C13.5874 18.738 12.9738 18.8176 12.5391 18.8868C11.1855 19.1028 9.59045 19.6713 7.82582 20.8546C7.43938 21.1182 6.89776 21.5378 6.35716 22.1527C5.61923 22.9919 5.30577 23.7153 5.11049 23.6471C4.87925 23.5655 5.07966 22.4152 5.09919 22.3036C5.8032 18.3546 8.59046 16.2679 8.59046 16.2679C10.7385 14.6598 12.8453 14.5172 13.7323 14.5089L22.274 14.5947C22.7971 14.5999 23.2462 14.8107 23.535 15.1838C23.8351 15.5714 23.9348 16.0912 23.8166 16.6503Z" fill="white"/>
</g>
<defs>
<clipPath id="clip0_119_1215">
<rect width="90" height="16.875" fill="white" transform="translate(5 14.5089)"/>
</clipPath>
</defs>
</svg>
