<svg width="100" height="46" viewBox="0 0 100 46" fill="none" xmlns="http://www.w3.org/2000/svg">
<g clip-path="url(#clip0_119_1167)">
<path d="M0.142689 17.5786L4.46893 25.5928C4.75262 26.1602 5.46184 26.5857 6.10014 26.5857H14.8945C15.4618 26.5857 15.7455 26.1602 15.4618 25.5928L11.1356 17.5786C10.8519 17.0112 10.1427 16.5857 9.50439 16.5857H0.639143H0.568221C0.0717671 16.5857 -0.140999 17.0112 0.142689 17.5786Z" fill="white"/>
<path d="M16.8091 26.8694L19.4332 31.6212C19.575 31.9758 20.0006 32.1885 20.4261 32.1885L25.6034 32.1176C25.958 32.1176 26.0999 31.8339 25.958 31.5502L23.3339 26.7985C23.1921 26.4438 22.7665 26.2311 22.341 26.2311L17.0928 26.302C16.8091 26.302 16.5963 26.5857 16.8091 26.8694Z" fill="white"/>
<path d="M16.8083 8.85522L11.631 15.38C11.2764 15.8056 11.2764 16.6566 11.5601 17.1531L15.8864 25.0964C16.17 25.6637 16.6665 25.7347 17.092 25.2382L22.3403 18.7134C22.6949 18.2878 22.6949 17.4368 22.4112 16.9403L18.014 9.06799C17.8722 8.7843 17.5885 8.57153 17.3048 8.57153C17.1629 8.57153 17.0211 8.64246 16.8083 8.85522Z" fill="white"/>
<path d="M15.6032 26.9403L12.4826 30.841C12.2698 31.1247 12.1989 31.5503 12.4117 31.9049L15.0358 36.6566C15.1776 37.0113 15.5322 37.0113 15.745 36.7276L18.8656 32.8269C19.0783 32.5432 19.1493 32.1176 18.9365 31.763L16.3833 27.0113C16.3124 26.8694 16.0996 26.7276 16.0287 26.7276C15.8159 26.7985 15.745 26.7985 15.6032 26.9403Z" fill="white"/>
<path d="M74.5406 15.5219H72.7676V28.2878H74.5406V15.5219Z" fill="white"/>
<path d="M41.4902 19.5644C38.937 19.5644 36.9512 21.5502 36.9512 23.9616V32.1176H38.7242V23.9616C38.7242 22.4722 39.9299 21.1956 41.5611 21.1956C43.1214 21.1956 44.398 22.4722 44.398 23.9616C44.398 25.4509 43.1923 26.7275 41.5611 26.7275C40.71 26.7275 39.9299 26.3729 39.3625 25.7346V27.8623C40.0008 28.2169 40.71 28.3587 41.4902 28.3587C44.0434 28.3587 46.0292 26.3729 46.0292 23.9616C46.0292 21.5502 44.0434 19.5644 41.4902 19.5644Z" fill="white"/>
<path d="M51.3496 19.5644C48.7964 19.5644 46.8105 21.5502 46.8105 23.9616V32.1176H48.5836V23.9616C48.5836 22.4722 49.7893 21.1956 51.4205 21.1956C52.9808 21.1956 54.2574 22.4722 54.2574 23.9616C54.2574 25.4509 53.0517 26.7275 51.4205 26.7275C50.5694 26.7275 49.7893 26.3729 49.2219 25.7346V27.8623C49.8602 28.2169 50.5694 28.3587 51.3496 28.3587C53.9027 28.3587 55.8886 26.3729 55.8886 23.9616C55.8886 21.5502 53.8318 19.5644 51.3496 19.5644Z" fill="white"/>
<path d="M31.4199 15.5219C28.8667 15.5219 26.8809 17.5077 26.8809 19.919V28.2878H28.6539V19.9899C28.6539 18.5006 29.8596 17.2949 31.4199 17.2949C32.9801 17.2949 34.1858 18.5006 34.1858 19.9899V20.9119H29.7177V22.614H34.1858V28.3587H35.9589V19.9899C35.888 17.5077 33.9021 15.5219 31.4199 15.5219Z" fill="white"/>
<path d="M66.9508 19.9899C66.9508 18.5006 68.1565 17.2949 69.7167 17.2949H71.9153V15.5219H69.7167C67.1636 15.5219 65.1777 17.5077 65.1777 19.919V28.2878H66.9508V22.7559H71.7735V21.0538H66.9508V19.9899Z" fill="white"/>
<path d="M81.8436 19.6354V24.9545C81.7726 26.0184 80.9216 26.8694 79.7868 26.8694C78.6521 26.8694 77.801 26.0184 77.7301 24.9545V19.6354H75.957V24.9545C75.957 26.6567 77.1627 28.146 78.8648 28.5006V32.1176H80.6379V28.5006C82.2691 28.146 83.5457 26.7276 83.5457 24.9545V19.6354H81.8436Z" fill="white"/>
<path d="M91.7021 24.6708C91.5602 25.3801 91.0638 25.9474 90.3546 26.373C89.007 27.1531 87.3049 26.6567 86.5248 25.3801C85.7446 24.1035 86.2411 22.4013 87.5177 21.6212C88.5815 21.0538 89.929 21.1957 90.7801 21.9758L86.8794 24.1744L87.7304 25.6637L93.1914 22.6141C93.1205 22.3304 92.9787 22.1176 92.8368 21.834C91.6312 19.7063 88.7943 18.9971 86.6666 20.2028C84.468 21.4793 83.7588 24.1744 85.0354 26.2311C86.312 28.2879 89.078 29.068 91.2056 27.8623C92.4113 27.1531 93.1914 25.9474 93.4042 24.6708H91.7021Z" fill="white"/>
<path d="M98.9374 19.5644C97.8736 19.5644 96.9516 19.919 96.1715 20.4864V19.5644H94.3984V28.2878H96.1715V23.8907C96.1715 22.4013 97.3772 21.1956 98.9374 21.1956H99.2921V19.4935H98.9374V19.5644Z" fill="white"/>
<path d="M62.553 24.3162L58.1558 22.3304C57.9431 22.2595 57.8722 21.9758 57.9431 21.763C58.014 21.6212 58.1558 21.4793 58.2977 21.4793H63.2622V19.7772H58.2977C57.5175 19.7772 56.6665 20.2737 56.3119 21.0538C55.8154 22.1176 56.241 23.3942 57.3048 23.8907L61.631 25.8765C61.8438 25.9474 61.9147 26.2311 61.8438 26.4439C61.7729 26.5857 61.631 26.7276 61.4892 26.7276H56.3828V28.4297H61.4892C62.2693 28.4297 63.1204 27.9333 63.475 27.1531C64.1133 26.0184 63.6168 24.8127 62.553 24.3162Z" fill="white"/>
</g>
<defs>
<clipPath id="clip0_119_1167">
<rect width="100" height="28.3688" fill="white" transform="translate(0 8.57141)"/>
</clipPath>
</defs>
</svg>
