<?xml version="1.0" encoding="UTF-8"?>
<svg xmlns="http://www.w3.org/2000/svg" width="200" height="40" viewBox="0 0 200 40" fill="none">
  <g clip-path="url(#clip0_877_5365)">
    <path fill-rule="evenodd" clip-rule="evenodd" d="M7.1053 31.4744C5.89748 32.5401 4.83176 32.398 3.76605 32.5401C2.77137 32.5401 1.84775 32.9664 1.06622 33.6058C-0.283688 35.0268 -0.283688 37.3003 1.13727 38.6502C2.48718 40.0001 4.68967 40.0001 6.03958 38.6502C6.67901 37.8687 7.03425 36.9451 7.03425 35.9504C7.1053 34.8847 7.1053 33.7479 8.09997 32.6111C9.23674 31.6165 10.3735 31.6165 11.4392 31.5454C12.4339 31.5454 13.3575 31.1191 14.139 30.4797C15.489 29.0587 15.489 26.7852 14.068 25.4353C12.7181 24.0854 10.5156 24.0854 9.16569 25.4353C8.52626 26.2168 8.17102 27.1404 8.09997 28.1351C7.95787 29.2008 8.17102 30.2665 7.1053 31.4744Z" fill="white"></path>
    <path fill-rule="evenodd" clip-rule="evenodd" d="M31.336 7.10485C30.1281 8.17057 29.0624 8.02848 27.9967 8.17057C27.002 8.24162 26.0784 8.59686 25.2969 9.23629C24.0891 10.7283 24.3022 13.0018 25.7942 14.2096C27.0731 15.2754 28.9914 15.2754 30.2702 14.2096C30.9097 13.4281 31.2649 12.5045 31.336 11.5098C31.407 10.4441 31.407 9.30734 32.4017 8.17057C33.5384 7.1759 34.6752 7.1759 35.7409 7.10485C36.7356 7.10485 37.6592 6.67857 38.4407 6.03913C39.7196 4.54713 39.6486 2.34464 38.1566 0.994729C36.8066 -0.213087 34.7463 -0.213087 33.3963 0.994729C32.7569 1.77626 32.4017 2.69988 32.3306 3.69455C32.2596 4.83132 32.4017 5.89704 31.336 7.10485Z" fill="white"></path>
    <path fill-rule="evenodd" clip-rule="evenodd" d="M31.3328 32.611C32.3985 33.8188 32.2564 34.8845 32.3985 35.9502C32.3985 36.9449 32.8248 37.8685 33.4642 38.65C34.8852 39.9999 37.1587 39.9999 38.5086 38.579C39.8585 37.2291 39.8585 35.0266 38.5086 33.6767C37.7271 33.0372 36.8035 32.682 35.8088 32.611C34.7431 32.5399 33.6063 32.5399 32.4695 31.5452C31.4749 30.4085 31.4749 29.2717 31.4038 28.206C31.4038 27.2113 30.9775 26.2877 30.3381 25.5062C28.9171 24.1563 26.6436 24.1563 25.2937 25.5772C23.9438 26.9271 23.9438 29.1296 25.2937 30.4795C26.0752 31.119 26.9988 31.4742 27.9935 31.5452C29.0592 31.6873 30.1249 31.5452 31.3328 32.611Z" fill="white"></path>
    <path fill-rule="evenodd" clip-rule="evenodd" d="M7.10767 8.17053C8.17339 9.37835 8.03129 10.4441 8.17339 11.5098C8.17339 12.5045 8.52863 13.4281 9.16806 14.2096C10.3759 15.7727 12.6494 15.9858 14.1414 14.778C15.6334 13.5702 15.9176 11.2966 14.7098 9.80463C14.5677 9.59149 14.3546 9.44939 14.1414 9.23625C13.3599 8.59682 12.4363 8.24158 11.4416 8.17053C10.3759 8.09948 9.23911 8.09948 8.10234 7.10481C7.10767 5.96804 7.10767 4.83128 7.03662 3.76556C7.03662 2.77089 6.68138 1.77621 5.9709 1.06573C4.54994 -0.284176 2.27641 -0.284176 0.926496 1.13678C-0.423415 2.48669 -0.423415 4.68918 0.926496 6.03909C1.85012 6.74957 2.77374 7.10481 3.76841 7.10481C4.83413 7.24691 5.89985 7.10481 7.10767 8.17053Z" fill="white"></path>
    <path fill-rule="evenodd" clip-rule="evenodd" d="M19.7551 24.0853C22.0996 24.0853 24.0179 22.167 24.0179 19.8224C24.0179 17.4779 22.0996 15.5596 19.7551 15.5596C17.4105 15.5596 15.4922 17.4779 15.4922 19.8224C15.4922 22.2381 17.3394 24.0853 19.7551 24.0853Z" fill="white"></path>
    <path d="M61.3879 24.0142L59.8959 27.6377C59.7538 28.0639 59.3275 28.3481 58.9012 28.3481H58.0486C57.5513 28.3481 57.125 27.9218 57.125 27.4245C57.125 27.2824 57.125 27.2114 57.196 27.0693L63.5193 12.0782C63.6614 11.6519 64.0877 11.3677 64.514 11.3677H65.6508C66.077 11.3677 66.5033 11.6519 66.6454 12.0782L72.9687 27.0693C73.0397 27.2114 73.0397 27.2824 73.0397 27.4245C73.0397 27.9218 72.6135 28.3481 72.1161 28.3481H71.0504C70.6241 28.3481 70.1978 28.0639 70.0557 27.6377L68.5637 24.0142H61.3879ZM62.5246 21.2433H67.498L65.0113 15.2043L62.5246 21.2433Z" fill="white"></path>
    <path d="M87.1048 17.5491L90.7993 12.0074C91.0835 11.6521 91.5098 11.439 91.9361 11.3679H93.0728C93.5702 11.3679 93.9254 11.7232 93.9254 12.2205C93.9254 12.3626 93.8544 12.5757 93.7833 12.7178L89.0231 19.6805L93.9965 26.9985C94.0675 27.1406 94.1385 27.2827 94.1385 27.4958C94.1385 27.9931 93.7833 28.3484 93.286 28.3484H92.1492C91.7229 28.3484 91.2966 28.1352 91.0124 27.78L87.0337 22.0251L83.1261 27.709C82.8419 28.0642 82.4156 28.2773 81.9893 28.2773H80.8526C80.3552 28.2773 80 27.9221 80 27.4248C80 27.2827 80.0711 27.0695 80.1421 26.9274L85.1155 19.6095L80.3552 12.6468C80.2842 12.5047 80.2131 12.3626 80.2131 12.1495C80.2131 11.6521 80.5684 11.2969 81.0657 11.2969H82.2025C82.6288 11.2969 83.0551 11.51 83.3393 11.9363L87.1048 17.5491Z" fill="white"></path>
    <path d="M109.704 11.1548C114.749 11.1548 118.514 14.6361 118.514 19.8937C118.657 24.5828 114.891 28.4905 110.202 28.6326C110.06 28.6326 109.847 28.6326 109.704 28.6326C104.66 28.6326 100.895 25.1512 100.895 19.9647C100.752 15.2756 104.518 11.3679 109.207 11.2258C109.349 11.1548 109.491 11.1548 109.704 11.1548ZM109.704 25.7907C113.257 25.7907 115.388 23.1619 115.388 19.8226C115.388 16.3413 112.902 13.8546 109.704 13.8546C106.507 13.8546 104.021 16.2702 104.021 19.8226C103.879 22.9487 106.294 25.5775 109.42 25.7196C109.491 25.7907 109.562 25.7907 109.704 25.7907Z" fill="white"></path>
    <path d="M141.101 11.4387C141.599 11.4387 141.954 11.865 142.025 12.3623V27.4956C142.025 27.9929 141.599 28.3481 141.101 28.4192H140.249C139.823 28.4192 139.396 28.206 139.183 27.8508L130.373 16.6963V27.4956C130.373 27.9929 129.947 28.3481 129.45 28.4192H128.455C127.958 28.4192 127.602 27.9929 127.531 27.4956V12.2913C127.531 11.794 127.958 11.4387 128.455 11.3677H129.307C129.734 11.3677 130.16 11.5808 130.373 11.9361L139.254 23.1616V12.2913C139.254 11.794 139.68 11.4387 140.178 11.3677H141.101V11.4387Z" fill="white"></path>
    <path d="M155.743 27.4245C155.743 27.9218 155.316 28.2771 154.819 28.3481H153.611C153.114 28.3481 152.759 27.9218 152.688 27.4245V12.2913C152.688 11.794 153.114 11.4387 153.611 11.3677H154.819C155.316 11.3677 155.672 11.794 155.743 12.2913V27.4245Z" fill="white"></path>
    <path d="M177.198 12.2913C177.198 11.794 177.625 11.4387 178.122 11.3677H179.259C179.756 11.3677 180.111 11.794 180.182 12.2913V21.3144C180.182 26.5009 177.056 28.5613 173.504 28.5613C169.312 28.5613 166.328 26.0746 166.328 21.1012V12.2913C166.328 11.794 166.754 11.4387 167.252 11.3677H168.46C168.957 11.3677 169.312 11.794 169.383 12.2913V20.5329C169.383 23.659 170.662 25.7904 173.575 25.7904C176.133 25.7904 177.341 24.0142 177.341 20.675L177.198 12.2913Z" fill="white"></path>
    <path d="M190.056 24.4405C190.198 24.2984 190.411 24.1563 190.695 24.1563C190.979 24.1563 191.192 24.2274 191.406 24.4405C192.258 25.222 193.324 25.7194 194.461 25.7904C195.882 25.7904 196.947 25.0799 196.947 23.8011C196.947 20.4618 189.274 21.3144 189.274 15.7727C189.274 13.2149 191.264 11.0835 194.532 11.0835C195.953 11.0835 197.374 11.4387 198.581 12.1492C198.866 12.2913 199.008 12.5755 199.008 12.9307C199.008 13.0728 198.937 13.2149 198.866 13.357L198.439 14.1386C198.297 14.4227 197.942 14.6359 197.658 14.6359C197.516 14.6359 197.374 14.6359 197.232 14.5648C196.45 14.2096 195.669 13.9254 194.816 13.9254C193.324 13.9254 192.471 14.6359 192.471 15.7727C192.471 19.254 200.145 18.1883 200.145 23.8011C200.145 26.643 197.658 28.5613 194.461 28.5613C192.613 28.5613 190.766 27.8508 189.487 26.5009C189.274 26.2878 189.203 26.0746 189.203 25.7904C189.203 25.5773 189.274 25.3641 189.416 25.222L190.056 24.4405Z" fill="white"></path>
  </g>
  <defs>
    <clipPath id="clip0_877_5365">
      <rect width="200" height="39.7158" fill="white"></rect>
    </clipPath>
  </defs>
</svg>
