<svg width="1440" height="886" viewBox="0 0 1440 886" fill="none" xmlns="http://www.w3.org/2000/svg">
<path d="M28.5479 629.982L28.5479 604.69" stroke="white" stroke-width="0.5" stroke-linecap="round"/>
<path d="M41.1885 617.342L15.8965 617.342" stroke="white" stroke-width="0.5" stroke-linecap="round"/>
<path d="M28.5479 543.549L28.5479 518.257" stroke="white" stroke-width="0.5" stroke-linecap="round"/>
<path d="M41.1885 530.908L15.8965 530.908" stroke="white" stroke-width="0.5" stroke-linecap="round"/>
<path d="M28.5479 716.414L28.5479 691.122" stroke="white" stroke-width="0.5" stroke-linecap="round"/>
<path d="M41.1885 703.773L15.8965 703.773" stroke="white" stroke-width="0.5" stroke-linecap="round"/>
<path d="M114.978 716.414L114.978 691.122" stroke="white" stroke-width="0.5" stroke-linecap="round"/>
<path d="M127.618 703.773L102.326 703.773" stroke="white" stroke-width="0.5" stroke-linecap="round"/>
<path d="M114.978 629.982L114.978 604.69" stroke="white" stroke-width="0.5" stroke-linecap="round"/>
<path d="M127.618 617.342L102.326 617.342" stroke="white" stroke-width="0.5" stroke-linecap="round"/>
<path d="M201.407 629.982L201.407 604.69" stroke="white" stroke-width="0.5" stroke-linecap="round"/>
<path d="M214.048 617.342L188.756 617.342" stroke="white" stroke-width="0.5" stroke-linecap="round"/>
<path d="M114.978 543.549L114.978 518.257" stroke="white" stroke-width="0.5" stroke-linecap="round"/>
<path d="M127.618 530.908L102.326 530.908" stroke="white" stroke-width="0.5" stroke-linecap="round"/>
<path d="M201.407 543.549L201.407 518.257" stroke="white" stroke-width="0.5" stroke-linecap="round"/>
<path d="M214.048 530.908L188.756 530.908" stroke="white" stroke-width="0.5" stroke-linecap="round"/>
<path d="M201.407 716.414L201.407 691.122" stroke="white" stroke-width="0.5" stroke-linecap="round"/>
<path d="M214.048 703.773L188.756 703.773" stroke="white" stroke-width="0.5" stroke-linecap="round"/>
<path d="M28.5479 457.121L28.5479 431.829" stroke="white" stroke-width="0.5" stroke-linecap="round"/>
<path d="M41.1885 444.48L15.8965 444.48" stroke="white" stroke-width="0.5" stroke-linecap="round"/>
<path d="M28.5479 370.685L28.5479 345.393" stroke="white" stroke-width="0.5" stroke-linecap="round"/>
<path d="M41.1885 358.044L15.8965 358.044" stroke="white" stroke-width="0.5" stroke-linecap="round"/>
<path d="M114.978 457.121L114.978 431.829" stroke="white" stroke-width="0.5" stroke-linecap="round"/>
<path d="M127.618 444.48L102.326 444.48" stroke="white" stroke-width="0.5" stroke-linecap="round"/>
<path d="M201.407 457.121L201.407 431.829" stroke="white" stroke-width="0.5" stroke-linecap="round"/>
<path d="M214.048 444.48L188.756 444.48" stroke="white" stroke-width="0.5" stroke-linecap="round"/>
<path d="M114.978 370.685L114.978 345.393" stroke="white" stroke-width="0.5" stroke-linecap="round"/>
<path d="M127.618 358.044L102.326 358.044" stroke="white" stroke-width="0.5" stroke-linecap="round"/>
<path d="M201.407 370.685L201.407 345.393" stroke="white" stroke-width="0.5" stroke-linecap="round"/>
<path d="M214.048 358.044L188.756 358.044" stroke="white" stroke-width="0.5" stroke-linecap="round"/>
<path d="M287.837 629.982L287.837 604.69" stroke="white" stroke-width="0.5" stroke-linecap="round"/>
<path d="M300.478 617.341L275.186 617.341" stroke="white" stroke-width="0.5" stroke-linecap="round"/>
<path d="M287.837 543.548L287.837 518.256" stroke="white" stroke-width="0.5" stroke-linecap="round"/>
<path d="M300.478 530.908L275.186 530.908" stroke="white" stroke-width="0.5" stroke-linecap="round"/>
<path d="M287.837 716.414L287.837 691.122" stroke="white" stroke-width="0.5" stroke-linecap="round"/>
<path d="M300.478 703.773L275.186 703.773" stroke="white" stroke-width="0.5" stroke-linecap="round"/>
<path d="M374.267 716.414L374.267 691.122" stroke="white" stroke-width="0.5" stroke-linecap="round"/>
<path d="M386.907 703.773L361.615 703.773" stroke="white" stroke-width="0.5" stroke-linecap="round"/>
<path d="M374.267 629.982L374.267 604.69" stroke="white" stroke-width="0.5" stroke-linecap="round"/>
<path d="M386.907 617.341L361.615 617.341" stroke="white" stroke-width="0.5" stroke-linecap="round"/>
<path d="M460.696 629.982L460.696 604.69" stroke="white" stroke-width="0.5" stroke-linecap="round"/>
<path d="M473.337 617.341L448.045 617.341" stroke="white" stroke-width="0.5" stroke-linecap="round"/>
<path d="M374.267 543.548L374.267 518.256" stroke="white" stroke-width="0.5" stroke-linecap="round"/>
<path d="M386.907 530.908L361.615 530.908" stroke="white" stroke-width="0.5" stroke-linecap="round"/>
<path d="M460.696 543.548L460.696 518.256" stroke="white" stroke-width="0.5" stroke-linecap="round"/>
<path d="M473.337 530.908L448.045 530.908" stroke="white" stroke-width="0.5" stroke-linecap="round"/>
<path d="M460.696 716.414L460.696 691.122" stroke="white" stroke-width="0.5" stroke-linecap="round"/>
<path d="M473.337 703.773L448.045 703.773" stroke="white" stroke-width="0.5" stroke-linecap="round"/>
<path d="M547.134 629.982L547.134 604.69" stroke="white" stroke-width="0.5" stroke-linecap="round"/>
<path d="M559.774 617.341L534.482 617.341" stroke="white" stroke-width="0.5" stroke-linecap="round"/>
<path d="M547.134 543.548L547.134 518.256" stroke="white" stroke-width="0.5" stroke-linecap="round"/>
<path d="M559.774 530.908L534.482 530.908" stroke="white" stroke-width="0.5" stroke-linecap="round"/>
<path d="M547.134 716.414L547.134 691.122" stroke="white" stroke-width="0.5" stroke-linecap="round"/>
<path d="M559.774 703.773L534.482 703.773" stroke="white" stroke-width="0.5" stroke-linecap="round"/>
<path d="M633.563 716.414L633.563 691.122" stroke="white" stroke-width="0.5" stroke-linecap="round"/>
<path d="M646.204 703.773L620.912 703.773" stroke="white" stroke-width="0.5" stroke-linecap="round"/>
<path d="M633.563 629.982L633.563 604.69" stroke="white" stroke-width="0.5" stroke-linecap="round"/>
<path d="M646.204 617.341L620.912 617.341" stroke="white" stroke-width="0.5" stroke-linecap="round"/>
<path d="M719.993 629.982L719.993 604.69" stroke="white" stroke-width="0.5" stroke-linecap="round"/>
<path d="M732.634 617.341L707.342 617.341" stroke="white" stroke-width="0.5" stroke-linecap="round"/>
<path d="M633.563 543.548L633.563 518.256" stroke="white" stroke-width="0.5" stroke-linecap="round"/>
<path d="M646.204 530.908L620.912 530.908" stroke="white" stroke-width="0.5" stroke-linecap="round"/>
<path d="M719.993 543.548L719.993 518.256" stroke="white" stroke-width="0.5" stroke-linecap="round"/>
<path d="M732.634 530.908L707.342 530.908" stroke="white" stroke-width="0.5" stroke-linecap="round"/>
<path d="M719.993 716.414L719.993 691.122" stroke="white" stroke-width="0.5" stroke-linecap="round"/>
<path d="M732.634 703.773L707.342 703.773" stroke="white" stroke-width="0.5" stroke-linecap="round"/>
<path d="M287.837 457.12L287.837 431.828" stroke="white" stroke-width="0.5" stroke-linecap="round"/>
<path d="M300.478 444.479L275.186 444.479" stroke="white" stroke-width="0.5" stroke-linecap="round"/>
<path d="M287.837 370.685L287.837 345.393" stroke="white" stroke-width="0.5" stroke-linecap="round"/>
<path d="M300.478 358.044L275.186 358.044" stroke="white" stroke-width="0.5" stroke-linecap="round"/>
<path d="M374.267 457.12L374.267 431.828" stroke="white" stroke-width="0.5" stroke-linecap="round"/>
<path d="M386.907 444.479L361.615 444.479" stroke="white" stroke-width="0.5" stroke-linecap="round"/>
<path d="M460.696 457.12L460.696 431.828" stroke="white" stroke-width="0.5" stroke-linecap="round"/>
<path d="M473.337 444.479L448.045 444.479" stroke="white" stroke-width="0.5" stroke-linecap="round"/>
<path d="M374.267 370.685L374.267 345.393" stroke="white" stroke-width="0.5" stroke-linecap="round"/>
<path d="M386.907 358.044L361.615 358.044" stroke="white" stroke-width="0.5" stroke-linecap="round"/>
<path d="M460.696 370.685L460.696 345.393" stroke="white" stroke-width="0.5" stroke-linecap="round"/>
<path d="M473.337 358.044L448.045 358.044" stroke="white" stroke-width="0.5" stroke-linecap="round"/>
<path d="M547.134 457.12L547.134 431.828" stroke="white" stroke-width="0.5" stroke-linecap="round"/>
<path d="M559.774 444.479L534.482 444.479" stroke="white" stroke-width="0.5" stroke-linecap="round"/>
<path d="M547.134 370.685L547.134 345.393" stroke="white" stroke-width="0.5" stroke-linecap="round"/>
<path d="M559.774 358.044L534.482 358.044" stroke="white" stroke-width="0.5" stroke-linecap="round"/>
<path d="M633.563 457.12L633.563 431.828" stroke="white" stroke-width="0.5" stroke-linecap="round"/>
<path d="M646.204 444.479L620.912 444.479" stroke="white" stroke-width="0.5" stroke-linecap="round"/>
<path d="M719.993 457.12L719.993 431.828" stroke="white" stroke-width="0.5" stroke-linecap="round"/>
<path d="M732.634 444.479L707.342 444.479" stroke="white" stroke-width="0.5" stroke-linecap="round"/>
<path d="M633.563 370.685L633.563 345.393" stroke="white" stroke-width="0.5" stroke-linecap="round"/>
<path d="M646.204 358.044L620.912 358.044" stroke="white" stroke-width="0.5" stroke-linecap="round"/>
<path d="M719.993 370.685L719.993 345.393" stroke="white" stroke-width="0.5" stroke-linecap="round"/>
<path d="M732.634 358.044L707.342 358.044" stroke="white" stroke-width="0.5" stroke-linecap="round"/>
<path d="M28.5479 284.257L28.5479 258.965" stroke="white" stroke-width="0.5" stroke-linecap="round"/>
<path d="M41.1885 271.617L15.8965 271.617" stroke="white" stroke-width="0.5" stroke-linecap="round"/>
<path d="M28.5479 197.822L28.5479 172.53" stroke="white" stroke-width="0.5" stroke-linecap="round"/>
<path d="M41.1885 185.181L15.8965 185.181" stroke="white" stroke-width="0.5" stroke-linecap="round"/>
<path d="M114.978 284.257L114.978 258.965" stroke="white" stroke-width="0.5" stroke-linecap="round"/>
<path d="M127.618 271.617L102.326 271.617" stroke="white" stroke-width="0.5" stroke-linecap="round"/>
<path d="M201.407 284.257L201.407 258.965" stroke="white" stroke-width="0.5" stroke-linecap="round"/>
<path d="M214.048 271.617L188.756 271.617" stroke="white" stroke-width="0.5" stroke-linecap="round"/>
<path d="M114.978 197.822L114.978 172.53" stroke="white" stroke-width="0.5" stroke-linecap="round"/>
<path d="M127.618 185.181L102.326 185.181" stroke="white" stroke-width="0.5" stroke-linecap="round"/>
<path d="M201.407 197.822L201.407 172.53" stroke="white" stroke-width="0.5" stroke-linecap="round"/>
<path d="M214.048 185.181L188.756 185.181" stroke="white" stroke-width="0.5" stroke-linecap="round"/>
<path d="M28.5479 111.394L28.5479 86.1021" stroke="white" stroke-width="0.5" stroke-linecap="round"/>
<path d="M41.1885 98.7534L15.8965 98.7534" stroke="white" stroke-width="0.5" stroke-linecap="round"/>
<path d="M28.5479 24.9585L28.5479 -0.333459" stroke="white" stroke-width="0.5" stroke-linecap="round"/>
<path d="M41.1885 12.3179L15.8965 12.3179" stroke="white" stroke-width="0.5" stroke-linecap="round"/>
<path d="M114.978 111.394L114.978 86.1021" stroke="white" stroke-width="0.5" stroke-linecap="round"/>
<path d="M127.618 98.7534L102.326 98.7534" stroke="white" stroke-width="0.5" stroke-linecap="round"/>
<path d="M201.407 111.394L201.407 86.1021" stroke="white" stroke-width="0.5" stroke-linecap="round"/>
<path d="M214.048 98.7534L188.756 98.7534" stroke="white" stroke-width="0.5" stroke-linecap="round"/>
<path d="M114.978 24.9585L114.978 -0.333459" stroke="white" stroke-width="0.5" stroke-linecap="round"/>
<path d="M127.618 12.3179L102.326 12.3179" stroke="white" stroke-width="0.5" stroke-linecap="round"/>
<path d="M201.407 24.9585L201.407 -0.333459" stroke="white" stroke-width="0.5" stroke-linecap="round"/>
<path d="M214.048 12.3179L188.756 12.3179" stroke="white" stroke-width="0.5" stroke-linecap="round"/>
<path d="M287.837 284.257L287.837 258.965" stroke="white" stroke-width="0.5" stroke-linecap="round"/>
<path d="M300.478 271.617L275.186 271.617" stroke="white" stroke-width="0.5" stroke-linecap="round"/>
<path d="M287.837 197.822L287.837 172.53" stroke="white" stroke-width="0.5" stroke-linecap="round"/>
<path d="M300.478 185.181L275.186 185.181" stroke="white" stroke-width="0.5" stroke-linecap="round"/>
<path d="M374.267 284.257L374.267 258.965" stroke="white" stroke-width="0.5" stroke-linecap="round"/>
<path d="M386.907 271.617L361.615 271.617" stroke="white" stroke-width="0.5" stroke-linecap="round"/>
<path d="M460.696 284.257L460.696 258.965" stroke="white" stroke-width="0.5" stroke-linecap="round"/>
<path d="M473.337 271.617L448.045 271.617" stroke="white" stroke-width="0.5" stroke-linecap="round"/>
<path d="M374.267 197.822L374.267 172.53" stroke="white" stroke-width="0.5" stroke-linecap="round"/>
<path d="M386.907 185.181L361.615 185.181" stroke="white" stroke-width="0.5" stroke-linecap="round"/>
<path d="M460.696 197.822L460.696 172.53" stroke="white" stroke-width="0.5" stroke-linecap="round"/>
<path d="M473.337 185.181L448.045 185.181" stroke="white" stroke-width="0.5" stroke-linecap="round"/>
<path d="M547.134 284.257L547.134 258.965" stroke="white" stroke-width="0.5" stroke-linecap="round"/>
<path d="M559.774 271.617L534.482 271.617" stroke="white" stroke-width="0.5" stroke-linecap="round"/>
<path d="M547.134 197.822L547.134 172.53" stroke="white" stroke-width="0.5" stroke-linecap="round"/>
<path d="M559.774 185.181L534.482 185.181" stroke="white" stroke-width="0.5" stroke-linecap="round"/>
<path d="M633.563 284.257L633.563 258.965" stroke="white" stroke-width="0.5" stroke-linecap="round"/>
<path d="M646.204 271.617L620.912 271.617" stroke="white" stroke-width="0.5" stroke-linecap="round"/>
<path d="M719.993 284.257L719.993 258.965" stroke="white" stroke-width="0.5" stroke-linecap="round"/>
<path d="M732.634 271.617L707.342 271.617" stroke="white" stroke-width="0.5" stroke-linecap="round"/>
<path d="M633.563 197.822L633.563 172.53" stroke="white" stroke-width="0.5" stroke-linecap="round"/>
<path d="M646.204 185.181L620.912 185.181" stroke="white" stroke-width="0.5" stroke-linecap="round"/>
<path d="M719.993 197.822L719.993 172.53" stroke="white" stroke-width="0.5" stroke-linecap="round"/>
<path d="M732.634 185.181L707.342 185.181" stroke="white" stroke-width="0.5" stroke-linecap="round"/>
<path d="M287.837 111.394L287.837 86.1023" stroke="white" stroke-width="0.5" stroke-linecap="round"/>
<path d="M300.478 98.7534L275.186 98.7534" stroke="white" stroke-width="0.5" stroke-linecap="round"/>
<path d="M287.837 24.9585L287.837 -0.333459" stroke="white" stroke-width="0.5" stroke-linecap="round"/>
<path d="M300.478 12.3179L275.186 12.3179" stroke="white" stroke-width="0.5" stroke-linecap="round"/>
<path d="M374.267 111.394L374.267 86.1023" stroke="white" stroke-width="0.5" stroke-linecap="round"/>
<path d="M386.907 98.7534L361.615 98.7534" stroke="white" stroke-width="0.5" stroke-linecap="round"/>
<path d="M460.696 111.394L460.696 86.1023" stroke="white" stroke-width="0.5" stroke-linecap="round"/>
<path d="M473.337 98.7534L448.045 98.7534" stroke="white" stroke-width="0.5" stroke-linecap="round"/>
<path d="M374.267 24.9585L374.267 -0.333459" stroke="white" stroke-width="0.5" stroke-linecap="round"/>
<path d="M386.907 12.3179L361.615 12.3179" stroke="white" stroke-width="0.5" stroke-linecap="round"/>
<path d="M460.696 24.9585L460.696 -0.333459" stroke="white" stroke-width="0.5" stroke-linecap="round"/>
<path d="M473.337 12.3179L448.045 12.3179" stroke="white" stroke-width="0.5" stroke-linecap="round"/>
<path d="M547.134 111.394L547.134 86.1023" stroke="white" stroke-width="0.5" stroke-linecap="round"/>
<path d="M559.774 98.7537L534.482 98.7537" stroke="white" stroke-width="0.5" stroke-linecap="round"/>
<path d="M547.134 24.9587L547.134 -0.333214" stroke="white" stroke-width="0.5" stroke-linecap="round"/>
<path d="M559.774 12.3181L534.482 12.3181" stroke="white" stroke-width="0.5" stroke-linecap="round"/>
<path d="M633.563 111.394L633.563 86.1023" stroke="white" stroke-width="0.5" stroke-linecap="round"/>
<path d="M646.204 98.7537L620.912 98.7537" stroke="white" stroke-width="0.5" stroke-linecap="round"/>
<path d="M719.993 111.394L719.993 86.1023" stroke="white" stroke-width="0.5" stroke-linecap="round"/>
<path d="M732.634 98.7537L707.342 98.7537" stroke="white" stroke-width="0.5" stroke-linecap="round"/>
<path d="M633.563 24.9587L633.563 -0.333214" stroke="white" stroke-width="0.5" stroke-linecap="round"/>
<path d="M646.204 12.3181L620.912 12.3181" stroke="white" stroke-width="0.5" stroke-linecap="round"/>
<path d="M719.993 24.9587L719.993 -0.333214" stroke="white" stroke-width="0.5" stroke-linecap="round"/>
<path d="M732.634 12.3181L707.342 12.3181" stroke="white" stroke-width="0.5" stroke-linecap="round"/>
<path d="M806.438 629.983L806.438 604.691" stroke="white" stroke-width="0.5" stroke-linecap="round"/>
<path d="M819.087 617.342L793.795 617.342" stroke="white" stroke-width="0.5" stroke-linecap="round"/>
<path d="M806.438 543.549L806.438 518.257" stroke="white" stroke-width="0.5" stroke-linecap="round"/>
<path d="M819.087 530.909L793.795 530.909" stroke="white" stroke-width="0.5" stroke-linecap="round"/>
<path d="M806.438 716.415L806.438 691.123" stroke="white" stroke-width="0.5" stroke-linecap="round"/>
<path d="M819.087 703.774L793.795 703.774" stroke="white" stroke-width="0.5" stroke-linecap="round"/>
<path d="M892.868 716.415L892.868 691.123" stroke="white" stroke-width="0.5" stroke-linecap="round"/>
<path d="M905.517 703.774L880.225 703.774" stroke="white" stroke-width="0.5" stroke-linecap="round"/>
<path d="M892.868 629.983L892.868 604.691" stroke="white" stroke-width="0.5" stroke-linecap="round"/>
<path d="M905.517 617.342L880.225 617.342" stroke="white" stroke-width="0.5" stroke-linecap="round"/>
<path d="M979.298 629.983L979.298 604.691" stroke="white" stroke-width="0.5" stroke-linecap="round"/>
<path d="M991.946 617.342L966.654 617.342" stroke="white" stroke-width="0.5" stroke-linecap="round"/>
<path d="M892.868 543.549L892.868 518.257" stroke="white" stroke-width="0.5" stroke-linecap="round"/>
<path d="M905.517 530.909L880.225 530.909" stroke="white" stroke-width="0.5" stroke-linecap="round"/>
<path d="M979.298 543.549L979.298 518.257" stroke="white" stroke-width="0.5" stroke-linecap="round"/>
<path d="M991.946 530.909L966.654 530.909" stroke="white" stroke-width="0.5" stroke-linecap="round"/>
<path d="M979.298 716.415L979.298 691.123" stroke="white" stroke-width="0.5" stroke-linecap="round"/>
<path d="M991.946 703.774L966.654 703.774" stroke="white" stroke-width="0.5" stroke-linecap="round"/>
<path d="M1065.74 629.983L1065.74 604.691" stroke="white" stroke-width="0.5" stroke-linecap="round"/>
<path d="M1078.38 617.342L1053.09 617.342" stroke="white" stroke-width="0.5" stroke-linecap="round"/>
<path d="M1065.74 543.549L1065.74 518.257" stroke="white" stroke-width="0.5" stroke-linecap="round"/>
<path d="M1078.38 530.909L1053.09 530.909" stroke="white" stroke-width="0.5" stroke-linecap="round"/>
<path d="M1065.74 716.415L1065.74 691.123" stroke="white" stroke-width="0.5" stroke-linecap="round"/>
<path d="M1078.38 703.774L1053.09 703.774" stroke="white" stroke-width="0.5" stroke-linecap="round"/>
<path d="M1152.17 716.415L1152.17 691.123" stroke="white" stroke-width="0.5" stroke-linecap="round"/>
<path d="M1164.81 703.774L1139.52 703.774" stroke="white" stroke-width="0.5" stroke-linecap="round"/>
<path d="M1152.17 629.983L1152.17 604.691" stroke="white" stroke-width="0.5" stroke-linecap="round"/>
<path d="M1164.81 617.342L1139.52 617.342" stroke="white" stroke-width="0.5" stroke-linecap="round"/>
<path d="M1238.59 629.983L1238.59 604.691" stroke="white" stroke-width="0.5" stroke-linecap="round"/>
<path d="M1251.24 617.342L1225.95 617.342" stroke="white" stroke-width="0.5" stroke-linecap="round"/>
<path d="M1152.17 543.549L1152.17 518.257" stroke="white" stroke-width="0.5" stroke-linecap="round"/>
<path d="M1164.81 530.909L1139.52 530.909" stroke="white" stroke-width="0.5" stroke-linecap="round"/>
<path d="M1238.59 543.549L1238.59 518.257" stroke="white" stroke-width="0.5" stroke-linecap="round"/>
<path d="M1251.24 530.909L1225.95 530.909" stroke="white" stroke-width="0.5" stroke-linecap="round"/>
<path d="M1238.59 716.415L1238.59 691.123" stroke="white" stroke-width="0.5" stroke-linecap="round"/>
<path d="M1251.24 703.774L1225.95 703.774" stroke="white" stroke-width="0.5" stroke-linecap="round"/>
<path d="M806.438 457.121L806.438 431.829" stroke="white" stroke-width="0.5" stroke-linecap="round"/>
<path d="M819.087 444.48L793.795 444.48" stroke="white" stroke-width="0.5" stroke-linecap="round"/>
<path d="M806.438 370.686L806.438 345.394" stroke="white" stroke-width="0.5" stroke-linecap="round"/>
<path d="M819.087 358.045L793.795 358.045" stroke="white" stroke-width="0.5" stroke-linecap="round"/>
<path d="M892.868 457.121L892.868 431.829" stroke="white" stroke-width="0.5" stroke-linecap="round"/>
<path d="M905.517 444.48L880.225 444.48" stroke="white" stroke-width="0.5" stroke-linecap="round"/>
<path d="M979.298 457.121L979.298 431.829" stroke="white" stroke-width="0.5" stroke-linecap="round"/>
<path d="M991.946 444.48L966.654 444.48" stroke="white" stroke-width="0.5" stroke-linecap="round"/>
<path d="M892.868 370.686L892.868 345.394" stroke="white" stroke-width="0.5" stroke-linecap="round"/>
<path d="M905.517 358.045L880.225 358.045" stroke="white" stroke-width="0.5" stroke-linecap="round"/>
<path d="M979.298 370.686L979.298 345.394" stroke="white" stroke-width="0.5" stroke-linecap="round"/>
<path d="M991.946 358.045L966.654 358.045" stroke="white" stroke-width="0.5" stroke-linecap="round"/>
<path d="M1065.74 457.121L1065.74 431.829" stroke="white" stroke-width="0.5" stroke-linecap="round"/>
<path d="M1078.38 444.48L1053.09 444.48" stroke="white" stroke-width="0.5" stroke-linecap="round"/>
<path d="M1065.74 370.686L1065.74 345.394" stroke="white" stroke-width="0.5" stroke-linecap="round"/>
<path d="M1078.38 358.045L1053.09 358.045" stroke="white" stroke-width="0.5" stroke-linecap="round"/>
<path d="M1152.17 457.121L1152.17 431.829" stroke="white" stroke-width="0.5" stroke-linecap="round"/>
<path d="M1164.81 444.48L1139.52 444.48" stroke="white" stroke-width="0.5" stroke-linecap="round"/>
<path d="M1238.59 457.121L1238.59 431.829" stroke="white" stroke-width="0.5" stroke-linecap="round"/>
<path d="M1251.24 444.48L1225.95 444.48" stroke="white" stroke-width="0.5" stroke-linecap="round"/>
<path d="M1152.17 370.686L1152.17 345.394" stroke="white" stroke-width="0.5" stroke-linecap="round"/>
<path d="M1164.81 358.045L1139.52 358.045" stroke="white" stroke-width="0.5" stroke-linecap="round"/>
<path d="M1238.59 370.686L1238.59 345.394" stroke="white" stroke-width="0.5" stroke-linecap="round"/>
<path d="M1251.24 358.045L1225.95 358.045" stroke="white" stroke-width="0.5" stroke-linecap="round"/>
<path d="M1325.02 629.982L1325.02 604.69" stroke="white" stroke-width="0.5" stroke-linecap="round"/>
<path d="M1337.67 617.342L1312.38 617.342" stroke="white" stroke-width="0.5" stroke-linecap="round"/>
<path d="M1325.02 543.549L1325.02 518.257" stroke="white" stroke-width="0.5" stroke-linecap="round"/>
<path d="M1337.67 530.908L1312.38 530.908" stroke="white" stroke-width="0.5" stroke-linecap="round"/>
<path d="M1325.02 716.414L1325.02 691.122" stroke="white" stroke-width="0.5" stroke-linecap="round"/>
<path d="M1337.67 703.773L1312.38 703.773" stroke="white" stroke-width="0.5" stroke-linecap="round"/>
<path d="M1411.45 716.414L1411.45 691.122" stroke="white" stroke-width="0.5" stroke-linecap="round"/>
<path d="M1424.1 703.773L1398.81 703.773" stroke="white" stroke-width="0.5" stroke-linecap="round"/>
<path d="M1411.45 629.982L1411.45 604.69" stroke="white" stroke-width="0.5" stroke-linecap="round"/>
<path d="M1424.1 617.342L1398.81 617.342" stroke="white" stroke-width="0.5" stroke-linecap="round"/>
<path d="M1411.45 543.549L1411.45 518.257" stroke="white" stroke-width="0.5" stroke-linecap="round"/>
<path d="M1424.1 530.908L1398.81 530.908" stroke="white" stroke-width="0.5" stroke-linecap="round"/>
<path d="M1325.02 457.121L1325.02 431.829" stroke="white" stroke-width="0.5" stroke-linecap="round"/>
<path d="M1337.67 444.48L1312.38 444.48" stroke="white" stroke-width="0.5" stroke-linecap="round"/>
<path d="M1325.02 370.685L1325.02 345.393" stroke="white" stroke-width="0.5" stroke-linecap="round"/>
<path d="M1337.67 358.044L1312.38 358.044" stroke="white" stroke-width="0.5" stroke-linecap="round"/>
<path d="M1411.45 457.121L1411.45 431.829" stroke="white" stroke-width="0.5" stroke-linecap="round"/>
<path d="M1424.1 444.48L1398.81 444.48" stroke="white" stroke-width="0.5" stroke-linecap="round"/>
<path d="M1411.45 370.685L1411.45 345.393" stroke="white" stroke-width="0.5" stroke-linecap="round"/>
<path d="M1424.1 358.044L1398.81 358.044" stroke="white" stroke-width="0.5" stroke-linecap="round"/>
<path d="M806.438 284.258L806.438 258.966" stroke="white" stroke-width="0.5" stroke-linecap="round"/>
<path d="M819.087 271.617L793.795 271.617" stroke="white" stroke-width="0.5" stroke-linecap="round"/>
<path d="M806.438 197.822L806.438 172.53" stroke="white" stroke-width="0.5" stroke-linecap="round"/>
<path d="M819.087 185.182L793.795 185.182" stroke="white" stroke-width="0.5" stroke-linecap="round"/>
<path d="M892.868 284.258L892.868 258.966" stroke="white" stroke-width="0.5" stroke-linecap="round"/>
<path d="M905.517 271.617L880.225 271.617" stroke="white" stroke-width="0.5" stroke-linecap="round"/>
<path d="M979.298 284.258L979.298 258.966" stroke="white" stroke-width="0.5" stroke-linecap="round"/>
<path d="M991.946 271.617L966.654 271.617" stroke="white" stroke-width="0.5" stroke-linecap="round"/>
<path d="M892.868 197.822L892.868 172.53" stroke="white" stroke-width="0.5" stroke-linecap="round"/>
<path d="M905.517 185.182L880.225 185.182" stroke="white" stroke-width="0.5" stroke-linecap="round"/>
<path d="M979.298 197.822L979.298 172.53" stroke="white" stroke-width="0.5" stroke-linecap="round"/>
<path d="M991.946 185.182L966.654 185.182" stroke="white" stroke-width="0.5" stroke-linecap="round"/>
<path d="M1065.74 284.258L1065.74 258.966" stroke="white" stroke-width="0.5" stroke-linecap="round"/>
<path d="M1078.38 271.617L1053.09 271.617" stroke="white" stroke-width="0.5" stroke-linecap="round"/>
<path d="M1065.74 197.822L1065.74 172.53" stroke="white" stroke-width="0.5" stroke-linecap="round"/>
<path d="M1078.38 185.182L1053.09 185.182" stroke="white" stroke-width="0.5" stroke-linecap="round"/>
<path d="M1152.17 284.258L1152.17 258.966" stroke="white" stroke-width="0.5" stroke-linecap="round"/>
<path d="M1164.81 271.617L1139.52 271.617" stroke="white" stroke-width="0.5" stroke-linecap="round"/>
<path d="M1238.59 284.258L1238.59 258.966" stroke="white" stroke-width="0.5" stroke-linecap="round"/>
<path d="M1251.24 271.617L1225.95 271.617" stroke="white" stroke-width="0.5" stroke-linecap="round"/>
<path d="M1152.17 197.822L1152.17 172.53" stroke="white" stroke-width="0.5" stroke-linecap="round"/>
<path d="M1164.81 185.182L1139.52 185.182" stroke="white" stroke-width="0.5" stroke-linecap="round"/>
<path d="M1238.59 197.822L1238.59 172.53" stroke="white" stroke-width="0.5" stroke-linecap="round"/>
<path d="M1251.24 185.182L1225.95 185.182" stroke="white" stroke-width="0.5" stroke-linecap="round"/>
<path d="M806.438 111.395L806.438 86.1026" stroke="white" stroke-width="0.5" stroke-linecap="round"/>
<path d="M819.087 98.7539L793.795 98.7539" stroke="white" stroke-width="0.5" stroke-linecap="round"/>
<path d="M806.438 24.959L806.438 -0.33297" stroke="white" stroke-width="0.5" stroke-linecap="round"/>
<path d="M819.087 12.3184L793.795 12.3184" stroke="white" stroke-width="0.5" stroke-linecap="round"/>
<path d="M892.868 111.395L892.868 86.1026" stroke="white" stroke-width="0.5" stroke-linecap="round"/>
<path d="M905.517 98.7539L880.225 98.7539" stroke="white" stroke-width="0.5" stroke-linecap="round"/>
<path d="M979.298 111.395L979.298 86.1026" stroke="white" stroke-width="0.5" stroke-linecap="round"/>
<path d="M991.946 98.7539L966.654 98.7539" stroke="white" stroke-width="0.5" stroke-linecap="round"/>
<path d="M892.868 24.959L892.868 -0.33297" stroke="white" stroke-width="0.5" stroke-linecap="round"/>
<path d="M905.517 12.3184L880.225 12.3184" stroke="white" stroke-width="0.5" stroke-linecap="round"/>
<path d="M979.298 24.959L979.298 -0.33297" stroke="white" stroke-width="0.5" stroke-linecap="round"/>
<path d="M991.946 12.3184L966.654 12.3184" stroke="white" stroke-width="0.5" stroke-linecap="round"/>
<path d="M1065.74 111.395L1065.74 86.1026" stroke="white" stroke-width="0.5" stroke-linecap="round"/>
<path d="M1078.38 98.7537L1053.09 98.7537" stroke="white" stroke-width="0.5" stroke-linecap="round"/>
<path d="M1065.74 24.9587L1065.74 -0.333214" stroke="white" stroke-width="0.5" stroke-linecap="round"/>
<path d="M1078.38 12.3181L1053.09 12.3181" stroke="white" stroke-width="0.5" stroke-linecap="round"/>
<path d="M1152.17 111.395L1152.17 86.1026" stroke="white" stroke-width="0.5" stroke-linecap="round"/>
<path d="M1164.81 98.7537L1139.52 98.7537" stroke="white" stroke-width="0.5" stroke-linecap="round"/>
<path d="M1238.59 111.395L1238.59 86.1026" stroke="white" stroke-width="0.5" stroke-linecap="round"/>
<path d="M1251.24 98.7537L1225.95 98.7537" stroke="white" stroke-width="0.5" stroke-linecap="round"/>
<path d="M1152.17 24.9587L1152.17 -0.333214" stroke="white" stroke-width="0.5" stroke-linecap="round"/>
<path d="M1164.81 12.3181L1139.52 12.3181" stroke="white" stroke-width="0.5" stroke-linecap="round"/>
<path d="M1238.59 24.9587L1238.59 -0.333214" stroke="white" stroke-width="0.5" stroke-linecap="round"/>
<path d="M1251.24 12.3181L1225.95 12.3181" stroke="white" stroke-width="0.5" stroke-linecap="round"/>
<path d="M1325.02 284.258L1325.02 258.966" stroke="white" stroke-width="0.5" stroke-linecap="round"/>
<path d="M1337.67 271.618L1312.38 271.618" stroke="white" stroke-width="0.5" stroke-linecap="round"/>
<path d="M1325.02 197.823L1325.02 172.531" stroke="white" stroke-width="0.5" stroke-linecap="round"/>
<path d="M1337.67 185.182L1312.38 185.182" stroke="white" stroke-width="0.5" stroke-linecap="round"/>
<path d="M1411.45 284.258L1411.45 258.966" stroke="white" stroke-width="0.5" stroke-linecap="round"/>
<path d="M1424.1 271.618L1398.81 271.618" stroke="white" stroke-width="0.5" stroke-linecap="round"/>
<path d="M1411.45 197.823L1411.45 172.531" stroke="white" stroke-width="0.5" stroke-linecap="round"/>
<path d="M1424.1 185.182L1398.81 185.182" stroke="white" stroke-width="0.5" stroke-linecap="round"/>
<path d="M1325.02 111.395L1325.02 86.1031" stroke="white" stroke-width="0.5" stroke-linecap="round"/>
<path d="M1337.67 98.7542L1312.38 98.7542" stroke="white" stroke-width="0.5" stroke-linecap="round"/>
<path d="M1325.02 24.9592L1325.02 -0.332726" stroke="white" stroke-width="0.5" stroke-linecap="round"/>
<path d="M1337.67 12.3186L1312.38 12.3186" stroke="white" stroke-width="0.5" stroke-linecap="round"/>
<path d="M1411.45 111.395L1411.45 86.1031" stroke="white" stroke-width="0.5" stroke-linecap="round"/>
<path d="M1424.1 98.7542L1398.81 98.7542" stroke="white" stroke-width="0.5" stroke-linecap="round"/>
<path d="M1411.45 24.9592L1411.45 -0.332726" stroke="white" stroke-width="0.5" stroke-linecap="round"/>
<path d="M1424.1 12.3186L1398.81 12.3186" stroke="white" stroke-width="0.5" stroke-linecap="round"/>
<path d="M28.54 889.144L28.54 863.852" stroke="white" stroke-width="0.5" stroke-linecap="round"/>
<path d="M41.1885 876.503L15.8965 876.503" stroke="white" stroke-width="0.5" stroke-linecap="round"/>
<path d="M28.54 802.708L28.54 777.416" stroke="white" stroke-width="0.5" stroke-linecap="round"/>
<path d="M41.1885 790.067L15.8965 790.067" stroke="white" stroke-width="0.5" stroke-linecap="round"/>
<path d="M114.97 889.144L114.97 863.852" stroke="white" stroke-width="0.5" stroke-linecap="round"/>
<path d="M127.618 876.503L102.326 876.503" stroke="white" stroke-width="0.5" stroke-linecap="round"/>
<path d="M201.399 889.144L201.399 863.852" stroke="white" stroke-width="0.5" stroke-linecap="round"/>
<path d="M214.048 876.503L188.756 876.503" stroke="white" stroke-width="0.5" stroke-linecap="round"/>
<path d="M114.97 802.708L114.97 777.416" stroke="white" stroke-width="0.5" stroke-linecap="round"/>
<path d="M127.618 790.067L102.326 790.067" stroke="white" stroke-width="0.5" stroke-linecap="round"/>
<path d="M201.399 802.708L201.399 777.416" stroke="white" stroke-width="0.5" stroke-linecap="round"/>
<path d="M214.048 790.067L188.756 790.067" stroke="white" stroke-width="0.5" stroke-linecap="round"/>
<path d="M287.829 889.144L287.829 863.852" stroke="white" stroke-width="0.5" stroke-linecap="round"/>
<path d="M300.478 876.503L275.186 876.503" stroke="white" stroke-width="0.5" stroke-linecap="round"/>
<path d="M287.829 802.708L287.829 777.416" stroke="white" stroke-width="0.5" stroke-linecap="round"/>
<path d="M300.478 790.067L275.186 790.067" stroke="white" stroke-width="0.5" stroke-linecap="round"/>
<path d="M374.259 889.144L374.259 863.852" stroke="white" stroke-width="0.5" stroke-linecap="round"/>
<path d="M386.907 876.503L361.615 876.503" stroke="white" stroke-width="0.5" stroke-linecap="round"/>
<path d="M460.688 889.144L460.688 863.852" stroke="white" stroke-width="0.5" stroke-linecap="round"/>
<path d="M473.337 876.503L448.045 876.503" stroke="white" stroke-width="0.5" stroke-linecap="round"/>
<path d="M374.259 802.708L374.259 777.416" stroke="white" stroke-width="0.5" stroke-linecap="round"/>
<path d="M386.907 790.067L361.615 790.067" stroke="white" stroke-width="0.5" stroke-linecap="round"/>
<path d="M460.688 802.708L460.688 777.416" stroke="white" stroke-width="0.5" stroke-linecap="round"/>
<path d="M473.337 790.067L448.045 790.067" stroke="white" stroke-width="0.5" stroke-linecap="round"/>
<path d="M547.126 889.144L547.126 863.852" stroke="white" stroke-width="0.5" stroke-linecap="round"/>
<path d="M559.774 876.503L534.482 876.503" stroke="white" stroke-width="0.5" stroke-linecap="round"/>
<path d="M547.126 802.708L547.126 777.416" stroke="white" stroke-width="0.5" stroke-linecap="round"/>
<path d="M559.774 790.067L534.482 790.067" stroke="white" stroke-width="0.5" stroke-linecap="round"/>
<path d="M633.556 889.144L633.556 863.852" stroke="white" stroke-width="0.5" stroke-linecap="round"/>
<path d="M646.204 876.503L620.912 876.503" stroke="white" stroke-width="0.5" stroke-linecap="round"/>
<path d="M719.985 889.144L719.985 863.852" stroke="white" stroke-width="0.5" stroke-linecap="round"/>
<path d="M732.634 876.503L707.342 876.503" stroke="white" stroke-width="0.5" stroke-linecap="round"/>
<path d="M633.556 802.708L633.556 777.416" stroke="white" stroke-width="0.5" stroke-linecap="round"/>
<path d="M646.204 790.067L620.912 790.067" stroke="white" stroke-width="0.5" stroke-linecap="round"/>
<path d="M719.985 802.708L719.985 777.416" stroke="white" stroke-width="0.5" stroke-linecap="round"/>
<path d="M732.634 790.067L707.342 790.067" stroke="white" stroke-width="0.5" stroke-linecap="round"/>
<path d="M806.438 889.142L806.438 863.85" stroke="white" stroke-width="0.5" stroke-linecap="round"/>
<path d="M819.079 876.501L793.787 876.501" stroke="white" stroke-width="0.5" stroke-linecap="round"/>
<path d="M806.438 802.706L806.438 777.414" stroke="white" stroke-width="0.5" stroke-linecap="round"/>
<path d="M819.079 790.065L793.787 790.065" stroke="white" stroke-width="0.5" stroke-linecap="round"/>
<path d="M892.868 889.142L892.868 863.85" stroke="white" stroke-width="0.5" stroke-linecap="round"/>
<path d="M905.509 876.501L880.217 876.501" stroke="white" stroke-width="0.5" stroke-linecap="round"/>
<path d="M979.298 889.142L979.298 863.85" stroke="white" stroke-width="0.5" stroke-linecap="round"/>
<path d="M991.938 876.501L966.647 876.501" stroke="white" stroke-width="0.5" stroke-linecap="round"/>
<path d="M892.868 802.706L892.868 777.414" stroke="white" stroke-width="0.5" stroke-linecap="round"/>
<path d="M905.509 790.065L880.217 790.065" stroke="white" stroke-width="0.5" stroke-linecap="round"/>
<path d="M979.298 802.706L979.298 777.414" stroke="white" stroke-width="0.5" stroke-linecap="round"/>
<path d="M991.938 790.065L966.647 790.065" stroke="white" stroke-width="0.5" stroke-linecap="round"/>
<path d="M1065.74 889.142L1065.74 863.85" stroke="white" stroke-width="0.5" stroke-linecap="round"/>
<path d="M1078.38 876.501L1053.08 876.501" stroke="white" stroke-width="0.5" stroke-linecap="round"/>
<path d="M1065.74 802.706L1065.74 777.414" stroke="white" stroke-width="0.5" stroke-linecap="round"/>
<path d="M1078.38 790.065L1053.08 790.065" stroke="white" stroke-width="0.5" stroke-linecap="round"/>
<path d="M1152.17 889.142L1152.17 863.85" stroke="white" stroke-width="0.5" stroke-linecap="round"/>
<path d="M1164.81 876.501L1139.51 876.501" stroke="white" stroke-width="0.5" stroke-linecap="round"/>
<path d="M1238.6 889.142L1238.6 863.85" stroke="white" stroke-width="0.5" stroke-linecap="round"/>
<path d="M1251.24 876.501L1225.95 876.501" stroke="white" stroke-width="0.5" stroke-linecap="round"/>
<path d="M1152.17 802.706L1152.17 777.414" stroke="white" stroke-width="0.5" stroke-linecap="round"/>
<path d="M1164.81 790.065L1139.51 790.065" stroke="white" stroke-width="0.5" stroke-linecap="round"/>
<path d="M1238.6 802.706L1238.6 777.414" stroke="white" stroke-width="0.5" stroke-linecap="round"/>
<path d="M1251.24 790.065L1225.95 790.065" stroke="white" stroke-width="0.5" stroke-linecap="round"/>
<path d="M1325.03 889.142L1325.03 863.85" stroke="white" stroke-width="0.5" stroke-linecap="round"/>
<path d="M1337.67 876.501L1312.38 876.501" stroke="white" stroke-width="0.5" stroke-linecap="round"/>
<path d="M1325.03 802.706L1325.03 777.414" stroke="white" stroke-width="0.5" stroke-linecap="round"/>
<path d="M1337.67 790.065L1312.38 790.065" stroke="white" stroke-width="0.5" stroke-linecap="round"/>
<path d="M1411.46 889.142L1411.46 863.85" stroke="white" stroke-width="0.5" stroke-linecap="round"/>
<path d="M1424.1 876.501L1398.81 876.501" stroke="white" stroke-width="0.5" stroke-linecap="round"/>
<path d="M1411.46 802.706L1411.46 777.414" stroke="white" stroke-width="0.5" stroke-linecap="round"/>
<path d="M1424.1 790.065L1398.81 790.065" stroke="white" stroke-width="0.5" stroke-linecap="round"/>
</svg>
