<svg width="375" height="743" viewBox="0 0 375 743" fill="none" xmlns="http://www.w3.org/2000/svg">
<path d="M14.9707 630.565L14.9707 605.273" stroke="white" stroke-width="0.5" stroke-linecap="round"/>
<path d="M27.6113 617.925L2.31937 617.925" stroke="white" stroke-width="0.5" stroke-linecap="round"/>
<path d="M14.9707 544.132L14.9707 518.84" stroke="white" stroke-width="0.5" stroke-linecap="round"/>
<path d="M27.6113 531.491L2.31937 531.491" stroke="white" stroke-width="0.5" stroke-linecap="round"/>
<path d="M14.9707 716.997L14.9707 691.705" stroke="white" stroke-width="0.5" stroke-linecap="round"/>
<path d="M27.6113 704.356L2.31937 704.356" stroke="white" stroke-width="0.5" stroke-linecap="round"/>
<path d="M101.4 716.997L101.4 691.705" stroke="white" stroke-width="0.5" stroke-linecap="round"/>
<path d="M114.041 704.356L88.7491 704.356" stroke="white" stroke-width="0.5" stroke-linecap="round"/>
<path d="M101.4 630.565L101.4 605.273" stroke="white" stroke-width="0.5" stroke-linecap="round"/>
<path d="M114.041 617.925L88.7491 617.925" stroke="white" stroke-width="0.5" stroke-linecap="round"/>
<path d="M187.83 630.565L187.83 605.273" stroke="white" stroke-width="0.5" stroke-linecap="round"/>
<path d="M200.471 617.925L175.179 617.925" stroke="white" stroke-width="0.5" stroke-linecap="round"/>
<path d="M101.4 544.132L101.4 518.84" stroke="white" stroke-width="0.5" stroke-linecap="round"/>
<path d="M114.041 531.491L88.7491 531.491" stroke="white" stroke-width="0.5" stroke-linecap="round"/>
<path d="M187.83 544.132L187.83 518.84" stroke="white" stroke-width="0.5" stroke-linecap="round"/>
<path d="M200.471 531.491L175.179 531.491" stroke="white" stroke-width="0.5" stroke-linecap="round"/>
<path d="M187.83 716.997L187.83 691.705" stroke="white" stroke-width="0.5" stroke-linecap="round"/>
<path d="M200.471 704.356L175.179 704.356" stroke="white" stroke-width="0.5" stroke-linecap="round"/>
<path d="M14.9707 457.704L14.9707 432.412" stroke="white" stroke-width="0.5" stroke-linecap="round"/>
<path d="M27.6113 445.063L2.31937 445.063" stroke="white" stroke-width="0.5" stroke-linecap="round"/>
<path d="M14.9707 371.268L14.9707 345.976" stroke="white" stroke-width="0.5" stroke-linecap="round"/>
<path d="M27.6113 358.628L2.31937 358.628" stroke="white" stroke-width="0.5" stroke-linecap="round"/>
<path d="M101.4 457.704L101.4 432.412" stroke="white" stroke-width="0.5" stroke-linecap="round"/>
<path d="M114.041 445.063L88.7491 445.063" stroke="white" stroke-width="0.5" stroke-linecap="round"/>
<path d="M187.83 457.704L187.83 432.412" stroke="white" stroke-width="0.5" stroke-linecap="round"/>
<path d="M200.471 445.063L175.179 445.063" stroke="white" stroke-width="0.5" stroke-linecap="round"/>
<path d="M101.4 371.268L101.4 345.976" stroke="white" stroke-width="0.5" stroke-linecap="round"/>
<path d="M114.041 358.628L88.7491 358.628" stroke="white" stroke-width="0.5" stroke-linecap="round"/>
<path d="M187.83 371.268L187.83 345.976" stroke="white" stroke-width="0.5" stroke-linecap="round"/>
<path d="M200.471 358.628L175.179 358.628" stroke="white" stroke-width="0.5" stroke-linecap="round"/>
<path d="M14.9707 284.841L14.9707 259.549" stroke="white" stroke-width="0.5" stroke-linecap="round"/>
<path d="M27.6113 272.2L2.31937 272.2" stroke="white" stroke-width="0.5" stroke-linecap="round"/>
<path d="M14.9707 198.405L14.9707 173.113" stroke="white" stroke-width="0.5" stroke-linecap="round"/>
<path d="M27.6113 185.764L2.31937 185.764" stroke="white" stroke-width="0.5" stroke-linecap="round"/>
<path d="M101.4 284.841L101.4 259.549" stroke="white" stroke-width="0.5" stroke-linecap="round"/>
<path d="M114.041 272.2L88.7491 272.2" stroke="white" stroke-width="0.5" stroke-linecap="round"/>
<path d="M187.83 284.841L187.83 259.549" stroke="white" stroke-width="0.5" stroke-linecap="round"/>
<path d="M200.471 272.2L175.179 272.2" stroke="white" stroke-width="0.5" stroke-linecap="round"/>
<path d="M101.4 198.405L101.4 173.113" stroke="white" stroke-width="0.5" stroke-linecap="round"/>
<path d="M114.041 185.764L88.7491 185.764" stroke="white" stroke-width="0.5" stroke-linecap="round"/>
<path d="M187.83 198.405L187.83 173.113" stroke="white" stroke-width="0.5" stroke-linecap="round"/>
<path d="M200.471 185.764L175.179 185.764" stroke="white" stroke-width="0.5" stroke-linecap="round"/>
<path d="M14.9707 111.978L14.9707 86.6856" stroke="white" stroke-width="0.5" stroke-linecap="round"/>
<path d="M27.6113 99.3369L2.31937 99.3369" stroke="white" stroke-width="0.5" stroke-linecap="round"/>
<path d="M14.9707 25.542L14.9707 0.250038" stroke="white" stroke-width="0.5" stroke-linecap="round"/>
<path d="M27.6113 12.9014L2.31937 12.9014" stroke="white" stroke-width="0.5" stroke-linecap="round"/>
<path d="M101.4 111.978L101.4 86.6856" stroke="white" stroke-width="0.5" stroke-linecap="round"/>
<path d="M114.041 99.3369L88.7491 99.3369" stroke="white" stroke-width="0.5" stroke-linecap="round"/>
<path d="M187.83 111.978L187.83 86.6856" stroke="white" stroke-width="0.5" stroke-linecap="round"/>
<path d="M200.471 99.3369L175.179 99.3369" stroke="white" stroke-width="0.5" stroke-linecap="round"/>
<path d="M101.4 25.542L101.4 0.250038" stroke="white" stroke-width="0.5" stroke-linecap="round"/>
<path d="M114.041 12.9014L88.7491 12.9014" stroke="white" stroke-width="0.5" stroke-linecap="round"/>
<path d="M187.83 25.542L187.83 0.250038" stroke="white" stroke-width="0.5" stroke-linecap="round"/>
<path d="M200.471 12.9014L175.179 12.9014" stroke="white" stroke-width="0.5" stroke-linecap="round"/>
<path d="M274.27 630.566L274.27 605.274" stroke="white" stroke-width="0.5" stroke-linecap="round"/>
<path d="M286.918 617.926L261.626 617.926" stroke="white" stroke-width="0.5" stroke-linecap="round"/>
<path d="M274.27 544.133L274.27 518.841" stroke="white" stroke-width="0.5" stroke-linecap="round"/>
<path d="M286.918 531.492L261.626 531.492" stroke="white" stroke-width="0.5" stroke-linecap="round"/>
<path d="M274.27 716.998L274.27 691.706" stroke="white" stroke-width="0.5" stroke-linecap="round"/>
<path d="M286.918 704.357L261.626 704.357" stroke="white" stroke-width="0.5" stroke-linecap="round"/>
<path d="M360.699 716.998L360.699 691.706" stroke="white" stroke-width="0.5" stroke-linecap="round"/>
<path d="M373.348 704.357L348.056 704.357" stroke="white" stroke-width="0.5" stroke-linecap="round"/>
<path d="M360.699 630.566L360.699 605.274" stroke="white" stroke-width="0.5" stroke-linecap="round"/>
<path d="M373.348 617.926L348.056 617.926" stroke="white" stroke-width="0.5" stroke-linecap="round"/>
<path d="M360.699 544.133L360.699 518.841" stroke="white" stroke-width="0.5" stroke-linecap="round"/>
<path d="M373.348 531.492L348.056 531.492" stroke="white" stroke-width="0.5" stroke-linecap="round"/>
<path d="M274.27 457.705L274.27 432.413" stroke="white" stroke-width="0.5" stroke-linecap="round"/>
<path d="M286.918 445.064L261.626 445.064" stroke="white" stroke-width="0.5" stroke-linecap="round"/>
<path d="M274.27 371.269L274.27 345.977" stroke="white" stroke-width="0.5" stroke-linecap="round"/>
<path d="M286.918 358.629L261.626 358.629" stroke="white" stroke-width="0.5" stroke-linecap="round"/>
<path d="M360.699 457.705L360.699 432.413" stroke="white" stroke-width="0.5" stroke-linecap="round"/>
<path d="M373.348 445.064L348.056 445.064" stroke="white" stroke-width="0.5" stroke-linecap="round"/>
<path d="M360.699 371.269L360.699 345.977" stroke="white" stroke-width="0.5" stroke-linecap="round"/>
<path d="M373.348 358.629L348.056 358.629" stroke="white" stroke-width="0.5" stroke-linecap="round"/>
<path d="M274.27 284.842L274.27 259.55" stroke="white" stroke-width="0.5" stroke-linecap="round"/>
<path d="M286.918 272.201L261.626 272.201" stroke="white" stroke-width="0.5" stroke-linecap="round"/>
<path d="M274.27 198.406L274.27 173.114" stroke="white" stroke-width="0.5" stroke-linecap="round"/>
<path d="M286.918 185.766L261.626 185.766" stroke="white" stroke-width="0.5" stroke-linecap="round"/>
<path d="M360.699 284.842L360.699 259.55" stroke="white" stroke-width="0.5" stroke-linecap="round"/>
<path d="M373.348 272.201L348.056 272.201" stroke="white" stroke-width="0.5" stroke-linecap="round"/>
<path d="M360.699 198.406L360.699 173.114" stroke="white" stroke-width="0.5" stroke-linecap="round"/>
<path d="M373.348 185.766L348.056 185.766" stroke="white" stroke-width="0.5" stroke-linecap="round"/>
<path d="M274.27 111.979L274.27 86.6867" stroke="white" stroke-width="0.5" stroke-linecap="round"/>
<path d="M286.918 99.338L261.626 99.338" stroke="white" stroke-width="0.5" stroke-linecap="round"/>
<path d="M274.27 25.5431L274.27 0.251136" stroke="white" stroke-width="0.5" stroke-linecap="round"/>
<path d="M286.918 12.9025L261.626 12.9025" stroke="white" stroke-width="0.5" stroke-linecap="round"/>
<path d="M360.699 111.979L360.699 86.6867" stroke="white" stroke-width="0.5" stroke-linecap="round"/>
<path d="M373.348 99.338L348.056 99.338" stroke="white" stroke-width="0.5" stroke-linecap="round"/>
<path d="M360.699 25.5431L360.699 0.251136" stroke="white" stroke-width="0.5" stroke-linecap="round"/>
<path d="M373.348 12.9025L348.056 12.9025" stroke="white" stroke-width="0.5" stroke-linecap="round"/>
</svg>
