<svg width="148" height="45" viewBox="0 0 148 45" fill="none" xmlns="http://www.w3.org/2000/svg">
<g clip-path="url(#clip0_2009_236)">
<path d="M74.0011 45.0022C114.871 45.0022 148.002 34.9281 148.002 22.5011C148.002 10.0741 114.871 0 74.0011 0C33.1314 0 0 10.0741 0 22.5011C0 34.9281 33.1314 45.0022 74.0011 45.0022Z" fill="#F8F872"/>
<path d="M74.0011 3.61179C93.418 3.61179 111.625 5.89681 125.269 10.0441C131.593 11.967 136.708 14.2586 140.064 16.6693C142.031 18.0828 144.375 20.2421 144.375 22.4967C144.375 24.7514 142.031 26.9107 140.064 28.3242C136.708 30.7371 131.593 33.0286 125.269 34.9494C111.625 39.0967 93.418 41.3817 74.0011 41.3817C54.5841 41.3817 36.3771 39.0967 22.7332 34.9494C16.4096 33.0265 11.2937 30.7349 7.93825 28.3242C5.97109 26.9107 3.62748 24.7514 3.62748 22.4967C3.62748 20.2421 5.97109 18.0828 7.93825 16.6693C11.2937 14.2564 16.4096 11.9649 22.7332 10.0441C36.3771 5.89681 54.5841 3.61179 74.0011 3.61179ZM74.0011 0C33.1304 0 0 10.0744 0 22.5011C0 34.9277 33.1304 45.0022 74.0011 45.0022C114.872 45.0022 148.002 34.9277 148.002 22.5011C148.002 10.0744 114.87 0 74.0011 0Z" fill="#171717"/>
<path d="M38.8925 16.2357H31.5722C30.8498 16.2357 30.1774 16.5197 29.6769 17.0357C29.1742 17.5516 28.9131 18.2324 28.9305 18.9478V25.9654L28.9153 26.4814C28.8957 27.0667 29.1133 27.6174 29.518 28.0358C29.9271 28.4542 30.4755 28.6862 31.0587 28.6862H31.4112C31.9987 28.6862 32.5471 28.4542 32.9562 28.0315C33.3653 27.6087 33.5786 27.0537 33.5546 26.4684L33.5198 25.5145H38.8925C42.7789 25.5145 44.9136 23.8668 44.9136 20.8816C44.9136 17.8963 42.8899 16.2335 38.8925 16.2335V16.2357ZM38.8925 22.3623H33.5133V19.7261H38.8925C39.3473 19.7261 40.7356 19.7261 40.7356 21.0854C40.7356 22.3623 39.3995 22.3623 38.8925 22.3623Z" fill="#171717"/>
<path d="M61.1834 25.2631C60.7852 24.8816 60.2521 24.6821 59.7037 24.7081L58.5678 24.758L52.2137 24.9032L52.2224 18.6314C52.2529 18.0005 52.0288 17.4 51.5892 16.9426C51.1518 16.4851 50.5577 16.2336 49.9245 16.2336C49.2913 16.2336 48.7081 16.4808 48.2707 16.9296C47.8333 17.3783 47.6027 17.9723 47.6222 18.5967L47.6331 18.9479V25.959L47.6288 26.1563C47.6048 26.8262 47.8529 27.4614 48.3208 27.9427C48.7886 28.424 49.4175 28.6885 50.0899 28.6885H58.3437L59.7385 28.7232C60.2956 28.7492 60.8048 28.5346 61.1987 28.153C61.5882 27.7714 61.8079 27.2598 61.8079 26.7135C61.8079 26.1672 61.5838 25.6469 61.1812 25.2631H61.1834Z" fill="#171717"/>
<path d="M79.9063 16.9163C79.4863 16.4741 78.9184 16.2356 78.3112 16.2356H78.2307C77.6388 16.2356 77.0839 16.4676 76.6661 16.886C76.2462 17.3044 76.022 17.8637 76.0242 18.4512L76.0394 20.2485C76.059 22.1151 75.6369 23.496 74.7882 24.3545C74.1158 25.0309 73.1975 25.3735 72.0529 25.3735C70.7821 25.3735 69.7789 25.0071 69.0674 24.2917C68.21 23.4288 67.7857 22.0565 67.8052 20.2051L67.8205 18.4512C67.8292 17.8616 67.6007 17.3044 67.1829 16.886C66.7651 16.4676 66.2102 16.2356 65.614 16.2356C65.0177 16.2356 64.4476 16.4697 64.0298 16.9012C63.6098 17.3369 63.3879 17.9027 63.4074 18.5011L63.4227 18.9477L63.4814 21.946C63.575 26.3014 66.8565 29.0026 72.0529 29.0026C77.2493 29.0026 80.2719 26.3122 80.4003 21.9828L80.5112 18.5358C80.5417 17.9288 80.3263 17.3543 79.9041 16.9163H79.9063Z" fill="#171717"/>
<path d="M100.754 16.728C100.395 16.3811 99.9272 16.2011 99.4224 16.2163L98.9894 16.2358H85.5065L84.8341 16.212C84.3402 16.2033 83.8636 16.3767 83.5024 16.7236C83.1433 17.0705 82.9453 17.5323 82.9453 18.0331C82.9453 18.5338 83.1433 19.0021 83.5024 19.349C83.8571 19.6915 84.3206 19.8845 84.8276 19.8606L86.0723 19.8259H89.876L89.9522 21.6232V25.9677L89.9413 26.3211C89.9174 26.9476 90.1502 27.5417 90.5854 27.9904C91.0228 28.4413 91.6082 28.6863 92.2392 28.6863C92.8703 28.6863 93.4665 28.4327 93.9039 27.9774C94.3435 27.5156 94.5676 26.9195 94.5372 26.2842L94.5328 26.1347L94.5285 21.5972L94.6068 19.8238H98.2996L99.4355 19.8585C99.9425 19.8736 100.406 19.6894 100.765 19.3425C101.12 18.9956 101.318 18.5338 101.318 18.0352C101.318 17.5366 101.12 17.0727 100.758 16.7258L100.754 16.728Z" fill="#171717"/>
<path d="M112.111 15.917C104.053 15.917 102.945 19.0887 102.945 22.5119C102.945 28.2873 107.347 29.0851 112.111 29.0851C120.149 29.0851 121.257 25.9264 121.257 22.5119C121.257 19.0974 120.149 15.917 112.111 15.917ZM112.111 25.2131C108.666 25.2131 107.028 24.8099 107.028 22.5119C107.028 20.2139 108.666 19.7868 112.111 19.7868C115.556 19.7868 117.17 20.1943 117.17 22.5119C117.17 24.8294 115.466 25.2131 112.111 25.2131Z" fill="#171717"/>
</g>
<defs>
<clipPath id="clip0_2009_236">
<rect width="148" height="45" fill="white"/>
</clipPath>
</defs>
</svg>
