<svg width="184" height="56" viewBox="0 0 184 56" fill="none" xmlns="http://www.w3.org/2000/svg">
<g clip-path="url(#clip0_1568_16884)">
<path d="M92.0014 56.0027C142.812 56.0027 184.003 43.4661 184.003 28.0013C184.003 12.5366 142.812 0 92.0014 0C41.1904 0 0 12.5366 0 28.0013C0 43.4661 41.1904 56.0027 92.0014 56.0027Z" fill="#F8F872"/>
<path d="M92.0014 4.49468C116.141 4.49468 138.777 7.33825 155.74 12.4993C163.602 14.8923 169.962 17.744 174.134 20.744C176.579 22.5031 179.493 25.1902 179.493 27.996C179.493 30.8018 176.579 33.4888 174.134 35.2479C169.962 38.2506 163.602 41.1023 155.74 43.4926C138.777 48.6537 116.141 51.4972 92.0014 51.4972C67.8614 51.4972 45.2256 48.6537 28.2629 43.4926C20.4012 41.0996 14.0408 38.2479 9.86917 35.2479C7.42352 33.4888 4.50984 30.8018 4.50984 27.996C4.50984 25.1902 7.42352 22.5031 9.86917 20.744C14.0408 17.7413 20.4012 14.8896 28.2629 12.4993C45.2256 7.33825 67.8614 4.49468 92.0014 4.49468ZM92.0014 0C41.1892 0 0 12.5371 0 28.0013C0 43.4656 41.1892 56.0027 92.0014 56.0027C142.814 56.0027 184.003 43.4656 184.003 28.0013C184.003 12.5371 142.811 0 92.0014 0Z" fill="#171717"/>
<path d="M48.3509 20.2039H39.2501C38.3519 20.2039 37.5159 20.5573 36.8937 21.1994C36.2688 21.8415 35.9441 22.6886 35.9658 23.5789V32.312L35.9468 32.9541C35.9225 33.6825 36.193 34.3678 36.6962 34.8885C37.2048 35.4092 37.8866 35.6978 38.6116 35.6978H39.0499C39.7803 35.6978 40.4621 35.4092 40.9707 34.8831C41.4793 34.357 41.7444 33.6663 41.7147 32.9379L41.6714 31.7508H48.3509C53.1827 31.7508 55.8367 29.7004 55.8367 25.9854C55.8367 22.2705 53.3207 20.2012 48.3509 20.2012V20.2039ZM48.3509 27.8281H41.6633V24.5475H48.3509C48.9163 24.5475 50.6424 24.5475 50.6424 26.239C50.6424 27.8281 48.9813 27.8281 48.3509 27.8281Z" fill="#171717"/>
<path d="M76.0644 31.4379C75.5693 30.963 74.9065 30.7148 74.2247 30.7472L72.8125 30.8093L64.9129 30.99L64.9237 23.185C64.9616 22.3999 64.6829 21.6526 64.1364 21.0834C63.5927 20.5141 62.8541 20.2012 62.0668 20.2012C61.2796 20.2012 60.5545 20.5087 60.0108 21.0672C59.467 21.6257 59.1802 22.3649 59.2046 23.1419L59.2181 23.5789V32.3039L59.2127 32.5494C59.1829 33.383 59.4913 34.1735 60.073 34.7724C60.6546 35.3714 61.4365 35.7005 62.2724 35.7005H72.5339L74.268 35.7437C74.9606 35.7761 75.5937 35.509 76.0833 35.0341C76.5676 34.5593 76.8408 33.9226 76.8408 33.2427C76.8408 32.5629 76.5622 31.9154 76.0617 31.4379H76.0644Z" fill="#171717"/>
<path d="M99.3417 21.0512C98.8196 20.5009 98.1134 20.2041 97.3587 20.2041H97.2586C96.5227 20.2041 95.8328 20.4928 95.3134 21.0135C94.7913 21.5342 94.5126 22.2302 94.5153 22.9613L94.5343 25.1979C94.5586 27.5208 94.0338 29.2393 92.9787 30.3077C92.1427 31.1494 91.001 31.5757 89.578 31.5757C87.9981 31.5757 86.7509 31.1197 85.8663 30.2294C84.8004 29.1557 84.2728 27.4479 84.2971 25.1439L84.3161 22.9613C84.3269 22.2275 84.0428 21.5342 83.5234 21.0135C83.004 20.4928 82.3141 20.2041 81.5729 20.2041C80.8316 20.2041 80.1228 20.4955 79.6033 21.0324C79.0812 21.5746 78.8053 22.2788 78.8296 23.0234L78.8485 23.5792L78.9216 27.3103C79.0379 32.7304 83.1176 36.0919 89.578 36.0919C96.0384 36.0919 99.7962 32.7439 99.9558 27.3562L100.094 23.0666C100.132 22.3111 99.8638 21.5962 99.339 21.0512H99.3417Z" fill="#171717"/>
<path d="M125.258 20.8163C124.812 20.3847 124.23 20.1607 123.602 20.1796L123.064 20.2039H106.301L105.465 20.1742C104.851 20.1634 104.259 20.3793 103.81 20.8109C103.363 21.2426 103.117 21.8172 103.117 22.4404C103.117 23.0636 103.363 23.6464 103.81 24.0781C104.251 24.5043 104.827 24.7444 105.457 24.7148L107.005 24.6716H111.734L111.828 26.9081V32.3147L111.815 32.7545C111.785 33.5341 112.075 34.2734 112.616 34.8318C113.159 35.393 113.887 35.6978 114.672 35.6978C115.456 35.6978 116.198 35.3822 116.741 34.8156C117.288 34.241 117.567 33.4991 117.529 32.7086L117.523 32.5224L117.518 26.8758L117.615 24.6689H122.206L123.618 24.7121C124.249 24.7309 124.825 24.5016 125.271 24.07C125.712 23.6383 125.959 23.0636 125.959 22.4431C125.959 21.8226 125.712 21.2453 125.263 20.8136L125.258 20.8163Z" fill="#171717"/>
<path d="M139.379 19.8076C129.361 19.8076 127.984 23.7546 127.984 28.0146C127.984 35.2017 133.457 36.1946 139.379 36.1946C149.373 36.1946 150.75 32.2638 150.75 28.0146C150.75 23.7654 149.373 19.8076 139.379 19.8076ZM139.379 31.3761C135.097 31.3761 133.06 30.8743 133.06 28.0146C133.06 25.1548 135.097 24.6233 139.379 24.6233C143.662 24.6233 145.669 25.1305 145.669 28.0146C145.669 30.8986 143.551 31.3761 139.379 31.3761Z" fill="#171717"/>
</g>
<defs>
<clipPath id="clip0_1568_16884">
<rect width="184" height="56" fill="white"/>
</clipPath>
</defs>
</svg>
