<svg width="20" height="16" viewBox="0 0 20 16" fill="none" xmlns="http://www.w3.org/2000/svg">
<path d="M19.5369 1.88393C18.8185 2.20229 18.0467 2.4174 17.2353 2.51463C18.0725 2.01368 18.6988 1.22524 18.9975 0.296434C18.2109 0.76364 17.35 1.0925 16.4523 1.26872C15.8486 0.624143 15.049 0.196905 14.1776 0.0533402C13.3062 -0.0902246 12.4118 0.0579155 11.6332 0.474761C10.8547 0.891607 10.2355 1.55384 9.87186 2.35863C9.50822 3.16343 9.42046 4.06577 9.6222 4.92555C8.02841 4.84553 6.46926 4.43128 5.04593 3.70968C3.6226 2.98809 2.36691 1.97527 1.36034 0.736975C1.01617 1.33067 0.81827 2.01902 0.81827 2.7521C0.817886 3.41205 0.980403 4.06189 1.2914 4.64396C1.6024 5.22604 2.05227 5.72235 2.60108 6.08886C1.9646 6.0686 1.34216 5.89662 0.785574 5.58723V5.63885C0.785509 6.56445 1.10568 7.46157 1.69176 8.17798C2.27785 8.89439 3.09374 9.38597 4.001 9.5693C3.41056 9.7291 2.79153 9.75263 2.19066 9.63814C2.44663 10.4346 2.94525 11.131 3.61671 11.63C4.28816 12.1289 5.09884 12.4054 5.93525 12.4208C4.5154 13.5354 2.76189 14.14 0.956799 14.1373C0.637047 14.1374 0.317565 14.1187 0 14.0814C1.83227 15.2595 3.96516 15.8847 6.14348 15.8823C13.5174 15.8823 17.5485 9.77494 17.5485 4.47813C17.5485 4.30604 17.5442 4.13224 17.5364 3.96015C18.3205 3.3931 18.9974 2.69092 19.5352 1.88651L19.5369 1.88393Z" fill="black"/>
</svg>
