<svg width="80" height="80" viewBox="0 0 80 80" fill="none" xmlns="http://www.w3.org/2000/svg">
<path d="M13.6318 18.2158H30.4277C31.9532 18.2159 33.4165 18.8217 34.4951 19.9004L37.3818 22.7881L39.2705 24.6768C40.3492 25.7555 40.9561 27.2186 40.9561 28.7441V55.5264C40.9558 58.7031 38.3799 61.2783 35.2031 61.2783H13.6318C10.455 61.2783 7.88011 58.7031 7.87988 55.5264V23.9678C7.8799 20.7909 10.4549 18.2158 13.6318 18.2158Z" stroke="white" stroke-width="2.87619"/>
<path d="M30.4102 23.9691V17.7773L32.4075 18.776L40.3969 25.7667L41.3956 28.7628H35.2038C32.5563 28.7628 30.4102 26.6166 30.4102 23.9691Z" fill="white"/>
<path d="M13.0529 42.4438H33.7774C34.1215 42.4438 34.4006 42.0639 34.4006 41.595C34.4006 41.126 34.1216 40.7461 33.7774 40.7461H13.0529C12.7087 40.7461 12.4297 41.126 12.4297 41.595C12.4297 42.0639 12.7086 42.4438 13.0529 42.4438Z" fill="white"/>
<path d="M12.8263 48.4321H26.0146C26.2336 48.4321 26.4111 48.0522 26.4111 47.5832C26.4111 47.1143 26.2336 46.7344 26.0146 46.7344H12.8263C12.6073 46.7344 12.4297 47.1143 12.4297 47.5832C12.4297 48.0522 12.6072 48.4321 12.8263 48.4321Z" fill="white"/>
<path d="M13.0529 54.4282H33.7774C34.1215 54.4282 34.4006 54.0483 34.4006 53.5793C34.4006 53.1104 34.1216 52.7305 33.7774 52.7305H13.0529C12.7087 52.7305 12.4297 53.1104 12.4297 53.5793C12.4297 54.0483 12.7086 54.4282 13.0529 54.4282Z" fill="white"/>
<mask id="path-7-inside-1_3744_5307" fill="white">
<path d="M20.0234 24.7617C21.347 24.7617 22.4197 25.8346 22.4199 27.1582V32.3516C22.4199 33.6753 21.3472 34.748 20.0234 34.748H14.8301C13.5065 34.7479 12.4336 33.6752 12.4336 32.3516V27.1582C12.4338 25.8347 13.5066 24.7618 14.8301 24.7617H20.0234Z"/>
</mask>
<path d="M20.0234 24.7617L20.0235 22.3649H20.0234V24.7617ZM22.4199 27.1582H24.8167V27.1579L22.4199 27.1582ZM20.0234 34.748V37.1449H20.0235L20.0234 34.748ZM14.8301 34.748L14.8299 37.1449H14.8301V34.748ZM12.4336 27.1582L10.0368 27.1579V27.1582H12.4336ZM14.8301 24.7617V22.3649H14.8299L14.8301 24.7617ZM20.0234 24.7617L20.0234 27.1585L20.0231 27.1585L22.4199 27.1582L24.8167 27.1579C24.8164 24.5111 22.6711 22.3649 20.0235 22.3649L20.0234 24.7617ZM22.4199 27.1582H20.0231V32.3516H22.4199H24.8167V27.1582H22.4199ZM22.4199 32.3516H20.0231L20.0234 32.3512L20.0234 34.748L20.0235 37.1449C22.6709 37.1448 24.8167 34.999 24.8167 32.3516H22.4199ZM20.0234 34.748V32.3512H14.8301V34.748V37.1449H20.0234V34.748ZM14.8301 34.748L14.8303 32.3512L14.8304 32.3516H12.4336H10.0368C10.0368 34.9992 12.1829 37.1446 14.8299 37.1449L14.8301 34.748ZM12.4336 32.3516H14.8304V27.1582H12.4336H10.0368V32.3516H12.4336ZM12.4336 27.1582L14.8304 27.1585L14.8303 27.1585L14.8301 24.7617L14.8299 22.3649C12.1827 22.3651 10.0371 24.511 10.0368 27.1579L12.4336 27.1582ZM14.8301 24.7617V27.1585H20.0234V24.7617V22.3649H14.8301V24.7617Z" fill="white" mask="url(#path-7-inside-1_3744_5307)"/>
<path d="M44.7881 18.2158H61.584C63.1094 18.2159 64.5727 18.8217 65.6514 19.9004L68.5381 22.7881L70.4268 24.6768C71.5055 25.7555 72.1123 27.2186 72.1123 28.7441V55.5264C72.1121 58.7031 69.5362 61.2783 66.3594 61.2783H44.7881C41.6113 61.2783 39.0364 58.7031 39.0361 55.5264V23.9678C39.0361 20.7909 41.6112 18.2158 44.7881 18.2158Z" stroke="white" stroke-width="2.87619"/>
<path d="M44.2091 42.4438H64.9336C65.2778 42.4438 65.5568 42.0639 65.5568 41.595C65.5568 41.126 65.2779 40.7461 64.9336 40.7461H44.2091C43.865 40.7461 43.5859 41.126 43.5859 41.595C43.5859 42.0639 43.8649 42.4438 44.2091 42.4438Z" fill="white"/>
<path d="M43.9825 48.4321H57.1708C57.3898 48.4321 57.5674 48.0522 57.5674 47.5832C57.5674 47.1143 57.3899 46.7344 57.1708 46.7344H43.9825C43.7635 46.7344 43.5859 47.1143 43.5859 47.5832C43.5859 48.0522 43.7634 48.4321 43.9825 48.4321Z" fill="white"/>
<path d="M44.2091 54.4282H64.9336C65.2778 54.4282 65.5568 54.0483 65.5568 53.5793C65.5568 53.1104 65.2779 52.7305 64.9336 52.7305H44.2091C43.865 52.7305 43.5859 53.1104 43.5859 53.5793C43.5859 54.0483 43.8649 54.4282 44.2091 54.4282Z" fill="white"/>
<mask id="path-13-inside-2_3744_5307" fill="white">
<path d="M51.1758 24.7617C52.4994 24.7617 53.5731 25.8346 53.5732 27.1582V32.3516C53.5732 33.6753 52.4995 34.748 51.1758 34.748H45.9824C44.6589 34.7478 43.5859 33.6751 43.5859 32.3516V27.1582C43.5861 25.8348 44.659 24.762 45.9824 24.7617H51.1758Z"/>
</mask>
<path d="M53.5732 27.1582H55.9701V27.1579L53.5732 27.1582ZM45.9824 34.748L45.982 37.1449H45.9824V34.748ZM43.5859 27.1582L41.1891 27.1579V27.1582H43.5859ZM45.9824 24.7617V22.3649H45.982L45.9824 24.7617ZM51.1758 24.7617V27.1585L51.1764 27.1585L53.5732 27.1582L55.9701 27.1579C55.9697 24.5099 53.8222 22.3649 51.1758 22.3649V24.7617ZM53.5732 27.1582H51.1764V32.3516H53.5732H55.9701V27.1582H53.5732ZM53.5732 32.3516H51.1764L51.1758 32.3512V34.748V37.1449C53.822 37.1449 55.9701 35.0003 55.9701 32.3516H53.5732ZM51.1758 34.748V32.3512H45.9824V34.748V37.1449H51.1758V34.748ZM45.9824 34.748L45.9829 32.3512L45.9828 32.3516H43.5859H41.1891C41.1891 34.9993 43.3355 37.1444 45.982 37.1449L45.9824 34.748ZM43.5859 32.3516H45.9828V27.1582H43.5859H41.1891V32.3516H43.5859ZM43.5859 27.1582L45.9828 27.1585L45.9829 27.1585L45.9824 24.7617L45.982 22.3649C43.3353 22.3654 41.1895 24.5109 41.1891 27.1579L43.5859 27.1582ZM45.9824 24.7617V27.1585H51.1758V24.7617V22.3649H45.9824V24.7617Z" fill="white" mask="url(#path-13-inside-2_3744_5307)"/>
<path d="M25.6201 13.9736H47.8086C49.2388 13.9737 50.6108 14.5414 51.6221 15.5527L55.5078 19.4385L58.1953 22.127C59.2064 23.1382 59.7743 24.5094 59.7744 25.9395V60.1123C59.7744 63.0907 57.3602 65.5049 54.3818 65.5049H25.6201C22.6418 65.5049 20.2276 63.0906 20.2275 60.1123V19.3662C20.2276 16.3878 22.6418 13.9737 25.6201 13.9736Z" fill="#AB61FB" stroke="white" stroke-width="3.59523"/>
<path d="M47.1875 21.7639V13.375L49.5843 14.5734L59.1716 22.9623L60.37 26.5575H51.9811C49.3337 26.5575 47.1875 24.4113 47.1875 21.7639Z" fill="white"/>
<path d="M26.365 42.9709H51.2344C51.6474 42.9709 51.9822 42.5149 51.9822 41.9522C51.9822 41.3895 51.6475 40.9336 51.2344 40.9336H26.365C25.952 40.9336 25.6172 41.3895 25.6172 41.9522C25.6172 42.5149 25.9519 42.9709 26.365 42.9709Z" fill="white"/>
<path d="M26.0931 50.1662H41.9191C42.1819 50.1662 42.3949 49.7103 42.3949 49.1476C42.3949 48.5849 42.1819 48.1289 41.9191 48.1289H26.0931C25.8303 48.1289 25.6172 48.5849 25.6172 49.1476C25.6172 49.7103 25.8302 50.1662 26.0931 50.1662Z" fill="white"/>
<path d="M26.365 57.3537H51.2344C51.6474 57.3537 51.9822 56.8978 51.9822 56.3351C51.9822 55.7724 51.6475 55.3164 51.2344 55.3164H26.365C25.952 55.3164 25.6172 55.7724 25.6172 56.3351C25.6172 56.8978 25.9519 57.3537 26.365 57.3537Z" fill="white"/>
<path d="M35.2041 21.7578C36.5277 21.7578 37.6014 22.8307 37.6016 24.1543V31.3447C37.6016 32.6685 36.5278 33.7422 35.2041 33.7422H28.0137C26.6901 33.7419 25.6172 32.6683 25.6172 31.3447V24.1543C25.6173 22.8308 26.6902 21.7581 28.0137 21.7578H35.2041ZM34.6621 24.7529C34.4211 24.7633 34.2008 24.8566 34.0332 25.0332L30.7324 28.3057C30.6381 28.3888 30.4911 28.3888 30.4072 28.3057L29.2031 27.1113C28.3439 26.2178 27.0129 27.5368 27.9141 28.3887L30.083 30.5498C30.345 30.8094 30.7849 30.8095 31.0469 30.5498L35.3223 26.3115C35.9195 25.7298 35.5002 24.7324 34.6621 24.7529Z" fill="white"/>
</svg>
