<svg width="80" height="80" viewBox="0 0 80 80" fill="none" xmlns="http://www.w3.org/2000/svg">
<path d="M54.6589 33.7657C54.6589 28.4848 52.6026 23.5203 48.8691 19.7869C45.135 16.0525 40.1702 13.9961 34.8898 13.9961C29.6094 13.9961 24.6453 16.0524 20.9109 19.7874C17.1774 23.5209 15.1211 28.4853 15.1211 33.7657C15.1211 39.0457 17.1774 44.0112 20.9109 47.7441C28.6189 55.4521 41.1601 55.4521 48.8686 47.7441C52.6027 44.0109 54.6589 39.0457 54.6589 33.7657ZM34.8898 50.3297C30.6459 50.3297 26.4027 48.7142 23.1719 45.4831C16.7105 39.0225 16.7105 28.5089 23.1719 22.0484C29.6339 15.5869 40.1466 15.5879 46.6081 22.0471V22.0476C53.0695 28.5082 53.0695 39.0218 46.6081 45.4823C43.3771 48.7139 39.134 50.3294 34.8898 50.3294V50.3297Z" fill="white"/>
<path d="M44.3615 24.2978V24.2984C41.7517 21.6881 38.3223 20.3828 34.8941 20.3828C31.4657 20.3828 28.0374 21.6879 25.4272 24.2984C20.2065 29.5182 20.2065 38.0124 25.4272 43.2336C30.648 48.4524 39.1413 48.4524 44.3625 43.2336C49.5827 38.0134 49.5827 29.5182 44.3617 24.2979L44.3615 24.2978ZM42.8334 41.7053C42.4918 42.0469 42.0442 42.2179 41.5958 42.2179C41.148 42.2179 40.7002 42.0469 40.3583 41.7053C39.6748 41.0219 39.6748 39.9131 40.3583 39.2295C41.815 37.7736 42.6167 35.8327 42.6167 33.7666C42.6161 31.6998 41.8142 29.7586 40.3569 28.3027C39.6735 27.6193 39.6735 26.5111 40.3564 25.8268C41.0404 25.1434 42.1486 25.1434 42.8315 25.8268C44.9496 27.945 46.1161 30.7644 46.1166 33.766C46.1174 36.7685 44.9515 39.5881 42.8333 41.7056L42.8334 41.7053Z" fill="white"/>
<path d="M64.2478 59.6652L55.1141 50.5315C54.3902 49.8076 53.4391 49.4453 52.4888 49.4453C51.5376 49.4453 50.5873 49.807 49.8628 50.5315C48.4155 51.9788 48.4155 54.3344 49.8628 55.782L58.997 64.9157C59.6937 65.6126 60.6263 65.9962 61.6224 65.9962C62.619 65.9962 63.5509 65.6126 64.2472 64.9163H64.2478C65.6951 63.4685 65.6951 61.1135 64.2478 59.6648L64.2478 59.6652Z" fill="white"/>
</svg>
