<svg width="40" height="40" viewBox="0 0 40 40" fill="none" xmlns="http://www.w3.org/2000/svg">
<rect width="40" height="40" rx="8" fill="url(#paint0_linear_3289_2635)" fill-opacity="0.08"/>
<path d="M27.3125 8H12.6875C10.1028 8 8 10.1028 8 12.6875V25.4375C8 27.7012 9.61297 29.5952 11.75 30.0307V31.0625C11.75 31.5803 12.1697 32 12.6875 32C13.2053 32 13.625 31.5803 13.625 31.0625V30.125H26.375V31.0625C26.375 31.5803 26.7947 32 27.3125 32C27.8303 32 28.25 31.5803 28.25 31.0625V30.0307C30.387 29.5952 32 27.7012 32 25.4375V12.6875C32 10.1028 29.8972 8 27.3125 8ZM30.125 25.4375C30.125 26.9883 28.8633 28.25 27.3125 28.25H12.6875C11.1367 28.25 9.875 26.9883 9.875 25.4375V12.6875C9.875 11.1367 11.1367 9.875 12.6875 9.875H27.3125C28.8633 9.875 30.125 11.1367 30.125 12.6875V25.4375Z" fill="#9D60FB"/>
<path d="M14.5625 20.9375C13.0117 20.9375 11.75 22.1992 11.75 23.75C11.75 25.3008 13.0117 26.5625 14.5625 26.5625C16.1133 26.5625 17.375 25.3008 17.375 23.75C17.375 22.1992 16.1133 20.9375 14.5625 20.9375ZM14.5625 24.6875C14.0456 24.6875 13.625 24.2669 13.625 23.75C13.625 23.2331 14.0456 22.8125 14.5625 22.8125C15.0794 22.8125 15.5 23.2331 15.5 23.75C15.5 24.2669 15.0794 24.6875 14.5625 24.6875Z" fill="#9D60FB"/>
<path d="M21.875 22.8125H20C19.4822 22.8125 19.0625 23.2322 19.0625 23.75C19.0625 24.2678 19.4822 24.6875 20 24.6875H21.875C22.3928 24.6875 22.8125 24.2678 22.8125 23.75C22.8125 23.2322 22.3928 22.8125 21.875 22.8125Z" fill="#9D60FB"/>
<path d="M27.5 22.8125H25.625C25.1072 22.8125 24.6875 23.2322 24.6875 23.75C24.6875 24.2678 25.1072 24.6875 25.625 24.6875H27.5C28.0178 24.6875 28.4375 24.2678 28.4375 23.75C28.4375 23.2322 28.0178 22.8125 27.5 22.8125Z" fill="#9D60FB"/>
<path d="M27.3125 15.3125H25.1611C23.8833 15.3125 22.8034 16.2273 22.5933 17.4878C22.4992 18.0524 22.0198 18.0962 21.875 18.0962C21.7303 18.0962 21.2509 18.0524 21.1568 17.4878L20.6928 14.704C20.4794 13.4233 19.4235 12.5288 18.1251 12.5288C16.8267 12.5288 15.7708 13.4233 15.5574 14.704C15.4986 15.0566 15.1965 15.3125 14.8391 15.3125H12.6875C12.1697 15.3125 11.75 15.7322 11.75 16.25C11.75 16.7678 12.1697 17.1875 12.6875 17.1875H14.8389C16.1167 17.1875 17.1966 16.2727 17.4067 15.0122C17.5008 14.4477 17.9802 14.4038 18.125 14.4038C18.2697 14.4038 18.7491 14.4477 18.8432 15.0123L19.3072 17.796C19.5206 19.0768 20.5765 19.9712 21.8749 19.9712C23.1733 19.9712 24.2292 19.0767 24.4426 17.7961C24.5014 17.4435 24.8035 17.1875 25.1609 17.1875H27.3125C27.8303 17.1875 28.25 16.7678 28.25 16.25C28.25 15.7322 27.8303 15.3125 27.3125 15.3125Z" fill="#9D60FB"/>
<defs>
<linearGradient id="paint0_linear_3289_2635" x1="35.8149" y1="-29.2156" x2="-8.99555" y2="-22.7965" gradientUnits="userSpaceOnUse">
<stop stop-color="#C960FB"/>
<stop offset="0.9828" stop-color="#9D60FB"/>
</linearGradient>
</defs>
</svg>
