<?xml version="1.0" encoding="UTF-8"?>
<svg xmlns="http://www.w3.org/2000/svg" width="181" height="30" viewBox="0 0 181 30" fill="none">
  <g clip-path="url(#clip0_7500_18453)">
    <path d="M71.3031 2.7417C71.3051 2.19979 71.4677 1.67063 71.7704 1.22114C72.0732 0.771656 72.5024 0.42203 73.0038 0.216477C73.5052 0.0109233 74.0563 -0.0413253 74.5874 0.0663379C75.1186 0.174001 75.6058 0.436741 75.9876 0.821331C76.3694 1.20592 76.6286 1.69509 76.7324 2.22698C76.8361 2.75887 76.7799 3.30959 76.5707 3.8095C76.3615 4.30941 76.0087 4.73605 75.557 5.03548C75.1053 5.33491 74.575 5.49368 74.0331 5.4917C73.6733 5.49039 73.3172 5.41822 72.9853 5.27931C72.6534 5.1404 72.3521 4.93747 72.0986 4.68211C71.845 4.42675 71.6443 4.12396 71.5078 3.79102C71.3714 3.45808 71.3018 3.10153 71.3031 2.7417ZM117.203 23.7717C117.747 23.7737 118.28 23.6141 118.734 23.3131C119.187 23.0121 119.541 22.5833 119.751 22.081C119.96 21.5787 120.016 21.0255 119.911 20.4914C119.806 19.9572 119.545 19.4663 119.161 19.0807C118.777 18.6951 118.287 18.4322 117.753 18.3253C117.219 18.2184 116.666 18.2722 116.163 18.4801C115.66 18.6879 115.23 19.0404 114.927 19.4928C114.625 19.9453 114.463 20.4774 114.463 21.0217C114.463 21.7493 114.751 22.4473 115.265 22.9627C115.778 23.4781 116.475 23.769 117.203 23.7717ZM26.4031 6.7317C24.716 6.74946 23.0719 7.26597 21.6777 8.21618C20.2836 9.1664 19.2017 10.5078 18.5684 12.0716C17.935 13.6354 17.7785 15.3516 18.1185 17.0042C18.4585 18.6568 19.2798 20.1718 20.4791 21.3586C21.6783 22.5453 23.2019 23.3507 24.8579 23.6734C26.5139 23.9961 28.2284 23.8216 29.7855 23.1719C31.3426 22.5222 32.6726 21.4264 33.6082 20.0223C34.5437 18.6183 35.043 16.9689 35.0431 15.2817C35.0799 14.1413 34.8809 13.0055 34.4586 11.9455C34.0362 10.8856 33.3996 9.92419 32.5886 9.1216C31.7775 8.31901 30.8095 7.69249 29.7452 7.28126C28.6809 6.87002 27.5431 6.68293 26.4031 6.7317ZM26.4031 19.8317C24.0531 19.8317 22.4031 17.9617 22.4031 15.2817C22.4031 12.6017 24.0431 10.7317 26.4031 10.7317C28.7631 10.7317 30.4031 12.6017 30.4031 15.2817C30.4031 17.9617 28.8131 19.8317 26.4031 19.8317ZM66.0031 15.7117C65.8352 15.3733 65.6159 15.063 65.3531 14.7917L65.2031 14.6317L65.3631 14.4817C65.6147 14.2095 65.8454 13.9187 66.0531 13.6117L70.4431 7.0617H65.1131L61.8031 12.1917C61.6617 12.3459 61.4851 12.4638 61.2883 12.5351C61.0916 12.6065 60.8805 12.6294 60.6731 12.6017H59.9231V2.9117C59.9231 0.981702 58.7131 0.711702 57.4131 0.711702H55.1831V23.5817H59.9131V16.7217H60.3531C60.8931 16.7217 61.2631 16.7817 61.4331 17.0817L64.0531 21.9717C64.2804 22.5106 64.6816 22.958 65.1926 23.2425C65.7037 23.527 66.2953 23.6323 66.8731 23.5417H70.5031L67.7931 19.0717L66.0031 15.7117ZM88.9731 6.6917C88.0778 6.67185 87.1882 6.83953 86.3615 7.18397C85.5349 7.52841 84.7894 8.04199 84.1731 8.6917L83.8831 8.9817L83.7831 8.5817C83.6292 8.08974 83.3052 7.66863 82.8691 7.39378C82.433 7.11894 81.9133 7.00831 81.4031 7.0817H79.2731V23.5717H83.9931V15.9717C83.9781 15.2936 84.0761 14.6176 84.2831 13.9717C84.501 13.1319 84.9954 12.39 85.6867 11.8656C86.3779 11.3413 87.2256 11.0651 88.0931 11.0817C89.5531 11.0817 90.0931 11.8517 90.0931 13.8617V21.0517C90.0381 21.3938 90.065 21.7441 90.1717 22.0737C90.2784 22.4034 90.4617 22.703 90.7067 22.948C90.9518 23.1931 91.2514 23.3764 91.5811 23.4831C91.9107 23.5898 92.261 23.6167 92.6031 23.5617H94.8231V13.0717C94.8531 8.9017 92.8231 6.6917 88.9731 6.6917ZM74.0931 7.0617H71.8731V23.5817H76.5731V9.5817C76.6265 9.24212 76.5995 8.89475 76.4944 8.56747C76.3893 8.24019 76.2089 7.94209 75.9678 7.69708C75.7267 7.45208 75.4315 7.26698 75.1059 7.15664C74.7804 7.0463 74.4335 7.01379 74.0931 7.0617ZM44.8631 6.7317C43.176 6.74946 41.5319 7.26597 40.1377 8.21618C38.7436 9.1664 37.6617 10.5078 37.0284 12.0716C36.395 13.6354 36.2385 15.3516 36.5785 17.0042C36.9185 18.6568 37.7398 20.1718 38.9391 21.3586C40.1383 22.5453 41.6619 23.3507 43.3179 23.6734C44.9739 23.9961 46.6884 23.8216 48.2455 23.1719C49.8026 22.5222 51.1326 21.4264 52.0682 20.0223C53.0037 18.6183 53.503 16.9689 53.5031 15.2817C53.5399 14.1413 53.3409 13.0055 52.9186 11.9455C52.4962 10.8856 51.8596 9.92419 51.0486 9.1216C50.2375 8.31901 49.2695 7.69249 48.2052 7.28126C47.1409 6.87002 46.0031 6.68293 44.8631 6.7317ZM44.8631 19.8317C42.5131 19.8317 40.8631 17.9617 40.8631 15.2817C40.8631 12.6017 42.5031 10.7317 44.8631 10.7317C47.2231 10.7317 48.8631 12.6017 48.8631 15.2817C48.8631 17.9617 47.2731 19.8317 44.8631 19.8317ZM145.593 6.7317C143.906 6.74946 142.262 7.26597 140.868 8.21618C139.473 9.1664 138.392 10.5078 137.758 12.0716C137.125 13.6354 136.968 15.3516 137.308 17.0042C137.648 18.6568 138.47 20.1718 139.669 21.3586C140.868 22.5453 142.392 23.3507 144.048 23.6734C145.704 23.9961 147.418 23.8216 148.975 23.1719C150.532 22.5222 151.863 21.4264 152.798 20.0223C153.734 18.6183 154.233 16.9689 154.233 15.2817C154.27 14.1413 154.071 13.0055 153.648 11.9455C153.226 10.8856 152.59 9.92419 151.778 9.1216C150.967 8.31901 149.999 7.69249 148.935 7.28126C147.871 6.87002 146.733 6.68293 145.593 6.7317ZM145.593 19.8317C143.243 19.8317 141.593 17.9617 141.593 15.2817C141.593 12.6017 143.233 10.7317 145.593 10.7317C147.953 10.7317 149.593 12.6017 149.593 15.2817C149.593 17.9617 148.003 19.8317 145.593 19.8317ZM110.443 7.0217C110.059 6.98456 109.673 7.0592 109.33 7.23662C108.988 7.41404 108.704 7.68668 108.513 8.0217L108.393 8.2717L108.173 8.0817C106.956 7.08515 105.414 6.57243 103.843 6.6417C99.4531 6.6417 96.4831 9.9517 96.4831 14.8717C96.4831 19.7917 99.5531 23.2217 103.933 23.2217C105.224 23.2808 106.498 22.9078 107.553 22.1617L107.913 21.8817V22.3417C107.913 24.5517 106.483 25.7717 103.913 25.7717C102.834 25.7567 101.765 25.5572 100.753 25.1817C100.559 25.083 100.345 25.0312 100.128 25.0304C99.91 25.0296 99.6954 25.0799 99.5008 25.1771C99.3063 25.2744 99.1373 25.416 99.0074 25.5904C98.8776 25.7649 98.7905 25.9674 98.7531 26.1817L97.8431 28.4617L98.1731 28.6317C99.9624 29.5212 101.935 29.98 103.933 29.9717C107.933 29.9717 112.603 27.9117 112.603 22.1417V7.0217H110.443ZM104.763 19.1117C102.203 19.1117 101.283 16.8617 101.283 14.7617C101.283 13.8317 101.513 10.7617 104.513 10.7617C106.003 10.7617 108.003 11.1817 108.003 14.8617C108.003 18.3817 106.243 19.1117 104.763 19.1117ZM13.7931 11.8517L13.1031 11.4717L13.7031 10.9717C14.3134 10.4351 14.7982 9.7709 15.1231 9.02606C15.448 8.28122 15.605 7.47402 15.5831 6.6617C15.5831 3.0617 12.7931 0.741702 8.49312 0.741702H3.01312C2.39918 0.764662 1.81744 1.02219 1.38769 1.46124C0.957946 1.90028 0.712935 2.48742 0.703125 3.1017V23.5017H8.58313C13.3731 23.5017 16.4731 20.8917 16.4731 16.8417C16.5135 15.8463 16.2861 14.8583 15.8147 13.9806C15.3434 13.1029 14.6452 12.3678 13.7931 11.8517ZM5.07312 6.0817C5.07312 5.0217 5.52313 4.5217 6.50313 4.4617H8.50313C8.86406 4.42932 9.22768 4.47675 9.56822 4.60063C9.90877 4.72451 10.2179 4.92181 10.4736 5.17852C10.7294 5.43524 10.9255 5.74509 11.0481 6.08609C11.1707 6.42709 11.2168 6.7909 11.1831 7.1517C11.2225 7.518 11.1822 7.8885 11.0647 8.23769C10.9473 8.58688 10.7555 8.90648 10.5028 9.17448C10.25 9.44248 9.94211 9.65253 9.60036 9.79015C9.25862 9.92777 8.89111 9.98971 8.52313 9.9717H5.07312V6.0817ZM8.90312 19.6417H5.07312V15.0617C5.07312 14.0617 5.46313 13.5717 6.29313 13.4517H8.90312C9.69355 13.4966 10.4368 13.8423 10.9805 14.4178C11.5242 14.9933 11.8271 15.755 11.8271 16.5467C11.8271 17.3384 11.5242 18.1001 10.9805 18.6756C10.4368 19.2511 9.69355 19.5967 8.90312 19.6417ZM175.233 6.7417C174.261 6.74537 173.303 6.96746 172.429 7.39155C171.555 7.81564 170.787 8.43086 170.183 9.1917L169.843 9.6317L169.573 9.1417C169.14 8.35671 168.49 7.71299 167.701 7.28741C166.912 6.86183 166.017 6.67238 165.123 6.7417C164.307 6.75499 163.501 6.93479 162.757 7.27009C162.012 7.60539 161.344 8.08913 160.793 8.6917L160.353 9.1717L160.183 8.5417C160.026 8.07323 159.711 7.67453 159.29 7.41505C158.87 7.15557 158.372 7.05176 157.883 7.1217H155.883V23.5717H160.343V16.3117C160.349 15.6646 160.43 15.0204 160.583 14.3917C161.013 12.6317 162.193 10.7417 164.173 10.9317C165.393 11.0517 165.993 11.9917 165.993 13.8217V23.5717H170.513V16.3117C170.494 15.6362 170.578 14.9618 170.763 14.3117C171.123 12.6417 172.353 10.9217 174.263 10.9217C175.643 10.9217 176.153 11.7017 176.153 13.8117V21.1717C176.153 22.8317 176.893 23.5717 178.553 23.5717H180.703V13.0717C180.703 8.8717 178.853 6.7417 175.233 6.7417ZM134.393 17.8617C133.213 19.0967 131.616 19.8488 129.913 19.9717C129.296 20.009 128.677 19.9157 128.098 19.6979C127.519 19.4801 126.993 19.1427 126.553 18.7077C126.113 18.2727 125.77 17.7499 125.546 17.1733C125.322 16.5968 125.222 15.9795 125.253 15.3617C125.201 14.7521 125.278 14.1382 125.479 13.5605C125.681 12.9827 126.002 12.4541 126.422 12.0093C126.843 11.5646 127.352 11.2137 127.918 10.9797C128.483 10.7457 129.091 10.6339 129.703 10.6517C130.543 10.6517 131.503 10.9517 131.653 11.4617V11.5517C131.751 11.9003 131.961 12.2073 132.25 12.4257C132.538 12.6442 132.891 12.7622 133.253 12.7617H135.703V10.6117C135.703 7.7717 132.093 6.7417 129.703 6.7417C124.513 6.7417 120.703 10.3717 120.703 15.3517C120.703 20.3317 124.433 23.9717 129.563 23.9717C130.881 23.9579 132.182 23.6739 133.386 23.1372C134.59 22.6006 135.672 21.8227 136.563 20.8517L134.703 17.5817L134.393 17.8617Z" fill="#303245"></path>
  </g>
</svg>
