<?xml version="1.0" encoding="UTF-8"?>
<svg xmlns="http://www.w3.org/2000/svg" width="135" height="38" viewBox="0 0 135 38" fill="none">
  <g clip-path="url(#clip0_7500_18442)">
    <path d="M92.7088 19.0004H86.1882C86.1882 18.5576 86.1882 17.1623 86.1882 17.1623C86.1882 15.9547 86.5371 14.9619 87.1945 14.3045C87.7714 13.7275 88.5764 13.4055 89.4351 13.4055C91.5281 13.419 92.6954 14.7472 92.6954 17.1623C92.7088 17.1623 92.7088 18.5576 92.7088 19.0004ZM95.097 14.1166C93.7017 12.8823 91.7562 12.2383 89.4754 12.2383C87.436 12.2383 85.4101 13.164 83.9074 14.8009C82.2974 16.5317 81.4119 18.9199 81.3984 21.4959C81.3984 24.0317 82.3108 26.3528 83.9879 28.0299C85.5845 29.6399 87.7178 30.512 89.9986 30.512C94.3859 30.4986 96.8546 27.2517 97.2839 24.2463L97.3108 24.0853H95.9557L95.9423 24.2061C95.6337 26.6479 93.5541 29.2508 90.3072 29.2374C87.7178 29.2374 86.2285 27.4664 86.2151 24.3805C86.2151 24.3805 86.2151 21.0129 86.2151 20.2884H97.5791V20.1408C97.4852 17.5111 96.6534 15.4852 95.097 14.1166Z" fill="#303245"></path>
    <path d="M59.4873 26.556H58.2127L58.1859 26.6633C58.0383 27.4683 57.5285 28.8234 55.8916 28.81C54.617 28.81 53.9596 27.911 53.9596 26.1534C53.9596 26.1534 53.9596 15.2456 53.9596 13.9039H58.1591V13.7697V12.844V12.7098H53.9864V7.41016L53.8388 7.42357C52.8594 7.53091 50.8603 7.67849 49.8138 7.67849H49.6796V12.7098H46.9023V13.9173H49.693V24.5837C49.693 28.5148 51.3836 30.5005 54.6975 30.5005C58.5079 30.5005 59.2995 27.6025 59.4605 26.717L59.4873 26.556Z" fill="#303245"></path>
    <path d="M11.9513 8.04025L15.9764 19.5385H8.19463L11.9513 8.04025ZM44.3664 28.8229V17.9821C44.3664 16.305 43.8297 14.8694 42.7966 13.8363C41.7635 12.8032 40.2742 12.2397 38.6106 12.2397C36.3297 12.2397 34.505 13.1521 33.1633 14.9365L33.1231 12.8569V12.7227H26.2939V13.9034H28.9773V28.8229H24.1875L14.353 0.593918L14.3261 0.5H13.1186L3.47192 28.8229H0.761719V30.0036H8.79839V28.8229H5.09535L7.7653 20.7594H16.3655L19.0757 28.8229H15.3324V30.0036H35.8467V28.8229H33.1633V20.5447C33.1767 15.6073 35.8064 13.8095 37.5775 13.8095C39.2948 13.8095 40.1669 14.9231 40.1669 17.11C40.1669 17.11 40.1669 27.5081 40.1669 28.8229H37.658V30.0036H47.09V28.8229H44.3664Z" fill="#303245"></path>
    <path d="M78.0835 28.8244V17.8092C78.0835 15.2332 76.5137 12.2412 72.1264 12.2412C68.7185 12.2412 66.9475 13.8915 66.1962 14.7502V0.582031H59.3536V1.81638H61.9162V28.8244H59.1523V30.0051H68.8393V28.8244H66.1962V20.4389C66.1962 17.5409 67.189 15.9443 68.0209 15.1124C68.8259 14.3074 69.859 13.8647 70.9189 13.8647C73.2668 13.8647 73.7633 15.7967 73.7767 17.4201C73.7767 17.4201 73.7767 27.5364 73.7767 28.8244H71.1336V30.0051H80.8205V28.8244H78.0835Z" fill="#303245"></path>
    <path d="M129.336 28.8233H126.706V17.1373C126.706 14.1051 124.627 12.2267 121.299 12.2267C118.146 12.2267 116.429 13.7965 115.637 14.843C114.765 13.1256 113.061 12.2133 110.713 12.2267C108.459 12.2267 106.447 13.0586 105.105 14.5076L105.065 12.8439V12.7097H98.1016V13.8904H100.946V28.8099H98.1418V29.9906H107.614V28.8099H105.199V20.572C105.28 18.1704 105.387 16.6274 106.246 15.4467C106.983 14.4673 108.164 13.8501 109.318 13.8501C110.74 13.8501 111.25 14.9235 111.304 15.0442C111.666 15.7285 111.666 16.9092 111.666 18.0496V28.8099H109.144V29.9906H118.428V28.8099H116V20.572C116.08 18.1704 116.187 16.6274 117.046 15.4467C117.784 14.4673 118.965 13.8501 120.119 13.8501C121.541 13.8501 122.051 14.9235 122.104 15.0442C122.467 15.7285 122.466 16.9092 122.466 18.0496V28.8099H119.958V29.9906H129.47V28.8099H129.336" fill="#303245"></path>
    <path d="M132.664 27.5879C133.013 27.5879 133.509 27.6416 133.509 27.172C133.509 26.8232 133.214 26.7695 132.906 26.7695H132.208V27.5879H132.664ZM132.221 29.0101H131.899V26.4743H132.986C133.643 26.4743 133.872 26.7158 133.872 27.172C133.872 27.655 133.523 27.8428 133.093 27.8831L133.845 29.0101H133.482L132.771 27.8831H132.235V29.0101H132.221ZM134.583 27.7489C134.583 26.6756 133.804 25.8974 132.731 25.8974C131.644 25.8974 130.866 26.6756 130.866 27.7489C130.866 28.8357 131.644 29.6139 132.731 29.6139C133.804 29.6139 134.583 28.8357 134.583 27.7489ZM130.504 27.7489C130.504 26.5414 131.497 25.5352 132.731 25.5352C133.952 25.5352 134.945 26.528 134.945 27.7489C134.945 28.9699 133.952 29.9761 132.731 29.9761C131.497 29.9761 130.504 28.9833 130.504 27.7489Z" fill="#303245"></path>
  </g>
</svg>
