<?xml version="1.0" encoding="UTF-8"?>
<svg xmlns="http://www.w3.org/2000/svg" width="178" height="32" viewBox="0 0 178 32" fill="none">
  <g clip-path="url(#clip0_402_14)">
    <path d="M26.8739 12.8046C26.1314 12.8046 25.4728 12.4469 25.0595 11.8941L25.0566 11.8901C23.4072 9.66837 18.7991 3.46058 16.8776 0.872131C16.7501 0.700268 16.5493 0.599383 16.3357 0.599383H8.85762C8.57813 0.599383 8.41796 0.918385 8.58476 1.14315C10.2863 3.43492 16.4099 11.6849 16.7024 12.0786C16.759 12.1546 16.7924 12.2483 16.7924 12.3504C16.7924 12.6013 16.5891 12.8046 16.3395 12.8046C14.8721 12.8047 10.9192 12.8046 9.08859 12.8046C8.8738 12.8046 8.67187 12.9064 8.54352 13.079L0.0907425 24.4659C-0.0760538 24.6905 0.0839812 25.0098 0.363345 25.0098H7.84054C8.0548 25.0098 8.2562 24.9085 8.38415 24.7361C10.3237 22.1236 14.8911 15.9711 16.5625 13.7192C16.5637 13.7175 16.5647 13.7163 16.5654 13.7152C16.9788 13.1623 17.6374 12.8036 18.3797 12.8046C19.9932 12.8066 23.2201 12.8168 24.8335 12.8046C25.201 12.8018 25.4179 13.2393 25.1965 13.5307C24.9264 13.886 18.7779 22.1772 17.079 24.466C16.9122 24.6906 17.0724 25.0098 17.3518 25.0098H24.8287C25.0431 25.0098 25.2445 24.9085 25.3724 24.7361C27.3116 22.1241 31.8798 15.9701 33.5508 13.7192C33.5508 13.7192 33.5529 13.7161 33.5535 13.7152C33.9602 13.1572 34.6255 12.8046 35.3679 12.8046C36.9115 12.8046 39.8614 12.8046 41.8222 12.8046C42.1946 12.8046 42.4078 12.379 42.1855 12.0794L33.8673 0.87399C33.739 0.701197 33.5368 0.599383 33.3221 0.599383H25.8457C25.5663 0.599383 25.4061 0.918518 25.5729 1.14315C27.2719 3.43173 33.4135 11.7043 33.6777 12.0616L33.6969 12.0864C33.911 12.3768 33.6928 12.8074 33.3281 12.8046C31.7147 12.7923 28.4875 12.8046 26.8739 12.8046Z" fill="#100F0D"></path>
    <path d="M71.2583 0.599383V25.0098H66.5543V14.885H55.4862V25.0098H50.7822V0.599383H55.4862V10.7241H66.5543V0.599383H71.2583Z" fill="#100F0D"></path>
    <path d="M74.2388 6.70191H78.666V25.0098H74.2388V6.70191ZM74.2388 0.0445816H78.666V4.48284H74.2388V0.0445816Z" fill="#100F0D"></path>
    <path d="M106.797 10.9637C107.627 9.12607 109.771 6.42451 112.953 6.42451C116.897 6.42451 119.525 8.99036 119.525 14.1916V25.0098H115.098V15.7168C115.098 11.5909 114.026 10.4465 111.708 10.4465C109.148 10.4465 106.797 13.3247 106.797 17.5551V25.0098H102.37V0.0443155H106.797V10.9637Z" fill="#100F0D"></path>
    <path d="M126.521 10.4057C127.628 7.87438 128.701 6.42451 133.163 6.42451V10.9319C128.009 10.585 126.521 12.4232 126.521 17.0691V25.0098H122.094V6.70204H126.521V10.4057Z" fill="#100F0D"></path>
    <path d="M135.431 6.70191H139.858V25.0098H135.431V6.70191ZM135.431 0.0445816H139.858V4.48284H135.431V0.0445816Z" fill="#100F0D"></path>
    <path d="M146.487 18.8378C146.521 20.1901 147.317 21.8197 150.533 21.8197C153.369 21.8197 154.303 20.8488 154.303 19.6353C154.303 18.283 152.505 18.075 149.011 17.6588C143.408 16.9654 142.681 14.0528 142.681 12.007C142.681 9.02513 145.311 6.42446 150.499 6.42446C155.306 6.42446 157.934 8.99044 158.177 12.3191H153.819C153.715 11.1748 152.954 9.89189 150.394 9.89189C147.87 9.89189 147.108 10.7241 147.108 11.7643C147.108 12.6312 147.489 13.3593 151.052 13.7061C155.513 14.1568 158.73 15.6131 158.73 19.2885C158.73 23.1027 155.79 25.2871 150.394 25.2871C145.102 25.2871 142.301 22.756 142.128 18.8378H146.487Z" fill="#100F0D"></path>
    <path d="M173.513 13.9141C173.341 11.6949 172.027 10.0307 169.467 10.0307C166.458 10.0307 165.177 11.7296 164.728 13.9141H173.513ZM177.837 16.9654H164.556C164.867 19.7392 166.665 21.4036 169.432 21.4036C171.542 21.4036 172.614 20.2595 173.133 18.6298H177.63C176.835 22.4092 174.274 25.2871 169.398 25.2871C163.483 25.2871 160.232 21.2997 160.232 15.8558C160.232 10.1346 163.76 6.42446 169.329 6.42446C173.548 6.42446 177.94 8.95575 177.94 15.6131C177.94 16.0986 177.906 16.4453 177.837 16.9654Z" fill="#100F0D"></path>
    <path d="M90.1347 20.4323C87.0218 20.4323 85.5687 18.144 85.5687 15.4395C85.5687 12.7345 87.0218 10.4462 90.1347 10.4462C93.0402 10.4462 94.9768 12.7345 94.9768 15.4395C94.9768 18.144 93.0402 20.4323 90.1347 20.4323ZM94.9768 23.2468C94.9751 26.6058 93.419 28.3379 90.3073 28.3379C87.3678 28.3379 86.2607 27.09 86.0535 25.4256H81.6949C82.0063 28.8584 84.635 31.9443 90.377 31.9443C95.9219 31.9443 99.3331 28.9896 99.4029 23.2468C99.4034 23.1873 99.4039 23.1276 99.4039 23.0675V6.70175H94.9768V9.93419C93.8963 7.97072 91.9331 6.42422 89.0972 6.42422C84.3586 6.42422 81.1416 10.5154 81.1416 15.4395C81.1416 20.3631 84.3586 24.4544 89.0972 24.4544C91.864 24.4544 93.8733 22.937 94.9768 20.8853V23.2468Z" fill="#100F0D"></path>
  </g>
  <defs>
    <clipPath id="clip0_402_14">
      <rect width="178" height="32" fill="white"></rect>
    </clipPath>
  </defs>
</svg>
