<svg width="215" height="34" viewBox="0 0 215 34" fill="none" xmlns="http://www.w3.org/2000/svg">
<g clip-path="url(#clip0_3744_5677)">
<path d="M26.4173 9.26461H27.5973L30.9601 5.92023L31.1253 4.50033C29.1989 2.80931 26.8707 1.63462 24.3609 1.08722C21.851 0.53982 19.2422 0.637785 16.781 1.37186C14.3197 2.10594 12.0873 3.45189 10.2946 5.28258C8.50182 7.11326 7.20794 9.36824 6.53516 11.8345C6.90979 11.6818 7.3248 11.657 7.71511 11.7641L14.4408 10.661C14.4408 10.661 14.783 10.0978 14.96 10.133C16.4011 8.55896 18.3927 7.5923 20.527 7.43086C22.6614 7.26943 24.777 7.92544 26.4409 9.26461H26.4173Z" fill="#EA4335"/>
<path d="M35.7483 11.8303C34.9753 8.99942 33.3883 6.45453 31.1819 4.50781L26.4621 9.20168C27.4457 10.001 28.234 11.012 28.7675 12.1585C29.301 13.305 29.5657 14.557 29.5417 15.82V16.6532C30.0934 16.6532 30.6396 16.7613 31.1493 16.9712C31.6589 17.1811 32.122 17.4889 32.512 17.8768C32.9021 18.2647 33.2115 18.7252 33.4226 19.2321C33.6337 19.7389 33.7424 20.2821 33.7424 20.8307C33.7424 21.3794 33.6337 21.9226 33.4226 22.4294C33.2115 22.9363 32.9021 23.3968 32.512 23.7847C32.122 24.1726 31.6589 24.4804 31.1493 24.6903C30.6396 24.9002 30.0934 25.0083 29.5417 25.0083H21.1405L20.3027 25.8532V30.8639L21.1405 31.6971H29.5417C31.8878 31.7152 34.1774 30.9819 36.0718 29.6057C37.9663 28.2294 39.3651 26.2833 40.0612 24.0551C40.7572 21.827 40.7137 19.4352 39.937 17.2336C39.1603 15.032 37.6916 13.1374 35.7483 11.8303Z" fill="#4285F4"/>
<path d="M12.7307 31.6541H21.1319V24.9654H12.7307C12.1321 24.9652 11.5406 24.8372 10.9962 24.5898L9.81621 24.9536L6.42975 28.298L6.13477 29.4715C8.03382 30.8976 10.3511 31.6644 12.7307 31.6541Z" fill="#34A853"/>
<path d="M12.7341 9.9571C10.4578 9.97062 8.24254 10.6909 6.39778 12.0172C4.55302 13.3436 3.17088 15.2099 2.4444 17.3554C1.71793 19.5009 1.68339 21.8184 2.34562 23.9844C3.00785 26.1503 4.33377 28.0565 6.1382 29.4367L11.0114 24.5902C10.3921 24.312 9.84996 23.8885 9.43144 23.356C9.01293 22.8236 8.73055 22.1981 8.60854 21.5333C8.48653 20.8684 8.52853 20.1841 8.73093 19.5389C8.93333 18.8938 9.2901 18.3071 9.77061 17.8292C10.2511 17.3514 10.8411 16.9966 11.4898 16.7953C12.1385 16.594 12.8266 16.5522 13.4951 16.6736C14.1636 16.7949 14.7925 17.0757 15.3279 17.4919C15.8633 17.9082 16.2892 18.4473 16.569 19.0632L21.4422 14.2168C20.4193 12.887 19.101 11.8105 17.5904 11.0715C16.0797 10.3325 14.4176 9.95113 12.7341 9.9571Z" fill="#FBBC05"/>
<path d="M62.9241 26.9796C61.4777 26.9979 60.0424 26.7257 58.7042 26.1793C57.3661 25.6329 56.1526 24.8234 55.1365 23.7995C54.0883 22.8191 53.2566 21.6326 52.6939 20.3155C52.1313 18.9985 51.85 17.5794 51.868 16.1485C51.8507 14.7177 52.1323 13.2989 52.6949 11.9819C53.2575 10.6649 54.0889 9.47842 55.1365 8.49751C56.1476 7.46298 57.3589 6.6427 58.6973 6.08608C60.0357 5.52947 61.4735 5.24803 62.9241 5.25873C64.3064 5.24041 65.6785 5.49552 66.9607 6.00922C68.243 6.52292 69.4097 7.28497 70.3932 8.25108L68.2929 10.3751C66.8546 8.99265 64.9242 8.23317 62.9241 8.26281C61.8866 8.25014 60.8578 8.45224 59.9031 8.85628C58.9484 9.26032 58.0886 9.85746 57.3784 10.6097C56.6403 11.338 56.058 12.2072 55.6666 13.1652C55.2753 14.1231 55.0829 15.1499 55.1011 16.1837C55.0924 17.2058 55.2894 18.2192 55.6805 19.1644C56.0716 20.1095 56.6489 20.9673 57.3784 21.6873C58.8396 23.1355 60.8114 23.9593 62.8742 23.9834C64.9369 24.0075 66.9277 23.23 68.4227 21.8164C69.3483 20.8083 69.9161 19.5264 70.0392 18.1669H62.9595V15.1628H72.9773C73.0758 15.7678 73.1153 16.3809 73.0953 16.9934C73.1576 18.2612 72.9607 19.5285 72.5166 20.7185C72.0724 21.9085 71.3902 22.9965 70.5112 23.9169C69.5339 24.9288 68.3531 25.7246 67.0459 26.2523C65.7386 26.78 64.3342 27.0278 62.9241 26.9796ZM86.2164 24.9847C84.8719 26.2664 83.0816 26.9819 81.2193 26.9819C79.3569 26.9819 77.5666 26.2664 76.2222 24.9847C75.553 24.3395 75.026 23.563 74.6746 22.7044C74.3232 21.8459 74.1551 20.9241 74.1809 19.9975C74.1558 19.071 74.3243 18.1494 74.6756 17.291C75.027 16.4325 75.5536 15.6559 76.2222 15.0103C77.568 13.7313 79.3578 13.0176 81.2193 13.0176C83.0807 13.0176 84.8706 13.7313 86.2164 15.0103C86.885 15.6559 87.4116 16.4325 87.7629 17.291C88.1143 18.1494 88.2828 19.071 88.2577 19.9975C88.282 20.9249 88.112 21.8473 87.7585 22.7058C87.4051 23.5644 86.8759 24.3405 86.2046 24.9847H86.2164ZM78.4287 23.025C78.7863 23.4048 79.2185 23.7076 79.6985 23.9146C80.1785 24.1215 80.6961 24.2283 81.2193 24.2283C81.7425 24.2283 82.2601 24.1215 82.7401 23.9146C83.2201 23.7076 83.6523 23.4048 84.0099 23.025C84.3998 22.6243 84.7051 22.1499 84.9077 21.6299C85.1104 21.11 85.2063 20.5549 85.1898 19.9975C85.2072 19.4382 85.1118 18.8811 84.9091 18.3591C84.7064 17.8371 84.4007 17.3608 84.0099 16.9582C83.6475 16.5823 83.2125 16.2832 82.7309 16.0788C82.2493 15.8745 81.7311 15.7692 81.2075 15.7692C80.6839 15.7692 80.1657 15.8745 79.6841 16.0788C79.2025 16.2832 78.7674 16.5823 78.4051 16.9582C78.0143 17.3608 77.7085 17.8371 77.5059 18.3591C77.3032 18.8811 77.2078 19.4382 77.2252 19.9975C77.2102 20.5557 77.308 21.1113 77.5127 21.6313C77.7174 22.1513 78.0249 22.6252 78.4169 23.025H78.4287ZM101.579 24.9847C100.235 26.2664 98.4446 26.9819 96.5822 26.9819C94.7199 26.9819 92.9296 26.2664 91.5852 24.9847C90.916 24.3395 90.389 23.563 90.0376 22.7044C89.6862 21.8459 89.518 20.9241 89.5438 19.9975C89.5188 19.071 89.6872 18.1494 90.0386 17.291C90.39 16.4325 90.9166 15.6559 91.5852 15.0103C92.9296 13.7286 94.7199 13.0131 96.5822 13.0131C98.4446 13.0131 100.235 13.7286 101.579 15.0103C102.248 15.6559 102.775 16.4325 103.126 17.291C103.477 18.1494 103.646 19.071 103.621 19.9975C103.646 20.9241 103.478 21.8459 103.127 22.7044C102.775 23.563 102.248 24.3395 101.579 24.9847ZM93.7917 23.025C94.1493 23.4048 94.5814 23.7076 95.0614 23.9146C95.5414 24.1215 96.0591 24.2283 96.5822 24.2283C97.1054 24.2283 97.623 24.1215 98.103 23.9146C98.583 23.7076 99.0152 23.4048 99.3728 23.025C99.7627 22.6243 100.068 22.1499 100.271 21.6299C100.473 21.11 100.569 20.5549 100.553 19.9975C100.57 19.4382 100.475 18.8811 100.272 18.3591C100.069 17.8371 99.7636 17.3608 99.3728 16.9582C99.0105 16.5823 98.5754 16.2832 98.0938 16.0788C97.6122 15.8745 97.094 15.7692 96.5704 15.7692C96.0468 15.7692 95.5287 15.8745 95.0471 16.0788C94.5655 16.2832 94.1304 16.5823 93.7681 16.9582C93.3772 17.3608 93.0715 17.8371 92.8688 18.3591C92.6662 18.8811 92.5707 19.4382 92.5881 19.9975C92.5732 20.5557 92.671 21.1113 92.8757 21.6313C93.0804 22.1513 93.3878 22.6252 93.7799 23.025H93.7917ZM111.68 33.2459C110.265 33.2907 108.879 32.8516 107.75 32.0021C106.749 31.2533 105.96 30.2585 105.461 29.1153L108.152 28.0005C108.444 28.6837 108.902 29.2844 109.485 29.749C110.109 30.2489 110.891 30.511 111.692 30.4883C112.199 30.519 112.708 30.4406 113.182 30.2583C113.656 30.0761 114.086 29.7943 114.441 29.4322C115.152 28.5794 115.503 27.4858 115.42 26.3812V25.372H115.314C114.864 25.9031 114.296 26.3228 113.655 26.5977C113.014 26.8727 112.318 26.9954 111.621 26.9562C110.735 26.9588 109.858 26.7787 109.046 26.4273C108.233 26.0759 107.503 25.5607 106.901 24.9143C106.248 24.2731 105.732 23.5067 105.385 22.6616C105.038 21.8165 104.868 20.9102 104.883 19.9975C104.867 19.0795 105.037 18.1677 105.384 17.3167C105.731 16.4658 106.247 15.6932 106.901 15.0455C107.501 14.3964 108.231 13.8787 109.044 13.5251C109.856 13.1716 110.734 12.99 111.621 12.9919C112.371 12.9906 113.113 13.1549 113.792 13.473C114.379 13.7281 114.903 14.1087 115.326 14.5878H115.432V13.473H118.358V25.9704C118.435 26.9591 118.309 27.9529 117.986 28.8912C117.663 29.8294 117.152 30.6923 116.482 31.4271C115.844 32.0338 115.091 32.5074 114.266 32.8198C113.441 33.1322 112.562 33.2771 111.68 33.2459ZM111.892 24.2337C112.396 24.2447 112.896 24.1453 113.357 23.9425C113.818 23.7397 114.228 23.4385 114.559 23.0602C115.287 22.2305 115.671 21.1567 115.633 20.0562C115.676 18.937 115.293 17.8429 114.559 16.9934C114.229 16.6145 113.818 16.3129 113.357 16.11C112.896 15.9072 112.396 15.8081 111.892 15.8199C111.374 15.8094 110.861 15.9086 110.384 16.1109C109.908 16.3132 109.481 16.6141 109.131 16.9934C108.35 17.8124 107.926 18.9046 107.951 20.0327C107.939 20.586 108.037 21.1363 108.24 21.6518C108.442 22.1674 108.745 22.638 109.131 23.0368C109.479 23.4198 109.906 23.7246 110.382 23.931C110.858 24.1374 111.373 24.2406 111.892 24.2337ZM123.562 6.04496V26.5572H120.482V6.04496H123.562ZM132.01 26.9796C131.088 27.0032 130.171 26.8371 129.316 26.4919C128.461 26.1466 127.687 25.6295 127.043 24.973C126.389 24.3213 125.875 23.5442 125.532 22.6889C125.189 21.8336 125.025 20.9179 125.049 19.9975C125.014 19.0748 125.166 18.1546 125.496 17.2917C125.827 16.4288 126.329 15.6409 126.972 14.975C127.578 14.3396 128.311 13.837 129.124 13.4995C129.936 13.1621 130.811 12.9972 131.692 13.0154C132.501 13.0069 133.304 13.1626 134.052 13.473C134.725 13.7432 135.338 14.1418 135.857 14.6465C136.303 15.0743 136.698 15.5506 137.037 16.0664C137.311 16.5019 137.544 16.9614 137.733 17.4393L138.052 18.2373L128.612 22.098C128.897 22.7503 129.375 23.3013 129.982 23.6784C130.588 24.0555 131.296 24.2409 132.01 24.2102C132.706 24.2121 133.39 24.0347 133.996 23.6954C134.601 23.3561 135.109 22.8663 135.468 22.274L137.827 23.8582C137.225 24.7151 136.454 25.4416 135.562 25.9939C134.5 26.6609 133.266 27.0036 132.01 26.9796ZM128.069 19.7863L134.347 17.1929C134.153 16.7356 133.807 16.3585 133.367 16.125C132.874 15.8483 132.317 15.7066 131.751 15.7143C130.79 15.7391 129.879 16.1397 129.214 16.8291C128.816 17.2078 128.507 17.6693 128.309 18.1804C128.111 18.6916 128.029 19.24 128.069 19.7863Z" fill="#5F6368"/>
<path d="M154.184 26.9803C152.874 27.0028 151.573 26.7619 150.359 26.272C149.146 25.782 148.044 25.0532 147.12 24.1293C146.197 23.2054 145.471 22.1054 144.985 20.8955C144.5 19.6855 144.265 18.3904 144.296 17.088C144.265 15.7856 144.5 14.4906 144.985 13.2806C145.471 12.0706 146.197 10.9706 147.12 10.0467C148.044 9.12279 149.146 8.394 150.359 7.90408C151.573 7.41415 152.874 7.1732 154.184 7.19568C155.509 7.15446 156.827 7.41169 158.039 7.94813C159.25 8.48458 160.324 9.28638 161.181 10.2936L159.482 11.9365C158.853 11.1501 158.047 10.5224 157.128 10.1044C156.209 9.68643 155.205 9.48992 154.195 9.53088C153.224 9.50911 152.258 9.68293 151.355 10.0419C150.453 10.4008 149.633 10.9375 148.945 11.6197C148.229 12.3355 147.67 13.1908 147.302 14.1318C146.934 15.0729 146.767 16.0794 146.809 17.088C146.767 18.0967 146.934 19.1031 147.302 20.0442C147.67 20.9852 148.229 21.8405 148.945 22.5564C149.633 23.2385 150.453 23.7752 151.355 24.1342C152.258 24.4931 153.224 24.6669 154.195 24.6451C155.323 24.6577 156.439 24.4174 157.46 23.942C158.482 23.4666 159.382 22.7684 160.095 21.8992L161.794 23.589C160.905 24.647 159.788 25.4931 158.526 26.065C157.166 26.6896 155.682 27.0024 154.184 26.9803Z" fill="#5F6368"/>
<path d="M166.36 26.557H163.918V7.60547H166.36V26.557Z" fill="#5F6368"/>
<path d="M170.346 15.1532C171.626 13.8891 173.357 13.1797 175.16 13.1797C176.964 13.1797 178.695 13.8891 179.975 15.1532C180.6 15.8103 181.089 16.5841 181.413 17.4299C181.737 18.2758 181.89 19.177 181.862 20.0817C181.89 20.9865 181.737 21.8877 181.413 22.7335C181.089 23.5794 180.6 24.3531 179.975 25.0103C178.695 26.2744 176.964 26.9838 175.16 26.9838C173.357 26.9838 171.626 26.2744 170.346 25.0103C169.72 24.3531 169.231 23.5794 168.907 22.7335C168.583 21.8877 168.431 20.9865 168.458 20.0817C168.431 19.177 168.583 18.2758 168.907 17.4299C169.231 16.5841 169.72 15.8103 170.346 15.1532ZM172.163 23.4848C172.548 23.8893 173.012 24.2114 173.526 24.4316C174.04 24.6518 174.595 24.7654 175.154 24.7654C175.714 24.7654 176.268 24.6518 176.783 24.4316C177.297 24.2114 177.761 23.8893 178.146 23.4848C178.573 23.0292 178.904 22.4937 179.121 21.9094C179.338 21.3252 179.435 20.7039 179.408 20.0817C179.435 19.4596 179.338 18.8383 179.121 18.254C178.904 17.6698 178.573 17.1343 178.146 16.6787C177.761 16.2742 177.297 15.952 176.783 15.7318C176.268 15.5117 175.714 15.3981 175.154 15.3981C174.595 15.3981 174.04 15.5117 173.526 15.7318C173.012 15.952 172.548 16.2742 172.163 16.6787C171.736 17.1343 171.405 17.6698 171.188 18.254C170.971 18.8383 170.874 19.4596 170.901 20.0817C170.877 20.7028 170.977 21.3223 171.196 21.9045C171.415 22.4867 171.748 23.0198 172.175 23.4731L172.163 23.4848Z" fill="#5F6368"/>
<path d="M195.401 26.5566H193.041V24.7612H192.97C192.55 25.4432 191.955 26.002 191.247 26.3806C190.512 26.8042 189.678 27.0269 188.828 27.026C188.139 27.073 187.447 26.9643 186.806 26.7083C186.164 26.4523 185.589 26.0555 185.123 25.5475C184.229 24.4231 183.78 23.0122 183.861 21.5811V13.6016H186.303V21.1352C186.303 23.5526 187.377 24.7612 189.525 24.7612C190.002 24.776 190.475 24.6773 190.906 24.4732C191.337 24.269 191.713 23.9655 192.002 23.5878C192.635 22.7899 192.973 21.7995 192.958 20.7832V13.6016H195.401V26.5566Z" fill="#5F6368"/>
<path d="M203.693 26.9794C202.865 26.9822 202.046 26.8063 201.292 26.4639C200.538 26.1216 199.868 25.6209 199.328 24.9963C198.104 23.6526 197.449 21.8914 197.499 20.0794C197.449 18.2675 198.104 16.5063 199.328 15.1626C199.868 14.538 200.538 14.0373 201.292 13.6949C202.046 13.3526 202.865 13.1767 203.693 13.1794C204.622 13.1649 205.539 13.3828 206.36 13.8131C207.082 14.1743 207.693 14.7214 208.13 15.3973H208.236L208.13 13.6019V7.60547H210.573V26.557H208.213V24.7616H208.106C207.67 25.4375 207.058 25.9845 206.337 26.3457C205.522 26.7723 204.614 26.9901 203.693 26.9794ZM204.095 24.7616C204.647 24.7696 205.194 24.6607 205.701 24.4422C206.207 24.2237 206.661 23.9006 207.033 23.4942C207.862 22.5547 208.286 21.3277 208.213 20.0794C208.286 18.8311 207.862 17.6042 207.033 16.6646C206.659 16.2561 206.203 15.9297 205.695 15.7064C205.188 15.483 204.638 15.3676 204.083 15.3676C203.527 15.3676 202.978 15.483 202.47 15.7064C201.962 15.9297 201.507 16.2561 201.133 16.6646C200.721 17.1268 200.404 17.6652 200.202 18.2492C199.999 18.8332 199.915 19.4512 199.953 20.0677C199.915 20.6842 199.999 21.3022 200.202 21.8862C200.404 22.4702 200.721 23.0086 201.133 23.4708C201.505 23.8844 201.962 24.2137 202.473 24.4364C202.984 24.6591 203.537 24.77 204.095 24.7616Z" fill="#5F6368"/>
</g>
<defs>
<clipPath id="clip0_3744_5677">
<rect width="213.571" height="32.8571" fill="white" transform="translate(0.634766 0.570312)"/>
</clipPath>
</defs>
</svg>
