<svg width="147" height="28" viewBox="0 0 147 28" fill="none" xmlns="http://www.w3.org/2000/svg">
<g clip-path="url(#clip0_3744_5688)">
<path d="M90.0289 5.27753V23.8243H95.1813V5.27753H90.0289ZM49.4902 5.24609V23.8086H54.6891V9.39554L58.7429 9.41125C60.0736 9.41125 61.002 9.74132 61.6364 10.4329C62.4564 11.3131 62.7813 12.7434 62.7813 15.3368V23.8086H67.8255V13.5607C67.8255 6.2363 63.23 5.24609 58.7429 5.24609H49.4902ZM98.3378 5.27753V23.8243H106.693C111.149 23.8243 112.604 23.0698 114.166 21.3881C115.28 20.2092 115.992 17.6001 115.992 14.7552C115.992 12.1461 115.389 9.81991 114.321 8.37389C112.433 5.78049 109.679 5.27753 105.564 5.27753H98.3378ZM103.444 9.30123H105.656C108.875 9.30123 110.948 10.763 110.948 14.5666C110.948 18.3703 108.875 19.8477 105.656 19.8477H103.444V9.30123ZM82.602 5.27753L78.3005 19.9735L74.1848 5.27753H68.6146L74.4942 23.8243H81.9211L87.8627 5.27753H82.602ZM118.406 23.8243H123.558V5.27753H118.406V23.8243ZM132.857 5.27753L125.663 23.8086H130.738L131.883 20.5236H140.393L141.476 23.7929H147L139.743 5.27753H132.857ZM136.2 8.65681L139.325 17.3329H132.981L136.2 8.65681Z" fill="black"/>
<path d="M16.2403 8.35431V5.80807C16.4879 5.79235 16.7354 5.77663 16.983 5.77663C23.8529 5.55658 28.3555 11.7807 28.3555 11.7807C28.3555 11.7807 23.497 18.6336 18.2827 18.6336C17.5864 18.6336 16.9056 18.5236 16.2558 18.3035V10.5705C18.9326 10.9006 19.4741 12.0951 21.0678 14.8142L24.642 11.765C24.642 11.765 22.0271 8.29144 17.6329 8.29144C17.1687 8.27573 16.7045 8.30716 16.2403 8.35431ZM16.2403 -0.0703125V3.73334L16.983 3.68619C26.5297 3.35612 32.7652 11.6393 32.7652 11.6393C32.7652 11.6393 25.6168 20.4726 18.1744 20.4726C17.5246 20.4726 16.8902 20.4097 16.2558 20.2997V22.6573C16.7819 22.7202 17.3234 22.7673 17.8495 22.7673C24.7813 22.7673 29.7945 19.168 34.6529 14.9243C35.4575 15.5844 38.7532 17.1719 39.434 17.8635C34.8231 21.7929 24.0695 24.9521 17.9733 24.9521C17.3853 24.9521 16.8283 24.9207 16.2713 24.8578V28.1742H42.6059V-0.0703125H16.2403ZM16.2403 18.3035V20.3154C9.83459 19.1523 8.05522 12.378 8.05522 12.378C8.05522 12.378 11.1343 8.92015 16.2403 8.35431V10.5548H16.2248C13.5481 10.2247 11.4438 12.771 11.4438 12.771C11.4438 12.771 12.6352 17.0619 16.2403 18.3035ZM4.86784 12.0951C4.86784 12.0951 8.65866 6.40533 16.2558 5.80807V3.73334C7.83861 4.42492 0.566406 11.655 0.566406 11.655C0.566406 11.655 4.68216 23.7575 16.2403 24.8578V22.6573C7.76124 21.5885 4.86784 12.0951 4.86784 12.0951Z" fill="#76B900"/>
</g>
<defs>
<clipPath id="clip0_3744_5688">
<rect width="146.434" height="27.804" fill="white" transform="translate(0.566406 0.0976562)"/>
</clipPath>
</defs>
</svg>
