<svg width="116" height="34" viewBox="0 0 116 34" fill="none" xmlns="http://www.w3.org/2000/svg">
<g clip-path="url(#clip0_3744_5633)">
<path d="M36.1152 16.3792C36.1152 21.6245 39.4179 25.2818 43.9945 25.2818C48.5711 25.2818 51.8737 21.6245 51.8737 16.3792C51.8737 11.1339 48.5711 7.47656 43.9945 7.47656C39.4179 7.47656 36.1152 11.1339 36.1152 16.3792ZM48.8541 16.3792C48.8541 20.1327 46.8489 22.5629 43.9945 22.5629C41.14 22.5629 39.1348 20.1327 39.1348 16.3792C39.1348 12.6256 41.14 10.1955 43.9945 10.1955C46.8489 10.1955 48.8541 12.6256 48.8541 16.3792Z" fill="black"/>
<path d="M60.3794 25.2897C63.8472 25.2897 65.8288 22.3061 65.8288 18.721C65.8288 15.1359 63.8472 12.1523 60.3794 12.1523C58.7752 12.1523 57.5957 12.802 56.8172 13.7404V12.393H53.9863V29.3561H56.8172V23.7017C57.5957 24.6401 58.7752 25.2897 60.3794 25.2897ZM56.7464 18.3601C56.7464 15.9781 58.0675 14.6788 59.8132 14.6788C61.8656 14.6788 62.9743 16.3149 62.9743 18.721C62.9743 21.1271 61.8656 22.7633 59.8132 22.7633C58.0675 22.7633 56.7464 21.4399 56.7464 19.106V18.3601Z" fill="black"/>
<path d="M73.4863 25.2897C75.9633 25.2897 77.9213 23.9664 78.7942 21.7527L76.3643 20.8144C75.9869 22.1137 74.8781 22.8355 73.4863 22.8355C71.6698 22.8355 70.3959 21.5121 70.1836 19.3466H78.8649V18.3842C78.8649 14.9194 76.9541 12.1523 73.3683 12.1523C69.7826 12.1523 67.4707 15.0156 67.4707 18.721C67.4707 22.6189 69.9477 25.2897 73.4863 25.2897ZM73.3448 14.5825C75.1376 14.5825 75.9869 15.7856 76.0105 17.1811H70.3252C70.7498 15.4728 71.8821 14.5825 73.3448 14.5825Z" fill="black"/>
<path d="M80.9883 25.025H83.8192V17.6142C83.8192 15.8096 85.1166 14.8472 86.3905 14.8472C87.9475 14.8472 88.5609 15.9781 88.5609 17.542V25.025H91.3917V16.6999C91.3917 13.981 89.8348 12.1523 87.2398 12.1523C85.6356 12.1523 84.5269 12.8982 83.8192 13.7404V12.393H80.9883V25.025Z" fill="black"/>
<path d="M99.6862 7.74609L93.2695 25.022H96.2655L97.7046 21.076H105.018L106.48 25.022H109.523L103.107 7.74609H99.6862ZM101.338 11.1628L104.027 18.3811H98.6954L101.338 11.1628Z" fill="black"/>
<path d="M114.385 7.79688H111.365V25.0728H114.385V7.79688Z" fill="black"/>
<path d="M29.1969 14.0914C29.9105 11.9069 29.6648 9.51382 28.5236 7.52677C26.8074 4.47902 23.3573 2.91104 19.9877 3.64891C18.4888 1.92654 16.3351 0.947051 14.0773 0.961086C10.6331 0.953066 7.57714 3.21481 6.51753 6.5573C4.30493 7.01948 2.39508 8.43207 1.27747 10.4342C-0.451519 13.4739 -0.0573599 17.3056 2.25255 19.9122C1.53894 22.0968 1.78467 24.4899 2.92586 26.4769C4.64208 29.5247 8.0922 31.0926 11.4617 30.3548C12.9597 32.0771 15.1143 33.0566 17.3721 33.0416C20.8183 33.0506 23.8753 30.7869 24.9349 27.4414C27.1475 26.9792 29.0573 25.5666 30.1749 23.5645C31.902 20.5248 31.5068 16.6961 29.1979 14.0894L29.1969 14.0914ZM17.3741 30.9453C15.995 30.9473 14.6592 30.455 13.6006 29.5537C13.6488 29.5277 13.7323 29.4805 13.7864 29.4465L20.0497 25.7571C20.3701 25.5716 20.5667 25.2237 20.5647 24.8478V15.8419L23.2118 17.4009C23.2403 17.4149 23.259 17.443 23.2629 17.475V24.933C23.259 28.2494 20.6257 30.9382 17.3741 30.9453ZM4.7099 25.4282C4.01889 24.2112 3.77021 22.7845 4.0071 21.4C4.0533 21.4281 4.13488 21.4792 4.19287 21.5133L10.4562 25.2027C10.7737 25.3922 11.1668 25.3922 11.4853 25.2027L19.1316 20.6992V23.8172C19.1336 23.8492 19.1188 23.8803 19.0943 23.9004L12.7631 27.6288C9.94308 29.285 6.34158 28.3005 4.71088 25.4282H4.7099ZM3.06151 11.4838C3.74957 10.2647 4.83572 9.33235 6.12927 8.84812C6.12927 8.90326 6.12632 9.00051 6.12632 9.06869V16.4484C6.12435 16.8234 6.32094 17.1713 6.6404 17.3567L14.2867 21.8592L11.6396 23.4181C11.6131 23.4362 11.5797 23.4392 11.5502 23.4262L5.21808 19.6947C2.40392 18.0325 1.43868 14.3601 3.06053 11.4848L3.06151 11.4838ZM24.8101 16.6459L17.1638 12.1425L19.8108 10.5845C19.8374 10.5665 19.8708 10.5635 19.9003 10.5765L26.2324 14.305C29.0514 15.9662 30.0177 19.6446 28.3889 22.5199C27.6999 23.7369 26.6147 24.6693 25.3222 25.1546V17.5542C25.3251 17.1793 25.1295 16.8324 24.811 16.6459H24.8101ZM27.4443 12.6017C27.3981 12.5726 27.3166 12.5225 27.2586 12.4884L20.9953 8.799C20.6778 8.60952 20.2846 8.60952 19.9661 8.799L12.3198 13.3024V10.1845C12.3179 10.1524 12.3326 10.1214 12.3572 10.1013L18.6883 6.37584C21.5084 4.71663 25.1138 5.70414 26.7396 8.58145C27.4266 9.79653 27.6753 11.2191 27.4424 12.6017H27.4443ZM10.8808 18.1588L8.23276 16.5998C8.20425 16.5858 8.18558 16.5577 8.18165 16.5256V9.06768C8.18361 5.74725 10.8248 3.05641 14.0803 3.05841C15.4574 3.05841 16.7902 3.55167 17.8489 4.44995C17.8007 4.47602 17.7181 4.52314 17.6631 4.55722L11.3998 8.2466C11.0794 8.43207 10.8828 8.77895 10.8847 9.1549L10.8808 18.1568V18.1588ZM12.3188 14.9967L15.7247 12.9906L19.1306 14.9957V19.0069L15.7247 21.012L12.3188 19.0069V14.9967Z" fill="black"/>
</g>
<defs>
<clipPath id="clip0_3744_5633">
<rect width="115.987" height="32.0815" fill="white" transform="translate(0 0.960938)"/>
</clipPath>
</defs>
</svg>
