<?xml version="1.0" encoding="UTF-8"?>
<svg xmlns="http://www.w3.org/2000/svg" width="124" height="40" viewBox="0 0 124 40" fill="none">
  <g clip-path="url(#clip0_7500_18449)">
    <path d="M19.3789 5.04939C19.3789 5.04939 21.1886 5.90506 24.8916 5.90506H46.9865C46.9865 5.90506 49.2633 6.00833 50.4534 7.95571C51.6435 9.89818 50.3993 12.1701 50.2469 12.4848C50.0895 12.7947 49.7305 13.9601 50.4288 14.1421C51.1271 14.324 51.3337 14.1618 51.5943 13.7634C51.85 13.3651 59.2068 2.90039 59.3543 2.71844C59.5018 2.53649 59.7625 1.50378 58.5527 0.00390625C58.5527 0.00390625 60.3624 0.933338 62.0738 0.933338H69.4207C69.4207 0.933338 72.8335 0.795645 72.4991 4.19373C72.3172 5.90014 71.4664 10.7883 71.4664 10.7883C71.4664 10.7883 71.1566 9.85884 69.4994 9.85884C69.4994 9.85884 69.2142 11.0341 69.2928 11.9341C69.3715 12.834 70.0698 14.206 71.6976 14.206C73.3253 14.206 73.4827 13.0209 73.4827 12.8389V9.62771C73.4827 9.23921 74.0285 5.97883 77.284 5.97883H99.8362C99.8362 5.97883 103.662 5.76245 105.01 5.10841C105.01 5.10841 103.942 9.00809 99.5609 9.00809H77.584C77.584 9.00809 76.7578 9.04251 76.7578 9.83425V13.1782C76.7578 13.6454 76.0349 17.3877 71.6189 17.3877C67.2029 17.3877 65.9243 13.1389 65.9243 11.9341C65.9243 10.7293 66.5095 7.09021 66.598 6.96727C66.6816 6.84433 67.8028 6.48534 68.9437 7.09021C68.9437 7.09021 69.2338 5.65918 69.1699 4.8281C69.106 3.99702 68.3241 3.81999 67.9798 3.81999H62.5164L54.2695 15.4256C54.2695 15.4256 53.0401 17.3779 50.719 17.3779C48.3978 17.3779 46.6816 15.3076 46.6816 13.4635C46.6472 12.9471 47.1291 11.3243 47.6651 10.1096C47.6651 9.85884 47.8225 9.01792 46.8881 9.01792H25.1325C25.1325 9.01792 20.923 9.15561 19.3789 5.04939Z" fill="#303245"></path>
    <path d="M63.5844 4.67188H66.417C66.417 4.67188 66.4563 5.79801 65.7334 5.87669C65.0155 5.95046 63.5844 4.67188 63.5844 4.67188ZM8.52174 21.8196C7.95129 20.7525 7.02186 20.7673 7.02186 20.7673H5.41871L0.761719 31.9106H2.6255C3.19595 31.9106 3.60903 31.5615 3.88441 31.114C4.1598 30.6665 4.50403 29.3731 4.50403 29.3731H8.36929C8.76762 29.3731 8.98891 29.801 8.98891 29.801C8.98891 29.801 9.31839 30.632 9.47084 31.0107C10.1446 31.9942 10.8674 31.9057 10.8674 31.9057H12.7755C12.7804 31.9057 9.09218 22.8868 8.52174 21.8196ZM5.51707 26.9241L6.67763 23.8949L7.85294 26.9291L5.51707 26.9241ZM69.5987 21.8196C69.0283 20.7525 68.0988 20.7673 68.0988 20.7673H66.4957L61.8387 31.9106H63.7025C64.2729 31.9106 64.686 31.5615 64.9614 31.114C65.2368 30.6665 65.581 29.3731 65.581 29.3731H69.4463C69.8446 29.3731 70.0659 29.801 70.0659 29.801C70.0659 29.801 70.3954 30.632 70.5478 31.0107C71.2215 31.9942 71.9444 31.9057 71.9444 31.9057H73.8574C73.8574 31.9057 70.1691 22.8868 69.5987 21.8196ZM66.594 26.9241L67.7497 23.8949L68.925 26.9291L66.594 26.9241ZM15.8047 31.9106V25.0653C15.8047 25.0653 17.6439 30.5435 17.7866 30.8091C17.9292 31.0746 18.2882 31.9155 19.0996 31.9155H20.8601L23.1615 25.0653V30.7058C23.1615 31.0451 23.6287 31.9155 24.5286 31.9155H25.6646V22.4737C25.6646 22.2131 25.3892 20.7673 23.9238 20.7673H21.9567L19.4487 28.3748L17.3784 22.0262C17.3784 22.0262 16.9309 20.7673 15.8097 20.7673H13.2377V30.514C13.2377 30.814 13.6017 31.9155 14.6884 31.9155L15.8047 31.9106ZM29.9134 25.5177C29.9134 23.5703 31.2854 23.0589 31.8805 23.0589H35.6916V20.7624H32.0673C26.5301 20.7624 26.894 26.334 26.894 26.334C26.894 26.334 26.5301 31.9106 32.0673 31.9106H35.6916V29.6141H31.8805C31.3051 29.6141 29.9921 29.1322 29.9183 27.3176H34.1229C35.0622 27.3176 35.608 26.2111 35.608 25.7685V25.2817H31.5362C30.5232 25.2817 30.0659 26.1521 29.9134 26.5307V25.5177ZM45.0056 27.3225C45.0056 27.3225 46.9038 26.9782 46.9038 24.2883C46.9038 20.3542 42.9353 20.7673 42.9353 20.7673H37.28V31.9106H39.9897V27.77H41.4404C42.8222 27.77 43.7172 30.6173 44.3909 31.409C44.8729 32.0139 45.3745 31.9106 45.3745 31.9106H47.6169L45.0056 27.3225ZM43.0042 25.4095H41.76C41.76 25.4095 40.7273 25.3653 39.9847 26.6684V23.1966H42.7976C42.7976 23.1966 44.2286 23.0097 44.2286 24.3375C44.2286 25.5472 43.0042 25.4046 43.0042 25.4095ZM99.5766 27.3225C99.5766 27.3225 101.475 26.9782 101.475 24.2883C101.475 20.3542 97.5063 20.7673 97.5063 20.7673H91.851V31.9106H94.5606V27.77H96.0113C97.3882 27.77 98.2882 30.6173 98.9619 31.409C99.4438 32.0139 99.9454 31.9106 99.9454 31.9106H102.188L99.5766 27.3225ZM97.5751 25.4095H96.3359C96.3359 25.4095 95.3032 25.3653 94.5606 26.6684V23.1966H97.3735C97.3735 23.1966 98.8094 23.0097 98.8094 24.3375C98.8045 25.5472 97.5751 25.4046 97.5751 25.4095ZM50.0413 20.7574H48.6939V30.2386C48.6939 30.2386 48.8512 31.9205 50.2282 31.9205H51.5756V22.4393C51.5707 22.4393 51.4231 20.7574 50.0413 20.7574ZM88.6693 20.7574H87.3218V30.2386C87.3218 30.2386 87.4743 31.9205 88.8561 31.9205H90.1986V22.4393C90.2036 22.4393 90.0511 20.7574 88.6693 20.7574ZM58.0865 23.1917H61.4256V20.7574C61.4256 20.7574 59.8864 20.7673 57.7374 20.7673C52.7116 20.7673 52.982 26.1963 52.9919 26.3389C53.0017 26.4816 52.7116 31.9106 57.7374 31.9106C59.8864 31.9106 61.4256 31.9254 61.4256 31.9254V29.4911H58.0865C58.0865 29.4911 55.8883 29.6485 55.8883 26.3389C55.8883 23.0392 58.0865 23.1917 58.0865 23.1917ZM85.9793 20.7673V23.1917H82.0993C81.6764 23.1917 80.3437 23.3294 80.3437 26.5455C80.3437 26.5455 80.8748 25.2767 82.0501 25.2767H85.7629V25.7931C85.7629 25.7931 85.6843 27.3569 84.1254 27.3569H80.3437V31.9155H77.5997V24.9915C77.5997 24.9915 77.3538 20.7673 82.8812 20.7673H85.9793ZM109.422 25.2374H106.53C106.53 25.2374 105.271 25.321 105.271 24.3424C105.271 23.3589 106.029 23.1966 106.565 23.1966H109.446C109.446 23.1966 111.895 23.4277 111.895 21.8098V20.7624H106.083C105.773 20.7624 102.478 20.6738 102.478 24.2244C102.478 27.7749 105.483 27.588 105.67 27.588H108.605C108.787 27.588 109.628 27.5585 109.628 28.5814C109.628 29.6043 108.296 29.501 108.296 29.501H102.901V30.2878C102.901 31.8418 104.607 31.9254 104.607 31.9254H108.969C110.39 31.9254 112.382 31.5467 112.382 28.4388C112.382 25.1489 109.938 25.2374 109.422 25.2374ZM112.682 20.7574H121.77C121.77 20.7574 123.702 20.5902 123.702 23.1917H119.606V31.9205H118.559C118.559 31.9205 116.734 31.9795 116.734 29.978V23.1917H114.31C114.093 23.1917 112.682 23.3343 112.682 20.7574Z" fill="#303245"></path>
    <path d="M102.046 10.1172C102.046 10.1172 101.142 10.6335 99.6662 10.6335H78.7614C78.5647 10.6532 78.4123 10.8253 78.427 11.022C78.427 11.3859 78.5106 13.4563 78.368 13.7513H96.6272C96.6222 13.7562 100.65 13.9726 102.046 10.1172ZM27.8099 13.7464C27.8099 13.7464 23.7872 13.9726 22.3906 10.1172C22.3906 10.1172 23.2955 10.6335 24.7708 10.6335H45.1789C45.1789 10.6335 45.5035 10.609 45.5035 10.9974C45.5035 11.3859 44.9871 12.0301 44.9871 13.7513L27.8099 13.7464ZM30.5736 37.9608V37.3904C30.5736 36.6281 31.4145 36.5888 31.4145 36.5888H32.875V35.8266H31.6948C29.6441 35.8266 29.6146 37.5231 29.6146 37.5231V38.31C29.6146 38.31 29.6441 40.0065 31.6948 40.0065H32.875V39.2443H31.4145C31.4145 39.2443 30.5736 39.205 30.5736 38.4427V37.9608ZM38.5352 38.2608C38.5352 38.2608 39.3466 37.9854 39.3466 37.1543C39.3466 36.3232 38.8303 35.8216 38.1025 35.8216H35.8453V39.9967H36.6911V38.2755H37.7238L38.5696 39.9967H39.5728L38.5352 38.2608ZM37.8812 37.6215H36.6911V36.5986H37.9057C37.9057 36.5986 38.4762 36.5642 38.4762 37.1101C38.4762 37.651 37.8812 37.6215 37.8812 37.6215ZM43.8167 36.5986H45.1642V35.8167H43.5905C41.9038 35.8167 41.9038 37.9018 41.9038 37.9018C41.9038 37.9018 41.9038 39.9918 43.5905 39.9918H45.1642V39.2099H43.8167C43.6249 39.2099 42.9955 39.2787 42.8873 38.2411H45.1642V37.5281H42.8922C43.0102 36.5347 43.6249 36.5986 43.8167 36.5986ZM51.1833 38.01C51.1391 39.1902 50.3178 39.2099 50.3178 39.2099H49.1278V36.6134H50.3178C50.3178 36.6134 51.1391 36.633 51.1833 37.8133H51.9948C51.9948 35.743 50.1359 35.8266 50.1359 35.8266H48.2819V39.9967H50.1359C50.1359 39.9967 51.9948 40.0754 51.9948 38.01V37.8133H51.1833V38.01ZM54.4929 35.8216H55.3978V39.9967H54.4929V35.8216ZM81.0629 35.8216H81.9677V39.9967H81.0629V35.8216ZM61.6038 35.8216H58.1025V36.5888H59.4007V40.0016H60.3056V36.5888H61.6038V35.8216ZM71.7095 38.6149V35.8216H70.8145V38.5903C70.8145 39.3574 69.9195 39.3525 69.9195 39.3525C69.9195 39.3525 69.0294 39.3525 69.0294 38.5903V35.8216H68.1344V38.6149C68.1344 38.6149 68.0557 39.9967 69.9195 39.9967C71.7833 39.9967 71.7095 38.6149 71.7095 38.6149ZM77.2861 35.8216V38.5657L75.6731 35.8216H74.5716V39.9967H75.4764V37.0904L77.1583 39.9967H78.191V35.8216H77.2861ZM94.0257 35.8216V38.5657L92.4127 35.8216H91.3112V39.9967H92.216V37.0904L93.8979 39.9967H94.9306V35.8216H94.0257ZM86.6247 35.8216C86.6247 35.8216 84.6576 35.8315 84.6576 37.9067C84.6576 39.982 86.6247 39.9967 86.6247 39.9967C86.6247 39.9967 88.5918 39.9869 88.5918 37.9067C88.5918 35.8364 86.6247 35.8216 86.6247 35.8216ZM86.6247 39.3623C85.533 39.3623 85.6412 37.9067 85.6412 37.9067C85.6412 37.9067 85.5281 36.456 86.6247 36.456C87.7213 36.456 87.6082 37.9067 87.6082 37.9067C87.6082 37.9067 87.7262 39.3623 86.6247 39.3623Z" fill="#303245"></path>
  </g>
</svg>
