<svg width="66" height="65" viewBox="0 0 66 65" fill="none" xmlns="http://www.w3.org/2000/svg">
<path d="M15.5376 31.1411L15.5835 31.1999C16.1899 22.3667 23.6458 15.3843 32.7647 15.3843C32.7693 15.3843 32.7739 15.3843 32.7739 15.3843C32.7785 15.3843 32.7831 15.3843 32.7831 15.3843C37.4276 15.3843 41.6449 17.1989 44.7409 20.1448V2.41513C41.043 0.976123 37.0095 0.179688 32.7877 0.179688C14.7474 0.179688 0.125 14.5834 0.125 32.3538C0.125 43.884 6.28545 53.9932 15.5376 59.6723V31.1411Z" fill="#00E6FF"/>
<path d="M50.0199 5.02344V33.5729L49.9737 33.5141C49.3722 42.3471 41.9118 49.3294 32.7927 49.3294C32.7881 49.3294 32.7835 49.3294 32.7835 49.3294C32.7789 49.3294 32.7743 49.3294 32.7743 49.3294C28.1299 49.3294 23.9127 47.5152 20.8164 44.569V62.2942C24.5283 63.7379 28.5663 64.5388 32.7973 64.5388C50.8376 64.5388 65.4598 50.1352 65.4598 32.3647C65.4598 20.8163 59.2858 10.7025 50.0199 5.02344Z" fill="#007AFF"/>
<path d="M42.7627 25.8506C42.6569 26.3982 42.4642 26.9366 42.1653 27.4435C40.7368 29.8826 37.5762 30.7152 35.1 29.3079C32.6239 27.9005 31.7786 24.7872 33.2073 22.3481C33.5978 21.6829 34.1215 21.1399 34.7188 20.7281C34.094 20.6285 33.4508 20.5742 32.7939 20.5742C26.1879 20.5742 20.8359 25.8461 20.8359 32.3533C20.8359 38.8605 26.1924 44.1324 32.7939 44.1324C39.3953 44.1324 44.752 38.8605 44.752 32.3533C44.752 29.9504 44.0215 27.715 42.7627 25.8506Z" fill="#9D60FB"/>
</svg>
