<?xml version="1.0" encoding="UTF-8"?>
<svg xmlns="http://www.w3.org/2000/svg" width="139" height="32" viewBox="0 0 139 32" fill="none">
  <g clip-path="url(#clip0_7500_18440)">
    <path d="M65.6374 0L66.8131 4.17904C66.9528 4.71456 67.0925 5.24992 67.1856 5.69232C67.2438 5.94832 67.2904 6.1928 67.3369 6.42576H67.3603C67.4069 6.19296 67.4534 5.94848 67.5116 5.69232C67.6048 5.24992 67.7212 4.71456 67.8724 4.17904L69.0478 0H71.4574V8.32304H69.8862V3.5504C69.8862 3.2128 69.8862 2.79376 69.9211 2.43296C69.9328 2.23504 69.9445 2.0256 69.956 1.82768H69.9326C69.8977 2.0256 69.8512 2.21168 69.8161 2.39808C69.7347 2.724 69.6532 3.09648 69.5716 3.41088L68.1398 8.32288H66.5222L65.1254 3.41088C65.0323 3.09664 64.9624 2.72416 64.8809 2.39808C64.846 2.21184 64.7995 2.0256 64.7645 1.82768H64.7412C64.7529 2.0256 64.7645 2.23504 64.7761 2.43296C64.7878 2.79376 64.811 3.2128 64.811 3.5504V8.32304H63.2629V0H65.6374ZM76.1139 7.65952H76.0905C75.943 7.90001 75.7341 8.09688 75.4853 8.22992C75.1251 8.39752 74.7303 8.47731 74.3333 8.46272C73.0993 8.46272 72.2496 7.83408 72.2496 6.6352C72.2496 5.98336 72.5056 5.54096 72.948 5.24992C73.3904 4.95888 73.972 4.80752 74.6475 4.7144C75.6486 4.57472 76.091 4.49328 76.091 4.0392C76.091 3.5968 75.7651 3.32912 75.0899 3.32912C74.3449 3.32912 73.984 3.58512 73.9379 4.1672H72.5299C72.5333 3.90482 72.5933 3.64626 72.7058 3.40919C72.8182 3.17212 72.9806 2.96214 73.1817 2.7936C73.6008 2.4328 74.2294 2.2 75.1017 2.2C76.8937 2.2 77.6161 2.99152 77.6161 4.40016V7.4384C77.6161 7.89232 77.6861 8.16016 77.8257 8.26496V8.3232H76.3008C76.1933 8.11729 76.1295 7.89129 76.1139 7.65952ZM75.7646 6.996C75.8764 6.89888 75.9664 6.77916 76.0286 6.64474C76.0908 6.51033 76.1238 6.36426 76.1254 6.21616V5.32016C75.846 5.49472 75.427 5.57616 75.0195 5.66944C74.1814 5.85568 73.7856 6.04192 73.7856 6.60064C73.7856 7.15936 74.1581 7.35728 74.7168 7.35728C75.0992 7.37331 75.4735 7.24427 75.7648 6.996H75.7646ZM78.1741 6.39072H79.6408C79.7456 7.08912 80.2229 7.38016 80.9445 7.38016C81.6429 7.38016 82.0387 7.11248 82.0387 6.69344C82.0387 6.41408 81.8408 6.25104 81.5614 6.1464C81.2023 6.04139 80.8368 5.95972 80.4672 5.90192C79.9201 5.79712 79.408 5.6808 79.0121 5.41296C78.6048 5.14528 78.3486 4.74944 78.3486 4.0976C78.3355 3.81663 78.3937 3.53691 78.5179 3.28452C78.642 3.03213 78.8281 2.8153 79.0587 2.65424C79.5011 2.34 80.0947 2.18864 80.7816 2.18864C82.3763 2.18864 83.2145 2.94528 83.3425 4.16752H81.9107C81.8293 3.51568 81.4451 3.2944 80.7587 3.2944C80.13 3.2944 79.7347 3.51552 79.7347 3.95792C79.7347 4.2256 79.9326 4.35376 80.2467 4.44688C80.5494 4.55168 80.9568 4.59824 81.3758 4.69136C81.8763 4.79616 82.3998 4.91248 82.8077 5.18032C83.215 5.45968 83.4828 5.87872 83.4828 6.57712C83.4901 6.85096 83.4302 7.12242 83.3085 7.36783C83.1867 7.61324 83.0068 7.82515 82.7845 7.98512C82.2476 8.34164 81.6125 8.52072 80.9685 8.49712C79.2219 8.4976 78.2672 7.6712 78.1741 6.39072ZM83.8312 6.39072H85.2979C85.4027 7.08912 85.88 7.38016 86.6017 7.38016C87.3001 7.38016 87.696 7.11248 87.696 6.69344C87.696 6.41408 87.498 6.25104 87.2187 6.1464C86.8596 6.04139 86.4941 5.95972 86.1245 5.90192C85.5774 5.79712 85.0653 5.6808 84.6694 5.41296C84.2621 5.14528 84.0059 4.74944 84.0059 4.0976C83.9927 3.81663 84.051 3.53691 84.1751 3.28452C84.2993 3.03213 84.4854 2.8153 84.716 2.65424C85.1584 2.34 85.752 2.18864 86.4387 2.18864C88.0334 2.18864 88.8716 2.94528 88.9996 4.16752H87.5678C87.4864 3.51568 87.1022 3.2944 86.4158 3.2944C85.7872 3.2944 85.3918 3.51552 85.3918 3.95792C85.3918 4.2256 85.5897 4.35376 85.9038 4.44688C86.2065 4.55168 86.6139 4.59824 87.0329 4.69136C87.5334 4.79616 88.0569 4.91248 88.4648 5.18032C88.8723 5.45968 89.14 5.87872 89.14 6.57712C89.1472 6.85096 89.0873 7.12242 88.9656 7.36783C88.8438 7.61324 88.664 7.82515 88.4416 7.98512C87.9047 8.34163 87.2696 8.52071 86.6256 8.49712C84.879 8.4976 83.9246 7.6712 83.8318 6.39072H83.8312ZM93.4345 7.65952H93.4112C93.2636 7.90001 93.0547 8.09688 92.8059 8.22992C92.4457 8.39752 92.0509 8.47731 91.6539 8.46272C90.42 8.46272 89.5702 7.83408 89.5702 6.6352C89.5702 5.98336 89.8262 5.54096 90.2686 5.24992C90.711 4.95888 91.2926 4.80752 91.9681 4.7144C92.9693 4.57472 93.4116 4.49328 93.4116 4.0392C93.4116 3.5968 93.0857 3.32912 92.4105 3.32912C91.6656 3.32912 91.3046 3.58512 91.2585 4.1672H89.8505C89.8539 3.90482 89.9139 3.64626 90.0264 3.40919C90.1389 3.17212 90.3012 2.96214 90.5024 2.7936C90.9214 2.4328 91.5501 2.2 92.4224 2.2C94.2144 2.2 94.9368 2.99152 94.9368 4.40016V7.4384C94.9368 7.89232 95.0067 8.16016 95.1464 8.26496V8.3232H93.6214C93.514 8.11727 93.4504 7.89127 93.4349 7.65952H93.4345ZM93.0853 6.996C93.1971 6.89888 93.287 6.77916 93.3492 6.64474C93.4114 6.51033 93.4444 6.36426 93.4461 6.21616V5.32016C93.1667 5.49472 92.7477 5.57616 92.3401 5.66944C91.5021 5.85568 91.1062 6.04192 91.1062 6.60064C91.1062 7.15936 91.4787 7.35728 92.0374 7.35728C92.4199 7.37335 92.7943 7.24431 93.0856 6.996H93.0853ZM96.4027 7.57808C95.8486 6.96795 95.5523 6.1669 95.5761 5.34304C95.5559 4.51841 95.8468 3.71639 96.391 3.09648C96.6667 2.80007 97.0024 2.56579 97.3757 2.40922C97.7491 2.25266 98.1515 2.17741 98.5561 2.18848C99.2283 2.16846 99.8867 2.3824 100.419 2.79376C100.884 3.20133 101.186 3.76381 101.268 4.37696H99.7198C99.6817 4.11626 99.5492 3.87861 99.3475 3.70908C99.1458 3.53956 98.8889 3.44996 98.6256 3.45728C97.6593 3.45728 97.182 4.16736 97.182 5.34304C97.182 6.48384 97.6245 7.2288 98.6022 7.2288C99.2541 7.2288 99.6964 6.90288 99.8012 6.216H101.326C101.287 6.833 101.007 7.40989 100.546 7.8224C100.017 8.27794 99.3356 8.51879 98.6373 8.4976C98.2211 8.51033 97.8069 8.435 97.4219 8.27654C97.0369 8.11808 96.6896 7.88006 96.403 7.57808H96.4027ZM103.562 3.13136C104.004 2.49136 104.47 2.18848 105.296 2.18848C105.575 2.18023 105.852 2.2321 106.11 2.34057C106.367 2.44904 106.597 2.61157 106.786 2.81712C107.169 3.26332 107.372 3.83585 107.356 4.42352V8.3232H105.773V4.656C105.773 4.00416 105.412 3.56176 104.737 3.56176C104.039 3.56176 103.527 4.1088 103.527 4.93536V8.32272H101.944V0H103.528V3.13136H103.562ZM112.036 7.62464H112.001C111.817 7.90575 111.561 8.13334 111.261 8.28455C110.961 8.43576 110.626 8.50526 110.29 8.48608C108.951 8.48608 108.218 7.65968 108.218 6.33264V2.352H109.79V6.064C109.79 6.7624 110.092 7.14656 110.779 7.14656C111.524 7.14656 111.978 6.58784 111.978 5.79632V2.352H113.561V8.32368H112.036L112.036 7.62464ZM114.143 6.39072H115.61C115.715 7.08912 116.192 7.38016 116.914 7.38016C117.612 7.38016 118.008 7.11248 118.008 6.69344C118.008 6.41408 117.81 6.25104 117.531 6.1464C117.172 6.04139 116.806 5.95973 116.436 5.90192C115.889 5.79712 115.377 5.6808 114.981 5.41296C114.574 5.14528 114.318 4.74944 114.318 4.0976C114.305 3.81663 114.363 3.53691 114.487 3.28452C114.611 3.03213 114.797 2.8153 115.028 2.65424C115.47 2.34 116.064 2.18864 116.751 2.18864C118.345 2.18864 119.184 2.94528 119.312 4.16752H117.88C117.798 3.51568 117.414 3.2944 116.728 3.2944C116.099 3.2944 115.704 3.51552 115.704 3.95792C115.704 4.2256 115.902 4.35376 116.216 4.44688C116.519 4.55168 116.926 4.59824 117.345 4.69136C117.845 4.79616 118.369 4.91248 118.777 5.18032C119.184 5.45968 119.452 5.87872 119.452 6.57712C119.459 6.85096 119.399 7.12242 119.278 7.36783C119.156 7.61324 118.976 7.82515 118.754 7.98512C118.217 8.34164 117.582 8.52072 116.938 8.49712C115.191 8.4976 114.236 7.6712 114.143 6.39072ZM120.662 7.57808C120.126 7.01936 119.858 6.21616 119.858 5.33152C119.84 4.50857 120.136 3.70948 120.685 3.09648C120.954 2.80448 121.282 2.57265 121.647 2.41617C122.012 2.2597 122.406 2.18211 122.803 2.18848C123.77 2.18848 124.491 2.54928 124.992 3.1896C125.493 3.82992 125.749 4.71456 125.749 5.78544H121.418C121.546 6.71664 122.035 7.27536 122.943 7.27536C123.572 7.27536 123.921 6.996 124.095 6.54192H125.656C125.547 7.08717 125.245 7.57491 124.806 7.91552C124.272 8.31252 123.62 8.51762 122.955 8.4976C121.954 8.4976 121.197 8.14832 120.662 7.57808ZM121.442 4.6912H124.096C124.049 3.9232 123.56 3.4112 122.827 3.4112C121.989 3.41072 121.581 3.89952 121.442 4.6912ZM126.773 2.352V0.48896H128.321V2.352H129.345V3.45776H128.321V6.56576C128.321 7.01968 128.554 7.15936 128.915 7.15936H129.218C129.272 7.16127 129.327 7.15735 129.381 7.14768V8.31168C129.296 8.32164 129.21 8.32555 129.125 8.32336C128.95 8.33504 128.706 8.33504 128.391 8.33504C128.005 8.35226 127.623 8.25068 127.297 8.044C126.983 7.82288 126.773 7.46192 126.773 6.9032V3.45728H125.947V2.352H126.773ZM130.451 2.352V0.48896H132V2.352H133.024V3.45776H132V6.56576C132 7.01968 132.232 7.15936 132.593 7.15936H132.896C132.951 7.16127 133.005 7.15735 133.059 7.14768V8.31168C132.974 8.32164 132.889 8.32554 132.803 8.32336C132.628 8.33504 132.384 8.33504 132.07 8.33504C131.684 8.35226 131.302 8.25068 130.975 8.044C130.661 7.82288 130.452 7.46192 130.452 6.9032V3.45728H129.625V2.352H130.451ZM133.455 6.3912H134.921C135.026 7.0896 135.503 7.38064 136.225 7.38064C136.923 7.38064 137.319 7.11296 137.319 6.69392C137.319 6.41456 137.121 6.25152 136.842 6.14688C136.483 6.04186 136.117 5.9602 135.748 5.9024C135.201 5.7976 134.688 5.68128 134.293 5.41344C133.885 5.14576 133.629 4.74992 133.629 4.09808C133.616 3.81711 133.674 3.53739 133.798 3.285C133.923 3.03261 134.109 2.81578 134.339 2.65472C134.782 2.34048 135.375 2.18912 136.062 2.18912C137.657 2.18912 138.495 2.94576 138.623 4.168H137.192C137.11 3.51616 136.726 3.29488 136.04 3.29488C135.411 3.29488 135.016 3.516 135.016 3.9584C135.016 4.22608 135.214 4.35424 135.528 4.44736C135.831 4.55216 136.238 4.59872 136.657 4.69184C137.157 4.79664 137.681 4.91296 138.089 5.1808C138.496 5.46016 138.764 5.8792 138.764 6.5776C138.771 6.85145 138.711 7.1229 138.589 7.36831C138.468 7.61372 138.288 7.82564 138.065 7.9856C137.529 8.34211 136.893 8.52119 136.249 8.4976C134.502 8.4976 133.547 7.6712 133.454 6.39072L133.455 6.3912ZM64.9507 10.82V19.143H63.2629V10.82H64.9507ZM67.628 13.9862C67.8016 13.6737 68.0595 13.4164 68.3724 13.2435C68.6853 13.0706 69.0405 12.9892 69.3974 13.0085C69.6764 13.0001 69.9539 13.0519 70.2111 13.1604C70.4682 13.2688 70.699 13.4314 70.8878 13.637C71.2706 14.0832 71.4739 14.6557 71.4582 15.2434V19.143H69.875V15.4762C69.875 14.8243 69.5142 14.3819 68.839 14.3819C68.1406 14.3819 67.6285 14.9291 67.6285 15.7555V19.1429H66.0454V13.1714H67.5936V13.9862H67.628ZM71.9931 17.2107H73.4598C73.5646 17.9091 74.0419 18.2002 74.7635 18.2002C75.4619 18.2002 75.8577 17.9325 75.8577 17.5134C75.8577 17.2341 75.6598 17.071 75.3804 16.9664C75.0214 16.8614 74.6558 16.7797 74.2862 16.7219C73.7392 16.6171 73.227 16.5008 72.8312 16.233C72.4237 15.9653 72.1677 15.5694 72.1677 14.9176C72.1545 14.6366 72.2127 14.3569 72.3369 14.1045C72.4611 13.8521 72.6471 13.6353 72.8777 13.4742C73.3201 13.16 73.9137 13.0086 74.6006 13.0086C76.1953 13.0086 77.0334 13.7653 77.1616 14.9875H75.7297C75.6483 14.3357 75.2641 14.1144 74.5777 14.1144C73.9491 14.1144 73.5537 14.3355 73.5537 14.7779C73.5537 15.0456 73.7517 15.1738 74.0657 15.2669C74.3685 15.3717 74.7758 15.4182 75.1949 15.5114C75.6953 15.6162 76.2188 15.7325 76.6267 16.0003C77.034 16.2797 77.3019 16.6987 77.3019 17.3971C77.3091 17.671 77.2492 17.9424 77.1275 18.1878C77.0058 18.4332 76.8259 18.6452 76.6035 18.8051C76.0667 19.1616 75.4315 19.3407 74.7875 19.3171C73.0408 19.3176 72.0862 18.4912 71.9931 17.2107ZM78.3022 13.1715V11.3088H79.8504V13.1714H80.8744V14.2771H79.8504V17.3851C79.8504 17.839 80.0832 17.9787 80.4441 17.9787H80.7467C80.8013 17.9806 80.856 17.9767 80.9097 17.967V19.131C80.8248 19.141 80.7392 19.1449 80.6537 19.1427C80.4792 19.1544 80.2347 19.1544 79.9204 19.1544C79.5345 19.1716 79.1526 19.07 78.8262 18.8634C78.512 18.6422 78.3024 18.2813 78.3024 17.7226V14.2771H77.476V13.1714L78.3022 13.1715ZM83.2027 11.0413V12.4614H81.6196V11.0413H83.2027ZM83.2027 13.1715V19.1432H81.6196V13.1714L83.2027 13.1715ZM84.6345 13.1715V11.3088H86.1827V13.1714H87.2078V14.2771H86.1838V17.3851C86.1838 17.839 86.4166 17.9787 86.7776 17.9787H87.0798C87.1344 17.9806 87.1891 17.9767 87.2428 17.967V19.131C87.1579 19.141 87.0724 19.1449 86.9869 19.1427C86.8123 19.1544 86.5678 19.1544 86.2534 19.1544C85.8675 19.1716 85.4855 19.07 85.1592 18.8634C84.8449 18.6422 84.6353 18.2813 84.6353 17.7226V14.2771H83.8088V13.1714L84.6345 13.1715ZM91.7235 18.4446H91.6878C91.5032 18.7259 91.2478 18.9535 90.9472 19.1048C90.6467 19.256 90.3117 19.3254 89.9758 19.3061C88.6372 19.3061 87.9038 18.4795 87.9038 17.1526V13.1714H89.4753V16.8846C89.4753 17.583 89.7779 17.9672 90.4648 17.9672C91.2097 17.9672 91.6638 17.4085 91.6638 16.617V13.1714H93.2469V19.143H91.7219L91.7235 18.4446ZM94.6803 13.1715V11.3088H96.2285V13.1714H97.2524V14.2771H96.2285V17.3851C96.2285 17.839 96.4612 17.9787 96.822 17.9787H97.1248C97.1793 17.9809 97.234 17.9773 97.2878 17.968V19.132C97.2029 19.142 97.1173 19.1459 97.0318 19.1437C96.8573 19.1554 96.6128 19.1554 96.2984 19.1554C95.9124 19.1726 95.5305 19.071 95.2041 18.8643C94.8899 18.6432 94.6803 18.2822 94.6803 17.7235V14.2771H93.8537V13.1714L94.6803 13.1715ZM98.4518 18.3981C97.9163 17.8394 97.6486 17.0362 97.6486 16.1515C97.6303 15.3286 97.9258 14.5295 98.4752 13.9165C98.7445 13.6245 99.0724 13.3927 99.4375 13.2362C99.8025 13.0797 100.197 13.0021 100.594 13.0085C101.56 13.0085 102.282 13.3693 102.782 14.0096C103.283 14.6499 103.539 15.5346 103.539 16.6054H99.2078C99.3358 17.5366 99.8248 18.0954 100.733 18.0954C101.361 18.0954 101.711 17.816 101.885 17.3619H103.445C103.336 17.9072 103.034 18.3949 102.595 18.7355C102.061 19.1325 101.409 19.3376 100.744 19.3176C99.7438 19.3176 98.9873 18.9683 98.4518 18.3979V18.3981ZM99.2316 15.5112H101.886C101.839 14.7432 101.35 14.2312 100.617 14.2312C99.7789 14.2306 99.3713 14.72 99.2316 15.511V15.5112ZM106.67 18.3981C106.384 18.1016 106.16 17.7514 106.01 17.3678C105.86 16.9842 105.788 16.5748 105.797 16.163C105.781 15.3284 106.094 14.5211 106.67 13.9165C106.963 13.6208 107.314 13.3878 107.7 13.2316C108.086 13.0754 108.5 12.9994 108.917 13.008C109.335 13.0004 109.75 13.0769 110.138 13.2329C110.526 13.3889 110.878 13.6212 111.175 13.916C111.742 14.5248 112.051 15.3303 112.036 16.1626C112.053 16.9917 111.744 17.7944 111.175 18.3976C110.881 18.6963 110.529 18.9319 110.14 19.09C109.752 19.2482 109.336 19.3255 108.917 19.3173C108.499 19.3267 108.084 19.2499 107.697 19.0917C107.311 18.9335 106.961 18.6973 106.67 18.3979V18.3981ZM110.43 16.163C110.43 14.9874 109.894 14.2074 108.917 14.2074C107.939 14.2074 107.403 14.9874 107.403 16.163C107.403 17.327 107.939 18.107 108.917 18.107C109.894 18.107 110.43 17.327 110.43 16.163ZM113.049 13.171V12.6355C113.049 11.9022 113.328 11.4133 113.806 11.1222C114.271 10.8429 114.935 10.7498 115.703 10.8312V12.0534C114.958 12.0186 114.632 12.1 114.632 12.7286V13.171H115.704V14.3118H114.632V19.1427H113.049V14.3122H112.234V13.1714L113.049 13.171ZM67.4534 21.6398V23.06H64.9507V29.9629H63.2629V23.06H60.7598V21.6398H67.4534ZM67.2788 29.2179C66.7433 28.6592 66.4757 27.856 66.4757 26.9714C66.4573 26.1484 66.7528 25.3493 67.3022 24.7363C67.5715 24.4443 67.8994 24.2125 68.2645 24.056C68.6296 23.8996 69.0236 23.822 69.4208 23.8283C70.3868 23.8283 71.1086 24.1891 71.6092 24.8294C72.1099 25.4698 72.3659 26.3544 72.3659 27.4253H68.0355C68.1635 28.3565 68.6524 28.9152 69.5604 28.9152C70.1891 28.9152 70.5382 28.6358 70.7124 28.1818H72.2723C72.1636 28.727 71.8619 29.2147 71.4225 29.5554C70.8887 29.9523 70.2366 30.1574 69.5716 30.1374C68.5708 30.1374 67.8144 29.7883 67.2788 29.2179ZM68.0588 26.331H70.7129C70.6664 25.563 70.1774 25.051 69.4441 25.051C68.6059 25.0506 68.1984 25.5395 68.0588 26.331ZM73.5648 29.2179C73.0107 28.6078 72.7144 27.8067 72.7382 26.9829C72.718 26.1583 73.0089 25.3562 73.5531 24.7363C73.8288 24.4399 74.1645 24.2056 74.5378 24.0491C74.9112 23.8925 75.3135 23.8173 75.7182 23.8283C76.3904 23.8083 77.0487 24.0222 77.5808 24.4336C78.0462 24.8412 78.3481 25.4036 78.4305 26.0168H76.8824C76.8443 25.7561 76.7118 25.5184 76.5101 25.3489C76.3084 25.1794 76.0515 25.0898 75.7881 25.0971C74.8219 25.0971 74.3448 25.8072 74.3448 26.9829C74.3448 28.1237 74.7872 28.8686 75.7649 28.8686C76.4168 28.8686 76.8592 28.5427 76.9638 27.8558H78.4888C78.4495 28.4729 78.1693 29.0498 77.7088 29.4622C77.179 29.9178 76.498 30.1586 75.7996 30.1374C75.3833 30.1503 74.969 30.075 74.5839 29.9165C74.1987 29.7581 73.8513 29.52 73.5646 29.2179H73.5648ZM80.7238 24.7712C81.1662 24.1312 81.6318 23.8283 82.4582 23.8283C82.7371 23.8201 83.0146 23.8719 83.2717 23.9804C83.5288 24.0889 83.7596 24.2514 83.9483 24.457C84.3311 24.9031 84.5344 25.4757 84.5187 26.0634V29.9629H82.9358V26.2962C82.9358 25.6443 82.575 25.2019 81.8998 25.2019C81.2014 25.2019 80.6891 25.749 80.6891 26.5755V29.9629H79.1061V21.6398H80.6891V24.7712H80.7238ZM87.0097 24.8061C87.1833 24.4936 87.4413 24.2362 87.7542 24.0633C88.067 23.8904 88.4222 23.809 88.7792 23.8283C89.0581 23.8201 89.3355 23.8719 89.5926 23.9804C89.8497 24.0889 90.0804 24.2514 90.2691 24.457C90.6521 24.9033 90.8556 25.4761 90.8398 26.064V29.9635H89.2558V26.2962C89.2558 25.6443 88.895 25.2019 88.2198 25.2019C87.5214 25.2019 87.0092 25.749 87.0092 26.5755V29.9629H85.4261V23.9912H86.9742V24.8061H87.0097ZM92.3294 29.2179C92.0436 28.9214 91.8192 28.5713 91.6694 28.1877C91.5195 27.8041 91.4471 27.3946 91.4563 26.9829C91.44 26.1482 91.7537 25.3409 92.3294 24.7363C92.6229 24.4407 92.9733 24.2078 93.3596 24.0517C93.7458 23.8956 94.1597 23.8196 94.5761 23.8283C94.9942 23.8208 95.4095 23.8972 95.7974 24.0532C96.1853 24.2092 96.5379 24.4415 96.8344 24.7363C97.4019 25.3452 97.7108 26.1507 97.6958 26.9829C97.713 27.8121 97.4036 28.6148 96.8344 29.2179C96.5402 29.5166 96.1882 29.7522 95.8 29.9104C95.4117 30.0685 94.9953 30.1458 94.5761 30.1376C94.1585 30.147 93.7434 30.0702 93.3568 29.9119C92.9702 29.7537 92.6204 29.5174 92.3292 29.2179H92.3294ZM96.0894 26.9829C96.0894 25.8072 95.5539 25.0272 94.5761 25.0272C93.5984 25.0272 93.0628 25.8072 93.0628 26.9829C93.0628 28.1469 93.5984 28.9269 94.5761 28.9269C95.5539 28.9269 96.0892 28.147 96.0892 26.9829H96.0894ZM99.9657 21.6398V29.9629H98.3822V21.6398H99.9657ZM101.526 29.2179C101.24 28.9214 101.015 28.5713 100.866 28.1877C100.716 27.8041 100.643 27.3946 100.652 26.9829C100.636 26.1482 100.95 25.3409 101.526 24.7363C101.819 24.4407 102.17 24.2078 102.556 24.0517C102.942 23.8956 103.356 23.8196 103.772 23.8283C104.19 23.8208 104.606 23.8972 104.994 24.0532C105.381 24.2092 105.734 24.4415 106.031 24.7363C106.598 25.3452 106.907 26.1507 106.892 26.9829C106.909 27.8121 106.6 28.6148 106.031 29.2179C105.736 29.5166 105.384 29.7523 104.996 29.9104C104.608 30.0685 104.191 30.1458 103.772 30.1376C103.355 30.147 102.94 30.0702 102.553 29.9119C102.166 29.7537 101.816 29.5174 101.525 29.2179H101.526ZM105.286 26.9829C105.286 25.8072 104.75 25.0272 103.772 25.0272C102.794 25.0272 102.259 25.8072 102.259 26.9829C102.259 28.1469 102.795 28.9269 103.772 28.9269C104.75 28.9269 105.285 28.147 105.285 26.9829H105.286ZM107.392 30.1374H108.964C109.092 30.5099 109.418 30.801 110.163 30.801C111.048 30.801 111.49 30.3936 111.49 29.5554V28.9035H111.455C111.268 29.1339 111.029 29.3171 110.758 29.4384C110.487 29.5597 110.192 29.6157 109.895 29.6019C109.559 29.6041 109.226 29.5382 108.916 29.4082C108.606 29.2781 108.325 29.0866 108.091 28.8453C107.817 28.571 107.603 28.2434 107.461 27.8829C107.318 27.5224 107.252 27.1366 107.264 26.7493C107.264 25.8646 107.532 25.1312 107.998 24.619C108.23 24.36 108.516 24.1548 108.836 24.0181C109.155 23.8813 109.501 23.8163 109.849 23.8275C110.594 23.8275 111.141 24.1186 111.502 24.619H111.525V23.9904H113.05V29.508C113.05 30.3461 112.794 30.916 112.34 31.3238C111.839 31.7894 111.071 31.999 110.186 31.999C108.533 32 107.567 31.3016 107.392 30.1374H107.392ZM111.245 27.8558C111.475 27.5212 111.59 27.1206 111.571 26.715C111.586 26.3064 111.463 25.9046 111.222 25.5742C111.093 25.4165 110.929 25.2911 110.743 25.2082C110.557 25.1253 110.355 25.0872 110.151 25.097C109.336 25.097 108.812 25.7139 108.812 26.7267C108.812 27.7507 109.336 28.3331 110.163 28.3331C110.368 28.3441 110.573 28.3066 110.761 28.2237C110.949 28.1408 111.115 28.0149 111.245 27.856L111.245 27.8558ZM114.691 30.6728C115.331 30.6728 115.576 30.3586 115.576 29.8579C115.572 29.6567 115.541 29.4569 115.483 29.2643C115.401 29.0198 115.296 28.6939 115.122 28.2403L113.515 23.9915H115.179L116.064 26.6805C116.157 26.9598 116.239 27.2741 116.32 27.5419C116.355 27.6933 116.401 27.833 116.448 27.9843H116.471C116.506 27.833 116.541 27.6933 116.576 27.5419C116.643 27.2508 116.724 26.9633 116.82 26.6805L117.659 23.9915H119.253L117.17 30.1144C116.937 30.7896 116.716 31.2318 116.402 31.5112C116.076 31.8022 115.668 31.9187 115.063 31.9187H114.132V30.6731L114.691 30.6728ZM29.971 29.9627H36.6294V9.98768H29.9707L29.971 29.9627ZM39.9587 6.65824H56.6043V0H39.9584L39.9587 6.65824ZM29.9707 0H36.6291V6.6584H29.9707V0ZM19.983 29.9629H26.6414V0H19.983V29.9629ZM9.99533 23.3045H16.6537V0H9.99549L9.99533 23.3045ZM0.0078125 29.9629H6.66621V0H0.0078125V29.9629ZM39.9584 29.9629H46.6168V9.98768H39.9584V29.9629Z" fill="#303245"></path>
  </g>
</svg>
