<svg width="191" height="40" viewBox="0 0 191 40" fill="none" xmlns="http://www.w3.org/2000/svg">
<path d="M0.120648 13.37C0.600434 14.9749 1.9458 15.9892 3.77796 15.9892H21.1933C23.0297 15.9892 24.3316 15.0422 24.8507 13.4135C24.9651 13.0281 25.0251 12.6286 25.0288 12.2266V9H21.617V10.6301C21.617 11.9517 20.9156 12.6447 19.5506 12.6447H5.40671C4.02768 12.6447 3.41742 11.8605 3.41742 10.6301V9.00281H0V12.228C0 12.6349 0.0336692 12.9954 0.120648 13.37ZM23.0101 22.8156L25.0246 19.4515H18.483L13.8984 27.4241H11.1164L6.53603 19.4515H0L1.93177 22.8156H4.51728L9.28007 31H15.7193L20.4681 22.8156H23.0157H23.0101ZM50.226 19.589C51.6625 19.4445 52.6951 18.9296 53.3165 18.2043C53.9408 17.4692 54.2481 16.5657 54.2481 15.5192C54.2481 14.5821 54.0376 13.8035 53.614 13.1736C53.1917 12.524 52.5576 12.0288 51.7257 11.6977C50.912 11.3667 49.9132 11.1927 48.746 11.1927H38.3787V28.8494H49.1682C50.4477 28.8494 51.5138 28.653 52.3598 28.2686C53.2155 27.8604 53.8496 27.302 54.2719 26.5851C54.7194 25.8514 54.9411 24.9816 54.9411 23.9814C54.9411 22.7805 54.5511 21.8139 53.7725 21.055C53.0037 20.296 51.8267 19.7475 50.226 19.5946V19.589ZM41.7877 14.2552H48.3139C49.1837 14.2552 49.8276 14.4179 50.226 14.7602C50.6398 15.0913 50.8363 15.6188 50.8363 16.3455C50.8363 17.0708 50.6342 17.5898 50.226 17.9307C49.8121 18.2716 49.1682 18.4358 48.2802 18.4358H41.782V14.2552H41.7863H41.7877ZM50.8405 25.265C50.3943 25.6157 49.7069 25.7939 48.76 25.7939H41.7778V21.2079H48.76C49.7069 21.2079 50.3943 21.3846 50.8405 21.7354C51.2894 22.0861 51.5096 22.6725 51.5096 23.4749C51.5096 24.2788 51.288 24.8933 50.8405 25.2678V25.2636V25.265ZM74.1634 20.599C74.942 20.1894 75.534 19.6423 75.9226 18.9352C76.3112 18.2338 76.5132 17.3977 76.5132 16.4269C76.5132 15.3172 76.2453 14.3787 75.7108 13.6113C75.1777 12.8172 74.4089 12.2266 73.4184 11.8184C72.428 11.4003 71.2173 11.1927 69.7948 11.1927H60.2314V28.8494H63.6432V22.2376H66.6229C67.344 22.2376 67.9346 22.3049 68.3821 22.4242C68.8296 22.5448 69.1944 22.7567 69.4735 23.0302C69.7611 23.294 70.0305 23.6545 70.2956 24.1399L72.9667 28.8592H76.7489L72.5781 21.1714C72.5781 21.1714 73.4577 20.9638 74.169 20.6074V20.599H74.1634ZM69.7569 19.6521H63.6291V14.2496H69.7569C70.8231 14.2496 71.6171 14.446 72.1264 14.8528C72.6595 15.2625 72.9288 15.9541 72.9288 16.9347C72.9288 17.9153 72.6637 18.6602 72.1264 19.0685C71.6171 19.4529 70.8231 19.6507 69.7555 19.6507L69.7569 19.6521ZM86.4428 24.6029H95.6177L97.4961 28.8494H101.389L93.4783 11.1927H88.6299L80.7429 28.8494H84.5587L86.4526 24.6015H86.4428V24.6029ZM87.812 21.5404L89.8686 16.9319L91.0134 14.2931L92.2479 16.9305L94.2962 21.5404H87.812ZM112.832 25.6382L106.95 11.413H102.845L110.366 29.0696H115.24L122.745 11.413H118.677L112.837 25.6382H112.832ZM140.354 28.8494H144.247L136.342 11.1927H131.492L123.608 28.8494H127.424L129.312 24.6015H138.487L140.365 28.8494H140.354ZM130.652 21.5446L132.708 16.9361L133.852 14.2987L135.078 16.9361L137.126 21.5446H130.652ZM162.443 12.2701C161.072 11.5546 159.449 11.1927 157.569 11.1927H149.206V28.8494H157.569C159.449 28.8494 161.072 28.4987 162.443 27.793C163.784 27.1114 164.895 26.0478 165.633 24.7361C166.378 23.4146 166.758 21.8434 166.758 20.0168C166.758 18.1903 166.393 16.6191 165.633 15.2975C164.901 13.9891 163.788 12.9345 162.443 12.2743V12.2701ZM162.52 23.4679C162.14 24.3125 161.553 24.9087 160.741 25.2594C159.919 25.6101 158.871 25.7883 157.569 25.7883H152.61V14.2496H157.569C158.871 14.2496 159.929 14.4278 160.741 14.7785C161.553 15.1292 162.154 15.7254 162.52 16.5714C162.908 17.3977 163.11 18.5508 163.11 20.0267C163.11 21.5025 162.922 22.6318 162.52 23.482V23.4679ZM189.615 15.2176C188.864 13.8577 187.72 12.7565 186.332 12.0583C184.91 11.3007 183.228 10.9248 181.272 10.9248C179.316 10.9248 177.716 11.2993 176.288 12.0583C174.9 12.7627 173.752 13.8613 172.987 15.2162C172.218 16.5714 171.843 18.1622 171.843 20.0126C171.843 21.863 172.222 23.4679 172.987 24.8329C173.759 26.1819 174.905 27.2782 176.288 27.9894C177.71 28.7259 179.368 29.1005 181.272 29.1005C183.174 29.1005 184.91 28.7259 186.332 27.9908C187.755 27.2305 188.846 26.1881 189.615 24.8329C190.394 23.4581 190.782 21.8532 190.782 20.0126C190.782 18.172 190.394 16.5714 189.615 15.2162V15.2176ZM186.52 23.3908C186.129 24.2338 185.446 24.9066 184.597 25.2847C183.743 25.669 182.641 25.8655 181.272 25.8655C179.903 25.8655 178.816 25.669 177.946 25.2847C177.112 24.8976 176.442 24.2262 176.058 23.3908C175.669 22.5112 175.467 21.3875 175.467 20.0126C175.467 18.6378 175.654 17.5043 176.058 16.6345C176.471 15.7745 177.091 15.1488 177.946 14.7644C178.816 14.3562 179.927 14.1584 181.272 14.1584C182.617 14.1584 183.752 14.3548 184.597 14.7644C185.462 15.1488 186.112 15.7787 186.52 16.6345C186.943 17.4945 187.164 18.614 187.164 20.0126C187.164 21.4113 186.952 22.5112 186.52 23.3908Z" fill="#303245"/>
</svg>
