<svg width="134" height="34" viewBox="0 0 134 34" fill="none" xmlns="http://www.w3.org/2000/svg">
<g clip-path="url(#clip0_3744_5658)">
<path fill-rule="evenodd" clip-rule="evenodd" d="M44.1953 24.1908H38V9.80078H44.1953C48.658 9.80078 50.8926 12.0688 50.8926 16.603C50.891 21.6604 48.658 24.1908 44.1953 24.1908ZM40.6471 21.8744H43.7945C46.7596 21.8744 48.2406 20.1178 48.2406 16.6014C48.2406 13.608 46.758 12.1105 43.7945 12.1105H40.6471V21.8744Z" fill="#632CA6"/>
<path fill-rule="evenodd" clip-rule="evenodd" d="M53.6692 24.1908H50.9492L57.017 9.80078H59.8646L66.0616 24.1908H63.214L61.4151 20.2666H56.8381L57.7475 17.9518H60.716L58.377 12.5468L53.6692 24.1908Z" fill="#632CA6"/>
<path fill-rule="evenodd" clip-rule="evenodd" d="M64.5586 9.80078H75.4021V12.1139H71.3056V24.1908H68.6585V12.1139H64.5586V9.80078Z" fill="#632CA6"/>
<path fill-rule="evenodd" clip-rule="evenodd" d="M76.7708 24.1908H74.0508L80.1186 9.80078H82.9661L89.1631 24.1908H86.3123L84.5133 20.2666H79.9364L80.8458 17.9518H83.8143L81.4769 12.5468L76.7708 24.1908Z" fill="#632CA6"/>
<path fill-rule="evenodd" clip-rule="evenodd" d="M97.1133 24.1908H90.918V9.80078H97.1133C101.579 9.80078 103.811 12.0688 103.811 16.603C103.811 21.6604 101.579 24.1908 97.1133 24.1908ZM93.5667 21.8744H96.7141C99.6776 21.8744 101.163 20.1178 101.163 16.6014C101.163 13.608 99.6793 12.1105 96.7141 12.1105H93.5667V21.8744Z" fill="#632CA6"/>
<path fill-rule="evenodd" clip-rule="evenodd" d="M105.605 17.0179C105.605 12.1377 107.999 9.69922 112.783 9.69922C117.494 9.69922 119.846 12.1377 119.846 17.0179C119.846 21.8697 117.493 24.2965 112.783 24.2965C108.211 24.2965 105.819 21.8697 105.605 17.0179ZM112.783 21.9767C115.659 21.9767 117.098 20.3037 117.098 16.9544C117.098 13.6586 115.659 12.009 112.783 12.009C109.831 12.009 108.355 13.6586 108.355 16.9544C108.355 20.3037 109.831 21.9767 112.783 21.9767Z" fill="#632CA6"/>
<path fill-rule="evenodd" clip-rule="evenodd" d="M130.899 18.37V21.7394C130.288 21.8998 129.741 21.9801 129.259 21.9801C126.021 21.9801 124.404 20.2519 124.404 16.7973C124.404 13.6068 126.12 12.014 129.551 12.014C130.984 12.014 132.316 12.2831 133.548 12.8196V10.4028C132.316 9.93487 130.916 9.69922 129.35 9.69922C124.22 9.69922 121.654 12.0641 121.654 16.7973C121.654 21.7945 124.176 24.2965 129.22 24.2965C130.954 24.2965 132.395 24.0425 133.548 23.531V16.0018H129.271L128.376 18.3683L130.899 18.37Z" fill="#632CA6"/>
<path fill-rule="evenodd" clip-rule="evenodd" d="M27.2971 24.1105L24.5025 22.252L22.1718 26.1796L19.4618 25.3807L17.0747 29.0559L17.1973 30.2125L30.1728 27.8008L29.4191 19.6214L27.2971 24.1105ZM15.1962 20.5857L17.2785 20.2966C17.6148 20.4487 17.85 20.5072 18.2542 20.6108C18.8836 20.7762 19.6109 20.935 20.6892 20.3868C20.9394 20.2615 21.4628 19.7785 21.6732 19.5044L30.2026 17.9434L31.0723 28.5679L16.4602 31.2253L15.1962 20.5857ZM31.0391 16.7567L30.1976 16.9188L28.5809 0.0585938L1.02148 3.28256L4.41733 31.0816L7.64256 30.6086C7.3858 30.2376 6.98327 29.788 6.29913 29.213C5.34829 28.4175 5.68456 27.0637 6.24612 26.2097C6.98658 24.7673 10.8082 22.9322 10.5911 20.6258C10.5133 19.7868 10.3808 18.6954 9.60884 17.9467C9.58068 18.2576 9.63203 18.5567 9.63203 18.5567C9.63203 18.5567 9.31563 18.1489 9.15661 17.5924C8.99924 17.3784 8.87666 17.3116 8.70935 17.0258C8.59008 17.355 8.60665 17.7378 8.60665 17.7378C8.60665 17.7378 8.34823 17.1194 8.30516 16.5979C8.15111 16.8319 8.11301 17.2748 8.11301 17.2748C8.11301 17.2748 7.77674 16.3004 7.85294 15.7757C7.69888 15.3194 7.24334 14.4135 7.37255 12.3545C8.21406 12.9495 10.066 12.8074 10.7866 11.7344C11.0268 11.3784 11.1908 10.4091 10.6673 8.49874C10.3311 7.27367 9.49951 5.44859 9.17483 4.75499L9.13673 4.78341C9.30735 5.34163 9.66019 6.50988 9.79602 7.07812C10.2052 8.79791 10.3145 9.39624 10.1224 10.1884C9.95836 10.877 9.56742 11.3283 8.57352 11.833C7.57961 12.3394 6.26103 11.1077 6.17655 11.0408C5.2108 10.2653 4.46371 8.99847 4.38089 8.38342C4.29475 7.70988 4.7652 7.30542 5.00374 6.75556C4.66415 6.85417 4.28481 7.02798 4.28481 7.02798C4.28481 7.02798 4.73704 6.555 5.29528 6.1472C5.52719 5.99344 5.66137 5.89483 5.90488 5.69093C5.55204 5.68592 5.26547 5.69427 5.26547 5.69427C5.26547 5.69427 5.85353 5.37338 6.46312 5.14107C6.01752 5.12101 5.59014 5.13772 5.59014 5.13772C5.59014 5.13772 6.9021 4.54608 7.93742 4.11154C8.64972 3.81738 9.34545 3.90429 9.73639 4.47421C10.2499 5.22129 10.7883 5.62742 11.9313 5.87979C12.6336 5.56558 12.8457 5.40514 13.7269 5.1628C14.5022 4.30207 15.1118 4.19009 15.1118 4.19009C15.1118 4.19009 14.8103 4.4692 14.7291 4.90875C15.1697 4.55945 15.6518 4.26697 15.6518 4.26697C15.6518 4.26697 15.4646 4.49928 15.2907 4.86864L15.3304 4.92881C15.8439 4.61795 16.4469 4.37393 16.4469 4.37393C16.4469 4.37393 16.2746 4.59455 16.0725 4.87867C16.4602 4.87533 17.2454 4.89538 17.5485 4.93048C19.3475 4.97059 19.7202 2.99175 20.4109 2.7444C21.2756 2.43353 21.6616 2.24468 23.1343 3.70374C24.3982 4.95722 25.3854 7.19846 24.8951 7.70152C24.4843 8.11768 23.6726 7.53941 22.7748 6.40793C22.2994 5.80959 21.9416 5.10263 21.7726 4.20346C21.6301 3.44468 21.0785 3.00512 21.0785 3.00512C21.0785 3.00512 21.3982 3.72546 21.3982 4.36056C21.3982 4.7082 21.4413 6.00514 21.9929 6.73216C21.9382 6.83913 21.9134 7.25863 21.8521 7.33885C21.211 6.55667 19.8328 5.99678 19.6092 5.83132C20.3695 6.45974 22.1172 7.90375 22.788 9.2876C23.4225 10.5962 23.0481 11.7962 23.3695 12.1071C23.4606 12.1957 24.7344 13.7968 24.9796 14.6024C25.407 16.0046 25.0045 17.4787 24.4462 18.3929L22.8841 18.6386C22.6555 18.5751 22.5015 18.5417 22.2961 18.423C22.4087 18.2208 22.634 17.7177 22.6356 17.6141L22.5478 17.4587C22.0608 18.1539 21.2475 18.8292 20.57 19.2169C19.6837 19.7233 18.6633 19.6448 17.9991 19.4375C16.1123 18.8509 14.3282 17.564 13.8992 17.2264C13.8992 17.2264 13.8859 17.4954 13.9671 17.5573C14.4425 18.0988 15.5325 19.0782 16.5861 19.7601L14.3415 20.0091L15.4033 28.3473C14.9329 28.4158 14.86 28.4492 14.3448 28.5228C13.8909 26.905 13.0229 25.847 12.0737 25.232C11.2372 24.6888 10.0826 24.5668 8.97605 24.7874L8.90482 24.871C9.67344 24.7907 10.5812 24.9027 11.5122 25.4977C12.4266 26.081 13.1637 27.5885 13.4354 28.496C13.7832 29.6559 14.0234 30.8961 13.0875 32.2114C12.4216 33.1456 10.4802 33.6621 8.90979 32.5456C9.32889 33.2259 9.89541 33.7824 10.6574 33.886C11.7905 34.0415 12.8655 33.8426 13.6043 33.0771C14.2355 32.422 14.5717 31.0515 14.4823 29.6091L15.4812 29.4637L15.8423 32.0526L32.3875 30.042L31.0391 16.7567ZM20.9725 9.72382C20.9261 9.83078 20.8532 9.89931 20.9626 10.2453L20.9692 10.2653L20.9858 10.3104L21.0305 10.4141C21.2276 10.8185 21.443 11.2013 21.8024 11.3968C21.8952 11.3818 21.9929 11.3701 22.0923 11.3651C22.4302 11.35 22.6439 11.4035 22.7798 11.4787C22.7914 11.4102 22.7947 11.3116 22.7864 11.1645C22.7599 10.6514 22.8874 9.77897 21.9101 9.31936C21.5407 9.14721 21.0239 9.19902 20.8516 9.4163C20.8831 9.41964 20.9112 9.42632 20.9327 9.43468C21.1961 9.52493 21.0205 9.61518 20.9725 9.72382ZM23.7124 14.5121C23.5848 14.4403 22.9852 14.4687 22.5644 14.5188C21.7627 14.6141 20.8963 14.8949 20.7058 15.0436C20.3612 15.3127 20.517 15.7823 20.7721 15.9745C21.4877 16.5127 22.1138 16.8754 22.7748 16.7868C23.1806 16.7333 23.5384 16.0848 23.7919 15.4949C23.9675 15.0904 23.9675 14.6542 23.7124 14.5121ZM16.6109 10.3589C16.8379 10.1416 15.4845 9.85752 14.4343 10.5795C13.6607 11.1127 13.6358 12.2559 14.3763 12.9027C14.4508 12.9662 14.5121 13.013 14.5684 13.0497C14.7854 12.9461 15.0323 12.8425 15.3155 12.7506C15.7959 12.5935 16.1935 12.5116 16.5215 12.4698C16.6788 12.2926 16.861 11.9818 16.8147 11.4185C16.7534 10.6514 16.1786 10.7734 16.6109 10.3589Z" fill="#632CA6"/>
</g>
<defs>
<clipPath id="clip0_3744_5658">
<rect width="132.604" height="33.9595" fill="white" transform="translate(0.984375 0.0195312)"/>
</clipPath>
</defs>
</svg>
