<svg width="182" height="32" viewBox="0 0 182 32" fill="none" xmlns="http://www.w3.org/2000/svg">
<g clip-path="url(#clip0_3744_5645)">
<path d="M46.7702 8.94531C45.9684 8.94531 45.2145 9.25591 44.6502 9.82013L42.37 12.0943C41.7548 12.7077 41.4388 13.5596 41.5035 14.4329C41.5082 14.4806 41.5128 14.5283 41.5174 14.5774C41.5991 15.2478 41.8936 15.8521 42.37 16.3256C42.6984 16.6532 43.0607 16.8608 43.5001 17.0053C43.5232 17.1375 43.5355 17.2713 43.5355 17.4051C43.5355 18.0078 43.3012 18.5736 42.8756 18.998L42.7353 19.1379C41.9738 18.878 41.3385 18.4983 40.765 17.9263C40.0035 17.1667 39.4993 16.2073 39.3097 15.1541L39.2834 15.0079L39.1678 15.1018C39.0892 15.1648 39.0151 15.2325 38.9458 15.3016L36.6655 17.5757C35.4969 18.7412 35.4969 20.6401 36.6655 21.8056C37.2499 22.3883 38.0176 22.6805 38.787 22.6805C39.5563 22.6805 40.3226 22.3883 40.9069 21.8056L43.1872 19.5316C44.3558 18.366 44.3558 16.4687 43.1872 15.3016C42.8757 14.9911 42.5042 14.7573 42.0833 14.6067C42.0601 14.4698 42.0477 14.333 42.0477 14.1992C42.0477 13.5442 42.3068 12.923 42.7817 12.4494C43.5448 12.7093 44.2216 13.1306 44.7936 13.701C45.5537 14.459 46.0563 15.417 46.249 16.4733L46.2752 16.6193L46.3909 16.5256C46.4695 16.4625 46.5435 16.3949 46.6144 16.3241L48.8947 14.0501C50.0633 12.8845 50.0648 10.9857 48.8947 9.82013C48.3289 9.25591 47.5764 8.94531 46.7732 8.94531H46.7702Z" fill="#213C3C"/>
<path d="M45.5521 0.628906H15.7163C7.21509 0.628906 0.298828 7.52649 0.298828 16.0047C0.298828 24.4829 7.21509 31.3806 15.7163 31.3806H45.5521C54.0533 31.3806 60.9696 24.4829 60.9696 16.0047C60.9696 7.52649 54.0533 0.628906 45.5521 0.628906ZM30.8362 24.7351C30.3443 24.8366 29.7909 24.855 29.4147 24.463C29.2759 24.7812 28.9521 24.6136 28.7024 24.5722C28.6792 24.6367 28.6592 24.6936 28.6376 24.7582C27.8066 24.8136 27.1838 23.9679 26.7876 23.3298C26.0012 22.9054 25.1086 22.6471 24.3053 22.2027C24.2591 22.9346 24.4195 23.8418 23.721 24.3139C23.6855 25.7207 25.8548 24.4799 26.0537 25.5285C25.8995 25.5454 25.7284 25.5039 25.605 25.6223C25.0392 26.1712 24.3901 25.2072 23.738 25.6054C22.8622 26.0451 22.7744 26.4049 21.6905 26.4957C21.6304 26.4049 21.6551 26.3449 21.7059 26.2896C22.0112 25.936 22.0328 25.5193 22.5539 25.3686C22.0174 25.284 21.5687 25.5793 21.117 25.813C20.5296 26.0528 20.5342 25.2717 19.6308 25.8544C19.5305 25.773 19.5784 25.6992 19.6354 25.6362C19.8651 25.3563 20.1673 25.3148 20.508 25.3302C18.8321 24.3984 18.0428 26.4695 17.2688 25.4394C17.036 25.5009 16.9482 25.7099 16.8017 25.8575C16.6753 25.7192 16.7708 25.5515 16.777 25.3886C16.6259 25.3179 16.4347 25.284 16.4794 25.0426C16.1834 24.9427 15.9769 25.118 15.7564 25.284C15.5575 25.1303 15.8905 24.9058 15.9521 24.7459C16.1295 24.4384 16.5334 24.6828 16.7384 24.4614C17.3212 24.1309 18.1337 24.6674 18.7998 24.5768C19.3132 24.6413 19.9483 24.1154 19.6909 23.5911C19.142 22.8916 19.2391 21.9767 19.2268 21.1403C19.159 20.6528 17.9857 20.0316 17.6466 19.5058C17.2272 19.0322 16.9003 18.4833 16.5735 17.9437C15.394 15.6664 15.7656 12.7404 14.2793 10.6263C13.6072 10.9968 12.7314 10.8216 12.1518 10.3249C11.8388 10.6093 11.8249 10.9814 11.8002 11.3766C11.0494 10.6278 11.1435 9.21319 11.7432 8.37985C11.9884 8.05081 12.2813 7.7802 12.6081 7.54187C12.6821 7.48806 12.7068 7.43578 12.7052 7.35275C13.2988 4.68966 17.3475 5.20321 18.6271 7.08983C19.5552 8.25073 19.8358 9.78671 20.8888 10.8646C22.3056 12.4114 23.9199 13.7737 25.2273 15.4204C26.4638 16.9257 27.3472 18.6909 28.118 20.4699C28.4326 21.0603 28.4357 21.7845 28.9013 22.2888C29.131 22.5933 30.2534 23.422 30.0098 23.7157C30.1501 24.0201 31.1985 24.4399 30.8346 24.7351H30.8362ZM50.4995 15.6511L48.2194 17.9251C47.6118 18.531 46.8611 18.983 46.047 19.2305L46.0054 19.2428L45.99 19.2828C45.7248 19.9809 45.3224 20.6036 44.792 21.1311L42.5118 23.4051C41.5173 24.3969 40.1946 24.9427 38.7854 24.9427C37.3762 24.9427 36.0534 24.3969 35.059 23.4051C33.0039 21.3555 33.0039 18.022 35.059 15.9724L37.3392 13.6984C37.9498 13.0895 38.6806 12.6513 39.5085 12.3976L39.5501 12.3853L39.5655 12.3453C39.8307 11.6472 40.2346 11.023 40.7666 10.4909L43.0467 8.21689C44.0412 7.22513 45.364 6.67929 46.7731 6.67929C48.1823 6.67929 49.5051 7.22513 50.4995 8.21689C51.494 9.20859 52.0413 10.5279 52.0413 11.9332C52.0413 13.3386 51.494 14.6593 50.4995 15.6496V15.6511Z" fill="#213C3C"/>
<path d="M21.5585 21.9742C21.358 22.7522 21.2933 24.076 20.2788 24.1145C20.1956 24.5635 20.5902 24.7326 20.951 24.5881C21.3072 24.4251 21.4767 24.7172 21.597 25.0078C22.1474 25.0878 22.9615 24.8248 22.9923 24.1745C22.1705 23.7024 21.9161 22.8045 21.56 21.9727L21.5585 21.9742Z" fill="#213C3C"/>
<path d="M75.2593 8.68359H72.5508V25.1133H84.1677V22.4962H75.2593V8.68359Z" fill="#213C3C"/>
<path d="M97.7812 25.1149H100.49V25.0856H100.525L100.531 24.9651C100.531 24.9298 100.541 24.601 100.491 24.0943V17.9796C100.491 15.6791 102.169 14.6318 103.727 14.6318C105.404 14.6318 106.22 15.5354 106.22 17.3951V25.1149H108.928V17.0346C108.928 13.9657 106.978 12.0586 103.841 12.0586C102.507 12.0586 101.317 12.4373 100.383 13.157L100.358 12.2839H97.785V25.1149H97.7812Z" fill="#213C3C"/>
<path d="M119.952 13.2265C119.01 12.4617 117.8 12.0586 116.435 12.0586C112.783 12.0586 110.514 14.5771 110.514 18.6312C110.514 22.6853 112.783 25.2269 116.435 25.2269C117.723 25.2269 118.873 24.8762 119.779 24.2088C119.701 26.1975 118.455 27.3788 116.413 27.3788C114.695 27.3788 113.724 26.832 113.524 25.7542L113.499 25.6202L110.868 26.4228L110.891 26.5312C111.336 28.6733 113.34 29.952 116.256 29.952C118.234 29.952 119.785 29.4138 120.867 28.3506C121.96 27.2789 122.513 25.7347 122.513 23.7619V12.2839H120.008L119.953 13.2265H119.952ZM119.782 18.7445C119.782 21.1923 118.59 22.6549 116.592 22.6549C114.45 22.6549 113.222 21.1886 113.222 18.6324C113.222 16.0762 114.451 14.6318 116.592 14.6318C118.542 14.6318 119.763 16.0871 119.782 18.429V18.7445Z" fill="#213C3C"/>
<path d="M135.855 19.9061C135.293 21.7218 133.852 22.7229 131.797 22.7229C128.859 22.7229 127.032 20.4918 127.032 16.9005C127.032 13.3091 128.874 11.0781 131.842 11.0781C133.896 11.0781 135.079 11.8831 135.681 13.6867L135.962 14.5306L138.519 13.3298L138.279 12.6539C137.305 9.91018 135.056 8.46094 131.775 8.46094C129.545 8.46094 127.653 9.26595 126.301 10.7883C124.964 12.2959 124.256 14.4088 124.256 16.9017C124.256 22.0287 127.215 25.3424 131.797 25.3424C135.025 25.3424 137.526 23.6533 138.485 20.8231L138.73 20.0997L136.103 19.1011L135.853 19.9073L135.855 19.9061Z" fill="#213C3C"/>
<path d="M145.968 12.0574C144.675 12.0574 143.524 12.4118 142.621 13.0853V7.10938H139.912V25.1149H142.621V17.9797C142.621 15.6646 144.297 14.61 145.857 14.61C147.533 14.61 148.349 15.5136 148.349 17.3732V25.1161H151.058V17.0127C151.058 14.0034 149.061 12.0599 145.97 12.0599L145.968 12.0574Z" fill="#213C3C"/>
<path d="M166.889 6.72266C165.883 6.72266 165.152 7.45335 165.152 8.45927C165.152 9.46518 165.883 10.1959 166.889 10.1959C167.895 10.1959 168.625 9.46518 168.625 8.45927C168.625 7.45335 167.895 6.72266 166.889 6.72266Z" fill="#213C3C"/>
<path d="M176.537 12.0586C175.204 12.0586 174.014 12.4373 173.08 13.157L173.054 12.2839H170.482V25.1149H173.191V17.9796C173.191 15.6791 174.867 14.6318 176.427 14.6318C178.103 14.6318 178.919 15.5354 178.919 17.3951V25.1149H181.628V17.0346C181.628 13.9657 179.678 12.0586 176.54 12.0586H176.537Z" fill="#213C3C"/>
<path d="M168.202 12.2839H165.507V18.6446C164.759 18.0162 163.878 17.5413 162.884 17.2308V16.584C162.884 13.7502 161.024 12.0586 157.907 12.0586C155.375 12.0586 153.482 13.2473 152.711 15.3188L152.503 15.8777L154.674 17.478L155.047 16.5073C155.538 15.2274 156.447 14.6307 157.907 14.6307C159.368 14.6307 160.175 15.3333 160.175 16.718V16.7899C160.088 16.7862 160.001 16.7838 159.913 16.7826C157.013 16.7363 154.898 17.4147 153.626 18.7956C152.324 20.2083 152.438 21.7951 152.455 21.9705L152.467 22.0923H152.479C152.682 24.0688 154.408 25.3378 156.917 25.3378C158.299 25.3378 159.576 24.953 160.542 24.2503L160.552 25.1137H162.884V21.0997L162.833 21.0632C162.504 20.8221 161.929 20.5103 161.064 20.4007C160.793 20.3666 160.533 20.3496 160.295 20.3545H160.174V20.7235C160.174 21.5723 159.198 22.7669 157.028 22.7669C155.427 22.7669 155.188 22.0935 155.188 21.6916V21.6502C155.2 21.47 155.276 21.0291 155.674 20.6187C156.179 20.0962 157.317 19.4849 159.869 19.5239C161.716 19.5531 163.133 20.0695 164.082 21.0595C165.246 22.2749 165.465 23.9385 165.505 24.59V25.1149H168.2V12.2839H168.202Z" fill="#213C3C"/>
<path d="M90.7738 12C88.242 12 86.3487 13.1886 85.5773 15.2601L85.3695 15.8191L87.5409 17.4193L87.9134 16.4487C88.4045 15.1687 89.3141 14.572 90.7738 14.572C92.2342 14.572 93.0419 15.2747 93.0419 16.6594V16.9846L90.2525 17.4766C86.9826 18.055 85.3242 19.4531 85.3242 21.6305C85.3242 23.808 87.074 25.2792 89.7826 25.2792C91.1652 25.2792 92.4413 24.8943 93.4068 24.1916L93.4181 25.0551H95.7489V16.5254C95.7489 13.6915 93.8896 12 90.7738 12ZM93.0419 19.5225V20.666C93.0419 21.5148 92.0658 22.7095 89.8959 22.7095C88.2942 22.7095 88.0562 22.0361 88.0562 21.6342C88.0562 21.2774 88.0562 20.4419 90.8932 19.9159L93.0419 19.5237V19.5225Z" fill="#213C3C"/>
</g>
<defs>
<clipPath id="clip0_3744_5645">
<rect width="181.326" height="30.9765" fill="white" transform="translate(0.298828 0.511719)"/>
</clipPath>
</defs>
</svg>
