<svg width="100" height="30" viewBox="0 0 100 30" fill="none" xmlns="http://www.w3.org/2000/svg">
<g clip-path="url(#clip0_3744_5641)">
<path d="M17.483 28.1393C22.2422 27.2771 26.1731 26.5636 26.2182 26.5538L26.3003 26.5359L21.8071 21.0548C19.3359 18.0402 17.3139 15.5621 17.3139 15.5478C17.3139 15.5207 21.9535 2.4178 21.9796 2.37118C21.9883 2.35559 25.1457 7.94603 29.6334 15.9228C33.8347 23.3907 37.2986 29.5481 37.3308 29.6058L37.3893 29.7107L23.1096 29.7088L8.82983 29.7069L17.483 28.1393ZM72.2441 26.8137C70.0705 26.6708 68.8063 25.4014 68.4713 23.0255C68.3821 22.3934 68.3818 22.377 68.3727 18.2738L68.3639 14.3026H69.3259H70.2879L70.2954 18.1438C70.3023 21.6058 70.3065 22.0117 70.3388 22.2552C70.4698 23.2436 70.7306 23.9083 71.1745 24.3853C71.5298 24.7672 71.9457 24.9907 72.5215 25.1093C72.7931 25.1653 73.5658 25.1654 73.8135 25.1096C74.3972 24.9778 74.865 24.7173 75.2777 24.2943C75.7481 23.812 76.0961 23.1278 76.2645 22.3542L76.3213 22.0934L76.3276 18.2197L76.3339 14.346H77.316H78.2982V20.4356V26.5251H77.3261H76.3541V25.559C76.3541 24.9025 76.3471 24.5952 76.3322 24.6003C76.3202 24.6044 76.2703 24.6827 76.2213 24.7743C75.8863 25.4008 75.3282 25.9738 74.7167 26.3189C73.9837 26.7327 73.2485 26.8798 72.2441 26.8137ZM94.3069 26.8039C93.5396 26.7447 92.7317 26.4742 92.0714 26.0553C90.6795 25.1723 89.856 23.717 89.6149 21.7141C89.5314 21.021 89.5214 20.0901 89.591 19.5012C89.7466 18.1853 90.2508 16.8935 90.9688 15.9713C91.1529 15.7349 91.5704 15.3067 91.8009 15.1179C92.4234 14.6082 93.1515 14.2518 93.9246 14.0783C94.375 13.9773 95.1682 13.9298 95.6468 13.9753C96.8489 14.0896 97.9507 14.6701 98.6996 15.5837C99.4604 16.5119 99.8786 17.809 99.932 19.4061C99.9404 19.6564 99.9424 20.0953 99.9365 20.3813L99.9258 20.9014L95.7155 20.9069L91.5051 20.9124V21.1051C91.5051 21.6917 91.6441 22.3598 91.8846 22.9282C92.0919 23.4184 92.4487 23.9537 92.7409 24.2127C93.34 24.7438 94.0732 25.0617 94.8755 25.1382C95.173 25.1666 95.9311 25.1367 96.2701 25.0833C97.2374 24.9309 98.1569 24.5418 98.8995 23.9708C98.9869 23.9037 99.0705 23.8409 99.0853 23.8314C99.107 23.8174 99.1121 23.9929 99.1116 24.7307L99.1109 25.6474L98.9119 25.7736C98.0719 26.3064 97.1095 26.6486 96.0905 26.7766C95.7864 26.8149 94.6706 26.8319 94.3069 26.8039ZM97.9712 19.0725C97.9712 18.09 97.5674 16.9984 96.9961 16.4364C96.5883 16.0353 96.0954 15.7902 95.5094 15.6971C95.2322 15.653 94.6479 15.67 94.3556 15.7306C93.7377 15.8586 93.2267 16.1372 92.7809 16.5889C92.3118 17.0643 91.96 17.6418 91.7388 18.2997C91.6593 18.5362 91.5663 18.9246 91.5374 19.1407L91.5236 19.2436H94.7474H97.9712V19.0725ZM40.8584 26.498C40.8633 26.4831 42.2931 22.6311 44.0356 17.938L47.2038 9.40512L48.2218 9.40506L49.2398 9.40499L49.3242 9.62712C49.5823 10.3059 55.6668 26.5066 55.6668 26.515C55.6668 26.5205 55.1795 26.525 54.5838 26.5249L53.5009 26.5247L52.6239 24.1302L51.747 21.7358L48.216 21.7358L44.6851 21.7357L44.6544 21.817C44.6375 21.8617 44.2628 22.9391 43.8218 24.2113L43.0199 26.5243L41.9347 26.5246C41.0756 26.5249 40.8513 26.5194 40.8584 26.498ZM51.1025 19.9085C51.1025 19.9047 50.5124 18.264 49.7911 16.2624C48.4417 12.5177 48.3662 12.2924 48.2596 11.6913C48.2096 11.4094 48.1843 11.4015 48.1546 11.6588C48.1334 11.8426 48.0414 12.254 47.9705 12.4823C47.9353 12.5955 47.3277 14.3059 46.6201 16.2832C45.9126 18.2605 45.3337 19.8867 45.3337 19.8969C45.3337 19.9071 46.6317 19.9154 48.2181 19.9154C49.8045 19.9154 51.1025 19.9123 51.1025 19.9085ZM56.3219 26.2132V25.9014L59.8398 20.9417L63.3577 15.9821L60.1726 15.9713L56.9875 15.9605L56.982 15.1315L56.9764 14.3026H61.5833H66.1901V14.5826V14.8626L62.6718 19.8492C60.7367 22.5919 59.1534 24.8405 59.1534 24.8462C59.1534 24.8518 60.7177 24.8564 62.6295 24.8564H66.1056V25.6907V26.5251H61.2137H56.3219V26.2132ZM82.137 26.5106C82.1292 26.5027 82.1229 23.7526 82.1229 20.3994V14.3026H83.0844H84.0458V15.5595C84.0458 16.2508 84.054 16.8165 84.064 16.8165C84.0741 16.8165 84.1209 16.7033 84.168 16.565C84.3842 15.9312 84.7591 15.339 85.2421 14.8684C85.6771 14.4444 86.1744 14.1908 86.7612 14.0938C86.926 14.0665 87.0655 14.0613 87.3951 14.0702C87.8091 14.0812 88.0255 14.1122 88.2773 14.1966L88.3566 14.2232V15.2467V16.2702L88.1294 16.1536C87.7281 15.9476 87.3322 15.8661 86.8563 15.8914C86.5465 15.908 86.3432 15.9488 86.0955 16.0441C85.586 16.2402 85.1727 16.5863 84.8839 17.0588C84.4658 17.7429 84.1677 18.6221 84.0797 19.4303C84.0639 19.5753 84.0546 20.7564 84.0509 23.0848L84.0454 26.5251H83.0983C82.5773 26.5251 82.1447 26.5186 82.137 26.5106ZM0.345703 26.4678C0.345703 26.4601 2.46288 22.6909 5.05053 18.0919L9.75535 9.73003L15.2383 5.01117C18.2539 2.4158 20.7293 0.289141 20.7393 0.285263C20.7492 0.281385 20.7095 0.38378 20.6511 0.512808C20.5927 0.641837 17.9135 6.53519 14.6974 13.6092L8.84992 26.4709L4.59781 26.4764C2.25915 26.4794 0.345703 26.4755 0.345703 26.4678Z" fill="#0089D6"/>
</g>
<defs>
<clipPath id="clip0_3744_5641">
<rect width="99.5942" height="29.4256" fill="white" transform="translate(0.345703 0.285156)"/>
</clipPath>
</defs>
</svg>
