<svg width="64" height="38" viewBox="0 0 64 38" fill="none" xmlns="http://www.w3.org/2000/svg">
<path d="M18.6637 14.0805C18.6637 14.8196 18.7457 15.419 18.8892 15.8585C19.0532 16.298 19.2583 16.7774 19.5453 17.2968C19.6478 17.4567 19.6888 17.6165 19.6888 17.7563C19.6888 17.9561 19.5658 18.1559 19.2993 18.3556L18.0076 19.1947C17.823 19.3146 17.6385 19.3745 17.4745 19.3745C17.2695 19.3745 17.0644 19.2746 16.8594 19.0948C16.5723 18.7952 16.3263 18.4755 16.1213 18.1559C15.9162 17.8163 15.7112 17.4367 15.4857 16.9772C13.8864 18.8151 11.8771 19.7341 9.45773 19.7341C7.73546 19.7341 6.36174 19.2546 5.35708 18.2957C4.35242 17.3368 3.83984 16.0582 3.83984 14.46C3.83984 12.7619 4.45494 11.3835 5.70564 10.3447C6.95633 9.30584 8.61709 8.78643 10.7289 8.78643C11.426 8.78643 12.1436 8.84636 12.9023 8.94625C13.6609 9.04613 14.44 9.20595 15.2601 9.38575V7.92739C15.2601 6.4091 14.9321 5.3503 14.2965 4.73099C13.6404 4.11169 12.5332 3.81203 10.9545 3.81203C10.2368 3.81203 9.49873 3.89194 8.74011 4.07174C7.98149 4.25153 7.24338 4.47129 6.52577 4.75097C6.19771 4.89081 5.95168 4.97072 5.80815 5.01068C5.66463 5.05063 5.56211 5.07061 5.4801 5.07061C5.19306 5.07061 5.04953 4.87084 5.04953 4.45131V3.47241C5.04953 3.15277 5.09054 2.91304 5.19306 2.7732C5.29557 2.63336 5.4801 2.49351 5.76715 2.35367C6.48476 1.99408 7.34589 1.69441 8.35055 1.45468C9.35521 1.19498 10.4214 1.07511 11.5491 1.07511C13.9889 1.07511 15.7727 1.6145 16.9209 2.69329C18.0486 3.77207 18.6227 5.41023 18.6227 7.60775V14.0805H18.6637ZM10.3394 17.117C11.016 17.117 11.7131 16.9972 12.4512 16.7574C13.1893 16.5177 13.8454 16.0782 14.399 15.4789C14.7271 15.0993 14.9731 14.6798 15.0961 14.2003C15.2191 13.7209 15.3011 13.1415 15.3011 12.4623V11.6232C14.7066 11.4834 14.0709 11.3635 13.4148 11.2836C12.7587 11.2037 12.1231 11.1637 11.4875 11.1637C10.1138 11.1637 9.10917 11.4235 8.43256 11.9628C7.75596 12.5022 7.42791 13.2614 7.42791 14.2603C7.42791 15.1992 7.67395 15.8984 8.18653 16.3779C8.6786 16.8773 9.39622 17.117 10.3394 17.117ZM26.8034 19.2746C26.4344 19.2746 26.1884 19.2147 26.0243 19.0748C25.8603 18.955 25.7168 18.6753 25.5938 18.2957L20.7755 2.85311C20.6525 2.45356 20.591 2.19385 20.591 2.05401C20.591 1.73437 20.755 1.55457 21.0831 1.55457H23.0924C23.4819 1.55457 23.7485 1.6145 23.892 1.75435C24.056 1.87421 24.179 2.1539 24.3021 2.53347L27.7466 15.7586L30.9451 2.53347C31.0476 2.13392 31.1706 1.87421 31.3347 1.75435C31.4987 1.63448 31.7857 1.55457 32.1548 1.55457H33.795C34.1846 1.55457 34.4511 1.6145 34.6152 1.75435C34.7792 1.87421 34.9227 2.1539 35.0047 2.53347L38.2442 15.9184L41.7913 2.53347C41.9143 2.13392 42.0578 1.87421 42.2014 1.75435C42.3654 1.63448 42.6319 1.55457 43.001 1.55457H44.9078C45.2358 1.55457 45.4204 1.71439 45.4204 2.05401C45.4204 2.1539 45.3999 2.25378 45.3794 2.37365C45.3589 2.49351 45.3179 2.65333 45.2358 2.87309L40.2946 18.3157C40.1715 18.7152 40.028 18.9749 39.864 19.0948C39.7 19.2147 39.4334 19.2946 39.0849 19.2946H37.3216C36.932 19.2946 36.6655 19.2347 36.5015 19.0948C36.3374 18.955 36.1939 18.6953 36.1119 18.2957L32.9339 5.41023L29.7764 18.2757C29.6739 18.6753 29.5509 18.935 29.3869 19.0748C29.2228 19.2147 28.9358 19.2746 28.5667 19.2746H26.8034ZM53.1501 19.814C52.0839 19.814 51.0177 19.6941 49.9926 19.4544C48.9674 19.2147 48.1678 18.955 47.6347 18.6553C47.3067 18.4755 47.0811 18.2757 46.9991 18.0959C46.9171 17.9161 46.8761 17.7164 46.8761 17.5366V16.5177C46.8761 16.0982 47.0401 15.8984 47.3477 15.8984C47.4707 15.8984 47.5937 15.9184 47.7167 15.9583C47.8398 15.9983 48.0243 16.0782 48.2293 16.1581C48.9264 16.4578 49.685 16.6975 50.4847 16.8573C51.3048 17.0172 52.1044 17.0971 52.9246 17.0971C54.2163 17.0971 55.2209 16.8773 55.918 16.4378C56.6151 15.9983 56.9842 15.359 56.9842 14.5399C56.9842 13.9806 56.7997 13.5211 56.4306 13.1415C56.0615 12.7619 55.3644 12.4223 54.3598 12.1027L51.3868 11.2037C49.8901 10.7442 48.7829 10.065 48.1063 9.166C47.4297 8.28699 47.0811 7.30809 47.0811 6.26926C47.0811 5.43021 47.2657 4.69104 47.6347 4.05176C48.0038 3.41248 48.4959 2.85311 49.111 2.4136C49.726 1.95412 50.4232 1.6145 51.2433 1.37477C52.0634 1.13504 52.9245 1.03516 53.8267 1.03516C54.2778 1.03516 54.7493 1.05513 55.2004 1.11507C55.672 1.175 56.1026 1.25491 56.5331 1.33482C56.9432 1.43471 57.3327 1.53459 57.7018 1.65446C58.0709 1.77432 58.3579 1.89419 58.5629 2.01405C58.85 2.17387 59.055 2.33369 59.178 2.51349C59.3011 2.67331 59.3626 2.89306 59.3626 3.17275V4.11169C59.3626 4.53122 59.1985 4.75097 58.891 4.75097C58.727 4.75097 58.4604 4.67106 58.1119 4.51124C56.9432 3.99183 55.631 3.73212 54.1752 3.73212C53.0066 3.73212 52.0839 3.91192 51.4483 4.29149C50.8127 4.67106 50.4847 5.25041 50.4847 6.06949C50.4847 6.62886 50.6897 7.10832 51.0998 7.48789C51.5098 7.86746 52.2684 8.24703 53.3551 8.58665L56.2666 9.48564C57.7428 9.94512 58.809 10.5844 59.4446 11.4035C60.0802 12.2226 60.3877 13.1615 60.3877 14.2003C60.3877 15.0594 60.2032 15.8385 59.8546 16.5177C59.4856 17.197 58.9935 17.7963 58.3579 18.2757C57.7223 18.7752 56.9637 19.1348 56.082 19.3945C55.1594 19.6742 54.1958 19.814 53.1501 19.814Z" fill="#303245"/>
<path fill-rule="evenodd" clip-rule="evenodd" d="M57.0253 29.5309C50.2798 34.3854 40.4792 36.9625 32.0524 36.9625C20.2426 36.9625 9.60138 32.7073 1.56412 25.6353C0.928522 25.0759 1.50261 24.3168 2.26123 24.7563C10.9546 29.6707 21.6778 32.6474 32.77 32.6474C40.2537 32.6474 48.4755 31.1291 56.0412 28.0126C57.1689 27.5132 58.1325 28.7318 57.0253 29.5309Z" fill="#FF9900"/>
<path fill-rule="evenodd" clip-rule="evenodd" d="M59.8348 26.4118C58.9737 25.333 54.1349 25.8924 51.9411 26.1521C51.285 26.232 51.1825 25.6726 51.7771 25.2531C55.6317 22.6161 61.9672 23.3752 62.7053 24.2542C63.4434 25.1532 62.5003 31.3263 58.8917 34.2829C58.3381 34.7424 57.805 34.5027 58.0511 33.9034C58.8712 31.9256 60.696 27.4706 59.8348 26.4118Z" fill="#FF9900"/>
</svg>
