<?xml version="1.0" encoding="UTF-8"?>
<svg xmlns="http://www.w3.org/2000/svg" width="64" height="26" viewBox="0 0 64 26" fill="none">
  <g clip-path="url(#clip0_7500_18455)">
    <mask id="mask0_7500_18455" style="mask-type:luminance" maskUnits="userSpaceOnUse" x="0" y="0" width="64" height="25">
      <path d="M0.703125 0.347656H63.957V24.837H0.703125V0.347656Z" fill="white"></path>
    </mask>
    <g mask="url(#mask0_7500_18455)">
      <path d="M63.957 0.347658H60.4637C59.4938 0.347658 58.588 0.828387 58.0432 1.6296L53.3709 8.52344C53.3421 8.5657 53.3034 8.6003 53.2582 8.62421C53.213 8.64811 53.1626 8.66061 53.1115 8.66061C53.0604 8.66061 53.01 8.64811 52.9648 8.62421C52.9196 8.6003 52.881 8.5657 52.8522 8.52344L48.1798 1.63045C47.9122 1.23498 47.5517 0.911219 47.1298 0.687564C46.7079 0.463909 46.2376 0.347194 45.7601 0.347658H42.266L50.5902 12.6273L42.3124 24.837H45.8065C46.7756 24.837 47.6814 24.3572 48.2254 23.5551L52.8522 16.7296C52.8809 16.6871 52.9196 16.6524 52.9649 16.6284C53.0102 16.6043 53.0607 16.5918 53.1119 16.5918C53.1632 16.5918 53.2137 16.6043 53.259 16.6284C53.3042 16.6524 53.343 16.6871 53.3717 16.7296L57.9977 23.5551C58.2654 23.9505 58.6261 24.2742 59.0482 24.4977C59.4702 24.7212 59.9406 24.8377 60.4182 24.837H63.9115L55.6337 12.6273L63.957 0.347658ZM35.0778 2.85251V24.837H36.7477C37.4121 24.837 38.0492 24.5731 38.5189 24.1034C38.9887 23.6336 39.2526 22.9965 39.2526 22.3322V0.347658H37.5827C36.9184 0.347658 36.2812 0.611561 35.8115 1.08131C35.3417 1.55106 35.0778 2.18818 35.0778 2.85251ZM32.0147 0.347658H30.5286C29.7342 0.346972 28.9632 0.616539 28.3423 1.11206C27.7214 1.60758 27.2876 2.29957 27.1121 3.07432L23.7874 17.6885L20.8777 4.04675C20.3397 1.52502 17.7522 -0.175241 15.1048 0.555974C13.4188 1.02152 12.1689 2.446 11.8038 4.15723L8.9236 17.6708L5.60572 3.07517C5.4289 2.3007 4.99448 1.60917 4.37353 1.1137C3.75259 0.618236 2.98188 0.34816 2.18748 0.347658H0.703125L6.27284 24.8362H8.38299C9.31235 24.8365 10.2136 24.5177 10.9361 23.9331C11.6585 23.3485 12.1584 22.5336 12.352 21.6246L15.9119 4.91712C15.9341 4.81637 15.9898 4.72613 16.0699 4.66116C16.15 4.5962 16.2498 4.56036 16.353 4.55952C16.5638 4.55952 16.7502 4.70965 16.7941 4.91628L20.3582 21.6254C20.552 22.5342 21.0519 23.349 21.7743 23.9334C22.4968 24.5178 23.398 24.8365 24.3272 24.8362H26.4441L32.0147 0.347658Z" fill="#303245"></path>
    </g>
  </g>
  <defs>
    <clipPath id="clip0_7500_18455">
      <rect width="63.2539" height="25.3016" fill="white" transform="translate(0.703125 0.347656)"></rect>
    </clipPath>
  </defs>
</svg>
