<svg xmlns="http://www.w3.org/2000/svg" width="157" height="149" fill="none" viewBox="0 0 157 149"><path fill="#fff" d="m125.226 2.32-87.54 12.45-35.8 84.82 52.53 36.571 84.82 10.51 15.17-88.71z"/><path fill="#ffbc65" d="m101.103 102.321 18.29-74.71 5.06-24.9-87.15 11.28-35.41 84.82 99.22 3.5z"/><path stroke="#000" stroke-linecap="round" stroke-miterlimit="10" stroke-width="2.49" d="m125.744 2.32-23.37 99.581 36.3 44.2M2.964 98.581l99.41 3.32M68.065 99.73l10.84-36.28 31.7-1.11M38.315 14.521l40.59 48.93"/><path stroke="#000" stroke-linecap="round" stroke-miterlimit="10" stroke-width="2.49" d="m126.324 1.351 29 56.56-15.11 88.76-85.6-10.62-53.08-36.78 35.5-85.91z"/><path fill="#000" d="m104.333 62.311-8.94 38.91 6.98.68 8.71-39.97z"/></svg>