<svg xmlns="http://www.w3.org/2000/svg" width="375" height="743" fill="none" viewBox="0 0 375 743"><path stroke="#fff" stroke-linecap="round" stroke-width=".5" d="M14.97 630.565v-25.292M27.611 617.925H2.32M14.97 544.132V518.84M27.611 531.491H2.32M14.97 716.997v-25.292M27.611 704.356H2.32M101.4 716.997v-25.292M114.041 704.356H88.749M101.4 630.565v-25.292M114.041 617.925H88.749M187.83 630.565v-25.292M200.471 617.925h-25.292M101.4 544.132V518.84M114.041 531.491H88.749M187.83 544.132V518.84M200.471 531.491h-25.292M187.83 716.997v-25.292M200.471 704.356h-25.292M14.97 457.704v-25.292M27.611 445.063H2.32M14.97 371.268v-25.292M27.611 358.628H2.32M101.4 457.704v-25.292M114.041 445.063H88.749M187.83 457.704v-25.292M200.471 445.063h-25.292M101.4 371.268v-25.292M114.041 358.628H88.749M187.83 371.268v-25.292M200.471 358.628h-25.292M14.97 284.841v-25.292M27.611 272.2H2.32M14.97 198.405v-25.292M27.611 185.764H2.32M101.4 284.841v-25.292M114.041 272.2H88.749M187.83 284.841v-25.292M200.471 272.2h-25.292M101.4 198.405v-25.292M114.041 185.764H88.749M187.83 198.405v-25.292M200.471 185.764h-25.292M14.97 111.978V86.686M27.611 99.337H2.32M14.97 25.542V.25M27.611 12.901H2.32M101.4 111.978V86.686M114.041 99.337H88.749M187.83 111.978V86.686M200.471 99.337h-25.292M101.4 25.542V.25M114.041 12.901H88.749M187.83 25.542V.25M200.471 12.901h-25.292M274.27 630.566v-25.292M286.918 617.926h-25.292M274.27 544.133v-25.292M286.918 531.492h-25.292M274.27 716.998v-25.292M286.918 704.357h-25.292M360.699 716.998v-25.292M373.348 704.357h-25.292M360.699 630.566v-25.292M373.348 617.926h-25.292M360.699 544.133v-25.292M373.348 531.492h-25.292M274.27 457.705v-25.292M286.918 445.064h-25.292M274.27 371.269v-25.292M286.918 358.629h-25.292M360.699 457.705v-25.292M373.348 445.064h-25.292M360.699 371.269v-25.292M373.348 358.629h-25.292M274.27 284.842V259.55M286.918 272.201h-25.292M274.27 198.406v-25.292M286.918 185.766h-25.292M360.699 284.842V259.55M373.348 272.201h-25.292M360.699 198.406v-25.292M373.348 185.766h-25.292M274.27 111.979V86.687M286.918 99.338h-25.292M274.27 25.543V.251M286.918 12.903h-25.292M360.699 111.979V86.687M373.348 99.338h-25.292M360.699 25.543V.251M373.348 12.903h-25.292"/></svg>