<?xml version="1.0" encoding="UTF-8"?> <svg xmlns="http://www.w3.org/2000/svg" xmlns:xlink="http://www.w3.org/1999/xlink" width="200px" height="21px" viewBox="0 0 202 21" version="1.1"><defs><clipPath id="clip1"><path d="M 0 1.75 L 15.136719 1.75 L 15.136719 16.902344 L 0 16.902344 Z M 0 1.75 "></path></clipPath></defs><g id="surface1"><path style=" stroke:none;fill-rule:nonzero;fill:rgb(100%,100%,100%);fill-opacity:1;" d="M 198.265625 10.6875 L 198.265625 16.625 L 196.578125 16.625 L 196.578125 6.5625 L 198.265625 6.5625 L 198.265625 8.332031 C 198.847656 7.144531 199.851562 6.300781 201.816406 6.421875 L 201.816406 8.113281 C 199.609375 7.890625 198.265625 8.554688 198.265625 10.6875 Z M 198.265625 10.6875 "></path><path style=" stroke:none;fill-rule:nonzero;fill:rgb(100%,100%,100%);fill-opacity:1;" d="M 190.109375 7.929688 C 188.28125 7.929688 187.359375 9.117188 187.179688 10.867188 L 192.777344 10.867188 C 192.675781 8.996094 191.835938 7.929688 190.109375 7.929688 Z M 193.960938 16.222656 C 193.140625 16.664062 191.875 16.824219 190.851562 16.824219 C 187.097656 16.824219 185.453125 14.652344 185.453125 11.574219 C 185.453125 8.535156 187.136719 6.359375 190.1875 6.359375 C 193.28125 6.359375 194.523438 8.515625 194.523438 11.574219 L 194.523438 12.359375 L 187.199219 12.359375 C 187.4375 14.070312 188.542969 15.175781 190.910156 15.175781 C 192.074219 15.175781 193.058594 14.953125 193.960938 14.632812 Z M 193.960938 16.222656 "></path><path style=" stroke:none;fill-rule:nonzero;fill:rgb(100%,100%,100%);fill-opacity:1;" d="M 183.648438 10.726562 L 183.648438 16.625 L 181.921875 16.625 L 181.921875 10.546875 C 181.921875 8.734375 181.199219 7.929688 179.554688 7.929688 C 177.949219 7.929688 176.84375 8.996094 176.84375 11.03125 L 176.84375 16.625 L 175.117188 16.625 L 175.117188 6.5625 L 176.84375 6.5625 L 176.84375 8.210938 C 177.488281 7.023438 178.671875 6.359375 180.015625 6.359375 C 182.324219 6.359375 183.648438 7.949219 183.648438 10.726562 Z M 183.648438 10.726562 "></path><path style=" stroke:none;fill-rule:nonzero;fill:rgb(100%,100%,100%);fill-opacity:1;" d="M 170.234375 13.507812 C 170.234375 14.390625 170.757812 14.996094 171.820312 14.996094 C 172.222656 14.996094 172.605469 14.914062 172.90625 14.855469 L 172.90625 16.523438 C 172.605469 16.605469 172.261719 16.6875 171.742188 16.6875 C 169.59375 16.6875 168.550781 15.417969 168.550781 13.546875 L 168.550781 8.171875 L 166.925781 8.171875 L 166.925781 6.5625 L 168.550781 6.5625 L 168.550781 4.429688 L 170.234375 4.429688 L 170.234375 6.5625 L 172.90625 6.5625 L 172.90625 8.171875 L 170.234375 8.171875 Z M 170.234375 13.507812 "></path><path style=" stroke:none;fill-rule:nonzero;fill:rgb(100%,100%,100%);fill-opacity:1;" d="M 162.8125 10.6875 L 162.8125 16.625 L 161.125 16.625 L 161.125 6.5625 L 162.8125 6.5625 L 162.8125 8.332031 C 163.394531 7.144531 164.398438 6.300781 166.363281 6.421875 L 166.363281 8.113281 C 164.15625 7.890625 162.8125 8.554688 162.8125 10.6875 Z M 162.8125 10.6875 "></path><path style=" stroke:none;fill-rule:nonzero;fill:rgb(100%,100%,100%);fill-opacity:1;" d="M 151.117188 11.59375 C 151.117188 14.007812 152.082031 15.214844 153.867188 15.214844 C 155.410156 15.214844 156.796875 14.230469 156.796875 11.996094 L 156.796875 11.191406 C 156.796875 8.957031 155.53125 7.972656 154.066406 7.972656 C 152.121094 7.972656 151.117188 9.257812 151.117188 11.59375 Z M 156.796875 16.625 L 156.796875 14.8125 C 156.152344 16.140625 154.949219 16.824219 153.40625 16.824219 C 150.734375 16.824219 149.390625 14.550781 149.390625 11.59375 C 149.390625 8.753906 150.796875 6.359375 153.605469 6.359375 C 155.070312 6.359375 156.195312 7.023438 156.796875 8.332031 L 156.796875 6.5625 L 158.523438 6.5625 L 158.523438 16.625 Z M 156.796875 16.625 "></path><path style=" stroke:none;fill-rule:nonzero;fill:rgb(100%,100%,100%);fill-opacity:1;" d="M 148.40625 7.808594 C 148.40625 10.6875 146.800781 12.296875 143.507812 12.296875 L 140.878906 12.296875 L 140.878906 16.625 L 139.074219 16.625 L 139.074219 3.402344 L 143.507812 3.402344 C 146.800781 3.402344 148.40625 5.09375 148.40625 7.808594 Z M 143.308594 10.566406 C 145.636719 10.648438 146.539062 9.539062 146.539062 7.851562 C 146.539062 6.238281 145.636719 5.132812 143.308594 5.132812 L 140.878906 5.132812 L 140.878906 10.566406 Z M 143.308594 10.566406 "></path><path style=" stroke:none;fill-rule:nonzero;fill:rgb(100%,100%,100%);fill-opacity:1;" d="M 70.316406 7.105469 C 70.316406 9.054688 71.195312 10.589844 74.761719 11.285156 C 76.847656 11.75 77.3125 12.074219 77.3125 12.773438 C 77.3125 13.46875 76.847656 13.886719 75.367188 13.886719 C 73.652344 13.886719 71.613281 13.28125 70.269531 12.492188 L 70.269531 15.652344 C 71.335938 16.164062 72.726562 16.765625 75.367188 16.765625 C 79.070312 16.765625 80.507812 15.09375 80.507812 12.679688 M 80.507812 12.726562 C 80.507812 10.402344 79.300781 9.335938 75.828125 8.589844 C 73.929688 8.171875 73.464844 7.753906 73.464844 7.152344 C 73.464844 6.410156 74.160156 6.082031 75.410156 6.082031 C 76.941406 6.082031 78.421875 6.546875 79.859375 7.199219 L 79.859375 4.179688 C 78.839844 3.667969 77.3125 3.296875 75.503906 3.296875 C 72.078125 3.296875 70.316406 4.78125 70.316406 7.199219 "></path><path style=" stroke:none;fill-rule:nonzero;fill:rgb(100%,100%,100%);fill-opacity:1;" d="M 117.746094 3.390625 L 117.746094 16.628906 L 120.570312 16.628906 L 120.570312 6.550781 L 121.730469 9.195312 L 125.714844 16.628906 L 129.234375 16.628906 L 129.234375 3.390625 L 126.453125 3.390625 L 126.453125 11.9375 L 125.390625 9.429688 L 122.191406 3.390625 Z M 117.746094 3.390625 "></path><path style=" stroke:none;fill-rule:nonzero;fill:rgb(100%,100%,100%);fill-opacity:1;" d="M 99.867188 3.390625 L 96.808594 3.390625 L 96.808594 16.628906 L 99.867188 16.628906 Z M 99.867188 3.390625 "></path><path style=" stroke:none;fill-rule:nonzero;fill:rgb(100%,100%,100%);fill-opacity:1;" d="M 93.289062 12.679688 C 93.289062 10.355469 92.085938 9.289062 88.613281 8.546875 C 86.714844 8.128906 86.25 7.710938 86.25 7.105469 C 86.25 6.363281 86.945312 6.039062 88.195312 6.039062 C 89.722656 6.039062 91.207031 6.5 92.640625 7.152344 L 92.640625 4.132812 C 91.625 3.621094 90.09375 3.25 88.289062 3.25 C 84.859375 3.25 83.101562 4.738281 83.101562 7.152344 C 83.101562 9.101562 83.980469 10.636719 87.546875 11.332031 C 89.632812 11.796875 90.09375 12.121094 90.09375 12.820312 C 90.09375 13.515625 89.632812 13.933594 88.148438 13.933594 C 86.433594 13.933594 84.398438 13.328125 83.054688 12.539062 L 83.054688 15.699219 C 84.121094 16.210938 85.507812 16.8125 88.148438 16.8125 C 91.808594 16.8125 93.289062 15.140625 93.289062 12.679688 Z M 93.289062 12.679688 "></path><path style=" stroke:none;fill-rule:nonzero;fill:rgb(100%,100%,100%);fill-opacity:1;" d="M 46.507812 3.390625 L 46.507812 16.628906 L 52.808594 16.628906 L 53.78125 13.75 L 49.566406 13.75 L 49.566406 3.390625 Z M 46.507812 3.390625 "></path><path style=" stroke:none;fill-rule:nonzero;fill:rgb(100%,100%,100%);fill-opacity:1;" d="M 34.050781 3.390625 L 34.050781 6.222656 L 37.429688 6.222656 L 37.429688 16.628906 L 40.535156 16.628906 L 40.535156 6.222656 L 44.195312 6.222656 L 44.195312 3.390625 Z M 34.050781 3.390625 "></path><path style=" stroke:none;fill-rule:nonzero;fill:rgb(100%,100%,100%);fill-opacity:1;" d="M 29.558594 3.390625 L 25.527344 3.390625 L 20.941406 16.625 L 24.460938 16.625 L 25.109375 14.398438 C 25.898438 14.628906 26.730469 14.769531 27.566406 14.769531 C 28.398438 14.769531 29.234375 14.628906 30.019531 14.398438 L 30.667969 16.625 L 34.1875 16.625 C 34.140625 16.625 29.558594 3.390625 29.558594 3.390625 Z M 27.519531 11.980469 C 26.917969 11.980469 26.359375 11.890625 25.851562 11.75 L 27.519531 5.988281 L 29.1875 11.75 C 28.675781 11.890625 28.121094 11.980469 27.519531 11.980469 Z M 27.519531 11.980469 "></path><path style=" stroke:none;fill-rule:nonzero;fill:rgb(100%,100%,100%);fill-opacity:1;" d="M 63.691406 3.390625 L 59.664062 3.390625 L 55.03125 16.625 L 58.550781 16.625 L 59.199219 14.398438 C 59.988281 14.628906 60.820312 14.769531 61.65625 14.769531 C 62.488281 14.769531 63.324219 14.628906 64.109375 14.398438 L 64.757812 16.625 L 68.277344 16.625 Z M 61.65625 11.980469 C 61.054688 11.980469 60.496094 11.890625 59.988281 11.75 L 61.65625 5.988281 L 63.324219 11.75 C 62.8125 11.890625 62.257812 11.980469 61.65625 11.980469 Z M 61.65625 11.980469 "></path><path style=" stroke:none;fill-rule:nonzero;fill:rgb(100%,100%,100%);fill-opacity:1;" d="M 110.9375 3.390625 L 106.90625 3.390625 L 102.324219 16.625 L 105.84375 16.625 L 106.492188 14.398438 C 107.277344 14.628906 108.113281 14.769531 108.945312 14.769531 C 109.78125 14.769531 110.613281 14.628906 111.402344 14.398438 L 112.050781 16.625 L 115.570312 16.625 Z M 108.945312 11.980469 C 108.34375 11.980469 107.789062 11.890625 107.277344 11.75 L 108.945312 5.988281 L 110.613281 11.75 C 110.105469 11.890625 109.5 11.980469 108.945312 11.980469 Z M 108.945312 11.980469 "></path><g clip-path="url(#clip1)" clip-rule="nonzero"><path style=" stroke:none;fill-rule:nonzero;fill:rgb(100%,100%,100%);fill-opacity:1;" d="M 14.972656 16 L 8.046875 2.105469 C 7.910156 1.804688 7.773438 1.75 7.609375 1.75 C 7.472656 1.75 7.308594 1.804688 7.144531 2.078125 C 6.164062 3.636719 5.726562 5.441406 5.726562 7.328125 C 5.726562 9.953125 7.0625 12.414062 9.027344 16.382812 C 9.246094 16.820312 9.410156 16.902344 9.789062 16.902344 L 14.589844 16.902344 C 14.945312 16.902344 15.136719 16.765625 15.136719 16.492188 C 15.136719 16.355469 15.109375 16.273438 14.972656 16 Z M 4.910156 9.433594 C 4.363281 8.613281 4.199219 8.558594 4.0625 8.558594 C 3.925781 8.558594 3.84375 8.613281 3.601562 9.105469 L 0.136719 16.054688 C 0.0273438 16.273438 0 16.355469 0 16.464844 C 0 16.683594 0.191406 16.902344 0.601562 16.902344 L 5.480469 16.902344 C 5.808594 16.902344 6.054688 16.628906 6.191406 16.109375 C 6.355469 15.453125 6.410156 14.875 6.410156 14.191406 C 6.410156 12.277344 5.5625 10.417969 4.910156 9.433594 Z M 4.910156 9.433594 "></path></g></g></svg> 