<svg width="190" height="74" viewBox="0 0 190 74" fill="none" xmlns="http://www.w3.org/2000/svg">
<path d="M50.9082 22.3494H53.3546L60.3277 15.3762L60.6697 12.4145C47.6912 0.957851 27.8841 2.1955 16.4275 15.1739C13.2442 18.7761 10.9375 23.0669 9.67578 27.7093C10.4511 27.3914 11.3131 27.3385 12.1222 27.5648L26.0686 25.2629C26.0686 25.2629 26.7765 24.0878 27.1473 24.1601C33.35 17.3458 43.7905 16.5512 50.9563 22.3494H50.9082Z" fill="#EA4335"/>
<path d="M70.2638 27.7097C68.6602 21.8056 65.371 16.4987 60.7961 12.4438L51.0105 22.2294C55.1424 25.6053 57.4973 30.6955 57.3962 36.0313V37.7698C62.2071 37.7698 66.1078 41.6706 66.1078 46.4815C66.1078 51.2924 62.2071 55.1932 57.3962 55.1932H39.9729L38.2344 56.9557V67.4059L39.9729 69.1444H57.3962C69.9074 69.2407 80.1312 59.1758 80.2276 46.6645C80.2854 39.0653 76.5435 31.9572 70.2638 27.7097Z" fill="#4285F4"/>
<path d="M22.5253 69.0339H39.9486V55.0877H22.5253C21.2829 55.0877 20.0597 54.818 18.928 54.3027L16.4816 55.0636L9.46023 62.0367L8.84863 64.4831C12.7831 67.4592 17.5892 69.058 22.5253 69.0339Z" fill="#34A853"/>
<path d="M22.5236 23.7941C10.0075 23.8664 -0.0718503 34.0709 0.000385859 46.587C0.0437275 53.5746 3.30398 60.1529 8.8469 64.4101L18.9503 54.3066C14.568 52.3274 12.6176 47.1649 14.5969 42.7826C16.5762 38.4003 21.7386 36.4499 26.121 38.4292C28.0521 39.3008 29.5979 40.8515 30.4744 42.7826L40.5778 32.6792C36.2822 27.0544 29.5979 23.7652 22.5236 23.7941Z" fill="#FBBC05"/>
<path d="M143.079 8.56269H160.851L142.402 63.2259C142.212 63.7876 141.851 64.2757 141.37 64.6215C140.888 64.9673 140.31 65.1533 139.717 65.1535H125.886C125.437 65.1535 124.994 65.0466 124.595 64.8416C124.195 64.6366 123.85 64.3394 123.588 63.9745C123.326 63.6096 123.154 63.1877 123.088 62.7434C123.021 62.2992 123.061 61.8455 123.205 61.4199L140.394 10.4902C140.583 9.92827 140.944 9.43995 141.426 9.09404C141.908 8.74812 142.486 8.56273 143.079 8.56269Z" fill="url(#paint0_linear_2042_1038)"/>
<path d="M168.907 45.2275H140.724C140.462 45.2273 140.206 45.3059 139.989 45.4532C139.772 45.6005 139.605 45.8096 139.509 46.0534C139.413 46.2971 139.392 46.5641 139.45 46.8197C139.508 47.0753 139.641 47.3075 139.833 47.4861L157.943 64.389C158.47 64.8808 159.164 65.1543 159.885 65.1541H175.843L168.907 45.2275Z" fill="#0078D4"/>
<path d="M143.08 8.56252C142.481 8.56022 141.896 8.74967 141.412 9.10321C140.928 9.45674 140.569 9.95583 140.389 10.5276L123.228 61.3733C123.074 61.8005 123.026 62.2583 123.087 62.7079C123.148 63.1576 123.317 63.586 123.578 63.9568C123.84 64.3276 124.187 64.6299 124.59 64.8381C124.994 65.0464 125.441 65.1545 125.895 65.1533H140.083C140.611 65.0589 141.105 64.8259 141.514 64.4781C141.923 64.1304 142.232 63.6803 142.411 63.1739L145.833 53.0879L158.057 64.4898C158.57 64.9136 159.212 65.1479 159.877 65.1533H175.776L168.803 45.227L148.476 45.2317L160.916 8.56252H143.08Z" fill="url(#paint1_linear_2042_1038)"/>
<path d="M165.778 10.4873C165.589 9.92625 165.228 9.43875 164.747 9.09344C164.266 8.74813 163.689 8.56243 163.097 8.5625H143.29C143.882 8.56253 144.459 8.74827 144.94 9.09357C145.421 9.43886 145.782 9.92631 145.971 10.4873L163.16 61.419C163.304 61.8447 163.344 62.2985 163.278 62.7429C163.211 63.1872 163.04 63.6093 162.778 63.9743C162.516 64.3393 162.171 64.6367 161.771 64.8418C161.371 65.0469 160.929 65.1539 160.479 65.1539H180.287C180.736 65.1538 181.179 65.0467 181.578 64.8415C181.978 64.6364 182.323 64.339 182.585 63.974C182.847 63.6091 183.018 63.187 183.085 62.7427C183.151 62.2984 183.111 61.8447 182.967 61.419L165.778 10.4873Z" fill="url(#paint2_linear_2042_1038)"/>
<defs>
<linearGradient id="paint0_linear_2042_1038" x1="149.556" y1="12.7563" x2="131.099" y2="67.2823" gradientUnits="userSpaceOnUse">
<stop stop-color="#114A8B"/>
<stop offset="1" stop-color="#0669BC"/>
</linearGradient>
<linearGradient id="paint1_linear_2042_1038" x1="155.323" y1="38.1667" x2="151.054" y2="39.6103" gradientUnits="userSpaceOnUse">
<stop stop-opacity="0.3"/>
<stop offset="0.071" stop-opacity="0.2"/>
<stop offset="0.321" stop-opacity="0.1"/>
<stop offset="0.623" stop-opacity="0.05"/>
<stop offset="1" stop-opacity="0"/>
</linearGradient>
<linearGradient id="paint2_linear_2042_1038" x1="152.973" y1="11.1657" x2="173.233" y2="65.1423" gradientUnits="userSpaceOnUse">
<stop stop-color="#3CCBF4"/>
<stop offset="1" stop-color="#2892DF"/>
</linearGradient>
</defs>
</svg>
