<svg width="21" height="21" viewBox="0 0 21 21" fill="none" xmlns="http://www.w3.org/2000/svg">
<path d="M7.17694 9.39555C7.35896 9.29461 7.51066 9.14681 7.61631 8.96748C7.72196 8.78815 7.77771 8.58383 7.77778 8.37569V2.01639C7.7778 1.82086 7.72868 1.62846 7.63492 1.45687C7.54117 1.28528 7.40579 1.14001 7.24124 1.0344C7.07668 0.928794 6.88822 0.866239 6.69317 0.852486C6.49812 0.838733 6.30275 0.874223 6.125 0.955694C4.29943 1.79585 2.75253 3.14108 1.66714 4.83239C0.581757 6.52369 0.0032517 8.49038 0 10.5C0 10.8276 0.0155555 11.1572 0.0456944 11.4819C0.063757 11.6749 0.129599 11.8603 0.237275 12.0214C0.34495 12.1826 0.491067 12.3143 0.662428 12.4048C0.833789 12.4953 1.025 12.5417 1.21878 12.5398C1.41256 12.5379 1.60282 12.4878 1.77236 12.3939L7.17694 9.39555ZM5.44444 4.08917V7.68639L2.41208 9.36833C2.70841 7.28484 3.79401 5.39487 5.44444 4.08917ZM10.5 0C10.1906 0 9.89384 0.122916 9.67504 0.341709C9.45625 0.560501 9.33333 0.857247 9.33333 1.16667V9.87097L1.86472 14.2207C1.73191 14.298 1.6157 14.4009 1.52275 14.5233C1.4298 14.6457 1.36196 14.7852 1.32311 14.9339C1.28426 15.0826 1.27518 15.2376 1.29638 15.3898C1.31759 15.542 1.36866 15.6885 1.44667 15.821C2.3789 17.4069 3.71142 18.72 5.3108 19.6289C6.91017 20.5378 8.72027 21.0106 10.5598 20.9998C12.3994 20.9891 14.2039 20.4952 15.7925 19.5678C17.3812 18.6403 18.6983 17.3117 19.612 15.715C20.5256 14.1183 21.0038 12.3097 20.9985 10.4701C20.9933 8.6305 20.5049 6.82457 19.5821 5.23314C18.6594 3.64172 17.3347 2.32065 15.7408 1.40222C14.1468 0.483795 12.3396 0.000247635 10.5 0ZM10.5 18.6667C9.27638 18.6634 8.06896 18.3867 6.96601 17.8568C5.86306 17.3269 4.89245 16.5573 4.12514 15.6042L11.0833 11.549C11.2604 11.4468 11.4074 11.2999 11.5098 11.1229C11.6122 10.946 11.6663 10.7453 11.6667 10.5408V2.41597C13.7118 2.70914 15.5698 3.76657 16.8664 5.37519C18.1629 6.98381 18.8015 9.02404 18.6535 11.0848C18.5056 13.1456 17.5821 15.0736 16.0691 16.4806C14.5561 17.8875 12.5661 18.6686 10.5 18.6667Z" fill="#655C64"/>
<path d="M10.5 18.6667C9.27638 18.6634 8.06896 18.3867 6.96601 17.8568C5.86306 17.3269 4.89245 16.5573 4.12514 15.6042L11.0833 11.549C11.2604 11.4468 11.4074 11.2999 11.5098 11.1229C11.6122 10.946 11.6663 10.7453 11.6667 10.5408V2.41597C13.7118 2.70914 15.5698 3.76657 16.8664 5.37519C18.1629 6.98381 18.8015 9.02404 18.6535 11.0848C18.5056 13.1456 17.5821 15.0736 16.0691 16.4806C14.5561 17.8875 12.5661 18.6686 10.5 18.6667Z" fill="#655C64"/>
<path d="M5.44444 4.08917V7.68639L2.41208 9.36833C2.70841 7.28484 3.79401 5.39487 5.44444 4.08917Z" fill="#655C64"/>
</svg>
