<svg width="21" height="21" viewBox="0 0 21 21" fill="none" xmlns="http://www.w3.org/2000/svg">
<path d="M17.9025 3.08438C16.931 2.10648 15.7756 1.33049 14.5029 0.80113C13.2302 0.271768 11.8653 -0.000505049 10.4869 7.03289e-07C4.68562 7.03289e-07 0 4.69875 0 10.5C0 16.3013 4.68562 21 10.4869 21C15.3825 21 19.4644 17.6531 20.6325 13.125H17.9025C17.3618 14.66 16.3581 15.9894 15.0299 16.9297C13.7016 17.8701 12.1143 18.3751 10.4869 18.375C6.1425 18.375 2.61187 14.8444 2.61187 10.5C2.61187 6.15563 6.1425 2.625 10.4869 2.625C12.6656 2.625 14.6081 3.53063 16.0256 4.96125L11.7994 9.1875H20.9869V7.03289e-07L17.9025 3.08438Z" fill="#655C64"/>
</svg>
