<svg width="180" height="75" viewBox="0 0 180 75" fill="none" xmlns="http://www.w3.org/2000/svg">
<path d="M51.242 22.8965H53.7045L60.7235 15.8775L61.0677 12.8963C48.0039 1.36426 28.0664 2.61005 16.5344 15.6739C13.3302 19.2997 11.0083 23.6188 9.73828 28.2917C10.5187 27.9718 11.3864 27.9185 12.2008 28.1463L26.2389 25.8292C26.2389 25.8292 26.9515 24.6465 27.3248 24.7192C33.5682 17.8601 44.0775 17.0602 51.2905 22.8965H51.242Z" fill="#EA4335"/>
<path d="M70.7265 28.2921C69.1123 22.3492 65.8015 17.0073 61.1965 12.9258L51.3465 22.7758C55.5056 26.1738 57.876 31.2975 57.7742 36.6685V38.4184C62.6168 38.4184 66.5432 42.3448 66.5432 47.1874C66.5432 52.03 62.6168 55.9564 57.7742 55.9564H40.2362L38.4863 57.7306V68.2495L40.2362 69.9994H57.7742C70.3678 70.0963 80.6589 59.9652 80.7558 47.3716C80.814 39.7224 77.0476 32.5676 70.7265 28.2921Z" fill="#4285F4"/>
<path d="M22.6729 69.8882H40.2109V55.8502H22.6729C21.4223 55.8502 20.191 55.5787 19.0519 55.0601L16.5894 55.8259L9.52187 62.8449L8.90625 65.3074C12.8666 68.3031 17.7043 69.9124 22.6729 69.8882Z" fill="#34A853"/>
<path d="M22.6718 24.3508C10.0733 24.4235 -0.0723231 34.6952 0.000388398 47.2936C0.0440153 54.3273 3.32573 60.9488 8.90512 65.234L19.075 55.0641C14.6639 53.0718 12.7007 47.8753 14.693 43.4642C16.6852 39.053 21.8817 37.0898 26.2928 39.0821C28.2367 39.9595 29.7927 41.5204 30.6749 43.4642L40.8448 33.2943C36.5209 27.6325 29.7927 24.3217 22.6718 24.3508Z" fill="#FBBC05"/>
<path d="M132.074 8.71212H150.156L131.385 64.3281C131.192 64.8996 130.825 65.3962 130.335 65.748C129.845 66.0998 129.257 66.2891 128.654 66.2892H114.582C114.125 66.2893 113.674 66.1805 113.268 65.9719C112.861 65.7633 112.51 65.4609 112.244 65.0897C111.977 64.7185 111.803 64.2892 111.735 63.8372C111.667 63.3852 111.708 62.9236 111.854 62.4906L129.342 10.6732C129.535 10.1015 129.903 9.60467 130.393 9.25273C130.883 8.90078 131.471 8.71215 132.074 8.71212Z" fill="url(#paint0_linear_2161_2157)"/>
<path d="M158.352 46.0161H129.678C129.412 46.0158 129.151 46.0958 128.931 46.2457C128.71 46.3955 128.54 46.6083 128.442 46.8563C128.344 47.1043 128.323 47.376 128.382 47.636C128.441 47.896 128.577 48.1323 128.772 48.3141L147.197 65.5115C147.734 66.0119 148.44 66.2901 149.174 66.29H165.41L158.352 46.0161Z" fill="#0078D4"/>
<path d="M132.076 8.71194C131.467 8.70959 130.872 8.90235 130.379 9.26205C129.887 9.62174 129.522 10.1295 129.338 10.7112L111.878 62.4432C111.722 62.8778 111.673 63.3435 111.735 63.8011C111.797 64.2586 111.969 64.6944 112.235 65.0717C112.501 65.4489 112.854 65.7565 113.265 65.9684C113.675 66.1803 114.13 66.2903 114.592 66.289H129.027C129.565 66.193 130.067 65.9559 130.483 65.6021C130.899 65.2483 131.214 64.7904 131.395 64.2751L134.877 54.0133L147.315 65.614C147.836 66.0451 148.49 66.2835 149.166 66.289H165.342L158.247 46.0154L137.566 46.0203L150.224 8.71194H132.076Z" fill="url(#paint1_linear_2161_2157)"/>
<path d="M155.169 10.6702C154.976 10.0994 154.61 9.60343 154.12 9.25211C153.631 8.90078 153.044 8.71184 152.441 8.71191H132.289C132.891 8.71195 133.479 8.90093 133.968 9.25224C134.457 9.60355 134.824 10.0995 135.017 10.6702L152.506 62.4897C152.652 62.9228 152.693 63.3845 152.625 63.8366C152.558 64.2887 152.383 64.7182 152.117 65.0895C151.85 65.4608 151.499 65.7634 151.092 65.9721C150.686 66.1808 150.235 66.2897 149.778 66.2897H169.931C170.388 66.2896 170.838 66.1806 171.245 65.9719C171.651 65.7631 172.003 65.4606 172.269 65.0892C172.536 64.7179 172.71 64.2884 172.777 63.8364C172.845 63.3844 172.804 62.9227 172.658 62.4897L155.169 10.6702Z" fill="url(#paint2_linear_2161_2157)"/>
<defs>
<linearGradient id="paint0_linear_2161_2157" x1="138.665" y1="12.9788" x2="119.886" y2="68.4552" gradientUnits="userSpaceOnUse">
<stop stop-color="#114A8B"/>
<stop offset="1" stop-color="#0669BC"/>
</linearGradient>
<linearGradient id="paint1_linear_2161_2157" x1="144.533" y1="38.8321" x2="140.189" y2="40.3008" gradientUnits="userSpaceOnUse">
<stop stop-opacity="0.3"/>
<stop offset="0.071" stop-opacity="0.2"/>
<stop offset="0.321" stop-opacity="0.1"/>
<stop offset="0.623" stop-opacity="0.05"/>
<stop offset="1" stop-opacity="0"/>
</linearGradient>
<linearGradient id="paint2_linear_2161_2157" x1="142.141" y1="11.3605" x2="162.754" y2="66.2779" gradientUnits="userSpaceOnUse">
<stop stop-color="#3CCBF4"/>
<stop offset="1" stop-color="#2892DF"/>
</linearGradient>
</defs>
</svg>
