<svg width="100" height="100" viewBox="0 0 100 100" fill="none" xmlns="http://www.w3.org/2000/svg">
<path d="M0 30C0 13.4315 13.4315 0 30 0H70C86.5685 0 100 13.4315 100 30V70C100 86.5685 86.5685 100 70 100H30C13.4315 100 0 86.5685 0 70V30Z" fill="#F6F6F6" fill-opacity="0.968627"/>
<path d="M63.9116 33.653L54.5787 30.7058C53.0975 30.238 51.5534 30 50 30C48.4466 30 46.9025 30.238 45.4213 30.7058L36.0884 33.653C34.1383 34.2688 32.8125 36.0778 32.8125 38.1229V54.3252C32.8125 57.3041 34.2281 60.1056 36.6263 61.8727L45.7694 68.6097C46.9951 69.5128 48.4776 70 50 70C51.5224 70 53.0049 69.5128 54.2306 68.6097L63.3737 61.8727C65.7719 60.1056 67.1875 57.3041 67.1875 54.3252V38.1229C67.1875 36.0778 65.8617 34.2688 63.9116 33.653ZM57.1816 47.7903L49.4476 55.5243C48.5323 56.4396 47.0483 56.4396 46.133 55.5243L42.8184 52.2098C41.9031 51.2945 41.9031 49.8105 42.8184 48.8952C43.7338 47.9799 45.2177 47.9799 46.133 48.8952C47.0483 49.8105 48.5322 49.8105 49.4475 48.8952L53.867 44.4758C54.7823 43.5605 56.2663 43.5605 57.1815 44.4758C58.0969 45.391 58.0969 46.875 57.1816 47.7903Z" fill="url(#paint0_linear_3547_3456)"/>
<defs>
<linearGradient id="paint0_linear_3547_3456" x1="63.5909" y1="0.784403" x2="24.8784" y2="5.5501" gradientUnits="userSpaceOnUse">
<stop stop-color="#C960FB"/>
<stop offset="0.9828" stop-color="#9D60FB"/>
</linearGradient>
</defs>
</svg>
