<svg width="100" height="100" viewBox="0 0 100 100" fill="none" xmlns="http://www.w3.org/2000/svg">
<path d="M0 30C0 13.4315 13.4315 0 30 0H70C86.5685 0 100 13.4315 100 30V70C100 86.5685 86.5685 100 70 100H30C13.4315 100 0 86.5685 0 70V30Z" fill="#F6F6F6" fill-opacity="0.968627"/>
<path d="M42.8354 59.9254C41.8967 60.4489 40.9766 61.2822 40.9766 62.357C40.9766 63.0669 40.5917 63.721 39.9711 64.0657L38.7291 64.7558C37.4962 65.4408 35.9417 65.125 34.5312 65.125C32.6358 65.125 31.0938 66.6671 31.0938 68.5625C31.0938 70.4579 32.6358 72 34.5312 72C36.4267 72 37.9688 70.4579 37.9688 68.5625C37.9688 68.3078 38.0878 68.0612 38.3105 67.9375L42.8916 65.3924C43.3009 65.1651 43.5547 64.7337 43.5547 64.2656V60.2115C43.5547 59.8966 43.2112 59.7022 42.9413 59.8642C42.9063 59.8852 42.871 59.9056 42.8354 59.9254Z" fill="url(#paint0_linear_3547_3463)"/>
<path d="M52.0389 65.7974C51.6198 65.4877 51.2891 65.0358 51.2891 64.5147C51.2891 63.8076 50.7071 63.2344 50 63.2344C49.2929 63.2344 48.7109 63.8076 48.7109 64.5148C48.7109 65.0359 48.3802 65.4877 47.9612 65.7974C47.1134 66.4239 46.5625 67.4298 46.5625 68.5625C46.5625 70.4579 48.1046 72 50 72C51.8954 72 53.4375 70.4579 53.4375 68.5625C53.4375 67.4298 52.8866 66.4238 52.0389 65.7974Z" fill="url(#paint1_linear_3547_3463)"/>
<path d="M65.4688 65.125C64.0583 65.125 62.5039 65.4407 61.271 64.7557L60.029 64.0658C59.4083 63.721 59.0234 63.0668 59.0234 62.3568C59.0234 61.2821 58.1033 60.4489 57.1647 59.9254C57.1291 59.9056 57.0938 59.8852 57.0588 59.8642C56.7888 59.7022 56.4453 59.8967 56.4453 60.2115V64.2656C56.4453 64.7337 56.6991 65.1651 57.1084 65.3924L61.6895 67.9375C61.9122 68.0612 62.0312 68.3078 62.0312 68.5625C62.0312 70.4579 63.5733 72 65.4688 72C67.3642 72 68.9062 70.4579 68.9062 68.5625C68.9062 66.6671 67.3642 65.125 65.4688 65.125Z" fill="url(#paint2_linear_3547_3463)"/>
<path d="M59.96 57.4596L63.1315 54.288C63.5498 53.8698 63.6297 53.2205 63.3254 52.7133L62.8085 51.8518C62.3982 51.1678 62.3874 50.3271 62.6921 49.59C62.997 48.8523 63.6013 48.2589 64.3757 48.0653L65.3517 47.8213C65.9255 47.6779 66.3281 47.1623 66.3281 46.5707V42.0855C66.3281 41.494 65.9255 40.9784 65.3517 40.8349L64.3757 40.5909C63.6013 40.3973 62.997 39.804 62.6921 39.0663C62.3874 38.3291 62.3981 37.4884 62.8085 36.8043L63.3254 35.9429C63.6297 35.4357 63.5498 34.7864 63.1315 34.3681L59.9601 31.1966C59.5418 30.7784 58.8926 30.6984 58.3854 31.0027L57.5238 31.5196C56.8398 31.93 55.999 31.9407 55.2619 31.636C54.5242 31.3311 53.9309 30.7269 53.7373 29.9525L53.4933 28.9764C53.3498 28.4025 52.8341 28 52.2426 28H47.7574C47.1659 28 46.6502 28.4025 46.5068 28.9764L46.2628 29.9525C46.0692 30.7269 45.4759 31.3311 44.7382 31.636C44.0011 31.9407 43.1604 31.9301 42.4765 31.5197L41.6147 31.0027C41.1075 30.6984 40.4583 30.7784 40.0401 31.1966L36.8686 34.3681C36.4503 34.7864 36.3704 35.4357 36.6747 35.9429L37.1916 36.8043C37.602 37.4883 37.6126 38.3291 37.3079 39.0663C37.003 39.804 36.3988 40.3973 35.6244 40.5909L34.6484 40.8349C34.0744 40.9784 33.6719 41.494 33.6719 42.0855V46.5707C33.6719 47.1623 34.0744 47.6779 34.6483 47.8213L35.6243 48.0653C36.3987 48.2589 37.003 48.8523 37.3079 49.59C37.6126 50.3272 37.6019 51.1678 37.1915 51.8517L36.6746 52.7133C36.3703 53.2205 36.4502 53.8698 36.8685 54.288L40.04 57.4596C40.4583 57.8779 41.1075 57.9578 41.6147 57.6535L42.4762 57.1366C43.1602 56.7262 44.0011 56.7156 44.7383 57.0203C45.4759 57.3252 46.0691 57.9295 46.2627 58.7038L46.5067 59.6799C46.6502 60.2537 47.1658 60.6563 47.7573 60.6563H52.2425C52.834 60.6563 53.3497 60.2538 53.4931 59.6799L53.7371 58.7039C53.9307 57.9295 54.5239 57.3253 55.2616 57.0203C55.9988 56.7156 56.8396 56.7262 57.5236 57.1366L58.3851 57.6535C58.8925 57.9578 59.5417 57.8779 59.96 57.4596ZM50 50.3438C46.6777 50.3438 43.9844 47.6505 43.9844 44.3281C43.9844 41.0058 46.6777 38.3125 50 38.3125C53.3223 38.3125 56.0156 41.0058 56.0156 44.3281C56.0156 47.6505 53.3223 50.3438 50 50.3438Z" fill="url(#paint3_linear_3547_3463)"/>
<defs>
<linearGradient id="paint0_linear_3547_3463" x1="64.95" y1="-4.13716" x2="22.3663" y2="1.10511" gradientUnits="userSpaceOnUse">
<stop stop-color="#C960FB"/>
<stop offset="0.9828" stop-color="#9D60FB"/>
</linearGradient>
<linearGradient id="paint1_linear_3547_3463" x1="64.95" y1="-4.13716" x2="22.3663" y2="1.10511" gradientUnits="userSpaceOnUse">
<stop stop-color="#C960FB"/>
<stop offset="0.9828" stop-color="#9D60FB"/>
</linearGradient>
<linearGradient id="paint2_linear_3547_3463" x1="64.95" y1="-4.13716" x2="22.3663" y2="1.10511" gradientUnits="userSpaceOnUse">
<stop stop-color="#C960FB"/>
<stop offset="0.9828" stop-color="#9D60FB"/>
</linearGradient>
<linearGradient id="paint3_linear_3547_3463" x1="64.95" y1="-4.13716" x2="22.3663" y2="1.10511" gradientUnits="userSpaceOnUse">
<stop stop-color="#C960FB"/>
<stop offset="0.9828" stop-color="#9D60FB"/>
</linearGradient>
</defs>
</svg>
