<svg width="14" height="21" viewBox="0 0 14 21" fill="none" xmlns="http://www.w3.org/2000/svg">
<path d="M13.4156 10.5368L8.4686 7.66957L10.9625 1.6844C11.0495 1.50663 11.0901 1.3097 11.0803 1.11201C11.0705 0.914333 11.0107 0.722369 10.9065 0.554086C10.8023 0.385803 10.6571 0.246702 10.4845 0.149798C10.312 0.052895 10.1176 0.00135745 9.91969 8.27152e-06C9.65661 -0.000982094 9.40092 0.0869879 9.19414 0.249634L9.11249 0.319622L0.363936 8.60159C0.232421 8.72648 0.131776 8.88028 0.0699658 9.05079C0.00815603 9.2213 -0.0131227 9.40386 0.00781289 9.58402C0.0287485 9.76418 0.0913241 9.937 0.190588 10.0888C0.289853 10.2406 0.423082 10.3672 0.579734 10.4586L5.52792 13.3281L3.00483 19.3821C2.90076 19.6291 2.88498 19.9043 2.96015 20.1616C3.03532 20.4188 3.19684 20.6422 3.41751 20.7943C3.63818 20.9463 3.9045 21.0177 4.17163 20.9963C4.43875 20.9749 4.69034 20.8621 4.88402 20.6769L13.6326 12.3926C13.7638 12.2676 13.8642 12.1139 13.9258 11.9434C13.9873 11.773 14.0084 11.5905 13.9874 11.4105C13.9664 11.2305 13.9037 11.0579 13.8045 10.9062C13.7053 10.7546 13.5721 10.6281 13.4156 10.5368Z" fill="#655C64"/>
</svg>
