<svg width="68" height="63" viewBox="0 0 68 63" fill="none" xmlns="http://www.w3.org/2000/svg">
<path d="M7.19043 9.37256H23.9863C25.5118 9.37268 26.975 9.97846 28.0537 11.0571L30.9404 13.9448L32.8291 15.8335C33.9078 16.9123 34.5146 18.3753 34.5146 19.9009V46.6831C34.5144 49.8599 31.9385 52.4351 28.7617 52.4351H7.19043C4.01364 52.435 1.4387 49.8598 1.43848 46.6831V15.1245C1.43849 11.9476 4.01351 9.37258 7.19043 9.37256Z" stroke="white" stroke-width="2.87619"/>
<path d="M23.9688 15.1244V8.93262L25.9661 9.93129L33.9555 16.922L34.9542 19.918H28.7624C26.1149 19.918 23.9688 17.7719 23.9688 15.1244Z" fill="white"/>
<path d="M6.61147 33.5991H27.336C27.6801 33.5991 27.9591 33.2192 27.9591 32.7502C27.9591 32.2813 27.6802 31.9014 27.336 31.9014H6.61147C6.26732 31.9014 5.98828 32.2813 5.98828 32.7502C5.98828 33.2192 6.26722 33.5991 6.61147 33.5991Z" fill="white"/>
<path d="M6.38486 39.5884H19.5732C19.7922 39.5884 19.9697 39.2084 19.9697 38.7395C19.9697 38.2706 19.7922 37.8906 19.5732 37.8906H6.38486C6.16585 37.8906 5.98828 38.2706 5.98828 38.7395C5.98828 39.2084 6.16579 39.5884 6.38486 39.5884Z" fill="white"/>
<path d="M6.61147 45.5864H27.336C27.6801 45.5864 27.9591 45.2065 27.9591 44.7375C27.9591 44.2686 27.6802 43.8887 27.336 43.8887H6.61147C6.26732 43.8887 5.98828 44.2686 5.98828 44.7375C5.98828 45.2065 6.26722 45.5864 6.61147 45.5864Z" fill="white"/>
<mask id="path-6-inside-1_318_4806" fill="white">
<path d="M13.582 15.9199C14.9056 15.9199 15.9783 16.9928 15.9785 18.3164V23.5098C15.9785 24.8335 14.9058 25.9062 13.582 25.9062H8.38867C7.06505 25.9061 5.99219 24.8334 5.99219 23.5098V18.3164C5.99237 16.9929 7.06516 15.92 8.38867 15.9199H13.582Z"/>
</mask>
<path d="M13.582 15.9199L13.582 13.5231H13.582V15.9199ZM15.9785 18.3164H18.3753V18.3161L15.9785 18.3164ZM13.582 25.9062V28.3031H13.582L13.582 25.9062ZM8.38867 25.9062L8.38845 28.3031H8.38867V25.9062ZM5.99219 18.3164L3.59537 18.3161V18.3164H5.99219ZM8.38867 15.9199V13.5231H8.38845L8.38867 15.9199ZM13.582 15.9199L13.582 18.3167L13.5817 18.3167L15.9785 18.3164L18.3753 18.3161C18.375 15.6694 16.2297 13.5231 13.582 13.5231L13.582 15.9199ZM15.9785 18.3164H13.5817V23.5098H15.9785H18.3753V18.3164H15.9785ZM15.9785 23.5098H13.5817L13.582 23.5094L13.582 25.9062L13.582 28.3031C16.2295 28.3031 18.3753 26.1572 18.3753 23.5098H15.9785ZM13.582 25.9062V23.5094H8.38867V25.9062V28.3031H13.582V25.9062ZM8.38867 25.9062L8.3889 23.5094L8.38901 23.5098H5.99219H3.59537C3.59537 26.1574 5.74149 28.3028 8.38845 28.3031L8.38867 25.9062ZM5.99219 23.5098H8.38901V18.3164H5.99219H3.59537V23.5098H5.99219ZM5.99219 18.3164L8.38901 18.3167L8.3889 18.3167L8.38867 15.9199L8.38845 13.5231C5.74128 13.5233 3.59573 15.6692 3.59537 18.3161L5.99219 18.3164ZM8.38867 15.9199V18.3167H13.582V15.9199V13.5231H8.38867V15.9199Z" fill="white" mask="url(#path-6-inside-1_318_4806)"/>
<path d="M38.3467 9.37256H55.1426C56.668 9.37268 58.1313 9.97846 59.21 11.0571L62.0967 13.9448L63.9854 15.8335C65.0641 16.9123 65.6709 18.3753 65.6709 19.9009V46.6831C65.6707 49.8599 63.0948 52.4351 59.918 52.4351H38.3467C35.1699 52.435 32.5949 49.8598 32.5947 46.6831V15.1245C32.5947 11.9476 35.1698 9.37258 38.3467 9.37256Z" stroke="white" stroke-width="2.87619"/>
<path d="M37.7677 33.5991H58.4922C58.8364 33.5991 59.1154 33.2192 59.1154 32.7502C59.1154 32.2813 58.8365 31.9014 58.4922 31.9014H37.7677C37.4236 31.9014 37.1445 32.2813 37.1445 32.7502C37.1445 33.2192 37.4235 33.5991 37.7677 33.5991Z" fill="white"/>
<path d="M37.5411 39.5884H50.7294C50.9484 39.5884 51.126 39.2084 51.126 38.7395C51.126 38.2706 50.9485 37.8906 50.7294 37.8906H37.5411C37.3221 37.8906 37.1445 38.2706 37.1445 38.7395C37.1445 39.2084 37.322 39.5884 37.5411 39.5884Z" fill="white"/>
<path d="M37.7677 45.5864H58.4922C58.8364 45.5864 59.1154 45.2065 59.1154 44.7375C59.1154 44.2686 58.8365 43.8887 58.4922 43.8887H37.7677C37.4236 43.8887 37.1445 44.2686 37.1445 44.7375C37.1445 45.2065 37.4235 45.5864 37.7677 45.5864Z" fill="white"/>
<mask id="path-12-inside-2_318_4806" fill="white">
<path d="M44.7344 15.9199C46.058 15.9199 47.1317 16.9928 47.1318 18.3164V23.5098C47.1318 24.8335 46.0581 25.9062 44.7344 25.9062H39.541C38.2175 25.906 37.1445 24.8333 37.1445 23.5098V18.3164C37.1447 16.993 38.2176 15.9202 39.541 15.9199H44.7344Z"/>
</mask>
<path d="M47.1318 18.3164H49.5287V18.3161L47.1318 18.3164ZM39.541 25.9062L39.5406 28.3031H39.541V25.9062ZM37.1445 18.3164L34.7477 18.3161V18.3164H37.1445ZM39.541 15.9199V13.5231H39.5406L39.541 15.9199ZM44.7344 15.9199V18.3167L44.735 18.3167L47.1318 18.3164L49.5287 18.3161C49.5283 15.6681 47.3808 13.5231 44.7344 13.5231V15.9199ZM47.1318 18.3164H44.735V23.5098H47.1318H49.5287V18.3164H47.1318ZM47.1318 23.5098H44.735L44.7344 23.5094V25.9062V28.3031C47.3806 28.3031 49.5287 26.1585 49.5287 23.5098H47.1318ZM44.7344 25.9062V23.5094H39.541V25.9062V28.3031H44.7344V25.9062ZM39.541 25.9062L39.5415 23.5094L39.5414 23.5098H37.1445H34.7477C34.7477 26.1575 36.8941 28.3026 39.5406 28.3031L39.541 25.9062ZM37.1445 23.5098H39.5414V18.3164H37.1445H34.7477V23.5098H37.1445ZM37.1445 18.3164L39.5414 18.3167L39.5415 18.3167L39.541 15.9199L39.5406 13.5231C36.8939 13.5236 34.7481 15.6691 34.7477 18.3161L37.1445 18.3164ZM39.541 15.9199V18.3167H44.7344V15.9199V13.5231H39.541V15.9199Z" fill="white" mask="url(#path-12-inside-2_318_4806)"/>
<path d="M19.1787 5.13135H41.3672C42.7974 5.1314 44.1694 5.69914 45.1807 6.71045L49.0664 10.5962L51.7539 13.2847C52.765 14.2959 53.3329 15.6671 53.333 17.0972V51.27C53.333 54.2484 50.9188 56.6626 47.9404 56.6626H19.1787C16.2004 56.6626 13.7862 54.2484 13.7861 51.27V10.5239C13.7861 7.54556 16.2003 5.13137 19.1787 5.13135Z" fill="#D079D1" stroke="white" stroke-width="3.59523"/>
<path d="M40.7461 12.9201V4.53125L43.1429 5.72966L52.7302 14.1185L53.9286 17.7138H45.5397C42.8923 17.7138 40.7461 15.5676 40.7461 12.9201Z" fill="white"/>
<path d="M19.9236 34.1296H44.793C45.206 34.1296 45.5408 33.6736 45.5408 33.1109C45.5408 32.5482 45.2061 32.0923 44.793 32.0923H19.9236C19.5106 32.0923 19.1758 32.5482 19.1758 33.1109C19.1758 33.6736 19.5105 34.1296 19.9236 34.1296Z" fill="white"/>
<path d="M19.6517 41.3259H35.4776C35.7404 41.3259 35.9535 40.8699 35.9535 40.3072C35.9535 39.7445 35.7405 39.2886 35.4776 39.2886H19.6517C19.3889 39.2886 19.1758 39.7445 19.1758 40.3072C19.1758 40.8699 19.3888 41.3259 19.6517 41.3259Z" fill="white"/>
<path d="M19.9236 48.5134H44.793C45.206 48.5134 45.5408 48.0574 45.5408 47.4947C45.5408 46.932 45.2061 46.4761 44.793 46.4761H19.9236C19.5106 46.4761 19.1758 46.932 19.1758 47.4947C19.1758 48.0574 19.5105 48.5134 19.9236 48.5134Z" fill="white"/>
<path d="M28.7627 12.917C30.0863 12.917 31.16 13.9899 31.1602 15.3135V22.5039C31.1602 23.8276 30.0864 24.9014 28.7627 24.9014H21.5723C20.2487 24.9011 19.1758 23.8275 19.1758 22.5039V15.3135C19.1759 13.99 20.2488 12.9172 21.5723 12.917H28.7627ZM28.2207 15.9121C27.9797 15.9225 27.7594 16.0158 27.5918 16.1924L24.291 19.4648C24.1967 19.5479 24.0497 19.548 23.9658 19.4648L22.7617 18.2705C21.9025 17.377 20.5715 18.696 21.4727 19.5479L23.6416 21.709C23.9036 21.9686 24.3435 21.9686 24.6055 21.709L28.8809 17.4707C29.4781 16.889 29.0587 15.8916 28.2207 15.9121Z" fill="white"/>
</svg>
