<?xml version="1.0" encoding="UTF-8"?>
<svg xmlns="http://www.w3.org/2000/svg" width="80" height="80" viewBox="0 0 80 80" fill="none">
  <g clip-path="url(#clip0_3744_5351)">
    <path d="M52.2863 30.9994C52.5906 30.1913 53.3638 29.6562 54.2273 29.6562H57.0435C57.9161 29.6562 58.6954 30.2024 58.9931 31.0227L71.0296 64.1847C71.5205 65.5372 70.5188 66.9664 69.08 66.9664H67.976C67.0937 66.9664 66.3079 66.4082 66.0175 65.575L63.0921 57.1825C62.8017 56.3493 62.016 55.7911 61.1336 55.7911H49.4247C48.5515 55.7911 47.7718 56.338 47.4745 57.159L44.4188 65.5985C44.1215 66.4195 43.3418 66.9664 42.4686 66.9664H41.7395C40.2901 66.9664 39.2877 65.5178 39.7985 64.1614L52.2863 30.9994ZM58.2539 51.6761C59.6814 51.6761 60.6822 50.2675 60.2125 48.9195L57.35 40.7053C56.7075 38.8618 54.106 38.846 53.4413 40.6816L50.4664 48.8958C49.9767 50.248 50.9784 51.6761 52.4166 51.6761H58.2539Z" fill="white"></path>
    <path d="M48.2703 53.8023C47.8268 54.8371 46.6359 55.3334 45.6083 54.8735C39.476 52.1292 35.5277 48.8389 31.5793 45.5487C31.5793 45.5487 31.2017 45.8649 30.692 46.2577C27.2666 48.8973 21.6019 52.3178 18.8026 53.9668C17.8633 54.52 16.6614 54.2365 16.0567 53.3295L15.4257 52.383C14.777 51.41 15.0629 50.0922 16.0567 49.4759C19.8853 47.1013 21.7318 45.9818 26.0332 42.7042C27.0498 41.9296 27.1407 40.4007 26.2878 39.4489C24.1742 37.0902 20.8975 33.0523 19.3633 29.7974C18.8168 28.6381 19.7422 27.4878 21.0238 27.4878H23.0071C23.8267 27.4878 24.564 27.9737 24.9295 28.7074C26.7717 32.4058 29.0048 35.0343 30.3576 36.434C31.0426 37.1427 32.141 37.168 32.8565 36.4901C36.8002 32.7539 38.1287 28.4259 38.5763 25.9338C38.7788 24.8064 39.7323 23.8756 40.8778 23.8756H42.3434C43.5516 23.8756 44.4773 24.899 44.2211 26.0797C43.5788 29.0392 41.8497 34.5253 37.3303 39.699C36.5767 40.5617 36.5667 41.8751 37.4034 42.6574C40.2036 45.2758 43.2344 47.5303 47.7834 49.7429C48.8038 50.2392 49.281 51.4439 48.834 52.4868L48.2703 53.8023ZM9.90625 21.8015C9.90625 22.947 10.8348 23.8756 11.9803 23.8756H48.2886C49.4341 23.8756 50.3627 22.947 50.3627 21.8015V20.1702C50.3627 19.0247 49.4341 18.0961 48.2886 18.0961H35.8207C34.6752 18.0961 33.7466 17.1675 33.7466 16.022V15.1131C33.7466 13.9677 32.818 13.0391 31.6726 13.0391H29.3188C28.1733 13.0391 27.2447 13.9677 27.2447 15.1131V16.022C27.2447 17.1675 26.3161 18.0961 25.1706 18.0961H11.9803C10.8348 18.0961 9.90625 19.0247 9.90625 20.1702V21.8015Z" fill="white"></path>
  </g>
  <defs>
    <clipPath id="clip0_3744_5351">
      <rect width="62.2222" height="62.2222" fill="white" transform="translate(9.90625 8.89062)"></rect>
    </clipPath>
  </defs>
</svg>
