<svg width="62" height="36" viewBox="0 0 62 36" fill="none" xmlns="http://www.w3.org/2000/svg">
<g clip-path="url(#clip0_2080_2305)">
<path d="M17.8647 13.0745C17.8647 13.8153 17.9448 14.416 18.085 14.8565C18.2452 15.297 18.4454 15.7775 18.7257 16.2981C18.8258 16.4583 18.8658 16.6184 18.8658 16.7586C18.8658 16.9588 18.7457 17.159 18.4854 17.3593L17.224 18.2002C17.0438 18.3203 16.8636 18.3804 16.7034 18.3804C16.5032 18.3804 16.303 18.2803 16.1028 18.1001C15.8225 17.7997 15.5822 17.4794 15.382 17.159C15.1818 16.8187 14.9815 16.4382 14.7613 15.9777C13.1996 17.8198 11.2374 18.7408 8.87476 18.7408C7.19289 18.7408 5.8514 18.2603 4.87032 17.2992C3.88923 16.3381 3.38867 15.0567 3.38867 13.4549C3.38867 11.753 3.98934 10.3715 5.21069 9.33035C6.43205 8.2892 8.05385 7.76862 10.1161 7.76862C10.7969 7.76862 11.4977 7.82869 12.2385 7.9288C12.9793 8.02891 13.7402 8.18909 14.541 8.36929V6.90766C14.541 5.38598 14.2207 4.3248 13.6 3.70411C12.9593 3.08342 11.8781 2.78309 10.3364 2.78309C9.6356 2.78309 8.9148 2.86318 8.17398 3.04338C7.43316 3.22358 6.71236 3.44382 6.01158 3.72413C5.69123 3.86429 5.45096 3.94438 5.3108 3.98442C5.17065 4.02446 5.07054 4.04449 4.99045 4.04449C4.71014 4.04449 4.56998 3.84426 4.56998 3.4238V2.44271C4.56998 2.12235 4.61003 1.88209 4.71014 1.74193C4.81025 1.60178 4.99045 1.46162 5.27076 1.32147C5.97154 0.961066 6.81247 0.660733 7.79356 0.420466C8.77465 0.160178 9.8158 0.0400444 10.917 0.0400444C13.2997 0.0400444 15.0416 0.580644 16.1628 1.66184C17.2641 2.74304 17.8247 4.38486 17.8247 6.58731V13.0745H17.8647ZM9.73571 16.1179C10.3964 16.1179 11.0772 15.9977 11.798 15.7575C12.5188 15.5172 13.1595 15.0767 13.7001 14.4761C14.0205 14.0956 14.2607 13.6752 14.3809 13.1946C14.501 12.7141 14.5811 12.1335 14.5811 11.4527V10.6118C14.0004 10.4716 13.3798 10.3515 12.739 10.2714C12.0983 10.1913 11.4776 10.1513 10.857 10.1513C9.51547 10.1513 8.53438 10.4116 7.87365 10.9522C7.21291 11.4927 6.89256 12.2536 6.89256 13.2547C6.89256 14.1957 7.13282 14.8965 7.63338 15.3771C8.11391 15.8776 8.81469 16.1179 9.73571 16.1179V16.1179ZM25.8135 18.2803C25.4531 18.2803 25.2129 18.2202 25.0527 18.0801C24.8925 17.9599 24.7524 17.6796 24.6322 17.2992L19.927 1.82202C19.8069 1.42158 19.7468 1.16129 19.7468 1.02113C19.7468 0.700777 19.907 0.520577 20.2273 0.520577H22.1895C22.5699 0.520577 22.8302 0.580644 22.9704 0.7208C23.1306 0.840933 23.2507 1.12124 23.3708 1.50167L26.7346 14.7564L29.858 1.50167C29.9581 1.10122 30.0783 0.840933 30.2385 0.7208C30.3986 0.600666 30.6789 0.520577 31.0393 0.520577H32.6411C33.0215 0.520577 33.2818 0.580644 33.442 0.7208C33.6022 0.840933 33.7423 1.12124 33.8224 1.50167L36.9859 14.9165L40.4498 1.50167C40.5699 1.10122 40.7101 0.840933 40.8502 0.7208C41.0104 0.600666 41.2707 0.520577 41.6311 0.520577H43.4932C43.8135 0.520577 43.9937 0.680755 43.9937 1.02113C43.9937 1.12124 43.9737 1.22135 43.9537 1.34149C43.9336 1.46162 43.8936 1.6218 43.8135 1.84204L38.9882 17.3192C38.868 17.7197 38.7279 17.9799 38.5677 18.1001C38.4075 18.2202 38.1472 18.3003 37.8068 18.3003H36.0849C35.7045 18.3003 35.4442 18.2402 35.284 18.1001C35.1239 17.9599 34.9837 17.6996 34.9036 17.2992L31.8002 4.38486L28.7168 17.2792C28.6167 17.6796 28.4965 17.9399 28.3363 18.0801C28.1762 18.2202 27.8959 18.2803 27.5355 18.2803H25.8135ZM51.5421 18.8209C50.5009 18.8209 49.4598 18.7007 48.4587 18.4605C47.4575 18.2202 46.6767 17.9599 46.1561 17.6596C45.8357 17.4794 45.6155 17.2792 45.5354 17.099C45.4553 16.9188 45.4153 16.7185 45.4153 16.5383V15.5172C45.4153 15.0967 45.5755 14.8965 45.8758 14.8965C45.9959 14.8965 46.1161 14.9165 46.2362 14.9566C46.3563 14.9966 46.5365 15.0767 46.7368 15.1568C47.4175 15.4571 48.1583 15.6974 48.9392 15.8576C49.7401 16.0178 50.5209 16.0979 51.3218 16.0979C52.5832 16.0979 53.5643 15.8776 54.2451 15.4371C54.9258 14.9966 55.2862 14.3559 55.2862 13.535C55.2862 12.9744 55.106 12.5139 54.7456 12.1335C54.3852 11.753 53.7045 11.4127 52.7234 11.0923L49.8202 10.1913C48.3585 9.7308 47.2773 9.05004 46.6166 8.14904C45.9559 7.26806 45.6155 6.28697 45.6155 5.24582C45.6155 4.40489 45.7957 3.66406 46.1561 3.02335C46.5165 2.38264 46.997 1.82202 47.5977 1.38153C48.1984 0.921022 48.8791 0.580644 49.68 0.340378C50.4809 0.100111 51.3218 0 52.2028 0C52.6433 0 53.1038 0.0200222 53.5443 0.0800888C54.0048 0.140155 54.4253 0.220244 54.8457 0.300333C55.2462 0.400444 55.6266 0.500555 55.987 0.620689C56.3474 0.740822 56.6277 0.860955 56.8279 0.981088C57.1083 1.14127 57.3085 1.30144 57.4286 1.48164C57.5487 1.64182 57.6088 1.86207 57.6088 2.14238V3.08342C57.6088 3.50389 57.4486 3.72413 57.1483 3.72413C56.9881 3.72413 56.7278 3.64404 56.3875 3.48386C55.2462 2.96329 53.9648 2.703 52.5432 2.703C51.4019 2.703 50.5009 2.8832 49.8802 3.26362C49.2595 3.64404 48.9392 4.22469 48.9392 5.0456C48.9392 5.60622 49.1394 6.08675 49.5399 6.46718C49.9403 6.8476 50.6811 7.22802 51.7423 7.5684L54.5855 8.4694C56.0271 8.92991 57.0682 9.57062 57.6889 10.3915C58.3096 11.2124 58.6099 12.1535 58.6099 13.1946C58.6099 14.0556 58.4297 14.8365 58.0893 15.5172C57.7289 16.198 57.2484 16.7986 56.6277 17.2792C56.007 17.7797 55.2662 18.1401 54.4053 18.4004C53.5043 18.6807 52.5632 18.8209 51.5421 18.8209V18.8209Z" fill="#252F3E"/>
<path fill-rule="evenodd" clip-rule="evenodd" d="M55.3262 28.5516C48.7389 33.417 39.1683 35.9999 30.9392 35.9999C19.4064 35.9999 9.01482 31.7352 1.16611 24.6473C0.545425 24.0867 1.10605 23.3258 1.84687 23.7663C10.3363 28.6918 20.8079 31.6751 31.6399 31.6751C38.948 31.6751 46.977 30.1534 54.3652 27.03C55.4664 26.5294 56.4074 27.7508 55.3262 28.5516V28.5516Z" fill="#FF9900"/>
<path fill-rule="evenodd" clip-rule="evenodd" d="M58.0692 25.4282C57.2283 24.347 52.503 24.9076 50.3607 25.1679C49.7199 25.248 49.6198 24.6874 50.2005 24.2669C53.9646 21.624 60.1515 22.3848 60.8723 23.2658C61.5931 24.1668 60.6721 30.3537 57.1482 33.317C56.6076 33.7775 56.087 33.5372 56.3273 32.9366C57.1281 30.9544 58.9101 26.4894 58.0692 25.4282V25.4282Z" fill="#FF9900"/>
</g>
<defs>
<clipPath id="clip0_2080_2305">
<rect width="62" height="36" fill="white"/>
</clipPath>
</defs>
</svg>
