<svg width="124" height="40" viewBox="0 0 124 40" fill="none" xmlns="http://www.w3.org/2000/svg">
<g clip-path="url(#clip0_3432_3067)">
<g clip-path="url(#clip1_3432_3067)">
<g clip-path="url(#clip2_3432_3067)">
<path d="M19.3828 5.04939C19.3828 5.04939 21.1925 5.90506 24.8955 5.90506H46.9904C46.9904 5.90506 49.2672 6.00833 50.4573 7.95571C51.6474 9.89818 50.4032 12.1701 50.2508 12.4848C50.0934 12.7947 49.7344 13.9601 50.4327 14.1421C51.131 14.324 51.3376 14.1618 51.5982 13.7634C51.8539 13.3651 59.2107 2.90039 59.3582 2.71844C59.5057 2.53649 59.7664 1.50378 58.5566 0.00390625C58.5566 0.00390625 60.3663 0.933338 62.0777 0.933338H69.4246C69.4246 0.933338 72.8374 0.795645 72.503 4.19373C72.3211 5.90014 71.4703 10.7883 71.4703 10.7883C71.4703 10.7883 71.1605 9.85884 69.5033 9.85884C69.5033 9.85884 69.2181 11.0341 69.2967 11.9341C69.3754 12.834 70.0737 14.206 71.7015 14.206C73.3292 14.206 73.4866 13.0209 73.4866 12.8389V9.62771C73.4866 9.23921 74.0324 5.97883 77.2879 5.97883H99.8401C99.8401 5.97883 103.666 5.76245 105.014 5.10841C105.014 5.10841 103.946 9.00809 99.5648 9.00809H77.5879C77.5879 9.00809 76.7617 9.04251 76.7617 9.83425V13.1782C76.7617 13.6454 76.0388 17.3877 71.6228 17.3877C67.2068 17.3877 65.9282 13.1389 65.9282 11.9341C65.9282 10.7293 66.5134 7.09021 66.6019 6.96727C66.6855 6.84433 67.8067 6.48534 68.9476 7.09021C68.9476 7.09021 69.2377 5.65918 69.1738 4.8281C69.1099 3.99702 68.328 3.81999 67.9837 3.81999H62.5203L54.2734 15.4256C54.2734 15.4256 53.044 17.3779 50.7229 17.3779C48.4017 17.3779 46.6855 15.3076 46.6855 13.4635C46.6511 12.9471 47.133 11.3243 47.669 10.1096C47.669 9.85884 47.8264 9.01792 46.892 9.01792H25.1364C25.1364 9.01792 20.9269 9.15561 19.3828 5.04939Z" fill="#00568F"/>
<path d="M63.5883 4.67188H66.4209C66.4209 4.67188 66.4602 5.79801 65.7373 5.87669C65.0194 5.95046 63.5883 4.67188 63.5883 4.67188ZM8.52565 21.8196C7.9552 20.7525 7.02577 20.7673 7.02577 20.7673H5.42262L0.765625 31.9106H2.62941C3.19986 31.9106 3.61294 31.5615 3.88832 31.114C4.16371 30.6665 4.50794 29.3731 4.50794 29.3731H8.3732C8.77153 29.3731 8.99282 29.801 8.99282 29.801C8.99282 29.801 9.3223 30.632 9.47475 31.0107C10.1485 31.9942 10.8713 31.9057 10.8713 31.9057H12.7794C12.7843 31.9057 9.09609 22.8868 8.52565 21.8196ZM5.52098 26.9241L6.68154 23.8949L7.85685 26.9291L5.52098 26.9241ZM69.6026 21.8196C69.0322 20.7525 68.1027 20.7673 68.1027 20.7673H66.4996L61.8426 31.9106H63.7064C64.2768 31.9106 64.6899 31.5615 64.9653 31.114C65.2407 30.6665 65.5849 29.3731 65.5849 29.3731H69.4502C69.8485 29.3731 70.0698 29.801 70.0698 29.801C70.0698 29.801 70.3993 30.632 70.5517 31.0107C71.2254 31.9942 71.9483 31.9057 71.9483 31.9057H73.8613C73.8613 31.9057 70.173 22.8868 69.6026 21.8196ZM66.5979 26.9241L67.7536 23.8949L68.9289 26.9291L66.5979 26.9241ZM15.8086 31.9106V25.0653C15.8086 25.0653 17.6478 30.5435 17.7905 30.8091C17.9331 31.0746 18.2921 31.9155 19.1035 31.9155H20.864L23.1654 25.0653V30.7058C23.1654 31.0451 23.6326 31.9155 24.5325 31.9155H25.6685V22.4737C25.6685 22.2131 25.3931 20.7673 23.9277 20.7673H21.9606L19.4526 28.3748L17.3823 22.0262C17.3823 22.0262 16.9348 20.7673 15.8136 20.7673H13.2416V30.514C13.2416 30.814 13.6056 31.9155 14.6923 31.9155L15.8086 31.9106ZM29.9173 25.5177C29.9173 23.5703 31.2893 23.0589 31.8844 23.0589H35.6955V20.7624H32.0712C26.534 20.7624 26.8979 26.334 26.8979 26.334C26.8979 26.334 26.534 31.9106 32.0712 31.9106H35.6955V29.6141H31.8844C31.309 29.6141 29.996 29.1322 29.9222 27.3176H34.1268C35.0661 27.3176 35.6119 26.2111 35.6119 25.7685V25.2817H31.5401C30.5271 25.2817 30.0698 26.1521 29.9173 26.5307V25.5177ZM45.0095 27.3225C45.0095 27.3225 46.9077 26.9782 46.9077 24.2883C46.9077 20.3542 42.9392 20.7673 42.9392 20.7673H37.2839V31.9106H39.9936V27.77H41.4443C42.8261 27.77 43.7211 30.6173 44.3948 31.409C44.8768 32.0139 45.3784 31.9106 45.3784 31.9106H47.6208L45.0095 27.3225ZM43.0081 25.4095H41.7639C41.7639 25.4095 40.7312 25.3653 39.9886 26.6684V23.1966H42.8015C42.8015 23.1966 44.2325 23.0097 44.2325 24.3375C44.2325 25.5472 43.0081 25.4046 43.0081 25.4095ZM99.5805 27.3225C99.5805 27.3225 101.479 26.9782 101.479 24.2883C101.479 20.3542 97.5102 20.7673 97.5102 20.7673H91.8549V31.9106H94.5645V27.77H96.0152C97.3921 27.77 98.2921 30.6173 98.9658 31.409C99.4477 32.0139 99.9493 31.9106 99.9493 31.9106H102.192L99.5805 27.3225ZM97.579 25.4095H96.3398C96.3398 25.4095 95.3071 25.3653 94.5645 26.6684V23.1966H97.3774C97.3774 23.1966 98.8133 23.0097 98.8133 24.3375C98.8084 25.5472 97.579 25.4046 97.579 25.4095ZM50.0452 20.7574H48.6978V30.2386C48.6978 30.2386 48.8551 31.9205 50.2321 31.9205H51.5795V22.4393C51.5746 22.4393 51.427 20.7574 50.0452 20.7574ZM88.6732 20.7574H87.3257V30.2386C87.3257 30.2386 87.4782 31.9205 88.86 31.9205H90.2025V22.4393C90.2075 22.4393 90.055 20.7574 88.6732 20.7574ZM58.0904 23.1917H61.4295V20.7574C61.4295 20.7574 59.8903 20.7673 57.7413 20.7673C52.7155 20.7673 52.9859 26.1963 52.9958 26.3389C53.0056 26.4816 52.7155 31.9106 57.7413 31.9106C59.8903 31.9106 61.4295 31.9254 61.4295 31.9254V29.4911H58.0904C58.0904 29.4911 55.8922 29.6485 55.8922 26.3389C55.8922 23.0392 58.0904 23.1917 58.0904 23.1917ZM85.9832 20.7673V23.1917H82.1032C81.6803 23.1917 80.3476 23.3294 80.3476 26.5455C80.3476 26.5455 80.8787 25.2767 82.054 25.2767H85.7668V25.7931C85.7668 25.7931 85.6882 27.3569 84.1293 27.3569H80.3476V31.9155H77.6036V24.9915C77.6036 24.9915 77.3577 20.7673 82.8851 20.7673H85.9832ZM109.426 25.2374H106.534C106.534 25.2374 105.275 25.321 105.275 24.3424C105.275 23.3589 106.033 23.1966 106.569 23.1966H109.45C109.45 23.1966 111.899 23.4277 111.899 21.8098V20.7624H106.087C105.777 20.7624 102.482 20.6738 102.482 24.2244C102.482 27.7749 105.487 27.588 105.674 27.588H108.609C108.791 27.588 109.632 27.5585 109.632 28.5814C109.632 29.6043 108.3 29.501 108.3 29.501H102.905V30.2878C102.905 31.8418 104.611 31.9254 104.611 31.9254H108.973C110.394 31.9254 112.386 31.5467 112.386 28.4388C112.386 25.1489 109.942 25.2374 109.426 25.2374ZM112.686 20.7574H121.774C121.774 20.7574 123.706 20.5902 123.706 23.1917H119.61V31.9205H118.563C118.563 31.9205 116.738 31.9795 116.738 29.978V23.1917H114.314C114.097 23.1917 112.686 23.3343 112.686 20.7574Z" fill="#00568F"/>
<path d="M102.046 10.1172C102.046 10.1172 101.142 10.6335 99.6662 10.6335H78.7614C78.5647 10.6532 78.4123 10.8253 78.427 11.022C78.427 11.3859 78.5106 13.4563 78.368 13.7513H96.6272C96.6222 13.7562 100.65 13.9726 102.046 10.1172ZM27.8099 13.7464C27.8099 13.7464 23.7872 13.9726 22.3906 10.1172C22.3906 10.1172 23.2955 10.6335 24.7708 10.6335H45.1789C45.1789 10.6335 45.5035 10.609 45.5035 10.9974C45.5035 11.3859 44.9871 12.0301 44.9871 13.7513L27.8099 13.7464ZM30.5736 37.9608V37.3904C30.5736 36.6281 31.4145 36.5888 31.4145 36.5888H32.875V35.8266H31.6948C29.6441 35.8266 29.6146 37.5231 29.6146 37.5231V38.31C29.6146 38.31 29.6441 40.0065 31.6948 40.0065H32.875V39.2443H31.4145C31.4145 39.2443 30.5736 39.205 30.5736 38.4427V37.9608ZM38.5352 38.2608C38.5352 38.2608 39.3466 37.9854 39.3466 37.1543C39.3466 36.3232 38.8303 35.8216 38.1025 35.8216H35.8453V39.9967H36.6911V38.2755H37.7238L38.5696 39.9967H39.5728L38.5352 38.2608ZM37.8812 37.6215H36.6911V36.5986H37.9057C37.9057 36.5986 38.4762 36.5642 38.4762 37.1101C38.4762 37.651 37.8812 37.6215 37.8812 37.6215ZM43.8167 36.5986H45.1642V35.8167H43.5905C41.9038 35.8167 41.9038 37.9018 41.9038 37.9018C41.9038 37.9018 41.9038 39.9918 43.5905 39.9918H45.1642V39.2099H43.8167C43.6249 39.2099 42.9955 39.2787 42.8873 38.2411H45.1642V37.5281H42.8922C43.0102 36.5347 43.6249 36.5986 43.8167 36.5986ZM51.1833 38.01C51.1391 39.1902 50.3178 39.2099 50.3178 39.2099H49.1278V36.6134H50.3178C50.3178 36.6134 51.1391 36.633 51.1833 37.8133H51.9948C51.9948 35.743 50.1359 35.8266 50.1359 35.8266H48.2819V39.9967H50.1359C50.1359 39.9967 51.9948 40.0754 51.9948 38.01V37.8133H51.1833V38.01ZM54.4929 35.8216H55.3978V39.9967H54.4929V35.8216ZM81.0629 35.8216H81.9677V39.9967H81.0629V35.8216ZM61.6038 35.8216H58.1025V36.5888H59.4007V40.0016H60.3056V36.5888H61.6038V35.8216ZM71.7095 38.6149V35.8216H70.8145V38.5903C70.8145 39.3574 69.9195 39.3525 69.9195 39.3525C69.9195 39.3525 69.0294 39.3525 69.0294 38.5903V35.8216H68.1344V38.6149C68.1344 38.6149 68.0557 39.9967 69.9195 39.9967C71.7833 39.9967 71.7095 38.6149 71.7095 38.6149ZM77.2861 35.8216V38.5657L75.6731 35.8216H74.5716V39.9967H75.4764V37.0904L77.1583 39.9967H78.191V35.8216H77.2861ZM94.0257 35.8216V38.5657L92.4127 35.8216H91.3112V39.9967H92.216V37.0904L93.8979 39.9967H94.9306V35.8216H94.0257ZM86.6247 35.8216C86.6247 35.8216 84.6576 35.8315 84.6576 37.9067C84.6576 39.982 86.6247 39.9967 86.6247 39.9967C86.6247 39.9967 88.5918 39.9869 88.5918 37.9067C88.5918 35.8364 86.6247 35.8216 86.6247 35.8216ZM86.6247 39.3623C85.533 39.3623 85.6412 37.9067 85.6412 37.9067C85.6412 37.9067 85.5281 36.456 86.6247 36.456C87.7213 36.456 87.6082 37.9067 87.6082 37.9067C87.6082 37.9067 87.7262 39.3623 86.6247 39.3623Z" fill="#00568F"/>
</g>
</g>
</g>
<defs>
<clipPath id="clip0_3432_3067">
<rect width="124" height="40" fill="white"/>
</clipPath>
<clipPath id="clip1_3432_3067">
<rect width="124" height="40" fill="white"/>
</clipPath>
<clipPath id="clip2_3432_3067">
<rect width="124" height="40" fill="white"/>
</clipPath>
</defs>
</svg>
