<?xml version="1.0" encoding="UTF-8"?>
<svg xmlns="http://www.w3.org/2000/svg" width="165" height="36" viewBox="0 0 165 36" fill="none">
  <g clip-path="url(#clip0_7500_18469)">
    <path d="M2.66217 27.1601C1.45751 25.1872 0.653727 22.9961 0.296795 20.7122C-0.0601376 18.4283 0.0368163 16.0964 0.58207 13.85C1.12732 11.6036 2.11018 9.48668 3.47443 7.62053C4.83867 5.75438 6.55753 4.17557 8.53258 2.97441C10.6071 1.70822 12.9213 0.885622 15.3295 0.558504C17.7377 0.231385 20.1876 0.406859 22.5246 1.07383C22.6275 1.10378 22.7179 1.1664 22.782 1.25225C22.8463 1.3381 22.8807 1.44253 22.8804 1.54973V3.17137C22.8802 3.24913 22.8616 3.32572 22.8263 3.395C22.791 3.46428 22.7398 3.52426 22.677 3.57009C22.6142 3.61593 22.5415 3.64633 22.4647 3.65883C22.3879 3.67133 22.3093 3.66557 22.2351 3.64203C20.7692 3.18227 19.2416 2.94909 17.7052 2.95056C15.6605 2.94876 13.6367 3.363 11.7571 4.16805C9.87754 4.97311 8.18138 6.15211 6.77188 7.63341C5.36238 9.11468 4.26903 10.8673 3.55829 12.7846C2.84754 14.7018 2.53427 16.7436 2.63759 18.7857C2.84319 22.5693 4.46204 26.1378 7.17362 28.7846C9.88522 31.4314 13.4918 32.9635 17.2792 33.0776C18.9566 33.1254 20.6302 32.8937 22.2315 32.392C22.3056 32.3682 22.3844 32.3622 22.4614 32.3746C22.5383 32.3869 22.6113 32.4172 22.6743 32.4632C22.7373 32.509 22.7886 32.5692 22.824 32.6386C22.8595 32.708 22.878 32.7848 22.8782 32.8628V34.4538C22.8786 34.5611 22.8441 34.6656 22.7799 34.7516C22.7157 34.8376 22.6253 34.9003 22.5223 34.9304C20.9591 35.3758 19.3417 35.6018 17.7163 35.6017C14.6935 35.605 11.7208 34.83 9.08426 33.3516C6.44764 31.8732 4.23599 29.7409 2.66217 27.1601ZM17.2681 30.6152C14.0834 30.4356 11.0834 29.0623 8.86618 26.7692C6.64897 24.476 5.37742 21.4316 5.30499 18.2427C5.27435 16.5635 5.5788 14.895 6.20051 13.3348C6.82223 11.7747 7.74874 10.3541 8.92586 9.1562C10.103 7.95831 11.5071 7.00713 13.0562 6.35824C14.6053 5.70934 16.2681 5.37576 17.9476 5.37703C19.5302 5.37475 21.0991 5.67033 22.5723 6.24829C22.6636 6.28502 22.7418 6.34829 22.7967 6.42994C22.8516 6.5116 22.8807 6.60785 22.8804 6.70625V8.26524C22.88 8.34796 22.8589 8.42916 22.8191 8.50164C22.7792 8.57404 22.7218 8.63532 22.6521 8.67988C22.5824 8.72436 22.5027 8.75076 22.4203 8.75652C22.3378 8.7622 22.2551 8.74724 22.1799 8.71276C20.8504 8.11012 19.4073 7.79935 17.9476 7.80128C16.6054 7.8002 15.2762 8.06356 14.0358 8.57628C12.7954 9.08892 11.6681 9.841 10.7184 10.7894C9.76866 11.7378 9.01506 12.864 8.50066 14.1036C7.98623 15.3434 7.72105 16.6723 7.72027 18.0144C7.72082 19.8989 8.24282 21.7464 9.2285 23.3526C10.2142 24.9588 11.6251 26.2608 13.305 27.1147C13.9892 27.4637 14.711 27.7337 15.4563 27.9195C16.2708 28.1228 17.1073 28.2256 17.9468 28.2253C18.675 28.23 19.4011 28.1486 20.11 27.9829C20.217 27.9558 20.3117 27.8937 20.3793 27.8065C20.4469 27.7194 20.4834 27.6121 20.483 27.5018V23.0151C20.4831 22.885 20.5343 22.7602 20.6255 22.6675L22.0315 21.2391C22.1005 21.1689 22.1887 21.1209 22.2851 21.1011C22.3815 21.0812 22.4815 21.0906 22.5726 21.1277C22.6636 21.1649 22.7416 21.2283 22.7965 21.3099C22.8515 21.3915 22.8809 21.4876 22.8811 21.5859V29.298C22.8818 29.3967 22.8527 29.4932 22.7976 29.5751C22.7425 29.6569 22.6639 29.7202 22.5723 29.7568C21.0989 30.3342 19.5301 30.63 17.9476 30.6287C17.7243 30.6317 17.4979 30.6272 17.2681 30.6152ZM11.8228 22.4848C11.7055 22.3226 11.5934 22.154 11.4864 21.979C10.9655 21.125 10.6183 20.1766 10.4643 19.1882C10.3103 18.1998 10.3528 17.1908 10.5893 16.2188C10.8257 15.2468 11.2515 14.331 11.8423 13.5238C12.4331 12.7166 13.1773 12.0338 14.0323 11.5145C15.2971 10.7434 16.7591 10.3574 18.2396 10.4036C19.7202 10.4499 21.1552 10.9264 22.3695 11.7748C22.4273 11.8163 22.4755 11.8698 22.5106 11.9316C22.5458 11.9936 22.5671 12.0624 22.5731 12.1333C22.579 12.2042 22.5695 12.2756 22.5451 12.3425C22.5208 12.4094 22.4823 12.4702 22.4321 12.5208L21.2968 13.6739C21.2166 13.7545 21.1112 13.8053 20.9982 13.8178C20.8851 13.8303 20.7713 13.8037 20.6755 13.7425C19.8451 13.2228 18.8807 12.9577 17.9014 12.9802C16.6369 13.01 15.4291 13.5112 14.5151 14.3853C13.601 15.2596 13.0465 16.4437 12.9603 17.7056C12.8909 18.7849 13.1725 19.8578 13.763 20.7639C13.8259 20.8587 13.8546 20.9721 13.8442 21.0855C13.8337 21.1988 13.7848 21.3051 13.7055 21.3868L12.577 22.5325C12.5305 22.5799 12.475 22.6174 12.4137 22.643C12.3525 22.6687 12.2868 22.6818 12.2204 22.6816C12.1439 22.6826 12.0682 22.6654 11.9995 22.6315C11.931 22.5975 11.8715 22.5477 11.8259 22.4862L11.8228 22.4848Z" fill="#303245"></path>
    <path d="M40.0343 25.6C38.9781 25.6092 37.9303 25.4116 36.95 25.0181C36.0179 24.6427 35.1668 24.0914 34.4429 23.3943C33.7279 22.7067 33.1563 21.884 32.7616 20.9738C32.3569 20.0355 32.1521 19.0231 32.1604 18.0012C32.1516 16.9798 32.3548 15.9676 32.7571 15.0288C33.1483 14.1211 33.7134 13.2988 34.4206 12.6083C35.1369 11.9094 35.9833 11.3576 36.9119 10.9844C37.8871 10.5919 38.9295 10.3943 39.9807 10.4026C41.1765 10.3964 42.3599 10.6451 43.4522 11.1321C44.4978 11.5857 45.4223 12.2784 46.1516 13.1543L44.0027 15.1131C43.5233 14.5076 42.9107 14.0208 42.2124 13.6906C41.5141 13.366 40.7523 13.2006 39.9822 13.2065C39.3475 13.2004 38.7184 13.3248 38.1338 13.572C37.5782 13.8083 37.0742 14.1508 36.6501 14.5804C36.2239 15.0144 35.8894 15.5296 35.6663 16.0955C35.4283 16.7024 35.3095 17.3494 35.3164 18.0012C35.3105 18.6552 35.4319 19.304 35.6737 19.9116C35.9024 20.4853 36.245 21.0068 36.6807 21.4444C37.1143 21.8787 37.6287 22.2239 38.1949 22.4604C38.7902 22.7077 39.4293 22.832 40.0739 22.8259C40.7306 22.8351 41.3812 22.6996 41.9797 22.4291C42.5344 22.1767 43.0246 21.8018 43.4134 21.3325C43.7951 20.8737 44.0582 20.3281 44.1795 19.7437H39.7971V17.0964H47.4712V18.0348C47.4818 19.0636 47.2921 20.0846 46.9125 21.0409C46.5552 21.9365 46.0264 22.7536 45.3558 23.4465C44.6871 24.1334 43.8843 24.6755 42.9971 25.039C42.0566 25.4209 41.0494 25.6116 40.0343 25.6ZM50.9248 25.3688V10.6353H53.9988V25.3702L50.9248 25.3688ZM65.3397 25.6C64.2835 25.6092 63.2356 25.4116 62.2553 25.0181C61.3232 24.6427 60.4721 24.0914 59.7483 23.3943C59.0336 22.707 58.4624 21.8848 58.0678 20.9752C57.663 20.037 57.4582 19.0246 57.4665 18.0028C57.4577 16.9813 57.6609 15.9692 58.0633 15.0303C58.4544 14.1226 59.0195 13.3003 59.7267 12.6097C60.4431 11.9108 61.2895 11.3592 62.218 10.9859C63.1932 10.5934 64.2357 10.3957 65.2868 10.404C66.4827 10.3979 67.6661 10.6465 68.7583 11.1336C69.8039 11.5872 70.7285 12.2799 71.4578 13.1558L69.3087 15.1145C68.8294 14.509 68.2167 14.0223 67.5186 13.6921C66.8202 13.3674 66.0584 13.202 65.2883 13.208C64.6536 13.2018 64.0244 13.3263 63.4399 13.5735C62.8843 13.8097 62.3803 14.1524 61.9563 14.582C61.5316 15.0163 61.1986 15.5315 60.9768 16.0969C60.7388 16.7038 60.62 17.3509 60.627 18.0028C60.6212 18.6567 60.7425 19.3055 60.9843 19.9131C61.213 20.4868 61.5555 21.0082 61.9913 21.446C62.4248 21.8802 62.9393 22.2253 63.5055 22.4619C64.1007 22.7092 64.74 22.8335 65.3845 22.8274C66.0412 22.8365 66.6919 22.7011 67.2904 22.4305C67.845 22.1782 68.3352 21.8033 68.724 21.334C69.1056 20.8752 69.3687 20.3296 69.49 19.7452H65.1077V17.0964H72.7818V18.0348C72.7924 19.0636 72.6027 20.0846 72.2231 21.0409C71.8658 21.9365 71.337 22.7536 70.6663 23.4465C69.9976 24.1334 69.1948 24.6755 68.3078 25.039C67.3665 25.4212 66.3585 25.6119 65.3428 25.6H65.3397ZM74.1998 25.3688L80.3037 10.6338H83.8533L89.8853 25.3688H86.5621L85.0597 21.5056H78.9267L77.4035 25.3688H74.1998ZM79.8725 19.0471H84.1173L82.0117 13.6204L79.8725 19.0471ZM94.5877 25.3688L88.5621 10.6338H91.8845L96.4341 22.2433L101.065 10.6353H104.251L98.1405 25.3702L94.5877 25.3688ZM106.868 25.3688V10.6353H118.265V13.2863H109.945V16.6489H115.424V19.2186H109.945V22.7162H118.353V25.3672L106.868 25.3688ZM121.908 25.3688V10.6353H129.154C130.076 10.6168 130.989 10.815 131.82 11.2141C132.561 11.5716 133.188 12.1288 133.629 12.8231C134.07 13.5356 134.296 14.36 134.279 15.1973C134.293 16.0903 134.016 16.9634 133.489 17.6843C132.957 18.4079 132.229 18.9649 131.393 19.2902L134.661 25.3702H131.236L128.327 19.7273H124.987V25.3702L121.908 25.3688ZM124.983 17.2277H128.877C129.481 17.2573 130.073 17.0625 130.541 16.681C130.746 16.5033 130.909 16.2817 131.018 16.0326C131.127 15.7834 131.178 15.513 131.169 15.2414C131.178 14.9706 131.126 14.7012 131.018 14.4531C130.909 14.2049 130.746 13.9844 130.541 13.8077C130.073 13.4262 129.481 13.2314 128.877 13.2609H124.983V17.2277ZM143.109 25.582C141.909 25.5804 140.72 25.354 139.603 24.9144C138.479 24.4824 137.444 23.8476 136.549 23.0415L138.313 20.8417C139.053 21.5132 139.893 22.0667 140.801 22.4828C141.599 22.8252 142.458 22.9997 143.326 22.9952C143.875 23.0068 144.422 22.9313 144.947 22.7714C145.349 22.6535 145.713 22.4299 146.001 22.124C146.244 21.8567 146.377 21.5074 146.373 21.146C146.385 20.9192 146.339 20.6932 146.241 20.4882C146.144 20.2832 145.997 20.1056 145.813 19.9712C145.24 19.622 144.596 19.4044 143.928 19.3342L140.982 18.8322C139.902 18.7028 138.892 18.2343 138.096 17.494C137.765 17.1472 137.506 16.7373 137.337 16.2889C137.167 15.8404 137.089 15.3624 137.108 14.8833C137.087 14.0372 137.336 13.2063 137.818 12.5105C138.33 11.8132 139.033 11.2786 139.841 10.971C140.832 10.5913 141.886 10.4084 142.946 10.4324C144.055 10.4361 145.156 10.6196 146.206 10.9755C147.242 11.3105 148.212 11.8245 149.07 12.4941L147.429 14.7662C146.109 13.6712 144.461 13.0475 142.746 12.9939C142.256 12.9845 141.766 13.054 141.297 13.1998C140.937 13.3057 140.611 13.5033 140.349 13.7734C140.132 14.0124 140.013 14.3256 140.018 14.6491C140.008 14.8516 140.048 15.0537 140.134 15.2372C140.221 15.4208 140.351 15.58 140.513 15.7008C141.006 16.0044 141.56 16.1952 142.135 16.2596L144.937 16.7168C146.164 16.8412 147.325 17.3269 148.274 18.1124C148.645 18.4656 148.935 18.8938 149.126 19.3684C149.318 19.8429 149.405 20.3528 149.385 20.8641C149.405 21.7576 149.136 22.6339 148.618 23.3622C148.061 24.104 147.306 24.6729 146.44 25.0032C145.378 25.4109 144.247 25.607 143.109 25.5806L143.109 25.582ZM152.576 25.3702V10.6353H163.973V13.2863H155.647V16.6489H161.126V19.2186H155.647V22.7162H164.056V25.3672L152.576 25.3702Z" fill="#303245"></path>
  </g>
  <defs>
    <clipPath id="clip0_7500_18469">
      <rect width="164" height="36" fill="white" transform="translate(0.0859375)"></rect>
    </clipPath>
  </defs>
</svg>
