<svg width="202" height="34" viewBox="0 0 202 34" fill="none" xmlns="http://www.w3.org/2000/svg">
<path d="M23.7237 24.0866C23.7606 23.9166 23.7917 23.7523 23.8314 23.6049L24.0042 24.0158C24.3301 24.8091 24.6531 25.5939 25.4379 26.0388C25.4039 26.7584 24.4916 27.0503 23.8739 26.9624C23.7379 26.6394 23.5481 26.3164 23.1514 26.4978C22.7462 26.6564 22.3014 26.4694 22.3977 25.9736C23.3412 25.9396 23.5509 24.9224 23.7237 24.0866ZM52.0911 9.19177C51.1901 9.19177 50.3457 9.53744 49.7139 10.1608L47.1582 12.6739C46.4697 13.3539 46.1156 14.2946 46.1864 15.2608L46.2034 15.4194C46.2941 16.1618 46.6256 16.8304 47.1582 17.3518C47.5266 17.7144 47.9317 17.9468 48.4247 18.1054C48.4978 18.5016 48.4722 18.9097 48.3501 19.2937C48.2281 19.6777 48.0133 20.0256 47.7249 20.3069L47.5662 20.4628C46.5898 20.1405 45.7182 19.5614 45.0427 18.7862C44.3672 18.011 43.9127 17.0683 43.7271 16.0569L43.6987 15.8954L43.5684 16.0003C43.4834 16.0683 43.3984 16.1419 43.3191 16.2213L40.7634 18.7344C40.4528 19.0393 40.206 19.4031 40.0376 19.8044C39.8692 20.2058 39.7824 20.6367 39.7824 21.0719C39.7824 21.5072 39.8692 21.9381 40.0376 22.3394C40.206 22.7408 40.4528 23.1045 40.7634 23.4094C41.4179 24.0554 42.2792 24.3784 43.1434 24.3784C44.0047 24.3784 44.8632 24.0554 45.5177 23.4123L48.0734 20.8963C48.4736 20.5049 48.7669 20.0176 48.9252 19.4807C49.0835 18.9438 49.1016 18.3753 48.9777 17.8294C48.8538 17.2836 48.5921 16.7786 48.2175 16.3626C47.8429 15.9467 47.368 15.6337 46.8381 15.4534C46.7655 15.0222 46.7987 14.5798 46.935 14.1642C47.0712 13.7486 47.3063 13.3724 47.6201 13.0678C48.6043 13.3973 49.483 13.9832 50.1658 14.765C50.8485 15.5468 51.3106 16.4964 51.5046 17.5161L51.5329 17.6776L51.6661 17.5728C51.7511 17.5048 51.8361 17.4311 51.9154 17.3518L54.4711 14.8358C54.7821 14.5311 55.0291 14.1674 55.1978 13.766C55.3664 13.3646 55.4533 12.9336 55.4533 12.4983C55.4533 12.0629 55.3664 11.6319 55.1978 11.2305C55.0291 10.8292 54.7821 10.4655 54.4711 10.1608C53.8371 9.53574 52.9813 9.18732 52.0911 9.19177Z" fill="#1C3C3C"/>
<path fill-rule="evenodd" clip-rule="evenodd" d="M50.7195 0H17.2833C7.752 0 0 7.62733 0 17C0 26.3727 7.752 34 17.2805 34H50.7167C60.248 34 68 26.3727 68 17C68 7.62733 60.248 0 50.7195 0ZM34.2267 26.6532C33.6742 26.7665 33.0537 26.7863 32.6343 26.3528C32.5068 26.6362 32.249 26.571 32.0082 26.5115C31.9511 26.496 31.8934 26.4828 31.8353 26.4718C31.807 26.5427 31.7872 26.6078 31.7617 26.6787C30.8295 26.7382 30.1325 25.8032 29.6877 25.0977C29.2515 24.8763 28.8042 24.6777 28.3475 24.5027C27.8602 24.3043 27.37 24.106 26.9053 23.851C26.8952 24.0142 26.8914 24.1777 26.894 24.3412C26.8883 25.0325 26.8827 25.7663 26.2508 26.1857C26.231 27.0215 26.9195 27.013 27.5995 27.0073C28.186 26.9988 28.7612 26.9932 28.866 27.5287C28.819 27.5339 28.7717 27.5368 28.7243 27.5372C28.594 27.5372 28.4637 27.5372 28.3645 27.6335C28.033 27.948 27.6788 27.812 27.3105 27.6703C26.9705 27.54 26.622 27.404 26.2707 27.6137C26.0139 27.7427 25.766 27.8885 25.5283 28.05C25.0791 28.3876 24.5372 28.5795 23.9757 28.5997C23.9077 28.4977 23.936 28.4325 23.9927 28.373C24.0366 28.3227 24.0773 28.2697 24.1145 28.2143C24.1683 28.135 24.2137 28.0528 24.259 27.9763C24.412 27.7072 24.5508 27.4663 24.9447 27.353C24.4205 27.2708 23.97 27.5088 23.528 27.7412L23.5167 27.7468C23.4556 27.7795 23.3942 27.8116 23.3325 27.8432C23.0577 27.9565 22.8962 27.8687 22.7318 27.778C22.4995 27.6505 22.2558 27.5173 21.6665 27.8913C21.5532 27.8007 21.6098 27.7185 21.6722 27.6477C21.93 27.3388 22.2672 27.2935 22.6497 27.3105C21.6552 26.7637 20.9383 27.1518 20.3547 27.4663C19.839 27.744 19.4282 27.965 19.0202 27.4323C18.836 27.4805 18.7312 27.6108 18.6292 27.7383C18.5867 27.795 18.5442 27.846 18.496 27.8942C18.3968 27.7837 18.4195 27.659 18.445 27.5315L18.4592 27.4578C18.4638 27.4297 18.4666 27.4013 18.4677 27.3728L18.3912 27.3445C18.241 27.2822 18.0937 27.2198 18.1362 26.9932C17.8047 26.8798 17.5695 27.0782 17.3258 27.2595C17.1728 27.1433 17.2975 26.9903 17.4165 26.8487C17.4675 26.7936 17.5105 26.7316 17.544 26.6645C17.6517 26.4803 17.8358 26.4747 18.0143 26.469C18.1673 26.4662 18.3203 26.4605 18.4252 26.35C18.802 26.1375 19.2667 26.248 19.7342 26.3585C20.077 26.4378 20.4198 26.52 20.7372 26.4775C21.3123 26.5483 22.0235 25.9675 21.7345 25.3867C21.2075 24.7265 21.2132 23.8907 21.216 23.0832V22.678C21.1707 22.372 20.7287 22.0178 20.2867 21.6637C19.9467 21.3945 19.6067 21.1225 19.4423 20.8703C18.989 20.3688 18.6348 19.788 18.2835 19.2128L18.241 19.1448C17.6403 18.0002 17.3995 16.7082 17.1587 15.419C16.8668 13.872 16.5778 12.3307 15.6683 11.0557C14.9147 11.4637 13.9343 11.2682 13.2855 10.7213C12.9455 11.0245 12.9172 11.4212 12.8945 11.8433L12.8917 11.883C12.0502 11.0557 12.155 9.49167 12.8265 8.568C13.1013 8.20533 13.43 7.90783 13.7955 7.64433C13.8805 7.58483 13.9088 7.52533 13.906 7.43467C14.5718 4.488 19.108 5.0575 20.5417 7.14283C21.0148 7.7265 21.3378 8.39517 21.6608 9.06383C22.049 9.86567 22.4343 10.6675 23.0775 11.3163C23.7008 11.9878 24.3582 12.6282 25.0155 13.2685C26.0327 14.2602 27.0498 15.249 27.9395 16.354C29.3278 18.0172 30.3167 19.9693 31.1808 21.9357C31.3225 22.1963 31.4075 22.4825 31.4925 22.7658C31.6172 23.1908 31.7447 23.613 32.0592 23.9473C32.1328 24.0465 32.2972 24.1967 32.4813 24.3667C32.9233 24.7718 33.4928 25.296 33.3002 25.5255C33.3257 25.5793 33.3767 25.6388 33.4418 25.6955C33.5325 25.7748 33.6515 25.8598 33.7705 25.9448C34.1162 26.1913 34.4817 26.4492 34.2267 26.6532ZM56.2643 16.609L53.7087 19.1222C53.0287 19.7937 52.1872 20.2923 51.2748 20.5672L51.2267 20.5813L51.2097 20.6238C50.9143 21.3935 50.4562 22.0903 49.8667 22.6667L47.311 25.1827C46.1975 26.2792 44.7157 26.8827 43.1347 26.8827C41.5565 26.8827 40.0747 26.2792 38.9583 25.1827C38.4118 24.6471 37.9775 24.0079 37.6811 23.3025C37.3847 22.597 37.232 21.8395 37.232 21.0743C37.232 20.3091 37.3847 19.5516 37.6811 18.8462C37.9775 18.1407 38.4118 17.5015 38.9583 16.966L41.514 14.45C42.1997 13.7757 43.0185 13.2912 43.9478 13.0107L43.9932 12.9993L44.0102 12.954C44.3077 12.1833 44.761 11.492 45.356 10.9027L47.9117 8.3895C49.0252 7.293 50.5098 6.6895 52.088 6.6895C53.669 6.6895 55.148 7.293 56.2643 8.3895C57.3807 9.486 57.9927 10.9452 57.9927 12.4978C57.9927 14.0533 57.3807 15.5153 56.2643 16.609Z" fill="#1C3C3C"/>
<path fill-rule="evenodd" clip-rule="evenodd" d="M184.476 5C183.436 5 182.681 5.755 182.681 6.794C182.681 7.834 183.436 8.589 184.476 8.589C185.515 8.589 186.27 7.834 186.27 6.794C186.27 5.754 185.515 5 184.476 5ZM159.402 11.575C160.335 10.879 161.524 10.512 162.861 10.512L162.862 10.515C166.056 10.515 168.119 12.523 168.119 15.632V24.005H165.32V16.005C165.32 14.084 164.478 13.15 162.745 13.15C161.135 13.15 159.402 14.24 159.402 16.631V24.003H156.603V5.4H159.402V11.575ZM152.41 18.62C151.83 20.495 150.34 21.53 148.217 21.53C145.182 21.53 143.294 19.224 143.294 15.514C143.294 11.804 145.198 9.498 148.264 9.498C150.386 9.498 151.608 10.33 152.231 12.193L152.521 13.065L155.163 11.825L154.915 11.126C153.909 8.291 151.585 6.794 148.195 6.794C145.891 6.794 143.935 7.626 142.539 9.199C141.158 10.756 140.426 12.939 140.426 15.515C140.426 20.812 143.484 24.235 148.217 24.235C151.553 24.235 154.137 22.491 155.128 19.567L155.381 18.819L152.667 17.787L152.41 18.62ZM89.798 7.027H87V24.002H99.003V21.298H89.798V7.027ZM113.074 24.002H115.868V23.972H115.905L115.91 23.847C115.911 23.811 115.922 23.471 115.87 22.947V16.63C115.87 14.253 117.603 13.171 119.213 13.171C120.945 13.171 121.788 14.105 121.788 16.026V24.002H124.587V15.654C124.587 12.483 122.572 10.512 119.33 10.512C117.953 10.512 116.723 10.904 115.758 11.647L115.732 10.745H113.074V24.002Z" fill="#303245"/>
<path fill-rule="evenodd" clip-rule="evenodd" d="M132.342 10.5117C133.752 10.5117 135.003 10.9287 135.976 11.7187H135.978L136.034 10.7447H138.622V22.6047C138.622 24.6427 138.051 26.2377 136.922 27.3447C135.804 28.4437 134.201 28.9997 132.157 28.9997C129.145 28.9997 127.074 27.6787 126.615 25.4647L126.591 25.3537L129.31 24.5237L129.335 24.6627C129.541 25.7757 130.545 26.3407 132.32 26.3407C134.43 26.3407 135.717 25.1207 135.797 23.0657C134.861 23.7557 133.673 24.1177 132.342 24.1177C128.569 24.1177 126.225 21.4917 126.225 17.3027C126.225 13.1147 128.569 10.5117 132.342 10.5117ZM132.505 21.4607C134.569 21.4607 135.801 19.9487 135.801 17.4207V17.0937C135.781 14.6737 134.519 13.1707 132.505 13.1707C130.292 13.1707 129.023 14.6627 129.023 17.3037C129.023 19.9447 130.292 21.4607 132.505 21.4607Z" fill="#303245"/>
<path fill-rule="evenodd" clip-rule="evenodd" d="M190.869 11.6467C191.835 10.9037 193.063 10.5117 194.441 10.5117H194.444C197.686 10.5117 199.701 12.4817 199.701 15.6537V24.0017H196.902V16.0257C196.902 14.1047 196.059 13.1707 194.327 13.1707C192.716 13.1707 190.984 14.2527 190.984 16.6297V24.0017H188.185V10.7447H190.842L190.869 11.6467ZM185.833 10.7447H183.05V17.3167C182.253 16.6546 181.331 16.1582 180.34 15.8567V15.1877C180.34 12.2597 178.418 10.5117 175.198 10.5117C172.583 10.5117 170.626 11.7407 169.829 13.8807L169.615 14.4577L171.858 16.1117L172.243 15.1087C172.75 13.7857 173.69 13.1687 175.198 13.1687C176.708 13.1687 177.542 13.8957 177.542 15.3257V15.4007C177.452 15.3967 177.361 15.3941 177.271 15.3927C174.275 15.3447 172.089 16.0457 170.775 17.4727C169.43 18.9327 169.547 20.5727 169.565 20.7527L169.578 20.8787H169.59C169.8 22.9207 171.583 24.2327 174.176 24.2327C175.603 24.2327 176.923 23.8347 177.92 23.1087L177.931 24.0007H180.341V19.8537L180.288 19.8157C179.948 19.5657 179.354 19.2447 178.46 19.1317C178.326 19.1146 178.192 19.1015 178.057 19.0927C177.926 19.0839 177.796 19.0806 177.665 19.0827H177.54V19.4647C177.54 20.3417 176.532 21.5757 174.29 21.5757C172.636 21.5757 172.389 20.8797 172.389 20.4657V20.4227C172.426 20.0196 172.604 19.6424 172.891 19.3567C173.413 18.8167 174.589 18.1847 177.225 18.2257C179.133 18.2557 180.598 18.7887 181.578 19.8117C182.781 21.0677 183.008 22.7867 183.048 23.4597V24.0017H185.833V10.7447Z" fill="#303245"/>
<path fill-rule="evenodd" clip-rule="evenodd" d="M100.466 13.8226C101.262 11.6826 103.219 10.4546 105.834 10.4546C109.054 10.4546 110.974 12.2016 110.974 15.1296V23.9426H108.567L108.555 23.0506C107.557 23.7766 106.239 24.1746 104.81 24.1746C102.012 24.1746 100.204 22.6546 100.204 20.4046C100.204 18.1546 101.917 16.7106 105.296 16.1126L108.178 15.6046V15.2676C108.178 13.8376 107.343 13.1116 105.834 13.1116C104.326 13.1116 103.387 13.7276 102.879 15.0506L102.494 16.0536L100.251 14.3996L100.466 13.8226ZM108.178 19.4076V18.2266L105.958 18.6326C103.027 19.1766 103.027 20.0396 103.027 20.4086C103.027 20.8236 103.272 21.5186 104.927 21.5186C107.169 21.5186 108.177 20.2846 108.177 19.4086L108.178 19.4076Z" fill="#303245"/>
</svg>
