<svg width="187" height="40" viewBox="0 0 187 40" fill="none" xmlns="http://www.w3.org/2000/svg">
<path d="M7.84182 26.6001L15.7079 22.1865L15.8402 21.8032L15.7079 21.59H15.3246L14.01 21.509L9.51546 21.3875L5.61749 21.2255L1.841 21.0231L0.890809 20.8206L0 19.6464L0.0917813 19.0606L0.890809 18.5234L2.03536 18.6233L4.56472 18.7961L8.3601 19.0579L11.1135 19.2199L15.1923 19.6437H15.8402L15.932 19.3818L15.7106 19.2199L15.5379 19.0579L11.6102 16.3963L7.35862 13.5835L5.1316 11.9638L3.92766 11.1432L3.32029 10.3739L3.05844 8.69483L4.15171 7.49089L5.62019 7.59077L5.99541 7.69065L7.48279 8.8352L10.66 11.2944L14.809 14.3501L15.4164 14.8549L15.6593 14.6821L15.689 14.5607L15.4164 14.1045L13.1597 10.0256L10.7518 5.87664L9.68012 4.1571L9.39668 3.12593C9.2968 2.70212 9.22392 2.3458 9.22392 1.91119L10.4683 0.221354L11.1567 0L12.8168 0.221354L13.516 0.828724L14.5472 3.18801L16.2181 6.90242L18.8096 11.953L19.5681 13.4512L19.973 14.8387L20.1242 15.2625H20.386V15.0196L20.5993 12.1744L20.9934 8.68134L21.3767 4.1868L21.509 2.92077L22.1352 1.4037L23.3797 0.583076L24.3515 1.04738L25.1505 2.19193L25.0398 2.93157L24.5647 6.01971L23.6334 10.8571L23.0261 14.0964H23.3797L23.7846 13.6915L25.4231 11.5157L28.1765 8.07397L29.3913 6.70806L30.8085 5.19908L31.7182 4.48104H33.4377L34.7037 6.36253L34.1369 8.30612L32.366 10.552L30.8976 12.4551L28.792 15.2895L27.4774 17.557L27.5989 17.7379L27.912 17.7082L32.6684 16.6959L35.2382 16.2316L38.3048 15.7052L39.6923 16.3531L39.8434 17.0117L39.2981 18.3588L36.0184 19.1686L32.1717 19.9379L26.4435 21.293L26.3733 21.3443L26.4543 21.4442L29.035 21.6871L30.139 21.7465H32.8411L37.8729 22.1217L39.1875 22.991L39.9757 24.0545L39.8434 24.8644L37.8189 25.8955L35.0871 25.2477L28.711 23.7306L26.5245 23.1853H26.2222V23.3662L28.0443 25.1478L31.3835 28.163L35.5649 32.0502L35.7781 33.0112L35.2409 33.7697L34.6741 33.6888L31.0001 30.9246L29.5829 29.6801L26.3733 26.978H26.1601V27.2614L26.8997 28.3439L30.8058 34.2151L31.0082 36.0157L30.7248 36.6014L29.7125 36.9551L28.6004 36.7526L26.3139 33.543L23.9547 29.9285L22.0516 26.6892L21.8194 26.8214L20.6965 38.9175L20.1701 39.5357L18.9553 40L17.943 39.2307L17.4059 37.9862L17.943 35.5271L18.5909 32.3175L19.1173 29.7665L19.5924 26.5974L19.8758 25.5446L19.8569 25.4744L19.6248 25.5041L17.2358 28.7839L13.6024 33.6942L10.7275 36.7715L10.0391 37.0441L8.846 36.426L8.95668 35.3219L9.62343 34.3393L13.6024 29.2779L16.0022 26.1412L17.5516 24.3299L17.5408 24.068H17.4491L6.88082 30.9299L4.99933 31.1729L4.1895 30.4144L4.28938 29.1699L4.6727 28.765L7.84991 26.5785L7.83912 26.5893L7.84182 26.6001Z" fill="#D97757"/>
<path d="M65.3534 33.7509C60.2731 33.7509 56.7989 30.9165 55.1604 26.5543C54.3047 24.2814 53.8809 21.8681 53.916 19.4386C53.916 12.1205 57.1958 7.03746 64.4437 7.03746C69.3135 7.03746 72.3179 9.16191 74.0293 14.2341H76.1133L75.8299 7.23992C72.9145 5.35842 69.2703 4.40553 64.8378 4.40553C58.5914 4.40553 53.2789 7.19943 50.323 12.2393C48.7952 14.9009 48.0204 17.9269 48.0771 20.9962C48.0771 26.5948 50.7199 31.5536 55.6787 34.307C58.3943 35.7566 61.4392 36.4773 64.5166 36.391C69.3539 36.391 73.1925 35.4705 76.5938 33.8616L77.4738 26.1494H75.3494C74.0752 29.6721 72.5555 31.7884 70.0342 32.9114C68.8006 33.4675 67.2403 33.7509 65.3588 33.7509H65.3534ZM87.2673 7.03746L87.4698 3.5957H86.0337L79.636 5.51769V6.55967L82.4704 7.87429V31.945C82.4704 33.5836 81.6309 33.948 79.4336 34.2233V35.9833H90.3149V34.2233C88.1095 33.9507 87.2781 33.5863 87.2781 31.945V7.04556L87.2673 7.03477V7.03746ZM130.542 36.3937H131.381L138.74 34.9981V33.1975L137.709 33.1166C135.989 32.9546 135.544 32.601 135.544 31.1946V18.3588L135.746 14.2395H134.583L127.629 15.241V17.001L128.307 17.1225C130.188 17.3951 130.747 17.9215 130.747 19.2388V30.6763C128.946 32.0719 127.224 32.9546 125.181 32.9546C122.913 32.9546 121.507 31.8019 121.507 29.1079V18.3669L121.709 14.2476H120.516L113.552 15.2491V17.0091L114.27 17.1306C116.151 17.4032 116.71 17.9296 116.71 19.2469V29.8044C116.71 34.2773 119.239 36.4045 123.269 36.4045C126.347 36.4045 128.868 34.7659 130.76 32.4876L130.558 36.4045L130.547 36.3937H130.542ZM110.318 22.1515C110.318 16.4314 107.281 14.2368 101.796 14.2368C96.9582 14.2368 93.4436 16.2398 93.4436 19.5601C93.4436 20.5508 93.7972 21.312 94.5152 21.8384L98.1999 21.3525C98.038 20.2403 97.957 19.5601 97.957 19.2766C97.957 17.3951 98.9585 16.4422 100.994 16.4422C104.001 16.4422 105.518 18.5586 105.518 21.9599V23.072L97.9273 25.3503C95.3979 26.0387 93.9592 26.6353 92.9982 28.0336C92.488 28.8893 92.2423 29.8746 92.2909 30.8679C92.2909 34.1072 94.5179 36.3937 98.3241 36.3937C101.078 36.3937 103.518 35.1492 105.642 32.7899C106.401 35.1492 107.564 36.3937 109.64 36.3937C111.319 36.3937 112.839 35.7161 114.194 34.3907L113.789 32.9951C113.203 33.1571 112.636 33.238 112.037 33.238C110.874 33.238 110.318 32.3175 110.318 30.5143V22.1542V22.1515ZM100.6 33.1544C98.5239 33.1544 97.239 31.9504 97.239 29.8341C97.239 28.398 97.9165 27.5558 99.3634 27.0699L105.518 25.1155V31.0272C103.556 32.5146 102.4 33.1516 100.6 33.1516V33.1544ZM164.673 34.9954V33.1948L163.631 33.1139C161.912 32.9519 161.474 32.5983 161.474 31.1919V7.04017L161.677 3.59841H160.23L153.832 5.52039V6.56237L156.667 7.87698V15.7917C155.071 14.6984 153.163 14.1504 151.23 14.2341C144.873 14.2341 139.914 19.0715 139.914 26.3113C139.914 32.2743 143.477 36.3937 149.349 36.3937C152.385 36.3937 155.028 34.9171 156.667 32.628L156.464 36.3937H157.315L164.673 34.9981V34.9954ZM151.352 16.6339C154.388 16.6339 156.667 18.3939 156.667 21.6332V30.7438C155.268 32.1367 153.365 32.9033 151.392 32.8682C147.041 32.8682 144.832 29.4265 144.832 24.832C144.832 19.6708 147.354 16.6339 151.352 16.6339ZM180.233 21.1905C179.666 18.5181 178.027 17.001 175.749 17.001C172.348 17.001 169.988 19.5628 169.988 23.2367C169.988 28.6733 172.863 32.1961 177.509 32.1961C180.608 32.1637 183.458 30.4873 184.989 27.7933L186.344 28.1577C185.737 32.8736 181.466 36.3964 176.221 36.3964C170.067 36.3964 165.826 31.8424 165.826 25.3638C165.826 18.8852 170.431 14.2395 176.586 14.2395C181.18 14.2395 184.419 17.0037 185.464 21.8006L169.43 26.7189V24.554L180.23 21.204V21.1932L180.233 21.1905Z" fill="#303245"/>
</svg>
