<svg width="149" height="32" viewBox="0 0 149 32" fill="none" xmlns="http://www.w3.org/2000/svg">
<g clip-path="url(#clip0_2133_6689)">
<path d="M71.1523 8.04833C64.6392 8.04833 59.8283 13.0248 59.8283 19.7631C59.8283 26.4995 64.6392 31.476 71.1523 31.476C77.6655 31.476 82.4765 26.4995 82.4765 19.7631C82.4765 13.0248 77.6655 8.04833 71.1523 8.04833ZM71.1523 26.7897C67.5432 26.7897 64.8754 23.8038 64.8754 19.7612C64.8754 15.7205 67.5432 12.7327 71.1523 12.7327C74.7615 12.7327 77.4292 15.7205 77.4292 19.7612C77.4292 23.8038 74.7615 26.7897 71.1523 26.7897ZM95.2477 8.04833C88.7345 8.04833 83.9236 13.0248 83.9236 19.7631C83.9236 26.4995 88.7345 31.476 95.2477 31.476C101.761 31.476 106.572 26.4995 106.572 19.7631C106.572 13.0248 101.761 8.04833 95.2477 8.04833ZM95.2477 26.7897C91.6386 26.7897 88.9708 23.8038 88.9708 19.7612C88.9708 15.7205 91.6386 12.7327 95.2477 12.7327C98.8568 12.7327 101.525 15.7205 101.525 19.7612C101.525 23.8038 98.8568 26.7897 95.2477 26.7897ZM135.45 3.0383C135.45 4.57684 134.15 5.82514 132.546 5.82514C130.943 5.82514 129.642 4.57684 129.642 3.0383C129.642 1.49786 130.943 0.251465 132.546 0.251465C134.15 0.251465 135.45 1.49786 135.45 3.0383ZM134.987 10.4891V29.0352C134.987 30.3833 133.894 31.476 132.546 31.476C131.198 31.476 130.106 30.3833 130.106 29.0352V10.4891C130.106 9.14104 131.198 8.04826 132.546 8.04826C133.894 8.04826 134.987 9.14104 134.987 10.4891ZM58.0555 16.8739V29.0519C58.0513 30.397 56.9597 31.4851 55.6147 31.4851C54.2697 31.4851 53.1781 30.397 53.1739 29.0519V16.6786C53.1739 14.3215 51.587 12.7346 49.2299 12.7346C47.0495 12.7346 45.284 14.6322 45.284 16.978V29.0519C45.2809 30.3972 44.1895 31.4862 42.8441 31.4862C41.4988 31.4862 40.4074 30.3972 40.4043 29.0519V16.978C40.4043 14.6322 38.6388 12.7346 36.4584 12.7346C34.1013 12.7346 32.5126 14.3215 32.5126 16.6786V29.0519C32.5093 30.3972 31.4179 31.4862 30.0727 31.4862C28.7275 31.4862 27.636 30.3972 27.6328 29.0519V16.8739C27.6328 11.6017 31.0075 8.04823 36.0175 8.04823C38.9904 8.04823 41.3866 9.29845 42.8432 11.4174C44.3017 9.29845 46.6979 8.04823 49.6708 8.04823C54.6808 8.04823 58.0555 11.6017 58.0555 16.8739ZM127.843 10.5002C127.843 10.8065 127.786 11.11 127.674 11.3951L127.646 11.462L127.62 11.516L119.151 29.9914V29.9933C118.729 30.9052 117.816 31.4888 116.811 31.4888C115.806 31.4888 114.893 30.9052 114.471 29.9933V29.9914L106.002 11.516C106 11.5123 105.999 11.5067 105.997 11.503C105.854 11.188 105.781 10.8461 105.781 10.5002C105.784 9.69452 106.184 8.94194 106.849 8.48735C107.448 8.07915 108.198 7.95906 108.895 8.15973C109.592 8.3604 110.164 8.86097 110.454 9.52545L116.811 24.0941L123.168 9.52545C123.631 8.46862 124.771 7.88073 125.901 8.11626C127.031 8.35179 127.841 9.34635 127.843 10.5002ZM148.572 29.1338C148.567 30.425 147.521 31.4704 146.23 31.476H146.158C143.653 31.476 141.557 30.5886 140.087 29.0408C138.616 27.493 137.773 25.2865 137.773 22.6504V6.03725C137.772 5.1652 138.237 4.35917 138.992 3.92299C139.747 3.48681 140.678 3.48681 141.433 3.92299C142.188 4.35917 142.653 5.1652 142.653 6.03725H142.654V8.49852H145.625C146.385 8.50082 147.097 8.87108 147.534 9.49193C148.112 10.2996 148.112 11.3855 147.534 12.1932C147.095 12.8126 146.385 13.1819 145.625 13.1848H142.654V22.6504L142.653 22.8457C142.653 25.1191 144.13 26.6762 146.349 26.7842V26.7934C147.593 26.8618 148.568 27.888 148.572 29.1338Z" fill="#11100D"/>
<path d="M12.2756 0.896973C5.49731 0.896973 0.00195312 6.42126 0.00195312 13.2356C0.00195312 22.4891 12.2756 31.7432 12.2756 31.7432C12.2756 31.7432 24.5493 22.4891 24.5493 13.2356C24.5493 6.42126 19.0539 0.896973 12.2756 0.896973Z" fill="#FF6400"/>
<path d="M19.2334 12.0715C19.2305 12.8029 18.6358 13.3937 17.9044 13.3918C17.173 13.3899 16.5814 12.7959 16.5824 12.0645C16.5834 11.333 17.1766 10.7407 17.908 10.7407C18.6411 10.7431 19.234 11.3384 19.2334 12.0715ZM6.74093 10.7407C6.20207 10.7385 5.71501 11.0613 5.50724 11.5586C5.29948 12.0558 5.41201 12.6292 5.79229 13.011C6.17256 13.3928 6.74552 13.5076 7.24356 13.3019C7.7416 13.0961 8.06642 12.6103 8.06631 12.0715C8.06703 11.3383 7.47408 10.743 6.74093 10.7407ZM15.9344 14.6558C15.728 14.6445 15.5257 14.7161 15.3724 14.8547C15.3588 14.8667 14.2416 15.837 12.4442 15.837C10.6435 15.837 9.26587 14.7283 9.25388 14.7185C9.09509 14.5858 8.88998 14.522 8.68396 14.541C8.47793 14.56 8.28798 14.6603 8.15615 14.8198C7.88118 15.1524 7.9258 15.6445 8.25611 15.9223C8.43898 16.0737 10.1096 17.4023 12.4442 17.4023C14.8505 17.4023 16.351 16.0769 16.4136 16.0204C16.7337 15.7313 16.7607 15.2381 16.4742 14.9157C16.3363 14.7603 16.1418 14.6667 15.9344 14.6558Z" fill="#11100D"/>
</g>
<defs>
<clipPath id="clip0_2133_6689">
<rect width="148.571" height="32" fill="white"/>
</clipPath>
</defs>
</svg>
