<svg width="146" height="85" viewBox="0 0 146 85" fill="none" xmlns="http://www.w3.org/2000/svg">
<g clip-path="url(#clip0_2133_6576)">
<g clip-path="url(#clip1_2133_6576)">
<path d="M41.8697 30.6434C41.8697 32.3797 42.0574 33.7875 42.3859 34.8199C42.7613 35.8523 43.2305 36.9785 43.8875 38.1986C44.1222 38.574 44.216 38.9495 44.216 39.278C44.216 39.7472 43.9345 40.2165 43.3244 40.6858L40.368 42.6567C39.9457 42.9383 39.5233 43.079 39.1479 43.079C38.6786 43.079 38.2094 42.8444 37.7401 42.4221C37.0831 41.7182 36.52 40.9673 36.0507 40.2165C35.5814 39.4187 35.1122 38.5271 34.596 37.4478C30.9357 41.7651 26.3368 43.9237 20.7994 43.9237C16.8575 43.9237 13.7134 42.7975 11.414 40.545C9.11458 38.2925 7.94141 35.2892 7.94141 31.535C7.94141 27.5462 9.34922 24.3082 12.2118 21.868C15.0743 19.4278 18.8754 18.2077 23.7089 18.2077C25.3044 18.2077 26.9469 18.3485 28.6832 18.5831C30.4195 18.8178 32.2027 19.1932 34.0798 19.6155V16.1898C34.0798 12.6234 33.3289 10.1362 31.8742 8.68151C30.3725 7.22677 27.8385 6.52286 24.2251 6.52286C22.5826 6.52286 20.8933 6.71057 19.157 7.13291C17.4207 7.55526 15.7313 8.07146 14.0888 8.72843C13.338 9.05692 12.7749 9.24463 12.4464 9.33848C12.1179 9.43234 11.8833 9.47927 11.6956 9.47927C11.0386 9.47927 10.7101 9.01 10.7101 8.02453V5.7251C10.7101 4.97427 10.804 4.41114 11.0386 4.08265C11.2732 3.75416 11.6956 3.42568 12.3525 3.09719C13.995 2.2525 15.9659 1.54859 18.2654 0.985468C20.5648 0.375416 23.005 0.0938541 25.586 0.0938541C31.1703 0.0938541 35.2529 1.36088 37.8809 3.89495C40.4618 6.42901 41.7758 10.277 41.7758 15.439V30.6434H41.8697ZM22.8173 37.7763C24.3659 37.7763 25.9614 37.4947 27.6508 36.9316C29.3401 36.3685 30.8418 35.3361 32.1088 33.9283C32.8597 33.0367 33.4228 32.0512 33.7044 30.9249C33.9859 29.7987 34.1736 28.4378 34.1736 26.8423V24.8713C32.8127 24.5429 31.358 24.2613 29.8563 24.0736C28.3547 23.8859 26.8999 23.792 25.4452 23.792C22.3011 23.792 20.0017 24.4021 18.4531 25.6691C16.9045 26.9361 16.1536 28.7194 16.1536 31.0657C16.1536 33.2713 16.7168 34.9137 17.8899 36.04C19.0162 37.2132 20.6586 37.7763 22.8173 37.7763ZM60.4997 42.8444C59.655 42.8444 59.0919 42.7036 58.7165 42.3751C58.3411 42.0936 58.0126 41.4366 57.731 40.545L46.7031 4.27036C46.4216 3.33182 46.2808 2.72177 46.2808 2.39328C46.2808 1.64245 46.6562 1.2201 47.4071 1.2201H52.0059C52.8975 1.2201 53.5076 1.36088 53.8361 1.68937C54.2115 1.97094 54.493 2.62792 54.7746 3.51953L62.6583 34.5852L69.979 3.51953C70.2136 2.58099 70.4952 1.97094 70.8706 1.68937C71.246 1.40781 71.903 1.2201 72.7477 1.2201H76.5018C77.3934 1.2201 78.0035 1.36088 78.3789 1.68937C78.7543 1.97094 79.0828 2.62792 79.2705 3.51953L86.685 34.9607L94.8034 3.51953C95.0849 2.58099 95.4134 1.97094 95.7419 1.68937C96.1173 1.40781 96.7274 1.2201 97.5721 1.2201H101.936C102.687 1.2201 103.109 1.59552 103.109 2.39328C103.109 2.62792 103.063 2.86255 103.016 3.14411C102.969 3.42568 102.875 3.80109 102.687 4.31729L91.3777 40.5919C91.0961 41.5304 90.7676 42.1405 90.3922 42.4221C90.0168 42.7036 89.4068 42.8913 88.609 42.8913H84.5733C83.6817 42.8913 83.0716 42.7506 82.6962 42.4221C82.3208 42.0936 81.9923 41.4835 81.8046 40.545L74.5309 10.277L67.3041 40.4981C67.0695 41.4366 66.7879 42.0466 66.4125 42.3751C66.0371 42.7036 65.3801 42.8444 64.5354 42.8444H60.4997ZM120.801 44.1114C118.361 44.1114 115.921 43.8299 113.574 43.2668C111.228 42.7036 109.398 42.0936 108.178 41.3897C107.427 40.9673 106.911 40.4981 106.723 40.0757C106.535 39.6534 106.441 39.1841 106.441 38.7618V36.3685C106.441 35.383 106.817 34.9137 107.521 34.9137C107.802 34.9137 108.084 34.9607 108.365 35.0545C108.647 35.1484 109.069 35.3361 109.538 35.5238C111.134 36.2277 112.87 36.7908 114.7 37.1662C116.578 37.5417 118.408 37.7294 120.285 37.7294C123.241 37.7294 125.541 37.2132 127.136 36.1808C128.732 35.1484 129.576 33.6467 129.576 31.7227C129.576 30.4087 129.154 29.3294 128.309 28.4378C127.465 27.5462 125.869 26.7484 123.57 25.9976L116.765 23.8859C113.34 22.8066 110.805 21.211 109.257 19.0993C107.708 17.0345 106.911 14.7351 106.911 12.2949C106.911 10.324 107.333 8.58765 108.178 7.08599C109.022 5.58432 110.149 4.27036 111.556 3.23797C112.964 2.15864 114.56 1.36088 116.437 0.79776C118.314 0.234635 120.285 0 122.35 0C123.382 0 124.461 0.046927 125.494 0.187708C126.573 0.328489 127.558 0.516198 128.544 0.703906C129.482 0.938541 130.374 1.17318 131.219 1.45474C132.063 1.7363 132.72 2.01786 133.19 2.29943C133.847 2.67484 134.316 3.05026 134.598 3.4726C134.879 3.84802 135.02 4.36422 135.02 5.0212V7.22677C135.02 8.21224 134.644 8.72843 133.941 8.72843C133.565 8.72843 132.955 8.54072 132.157 8.16531C129.482 6.94521 126.479 6.33515 123.147 6.33515C120.472 6.33515 118.361 6.7575 116.906 7.64911C115.451 8.54072 114.7 9.90161 114.7 11.8256C114.7 13.1396 115.17 14.2658 116.108 15.1574C117.047 16.0491 118.783 16.9407 121.27 17.7384L127.934 19.8501C131.313 20.9295 133.753 22.4311 135.208 24.3551C136.662 26.2792 137.366 28.4847 137.366 30.9249C137.366 32.9428 136.944 34.773 136.146 36.3685C135.301 37.964 134.175 39.3718 132.72 40.4981C131.266 41.6712 129.529 42.5159 127.512 43.126C125.4 43.7829 123.194 44.1114 120.801 44.1114Z" fill="#252F3E"/>
<path fill-rule="evenodd" clip-rule="evenodd" d="M129.67 66.918C114.231 78.3213 91.8001 84.3749 72.5131 84.3749C45.4831 84.3749 21.1279 74.3794 2.7325 57.7672C1.27776 56.4532 2.59172 54.67 4.32802 55.7024C24.2251 67.2465 48.768 74.2386 74.1555 74.2386C91.2839 74.2386 110.102 70.6721 127.418 63.3515C129.999 62.1783 132.204 65.0409 129.67 66.918Z" fill="#FF9900"/>
<path fill-rule="evenodd" clip-rule="evenodd" d="M136.1 59.5974C134.129 57.0633 123.054 58.3772 118.033 58.9873C116.531 59.175 116.297 57.861 117.658 56.8756C126.48 50.6812 140.98 52.4644 142.67 54.5292C144.359 56.6409 142.2 71.1414 133.941 78.0867C132.674 79.166 131.454 78.6029 132.017 77.195C133.894 72.5493 138.071 62.0845 136.1 59.5974Z" fill="#FF9900"/>
</g>
</g>
<defs>
<clipPath id="clip0_2133_6576">
<rect width="145.312" height="84.375" fill="white"/>
</clipPath>
<clipPath id="clip1_2133_6576">
<rect width="145.312" height="84.375" fill="white"/>
</clipPath>
</defs>
</svg>
