<svg width="219" height="40" viewBox="0 0 219 40" fill="none" xmlns="http://www.w3.org/2000/svg">
<g clip-path="url(#clip0_2080_2299)">
<path fill-rule="evenodd" clip-rule="evenodd" d="M213.801 32.0926V31.4939H214.185C214.395 31.4939 214.68 31.5099 214.68 31.7659C214.68 32.0432 214.533 32.0926 214.285 32.0926H213.801ZM213.801 32.5126H214.057L214.653 33.5579H215.307L214.648 32.4699C214.988 32.4446 215.268 32.2832 215.268 31.8246C215.268 31.2552 214.875 31.0712 214.211 31.0712H213.249V33.5579H213.801V32.5126ZM216.599 32.3179C216.599 30.8579 215.464 30.0112 214.199 30.0112C212.925 30.0112 211.792 30.8579 211.792 32.3179C211.792 33.7779 212.925 34.6286 214.199 34.6286C215.463 34.6286 216.599 33.7779 216.599 32.3179ZM215.905 32.3179C215.905 33.3819 215.123 34.0966 214.199 34.0966V34.0886C213.248 34.0966 212.48 33.3819 212.48 32.3179C212.48 31.2552 213.249 30.5432 214.199 30.5432C215.124 30.5432 215.905 31.2552 215.905 32.3179Z" fill="#252F3E"/>
<path fill-rule="evenodd" clip-rule="evenodd" d="M128.498 7.61022L128.5 33.8236H135.903V7.61022H128.498ZM70.2617 7.57555V33.8236H77.7324V13.4489L83.5591 13.4676C85.4751 13.4676 86.7991 13.9276 87.7231 14.9129C88.8951 16.1609 89.3724 18.1716 89.3724 21.8529V33.8236H96.6084V19.3209C96.6084 8.97022 90.0111 7.57422 83.5564 7.57422H70.2631L70.2617 7.57555ZM140.418 7.61155V33.8236H152.426C158.823 33.8236 160.911 32.7596 163.168 30.3742C164.766 28.6996 165.796 25.0222 165.796 21.0049C165.796 17.3209 164.923 14.0342 163.4 11.9876C160.658 8.32755 156.707 7.61155 150.807 7.61155H140.418ZM147.762 13.3182H150.944C155.562 13.3182 158.548 15.3929 158.548 20.7729C158.548 26.1556 155.562 28.2289 150.944 28.2289H147.762V13.3182ZM117.824 7.61155L111.646 28.3849L105.726 7.61289L97.7351 7.61155L106.188 33.8236H116.859L125.38 7.61155H117.824ZM169.242 33.8236H176.646V7.61289L169.239 7.61155L169.242 33.8236ZM189.994 7.62089L179.656 33.8142H186.956L188.592 29.1849H200.826L202.374 33.8142H210.299L199.883 7.61955L189.994 7.62089ZM194.799 12.4009L199.284 24.6729H190.174L194.799 12.4009Z" fill="#252F3E"/>
<path fill-rule="evenodd" clip-rule="evenodd" d="M22.5177 11.9808V8.37414C22.867 8.34748 23.2217 8.33014 23.5817 8.31814C33.4484 8.00881 39.9217 16.7968 39.9217 16.7968C39.9217 16.7968 32.9297 26.5061 25.4337 26.5061C24.443 26.5101 23.4577 26.3528 22.5177 26.0395V15.1008C26.3577 15.5648 27.131 17.2608 29.4404 21.1115L34.5764 16.7808C34.5764 16.7808 30.827 11.8635 24.507 11.8635C23.8204 11.8635 23.163 11.9115 22.5177 11.9808ZM22.5177 0.0634766V5.45414C22.871 5.42614 23.2257 5.40348 23.5817 5.39014C37.3017 4.92881 46.2417 16.6435 46.2417 16.6435C46.2417 16.6435 35.975 29.1288 25.2777 29.1288C24.2977 29.1288 23.379 29.0381 22.5177 28.8848V32.2155C23.255 32.3088 24.019 32.3648 24.8164 32.3648C34.7697 32.3648 41.9684 27.2821 48.939 21.2648C50.095 22.1901 54.827 24.4421 55.799 25.4288C49.171 30.9755 33.7257 35.4488 24.9684 35.4488C24.1497 35.4461 23.3324 35.4035 22.5177 35.3208V40.0008H60.351V0.0634766H22.5177ZM22.5177 26.0395V28.8848C13.311 27.2448 10.755 17.6728 10.755 17.6728C10.755 17.6728 15.1764 12.7741 22.5177 11.9808V15.1008L22.503 15.0995C18.6497 14.6368 15.6404 18.2368 15.6404 18.2368C15.6404 18.2368 17.327 24.2955 22.5177 26.0395ZM6.16569 17.2581C6.16569 17.2581 11.6217 9.20481 22.5177 8.37414V5.45148C10.4497 6.42081 -0.000976562 16.6408 -0.000976562 16.6408C-0.000976562 16.6408 5.91769 33.7515 22.5177 35.3181V32.2155C10.3364 30.6835 6.16569 17.2581 6.16569 17.2581Z" fill="#76B900"/>
</g>
<defs>
<clipPath id="clip0_2080_2299">
<rect width="218.667" height="40" fill="white"/>
</clipPath>
</defs>
</svg>
