<svg width="169" height="33" viewBox="0 0 169 33" fill="none" xmlns="http://www.w3.org/2000/svg">
<path d="M0 2.7627V30.0391H4.6215V18.3447H8.90356V13.7261H4.6215V7.38129H11.2651V2.7627H0Z" fill="black"/>
<path d="M15.0371 8.78988V24.0121C15.0371 27.5544 17.9092 30.4265 21.4515 30.4265C24.9938 30.4265 27.8659 27.5544 27.8659 24.0121V8.78698C27.8659 5.2447 24.9967 2.37549 21.4544 2.37549C17.9121 2.37549 15.04 5.24761 15.04 8.78988M19.6615 24.0121V8.78988C19.6615 7.8006 20.4651 6.99698 21.4544 6.99698H21.4602C22.4466 6.99698 23.2473 7.7977 23.2473 8.78408V24.0092C23.2473 24.9985 22.4437 25.8021 21.4544 25.8021C20.4651 25.8021 19.6615 24.9985 19.6615 24.0092" fill="black"/>
<path d="M45.0718 30.0391H40.2966L36.882 17.0856C36.882 17.0856 39.8208 16.5576 39.8208 13.4301V9.16839C39.8208 8.1791 39.0201 7.37839 38.0337 7.37839H36.2582V30.0391H31.6367V2.7627H38.0308C41.4773 2.7627 44.2798 5.48395 44.4278 8.88988H44.4423V13.3489H44.4278C44.4278 16.0412 43.5458 17.982 41.9357 19.2179L45.0747 30.0391H45.0718Z" fill="black"/>
<path d="M61.6484 2.7627H48.8457V7.38129H52.9363V30.0391H57.5578V7.38129H61.6484V2.7627Z" fill="black"/>
<path d="M73.6272 2.56982V23.8177C73.6272 24.807 72.8236 25.6106 71.8343 25.6106C70.845 25.6106 70.0414 24.807 70.0414 23.8177V2.56982H65.4199V23.8177C65.4199 27.36 68.292 30.2321 71.8343 30.2321C75.3766 30.2321 78.2487 27.36 78.2487 23.8177V2.56982H73.6272Z" fill="black"/>
<path d="M91.3167 2.7627V17.6368L86.643 2.7627H82.0215V30.0391H86.643V16.6765L90.8206 30.0391H95.9382V2.7627H91.3167Z" fill="black"/>
<path d="M99.709 2.7627V30.0391H110.977V25.4205H104.33V18.3447H108.615V13.7261H104.33V7.38129H110.977V2.7627H99.709Z" fill="black"/>
<path d="M129.09 30.3184C127.893 30.3184 126.721 30.2036 125.572 29.9739C124.436 29.7442 123.378 29.436 122.399 29.0492C121.432 28.6623 120.598 28.2393 119.897 27.7799L121.166 24.4436C122 24.9513 122.816 25.3684 123.614 25.6947C124.424 26.0211 125.258 26.2629 126.116 26.42C126.975 26.5772 127.881 26.6557 128.836 26.6557C130.48 26.6557 131.786 26.2568 132.753 25.459C133.72 24.6612 134.203 23.4403 134.203 21.7963C134.203 20.6238 134.004 19.6749 133.605 18.9496C133.206 18.2122 132.65 17.6743 131.937 17.3359C131.236 16.9974 130.414 16.8282 129.471 16.8282C128.443 16.8282 127.513 16.9974 126.678 17.3359C125.844 17.6743 125.071 18.1458 124.358 18.7502L120.894 17.082L122.182 3.31978H136.814V7.2907H125.863L125.119 15.2507L124.43 15.015C125.143 14.3018 125.971 13.7759 126.914 13.4375C127.857 13.0869 128.987 12.9116 130.305 12.9116C132.009 12.9116 133.49 13.2501 134.747 13.927C136.016 14.604 137.002 15.6012 137.703 16.9188C138.404 18.2243 138.754 19.832 138.754 21.7419C138.754 23.4947 138.356 25.0178 137.558 26.3112C136.76 27.5926 135.636 28.5838 134.185 29.2849C132.747 29.9739 131.048 30.3184 129.09 30.3184ZM152.581 30.3547C151.022 30.3547 149.68 30.1613 148.556 29.7744C147.432 29.3876 146.489 28.8558 145.727 28.1788C144.966 27.5019 144.361 26.7222 143.914 25.8398C143.467 24.9574 143.147 24.0205 142.953 23.0293C142.76 22.0381 142.663 21.0408 142.663 20.0375V13.3831C142.663 12.3556 142.754 11.3402 142.935 10.3369C143.128 9.32149 143.449 8.36654 143.896 7.47202C144.343 6.57751 144.942 5.78574 145.691 5.09672C146.453 4.39562 147.395 3.85166 148.52 3.46484C149.656 3.06593 151.01 2.86648 152.581 2.86648C154.128 2.86648 155.458 3.06593 156.57 3.46484C157.682 3.85166 158.607 4.39562 159.344 5.09672C160.082 5.79783 160.662 6.60168 161.085 7.50829C161.52 8.4028 161.823 9.35776 161.992 10.3731C162.173 11.3885 162.264 12.41 162.264 13.4375V19.9831C162.264 20.9864 162.167 21.9897 161.974 22.9931C161.792 23.9843 161.484 24.9211 161.049 25.8035C160.614 26.686 160.027 27.4717 159.29 28.1607C158.553 28.8376 157.634 29.3755 156.534 29.7744C155.434 30.1613 154.116 30.3547 152.581 30.3547ZM152.581 26.6557C153.657 26.6557 154.521 26.4684 155.174 26.0936C155.827 25.7189 156.329 25.2233 156.679 24.6068C157.03 23.9782 157.265 23.2832 157.386 22.5216C157.507 21.748 157.568 20.9744 157.568 20.2007V13.1292C157.568 12.3556 157.507 11.582 157.386 10.8083C157.265 10.0226 157.036 9.31545 156.697 8.68687C156.359 8.0462 155.857 7.53246 155.192 7.14564C154.539 6.75883 153.669 6.56542 152.581 6.56542C151.493 6.56542 150.611 6.75883 149.934 7.14564C149.257 7.53246 148.743 8.0462 148.393 8.68687C148.054 9.31545 147.819 10.0226 147.686 10.8083C147.565 11.582 147.504 12.3556 147.504 13.1292V20.2007C147.504 20.9744 147.571 21.748 147.704 22.5216C147.837 23.2832 148.078 23.9782 148.429 24.6068C148.792 25.2233 149.305 25.7189 149.97 26.0936C150.635 26.4684 151.505 26.6557 152.581 26.6557Z" fill="black"/>
</svg>
