<svg width="67" height="26" viewBox="0 0 67 26" fill="none" xmlns="http://www.w3.org/2000/svg">
<g clip-path="url(#clip0_3432_3121)">
<path d="M38.2464 0.494213C36.9571 1.13884 36.3984 2.34215 36.3984 5.60826C36.3984 5.60826 37.0431 4.96363 38.0745 4.57686C38.8265 4.29752 39.3637 3.93223 39.7505 3.65289C40.8679 2.81487 41.0398 1.80496 41.0398 0.0429732C41.0183 0.0429732 39.2563 -0.0644648 38.2464 0.494213Z" fill="#FBBD71"/>
<path d="M30.362 1.2463C29.2446 2.17027 28.9653 3.76035 28.9653 3.76035L25.3554 17.5984L22.3901 6.2744C22.1107 5.0711 21.5521 3.58845 20.7141 2.55705C19.6826 1.2463 17.5339 1.16035 17.276 1.16035C17.0826 1.16035 14.9554 1.2463 13.838 2.55705C13 3.58845 12.4413 5.0711 12.162 6.2744L9.3686 17.5984L5.75868 3.76035C5.75868 3.76035 5.47934 2.27771 4.36198 1.2463C2.6 -0.343778 0 0.0429983 0 0.0429983L6.87603 25.9356C6.87603 25.9356 9.11074 26.1289 10.2281 25.5703C11.7107 24.8182 12.4628 24.281 13.3008 20.7356C14.1388 17.5769 16.3736 8.38019 16.5455 7.73556C16.6314 7.45622 16.8248 6.61821 17.3835 6.61821C17.9422 6.61821 18.1355 7.37027 18.2215 7.73556C18.4149 8.38019 20.6281 17.5769 21.4661 20.7356C22.3901 24.2595 23.0347 24.8182 24.5388 25.5703C25.6562 26.1289 27.8909 25.9356 27.8909 25.9356L34.724 0.0429983C34.724 0.0429983 32.124 -0.322291 30.362 1.2463Z" fill="black"/>
<path d="M41.0163 4.21159C41.0163 4.21159 40.5436 4.85622 39.6196 5.4149C38.975 5.78019 38.4163 5.97358 37.7717 6.33887C36.6543 6.89754 36.375 7.45622 36.375 8.29424V8.57358V9.97027V10.2496V25.8496C36.375 25.8496 38.137 26.043 39.2543 25.4843C40.737 24.7323 41.0163 24.0017 41.0163 20.843V5.243V4.21159Z" fill="black"/>
<path d="M58.1057 13.043L66.8297 0.128938C66.8297 0.128938 63.2198 -0.51569 61.3504 1.16034C60.1471 2.19175 58.9438 4.12563 58.9438 4.12563L55.7851 8.76695C55.5917 9.04629 55.4198 9.23968 55.1405 9.23968C54.8611 9.23968 54.5818 8.96034 54.4958 8.76695L51.3371 4.12563C51.3371 4.12563 50.0479 2.2777 48.9305 1.16034C47.0826 -0.51569 43.4512 0.128938 43.4512 0.128938L51.8958 13.0215L43.2578 25.9141C43.2578 25.9141 47.0611 26.3868 48.9305 24.7108C50.1338 23.6793 51.2512 21.9174 51.2512 21.9174L54.4099 17.276C54.6033 16.9967 54.7752 16.8033 55.0545 16.8033C55.3338 16.8033 55.6132 17.0827 55.6991 17.276L58.8578 21.9174C58.8578 21.9174 60.0611 23.6793 61.1785 24.7108C63.0264 26.3868 66.7438 25.9141 66.7438 25.9141L58.1057 13.043Z" fill="black"/>
</g>
<defs>
<clipPath id="clip0_3432_3121">
<rect width="66.8264" height="26" fill="white"/>
</clipPath>
</defs>
</svg>
