<svg width="237" height="40" viewBox="0 0 237 40" fill="none" xmlns="http://www.w3.org/2000/svg">
<g clip-path="url(#clip0_2048_3266)">
<path d="M21.8333 26.3869H27.4334C27.8225 26.3869 28.1407 26.7087 28.1407 27.1033V30.4124C28.8152 30.5788 29.4142 30.9669 29.8415 31.5146C30.2689 32.0623 30.4997 32.7378 30.4971 33.4325C30.4971 35.147 29.1243 36.538 27.4334 36.538C25.7407 36.538 24.3679 35.147 24.3679 33.4325C24.3679 31.9652 25.3752 30.7343 26.7261 30.4106V27.8197H21.8351V36.298C21.8356 36.4211 21.8045 36.5423 21.7446 36.6499C21.6847 36.7575 21.5982 36.848 21.4933 36.9125L16.6024 39.8962C16.4914 39.964 16.3637 39.9997 16.2337 39.999C16.1036 39.9984 15.9763 39.9615 15.866 39.8925L6.90952 34.2816C6.80617 34.2167 6.72106 34.1266 6.66221 34.0197C6.60335 33.9128 6.57271 33.7927 6.57315 33.6707V27.8179L2.09856 25.2178C1.9968 25.1588 1.91108 25.0758 1.84895 24.9759C1.78681 24.876 1.75015 24.7624 1.74219 24.6451V24.596V15.2832C1.74219 15.0286 1.87492 14.7922 2.09128 14.665L6.57315 12.0068V6.26851C6.57315 6.03396 6.68588 5.81578 6.87316 5.68305L6.91134 5.6576L15.8696 0.104802C15.9807 0.0356679 16.1088 -0.000976562 16.2396 -0.000976562C16.3704 -0.000976562 16.4986 0.0356679 16.6096 0.104802L21.5006 3.15029C21.6039 3.21516 21.6891 3.30529 21.7479 3.41218C21.8068 3.51907 21.8374 3.63919 21.837 3.76121V11.9995H28.848V8.51399C28.1732 8.34759 27.5739 7.95913 27.1465 7.41106C26.7192 6.86299 26.4885 6.18714 26.4916 5.49214C26.4916 3.77757 27.8643 2.38665 29.5552 2.38665C31.248 2.38665 32.6189 3.77757 32.6189 5.49214C32.6189 6.95943 31.6134 8.19035 30.2625 8.51399V12.7159C30.2632 12.8094 30.2455 12.9021 30.2103 12.9888C30.1751 13.0754 30.1232 13.1543 30.0575 13.2208C29.9918 13.2873 29.9136 13.3403 29.8274 13.3766C29.7413 13.4128 29.6488 13.4318 29.5552 13.4322H21.837V16.7159H33.8807C34.0354 16.0399 34.4143 15.4361 34.9557 15.0026C35.497 14.5692 36.1691 14.3316 36.8626 14.3286C38.5535 14.3286 39.9263 15.7177 39.9263 17.4323C39.9263 19.1468 38.5553 20.5378 36.8626 20.5378C36.1689 20.5346 35.4966 20.2968 34.9552 19.863C34.4138 19.4293 34.0351 18.825 33.8807 18.1487H21.8333V21.6705H30.8389L32.5025 23.816C32.9659 23.5451 33.4931 23.4026 34.0298 23.4033C35.7226 23.4033 37.0935 24.7924 37.0935 26.5069C37.0935 28.2215 35.7226 29.6124 34.0298 29.6124C32.3389 29.6124 30.9662 28.2215 30.9662 26.5069C30.9662 25.8778 31.1516 25.2924 31.468 24.8033L30.1516 23.1033H21.8333V26.3869ZM16.2387 1.55573L12.5241 3.85757V9.254H11.1096V4.73395L7.98772 6.67033V12.0249L11.8241 14.4977L15.7642 12.0177V7.87944H17.1787V12.4177C17.1787 12.665 17.0515 12.8959 16.8442 13.0268L12.5841 15.705V19.4887L15.1696 21.3232L14.3587 22.4978L11.8023 20.6832L9.02045 22.5105L8.25135 21.3105L11.1696 19.3923V15.7741L7.26589 13.254L3.15675 15.6904V18.7377L6.74225 16.5759L7.46589 17.8068L3.15675 20.405V24.1814L7.09498 26.4687L11.2223 23.9814L11.9441 25.2124L7.98772 27.596V33.2725L11.3987 35.4089L15.6987 32.8161L16.4224 34.0488L12.755 36.2598L16.2424 38.4434L20.4206 35.8925V25.3833L11.7696 30.6433L11.0423 29.4161L20.4206 23.7142V4.16121L16.2387 1.55573ZM27.4334 31.7634C27.2151 31.7645 26.9992 31.8088 26.798 31.8935C26.5968 31.9783 26.4143 32.1019 26.261 32.2573C26.1076 32.4126 25.9864 32.5967 25.9043 32.799C25.8222 33.0013 25.7808 33.2178 25.7825 33.4361C25.7825 34.3579 26.5207 35.1052 27.4334 35.1052C27.6514 35.1038 27.867 35.0594 28.0678 34.9747C28.2687 34.8899 28.4509 34.7665 28.604 34.6113C28.7572 34.4561 28.8782 34.2723 28.9603 34.0704C29.0424 33.8684 29.0839 33.6523 29.0825 33.4343C29.0842 33.2161 29.0428 32.9998 28.9609 32.7976C28.8789 32.5955 28.7578 32.4114 28.6047 32.2561C28.4515 32.1007 28.2692 31.9771 28.0683 31.8922C27.8673 31.8074 27.6516 31.7648 27.4334 31.7634ZM34.0335 24.836C33.8152 24.8372 33.5992 24.8814 33.3981 24.9662C33.1969 25.0509 33.0144 25.1745 32.861 25.3299C32.7077 25.4853 32.5865 25.6694 32.5044 25.8717C32.4223 26.074 32.3809 26.2904 32.3825 26.5087C32.3825 27.4324 33.1207 28.1815 34.0317 28.1815C34.25 28.1803 34.4659 28.1361 34.6671 28.0513C34.8683 27.9666 35.0508 27.843 35.2041 27.6876C35.3575 27.5322 35.4787 27.3481 35.5608 27.1458C35.6429 26.9435 35.6843 26.7271 35.6826 26.5087C35.6843 26.2904 35.6429 26.074 35.5608 25.8717C35.4787 25.6694 35.3575 25.4853 35.2041 25.3299C35.0508 25.1745 34.8683 25.0509 34.6671 24.9662C34.4659 24.8814 34.2518 24.8372 34.0335 24.836ZM36.8608 15.7632C36.6425 15.7644 36.4265 15.8086 36.2254 15.8933C36.0242 15.9781 35.8417 16.1017 35.6883 16.2571C35.535 16.4125 35.4138 16.5966 35.3317 16.7988C35.2496 17.0011 35.2082 17.2176 35.2099 17.4359C35.2099 18.3577 35.9499 19.105 36.8608 19.105C37.0788 19.1036 37.2944 19.0592 37.4952 18.9745C37.6961 18.8898 37.8783 18.7663 38.0314 18.6111C38.1845 18.456 38.3056 18.2721 38.3877 18.0702C38.4698 17.8682 38.5113 17.6521 38.5099 17.4341C38.5116 17.2159 38.4702 16.9996 38.3882 16.7974C38.3063 16.5953 38.1852 16.4113 38.0321 16.2559C37.8789 16.1005 37.6966 15.9769 37.4956 15.892C37.2947 15.8072 37.0789 15.7628 36.8608 15.7613V15.7632ZM29.5534 3.81757C29.3353 3.819 29.1195 3.86341 28.9186 3.94827C28.7176 4.03313 28.5353 4.15677 28.3822 4.31213C28.229 4.46748 28.108 4.6515 28.026 4.85366C27.944 5.05583 27.9026 5.27217 27.9043 5.49032C27.9043 6.41397 28.6425 7.16307 29.5534 7.16307C29.7717 7.16188 29.9877 7.11764 30.1888 7.03289C30.39 6.94813 30.5725 6.82453 30.7259 6.66915C30.8792 6.51378 31.0004 6.32967 31.0825 6.12739C31.1646 5.92511 31.206 5.70862 31.2044 5.49032C31.206 5.27202 31.1646 5.05553 31.0825 4.85325C31.0004 4.65097 30.8792 4.46687 30.7259 4.31149C30.5725 4.15611 30.39 4.03251 30.1888 3.94775C29.9877 3.863 29.7717 3.81876 29.5534 3.81757Z" fill="url(#paint0_linear_2048_3266)"/>
</g>
<path fill-rule="evenodd" clip-rule="evenodd" d="M56.2718 21.9433L54.0572 14.7203L51.8919 21.9433H56.2718ZM46.6656 28.5683C46.3338 28.5683 46.168 28.4428 46.168 28.1945C46.168 28.1111 46.1886 28.008 46.2307 27.8833L46.367 27.4718L51.8919 11.956C51.943 11.8177 52.0143 11.6878 52.1035 11.5705C52.1725 11.4831 52.2621 11.4144 52.3644 11.3705C52.4639 11.3293 52.6047 11.3078 52.7876 11.3078H55.5492C55.8155 11.3078 56.01 11.358 56.1346 11.4575C56.2593 11.557 56.3633 11.7238 56.4458 11.956L61.9707 27.4718L62.1078 27.8833C62.1491 28.008 62.1697 28.1111 62.1697 28.1945C62.1697 28.4437 62.0038 28.5683 61.6721 28.5683H58.9347C58.6855 28.5683 58.499 28.5226 58.3744 28.4312C58.2497 28.3397 58.1466 28.1693 58.0632 27.9201L57.0429 24.6331H51.0957L50.1247 27.9201C50.0422 28.1693 49.9382 28.3397 49.8136 28.4312C49.6889 28.5226 49.4944 28.5683 49.229 28.5683H46.6656ZM64.1853 28.5683C63.9701 28.5683 63.8123 28.5181 63.7128 28.4186C63.6132 28.3191 63.563 28.1613 63.563 27.9452V16.4641C63.563 16.231 63.6132 16.0696 63.7128 15.9782C63.8114 15.8867 63.9701 15.841 64.1853 15.841H65.9776C66.3165 15.841 66.538 15.9854 66.6411 16.2741L66.8733 17.0613C67.752 16.4803 68.5446 16.0696 69.2493 15.8285C69.9505 15.5882 70.6868 15.4661 71.4281 15.4671C72.92 15.4671 73.9744 15.9988 74.5877 17.0613C75.4341 16.4964 76.2303 16.0903 76.9772 15.8419C77.7229 15.5926 78.5041 15.4661 79.2904 15.4671C80.4524 15.4671 81.3526 15.7917 81.991 16.439C82.6303 17.0864 82.9495 17.9911 82.9495 19.154V27.9452C82.9495 28.1604 82.9046 28.3191 82.8123 28.4186C82.7217 28.5181 82.5594 28.5683 82.3281 28.5683H79.9387C79.7226 28.5683 79.5648 28.5181 79.4652 28.4186C79.3666 28.3191 79.3164 28.1613 79.3164 27.9452V19.9502C79.3164 18.8213 78.8098 18.2574 77.7985 18.2574C76.9018 18.2574 75.9981 18.4725 75.0853 18.9047V27.9443C75.0853 28.1595 75.0405 28.3182 74.949 28.4177C74.8576 28.5172 74.6953 28.5674 74.4631 28.5674H72.0745C71.8593 28.5674 71.7006 28.5172 71.6011 28.4177C71.5025 28.3182 71.4523 28.1604 71.4523 27.9443V19.9493C71.4523 18.8204 70.9457 18.2565 69.9343 18.2565C69.0054 18.2565 68.0927 18.4806 67.197 18.9289V27.9443C67.197 28.1595 67.1513 28.3182 67.0598 28.4177C66.9683 28.5172 66.807 28.5674 66.5747 28.5674L64.1853 28.5683ZM89.0213 28.9664C87.7938 28.9664 86.8111 28.6177 86.0723 27.9201C85.3344 27.2234 84.965 26.2936 84.965 25.1316C84.965 24.3175 85.1766 23.5984 85.5998 22.9762C86.023 22.354 86.6076 21.8806 87.3545 21.5569C88.1005 21.2332 88.9549 21.0709 89.9179 21.0709C90.7141 21.0709 91.5927 21.1785 92.5557 21.3955V20.1492C92.5557 19.3862 92.3979 18.8626 92.0823 18.5801C91.7676 18.2986 91.1866 18.1569 90.3402 18.1569C89.3378 18.1569 88.2242 18.3147 86.9976 18.6295L86.5332 18.755C86.4449 18.7846 86.3528 18.8015 86.2597 18.8052C85.9773 18.8052 85.8365 18.6142 85.8365 18.2314V17.1106C85.8365 16.8452 85.8697 16.6623 85.9352 16.5637C86.0024 16.4642 86.1512 16.3637 86.3835 16.2642C86.9645 16.0158 87.6656 15.8204 88.4869 15.6796C89.3132 15.5378 90.1501 15.4667 90.9884 15.4671C92.6965 15.4671 93.9445 15.8123 94.7327 16.5009C95.5217 17.1904 95.9153 18.2735 95.9153 19.7511V27.9461C95.9153 28.1613 95.8696 28.3191 95.7781 28.4186C95.6866 28.5181 95.5253 28.5683 95.293 28.5683H93.6002C93.4012 28.5683 93.2479 28.5262 93.1403 28.4428C93.0327 28.3603 92.9538 28.2187 92.9036 28.0196L92.7547 27.4476C92.2309 27.9183 91.6285 28.2934 90.975 28.5558C90.3025 28.8293 89.6525 28.9664 89.0213 28.9664ZM90.0416 26.5259C90.4567 26.5259 90.8844 26.4344 91.3238 26.2515C91.7694 26.0654 92.1846 25.8136 92.5557 25.5046V23.3375C91.9058 23.2284 91.2484 23.1702 90.5894 23.1636C89.1459 23.1636 88.4241 23.7446 88.4241 24.9066C88.4241 25.4212 88.5658 25.8202 88.8473 26.1027C89.1298 26.3842 89.5279 26.5259 90.0416 26.5259ZM98.4034 28.5683C98.1882 28.5683 98.0304 28.5181 97.9309 28.4186C97.8313 28.3191 97.7811 28.1613 97.7811 27.9452V26.6747C97.7811 26.4093 97.8107 26.2058 97.869 26.065C97.9264 25.9233 98.0304 25.762 98.1801 25.5791L104.326 18.5317H98.6526C98.4374 18.5317 98.2796 18.4815 98.1801 18.3811C98.0797 18.2825 98.0304 18.1238 98.0304 17.9086V16.4641C98.0304 16.231 98.0797 16.0696 98.1801 15.9782C98.2787 15.8867 98.4365 15.841 98.6526 15.841H107.711C107.943 15.841 108.106 15.8867 108.196 15.9782C108.288 16.0696 108.333 16.231 108.333 16.4641V17.784C108.333 18.0494 108.304 18.2529 108.246 18.3936C108.188 18.5353 108.085 18.6967 107.935 18.8796L101.713 25.8785H107.836C108.068 25.8785 108.23 25.9233 108.321 26.0148C108.412 26.1063 108.458 26.2685 108.458 26.5008V27.9452C108.458 28.1604 108.412 28.3191 108.321 28.4186C108.229 28.5181 108.068 28.5683 107.836 28.5683H98.4034ZM115.774 28.9413C113.8 28.9413 112.257 28.3478 111.145 27.1607C110.033 25.9736 109.477 24.3175 109.477 22.1917C109.477 20.0838 110.033 18.4349 111.145 17.2487C112.257 16.0607 113.799 15.4671 115.774 15.4671C117.749 15.4671 119.292 16.0607 120.402 17.2487C121.514 18.4358 122.07 20.0838 122.07 22.1917C122.07 24.3166 121.514 25.9736 120.402 27.1607C119.291 28.3478 117.749 28.9413 115.774 28.9413ZM115.774 26.1529C117.516 26.1529 118.387 24.8322 118.387 22.1917C118.387 19.5691 117.516 18.2574 115.774 18.2574C114.032 18.2574 113.161 19.5691 113.161 22.1917C113.161 24.8322 114.032 26.1529 115.774 26.1529ZM124.907 28.5683C124.692 28.5683 124.534 28.5181 124.435 28.4186C124.335 28.3191 124.285 28.1613 124.285 27.9452V16.4641C124.285 16.231 124.335 16.0696 124.435 15.9782C124.533 15.8867 124.692 15.841 124.907 15.841H126.699C127.08 15.841 127.313 16.0239 127.396 16.3888L127.62 17.211C129.113 16.049 130.705 15.4671 132.398 15.4671C133.575 15.4671 134.485 15.7872 135.123 16.4265C135.761 17.0658 136.081 17.9749 136.081 19.154V27.9452C136.081 28.1604 136.036 28.3191 135.944 28.4186C135.853 28.5181 135.691 28.5683 135.459 28.5683H133.07C132.855 28.5683 132.697 28.5181 132.597 28.4186C132.498 28.3191 132.448 28.1613 132.448 27.9452V20.2245C132.448 19.5431 132.299 19.0455 131.999 18.7299C131.702 18.4143 131.245 18.2574 130.631 18.2574C129.718 18.2574 128.814 18.5389 127.919 19.1038V27.9452C127.919 28.1604 127.873 28.3191 127.782 28.4186C127.69 28.5181 127.529 28.5683 127.297 28.5683H124.907ZM145.662 28.5683C145.447 28.5683 145.289 28.5181 145.189 28.4186C145.091 28.3191 145.04 28.1613 145.04 27.9452V11.9309C145.04 11.6978 145.09 11.5364 145.189 11.4449C145.289 11.3535 145.447 11.3087 145.662 11.3087H151.237C152.896 11.3087 154.235 11.7319 155.255 12.5783C156.276 13.4256 156.786 14.5293 156.786 15.8912C156.786 16.7376 156.591 17.4639 156.201 18.07C155.811 18.6761 155.235 19.1459 154.472 19.4776C155.533 19.7933 156.342 20.3115 156.898 21.0342C157.454 21.7559 157.732 22.64 157.732 23.6863C157.732 25.181 157.176 26.3672 156.064 27.2476C154.952 28.1281 153.459 28.5683 151.585 28.5683H145.662ZM151.51 25.9027C153.202 25.9027 154.049 25.1056 154.049 23.5124C154.049 21.868 153.145 21.0467 151.336 21.0467H148.574V25.9027H151.51ZM150.739 18.5057C152.349 18.5057 153.153 17.7589 153.153 16.2642C153.153 14.7373 152.415 13.9734 150.938 13.9734H148.574V18.5057H150.739ZM165.721 28.9422C163.614 28.9422 162.009 28.3684 160.905 27.2234C159.802 26.0776 159.25 24.4 159.25 22.1917C159.25 20.0667 159.797 18.4143 160.892 17.2361C161.987 16.0571 163.505 15.4671 165.447 15.4671C167.089 15.4671 168.354 15.9199 169.242 16.8246C170.129 17.7302 170.573 19.0213 170.573 20.6979C170.573 21.2126 170.532 21.8016 170.448 22.466C170.415 22.7153 170.35 22.8812 170.249 22.9645C170.151 23.047 170.001 23.0883 169.801 23.0883H162.61C162.676 24.1848 163.007 24.9774 163.605 25.467C164.203 25.9574 165.14 26.2022 166.417 26.2022C167.329 26.2022 168.392 26.0444 169.603 25.7288C169.691 25.6992 169.783 25.6823 169.876 25.6786C170.158 25.6786 170.3 25.8696 170.3 26.2524V27.3974C170.3 27.6628 170.262 27.8502 170.187 27.9577C170.113 28.0653 169.968 28.1613 169.752 28.2447C168.491 28.7091 167.147 28.9422 165.721 28.9422ZM167.463 20.8468V20.4236C167.463 18.7962 166.749 17.983 165.322 17.983C164.509 17.983 163.866 18.2278 163.393 18.7182C162.92 19.2078 162.651 19.917 162.584 20.8468H167.463ZM177.367 28.8418C176.289 28.8418 175.351 28.5639 174.555 28.008C173.759 27.4521 173.149 26.6792 172.726 25.6911C172.303 24.7031 172.091 23.5617 172.091 22.2661C172.091 20.2075 172.581 18.5604 173.56 17.3231C174.538 16.0858 175.833 15.4671 177.442 15.4671C178.752 15.4671 179.889 15.841 180.851 16.5879V10.7599C180.851 10.5277 180.901 10.3654 181.001 10.2749C181.099 10.1834 181.257 10.1377 181.473 10.1377H183.863C184.095 10.1377 184.256 10.1825 184.347 10.2749C184.439 10.3663 184.484 10.5277 184.484 10.7599V27.9452C184.484 28.1604 184.439 28.3191 184.348 28.4186C184.256 28.5181 184.095 28.5683 183.863 28.5683H181.872C181.672 28.5683 181.519 28.5262 181.411 28.4428C181.304 28.3603 181.224 28.2187 181.174 28.0196L181.025 27.4476C179.996 28.3774 178.777 28.8418 177.367 28.8418ZM178.562 26.1027C179.358 26.1027 180.121 25.8696 180.851 25.4051V18.8294C180.137 18.4143 179.317 18.2072 178.387 18.2072C177.508 18.2072 176.853 18.5353 176.422 19.1907C175.989 19.847 175.774 20.8387 175.774 22.1675C175.774 23.4953 176.002 24.4834 176.458 25.1307C176.916 25.7781 177.615 26.1027 178.562 26.1027ZM187.968 28.5683C187.753 28.5683 187.595 28.5181 187.496 28.4186C187.396 28.3191 187.346 28.1613 187.346 27.9452V16.4641C187.346 16.231 187.396 16.0696 187.496 15.9782C187.594 15.8867 187.753 15.841 187.968 15.841H189.76C190.141 15.841 190.374 16.0239 190.457 16.3888L190.78 17.7337C191.443 17.003 192.071 16.4848 192.659 16.1772C193.238 15.8724 193.884 15.7141 194.538 15.7164H194.886C195.119 15.7164 195.284 15.7621 195.384 15.8536C195.483 15.945 195.534 16.1064 195.534 16.3395V18.4313C195.534 18.6465 195.489 18.8052 195.396 18.9047C195.306 19.0033 195.144 19.0535 194.912 19.0535L194.712 19.0473L194.464 19.0293C194.232 19.0108 193.999 19.0024 193.766 19.0042C193.385 19.0042 192.921 19.058 192.373 19.1656C191.826 19.2732 191.361 19.4113 190.98 19.5772V27.9452C190.98 28.1604 190.934 28.3191 190.843 28.4186C190.751 28.5181 190.59 28.5683 190.358 28.5683H187.968ZM202.452 28.9413C200.478 28.9413 198.934 28.3478 197.824 27.1607C196.712 25.9736 196.156 24.3175 196.156 22.1917C196.156 20.0838 196.712 18.4349 197.824 17.2487C198.935 16.0607 200.478 15.4671 202.452 15.4671C204.426 15.4671 205.969 16.0607 207.081 17.2487C208.193 18.4358 208.749 20.0838 208.749 22.1917C208.749 24.3166 208.193 25.9736 207.081 27.1607C205.969 28.3478 204.427 28.9413 202.452 28.9413ZM202.452 26.1529C204.194 26.1529 205.065 24.8322 205.065 22.1917C205.065 19.5691 204.194 18.2574 202.452 18.2574C200.71 18.2574 199.839 19.5691 199.839 22.1917C199.839 24.8322 200.71 26.1529 202.452 26.1529ZM216.563 28.8427C214.538 28.8427 212.991 28.2778 211.921 27.1481C210.851 26.0193 210.316 24.3919 210.316 22.267C210.316 20.1582 210.881 18.5147 212.008 17.3357C213.137 16.1566 214.704 15.5675 216.711 15.5675C217.707 15.5675 218.645 15.7496 219.524 16.1145C219.739 16.1979 219.885 16.2938 219.959 16.4014C220.034 16.509 220.071 16.6964 220.071 16.9618V18.1085C220.071 18.4905 219.93 18.6815 219.648 18.6815L219.524 18.6689C219.473 18.6603 219.423 18.6477 219.374 18.6312C218.725 18.4553 218.056 18.3634 217.384 18.3578C216.222 18.3578 215.367 18.6519 214.82 19.2418C214.273 19.8309 213.999 20.7652 213.999 22.0437V22.3925C213.999 23.654 214.268 24.5802 214.808 25.1693C215.347 25.7584 216.181 26.0534 217.31 26.0534C217.834 26.0534 218.394 25.9906 218.989 25.8633L219.556 25.7315C219.644 25.7135 219.708 25.7046 219.747 25.7046C220.013 25.7046 220.145 25.8704 220.145 26.2031V27.4485C220.145 27.7139 220.109 27.9004 220.034 28.0089C219.959 28.1164 219.814 28.2115 219.599 28.2949C219.111 28.482 218.606 28.6237 218.092 28.7181C217.587 28.8041 217.075 28.8461 216.563 28.8436V28.8427ZM222.734 28.5683C222.519 28.5683 222.361 28.5181 222.261 28.4186C222.162 28.3191 222.112 28.1613 222.112 27.9452V10.7599C222.112 10.5277 222.162 10.3654 222.261 10.2749C222.36 10.1834 222.518 10.1377 222.734 10.1377H225.098C225.331 10.1377 225.493 10.1825 225.583 10.2749C225.675 10.3663 225.721 10.5277 225.721 10.7599V21.2709L229.851 16.2893C230.001 16.1064 230.138 15.9863 230.262 15.928C230.387 15.8706 230.565 15.841 230.797 15.841H233.509C233.841 15.841 234.007 15.9656 234.007 16.2149C234.007 16.3969 233.899 16.6049 233.684 16.8371L229.205 21.9182L234.132 27.5713C234.347 27.8044 234.455 28.0035 234.455 28.1693C234.455 28.4347 234.289 28.5683 233.958 28.5683H231.096C230.863 28.5683 230.685 28.5387 230.56 28.4805C230.436 28.4231 230.3 28.302 230.15 28.12L225.721 22.7646V27.9452C225.721 28.1604 225.675 28.3191 225.583 28.4186C225.492 28.5181 225.331 28.5683 225.098 28.5683H222.734Z" fill="#303245"/>
<defs>
<linearGradient id="paint0_linear_2048_3266" x1="3056.47" y1="799.999" x2="659.057" y2="3088.57" gradientUnits="userSpaceOnUse">
<stop stop-color="#6350FB"/>
<stop offset="0.5" stop-color="#3D8FFF"/>
<stop offset="1" stop-color="#9AD8F8"/>
</linearGradient>
<clipPath id="clip0_2048_3266">
<rect width="40" height="40" fill="white"/>
</clipPath>
</defs>
</svg>
