<svg width="135" height="31" viewBox="0 0 135 31" fill="none" xmlns="http://www.w3.org/2000/svg">
<path d="M91.9432 18.5004H85.4226C85.4226 18.0576 85.4226 16.6623 85.4226 16.6623C85.4226 15.4547 85.7715 14.4619 86.4289 13.8045C87.0058 13.2275 87.8108 12.9055 88.6695 12.9055C90.7625 12.919 91.9298 14.2472 91.9298 16.6623C91.9432 16.6623 91.9432 18.0576 91.9432 18.5004ZM94.3314 13.6166C92.9361 12.3823 90.9906 11.7383 88.7098 11.7383C86.6704 11.7383 84.6445 12.664 83.1418 14.3009C81.5318 16.0317 80.6463 18.4199 80.6328 20.9959C80.6328 23.5317 81.5452 25.8528 83.2223 27.5299C84.8189 29.1399 86.9522 30.012 89.233 30.012C93.6203 29.9986 96.089 26.7517 96.5183 23.7463L96.5452 23.5853H95.1901L95.1767 23.7061C94.8681 26.1479 92.7885 28.7508 89.5416 28.7374C86.9522 28.7374 85.4629 26.9664 85.4495 23.8805C85.4495 23.8805 85.4495 20.5129 85.4495 19.7884H96.8135V19.6408C96.7196 17.0111 95.8878 14.9852 94.3314 13.6166Z" fill="#0067A5"/>
<path d="M58.7256 26.056H57.451L57.4242 26.1633C57.2766 26.9683 56.7668 28.3234 55.1299 28.31C53.8553 28.31 53.1979 27.411 53.1979 25.6534C53.1979 25.6534 53.1979 14.7456 53.1979 13.4039H57.3974V13.2697V12.344V12.2098H53.2247V6.91016L53.0771 6.92357C52.0977 7.03091 50.0986 7.17849 49.0521 7.17849H48.9179V12.2098H46.1406V13.4173H48.9313V24.0837C48.9313 28.0148 50.6219 30.0005 53.9358 30.0005C57.7462 30.0005 58.5378 27.1025 58.6988 26.217L58.7256 26.056Z" fill="#0067A5"/>
<path d="M11.1896 7.54025L15.2147 19.0385H7.43291L11.1896 7.54025ZM43.6047 28.3229V17.4821C43.6047 15.805 43.068 14.3694 42.0349 13.3363C41.0018 12.3032 39.5125 11.7397 37.8489 11.7397C35.568 11.7397 33.7433 12.6521 32.4016 14.4365L32.3614 12.3569V12.2227H25.5322V13.4034H28.2156V28.3229H23.4258L13.5913 0.093918L13.5644 0H12.3569L2.7102 28.3229H0V29.5036H8.03667V28.3229H4.33363L7.00358 20.2594H15.6038L18.314 28.3229H14.5707V29.5036H35.085V28.3229H32.4016V20.0447C32.415 15.1073 35.0447 13.3095 36.8158 13.3095C38.5331 13.3095 39.4052 14.4231 39.4052 16.61C39.4052 16.61 39.4052 27.0081 39.4052 28.3229H36.8963V29.5036H46.3283V28.3229H43.6047Z" fill="#0067A5"/>
<path d="M77.3218 28.3244V17.3092C77.3218 14.7332 75.752 11.7412 71.3647 11.7412C67.9568 11.7412 66.1858 13.3915 65.4345 14.2502V0.0820312H58.5919V1.31638H61.1545V28.3244H58.3906V29.5051H68.0776V28.3244H65.4345V19.9389C65.4345 17.0409 66.4273 15.4443 67.2592 14.6124C68.0642 13.8074 69.0973 13.3647 70.1572 13.3647C72.5051 13.3647 73.0016 15.2967 73.015 16.9201C73.015 16.9201 73.015 27.0364 73.015 28.3244H70.3719V29.5051H80.0588V28.3244H77.3218Z" fill="#0067A5"/>
<path d="M128.578 28.3233H125.948V16.6373C125.948 13.6051 123.869 11.7267 120.541 11.7267C117.388 11.7267 115.671 13.2965 114.879 14.343C114.007 12.6256 112.303 11.7133 109.955 11.7267C107.701 11.7267 105.689 12.5586 104.347 14.0076L104.307 12.3439V12.2097H97.3438V13.3904H100.188V28.3099H97.3839V29.4906H106.856V28.3099H104.441V20.072C104.522 17.6704 104.629 16.1274 105.488 14.9467C106.225 13.9673 107.406 13.3501 108.56 13.3501C109.982 13.3501 110.492 14.4235 110.546 14.5442C110.908 15.2285 110.908 16.4092 110.908 17.5496V28.3099H108.386V29.4906H117.67V28.3099H115.242V20.072C115.322 17.6704 115.429 16.1274 116.288 14.9467C117.026 13.9673 118.207 13.3501 119.361 13.3501C120.783 13.3501 121.293 14.4235 121.346 14.5442C121.709 15.2285 121.708 16.4092 121.708 17.5496V28.3099H119.2V29.4906H128.712V28.3099H128.578" fill="#0067A5"/>
<path d="M131.902 27.0879C132.251 27.0879 132.747 27.1416 132.747 26.672C132.747 26.3232 132.452 26.2695 132.144 26.2695H131.446V27.0879H131.902ZM131.459 28.5101H131.137V25.9743H132.224C132.881 25.9743 133.11 26.2158 133.11 26.672C133.11 27.155 132.761 27.3428 132.331 27.3831L133.083 28.5101H132.72L132.009 27.3831H131.473V28.5101H131.459ZM133.821 27.2489C133.821 26.1756 133.042 25.3974 131.969 25.3974C130.882 25.3974 130.104 26.1756 130.104 27.2489C130.104 28.3357 130.882 29.1139 131.969 29.1139C133.042 29.1139 133.821 28.3357 133.821 27.2489ZM129.742 27.2489C129.742 26.0414 130.735 25.0352 131.969 25.0352C133.19 25.0352 134.183 26.028 134.183 27.2489C134.183 28.4699 133.19 29.4761 131.969 29.4761C130.735 29.4761 129.742 28.4833 129.742 27.2489Z" fill="#0067A5"/>
</svg>
