<svg width="62" height="36" viewBox="0 0 62 36" fill="none" xmlns="http://www.w3.org/2000/svg">
<g clip-path="url(#clip0_53_4869)">
<g clip-path="url(#clip1_53_4869)">
<path d="M18.0472 13.1352C18.0472 13.8671 18.1263 14.4605 18.2648 14.8957C18.423 15.3308 18.6208 15.8056 18.8977 16.3198C18.9966 16.4781 19.0362 16.6363 19.0362 16.7748C19.0362 16.9726 18.9175 17.1704 18.6604 17.3682L17.4142 18.199C17.2362 18.3177 17.0582 18.377 16.8999 18.377C16.7021 18.377 16.5043 18.2781 16.3065 18.1001C16.0296 17.8034 15.7922 17.4869 15.5944 17.1704C15.3966 16.8341 15.1988 16.4583 14.9813 16.0034C13.4384 17.8231 11.4999 18.733 9.16587 18.733C7.50434 18.733 6.17906 18.2583 5.20983 17.3089C4.2406 16.3594 3.74609 15.0935 3.74609 13.5111C3.74609 11.8297 4.3395 10.4649 5.54609 9.43633C6.75269 8.40776 8.35488 7.89348 10.3922 7.89348C11.0648 7.89348 11.7571 7.95282 12.489 8.05172C13.2208 8.15062 13.9725 8.30886 14.7637 8.48688V7.04293C14.7637 5.53963 14.4472 4.49128 13.834 3.87809C13.201 3.2649 12.1329 2.9682 10.6098 2.9682C9.91752 2.9682 9.20543 3.04732 8.47357 3.22534C7.7417 3.40337 7.02961 3.62095 6.3373 3.89787C6.02082 4.03633 5.78346 4.11545 5.64499 4.15501C5.50653 4.19457 5.40763 4.21435 5.32851 4.21435C5.05159 4.21435 4.91313 4.01655 4.91313 3.60117V2.63194C4.91313 2.31545 4.95269 2.07809 5.05159 1.93963C5.15049 1.80117 5.32851 1.66271 5.60543 1.52424C6.29774 1.1682 7.12851 0.871497 8.09774 0.634135C9.06697 0.376992 10.0955 0.25831 11.1835 0.25831C13.5373 0.25831 15.2582 0.792376 16.3659 1.86051C17.4538 2.92864 18.0076 4.55062 18.0076 6.72644V13.1352H18.0472ZM10.0164 16.1418C10.6692 16.1418 11.3417 16.0231 12.0538 15.7858C12.7659 15.5484 13.3988 15.1133 13.9329 14.5198C14.2494 14.144 14.4868 13.7286 14.6054 13.2539C14.7241 12.7792 14.8032 12.2056 14.8032 11.533V10.7023C14.2296 10.5638 13.6164 10.4451 12.9835 10.366C12.3505 10.2869 11.7373 10.2473 11.1241 10.2473C9.79884 10.2473 8.82961 10.5045 8.17686 11.0385C7.52412 11.5726 7.20763 12.3242 7.20763 13.3133C7.20763 14.2429 7.44499 14.9352 7.9395 15.41C8.41423 15.9045 9.10653 16.1418 10.0164 16.1418ZM25.8999 18.2781C25.5439 18.2781 25.3065 18.2188 25.1483 18.0803C24.9901 17.9616 24.8516 17.6847 24.7329 17.3089L20.0846 2.01875C19.9659 1.62315 19.9065 1.366 19.9065 1.22754C19.9065 0.911058 20.0648 0.733036 20.3813 0.733036H22.3197C22.6955 0.733036 22.9527 0.792376 23.0911 0.930838C23.2494 1.04952 23.3681 1.32644 23.4868 1.70227L26.8098 14.7968L29.8955 1.70227C29.9944 1.30666 30.1131 1.04952 30.2714 0.930838C30.4296 0.812157 30.7065 0.733036 31.0626 0.733036H32.645C33.0208 0.733036 33.278 0.792376 33.4362 0.930838C33.5944 1.04952 33.7329 1.32644 33.812 1.70227L36.9373 14.955L40.3593 1.70227C40.478 1.30666 40.6164 1.04952 40.7549 0.930838C40.9131 0.812157 41.1703 0.733036 41.5263 0.733036H43.3659C43.6824 0.733036 43.8604 0.891277 43.8604 1.22754C43.8604 1.32644 43.8406 1.42534 43.8208 1.54402C43.801 1.66271 43.7615 1.82095 43.6824 2.03853L38.9153 17.3286C38.7966 17.7242 38.6582 17.9814 38.4999 18.1001C38.3417 18.2188 38.0846 18.2979 37.7483 18.2979H36.0472C35.6714 18.2979 35.4142 18.2385 35.256 18.1001C35.0977 17.9616 34.9593 17.7045 34.8802 17.3089L31.8142 4.55062L28.7681 17.2891C28.6692 17.6847 28.5505 17.9418 28.3922 18.0803C28.234 18.2188 27.9571 18.2781 27.601 18.2781H25.8999ZM51.3175 18.8122C50.289 18.8122 49.2604 18.6935 48.2714 18.4561C47.2824 18.2188 46.5109 17.9616 45.9966 17.6649C45.6802 17.4869 45.4626 17.2891 45.3835 17.1111C45.3043 16.933 45.2648 16.7352 45.2648 16.5572V15.5484C45.2648 15.133 45.423 14.9352 45.7197 14.9352C45.8384 14.9352 45.9571 14.955 46.0758 14.9946C46.1944 15.0341 46.3725 15.1133 46.5703 15.1924C47.2428 15.4891 47.9747 15.7264 48.7461 15.8847C49.5373 16.0429 50.3087 16.122 51.0999 16.122C52.3461 16.122 53.3153 15.9045 53.9879 15.4693C54.6604 15.0341 55.0164 14.4012 55.0164 13.5902C55.0164 13.0363 54.8384 12.5814 54.4824 12.2056C54.1263 11.8297 53.4538 11.4935 52.4846 11.177L49.6164 10.2869C48.1725 9.83194 47.1043 9.15941 46.4516 8.2693C45.7988 7.39897 45.4626 6.42974 45.4626 5.40117C45.4626 4.5704 45.6406 3.83853 45.9966 3.20556C46.3527 2.5726 46.8274 2.01875 47.4208 1.58359C48.0142 1.12864 48.6868 0.792376 49.478 0.555014C50.2692 0.317651 51.0999 0.21875 51.9703 0.21875C52.4054 0.21875 52.8604 0.23853 53.2955 0.297871C53.7505 0.357212 54.1659 0.436332 54.5813 0.515453C54.9769 0.614354 55.3527 0.713255 55.7087 0.831937C56.0648 0.950618 56.3417 1.0693 56.5395 1.18798C56.8164 1.34622 57.0142 1.50446 57.1329 1.68249C57.2516 1.84073 57.3109 2.05831 57.3109 2.33523V3.2649C57.3109 3.68029 57.1527 3.89787 56.856 3.89787C56.6977 3.89787 56.4406 3.81875 56.1043 3.66051C54.9769 3.14622 53.7109 2.88908 52.3065 2.88908C51.1791 2.88908 50.289 3.0671 49.6758 3.44293C49.0626 3.81875 48.7461 4.39238 48.7461 5.20337C48.7461 5.75721 48.9439 6.23194 49.3395 6.60776C49.7351 6.98359 50.467 7.35941 51.5153 7.69567L54.3241 8.58578C55.7483 9.04073 56.7769 9.6737 57.39 10.4847C58.0032 11.2957 58.2999 12.2253 58.2999 13.2539C58.2999 14.1045 58.1219 14.8759 57.7857 15.5484C57.4296 16.2209 56.9549 16.8144 56.3417 17.2891C55.7285 17.7836 54.9966 18.1396 54.1461 18.3968C53.256 18.6737 52.3263 18.8122 51.3175 18.8122Z" fill="#303245"/>
<path fill-rule="evenodd" clip-rule="evenodd" d="M55.0541 28.4238C48.5464 33.2304 39.0915 35.7821 30.9618 35.7821C19.5684 35.7821 9.30248 31.5689 1.54863 24.5667C0.935446 24.0129 1.48929 23.2612 2.22116 23.6964C10.608 28.5623 20.953 31.5096 31.6541 31.5096C38.8739 31.5096 46.8058 30.0063 54.1047 26.9205C55.1926 26.426 56.1223 27.6326 55.0541 28.4238Z" fill="#303245"/>
<path fill-rule="evenodd" clip-rule="evenodd" d="M57.7654 25.3394C56.9346 24.2713 52.2665 24.8251 50.15 25.0823C49.517 25.1614 49.4181 24.6075 49.9917 24.1922C53.7104 21.5812 59.8225 22.3328 60.5346 23.2031C61.2467 24.0933 60.3368 30.2053 56.8555 33.1328C56.3214 33.5878 55.8071 33.3504 56.0445 32.757C56.8357 30.7988 58.5961 26.3878 57.7654 25.3394Z" fill="#303245"/>
</g>
</g>
<defs>
<clipPath id="clip0_53_4869">
<rect width="62" height="36" fill="white"/>
</clipPath>
<clipPath id="clip1_53_4869">
<rect width="62" height="36" fill="white"/>
</clipPath>
</defs>
</svg>
