<svg width="279" height="43" viewBox="0 0 279 43" fill="none" xmlns="http://www.w3.org/2000/svg">
<path d="M14.284 41.3257L21.0477 37.4206L21.0477 5.23072L14.284 1.32568L7.52029 5.23072L7.52029 10.2966L1.32617 13.8728L1.32617 28.7682L7.52029 32.3444L7.52029 37.4206L14.284 41.3257Z" stroke="#303245" stroke-width="2.6514" stroke-linejoin="round"/>
<path d="M27.8117 41.3257L21.048 37.4206L21.048 5.23072L27.8117 1.32568L34.5754 5.23072V10.2966L40.7695 13.8728L40.7695 28.7682L34.5754 32.3444V37.4206L27.8117 41.3257Z" stroke="#303245" stroke-width="2.6514" stroke-linejoin="round"/>
<path d="M15.7832 24.0881V18.5624L21.0479 15.5229L26.3126 18.5624V24.0881L21.0479 27.1277L15.7832 24.0881Z" fill="#303245"/>
<path d="M66.7349 26.6455H60.1398L58.9009 30.3257H54.99L61.3787 12.4228H65.6054L71.9455 30.3257H67.8888L66.7349 26.6455ZM65.6904 23.5605L63.4556 16.5159L61.1479 23.5605H65.6904ZM80.6365 20.7305C80.345 20.0908 79.7742 19.771 78.924 19.771C77.9361 19.771 77.2721 20.0908 76.9321 20.7305C76.7458 21.0949 76.6527 21.6374 76.6527 22.3581V30.3257H73.1426V17.1111H76.5069V19.0423C76.9361 18.354 77.341 17.8641 77.7215 17.5726C78.3936 17.0544 79.264 16.7953 80.3329 16.7953C81.345 16.7953 82.1628 17.018 82.7863 17.4633C83.2883 17.8763 83.6689 18.4066 83.928 19.0544C84.3815 18.2771 84.9442 17.7062 85.6163 17.3418C86.3288 16.9775 87.1224 16.7953 87.9969 16.7953C88.5799 16.7953 89.1548 16.9086 89.7216 17.1354C90.2884 17.3621 90.8025 17.7589 91.2641 18.3257C91.6365 18.7872 91.8876 19.354 92.0171 20.0261C92.0981 20.4714 92.1386 21.1232 92.1386 21.9815L92.1143 30.3257H88.5677V21.8965C88.5677 21.3945 88.4867 20.9815 88.3248 20.6576C88.0171 20.0423 87.4503 19.7346 86.6244 19.7346C85.6689 19.7346 85.009 20.1313 84.6446 20.9249C84.4584 21.3459 84.3653 21.852 84.3653 22.4431V30.3257H80.8794V22.4431C80.8794 21.6576 80.7985 21.0868 80.6365 20.7305ZM95.0846 18.52C95.9996 17.354 97.5705 16.771 99.7972 16.771C101.247 16.771 102.534 17.0584 103.66 17.6333C104.785 18.2082 105.348 19.2933 105.348 20.8884V26.9613C105.348 27.3824 105.356 27.8925 105.372 28.4917C105.396 28.9451 105.465 29.2528 105.579 29.4148C105.692 29.5767 105.862 29.7103 106.089 29.8156V30.3257H102.324C102.218 30.0585 102.145 29.8075 102.105 29.5726C102.064 29.3378 102.032 29.0706 102.008 28.771C101.53 29.2892 100.979 29.7305 100.356 30.0949C99.611 30.5241 98.7689 30.7386 97.8296 30.7386C96.6312 30.7386 95.6393 30.3986 94.8539 29.7184C94.0765 29.0301 93.6879 28.0585 93.6879 26.8034C93.6879 25.1759 94.3154 23.9977 95.5705 23.269C96.2587 22.8722 97.2709 22.5888 98.6069 22.4188L99.7851 22.273C100.425 22.1921 100.882 22.0908 101.158 21.9694C101.651 21.7589 101.898 21.4309 101.898 20.9856C101.898 20.4431 101.708 20.0706 101.328 19.8682C100.955 19.6576 100.404 19.5524 99.6757 19.5524C98.8579 19.5524 98.279 19.7548 97.9389 20.1597C97.696 20.4593 97.534 20.8641 97.4531 21.3742H94.113C94.1859 20.2163 94.5097 19.2649 95.0846 18.52ZM97.6595 27.8237C97.9834 28.0909 98.3802 28.2245 98.8498 28.2245C99.5948 28.2245 100.279 28.0058 100.902 27.5686C101.534 27.1313 101.862 26.3338 101.886 25.1759V23.8884C101.668 24.0261 101.445 24.1394 101.218 24.2285C101 24.3095 100.696 24.3864 100.307 24.4593L99.53 24.605C98.8013 24.7346 98.279 24.8925 97.9632 25.0787C97.4288 25.3945 97.1616 25.8844 97.1616 26.5483C97.1616 27.1394 97.3276 27.5645 97.6595 27.8237ZM117.901 30.3257H106.472V27.6293L113.262 19.9046H106.934V17.0868H117.67V19.9653L110.954 27.4836H117.901V30.3257ZM130.418 18.7629C131.536 20.1637 132.094 21.8196 132.094 23.7305C132.094 25.6739 131.536 27.3378 130.418 28.7224C129.301 30.099 127.604 30.7872 125.329 30.7872C123.054 30.7872 121.357 30.099 120.24 28.7224C119.123 27.3378 118.564 25.6739 118.564 23.7305C118.564 21.8196 119.123 20.1637 120.24 18.7629C121.357 17.3621 123.054 16.6617 125.329 16.6617C127.604 16.6617 129.301 17.3621 130.418 18.7629ZM125.317 19.5888C124.305 19.5888 123.523 19.9491 122.973 20.6698C122.43 21.3823 122.159 22.4026 122.159 23.7305C122.159 25.0585 122.43 26.0828 122.973 26.8034C123.523 27.5241 124.305 27.8844 125.317 27.8844C126.329 27.8844 127.106 27.5241 127.649 26.8034C128.191 26.0828 128.463 25.0585 128.463 23.7305C128.463 22.4026 128.191 21.3823 127.649 20.6698C127.106 19.9491 126.329 19.5888 125.317 19.5888ZM140.069 19.6495C138.895 19.6495 138.089 20.1475 137.652 21.1435C137.425 21.6698 137.312 22.3419 137.312 23.1597V30.3257H133.862V17.1111H137.202V19.0423C137.648 18.3621 138.069 17.8722 138.465 17.5726C139.178 17.0382 140.081 16.771 141.174 16.771C142.542 16.771 143.66 17.1313 144.526 17.852C145.401 18.5645 145.838 19.7508 145.838 21.4107V30.3257H142.291V22.273C142.291 21.5767 142.198 21.0423 142.012 20.6698C141.672 19.9896 141.024 19.6495 140.069 19.6495ZM161.252 27.7386C162.135 27.7386 162.852 27.6415 163.402 27.4471C164.447 27.0747 164.969 26.3824 164.969 25.3702C164.969 24.7791 164.71 24.3216 164.192 23.9977C163.673 23.6819 162.86 23.4026 161.75 23.1597L159.856 22.7346C157.993 22.3135 156.706 21.856 155.993 21.3621C154.787 20.5362 154.184 19.2447 154.184 17.4876C154.184 15.8844 154.767 14.5524 155.933 13.4916C157.099 12.4309 158.811 11.9005 161.07 11.9005C162.957 11.9005 164.564 12.4026 165.892 13.4066C167.228 14.4026 167.929 15.852 167.993 17.7548H164.398C164.333 16.6779 163.864 15.9127 162.989 15.4593C162.406 15.1597 161.682 15.0099 160.815 15.0099C159.852 15.0099 159.082 15.2042 158.507 15.5929C157.933 15.9815 157.645 16.524 157.645 17.2204C157.645 17.8601 157.929 18.3378 158.495 18.6536C158.86 18.8641 159.637 19.1111 160.827 19.3945L163.912 20.1354C165.265 20.4593 166.285 20.8925 166.973 21.435C168.042 22.2771 168.576 23.4957 168.576 25.0909C168.576 26.7265 167.949 28.0868 166.694 29.1718C165.447 30.2488 163.682 30.7872 161.398 30.7872C159.066 30.7872 157.232 30.2569 155.896 29.1961C154.56 28.1273 153.892 26.6617 153.892 24.7994H157.463C157.576 25.6172 157.799 26.2285 158.131 26.6334C158.738 27.3702 159.779 27.7386 161.252 27.7386ZM170.818 18.52C171.733 17.354 173.304 16.771 175.53 16.771C176.98 16.771 178.267 17.0584 179.393 17.6333C180.518 18.2082 181.081 19.2933 181.081 20.8884V26.9613C181.081 27.3824 181.089 27.8925 181.105 28.4917C181.13 28.9451 181.199 29.2528 181.312 29.4148C181.425 29.5767 181.595 29.7103 181.822 29.8156V30.3257H178.057C177.952 30.0585 177.879 29.8075 177.838 29.5726C177.798 29.3378 177.765 29.0706 177.741 28.771C177.263 29.2892 176.713 29.7305 176.089 30.0949C175.344 30.5241 174.502 30.7386 173.563 30.7386C172.364 30.7386 171.373 30.3986 170.587 29.7184C169.81 29.0301 169.421 28.0585 169.421 26.8034C169.421 25.1759 170.049 23.9977 171.304 23.269C171.992 22.8722 173.004 22.5888 174.34 22.4188L175.518 22.273C176.158 22.1921 176.616 22.0908 176.891 21.9694C177.385 21.7589 177.632 21.4309 177.632 20.9856C177.632 20.4431 177.441 20.0706 177.061 19.8682C176.688 19.6576 176.138 19.5524 175.409 19.5524C174.591 19.5524 174.012 19.7548 173.672 20.1597C173.429 20.4593 173.267 20.8641 173.186 21.3742H169.846C169.919 20.2163 170.243 19.2649 170.818 18.52ZM173.393 27.8237C173.717 28.0909 174.113 28.2245 174.583 28.2245C175.328 28.2245 176.012 28.0058 176.636 27.5686C177.267 27.1313 177.595 26.3338 177.62 25.1759V23.8884C177.401 24.0261 177.178 24.1394 176.952 24.2285C176.733 24.3095 176.429 24.3864 176.041 24.4593L175.263 24.605C174.535 24.7346 174.012 24.8925 173.696 25.0787C173.162 25.3945 172.895 25.8844 172.895 26.5483C172.895 27.1394 173.061 27.5645 173.393 27.8237ZM187.161 32.6455C187.533 32.9613 188.161 33.1192 189.043 33.1192C190.29 33.1192 191.124 32.7022 191.545 31.8682C191.821 31.3338 191.958 30.435 191.958 29.1718V28.3216C191.626 28.8884 191.27 29.3135 190.89 29.5969C190.201 30.1233 189.307 30.3864 188.205 30.3864C186.505 30.3864 185.145 29.7913 184.124 28.601C183.112 27.4026 182.606 25.7832 182.606 23.7427C182.606 21.7751 183.096 20.1232 184.076 18.7872C185.056 17.4431 186.444 16.771 188.242 16.771C188.906 16.771 189.485 16.8722 189.979 17.0746C190.821 17.4228 191.501 18.0625 192.019 18.9937V17.0868H195.383V29.6455C195.383 31.354 195.096 32.6415 194.521 33.5079C193.533 34.9978 191.639 35.7427 188.837 35.7427C187.145 35.7427 185.764 35.4107 184.695 34.7467C183.626 34.0828 183.035 33.0909 182.922 31.771H186.687C186.784 32.1759 186.942 32.4674 187.161 32.6455ZM186.578 25.8075C187.047 26.9249 187.89 27.4836 189.104 27.4836C189.914 27.4836 190.598 27.1799 191.157 26.5726C191.715 25.9573 191.995 24.9815 191.995 23.6455C191.995 22.3904 191.728 21.435 191.193 20.7791C190.667 20.1232 189.958 19.7953 189.068 19.7953C187.853 19.7953 187.015 20.3661 186.554 21.5078C186.311 22.1151 186.189 22.8641 186.189 23.7548C186.189 24.5241 186.319 25.2083 186.578 25.8075ZM209.212 26.439C209.123 27.2245 208.714 28.022 207.985 28.8318C206.852 30.1192 205.265 30.7629 203.224 30.7629C201.54 30.7629 200.054 30.2204 198.767 29.1354C197.479 28.0504 196.836 26.2852 196.836 23.8398C196.836 21.5483 197.415 19.7912 198.572 18.5686C199.738 17.3459 201.249 16.7346 203.103 16.7346C204.204 16.7346 205.196 16.941 206.079 17.354C206.961 17.767 207.69 18.4188 208.265 19.3095C208.783 20.0949 209.119 21.0058 209.273 22.0423C209.362 22.6496 209.398 23.524 209.382 24.6658H200.321C200.37 25.9937 200.787 26.9249 201.572 27.4593C202.05 27.7913 202.625 27.9573 203.297 27.9573C204.01 27.9573 204.589 27.7548 205.034 27.35C205.277 27.1313 205.492 26.8277 205.678 26.439H209.212ZM205.787 22.3823C205.73 21.4674 205.451 20.7751 204.949 20.3054C204.455 19.8277 203.84 19.5888 203.103 19.5888C202.301 19.5888 201.678 19.8398 201.232 20.3419C200.795 20.8439 200.52 21.524 200.406 22.3823H205.787ZM214.685 30.3257H211.199V12.4228H216.64L219.895 26.4998L223.126 12.4228H228.506V30.3257H225.021V18.2163C225.021 17.8682 225.025 17.3823 225.033 16.7589C225.041 16.1273 225.045 15.6414 225.045 15.3014L221.656 30.3257H218.025L214.66 15.3014C214.66 15.6414 214.664 16.1273 214.672 16.7589C214.681 17.3823 214.685 17.8682 214.685 18.2163V30.3257ZM231.453 18.52C232.368 17.354 233.938 16.771 236.165 16.771C237.615 16.771 238.902 17.0584 240.027 17.6333C241.153 18.2082 241.716 19.2933 241.716 20.8884V26.9613C241.716 27.3824 241.724 27.8925 241.74 28.4917C241.764 28.9451 241.833 29.2528 241.947 29.4148C242.06 29.5767 242.23 29.7103 242.457 29.8156V30.3257H238.691C238.586 30.0585 238.513 29.8075 238.473 29.5726C238.432 29.3378 238.4 29.0706 238.376 28.771C237.898 29.2892 237.347 29.7305 236.724 30.0949C235.979 30.5241 235.137 30.7386 234.197 30.7386C232.999 30.7386 232.007 30.3986 231.222 29.7184C230.444 29.0301 230.056 28.0585 230.056 26.8034C230.056 25.1759 230.683 23.9977 231.938 23.269C232.627 22.8722 233.639 22.5888 234.975 22.4188L236.153 22.273C236.793 22.1921 237.25 22.0908 237.525 21.9694C238.019 21.7589 238.266 21.4309 238.266 20.9856C238.266 20.4431 238.076 20.0706 237.695 19.8682C237.323 19.6576 236.772 19.5524 236.044 19.5524C235.226 19.5524 234.647 19.7548 234.307 20.1597C234.064 20.4593 233.902 20.8641 233.821 21.3742H230.481C230.554 20.2163 230.878 19.2649 231.453 18.52ZM234.027 27.8237C234.351 28.0909 234.748 28.2245 235.218 28.2245C235.963 28.2245 236.647 28.0058 237.27 27.5686C237.902 27.1313 238.23 26.3338 238.254 25.1759V23.8884C238.036 24.0261 237.813 24.1394 237.586 24.2285C237.368 24.3095 237.064 24.3864 236.675 24.4593L235.898 24.605C235.169 24.7346 234.647 24.8925 234.331 25.0787C233.797 25.3945 233.529 25.8844 233.529 26.5483C233.529 27.1394 233.695 27.5645 234.027 27.8237ZM256.2 30.3257H252.022L248.852 24.6658L247.419 26.1597V30.3257H244.018V12.4835H247.419V22.1273L251.731 17.1475H256.018L251.391 22.2123L256.2 30.3257ZM268.486 26.439C268.397 27.2245 267.989 28.022 267.26 28.8318C266.126 30.1192 264.539 30.7629 262.499 30.7629C260.814 30.7629 259.329 30.2204 258.041 29.1354C256.754 28.0504 256.11 26.2852 256.11 23.8398C256.11 21.5483 256.689 19.7912 257.847 18.5686C259.013 17.3459 260.523 16.7346 262.377 16.7346C263.478 16.7346 264.47 16.941 265.353 17.354C266.235 17.767 266.964 18.4188 267.539 19.3095C268.057 20.0949 268.393 21.0058 268.547 22.0423C268.636 22.6496 268.673 23.524 268.657 24.6658H259.596C259.644 25.9937 260.061 26.9249 260.847 27.4593C261.325 27.7913 261.899 27.9573 262.571 27.9573C263.284 27.9573 263.863 27.7548 264.308 27.35C264.551 27.1313 264.766 26.8277 264.952 26.439H268.486ZM265.061 22.3823C265.005 21.4674 264.725 20.7751 264.223 20.3054C263.729 19.8277 263.114 19.5888 262.377 19.5888C261.576 19.5888 260.952 19.8398 260.507 20.3419C260.069 20.8439 259.794 21.524 259.681 22.3823H265.061ZM276.91 20.2811C275.518 20.2811 274.582 20.7346 274.105 21.6415C273.837 22.1516 273.704 22.937 273.704 23.9977V30.3257H270.218V17.0868H273.522V19.3945C274.056 18.5119 274.522 17.9087 274.918 17.5848C275.566 17.0423 276.408 16.771 277.445 16.771C277.51 16.771 277.562 16.775 277.603 16.7831C277.651 16.7831 277.752 16.7872 277.906 16.7953V20.3419C277.688 20.3176 277.493 20.3014 277.323 20.2933C277.153 20.2852 277.016 20.2811 276.91 20.2811Z" fill="#303245"/>
</svg>
