<svg width="158" height="40" viewBox="0 0 158 40" fill="none" xmlns="http://www.w3.org/2000/svg">
<g clip-path="url(#clip0_2048_3278)">
<path fill-rule="evenodd" clip-rule="evenodd" d="M51.3557 28.4755H43.9932V11.5259H51.3557C56.6591 11.5259 59.3148 14.1973 59.3148 19.5381C59.3128 25.4951 56.6591 28.4755 51.3557 28.4755ZM47.139 25.7471H50.8793C54.4031 25.7471 56.1631 23.6781 56.1631 19.5361C56.1631 16.0104 54.4012 14.2465 50.8793 14.2465H47.139V25.7471Z" fill="#632CA6"/>
<path fill-rule="evenodd" clip-rule="evenodd" d="M62.6104 28.4755H59.3779L66.5889 11.5259H69.9729L77.3375 28.4755H73.9535L71.8155 23.8533H66.3763L67.4571 21.1267H70.9848L68.2051 14.7603L62.6104 28.4755Z" fill="#632CA6"/>
<path fill-rule="evenodd" clip-rule="evenodd" d="M75.5596 11.5259H88.446V14.2504H83.5777V28.4755H80.4319V14.2504H75.5596V11.5259Z" fill="#632CA6"/>
<path fill-rule="evenodd" clip-rule="evenodd" d="M90.0645 28.4755H86.832L94.043 11.5259H97.427L104.792 28.4755H101.404L99.2657 23.8533H93.8265L94.9072 21.1267H98.435L95.6573 14.7603L90.0645 28.4755Z" fill="#632CA6"/>
<path fill-rule="evenodd" clip-rule="evenodd" d="M114.242 28.4755H106.88V11.5259H114.242C119.55 11.5259 122.202 14.1973 122.202 19.5381C122.202 25.4951 119.55 28.4755 114.242 28.4755ZM110.028 25.7471H113.768C117.29 25.7471 119.056 23.6781 119.056 19.5361C119.056 16.0104 117.292 14.2465 113.768 14.2465H110.028V25.7471Z" fill="#632CA6"/>
<path fill-rule="evenodd" clip-rule="evenodd" d="M124.334 20.0243C124.334 14.276 127.179 11.4038 132.864 11.4038C138.463 11.4038 141.258 14.276 141.258 20.0243C141.258 25.7392 138.461 28.5976 132.864 28.5976C127.431 28.5976 124.588 25.7392 124.334 20.0243ZM132.864 25.8651C136.281 25.8651 137.992 23.8946 137.992 19.9495C137.992 16.0674 136.281 14.1244 132.864 14.1244C129.356 14.1244 127.602 16.0674 127.602 19.9495C127.602 23.8946 129.356 25.8651 132.864 25.8651Z" fill="#632CA6"/>
<path fill-rule="evenodd" clip-rule="evenodd" d="M154.39 21.6169V25.5856C153.664 25.7746 153.014 25.8691 152.441 25.8691C148.593 25.8691 146.671 23.8336 146.671 19.7645C146.671 16.0064 148.711 14.1303 152.788 14.1303C154.49 14.1303 156.073 14.4473 157.538 15.0792V12.2326C156.073 11.6814 154.41 11.4038 152.549 11.4038C146.453 11.4038 143.403 14.1894 143.403 19.7645C143.403 25.6506 146.4 28.5976 152.394 28.5976C154.455 28.5976 156.168 28.2983 157.538 27.6959V18.8274H152.455L151.392 21.6149L154.39 21.6169Z" fill="#632CA6"/>
<path fill-rule="evenodd" clip-rule="evenodd" d="M31.2757 28.378L27.9547 26.1889L25.1849 30.8151L21.9643 29.8741L19.1275 34.2031L19.2732 35.5653L34.6932 32.7247L33.7975 23.0903L31.2757 28.378ZM16.8951 24.2262L19.3697 23.8856C19.7693 24.0648 20.0488 24.1337 20.5292 24.2557C21.2772 24.4506 22.1414 24.6376 23.423 23.9919C23.7203 23.8443 24.3423 23.2754 24.5924 22.9525L34.7287 21.1138L35.7622 33.6282L18.3972 36.7583L16.8951 24.2262ZM35.7228 19.7161L34.7228 19.9071L32.8014 0.0478516L0.0498047 3.84528L4.08544 36.589L7.9183 36.0319C7.61317 35.5949 7.1348 35.0653 6.32177 34.3881C5.19179 33.4511 5.59142 31.8565 6.25877 30.8505C7.13874 29.1516 11.6803 26.9901 11.4224 24.2735C11.3299 23.2852 11.1724 21.9997 10.255 21.1178C10.2216 21.4839 10.2826 21.8363 10.2826 21.8363C10.2826 21.8363 9.90659 21.356 9.7176 20.7004C9.53059 20.4485 9.38491 20.3697 9.18608 20.0331C9.04434 20.4209 9.06403 20.8717 9.06403 20.8717C9.06403 20.8717 8.75693 20.1433 8.70574 19.5291C8.52266 19.8047 8.47738 20.3264 8.47738 20.3264C8.47738 20.3264 8.07776 19.1787 8.16831 18.5606C7.98523 18.0231 7.44387 16.9562 7.59742 14.5308C8.59747 15.2317 10.7984 15.0643 11.6547 13.8005C11.9402 13.3812 12.135 12.2394 11.513 9.98929C11.1133 8.5463 10.1251 6.39659 9.73926 5.57962L9.69398 5.61309C9.89675 6.2706 10.3161 7.64665 10.4775 8.31598C10.9637 10.3417 11.0937 11.0464 10.8653 11.9795C10.6704 12.7906 10.2058 13.3221 9.02466 13.9166C7.84349 14.5131 6.27649 13.0623 6.17609 12.9835C5.0284 12.0701 4.14056 10.5779 4.04213 9.85345C3.93976 9.06011 4.49884 8.5837 4.78232 7.93603C4.37876 8.05218 3.92795 8.25692 3.92795 8.25692C3.92795 8.25692 4.46538 7.6998 5.12879 7.21946C5.4044 7.03835 5.56386 6.92221 5.85324 6.68204C5.43393 6.67613 5.09336 6.68597 5.09336 6.68597C5.09336 6.68597 5.79221 6.308 6.51666 6.03437C5.9871 6.01074 5.47921 6.03043 5.47921 6.03043C5.47921 6.03043 7.03834 5.33354 8.26871 4.82171C9.11521 4.47523 9.94202 4.5776 10.4066 5.24889C11.0169 6.12886 11.6567 6.60723 13.015 6.90449C13.8497 6.53439 14.1017 6.34541 15.149 6.05996C16.0703 5.04613 16.7947 4.91423 16.7947 4.91423C16.7947 4.91423 16.4364 5.24299 16.34 5.76073C16.8636 5.34929 17.4365 5.00479 17.4365 5.00479C17.4365 5.00479 17.214 5.27842 17.0073 5.71348L17.0546 5.78435C17.6648 5.41819 18.3814 5.13078 18.3814 5.13078C18.3814 5.13078 18.1767 5.39063 17.9365 5.7253C18.3972 5.72136 19.3303 5.74498 19.6905 5.78632C21.8284 5.83357 22.2714 3.50275 23.0923 3.21139C24.1199 2.84523 24.5786 2.62278 26.3287 4.34137C27.8307 5.81782 29.004 8.45771 28.4213 9.05026C27.9331 9.54044 26.9685 8.85931 25.9015 7.52657C25.3365 6.82181 24.9113 5.98909 24.7105 4.92998C24.5412 4.03624 23.8856 3.51849 23.8856 3.51849C23.8856 3.51849 24.2656 4.36696 24.2656 5.11503C24.2656 5.5245 24.3167 7.05213 24.9723 7.90847C24.9073 8.03446 24.8778 8.52858 24.805 8.62308C24.0431 7.70177 22.4052 7.04229 22.1395 6.8474C23.0431 7.58759 25.1199 9.28846 25.9172 10.9185C26.6712 12.4599 26.2263 13.8733 26.6082 14.2395C26.7165 14.3438 28.2303 16.2297 28.5217 17.1786C29.0296 18.8303 28.5512 20.5666 27.8878 21.6434L26.0314 21.9328C25.7597 21.858 25.5766 21.8186 25.3325 21.6788C25.4664 21.4406 25.7341 20.8481 25.7361 20.726L25.6318 20.543C25.053 21.3619 24.0864 22.1572 23.2813 22.6139C22.2281 23.2104 21.0154 23.1179 20.226 22.8738C17.9838 22.1828 15.8636 20.667 15.3537 20.2693C15.3537 20.2693 15.338 20.5863 15.4344 20.6591C15.9994 21.2969 17.2947 22.4505 18.5468 23.2537L15.8793 23.547L17.1412 33.3684C16.5821 33.4491 16.4955 33.4885 15.8833 33.5751C15.3439 31.6695 14.3123 30.4234 13.1843 29.6989C12.1902 29.0591 10.8181 28.9154 9.50303 29.1753L9.41838 29.2737C10.3318 29.1792 11.4106 29.3111 12.517 30.0119C13.6036 30.699 14.4796 32.4746 14.8025 33.5436C15.2159 34.9098 15.5014 36.3705 14.3891 37.9198C13.5977 39.0202 11.2905 39.6285 9.42428 38.3135C9.92234 39.1147 10.5956 39.7703 11.5012 39.8923C12.8477 40.0754 14.1253 39.8411 15.0033 38.9395C15.7533 38.1678 16.153 36.5536 16.0467 34.8547L17.2337 34.6834L17.6629 37.7328L37.3253 35.3645L35.7228 19.7161ZM23.7596 11.4323C23.7045 11.5583 23.6179 11.639 23.7478 12.0465L23.7557 12.0701L23.7754 12.1232L23.8285 12.2453C24.0628 12.7217 24.3187 13.1725 24.7459 13.4028C24.8561 13.3851 24.9723 13.3713 25.0904 13.3654C25.492 13.3477 25.746 13.4107 25.9074 13.4993C25.9212 13.4186 25.9251 13.3024 25.9152 13.1292C25.8838 12.5248 26.0353 11.4972 24.8739 10.9559C24.4349 10.7531 23.8207 10.8141 23.6159 11.07C23.6533 11.074 23.6868 11.0819 23.7124 11.0917C24.0254 11.198 23.8167 11.3043 23.7596 11.4323ZM27.0157 17.0723C26.8641 16.9877 26.1515 17.0211 25.6515 17.0802C24.6987 17.1924 23.6691 17.5231 23.4427 17.6983C23.0332 18.0153 23.2183 18.5684 23.5214 18.7948C24.3719 19.4287 25.116 19.8559 25.9015 19.7516C26.3838 19.6886 26.809 18.9248 27.1102 18.2298C27.3189 17.7534 27.3189 17.2396 27.0157 17.0723ZM18.5763 12.1803C18.846 11.9244 17.2377 11.5898 15.9896 12.4402C15.0702 13.0682 15.0407 14.4147 15.9207 15.1765C16.0093 15.2514 16.0821 15.3065 16.149 15.3498C16.4069 15.2277 16.7002 15.1057 17.0369 14.9974C17.6078 14.8124 18.0802 14.7159 18.47 14.6667C18.657 14.458 18.8736 14.0918 18.8184 13.4284C18.7456 12.5248 18.0625 12.6686 18.5763 12.1803Z" fill="#632CA6"/>
</g>
<defs>
<clipPath id="clip0_2048_3278">
<rect width="157.586" height="40" fill="white"/>
</clipPath>
</defs>
</svg>
