<?xml version="1.0" encoding="UTF-8"?>
<svg xmlns="http://www.w3.org/2000/svg" width="168" height="35" viewBox="0 0 168 35" fill="none">
  <path d="M46.1051 10.2454C44.9528 8.88265 44.1762 8.12614 42.3709 8.12614H39.7858C39.4785 8.12614 39.2263 8.40503 39.2263 8.72901V10.9885C39.2263 11.3225 39.4935 11.583 39.7824 11.583H40.7811C41.5627 11.583 41.9417 11.872 42.3676 12.3546L44.9728 15.4357L47.735 12.1726L46.1051 10.2454ZM58.2493 22.3178H57.249C56.4691 22.3178 56.0883 22.0272 55.6641 21.5429L53.0623 18.4685L50.3001 21.7316L51.925 23.6521C53.079 25.0165 53.8555 25.773 55.6608 25.773H58.246C58.5532 25.773 58.8037 25.4925 58.8037 25.1702V22.909C58.8037 22.575 58.5365 22.3178 58.2493 22.3178ZM58.8037 8.72901V10.9885C58.8037 11.3225 58.5365 11.583 58.2493 11.583H57.249C56.4691 11.583 56.0883 11.872 55.6641 12.3546L46.1051 23.6521C44.9528 25.0165 44.1762 25.773 42.3709 25.773H39.7858C39.4785 25.773 39.2263 25.4925 39.2263 25.1702V22.909C39.2263 22.575 39.4935 22.3178 39.7824 22.3178H40.7811C41.5627 22.3178 41.9417 22.0272 42.3676 21.5429L51.925 10.2454C53.079 8.88265 53.8555 8.12614 55.6608 8.12614H58.246C58.5532 8.12614 58.8037 8.40503 58.8037 8.72901ZM151.794 20.2988V12.1809C151.794 11.8586 151.551 11.5814 151.225 11.5814H150.136C149.849 11.5814 149.58 11.3225 149.58 10.9885V8.72734C149.58 8.40503 149.83 8.12614 150.139 8.12614H155.751C156.038 8.12614 156.307 8.38499 156.307 8.71899V19.1331C156.307 21.2791 157.38 22.3946 159.142 22.3946C161.535 22.3946 162.556 20.8716 162.556 18.2747V8.724C162.556 8.40002 162.8 8.13449 163.11 8.12614H166.507C166.66 8.1318 166.804 8.19708 166.909 8.30793C167.014 8.41879 167.071 8.56638 167.068 8.71899V25.5493C167.068 31.087 164.024 34.3134 158.11 34.3134C155.904 34.3134 153.598 33.9777 152.377 33.2897C152.133 33.1578 152.011 33.0576 151.93 32.9073C151.844 32.757 151.814 32.5098 151.813 32.2593C151.804 31.5963 151.796 29.4086 151.794 28.9009C151.793 28.6421 151.821 28.5018 151.91 28.4016C152.025 28.2714 152.172 28.2363 152.459 28.2363H154.587C154.875 28.2363 155.042 28.2513 155.153 28.3515C155.283 28.4701 155.318 28.612 155.385 28.9009L155.62 30.1618C155.664 30.3839 155.831 30.6043 156.125 30.6962C156.654 30.8632 157.045 30.8699 157.818 30.8699C161.116 30.8699 162.524 28.8742 162.524 25.773V24.0513C161.46 25.3772 159.84 26.1104 157.962 26.1104C154.251 26.1104 151.794 24.1966 151.794 20.2988ZM127.06 25.773C124.872 25.773 123.533 24.6692 123.533 22.074V14.6375C123.533 12.5466 122.319 11.4077 120.834 11.4077C118.556 11.4077 117.272 12.5784 117.272 15.5293V25.1735C117.272 25.4975 117.03 25.773 116.718 25.773H113.323C113.017 25.773 112.761 25.5108 112.761 25.1785V12.1809C112.761 11.8586 112.528 11.5814 112.2 11.5814H111.133C110.846 11.5814 110.579 11.3225 110.579 10.9885V8.72734C110.579 8.40503 110.828 8.12614 111.137 8.12614H115.896C116.207 8.12614 116.484 8.29314 116.587 8.66221L117.012 10.0433C118.229 8.5403 119.817 7.68526 122.152 7.68526C125.564 7.68526 128.044 9.62413 128.044 13.5035V21.2373C128.044 22.074 128.411 22.3178 129.041 22.3178H129.68C129.967 22.3178 130.236 22.575 130.236 22.909V25.1785C130.236 25.5125 129.967 25.773 129.68 25.773H127.06ZM87.0301 25.773C84.8424 25.773 83.503 24.6708 83.503 22.074V14.6375C83.503 12.5466 82.4075 11.4094 80.7375 11.4094C78.6467 11.4094 77.6096 12.7621 77.6096 15.5293V25.1785C77.6096 25.4591 77.3842 25.773 77.0535 25.773H73.6517C73.3344 25.773 73.0973 25.4925 73.0973 25.1785V14.4053C73.0973 12.4398 71.8815 11.4094 70.3651 11.4094C68.139 11.4094 67.1821 12.8689 67.1821 15.5293V25.1735C67.1821 25.4975 66.94 25.773 66.6277 25.773H63.2309C62.927 25.773 62.6715 25.5108 62.6715 25.1785V12.1809C62.6715 11.8586 62.4377 11.5814 62.112 11.5814H61.0432C60.756 11.5814 60.4871 11.3225 60.4871 10.9885V8.71899C60.4871 8.39668 60.7393 8.12614 61.0465 8.12614H65.8044C66.1167 8.12614 66.3939 8.29314 66.4974 8.66221L66.9216 10.0433C68.0923 8.57704 69.5569 7.68359 71.6293 7.68359C73.8688 7.68359 76.1066 8.57704 76.965 10.1669C78.2425 8.45012 79.7238 7.68359 82.0769 7.68359C85.4519 7.68359 88.0137 9.62413 88.0137 13.5035V21.2373C88.0137 22.074 88.3811 22.3178 89.0107 22.3178H89.6503C89.9375 22.3178 90.2047 22.575 90.2047 22.909V25.1785C90.2047 25.5125 89.9375 25.773 89.6503 25.773H87.0301ZM24.6122 8.71899V19.1648C24.6122 21.2557 25.7478 22.3946 27.3643 22.3946C29.6422 22.3946 30.863 21.2223 30.863 18.2731V8.724C30.863 8.40002 31.1051 8.13449 31.4141 8.12614H34.8125C34.965 8.1318 35.1093 8.19708 35.2142 8.30793C35.3191 8.41879 35.3764 8.56638 35.3736 8.71899V21.7166C35.3736 22.0389 35.6074 22.3178 35.9331 22.3178H37.0002C37.2875 22.3178 37.5547 22.575 37.5547 22.909V25.1702C37.5547 25.4925 37.3042 25.773 36.9969 25.773H33.7521C32.4211 25.773 31.5393 25.1485 31.1201 23.8709C29.9528 25.2921 28.2594 26.1171 26.0684 26.1171C22.6549 26.1171 20.0998 24.1782 20.0998 20.2988V12.1809C20.0998 11.8586 19.8577 11.5814 19.5303 11.5814H18.4415C18.1526 11.5814 17.8854 11.3225 17.8854 10.9885V8.72734C17.8854 8.40503 18.1359 8.12614 18.4432 8.12614H24.056C24.3433 8.12614 24.6122 8.38499 24.6122 8.71899ZM17.3961 25.1702C17.3961 25.4925 17.1439 25.773 16.8366 25.773H13.7087C12.4078 25.773 11.5244 25.1635 11.1035 23.9444C9.74414 25.2487 8.12424 25.9718 5.91817 25.9718C4.21978 25.9718 2.62159 25.3772 1.69808 24.6424C0.634293 23.7557 0.101562 22.4464 0.101562 20.7179C0.101562 18.567 0.926542 17.089 2.57817 16.2791C4.2298 15.4708 6.44088 15.0667 9.51034 15.0667H10.6693V13.9678C10.6693 12.904 10.2919 12.1609 9.74915 11.74C9.20473 11.3192 8.49999 11.1088 7.51302 11.1088C6.73981 11.1088 6.11857 11.1756 5.58584 11.3092C5.2986 11.4194 5.1316 11.5864 5.08818 11.8068L4.84603 13.1061C4.77923 13.3933 4.70241 13.5754 4.6139 13.6538C4.52372 13.7307 4.33668 13.7691 4.04777 13.7691H1.86675C1.57784 13.7691 1.38913 13.7307 1.30062 13.6204C1.20042 13.4952 1.17871 13.3482 1.20209 13.1061L1.39581 9.74604C1.41919 9.43542 1.45927 9.20329 1.52941 9.08138C1.62794 8.91104 1.71812 8.83088 1.96194 8.69895C3.18104 8.01091 5.17335 7.68359 7.38109 7.68359C9.82931 7.68359 11.8667 8.13282 13.1977 9.03128C14.527 9.92807 15.1917 11.6181 15.1917 14.1014V21.7233C15.195 22.0439 15.4272 22.3178 15.7511 22.3178H16.84C17.1272 22.3178 17.3961 22.575 17.3961 22.909V25.1702ZM9.87273 18.0259C8.26452 18.0259 7.01369 18.2246 6.0835 18.6238C5.15331 19.0212 4.68738 19.7427 4.68738 20.7847C4.68738 22.1157 5.61423 22.7804 7.12725 22.7804C9.24147 22.7804 10.6693 21.3008 10.6693 19.4771V18.0259H9.87273ZM109.069 16.8853C109.069 19.4554 108.331 21.7417 106.858 23.4918C105.383 25.2436 103.364 26.1187 100.372 26.1187C97.3791 26.1187 95.3667 25.2487 93.9038 23.5085C92.4392 21.7684 91.7094 19.412 91.7094 16.8853C91.7094 14.3068 92.4392 12.0072 93.9038 10.2788C95.3667 8.54865 97.3791 7.68359 100.372 7.68359C103.364 7.68359 105.383 8.54865 106.858 10.2788C108.331 12.0072 109.069 14.2634 109.069 16.8853ZM104.281 16.9187C104.281 13.0627 103.121 11.1088 100.372 11.1088C97.6446 11.1088 96.4956 13.1061 96.4956 16.9187C96.4956 20.6562 97.6446 22.6936 100.372 22.6936C103.121 22.6936 104.281 20.743 104.281 16.9187ZM136.793 18.5419C136.95 19.7994 137.444 20.8131 138.189 21.5646C138.872 22.2527 140.096 22.6368 141.693 22.6368C143.075 22.6368 144.406 22.3362 145.48 21.9504C146.105 21.725 146.567 21.5179 146.744 21.5179C146.986 21.5179 147.11 21.6732 147.11 21.9821V24.1448C147.11 24.4771 146.888 24.7009 146.444 24.9447C145.393 25.5543 143.204 26.1187 141.313 26.1187C138.122 26.1187 135.831 25.3923 134.289 23.774C132.75 22.1558 131.905 19.7109 131.905 16.9187C131.905 14.1031 132.663 11.8953 134.181 10.212C135.701 8.52694 137.867 7.68359 140.682 7.68359C142.987 7.68359 144.734 8.22634 145.986 9.24504C147.239 10.2654 147.897 11.7634 147.897 13.3198C147.897 14.8963 147.294 16.4093 146.086 17.418C144.877 18.425 143.065 18.9845 140.649 18.9845C139.481 18.9845 138.024 18.7691 136.793 18.5419ZM136.724 15.4825C137.852 15.7664 139.208 15.9584 140.25 15.9584C142.599 15.9584 143.773 14.9815 143.773 13.2881C143.773 11.8937 142.743 10.8432 140.682 10.8432C138.332 10.8432 137.015 12.5049 136.724 15.4825Z" fill="#303245"></path>
</svg>
