<svg width="96" height="32" viewBox="0 0 96 32" fill="none" xmlns="http://www.w3.org/2000/svg">
<g clip-path="url(#clip0_2141_2166)">
<path d="M47.4957 0.0545368C16.4562 0.0545368 0 22.078 0 22.078L6.74536 26.6357C6.74536 26.6357 7.56099 24.5928 9.43016 21.6701C9.4377 22.4027 9.53841 22.9137 9.53841 22.9137C10.7304 32.1677 19.7213 31.9449 19.7213 31.9449H75.4577C75.4577 31.9449 84.5681 32.1954 85.7576 22.9477C85.7576 22.9477 85.8545 22.4707 85.8595 21.7432C87.6909 24.5928 88.4965 26.574 88.4965 26.574L95.2381 22.0641C95.2381 22.0641 78.5327 0.0545368 47.4957 0.0545368Z" fill="#ED1C24"/>
<path d="M84.3797 22.8081C84.3797 22.8081 83.1651 29.8845 75.3422 29.8845H19.6965C11.875 29.8845 10.7736 22.7427 10.7736 22.7427C10.4728 20.8471 10.839 19.5494 11.4243 18.6519C17.057 11.2369 28.2028 1.2781 47.4722 1.2781C66.9052 1.2781 78.1454 11.3804 83.7755 18.7967C84.4263 19.6236 84.6705 20.9729 84.3797 22.8081Z" fill="white"/>
<path d="M31.2428 15.0937L32.1717 13.1037H20.2682L19.3342 15.0937H23.9461L19.1719 24.802H22.2544L27.0261 15.0937H31.2428Z" fill="#ED1C24"/>
<path d="M74.2304 21.5814C73.3455 22.8275 72.0919 23.4594 71.4285 22.9886C70.7664 22.5166 70.949 21.1257 71.8338 19.8796C72.7187 18.6335 73.9749 18.0004 74.6357 18.4711C75.3003 18.9444 75.1152 20.3353 74.2304 21.5814ZM63.8121 21.5336C62.9223 22.7822 61.6686 23.4115 61.0065 22.9408C60.3482 22.47 60.5244 21.0792 61.4118 19.8305C62.3005 18.5844 63.5566 17.9538 64.2149 18.4233C64.8732 18.8941 64.697 20.2874 63.8121 21.5336ZM50.8652 20.6273C50.8652 20.6273 51.4417 18.6927 53.3071 17.9186C53.3071 17.9186 53.8382 17.7386 54.1227 17.9714C54.1227 17.9714 54.5217 18.3553 54.0472 19.0665C53.6217 19.7009 52.5997 20.8488 51.4907 21.2352C51.4907 21.2352 50.4851 21.6745 50.8652 20.6273ZM32.6908 21.5336C31.8009 22.7822 30.5498 23.4115 29.889 22.9408C29.2269 22.47 29.4044 21.0792 30.2892 19.8305C31.1766 18.5844 32.4328 17.9538 33.0936 18.4233C33.7582 18.8941 33.5732 20.2874 32.6908 21.5336ZM77.1959 23.049C77.1959 23.049 76.5955 23.3285 76.3374 23.0591C76.0794 22.7923 76.3098 22.2951 76.3098 22.2951L78.8246 17.0073H76.2607L75.8679 17.7134C74.3701 16.3956 71.5531 17.0765 69.8086 18.9004C68.8004 19.9514 68.2302 21.1987 68.1534 22.2837C67.8677 22.4725 67.3906 22.7608 66.7764 23.0025C66.7764 23.0025 66.1747 23.2844 65.9142 23.0125C65.6561 22.7457 65.889 22.246 65.889 22.246L70.3536 13.0575H67.7921L65.4472 17.6656C63.9493 16.3502 61.1349 17.0287 59.3866 18.8525C59.0329 19.2264 58.7358 19.6178 58.4891 20.0206L58.4916 20.0118C58.4753 20.0445 58.4576 20.0798 58.44 20.11C58.3834 20.2056 58.3293 20.2975 58.2827 20.3907C56.8893 22.8048 55.1561 23.2051 55.1561 23.2051C51.4933 24.3002 51.0754 22.5065 51.0754 22.5065C55.1775 20.9898 56.7194 19.1936 56.5772 17.8191C56.4387 16.4434 54.5507 16.3716 54.5507 16.3716C51.448 16.1854 48.7619 18.3553 48.1099 20.4788C47.9135 21.1257 47.8519 21.7903 47.9727 22.3958C46.7304 23.0578 46.0154 23.1636 46.0154 23.1636C44.9833 23.4896 44.8549 22.9999 44.7328 22.7016C44.6069 22.3958 44.14 19.7538 44.14 19.7538L48.4963 16.9041H45.8317L42.559 18.9331C41.8214 19.239 42.1072 18.4636 42.1072 18.4636L44.7794 13.0537H42.2129L37.8779 21.8369C37.3795 22.1365 36.3814 22.7155 35.6538 23.0025C35.6538 23.0025 35.0534 23.2844 34.7954 23.0125C34.5323 22.7457 34.7664 22.246 34.7664 22.246L37.2838 16.9595H34.7186L34.3259 17.6656C32.8293 16.3502 30.0111 17.0287 28.2665 18.8525C26.5182 20.6776 26.0726 23.0843 27.2684 24.2284C28.2237 25.1435 29.9431 24.9723 31.4863 23.9339C31.4863 23.9339 31.8752 23.5991 32.0867 23.9905C32.3044 24.3984 33.188 25.3197 35.2234 24.5167C35.8766 24.2612 36.4619 23.9666 36.9641 23.6897L36.433 24.7646H38.9944L40.2795 22.1679L41.396 21.4568C41.396 21.4568 41.7384 21.1874 41.8731 21.7626C41.8731 21.7626 42.4281 23.949 42.6421 24.2309C42.8586 24.5167 43.2866 25.1624 45.089 24.6451C46.4698 24.2461 47.7562 23.7577 48.4372 23.4669C49.0401 24.3002 50.1968 24.8628 52.1025 24.8628C54.9119 24.8628 56.8994 23.521 57.7377 22.8225C57.7981 23.3788 58.0121 23.8672 58.3909 24.2284C59.345 25.1435 61.0632 24.9723 62.6051 23.9339C62.6051 23.9339 62.9953 23.5991 63.2092 23.9905C63.4283 24.3984 64.3081 25.3197 66.3459 24.5167C67.2811 24.1479 67.9054 23.7954 68.3158 23.521C68.4265 23.8105 68.5889 24.0635 68.8092 24.2775C69.7683 25.1888 71.4839 25.0201 73.0258 23.9792C73.0258 23.9792 73.4173 23.6431 73.6313 24.0384C73.8465 24.4462 74.7326 25.3688 76.7654 24.5632C78.8032 23.7615 79.386 23.0339 79.386 23.0339L78.8725 22.1277C78.8007 22.1679 78.1739 22.6651 77.1959 23.049Z" fill="#ED1C24"/>
</g>
<defs>
<clipPath id="clip0_2141_2166">
<rect width="95.2381" height="32" fill="white"/>
</clipPath>
</defs>
</svg>
