<?xml version="1.0" encoding="UTF-8"?>
<svg xmlns="http://www.w3.org/2000/svg" width="120" height="40" viewBox="0 0 120 40" fill="none">
  <g clip-path="url(#clip0_7500_18472)">
    <path d="M59.5315 0.069817C20.6825 0.069817 0.0859375 27.5991 0.0859375 27.5991L8.52843 33.2963C8.52843 33.2963 9.54928 30.7427 11.8887 27.0893C11.8982 28.005 12.0242 28.6438 12.0242 28.6438C13.5161 40.2113 24.7691 39.9328 24.7691 39.9328H94.5287C94.5287 39.9328 105.931 40.2459 107.42 28.6863C107.42 28.6863 107.541 28.09 107.548 27.1806C109.84 30.7427 110.848 33.2192 110.848 33.2192L119.286 27.5818C119.286 27.5818 98.3774 0.069817 59.5315 0.069817Z" fill="#303245"></path>
    <path d="M105.694 28.51C105.694 28.51 104.173 37.3555 94.3824 37.3555H24.7361C14.9467 37.3555 13.5682 28.4282 13.5682 28.4282C13.1917 26.0587 13.6502 24.4365 14.3827 23.3147C21.4326 14.046 35.3826 1.59745 59.5002 1.59745C83.8226 1.59745 97.8907 14.2253 104.937 23.4956C105.752 24.5293 106.058 26.216 105.694 28.51Z" fill="white"></path>
    <path d="M39.19 18.8685L40.3526 16.381H25.4542L24.2853 18.8685H30.0575L24.082 31.0039H27.9402L33.9124 18.8685H39.19Z" fill="#303245"></path>
    <path d="M92.9921 26.9787C91.8846 28.5363 90.3155 29.3262 89.4853 28.7377C88.6567 28.1477 88.8851 26.4091 89.9926 24.8515C91.1001 23.2939 92.6723 22.5024 93.4994 23.0909C94.3312 23.6825 94.0996 25.4211 92.9921 26.9787ZM79.9527 26.9189C78.8389 28.4797 77.2698 29.2664 76.4411 28.6779C75.6172 28.0895 75.8378 26.3509 76.9484 24.7901C78.0606 23.2325 79.6328 22.4442 80.4568 23.0311C81.2807 23.6195 81.0602 25.3613 79.9527 26.9189ZM63.7482 25.7861C63.7482 25.7861 64.4698 23.3678 66.8045 22.4002C66.8045 22.4002 67.4693 22.1752 67.8253 22.4663C67.8253 22.4663 68.3247 22.9461 67.7308 23.8351C67.1983 24.6281 65.9191 26.063 64.5312 26.546C64.5312 26.546 63.2725 27.0951 63.7482 25.7861ZM41.0012 26.9189C39.8874 28.4797 38.3215 29.2664 37.4944 28.6779C36.6658 28.0895 36.8879 26.3509 37.9954 24.7901C39.106 23.2325 40.6783 22.4442 41.5054 23.0311C42.3372 23.6195 42.1056 25.3613 41.0012 26.9189ZM96.7037 28.8132C96.7037 28.8132 95.9523 29.1625 95.6293 28.8258C95.3064 28.4923 95.5947 27.8708 95.5947 27.8708L98.7423 21.2611H95.5332L95.0417 22.1437C93.167 20.4964 89.6413 21.3476 87.4578 23.6274C86.1959 24.9412 85.4823 26.5004 85.3862 27.8566C85.0285 28.0926 84.4315 28.4529 83.6627 28.755C83.6627 28.755 82.9097 29.1075 82.5836 28.7676C82.2606 28.4341 82.552 27.8094 82.552 27.8094L88.1399 16.3238H84.934L81.9991 22.0839C80.1244 20.4398 76.6018 21.2878 74.4136 23.5676C73.9709 24.0349 73.5991 24.5242 73.2903 25.0277L73.2935 25.0167C73.273 25.0576 73.251 25.1017 73.2289 25.1394C73.158 25.259 73.0903 25.3738 73.032 25.4903C71.288 28.508 69.1187 29.0083 69.1187 29.0083C64.5344 30.3772 64.0113 28.1351 64.0113 28.1351C69.1455 26.2392 71.0754 23.994 70.8973 22.2759C70.7241 20.5562 68.361 20.4665 68.361 20.4665C64.4777 20.2336 61.1158 22.9461 60.2997 25.6004C60.054 26.4091 59.9768 27.2399 60.128 27.9967C58.5731 28.8243 57.6783 28.9564 57.6783 28.9564C56.3865 29.3639 56.2258 28.7519 56.073 28.379C55.9154 27.9967 55.331 24.6942 55.331 24.6942L60.7834 21.132H57.4483L53.3523 23.6683C52.4291 24.0506 52.7867 23.0814 52.7867 23.0814L56.1312 16.3191H52.919L47.4934 27.2981C46.8696 27.6725 45.6203 28.3963 44.7097 28.755C44.7097 28.755 43.9582 29.1075 43.6353 28.7676C43.306 28.4341 43.599 27.8094 43.599 27.8094L46.7498 21.2013H43.5392L43.0477 22.0839C41.1745 20.4398 37.6472 21.2878 35.4638 23.5676C33.2755 25.849 32.7179 28.8573 34.2145 30.2875C35.4102 31.4313 37.5622 31.2174 39.4936 29.9193C39.4936 29.9193 39.9804 29.5008 40.2451 29.9901C40.5176 30.4999 41.6235 31.6516 44.1709 30.6478C44.9885 30.3284 45.7211 29.9602 46.3497 29.6141L45.6849 30.9577H48.8908L50.4992 27.7119L51.8966 26.8229C51.8966 26.8229 52.3251 26.4862 52.4937 27.2053C52.4937 27.2053 53.1884 29.9382 53.4562 30.2906C53.7272 30.6478 54.2628 31.4549 56.5188 30.8083C58.247 30.3095 59.857 29.699 60.7093 29.3356C61.4639 30.3772 62.9117 31.0805 65.2968 31.0805C68.8131 31.0805 71.3006 29.4033 72.3498 28.53C72.4255 29.2255 72.6933 29.8359 73.1675 30.2875C74.3616 31.4313 76.512 31.2174 78.4419 29.9193C78.4419 29.9193 78.9302 29.5008 79.1981 29.9901C79.4722 30.4999 80.5734 31.6516 83.1239 30.6478C84.2944 30.1868 85.0758 29.7462 85.5894 29.4033C85.728 29.7651 85.9313 30.0814 86.207 30.3488C87.4074 31.488 89.5546 31.2771 91.4845 29.976C91.4845 29.976 91.9744 29.5559 92.2423 30.0499C92.5116 30.5597 93.6207 31.713 96.165 30.706C98.7155 29.7038 99.4449 28.7944 99.4449 28.7944L98.8022 27.6615C98.7124 27.7119 97.9278 28.3334 96.7037 28.8132Z" fill="#303245"></path>
  </g>
  <defs>
    <clipPath id="clip0_7500_18472">
      <rect width="119.2" height="40" fill="white" transform="translate(0.0859375)"></rect>
    </clipPath>
  </defs>
</svg>
