<svg width="218" height="34" viewBox="0 0 218 34" fill="none" xmlns="http://www.w3.org/2000/svg">
<path d="M25.5297 8.91607H26.7565L30.2534 5.41916L30.4249 3.93394C23.9165 -1.81133 13.9836 -1.19068 8.23836 5.31773C6.64205 7.12414 5.48527 9.2759 4.85254 11.604C5.24135 11.4446 5.67364 11.418 6.07936 11.5315L13.0732 10.3771C13.0732 10.3771 13.4282 9.78788 13.6141 9.8241C16.7246 6.40689 21.9603 6.00842 25.5539 8.91607H25.5297Z" fill="#303245"/>
<path d="M35.2359 11.6038C34.4317 8.64299 32.7823 5.98166 30.488 3.94824L25.5808 8.85551C27.6529 10.5484 28.8338 13.1011 28.7831 15.7769V16.6487C31.1956 16.6487 33.1518 18.6048 33.1518 21.0174C33.1518 23.43 31.1956 25.3861 28.7831 25.3861H20.0456L19.1738 26.27V31.5105L20.0456 32.3824H28.7831C35.0572 32.4307 40.1842 27.3833 40.2325 21.1092C40.2615 17.2983 38.3851 13.7338 35.2359 11.6038Z" fill="#303245"/>
<path d="M11.2961 32.3273H20.0335V25.3336H11.2961C10.673 25.3336 10.0596 25.1983 9.49207 24.9399L8.26526 25.3215L4.7442 28.8184L4.4375 30.0452C6.41055 31.5376 8.82071 32.3394 11.2961 32.3273Z" fill="#303245"/>
<path d="M11.2951 9.64072C5.01855 9.67694 -0.0360314 14.7943 0.0001935 21.0709C0.0219284 24.575 1.65688 27.8739 4.43654 30.0087L9.50319 24.9421C7.30555 23.9495 6.32748 21.3607 7.32004 19.163C8.3126 16.9654 10.9015 15.9873 13.0991 16.9799C14.0675 17.417 14.8427 18.1946 15.2823 19.163L20.3489 14.0964C18.1948 11.2757 14.8427 9.62623 11.2951 9.64072Z" fill="#303245"/>
<path d="M63.4933 27.444C60.4528 27.4826 57.5307 26.2823 55.3958 24.1185C53.191 22.0464 51.9593 19.1436 51.998 16.1176C51.9617 13.0917 53.1934 10.1912 55.3958 8.11676C57.521 5.93119 60.4456 4.70679 63.4933 4.73094C66.3962 4.6923 69.1951 5.8201 71.2599 7.86077L69.0768 10.0826C67.5819 8.63599 65.5726 7.84387 63.4933 7.87285C61.3126 7.84628 59.2188 8.73742 57.7263 10.3265C56.1759 11.8648 55.321 13.9707 55.3572 16.1539C55.3379 18.3129 56.1928 20.3873 57.7263 21.9088C60.8851 25.0579 65.9784 25.1183 69.212 22.044C70.1756 20.9911 70.7649 19.6484 70.8929 18.2283H63.5296V15.0889H73.9478C74.0493 15.7216 74.0903 16.3616 74.071 17.0039C74.2014 19.6822 73.2306 22.2976 71.3831 24.2441C69.328 26.3814 66.4589 27.5454 63.4933 27.444ZM87.7157 25.3574C84.8105 28.1419 80.2268 28.1419 77.3216 25.3574C75.9136 23.9929 75.1457 22.102 75.1988 20.1434C75.1457 18.1849 75.9161 16.2939 77.3216 14.9295C80.2292 12.1522 84.8081 12.1522 87.7157 14.9295C89.1212 16.2939 89.8916 18.1849 89.8385 20.1434C89.8892 22.1044 89.114 23.9953 87.7036 25.3574H87.7157ZM79.6158 23.3095C81.1155 24.913 83.632 24.9952 85.2355 23.493C85.2983 23.4327 85.3611 23.3723 85.4191 23.3095C86.2377 22.4618 86.6797 21.322 86.6459 20.1434C86.6821 18.9625 86.2402 17.8154 85.4191 16.9653C83.8759 15.3569 81.3208 15.3014 79.71 16.8446C79.669 16.8832 79.6279 16.9242 79.5893 16.9653C78.7682 17.8154 78.3262 18.9625 78.3624 20.1434C78.3311 21.322 78.7778 22.4642 79.6013 23.3095H79.6158ZM103.691 25.3574C100.786 28.1419 96.202 28.1419 93.2968 25.3574C91.8888 23.9929 91.1209 22.102 91.174 20.1434C91.1209 18.1849 91.8912 16.2939 93.2968 14.9295C96.202 12.145 100.786 12.145 103.691 14.9295C105.096 16.2939 105.867 18.1849 105.814 20.1434C105.869 22.102 105.099 23.9929 103.691 25.3574ZM95.5934 23.3095C97.0931 24.913 99.6096 24.9952 101.213 23.493C101.276 23.4327 101.339 23.3723 101.397 23.3095C102.215 22.4618 102.657 21.322 102.623 20.1434C102.66 18.9625 102.218 17.8154 101.397 16.9653C99.8535 15.3569 97.2984 15.3014 95.69 16.8446C95.649 16.8832 95.6079 16.9242 95.5693 16.9653C94.7482 17.8154 94.3062 18.9625 94.3425 20.1434C94.3111 21.322 94.7578 22.4642 95.5814 23.3095H95.5934ZM114.194 33.9958C112.723 34.0417 111.281 33.5829 110.108 32.6942C109.066 31.9109 108.246 30.8707 107.726 29.6754L110.523 28.509C110.827 29.2238 111.303 29.8517 111.909 30.3371C112.556 30.8588 113.37 31.1341 114.203 31.1099C115.271 31.1751 116.314 30.7718 117.063 30.0063C117.802 29.1151 118.166 27.9704 118.082 26.8161V25.7607H117.971C117.022 26.8861 115.599 27.4995 114.131 27.4174C112.269 27.4222 110.489 26.6494 109.224 25.2825C107.852 23.9277 107.094 22.0706 107.125 20.141C107.091 18.2018 107.85 16.3326 109.224 14.9633C110.487 13.5916 112.267 12.8115 114.131 12.8163C114.911 12.8139 115.684 12.9878 116.389 13.3187C117 13.5843 117.543 13.9828 117.985 14.4851H118.096V13.3187H121.139V26.3862C121.301 28.4752 120.596 30.54 119.188 32.0928C117.848 33.3752 116.048 34.061 114.194 33.9958ZM114.416 24.5725C115.476 24.5967 116.493 24.1451 117.188 23.3457C117.944 22.4787 118.345 21.3558 118.304 20.2038C118.35 19.0325 117.951 17.8902 117.188 17.0015C116.493 16.1997 115.476 15.7506 114.416 15.7747C113.327 15.753 112.281 16.1997 111.544 17.0015C110.733 17.8588 110.291 19.0011 110.318 20.1797C110.294 21.3485 110.733 22.4787 111.544 23.3216C112.276 24.1306 113.322 24.587 114.416 24.5725ZM126.551 5.55445V27.002H123.349V5.55445H126.551ZM135.337 27.444C133.398 27.4947 131.526 26.734 130.171 25.3453C128.797 23.9688 128.046 22.0875 128.097 20.1434C128.024 18.1945 128.746 16.2988 130.096 14.8908C131.372 13.5481 133.154 12.8043 135.004 12.8405C135.847 12.8308 136.68 12.9951 137.457 13.3187C138.158 13.6012 138.795 14.019 139.334 14.5455C139.797 14.9923 140.208 15.4897 140.561 16.0307C140.846 16.4871 141.087 16.9677 141.285 17.4652L141.616 18.3008L131.801 22.3387C132.41 23.7345 133.813 24.6136 135.335 24.5484C136.805 24.5532 138.17 23.7828 138.931 22.5246L141.384 24.1813C140.758 25.0781 139.956 25.8382 139.027 26.4152C137.926 27.1107 136.641 27.4681 135.337 27.444ZM131.239 19.9213L137.766 17.2092C137.566 16.731 137.206 16.3374 136.747 16.0935C136.235 15.8037 135.656 15.6564 135.067 15.6636C134.069 15.6902 133.12 16.108 132.429 16.8301C131.591 17.6318 131.154 18.7645 131.239 19.9213Z" fill="#303245"/>
<path d="M158.393 27.4442C152.81 27.5408 148.207 23.0924 148.11 17.5089C148.108 17.3737 148.108 17.236 148.112 17.1008C147.982 11.5173 152.404 6.88775 157.985 6.75735C158.12 6.75493 158.258 6.75493 158.393 6.75493C161.185 6.66799 163.865 7.861 165.669 9.99343L163.902 11.7105C162.576 10.0417 160.533 9.10713 158.405 9.19407C156.364 9.14819 154.391 9.93789 152.945 11.3772C151.44 12.8914 150.636 14.9635 150.723 17.0959C150.634 19.2284 151.44 21.3004 152.945 22.8146C154.391 24.2564 156.364 25.0437 158.405 24.9978C160.781 25.0243 163.039 23.9666 164.539 22.1264L166.307 23.8941C165.382 25.0002 164.22 25.8841 162.909 26.483C161.494 27.1399 159.951 27.4683 158.393 27.4442Z" fill="#303245"/>
<path d="M171.054 27.002H168.514V7.18457H171.054V27.002Z" fill="#303245"/>
<path d="M175.203 15.0747C177.973 12.3241 182.446 12.3241 185.216 15.0747C186.529 16.4633 187.237 18.3181 187.179 20.2283C187.237 22.1386 186.529 23.9933 185.216 25.3819C182.446 28.1326 177.973 28.1326 175.203 25.3819C173.889 23.9933 173.182 22.1386 173.24 20.2283C173.182 18.3181 173.887 16.4633 175.203 15.0747ZM177.092 23.788C178.717 25.5051 181.426 25.5799 183.146 23.9546C183.204 23.9015 183.259 23.8435 183.313 23.788C184.209 22.8268 184.682 21.5445 184.626 20.2307C184.684 18.917 184.211 17.6346 183.313 16.6734C181.687 14.9564 178.978 14.8815 177.258 16.5068C177.2 16.5599 177.145 16.6179 177.092 16.6734C176.196 17.6346 175.722 18.917 175.778 20.2307C175.727 21.5421 176.205 22.8196 177.104 23.7759L177.092 23.788Z" fill="#303245"/>
<path d="M201.253 27.0022H198.799V25.1258H198.726C198.289 25.8382 197.671 26.4226 196.935 26.8187C196.171 27.2606 195.302 27.4949 194.418 27.4924C192.964 27.5915 191.547 27.0215 190.566 25.9469C189.636 24.7708 189.17 23.2952 189.252 21.8003V13.4565H191.793V21.3342C191.793 23.8627 192.909 25.1258 195.143 25.1258C196.15 25.1572 197.108 24.7007 197.719 23.8989C198.379 23.0658 198.729 22.0297 198.714 20.9672V13.4565H201.255V27.0022H201.253Z" fill="#303245"/>
<path d="M209.878 27.4439C208.135 27.4487 206.476 26.6928 205.338 25.3694C204.066 23.9639 203.385 22.1237 203.435 20.2279C203.385 18.3321 204.066 16.4919 205.338 15.0864C206.476 13.7654 208.135 13.0071 209.878 13.0119C210.844 12.9974 211.798 13.2244 212.651 13.6736C213.402 14.0504 214.037 14.6227 214.491 15.3303H214.602L214.491 13.4539V7.18457H217.032V27.0019H214.578V25.1255H214.467C214.013 25.8331 213.378 26.4054 212.627 26.7822C211.781 27.2265 210.837 27.4559 209.878 27.4439ZM210.296 25.1255C211.458 25.1424 212.571 24.6594 213.351 23.7997C214.213 22.8168 214.655 21.5344 214.578 20.2279C214.655 18.9238 214.213 17.639 213.351 16.6561C211.81 14.9608 209.188 14.8377 207.492 16.3808C207.396 16.4678 207.304 16.562 207.217 16.6561C206.353 17.6318 205.911 18.9117 205.99 20.2134C205.911 21.5151 206.353 22.795 207.217 23.7707C208 24.6497 209.123 25.1424 210.296 25.1255Z" fill="#303245"/>
</svg>
