<svg width="213" height="34" viewBox="0 0 213 34" fill="none" xmlns="http://www.w3.org/2000/svg">
<path fill-rule="evenodd" clip-rule="evenodd" d="M17.2805 0H50.7167C60.248 0 68 7.62733 68 17C68 26.3727 60.248 34 50.7195 34H17.2833C7.752 34 0 26.3727 0 17C0 7.62733 7.752 0 17.2805 0ZM32.6343 26.35C33.0537 26.7863 33.6742 26.7637 34.2238 26.6503L34.2295 26.6532C34.4845 26.4492 34.1218 26.1913 33.7762 25.9448C33.5665 25.7975 33.3653 25.6558 33.3058 25.5283C33.4985 25.3017 32.929 24.7775 32.487 24.3723C32.3358 24.2426 32.1938 24.1024 32.062 23.953C31.7503 23.6158 31.6228 23.1937 31.4953 22.7687C31.4103 22.4853 31.3253 22.202 31.1837 21.9413C30.3223 19.975 29.3335 18.0228 27.9452 16.3597C27.0527 15.2547 26.0355 14.263 25.0183 13.2713C24.3571 12.6378 23.7119 11.9878 23.0832 11.322C22.4428 10.6732 22.0575 9.87417 21.6693 9.07233C21.3463 8.40367 21.0233 7.73217 20.5473 7.14567C19.1108 5.06317 14.5775 4.49367 13.9117 7.44033C13.9117 7.531 13.8833 7.58767 13.8012 7.64717C13.4328 7.9135 13.107 8.21383 12.8322 8.57367C12.1578 9.49733 12.0558 11.0585 12.8945 11.8887L12.8973 11.8348C12.9257 11.4183 12.954 11.0245 13.2912 10.727C13.9372 11.2738 14.9232 11.4693 15.674 11.0585C16.5807 12.3335 16.8697 13.8777 17.1615 15.4218C17.4023 16.7138 17.6432 18.0058 18.2438 19.1505L18.2835 19.2128C18.6348 19.788 18.9918 20.3745 19.4452 20.876C19.6123 21.1282 19.9495 21.3973 20.2867 21.6665C20.7315 22.0207 21.1763 22.3748 21.2188 22.6837V23.0888C21.216 23.8963 21.2132 24.7322 21.7402 25.3923C22.032 25.9732 21.3152 26.554 20.7428 26.4832C20.4255 26.5257 20.0827 26.4435 19.7398 26.3642C19.2723 26.2508 18.8077 26.1432 18.4308 26.3557C18.3232 26.469 18.173 26.469 18.02 26.4747C17.8387 26.4803 17.6545 26.486 17.5468 26.673C17.5242 26.7268 17.4732 26.7863 17.4193 26.8515C17.3003 26.9932 17.1728 27.149 17.3258 27.2652L17.3683 27.2368C17.6007 27.0612 17.8217 26.8968 18.1333 26.9988C18.0937 27.2255 18.2438 27.2878 18.394 27.3473L18.4705 27.3813C18.4673 27.4348 18.4597 27.4878 18.4478 27.54C18.4223 27.6675 18.3997 27.7893 18.4988 27.8998C18.5453 27.8515 18.5888 27.8004 18.6292 27.7468C18.734 27.6165 18.836 27.4862 19.023 27.4352C19.431 27.9735 19.8418 27.7497 20.3575 27.472C20.9412 27.1575 21.658 26.7693 22.6525 27.3162C22.27 27.2992 21.93 27.3445 21.675 27.6562C21.6098 27.7242 21.556 27.8035 21.6693 27.8942C22.2558 27.5202 22.5023 27.6533 22.7318 27.7808C22.9018 27.8715 23.0577 27.9593 23.3325 27.8488L23.5308 27.7468C23.97 27.5117 24.4205 27.2765 24.9447 27.3587C24.5508 27.4692 24.412 27.7128 24.259 27.9763C24.1853 28.1095 24.106 28.2455 23.9927 28.373C23.9332 28.4325 23.9077 28.5033 23.9728 28.5997C24.7945 28.5345 25.1062 28.3305 25.5255 28.0557C25.7238 27.9253 25.9505 27.7752 26.265 27.6193C26.6163 27.4068 26.9677 27.5428 27.3077 27.676C27.676 27.8177 28.0302 27.9537 28.3588 27.6363C28.4637 27.5428 28.594 27.54 28.7243 27.54C28.7697 27.54 28.8178 27.54 28.866 27.5343C28.7612 26.996 28.186 27.0017 27.5967 27.0073C26.9167 27.0158 26.2282 27.0243 26.2508 26.1885C26.8798 25.7663 26.8855 25.0353 26.8912 24.344C26.8912 24.174 26.8912 24.0125 26.9053 23.8538C27.3672 24.1088 27.8573 24.3072 28.3447 24.5027C28.8037 24.6868 29.2598 24.871 29.6877 25.0977C30.1353 25.806 30.8323 26.741 31.7617 26.6787C31.7843 26.605 31.807 26.5455 31.8353 26.4718C31.8892 26.4832 31.9458 26.4945 32.0025 26.5115C32.2462 26.5682 32.5068 26.6333 32.6343 26.35ZM50.8498 18.3345C51.3882 18.8615 52.1163 19.1562 52.8785 19.1562C53.6407 19.1562 54.3688 18.8615 54.9072 18.3345C55.1725 18.0766 55.3836 17.7684 55.5281 17.4278C55.6726 17.0872 55.7476 16.7211 55.7487 16.3512C55.7476 15.9812 55.6726 15.6151 55.5281 15.2746C55.3836 14.934 55.1725 14.6257 54.9072 14.3678C54.5109 13.981 54.0121 13.7158 53.4699 13.6033C52.9277 13.4908 52.3646 13.5359 51.8472 13.7332L50.2038 11.3787L49.0563 12.1493L50.7082 14.5152C50.2369 15.0482 49.9888 15.7422 50.0152 16.4532C50.0415 17.1642 50.3404 17.8378 50.8498 18.3345ZM45.7017 10.7128C46.1779 10.9434 46.7079 11.0402 47.235 10.9928C47.762 10.9454 48.2662 10.7556 48.6937 10.4437C49.1821 10.088 49.5428 9.58419 49.7222 9.00717C49.8997 8.43243 49.8838 7.81532 49.6768 7.2505C49.4667 6.68284 49.0792 6.198 48.5718 5.86783C48.0077 5.49781 47.3327 5.33508 46.6619 5.40743C45.9912 5.47977 45.3664 5.78271 44.8942 6.2645C44.5875 6.58139 44.3602 6.96629 44.2307 7.38779C44.1012 7.8093 44.0732 8.25545 44.149 8.68983C44.2287 9.1229 44.4104 9.53079 44.6788 9.87983C44.948 10.234 45.2993 10.5173 45.7017 10.7128ZM45.7017 27.0102C46.1781 27.2402 46.708 27.3366 47.2349 27.2892C47.7618 27.2418 48.2659 27.0523 48.6937 26.741C49.1821 26.3853 49.5428 25.8815 49.7222 25.3045C49.8997 24.7298 49.8838 24.1126 49.6768 23.5478C49.4667 22.9802 49.0792 22.4953 48.5718 22.1652C48.0079 21.7946 47.3327 21.6316 46.6619 21.7039C45.991 21.7763 45.3661 22.0796 44.8942 22.5618C44.5873 22.8786 44.3599 23.2635 44.2304 23.685C44.1008 24.1066 44.073 24.5528 44.149 24.9872C44.2287 25.4202 44.4104 25.8281 44.6788 26.1772C44.948 26.5313 45.2993 26.8147 45.7017 27.0102ZM48.3367 17.0482V15.6542H43.945C43.8338 15.2292 43.623 14.8369 43.3302 14.5095L44.9848 12.1097L43.7807 11.3277L42.1288 13.7275C41.6225 13.5511 41.0771 13.5186 40.5534 13.6337C40.0297 13.7487 39.5481 14.0068 39.1623 14.3792C38.898 14.6352 38.6876 14.9417 38.5435 15.2803C38.3995 15.619 38.3247 15.9831 38.3237 16.3512C38.3237 17.0907 38.6268 17.8018 39.1623 18.3232C39.5481 18.6956 40.0297 18.9536 40.5534 19.0687C41.0771 19.1837 41.6225 19.1512 42.1288 18.9748L43.7807 21.3747L44.9707 20.5927L43.3302 18.1928C43.623 17.8655 43.8338 17.4731 43.945 17.0482H48.3367Z" fill="#1C3C3C"/>
<path fill-rule="evenodd" clip-rule="evenodd" d="M155.24 6.84546C153.921 5.87781 152.1 5.38818 149.832 5.38818C148.197 5.38818 146.708 5.74428 145.407 6.44486C144.109 7.14319 143.037 8.19807 142.318 9.48521C141.567 10.8022 141.188 12.4114 141.188 14.2693C141.188 15.6869 141.413 16.9622 141.857 18.0595C142.299 19.154 142.924 20.0916 143.71 20.8454C144.501 21.6008 145.439 22.1863 146.466 22.5659C147.545 22.9608 148.686 23.1588 149.835 23.1504C151.615 23.1504 153.165 22.7923 154.441 22.0869C155.687 21.4109 156.712 20.3912 157.395 19.1491C158.08 17.9038 158.428 16.4591 158.428 14.8547C158.428 14.8082 158.423 14.6612 158.415 14.4144C158.41 14.2539 158.401 14.0935 158.387 13.9335H151.948V16.0255H155.255L155.24 16.1213C155.083 17.1151 154.774 17.957 154.321 18.6227C153.88 19.277 153.266 19.7961 152.547 20.1226C151.828 20.4496 150.974 20.6112 150.031 20.6025C148.766 20.587 147.695 20.3132 146.85 19.7887C146.004 19.2638 145.339 18.4934 144.943 17.5806C144.525 16.6458 144.315 15.5311 144.315 14.2673C144.315 13.0036 144.528 11.8821 144.948 10.9357C145.374 9.98548 146.013 9.23556 146.855 8.71012C147.696 8.18566 148.768 7.92729 150.03 7.94278C151.289 7.94278 152.343 8.2563 153.158 8.87559C153.954 9.47844 154.538 10.2903 154.9 11.2899L157.914 10.8496C157.44 9.14266 156.541 7.79376 155.24 6.84159V6.84546ZM194.365 10.4974C193.393 9.90323 192.247 9.60713 190.924 9.60713C189.602 9.60713 188.478 9.90323 187.575 10.4974C187.393 10.6182 187.218 10.7497 187.052 10.8912V9.96613H184.291V28.6118H187.44V22.2185C187.496 22.2582 187.551 22.2988 187.609 22.3366C188.533 22.9346 189.677 23.2336 191.042 23.2336C192.329 23.2336 193.454 22.9346 194.412 22.3366C195.365 21.7439 196.136 20.9002 196.641 19.8981C197.168 18.8695 197.433 17.7102 197.433 16.4194C197.433 15.1285 197.165 13.947 196.629 12.9233C196.114 11.9214 195.331 11.0818 194.368 10.4974H194.365ZM193.743 18.5676C193.488 19.2072 193.097 19.7171 192.57 20.0906C192.044 20.4651 191.373 20.6519 190.56 20.6519C189.747 20.6519 189.045 20.4738 188.53 20.1197C188.016 19.7665 187.64 19.2701 187.404 18.6314C187.165 17.9947 187.047 17.2564 187.047 16.4194C187.047 15.5824 187.165 14.8344 187.404 14.2035C187.64 13.5687 188.012 13.0742 188.512 12.721C189.013 12.3669 189.66 12.1888 190.456 12.1888C191.294 12.1888 191.987 12.3775 192.53 12.7559C193.074 13.1342 193.475 13.6442 193.736 14.2877C193.994 14.9282 194.124 15.6404 194.124 16.4213C194.124 17.2022 193.997 17.927 193.743 18.5676ZM211.923 14.4541C211.858 13.9139 211.735 13.3824 211.554 12.8691C211.355 12.296 211.056 11.7622 210.673 11.2918C210.275 10.7983 209.739 10.3909 209.067 10.0726C208.393 9.75325 207.536 9.59359 206.501 9.59359C205.188 9.59359 204.08 9.85872 203.183 10.388C202.701 10.6735 202.283 11.0112 201.925 11.4012V5.66203H199.139V22.8726H202.303V16.2384C202.303 15.4508 202.397 14.8034 202.587 14.2964C202.778 13.7912 203.029 13.3926 203.345 13.1013C203.646 12.819 204.008 12.6083 204.402 12.4849C204.784 12.3655 205.182 12.3045 205.582 12.304C206.325 12.304 206.914 12.4511 207.35 12.7472C207.787 13.0433 208.115 13.4197 208.335 13.8774C208.555 14.336 208.694 14.8121 208.757 15.3066C208.818 15.8001 208.849 16.25 208.849 16.6574V22.8726H212.012V15.6646C212.012 15.353 211.983 14.9505 211.928 14.4522L211.923 14.4541ZM167.684 10.0793C167.255 10.1055 166.833 10.1819 166.424 10.3019C166.032 10.416 165.656 10.5819 165.308 10.7954C164.919 11.0146 164.574 11.3044 164.292 11.6498C164.165 11.8065 164.049 11.9717 163.944 12.1443L163.828 12.333V10.1326H161.225V22.7681H164.2V16.3429C164.2 15.8543 164.265 15.3888 164.393 14.964C164.523 14.5383 164.726 14.1512 164.998 13.8174C165.271 13.4816 165.628 13.2039 166.062 12.9881C166.514 12.7432 167.014 12.5995 167.527 12.5672C168.032 12.5285 168.487 12.5604 168.886 12.6562V10.1239C168.488 10.0676 168.085 10.0527 167.684 10.0793ZM83.7861 5.6301V22.803H96.6114V20.2087H86.6988V5.6301H83.7861ZM103.451 9.70583C100.656 9.70583 98.5641 10.9135 97.7145 13.021L97.4968 13.5619L99.8936 14.9902L100.219 14.2064C100.774 12.872 101.802 12.2517 103.451 12.2517C105.099 12.2517 106.042 12.9871 106.025 14.4405C106.025 14.5005 106.02 14.6786 106.02 14.6786C106.02 14.6786 103.839 15.0056 102.941 15.1798C99.1069 15.9278 97.4997 17.2758 97.4997 19.4859C97.4997 20.6625 98.2089 21.936 99.5027 22.6501C100.28 23.0797 101.293 23.2403 102.41 23.2403C103.146 23.2403 103.86 23.1397 104.524 22.953C106.029 22.4923 106.448 21.5866 106.448 21.5866V22.7701H108.94V14.3002C108.94 11.4215 106.889 9.7039 103.454 9.7039L103.451 9.70583ZM106.032 18.7446C106.032 19.6349 104.981 20.888 102.53 20.888C101.841 20.888 101.349 20.7186 101.023 20.4671C100.832 20.3254 100.683 20.1348 100.591 19.9155C100.499 19.6962 100.468 19.4562 100.501 19.2207C100.528 19.0369 100.648 18.6353 101.1 18.2889C101.561 17.9328 102.374 17.6812 103.632 17.4277C104.43 17.272 105.23 17.1265 106.031 16.9913L106.032 18.7446ZM176.408 9.70583C173.613 9.70583 171.521 10.9135 170.671 13.021L170.455 13.5619L172.85 14.9902L173.177 14.2064C173.731 12.872 174.76 12.2517 176.409 12.2517C178.055 12.2517 178.999 12.9871 178.982 14.4405C178.982 14.5005 178.978 14.6786 178.978 14.6786C178.978 14.6786 176.796 15.0056 175.899 15.1798C172.064 15.9278 170.457 17.2758 170.457 19.4859C170.457 20.6625 171.166 21.936 172.46 22.6501C173.237 23.0797 174.25 23.2403 175.367 23.2403C176.104 23.2403 176.819 23.1397 177.481 22.953C178.987 22.4923 179.404 21.5866 179.404 21.5866V22.7701H181.897V14.3002C181.897 11.4215 179.846 9.7039 176.41 9.7039L176.408 9.70583ZM178.989 18.7446C178.989 19.6349 177.937 20.888 175.488 20.888C174.797 20.888 174.306 20.7186 173.98 20.4671C173.789 20.3253 173.64 20.1347 173.548 19.9154C173.456 19.6961 173.425 19.4562 173.458 19.2207C173.485 19.0369 173.606 18.6353 174.058 18.2889C174.518 17.9328 175.332 17.6812 176.589 17.4277C177.624 17.2206 178.989 16.9913 178.989 16.9913V18.7446ZM118.148 9.70583C117.801 9.70583 117.463 9.72712 117.137 9.7697C114.905 10.0793 114.252 11.1244 114.252 11.1244V10.0793H111.459V22.7768H114.372V15.7343C114.372 13.3413 116.263 12.2508 118.023 12.2508C119.924 12.2508 120.849 13.1942 120.849 15.1324V22.7749H123.762V14.7628C123.762 11.6411 121.612 9.70293 118.149 9.70293L118.148 9.70583ZM135.913 10.0706V11.3779C135.913 11.3779 135.199 9.7039 131.954 9.7039C127.922 9.7039 125.414 12.272 125.414 16.4029C125.414 18.735 126.222 20.5706 127.65 21.7298C128.757 22.6317 130.238 23.0942 132.004 23.1252C133.23 23.1474 134.026 22.8378 134.521 22.5465C135.474 21.9882 135.827 21.456 135.827 21.456C135.827 21.456 135.786 21.8721 135.713 22.4353C135.66 22.8426 135.561 23.13 135.561 23.13C135.117 24.5854 133.821 25.4263 131.93 25.4263C130.038 25.4263 128.891 24.8524 128.665 23.7213L125.834 24.5002C126.324 26.6745 128.537 27.9741 131.753 27.9741C133.94 27.9741 135.655 27.4264 136.85 26.3436C138.054 25.2531 138.666 23.6797 138.666 21.6679V10.0706H135.913ZM135.731 16.521C135.731 19.063 134.384 20.5803 132.131 20.5803C129.715 20.5803 128.329 19.0582 128.329 16.4058C128.329 13.7535 129.715 12.2537 132.13 12.2537C134.33 12.2537 135.711 13.7642 135.731 16.1968V16.521Z" fill="#303245"/>
</svg>
