<svg width="187" height="32" viewBox="0 0 187 32" fill="none" xmlns="http://www.w3.org/2000/svg">
<mask id="mask0_3432_3076" style="mask-type:luminance" maskUnits="userSpaceOnUse" x="0" y="0" width="187" height="32">
<path d="M0 8.7738e-05H186.828V31.7001H0V8.7738e-05Z" fill="white"/>
</mask>
<g mask="url(#mask0_3432_3076)">
<mask id="mask1_3432_3076" style="mask-type:luminance" maskUnits="userSpaceOnUse" x="0" y="0" width="187" height="32">
<path d="M0 31.7001H186.828V0.000106812H0V31.7001Z" fill="white"/>
</mask>
<g mask="url(#mask1_3432_3076)">
<path d="M73.2656 3.46994C73.2656 1.8964 74.5357 0.623678 76.0991 0.623678C77.6679 0.623678 78.9429 1.8964 78.9429 3.46994C78.9429 5.04144 77.6679 6.31551 76.0991 6.31551C74.5357 6.31551 73.2656 5.04144 73.2656 3.46994Z" fill="#273B7D"/>
<path d="M118.062 22.4017C118.062 20.8275 119.332 19.5534 120.895 19.5534C122.463 19.5534 123.738 20.8275 123.738 22.4017C123.738 23.9719 122.463 25.2473 120.895 25.2473C119.332 25.2473 118.062 23.9719 118.062 22.4017Z" fill="#499FDD"/>
<path d="M26.6766 21.1715C24.2316 21.1715 22.5325 19.2297 22.5325 16.455C22.5325 13.6809 24.2316 11.7404 26.6766 11.7404C29.1356 11.7404 30.8533 13.6809 30.8533 16.455C30.8533 19.2736 29.1714 21.1715 26.6766 21.1715ZM26.6766 7.59517C21.5039 7.59517 17.75 11.3223 17.75 16.455C17.75 21.5877 21.5039 25.3141 26.6766 25.3141C31.8686 25.3141 35.6382 21.5877 35.6382 16.455C35.6382 11.3223 31.8686 7.59517 26.6766 7.59517Z" fill="#273B7D"/>
<path d="M67.7688 16.8981C67.5678 16.5197 67.3372 16.1993 67.0916 15.9451L66.9352 15.7791L67.0998 15.6213C67.3373 15.3711 67.58 15.0743 67.8141 14.7303L72.3788 7.94452H66.8374L63.4077 13.2526C63.2135 13.5372 62.8216 13.6809 62.2348 13.6809H61.4531V3.64546C61.4531 1.63824 60.2027 1.36508 58.8518 1.36508H56.5391L56.5429 25.0531H61.4531V17.9475H61.9131C62.4728 17.9475 62.854 18.0123 63.0288 18.3165L65.7374 23.4289C66.494 24.8163 67.2481 25.0531 68.6666 25.0531H72.4295L69.627 20.4174L67.7688 16.8981Z" fill="#273B7D"/>
<path d="M91.6045 7.55725C89.1069 7.55725 87.5134 8.66675 86.6203 9.60494L86.3222 9.90643L86.217 9.49636C85.9546 8.49139 85.0704 7.93832 83.7397 7.93832H81.5391L81.5528 25.0469H86.4296V17.1617C86.4296 16.3908 86.5298 15.7217 86.7337 15.1113C87.2765 13.2639 88.7907 12.1153 90.6833 12.1153C92.2056 12.1153 92.8004 12.9186 92.8004 14.9946V22.4461C92.8004 24.218 93.6199 25.0469 95.3931 25.0469H97.7139L97.706 14.1657C97.706 9.84235 95.5961 7.55725 91.6045 7.55725Z" fill="#273B7D"/>
<path d="M76.1709 7.9457H73.8594L73.8752 21.174L73.8736 25.0509H76.3409C76.3719 25.0509 76.3969 25.0542 76.4279 25.0542L77.5771 25.0509H78.721V25.0441H78.729L78.7389 10.5431C78.7389 8.79352 77.9008 7.9457 76.1709 7.9457Z" fill="#273B7D"/>
<path d="M45.8309 21.1715C43.3862 21.1715 41.6837 19.2297 41.6837 16.455C41.6837 13.6809 43.3862 11.7404 45.8309 11.7404C48.2848 11.7404 50.0073 13.6809 50.0073 16.455C50.0073 19.2736 48.3259 21.1715 45.8309 21.1715ZM45.8309 7.59515C40.6531 7.59515 36.8984 11.3222 36.8984 16.455C36.8984 21.5877 40.6531 25.3141 45.8309 25.3141C51.0176 25.3141 54.7934 21.5877 54.7934 16.455C54.7934 11.3222 51.0176 7.59515 45.8309 7.59515Z" fill="#273B7D"/>
</g>
</g>
<mask id="mask2_3432_3076" style="mask-type:luminance" maskUnits="userSpaceOnUse" x="0" y="0" width="187" height="32">
<path d="M0 8.7738e-05H186.828V31.7001H0V8.7738e-05Z" fill="white"/>
</mask>
<g mask="url(#mask2_3432_3076)">
<mask id="mask3_3432_3076" style="mask-type:luminance" maskUnits="userSpaceOnUse" x="0" y="0" width="187" height="32">
<path d="M0 0.623791H186.788V31.6594H0V0.623791Z" fill="white"/>
</mask>
<g mask="url(#mask3_3432_3076)">
<mask id="mask4_3432_3076" style="mask-type:luminance" maskUnits="userSpaceOnUse" x="0" y="0" width="187" height="32">
<path d="M0 31.7001H186.828V0.000106812H0V31.7001Z" fill="white"/>
</mask>
<g mask="url(#mask4_3432_3076)">
<path d="M150.361 21.1716C147.917 21.1716 146.214 19.2298 146.214 16.4551C146.214 13.681 147.917 11.7405 150.361 11.7405C152.815 11.7405 154.539 13.681 154.539 16.4551C154.539 19.2737 152.856 21.1716 150.361 21.1716ZM150.361 7.59526C145.184 7.59526 141.43 11.3224 141.43 16.4551C141.43 21.5878 145.184 25.3142 150.361 25.3142C155.548 25.3142 159.323 21.5878 159.323 16.4551C159.323 11.3224 155.548 7.59526 150.361 7.59526Z" fill="#499FDD"/>
<path d="M107.986 20.4187C105.32 20.4187 104.371 18.0925 104.371 15.9126C104.371 14.9522 104.614 11.822 107.73 11.822C109.279 11.822 111.343 12.2658 111.343 16.0738C111.343 19.6653 109.516 20.4187 107.986 20.4187ZM113.874 7.89994C112.949 7.89994 112.237 8.26887 111.88 8.94267L111.745 9.20435L111.519 9.00809C110.732 8.32687 109.321 7.51887 107.029 7.51887C102.469 7.51887 99.3984 10.9438 99.3984 16.0408C99.3984 21.1317 102.575 24.6895 107.12 24.6895C108.673 24.6895 109.9 24.3273 110.872 23.5908L111.249 23.3082V23.7837C111.249 26.0688 109.771 27.3293 107.092 27.3293C105.79 27.3293 104.605 27.0123 103.813 26.725C102.778 26.4127 102.172 26.6711 101.752 27.7091L101.365 28.6668L100.817 30.0657L101.157 30.2464C102.871 31.1563 105.103 31.6992 107.12 31.6992C111.274 31.6992 116.123 29.5733 116.123 23.5908L116.141 7.89994H113.874Z" fill="#273B7D"/>
</g>
</g>
</g>
<mask id="mask5_3432_3076" style="mask-type:luminance" maskUnits="userSpaceOnUse" x="0" y="0" width="187" height="32">
<path d="M0 8.7738e-05H186.828V31.7001H0V8.7738e-05Z" fill="white"/>
</mask>
<g mask="url(#mask5_3432_3076)">
<mask id="mask6_3432_3076" style="mask-type:luminance" maskUnits="userSpaceOnUse" x="0" y="0" width="187" height="32">
<path d="M0 31.7001H186.828V0.000106812H0V31.7001Z" fill="white"/>
</mask>
<g mask="url(#mask6_3432_3076)">
<path d="M8.511 20.9753L4.54118 20.9713V16.2251C4.54118 15.2107 4.93443 14.6833 5.80372 14.5619H8.511C10.4433 14.5619 11.6919 15.7806 11.6932 17.7521C11.6919 19.7755 10.4744 20.9739 8.511 20.9753ZM4.54118 8.17184V6.92273C4.54118 5.82942 5.0038 5.30941 6.01899 5.24263H8.0503C9.79244 5.24263 10.8359 6.28536 10.8359 8.02953C10.8359 9.35959 10.1216 10.9115 8.11437 10.9115H4.54118V8.17184ZM13.5811 12.9086L12.8633 12.5053L13.4898 11.9698C14.2184 11.3432 15.4398 9.93492 15.4398 7.50144C15.4398 3.77836 12.5519 1.37523 8.08203 1.37523H2.98108L2.40031 1.37388C1.07512 1.42245 0.0148276 2.50024 0 3.83367V24.9668H2.34094C2.34687 24.9681 2.34886 24.9668 2.35083 24.9681L8.18279 24.9668C13.1516 24.9668 16.3587 22.2622 16.3587 18.073C16.3587 15.8176 15.3232 13.8893 13.5811 12.9086Z" fill="#273B7D"/>
<path d="M181.107 7.61297C179.083 7.61297 177.127 8.56059 175.872 10.1496L175.518 10.5975L175.241 10.0964C174.338 8.44931 172.783 7.61297 170.621 7.61297C168.355 7.61297 166.834 8.87758 166.128 9.62962L165.666 10.1301L165.488 9.47179C165.23 8.52418 164.387 8.00213 163.109 8.00213H161.059L161.039 25.0446H165.696V17.5216C165.696 16.8626 165.778 16.2104 165.943 15.5285C166.388 13.7108 167.61 11.7556 169.664 11.9511C170.93 12.0725 171.549 13.0512 171.549 14.9417V25.0446H176.239V17.5216C176.239 16.6981 176.316 16.0816 176.501 15.4631C176.879 13.7277 178.154 11.9485 180.136 11.9485C181.57 11.9485 182.1 12.7605 182.1 14.9417V22.5531C182.1 24.275 182.868 25.0446 184.589 25.0446H186.781L186.785 14.1648C186.785 9.81848 184.872 7.61297 181.107 7.61297Z" fill="#499FDD"/>
<path d="M138.734 19.1273C138.721 19.1442 136.716 21.2573 134.078 21.2573C131.674 21.2573 129.245 19.7823 129.245 16.4895C129.245 13.6466 131.128 11.6596 133.824 11.6596C134.699 11.6596 135.695 11.9733 135.85 12.5007L135.873 12.5897C136.232 13.7856 137.319 13.8496 137.533 13.8496L140.084 13.8524V11.622C140.084 8.67993 136.342 7.61292 133.824 7.61292C128.439 7.61292 124.531 11.3623 124.531 16.5253C124.531 21.6864 128.396 25.4303 133.725 25.4303C138.349 25.4303 140.863 22.3912 140.886 22.3608L141.021 22.1963L139 18.8442L138.734 19.1273Z" fill="#499FDD"/>
</g>
</g>
</svg>
