<svg width="120" height="40" viewBox="0 0 120 40" fill="none" xmlns="http://www.w3.org/2000/svg">
<g clip-path="url(#clip0_2048_3294)">
<path d="M117.643 9.25893V9.26502C117.094 11.4645 115.519 13.0578 114.386 14.0631L114.359 14.0874C114.182 14.2409 113.997 14.3843 113.804 14.517C113.888 14.688 113.958 14.8653 114.015 15.047L114.024 15.0805C114.24 15.8053 114.295 16.5684 114.185 17.3166C113.979 18.5674 113.641 19.7928 113.177 20.9723C112.973 21.545 112.778 22.0873 112.628 22.6204C112.217 24.046 111.748 25.7338 111.37 27.458C111.102 28.7155 111.007 30.004 111.09 31.2873C111.14 31.8541 111.038 32.424 110.796 32.9389C110.553 33.4538 110.178 33.895 109.71 34.2179C108.8 34.9201 107.78 35.4666 106.691 35.8355C104.897 36.3809 103.645 35.9056 102.91 35.409C102.79 35.3279 102.675 35.2394 102.566 35.144C101.66 35.7116 100.645 36.0851 99.5869 36.2408C99.1643 36.3038 98.7377 36.3363 98.3104 36.3381C97.4804 36.3618 96.6546 36.2095 95.8875 35.8914C95.1204 35.5731 94.4294 35.0964 93.8596 34.4921C93.7096 34.3344 93.5683 34.1686 93.4362 33.9955C93.0385 34.2823 92.62 34.5388 92.1841 34.7633C90.9552 35.414 89.5512 35.6573 88.1751 35.4578C87.0134 35.3298 85.9139 34.8673 85.0099 34.1265C83.9725 33.2061 83.293 31.9495 83.0908 30.5775C83.0265 30.2361 82.9827 29.8913 82.9597 29.5448C82.3474 30.4191 81.6864 31.2385 81.0496 32.0093C79.8685 33.5035 78.3701 34.7168 76.6629 35.5614C74.8906 36.4266 72.8596 36.6005 70.9661 36.0488C69.9219 35.7909 68.9255 35.3681 68.0143 34.7968C67.5304 34.482 67.0944 34.0993 66.7195 33.6604C66.3479 34.0443 65.9761 34.3976 65.6198 34.7389C65.4035 34.946 65.1841 35.1531 64.9709 35.3634C64.6379 35.6925 64.2424 35.9516 63.8075 36.1254C63.3728 36.2991 62.9075 36.3839 62.4394 36.3748C62.1904 36.3744 61.9418 36.354 61.696 36.3138C60.6129 36.1534 59.5558 35.8501 58.5521 35.4121L58.5216 35.3969C57.5063 34.945 56.6385 34.2166 56.0175 33.2949C55.0769 34.0639 54.0406 34.7079 52.9346 35.211C51.8361 35.7423 50.6539 36.0793 49.4404 36.2073C48.3735 36.3264 47.2994 36.3681 46.2265 36.3321C44.4286 36.2663 42.6831 35.7101 41.1786 34.7236C39.6061 33.653 38.4835 32.0401 38.0256 30.1936C38.0165 30.154 38.0044 30.1144 37.9951 30.0749C37.478 30.3148 36.9339 30.4918 36.3745 30.6019C34.9181 30.9225 33.4001 30.8156 32.003 30.2941C31.2684 30.0156 30.6166 29.555 30.1088 28.9555C29.601 28.356 29.2538 27.6374 29.0998 26.867C27.9606 28.4954 26.923 30.1924 25.9925 31.9484C25.895 32.1281 25.7975 32.3474 25.6909 32.5759C25.4819 33.0551 25.2416 33.5203 24.9719 33.9681C24.5116 34.7341 23.8569 35.3646 23.0741 35.7959C22.2914 36.2271 21.4085 36.4436 20.5151 36.4235H20.4999C19.5486 36.451 18.6051 36.2449 17.752 35.8234C17.6545 35.7715 17.5601 35.7168 17.4688 35.6589C17.3378 35.7259 17.2068 35.7899 17.0696 35.8538C15.8453 36.4711 14.5226 36.87 13.1611 37.0328L12.9418 37.0571C12.3782 37.112 11.7598 37.1729 11.1079 37.1729C10.922 37.1729 10.7332 37.1668 10.5443 37.1576C8.6687 37.0781 6.86735 36.4026 5.40199 35.2293C3.92175 34.0179 2.9093 32.329 2.53839 30.4526C2.2737 29.1839 2.23349 27.8785 2.41959 26.5959C2.69282 24.7274 3.29845 22.9228 4.2078 21.2678C4.90034 19.9451 5.72613 18.6968 6.67233 17.542C7.7034 16.2856 8.9245 15.1983 10.2914 14.319C11.3985 13.5971 12.6364 13.0994 13.9349 12.8536C15.7049 12.5246 17.4048 12.9481 19.1443 14.1514C20.0449 14.7676 20.8193 15.5504 21.4259 16.4575C22.614 14.7973 24.1006 13.8376 25.8463 13.6123C26.7274 13.4684 27.6315 13.5955 28.4388 13.9769C29.246 14.3583 29.9185 14.9758 30.367 15.7478C30.8689 15.4033 31.3988 15.1015 31.9511 14.846C33.111 14.274 34.3934 13.9948 35.686 14.0326C37.6814 14.121 39.1985 14.782 40.3196 16.0554C40.7654 16.5634 41.1043 17.156 41.3158 17.7979C41.7643 17.2541 42.2553 16.7469 42.7841 16.2809C44.1925 14.9753 45.9451 14.1 47.835 13.7584C48.528 13.659 49.2299 13.6365 49.9279 13.6914C50.0741 13.6975 50.2234 13.7036 50.3696 13.7066C51.426 13.747 52.4636 13.9976 53.422 14.4439C54.6388 14.9668 55.6725 15.8394 56.3923 16.951C56.5446 16.6981 56.7091 16.4484 56.8828 16.2078C57.9185 14.7729 59.2163 13.926 60.7395 13.6884C61.4144 13.5611 62.1084 13.5748 62.7778 13.7284C63.4473 13.882 64.0776 14.1723 64.6296 14.581C65.2813 15.0861 65.7723 15.7694 66.0431 16.5481C66.314 17.3268 66.3533 18.1673 66.1559 18.9678C66.098 19.2419 66.0371 19.5191 65.9761 19.7933C66.2229 19.2663 66.4758 18.7331 66.7408 18.2061C67.539 16.5976 68.593 15.4979 69.9609 14.849C70.796 14.433 71.7288 14.2523 72.6589 14.3264C73.589 14.4004 74.4814 14.7265 75.2403 15.2694C75.9286 15.7386 76.7725 16.6555 76.8883 18.3615C76.9261 19.3913 76.768 20.4189 76.4223 21.3896C76.3551 21.609 76.2881 21.8314 76.2181 22.0538L76.346 21.7613C76.605 21.1703 76.867 20.5793 77.132 19.9944C77.9424 18.197 78.774 16.36 80.9949 14.9861C81.4859 14.6684 82.0111 14.4068 82.5606 14.2063C84.2819 13.6214 87.8339 13.7645 89.089 16.0433C89.7576 15.4323 90.5133 14.9241 91.3311 14.5353C92.4455 13.9825 93.6729 13.6958 94.9168 13.6975L95.0325 13.7005C95.9825 13.6744 96.9309 13.7946 97.8444 14.057C98.4316 14.2374 98.9803 14.5256 99.462 14.9069C100.827 14.4225 102.566 14.453 103.849 15.4614C104.102 15.6638 104.327 15.8983 104.519 16.159C104.908 15.5455 105.351 14.9676 105.841 14.4316C106.391 13.8204 107.054 13.3216 107.794 12.9634C107.518 12.3066 107.313 11.6224 107.182 10.9223C107.04 10.2545 106.959 9.57555 106.938 8.89337V8.83853C106.904 7.55825 107.286 6.30144 108.025 5.25599C108.482 4.60295 109.085 4.06619 109.786 3.68892C110.488 3.31165 111.269 3.10442 112.065 3.08392C113.194 3.02828 114.318 3.27322 115.321 3.79373C116.267 4.31089 117.01 5.13159 117.431 6.12327C117.852 7.11493 117.927 8.21964 117.643 9.25893Z" fill="#303245"/>
<mask id="mask0_2048_3294" style="mask-type:luminance" maskUnits="userSpaceOnUse" x="-1" y="0" width="121" height="40">
<path d="M119.805 0.576172H-0.195312V39.3262H119.805V0.576172Z" fill="white"/>
<path d="M117.643 9.25893V9.26502C117.094 11.4645 115.519 13.0578 114.386 14.0631L114.359 14.0874C114.182 14.2409 113.997 14.3843 113.804 14.517C113.888 14.688 113.958 14.8653 114.015 15.047L114.024 15.0805C114.24 15.8053 114.295 16.5684 114.185 17.3166C113.979 18.5674 113.641 19.7928 113.177 20.9723C112.973 21.545 112.778 22.0873 112.628 22.6204C112.217 24.046 111.748 25.7338 111.37 27.458C111.102 28.7155 111.007 30.004 111.09 31.2873C111.14 31.8541 111.038 32.424 110.796 32.9389C110.553 33.4538 110.178 33.895 109.71 34.2179C108.8 34.9201 107.78 35.4666 106.691 35.8355C104.897 36.3809 103.645 35.9056 102.91 35.409C102.79 35.3279 102.675 35.2394 102.566 35.144C101.66 35.7116 100.645 36.0851 99.5869 36.2408C99.1643 36.3038 98.7377 36.3363 98.3104 36.3381C97.4804 36.3618 96.6546 36.2095 95.8875 35.8914C95.1204 35.5731 94.4294 35.0964 93.8596 34.4921C93.7096 34.3344 93.5683 34.1686 93.4362 33.9955C93.0385 34.2823 92.62 34.5388 92.1841 34.7633C90.9552 35.414 89.5512 35.6573 88.1751 35.4578C87.0134 35.3298 85.9139 34.8673 85.0099 34.1265C83.9725 33.2061 83.293 31.9495 83.0908 30.5775C83.0265 30.2361 82.9827 29.8913 82.9597 29.5448C82.3474 30.4191 81.6864 31.2385 81.0496 32.0093C79.8685 33.5035 78.3701 34.7168 76.6629 35.5614C74.8906 36.4266 72.8596 36.6005 70.9661 36.0488C69.9219 35.7909 68.9255 35.3681 68.0143 34.7968C67.5304 34.482 67.0944 34.0993 66.7195 33.6604C66.3479 34.0443 65.9761 34.3976 65.6198 34.7389C65.4035 34.946 65.1841 35.1531 64.9709 35.3634C64.6379 35.6925 64.2424 35.9516 63.8075 36.1254C63.3728 36.2991 62.9075 36.3839 62.4394 36.3748C62.1904 36.3744 61.9418 36.354 61.696 36.3138C60.6129 36.1534 59.5558 35.8501 58.5521 35.4121L58.5216 35.3969C57.5063 34.945 56.6385 34.2166 56.0175 33.2949C55.0769 34.0639 54.0406 34.7079 52.9346 35.211C51.8361 35.7423 50.6539 36.0793 49.4404 36.2073C48.3735 36.3264 47.2994 36.3681 46.2265 36.3321C44.4286 36.2663 42.6831 35.7101 41.1786 34.7236C39.6061 33.653 38.4835 32.0401 38.0256 30.1936C38.0165 30.154 38.0044 30.1144 37.9951 30.0749C37.478 30.3148 36.9339 30.4918 36.3745 30.6019C34.9181 30.9225 33.4001 30.8156 32.003 30.2941C31.2684 30.0156 30.6166 29.555 30.1088 28.9555C29.601 28.356 29.2538 27.6374 29.0998 26.867C27.9606 28.4954 26.923 30.1924 25.9925 31.9484C25.895 32.1281 25.7975 32.3474 25.6909 32.5759C25.4819 33.0551 25.2416 33.5203 24.9719 33.9681C24.5116 34.7341 23.8569 35.3646 23.0741 35.7959C22.2914 36.2271 21.4085 36.4436 20.5151 36.4235H20.4999C19.5486 36.451 18.6051 36.2449 17.752 35.8234C17.6545 35.7715 17.5601 35.7168 17.4688 35.6589C17.3378 35.7259 17.2068 35.7899 17.0696 35.8538C15.8453 36.4711 14.5226 36.87 13.1611 37.0328L12.9418 37.0571C12.3782 37.112 11.7598 37.1729 11.1079 37.1729C10.922 37.1729 10.7332 37.1668 10.5443 37.1576C8.6687 37.0781 6.86735 36.4026 5.40199 35.2293C3.92175 34.0179 2.9093 32.329 2.53839 30.4526C2.2737 29.1839 2.23349 27.8785 2.41959 26.5959C2.69282 24.7274 3.29845 22.9228 4.2078 21.2678C4.90034 19.9451 5.72613 18.6968 6.67233 17.542C7.7034 16.2856 8.9245 15.1983 10.2914 14.319C11.3985 13.5971 12.6364 13.0994 13.9349 12.8536C15.7049 12.5246 17.4048 12.9481 19.1443 14.1514C20.0449 14.7676 20.8193 15.5504 21.4259 16.4575C22.614 14.7973 24.1006 13.8376 25.8463 13.6123C26.7274 13.4684 27.6315 13.5955 28.4388 13.9769C29.246 14.3583 29.9185 14.9758 30.367 15.7478C30.8689 15.4033 31.3988 15.1015 31.9511 14.846C33.111 14.274 34.3934 13.9948 35.686 14.0326C37.6814 14.121 39.1985 14.782 40.3196 16.0554C40.7654 16.5634 41.1043 17.156 41.3158 17.7979C41.7643 17.2541 42.2553 16.7469 42.7841 16.2809C44.1925 14.9753 45.9451 14.1 47.835 13.7584C48.528 13.659 49.2299 13.6365 49.9279 13.6914C50.0741 13.6975 50.2234 13.7036 50.3696 13.7066C51.426 13.747 52.4636 13.9976 53.422 14.4439C54.6388 14.9668 55.6725 15.8394 56.3923 16.951C56.5446 16.6981 56.7091 16.4484 56.8828 16.2078C57.9185 14.7729 59.2163 13.926 60.7395 13.6884C61.4144 13.5611 62.1084 13.5748 62.7778 13.7284C63.4473 13.882 64.0776 14.1723 64.6296 14.581C65.2813 15.0861 65.7723 15.7694 66.0431 16.5481C66.314 17.3268 66.3533 18.1673 66.1559 18.9678C66.098 19.2419 66.0371 19.5191 65.9761 19.7933C66.2229 19.2663 66.4758 18.7331 66.7408 18.2061C67.539 16.5976 68.593 15.4979 69.9609 14.849C70.796 14.433 71.7288 14.2523 72.6589 14.3264C73.589 14.4004 74.4814 14.7265 75.2403 15.2694C75.9286 15.7386 76.7725 16.6555 76.8883 18.3615C76.9261 19.3913 76.768 20.4189 76.4223 21.3896C76.3551 21.609 76.2881 21.8314 76.2181 22.0538L76.346 21.7613C76.605 21.1703 76.867 20.5793 77.132 19.9944C77.9424 18.197 78.774 16.36 80.9949 14.9861C81.4859 14.6684 82.0111 14.4068 82.5606 14.2063C84.2819 13.6214 87.8339 13.7645 89.089 16.0433C89.7576 15.4323 90.5133 14.9241 91.3311 14.5353C92.4455 13.9825 93.6729 13.6958 94.9168 13.6975L95.0325 13.7005C95.9825 13.6744 96.9309 13.7946 97.8444 14.057C98.4316 14.2374 98.9803 14.5256 99.462 14.9069C100.827 14.4225 102.566 14.453 103.849 15.4614C104.102 15.6638 104.327 15.8983 104.519 16.159C104.908 15.5455 105.351 14.9676 105.841 14.4316C106.391 13.8204 107.054 13.3216 107.794 12.9634C107.518 12.3066 107.313 11.6224 107.182 10.9223C107.04 10.2545 106.959 9.57555 106.938 8.89337V8.83853C106.904 7.55825 107.286 6.30144 108.025 5.25599C108.482 4.60295 109.085 4.06619 109.786 3.68892C110.488 3.31165 111.269 3.10442 112.065 3.08392C113.194 3.02828 114.318 3.27322 115.321 3.79373C116.267 4.31089 117.01 5.13159 117.431 6.12327C117.852 7.11493 117.927 8.21964 117.643 9.25893Z" fill="black"/>
</mask>
<g mask="url(#mask0_2048_3294)">
<path d="M117.643 9.25893V9.26502C117.094 11.4645 115.519 13.0578 114.386 14.0631L114.359 14.0874C114.182 14.2409 113.997 14.3843 113.804 14.517C113.888 14.688 113.958 14.8653 114.015 15.047L114.024 15.0805C114.24 15.8053 114.295 16.5684 114.185 17.3166C113.979 18.5674 113.641 19.7928 113.177 20.9723C112.973 21.545 112.778 22.0873 112.628 22.6204C112.217 24.046 111.748 25.7338 111.37 27.458C111.101 28.7155 111.007 30.004 111.09 31.2873C111.14 31.8541 111.038 32.424 110.796 32.9389C110.553 33.4538 110.178 33.895 109.71 34.2179C108.8 34.9201 107.78 35.4666 106.691 35.8355C104.897 36.3809 103.645 35.9056 102.91 35.409C102.79 35.3279 102.675 35.2394 102.566 35.144C101.66 35.7116 100.645 36.0851 99.5869 36.2408C99.1643 36.3038 98.7378 36.3363 98.3104 36.3381C97.4804 36.3618 96.6546 36.2095 95.8875 35.8914C95.1204 35.5731 94.4294 35.0964 93.8596 34.4921C93.7096 34.3344 93.5683 34.1686 93.4363 33.9955C93.0385 34.2823 92.62 34.5388 92.1841 34.7633C90.9552 35.414 89.5513 35.6573 88.1751 35.4578C87.0134 35.3298 85.9139 34.8673 85.0099 34.1265C83.9725 33.2061 83.293 31.9495 83.0908 30.5775C83.0265 30.2361 82.9827 29.8913 82.9597 29.5448C82.3474 30.4191 81.6864 31.2385 81.0496 32.0093C79.8685 33.5035 78.3701 34.7168 76.6629 35.5614C74.8906 36.4266 72.8596 36.6005 70.9661 36.0488C69.9219 35.7909 68.9255 35.3681 68.0143 34.7968C67.5304 34.482 67.0944 34.0993 66.7195 33.6604C66.3479 34.0443 65.9761 34.3976 65.6198 34.7389C65.4035 34.946 65.1841 35.1531 64.9709 35.3634C64.6379 35.6925 64.2424 35.9516 63.8075 36.1254C63.3728 36.2991 62.9075 36.3839 62.4394 36.3748C62.1904 36.3744 61.9418 36.354 61.696 36.3138C60.6129 36.1534 59.5558 35.8501 58.5521 35.4121L58.5216 35.3969C57.5063 34.945 56.6385 34.2166 56.0175 33.2949C55.0769 34.0639 54.0406 34.7079 52.9346 35.211C51.8361 35.7423 50.6539 36.0793 49.4404 36.2073C48.3735 36.3264 47.2994 36.3681 46.2265 36.3321C44.4286 36.2663 42.6831 35.7101 41.1786 34.7236C39.6061 33.653 38.4835 32.0401 38.0256 30.1936C38.0165 30.154 38.0044 30.1144 37.9951 30.0749C37.478 30.3148 36.9339 30.4918 36.3745 30.6019C34.9181 30.9225 33.4001 30.8156 32.003 30.2941C31.2684 30.0156 30.6166 29.555 30.1088 28.9555C29.601 28.356 29.2538 27.6374 29.0998 26.867C27.9606 28.4954 26.923 30.1924 25.9925 31.9484C25.895 32.1281 25.7975 32.3474 25.6909 32.5759C25.4819 33.0551 25.2416 33.5203 24.9719 33.9681C24.5116 34.7341 23.8569 35.3646 23.0741 35.7959C22.2914 36.2271 21.4085 36.4436 20.5151 36.4235H20.4999C19.5486 36.451 18.6051 36.2449 17.752 35.8234C17.6545 35.7715 17.5601 35.7168 17.4688 35.6589C17.3378 35.7259 17.2068 35.7899 17.0696 35.8538C15.8453 36.4711 14.5226 36.87 13.1611 37.0328L12.9418 37.0571C12.3782 37.112 11.7598 37.1729 11.1079 37.1729C10.922 37.1729 10.7332 37.1668 10.5443 37.1576C8.6687 37.0781 6.86735 36.4026 5.40199 35.2293C3.92175 34.0179 2.9093 32.329 2.53839 30.4526C2.2737 29.1839 2.23349 27.8785 2.41959 26.5959C2.69282 24.7274 3.29845 22.9228 4.2078 21.2678C4.90034 19.9451 5.72613 18.6968 6.67233 17.542C7.7034 16.2856 8.9245 15.1983 10.2914 14.319C11.3985 13.5971 12.6364 13.0994 13.9349 12.8536C15.7049 12.5246 17.4048 12.9481 19.1443 14.1514C20.0449 14.7676 20.8193 15.5504 21.4259 16.4575C22.614 14.7973 24.1006 13.8376 25.8463 13.6123C26.7274 13.4684 27.6315 13.5955 28.4388 13.9769C29.246 14.3583 29.9185 14.9758 30.367 15.7478C30.8689 15.4033 31.3988 15.1015 31.9511 14.846C33.111 14.274 34.3934 13.9948 35.686 14.0326C37.6814 14.121 39.1985 14.782 40.3196 16.0554C40.7654 16.5634 41.1043 17.156 41.3158 17.7979C41.7643 17.2541 42.2553 16.7469 42.7841 16.2809C44.1925 14.9753 45.9451 14.1 47.835 13.7584C48.528 13.659 49.2299 13.6365 49.9279 13.6914C50.0741 13.6975 50.2234 13.7036 50.3696 13.7066C51.426 13.747 52.4636 13.9976 53.422 14.4439C54.6388 14.9668 55.6725 15.8394 56.3923 16.951C56.5446 16.6981 56.7091 16.4484 56.8828 16.2078C57.9185 14.7729 59.2163 13.926 60.7395 13.6884C61.4144 13.5611 62.1084 13.5748 62.7778 13.7284C63.4473 13.882 64.0776 14.1723 64.6296 14.581C65.2813 15.0861 65.7723 15.7694 66.0431 16.5481C66.314 17.3268 66.3533 18.1673 66.1559 18.9678C66.098 19.2419 66.0371 19.5191 65.9761 19.7933C66.2229 19.2663 66.4758 18.7331 66.7408 18.2061C67.539 16.5976 68.593 15.4979 69.9609 14.849C70.796 14.433 71.7288 14.2523 72.6589 14.3264C73.589 14.4004 74.4814 14.7265 75.2403 15.2694C75.9286 15.7386 76.7725 16.6555 76.8883 18.3615C76.9261 19.3913 76.768 20.4189 76.4223 21.3896C76.3551 21.609 76.2881 21.8314 76.2181 22.0538L76.346 21.7613C76.605 21.1703 76.867 20.5793 77.132 19.9944C77.9424 18.197 78.774 16.36 80.9949 14.9861C81.4859 14.6684 82.0111 14.4068 82.5606 14.2063C84.2819 13.6214 87.8339 13.7645 89.089 16.0433C89.7576 15.4323 90.5133 14.9241 91.3311 14.5353C92.4455 13.9825 93.6729 13.6958 94.9168 13.6975L95.0325 13.7005C95.9825 13.6744 96.9309 13.7946 97.8444 14.057C98.4316 14.2374 98.9803 14.5256 99.462 14.9069C100.827 14.4225 102.566 14.453 103.849 15.4614C104.102 15.6638 104.327 15.8983 104.519 16.159C104.908 15.5455 105.351 14.9676 105.841 14.4316C106.391 13.8204 107.054 13.3216 107.794 12.9634C107.518 12.3066 107.313 11.6224 107.182 10.9223C107.04 10.2545 106.959 9.57555 106.938 8.89337V8.83853C106.904 7.55825 107.286 6.30144 108.025 5.25599C108.482 4.60295 109.085 4.06619 109.786 3.68892C110.488 3.31165 111.269 3.10442 112.065 3.08392C113.194 3.02828 114.318 3.27322 115.321 3.79373C116.267 4.31089 117.01 5.13159 117.431 6.12327C117.852 7.11493 117.927 8.21964 117.643 9.25893Z" stroke="white" stroke-width="3.07693"/>
</g>
<path d="M115.424 8.71211C115.058 10.1774 113.968 11.3807 112.868 12.3556C112.477 12.6914 112.038 12.9658 111.564 13.169C110.991 13.4219 110.608 13.2604 110.263 12.7455C109.837 12.0479 109.55 11.2739 109.419 10.4668C109.303 9.92874 109.237 9.38114 109.221 8.83093C109.191 8.03416 109.421 7.24912 109.876 6.59487C110.13 6.22402 110.468 5.9193 110.864 5.70624C111.259 5.49316 111.7 5.37794 112.149 5.37024C112.879 5.32922 113.607 5.48382 114.257 5.81805C115.302 6.36061 115.698 7.60627 115.424 8.71211Z" fill="#FF5A50"/>
<path d="M111.838 15.7333C111.598 14.9687 110.894 14.8315 110.215 14.7675C109.1 14.667 108.225 15.2275 107.522 15.9862C106.942 16.6348 106.436 17.3459 106.014 18.1064C105.13 19.6342 104.593 21.3213 104.079 22.9964C103.744 24.0858 103.45 25.0443 103.033 26.4578C102.786 27.294 102.507 28.5838 101.733 29.2352C101.54 29.4137 101.287 29.5145 101.023 29.5184C100.701 29.4728 100.585 29.1315 100.57 28.8148C100.551 28.4644 100.551 28.114 100.566 27.7638C100.656 26.6899 100.88 25.6315 101.234 24.6138C101.752 22.9383 102.309 21.2749 102.812 19.5933C103.026 19.0129 103.036 18.3765 102.839 17.7899C102.754 17.5828 102.617 17.4005 102.443 17.2598C101.745 16.7114 100.481 16.8029 99.7166 17.3117C99.4637 17.4853 99.214 17.665 98.9489 17.8478C98.891 17.7533 98.8454 17.6863 98.8027 17.6132C98.6332 17.2853 98.4002 16.9944 98.1174 16.7575C97.8344 16.5207 97.5071 16.3424 97.1546 16.2332C96.4167 16.0379 95.6539 15.9537 94.8911 15.9834C93.9949 15.9882 93.1119 16.1998 92.3109 16.6018C91.0519 17.2388 89.9801 18.1919 89.2005 19.3679C88.3367 20.5465 87.5686 21.7924 86.9035 23.0937C86.212 24.4025 85.7085 25.8024 85.4077 27.2519C85.3059 27.7827 85.2447 28.3204 85.225 28.8604C85.2202 29.2979 85.2601 29.7348 85.3437 30.1643C85.453 31.0183 85.8609 31.806 86.4954 32.3882C87.0739 32.8475 87.7735 33.129 88.509 33.1984C89.4086 33.3303 90.3269 33.1702 91.1289 32.7415C91.999 32.2838 92.7816 31.6764 93.4411 30.9472C93.7182 30.6487 94.0107 30.3623 94.3276 30.0333C94.3641 30.2252 94.3915 30.347 94.4097 30.4689C94.5237 31.38 94.9114 32.2352 95.5217 32.9213C96.5514 34.0058 97.8705 34.1855 99.2596 33.9814C100.024 33.8678 100.755 33.5938 101.406 33.1774C101.746 32.9612 102.743 31.7923 103.132 32.0957C103.61 32.4679 103.658 33.1562 104.193 33.5162C104.47 33.6739 104.779 33.7679 105.097 33.7914C105.415 33.8149 105.735 33.7673 106.032 33.652C106.882 33.3492 107.678 32.9122 108.39 32.3574C108.545 32.256 108.667 32.1122 108.742 31.943C108.817 31.7739 108.842 31.5867 108.813 31.4038C108.723 29.9173 108.833 28.4253 109.142 26.9683C109.511 25.2959 109.962 23.6417 110.434 21.9967C110.909 20.3212 111.692 18.7339 111.93 16.9884C111.991 16.5684 111.96 16.14 111.838 15.7333ZM96.4691 20.9977C95.9855 23.0397 95.0402 24.9437 93.7061 26.5634C93.2424 27.1805 92.6829 27.7195 92.0489 28.1598C91.6741 28.4095 91.3086 28.5009 91.1015 28.0379C91.0447 27.9104 91.0087 27.7747 90.9949 27.6358C90.9126 26.8407 91.3055 26.012 91.5766 25.287C91.8752 24.4705 92.2092 23.6714 92.5789 22.8895C93.112 21.7593 93.7365 20.6748 94.7114 19.8614C95.0304 19.6209 95.385 19.4317 95.7624 19.3009C96.0214 19.1973 96.326 19.4288 96.4447 19.7152C96.5866 20.1297 96.5951 20.5782 96.4691 20.9977Z" fill="#FF5A50"/>
<path d="M39.3198 25.23C38.7775 26.9146 37.6961 28.0082 35.9231 28.3647C34.8916 28.5994 33.8144 28.5295 32.8219 28.1636C32.3776 27.9937 31.994 27.6957 31.7195 27.3074C31.445 26.919 31.2923 26.4579 31.2804 25.9825C31.2073 24.7121 31.716 23.6154 32.307 22.5431C32.5538 22.0984 32.8096 21.6566 33.0138 21.1905C33.1015 20.9574 33.1349 20.7074 33.1113 20.4594C33.0991 20.3769 33.0683 20.2982 33.0211 20.2294C32.974 20.1606 32.9118 20.1035 32.8391 20.0624C32.7666 20.0212 32.6856 19.9972 32.6024 19.9921C32.5191 19.987 32.4359 20.0009 32.3588 20.0329C31.9195 20.2369 31.5096 20.4992 31.1403 20.8127C29.6566 22.1745 28.4655 23.783 27.317 25.431C26.089 27.1747 24.9718 28.994 23.9721 30.878C23.6461 31.4995 23.4025 32.1696 23.0339 32.7606C22.7771 33.1982 22.4063 33.5579 21.9609 33.801C21.5154 34.0441 21.0124 34.1615 20.5054 34.1406C19.9214 34.1665 19.34 34.0494 18.8116 33.7995C18.4034 33.579 18.0909 33.2156 17.9343 32.7789C17.328 33.1171 16.7279 33.4917 16.0943 33.7904C15.1059 34.2932 14.0383 34.622 12.9381 34.7621C12.1899 34.8599 11.4351 34.8986 10.6808 34.8779C9.2824 34.8274 7.93706 34.3299 6.84235 33.4582C5.76476 32.5739 5.03166 31.3395 4.77081 29.9701C4.5627 28.9585 4.53383 27.918 4.68551 26.8964C4.92229 25.2962 5.4444 23.7516 6.22698 22.3359C6.84849 21.1496 7.58955 20.0297 8.43865 18.994C9.31924 17.9214 10.3614 16.9924 11.5277 16.2401C12.3891 15.68 13.3514 15.293 14.3608 15.1007C15.6678 14.8571 16.7949 15.308 17.8429 16.033C18.572 16.5274 19.1879 17.1712 19.6494 17.9217C20.0725 18.6871 20.1849 19.586 19.9631 20.432C19.7368 21.3556 19.4045 22.2501 18.973 23.0975C18.577 23.9749 18.184 24.8522 17.7789 25.7265C17.7119 25.9166 17.5724 26.0724 17.3908 26.1597C17.2091 26.2471 17.0004 26.2589 16.8101 26.1926C16.2454 26.0139 15.7374 25.6902 15.3365 25.2541C14.9356 24.818 14.656 24.2845 14.5253 23.7067C14.4304 22.879 14.5653 22.0411 14.9153 21.2849C15.2778 20.3497 15.6951 19.4357 16.0973 18.5189C16.1344 18.4574 16.1586 18.3889 16.1685 18.3177C16.1783 18.2465 16.1735 18.1741 16.1544 18.1047C16.1353 18.0355 16.1023 17.9709 16.0574 17.9147C16.0125 17.8586 15.9566 17.8124 15.8931 17.7785C15.4316 17.8859 15.0133 18.1301 14.6929 18.4792C14.1263 19.0397 13.5901 19.6307 13.0783 20.2431C12.0478 21.5302 11.1688 22.9316 10.4584 24.4196C10.0136 25.2752 9.73653 26.2079 9.64196 27.1675C9.54781 27.9047 9.57147 28.6524 9.71204 29.3822C9.78923 29.8461 10.0236 30.2695 10.3758 30.5811C10.728 30.8929 11.1766 31.074 11.6465 31.0942C13.4486 31.1947 15.2375 30.7316 16.7644 29.7691C17.3466 29.3702 17.906 28.939 18.4399 28.4774C18.5376 28.3851 18.611 28.27 18.6531 28.1424C19.1924 26.7014 19.698 25.2482 20.2708 23.8226C20.6911 22.7655 21.1908 21.7389 21.6599 20.7031C22.1015 19.6856 22.6424 18.7142 23.2745 17.8029C23.9874 16.8006 24.886 16.0421 26.1381 15.8806C27.1465 15.7496 28.0756 16.0879 28.5569 17.2271C28.9804 18.2294 28.7366 19.1921 28.4108 20.1547C28.3254 20.4015 28.2431 20.6482 28.1365 20.9651C28.7245 20.3254 29.2241 19.716 29.7876 19.1799C30.6951 18.2596 31.7494 17.4967 32.9071 16.9225C33.7365 16.507 34.6544 16.299 35.5819 16.3162C36.7304 16.3681 37.8026 16.6575 38.6069 17.5684C38.957 17.9797 39.1878 18.4791 39.2741 19.0124C39.463 20.0024 39.134 20.892 38.7684 21.7815C38.4973 22.4395 38.22 23.0975 38.0159 23.7769C37.8514 24.3282 38.1439 24.7182 38.7288 24.8675C38.8585 24.9011 38.9911 24.9225 39.1249 24.9315C39.3411 24.9406 39.3716 25.0625 39.3198 25.23Z" fill="white"/>
<path d="M87.1311 17.2266C86.6505 16.1504 84.2797 16.0364 83.3012 16.37C82.9145 16.5149 82.5454 16.703 82.2009 16.9308C80.5647 17.9429 79.9829 19.2424 79.2155 20.9399C78.4539 22.6154 77.7531 24.3214 76.9367 25.9694C76.3946 27.0294 75.7776 28.0495 75.0906 29.0219C74.7002 29.6544 74.0745 30.1059 73.3511 30.277C72.9216 30.3623 72.745 30.1704 72.5926 29.7956C72.4524 29.4516 72.3671 29.0878 72.3397 28.7173C72.2786 27.6533 72.416 26.5871 72.745 25.5734C73.2294 23.9496 73.7502 22.3381 74.2407 20.7175C74.4994 20.0135 74.6254 19.2678 74.6124 18.518C74.6156 18.2563 74.5581 17.9974 74.4445 17.7618C74.3309 17.526 74.1641 17.3198 73.9574 17.1593C73.5267 16.8445 73.0174 16.6549 72.4857 16.6113C71.954 16.5678 71.4206 16.672 70.9445 16.9125C69.9331 17.3939 69.2721 18.253 68.7877 19.2278C68.1022 20.5986 67.4839 22.003 66.8136 23.38C66.3536 24.3335 65.8571 25.2718 65.3757 26.2131C64.7659 27.5075 64.0324 28.7399 63.1854 29.8931C63.0514 30.0638 62.8137 30.3014 62.6614 30.274C62.4786 30.2465 62.3324 29.9693 62.177 29.7956C62.1505 29.7639 62.1317 29.7264 62.1222 29.686C61.8897 28.8468 61.8492 27.9659 62.0034 27.1088C62.1587 26.14 62.3537 25.1744 62.5761 24.2178C63.0147 22.3076 63.5144 20.4098 63.9256 18.4905C64.0321 18.1134 64.0241 17.713 63.9026 17.3404C63.7811 16.9678 63.5516 16.6396 63.2432 16.3978C62.936 16.178 62.5865 16.0245 62.2167 15.9469C61.847 15.8693 61.4652 15.8693 61.0956 15.9469C60.0811 16.1053 59.3347 16.7206 58.7407 17.5431C58.0132 18.5548 57.4972 19.7029 57.2236 20.9185C56.9891 21.9239 56.8337 22.9474 56.6661 23.971C56.59 24.4431 56.587 24.9245 56.5291 25.4028C56.5125 25.5353 56.4562 25.6595 56.3676 25.7593C55.9625 26.1826 55.5511 26.597 55.1277 27.0021C54.3259 27.7753 53.407 28.4168 52.4049 28.9031C51.7521 29.2528 51.0316 29.4578 50.2925 29.504C49.5534 29.5503 48.813 29.4368 48.1216 29.1711C47.6745 29.0024 47.2772 28.723 46.9672 28.3591C46.6572 27.9953 46.4444 27.5589 46.3486 27.0905C46.9427 27.0905 47.5155 27.0966 48.0881 27.0905C49.4435 27.0756 50.7744 26.7271 51.9631 26.076C53.0835 25.5056 53.9942 24.5948 54.5647 23.4744C55.2101 22.2244 55.3655 20.7784 55.0004 19.4198C54.8376 18.777 54.5267 18.1813 54.0924 17.6803C53.6581 17.1794 53.1125 16.787 52.4994 16.5348C51.8136 16.2103 51.07 16.0259 50.312 15.9925C49.6144 15.9325 48.9125 15.9396 48.2161 16.0139C46.7496 16.2868 45.3915 16.9726 44.3015 17.991C43.1431 19.0335 42.1859 20.2798 41.4775 21.6679C40.6605 23.2083 40.1552 24.8946 39.9909 26.6305C39.8937 27.623 39.9752 28.6248 40.2315 29.5885C40.547 30.9074 41.3405 32.0623 42.4585 32.8299C43.6206 33.5844 44.9669 34.0068 46.3517 34.0515C47.317 34.0804 48.2831 34.0406 49.2427 33.9326C50.1999 33.8236 51.1312 33.5515 51.9966 33.1284C53.4222 32.4768 54.7074 31.5538 55.7802 30.411C56.1154 30.0608 56.4352 29.6921 56.7216 29.3723C56.9957 30.0394 57.2425 30.7309 57.5562 31.3889C57.935 32.2443 58.6147 32.9305 59.4664 33.3173C60.291 33.677 61.1597 33.9259 62.0497 34.0575C62.2794 34.1174 62.5202 34.1194 62.7509 34.0636C62.9816 34.0078 63.1949 33.8959 63.3719 33.7376C63.9597 33.1589 64.5721 32.6014 65.1449 32.0074C65.4654 31.6526 65.7674 31.2814 66.0496 30.8954C66.467 30.3623 66.8782 29.82 67.3139 29.2534C67.3626 29.5306 67.3961 29.7653 67.4479 29.9968C67.719 31.1756 68.2216 32.1993 69.2726 32.8908C69.9862 33.3291 70.7645 33.6519 71.5787 33.8474C72.9405 34.2496 74.4036 34.1269 75.6792 33.5031C77.0851 32.7995 78.318 31.7935 79.2891 30.5573C80.0686 29.6393 80.7957 28.6781 81.4674 27.6784C82.4879 26.1126 83.4505 24.5011 84.3827 22.8774C84.857 22.0511 85.3182 21.2176 85.7765 20.3826C86.1509 19.7009 87.1521 18.4988 87.2131 17.7324C87.2291 17.5595 87.2009 17.3855 87.1311 17.2266ZM46.7569 23.1941C47.0707 22.3363 47.5442 21.5455 48.1521 20.8636C48.5181 20.4055 49.0244 20.0803 49.5931 19.9376C49.7817 19.9066 49.9752 19.9239 50.1555 19.9878C50.3356 20.0516 50.4969 20.1601 50.6239 20.303C50.751 20.4459 50.8399 20.6185 50.8822 20.805C50.9246 20.9915 50.9192 21.1856 50.8665 21.3694C50.4309 23.2216 49.2031 24.2695 47.418 24.7265C47.0281 24.792 46.6341 24.8296 46.239 24.8393C46.4279 24.2299 46.5741 23.706 46.7569 23.1941Z" fill="white"/>
</g>
<defs>
<clipPath id="clip0_2048_3294">
<rect width="120" height="40" fill="white"/>
</clipPath>
</defs>
</svg>
