<svg width="62" height="36" viewBox="0 0 62 36" fill="none" xmlns="http://www.w3.org/2000/svg">
<g clip-path="url(#clip0_3432_3126)">
<g clip-path="url(#clip1_3432_3126)">
<path d="M17.8667 13.0745C17.8667 13.8153 17.9468 14.416 18.0869 14.8565C18.2471 15.297 18.4473 15.7775 18.7276 16.2981C18.8277 16.4583 18.8678 16.6185 18.8678 16.7586C18.8678 16.9588 18.7477 17.1591 18.4874 17.3593L17.226 18.2002C17.0458 18.3203 16.8656 18.3804 16.7054 18.3804C16.5052 18.3804 16.3049 18.2803 16.1047 18.1001C15.8244 17.7998 15.5841 17.4794 15.3839 17.1591C15.1837 16.8187 14.9835 16.4383 14.7632 15.9777C13.2015 17.8198 11.2393 18.7408 8.87671 18.7408C7.19484 18.7408 5.85336 18.2603 4.87227 17.2992C3.89118 16.3381 3.39062 15.0567 3.39062 13.4549C3.39062 11.7531 3.99129 10.3715 5.21265 9.33037C6.434 8.28921 8.0558 7.76863 10.1181 7.76863C10.7988 7.76863 11.4996 7.8287 12.2404 7.92881C12.9813 8.02892 13.7421 8.1891 14.543 8.3693V6.90768C14.543 5.38599 14.2226 4.32481 13.602 3.70412C12.9612 3.08344 11.88 2.7831 10.3383 2.7831C9.63755 2.7831 8.91675 2.86319 8.17593 3.04339C7.43511 3.22359 6.71431 3.44384 6.01353 3.72415C5.69318 3.8643 5.45291 3.94439 5.31276 3.98444C5.1726 4.02448 5.07249 4.0445 4.9924 4.0445C4.71209 4.0445 4.57194 3.84428 4.57194 3.42381V2.44273C4.57194 2.12237 4.61198 1.8821 4.71209 1.74195C4.8122 1.60179 4.9924 1.46164 5.27271 1.32148C5.97349 0.961081 6.81442 0.660748 7.79551 0.420482C8.7766 0.160193 9.81775 0.0400597 10.919 0.0400597C13.3016 0.0400597 15.0436 0.580659 16.1648 1.66186C17.266 2.74306 17.8266 4.38488 17.8266 6.58732V13.0745H17.8667ZM9.73766 16.1179C10.3984 16.1179 11.0792 15.9978 11.8 15.7575C12.5208 15.5172 13.1615 15.0767 13.7021 14.4761C14.0224 14.0957 14.2627 13.6752 14.3828 13.1947C14.503 12.7141 14.583 12.1335 14.583 11.4527V10.6118C14.0024 10.4716 13.3817 10.3515 12.741 10.2714C12.1003 10.1913 11.4796 10.1513 10.8589 10.1513C9.51742 10.1513 8.53633 10.4116 7.8756 10.9522C7.21487 11.4928 6.89451 12.2536 6.89451 13.2547C6.89451 14.1958 7.13478 14.8965 7.63533 15.3771C8.11587 15.8776 8.81664 16.1179 9.73766 16.1179ZM25.8155 18.2803C25.4551 18.2803 25.2148 18.2202 25.0547 18.0801C24.8945 17.9599 24.7543 17.6796 24.6342 17.2992L19.929 1.82204C19.8088 1.42159 19.7488 1.1613 19.7488 1.02115C19.7488 0.700793 19.9089 0.520593 20.2293 0.520593H22.1915C22.5719 0.520593 22.8322 0.580659 22.9723 0.720815C23.1325 0.840948 23.2527 1.12126 23.3728 1.50168L26.7365 14.7564L29.86 1.50168C29.9601 1.10124 30.0802 0.840948 30.2404 0.720815C30.4006 0.600682 30.6809 0.520593 31.0413 0.520593H32.6431C33.0235 0.520593 33.2838 0.580659 33.444 0.720815C33.6041 0.840948 33.7443 1.12126 33.8244 1.50168L36.9879 14.9166L40.4517 1.50168C40.5719 1.10124 40.712 0.840948 40.8522 0.720815C41.0124 0.600682 41.2726 0.520593 41.633 0.520593H43.4951C43.8155 0.520593 43.9957 0.68077 43.9957 1.02115C43.9957 1.12126 43.9756 1.22137 43.9556 1.3415C43.9356 1.46164 43.8955 1.62181 43.8155 1.84206L38.9901 17.3192C38.87 17.7197 38.7298 17.98 38.5696 18.1001C38.4095 18.2202 38.1492 18.3003 37.8088 18.3003H36.0869C35.7065 18.3003 35.4462 18.2403 35.286 18.1001C35.1258 17.9599 34.9857 17.6997 34.9056 17.2992L31.8021 4.38488L28.7187 17.2792C28.6186 17.6796 28.4985 17.9399 28.3383 18.0801C28.1781 18.2202 27.8978 18.2803 27.5374 18.2803H25.8155ZM51.544 18.8209C50.5029 18.8209 49.4617 18.7008 48.4606 18.4605C47.4595 18.2202 46.6786 17.9599 46.1581 17.6596C45.8377 17.4794 45.6175 17.2792 45.5374 17.099C45.4573 16.9188 45.4172 16.7186 45.4172 16.5384V15.5172C45.4172 15.0968 45.5774 14.8965 45.8778 14.8965C45.9979 14.8965 46.118 14.9166 46.2381 14.9566C46.3583 14.9967 46.5385 15.0767 46.7387 15.1568C47.4195 15.4572 48.1603 15.6974 48.9411 15.8576C49.742 16.0178 50.5229 16.0979 51.3238 16.0979C52.5852 16.0979 53.5663 15.8776 54.247 15.4371C54.9278 14.9967 55.2882 14.3559 55.2882 13.535C55.2882 12.9744 55.108 12.5139 54.7476 12.1335C54.3872 11.7531 53.7064 11.4127 52.7253 11.0923L49.8221 10.1913C48.3605 9.73081 47.2793 9.05006 46.6186 8.14906C45.9578 7.26808 45.6175 6.28699 45.6175 5.24583C45.6175 4.4049 45.7977 3.66408 46.1581 3.02337C46.5185 2.38266 46.999 1.82204 47.5997 1.38155C48.2003 0.921037 48.8811 0.580659 49.682 0.340393C50.4829 0.100126 51.3238 1.52588e-05 52.2048 1.52588e-05C52.6453 1.52588e-05 53.1058 0.0200375 53.5463 0.0801041C54.0068 0.140171 54.4272 0.22026 54.8477 0.300348C55.2481 0.400459 55.6286 0.500571 55.989 0.620704C56.3494 0.740837 56.6297 0.86097 56.8299 0.981104C57.1102 1.14128 57.3104 1.30146 57.4306 1.48166C57.5507 1.64184 57.6108 1.86208 57.6108 2.14239V3.08344C57.6108 3.5039 57.4506 3.72415 57.1503 3.72415C56.9901 3.72415 56.7298 3.64406 56.3894 3.48388C55.2481 2.9633 53.9667 2.70301 52.5451 2.70301C51.4039 2.70301 50.5029 2.88321 49.8822 3.26364C49.2615 3.64406 48.9411 4.2247 48.9411 5.04561C48.9411 5.60623 49.1414 6.08677 49.5418 6.46719C49.9423 6.84761 50.6831 7.22803 51.7443 7.56841L54.5874 8.46941C56.029 8.92992 57.0702 9.57063 57.6908 10.3915C58.3115 11.2125 58.6119 12.1535 58.6119 13.1947C58.6119 14.0556 58.4317 14.8365 58.0913 15.5172C57.7309 16.198 57.2504 16.7987 56.6297 17.2792C56.009 17.7797 55.2682 18.1401 54.4072 18.4004C53.5062 18.6807 52.5652 18.8209 51.544 18.8209Z" fill="#252F3E"/>
<path fill-rule="evenodd" clip-rule="evenodd" d="M55.3252 28.5517C48.7379 33.4171 39.1673 36 30.9382 36C19.4054 36 9.01385 31.7353 1.16514 24.6474C0.544448 24.0868 1.10507 23.3259 1.84589 23.7664C10.3353 28.6919 20.8069 31.6752 31.639 31.6752C38.9471 31.6752 46.976 30.1535 54.3642 27.03C55.4654 26.5295 56.4064 27.7508 55.3252 28.5517Z" fill="#FF9900"/>
<path fill-rule="evenodd" clip-rule="evenodd" d="M58.0721 25.4282C57.2312 24.347 52.506 24.9077 50.3636 25.168C49.7229 25.248 49.6228 24.6874 50.2034 24.267C53.9676 21.624 60.1544 22.3849 60.8752 23.2658C61.596 24.1668 60.675 30.3537 57.1511 33.317C56.6105 33.7775 56.0899 33.5373 56.3302 32.9366C57.1311 30.9544 58.913 26.4894 58.0721 25.4282Z" fill="#FF9900"/>
</g>
</g>
<defs>
<clipPath id="clip0_3432_3126">
<rect width="62" height="36" fill="white"/>
</clipPath>
<clipPath id="clip1_3432_3126">
<rect width="62" height="36" fill="white"/>
</clipPath>
</defs>
</svg>
