<svg width="207" height="32" viewBox="0 0 207 32" fill="none" xmlns="http://www.w3.org/2000/svg">
<path d="M71.2903 15.1813C71.2903 20.2754 67.0487 24.4086 61.8213 24.4086C56.5939 24.4086 52.3522 20.2754 52.3522 15.1813C52.3522 10.0871 56.5939 5.95386 61.8213 5.95386C67.0487 5.95386 71.2903 10.0871 71.2903 15.1813ZM68.0066 15.1813C68.0066 11.8521 65.2237 9.15416 61.8213 9.15416C58.4189 9.15416 55.636 11.8667 55.636 15.1813C55.636 18.4958 58.4189 21.2084 61.8213 21.2084C65.2237 21.2084 68.0066 18.5104 68.0066 15.1813ZM148.075 15.1813C148.075 20.2754 143.835 24.4086 138.606 24.4086C133.377 24.4086 129.137 20.2754 129.137 15.1813C129.137 10.0871 133.379 5.95386 138.606 5.95386C143.834 5.95386 148.075 10.0871 148.075 15.1813ZM144.792 15.1813C144.792 11.8521 142.009 9.15416 138.606 9.15416C135.204 9.15416 132.421 11.8667 132.421 15.1813C132.421 18.4958 135.204 21.2084 138.606 21.2084C142.009 21.2084 144.792 18.5104 144.792 15.1813ZM108.004 16.4584C108.062 16.0425 108.106 15.6265 108.106 15.1813C108.106 14.5207 108.033 13.8748 107.9 13.2581C106.987 9.08239 103.188 5.95386 98.6371 5.95386C93.4097 5.95386 89.168 10.0871 89.168 15.1813C89.168 20.2754 93.4097 24.4086 98.6371 24.4086C102.171 24.4086 105.265 22.5148 106.885 19.7012L104.058 18.0798C102.997 19.9458 100.966 21.2084 98.6386 21.2084C95.6785 21.2084 93.19 19.171 92.5851 16.4438H108.004V16.4584ZM92.777 13.2581C93.6016 10.8766 95.9143 9.15416 98.6386 9.15416C101.363 9.15416 103.676 10.8766 104.5 13.2581H92.7784H92.777ZM188.147 16.4584C188.206 16.0425 188.251 15.6265 188.251 15.1813C188.251 14.5207 188.176 13.8748 188.045 13.2581C187.131 9.08239 183.331 5.95386 178.781 5.95386C173.553 5.95386 169.312 10.0871 169.312 15.1813C169.312 20.2754 173.553 24.4086 178.781 24.4086C182.315 24.4086 185.408 22.5148 187.028 19.7012L184.2 18.0652C183.141 19.9312 181.108 21.1937 178.781 21.1937C175.821 21.1937 173.332 19.1564 172.729 16.4291H188.147V16.4584ZM172.906 13.2581C173.73 10.8766 176.042 9.15416 178.766 9.15416C181.49 9.15416 183.803 10.8766 184.628 13.2581H172.906ZM203.684 6.12669V16.5888C203.684 19.1856 201.52 21.2245 198.854 21.2245C196.188 21.2245 194.023 19.1871 194.023 16.5888V6.12669H190.74V16.6166C190.754 20.9638 194.376 24.4233 198.839 24.4233C200.651 24.4233 202.315 23.8345 203.67 22.859V24.0352C203.67 26.632 201.505 28.7997 198.839 28.7997C196.983 28.7997 195.364 27.7671 194.554 26.26L191.725 27.896C193.111 30.3347 195.775 32 198.839 32C203.242 32 206.82 28.4995 206.939 24.2373H206.953V6.12669H203.684ZM150.58 6.06957V24.2212H153.864V13.8469C153.864 11.2501 156.029 9.14098 158.694 9.14098C161.36 9.14098 163.525 11.2501 163.525 13.8469V24.2212H166.808V13.8338C166.794 9.48517 163.17 5.95533 158.709 5.95533C156.897 5.95533 155.233 6.54412 153.878 7.51959V6.06957H150.58ZM110.611 0V24.2226H113.895V13.8469C113.895 11.2501 116.059 9.14098 118.725 9.14098C121.391 9.14098 123.555 11.2501 123.555 13.8469V24.2212H126.839V13.8338C126.825 9.48517 123.202 5.95533 118.74 5.95533C116.928 5.95533 115.264 6.54412 113.909 7.51959V0H110.611ZM85.6338 6.08422L80.2292 19.4581L74.8246 6.08422H71.2903L78.6239 24.2226H81.8345L89.168 6.08422H85.6338ZM40.9967 21.0223V0.0146467H37.7129V24.2226H51.0853V21.0223H40.9981H40.9967Z" fill="#571DAE"/>
<path d="M15.2267 24.4379C12.0029 23.1168 0 17.0194 0 8.02197C0 3.61626 3.69681 0.0146467 8.21677 0.0146467C11.1622 0.0146467 13.7693 1.53643 15.212 3.81692C15.9927 5.03698 16.435 6.48554 16.435 8.02197C16.435 10.5471 14.3288 12.599 11.7378 12.599C10.2805 12.599 8.96961 11.9531 8.11571 10.9352C7.64409 10.3186 6.74625 10.1897 6.11351 10.6628C5.48078 11.1227 5.34749 11.9971 5.83376 12.6137C6.01099 12.829 6.20139 13.0297 6.40791 13.2303C7.83596 14.6218 9.73563 15.3834 11.7539 15.3834C13.7722 15.3834 15.6705 14.6232 17.1 13.2303C18.528 11.8389 19.3087 9.98755 19.3087 8.02197C19.3087 5.65361 18.528 3.45807 17.1878 1.67997C18.5705 0.631271 20.3222 0 22.2072 0C26.7433 0 30.4255 3.58696 30.4255 8.00732C30.4548 17.0194 18.4533 23.1183 15.2281 24.4379H15.2267Z" fill="#FF274D"/>
</svg>
