<svg width="178" height="33" viewBox="0 0 178 33" fill="none" xmlns="http://www.w3.org/2000/svg">
<g clip-path="url(#clip0_3432_3134)">
<g clip-path="url(#clip1_3432_3134)">
<g clip-path="url(#clip2_3432_3134)">
<mask id="mask0_3432_3134" style="mask-type:luminance" maskUnits="userSpaceOnUse" x="0" y="0" width="178" height="33">
<path d="M178 0.169998H0V32.17H178V0.169998Z" fill="white"/>
</mask>
<g mask="url(#mask0_3432_3134)">
<path d="M26.8744 12.9746C26.1319 12.9746 25.4733 12.6169 25.06 12.0641L25.0571 12.0601C23.4077 9.83836 18.7996 3.63058 16.8781 1.04213C16.7506 0.870264 16.5498 0.769379 16.3362 0.769379H8.85811C8.57862 0.769379 8.41845 1.08838 8.58525 1.31315C10.2868 3.60492 16.4104 11.8549 16.7029 12.2486C16.7595 12.3246 16.7929 12.4183 16.7929 12.5204C16.7929 12.7713 16.5896 12.9746 16.34 12.9746C14.8726 12.9747 10.9197 12.9746 9.08908 12.9746C8.87429 12.9746 8.67236 13.0764 8.54401 13.249L0.0912308 24.6359C-0.0755655 24.8605 0.0844695 25.1798 0.363833 25.1798H7.84103C8.05529 25.1798 8.25669 25.0785 8.38464 24.9061C10.3242 22.2936 14.8916 16.1411 16.563 13.8892C16.5642 13.8875 16.5659 13.8852 16.5659 13.8852C16.9793 13.3323 17.6379 12.9736 18.3802 12.9746C19.9937 12.9766 23.2206 12.9868 24.834 12.9746C25.2015 12.9718 25.4184 13.4093 25.197 13.7007C24.9269 14.056 18.7784 22.3472 17.0795 24.636C16.9127 24.8606 17.0729 25.1798 17.3523 25.1798H24.8292C25.0436 25.1798 25.245 25.0785 25.3729 24.9061C27.3121 22.2941 31.8803 16.1401 33.5513 13.8892L33.554 13.8852C33.9607 13.3272 34.626 12.9746 35.3684 12.9746C36.912 12.9746 39.8619 12.9746 41.8227 12.9746C42.1951 12.9746 42.4083 12.549 42.186 12.2494L33.8678 1.04399C33.7395 0.871193 33.5373 0.769379 33.3226 0.769379H25.8462C25.5668 0.769379 25.4066 1.08851 25.5734 1.31315C27.2724 3.60173 33.414 11.8743 33.6782 12.2316L33.6974 12.2564C33.9115 12.5468 33.6933 12.9774 33.3286 12.9746C31.7152 12.9623 28.488 12.9746 26.8744 12.9746Z" fill="#09535E"/>
<path d="M71.2574 0.769379V25.1798H66.5533V15.055H55.4852V25.1798H50.7812V0.769379H55.4852V10.8941H66.5533V0.769379H71.2574Z" fill="#09535E"/>
<path d="M74.2422 6.8719H78.6694V25.1798H74.2422V6.8719ZM74.2422 0.214569H78.6694V4.65283H74.2422V0.214569Z" fill="#09535E"/>
<path d="M106.794 11.1337C107.624 9.29606 109.768 6.5945 112.95 6.5945C116.894 6.5945 119.522 9.16035 119.522 14.3616V25.1798H115.095V15.8868C115.095 11.7609 114.023 10.6165 111.705 10.6165C109.145 10.6165 106.794 13.4947 106.794 17.7251V25.1798H102.367V0.21431H106.794V11.1337Z" fill="#09535E"/>
<path d="M126.521 10.5757C127.628 8.04437 128.701 6.5945 133.163 6.5945V11.1019C128.009 10.755 126.521 12.5932 126.521 17.2391V25.1798H122.094V6.87203H126.521V10.5757Z" fill="#09535E"/>
<path d="M135.43 6.8719H139.857V25.1798H135.43V6.8719ZM135.43 0.214569H139.857V4.65283H135.43V0.214569Z" fill="#09535E"/>
<path d="M146.484 19.0078C146.518 20.3601 147.314 21.9897 150.53 21.9897C153.366 21.9897 154.3 21.0188 154.3 19.8053C154.3 18.453 152.502 18.245 149.008 17.8288C143.405 17.1354 142.678 14.2228 142.678 12.177C142.678 9.19512 145.308 6.59445 150.496 6.59445C155.303 6.59445 157.931 9.16043 158.174 12.4891H153.816C153.712 11.3448 152.951 10.0619 150.391 10.0619C147.867 10.0619 147.105 10.8941 147.105 11.9343C147.105 12.8012 147.486 13.5293 151.049 13.8761C155.51 14.3268 158.727 15.7831 158.727 19.4585C158.727 23.2727 155.787 25.4571 150.391 25.4571C145.099 25.4571 142.298 22.926 142.125 19.0078H146.484Z" fill="#09535E"/>
<path d="M173.515 14.0841C173.343 11.8649 172.029 10.2007 169.469 10.2007C166.46 10.2007 165.179 11.8996 164.73 14.0841H173.515ZM177.839 17.1354H164.558C164.869 19.9092 166.667 21.5736 169.434 21.5736C171.544 21.5736 172.616 20.4295 173.135 18.7998H177.632C176.837 22.5792 174.276 25.4571 169.4 25.4571C163.485 25.4571 160.234 21.4697 160.234 16.0258C160.234 10.3046 163.762 6.59445 169.331 6.59445C173.55 6.59445 177.942 9.12574 177.942 15.7831C177.942 16.2686 177.908 16.6153 177.839 17.1354Z" fill="#09535E"/>
<path d="M90.1337 20.6023C87.0208 20.6023 85.5677 18.314 85.5677 15.6095C85.5677 12.9045 87.0208 10.6162 90.1337 10.6162C93.0392 10.6162 94.9758 12.9045 94.9758 15.6095C94.9758 18.314 93.0392 20.6023 90.1337 20.6023ZM94.9758 23.4168C94.9741 26.7758 93.418 28.5079 90.3063 28.5079C87.3668 28.5079 86.2597 27.26 86.0525 25.5956H81.6939C82.0053 29.0284 84.634 32.1143 90.376 32.1143C95.9209 32.1143 99.3321 29.1596 99.4019 23.4168C99.4024 23.3573 99.4029 23.2976 99.4029 23.2375V6.87174H94.9758V10.1042C93.8953 8.14071 91.9321 6.59421 89.0962 6.59421C84.3576 6.59421 81.1406 10.6854 81.1406 15.6095C81.1406 20.5331 84.3576 24.6244 89.0962 24.6244C91.863 24.6244 93.8723 23.107 94.9758 21.0553V23.4168Z" fill="#09535E"/>
</g>
</g>
</g>
</g>
<defs>
<clipPath id="clip0_3432_3134">
<rect width="178" height="32" fill="white" transform="translate(0 0.169998)"/>
</clipPath>
<clipPath id="clip1_3432_3134">
<rect width="178" height="32" fill="white" transform="translate(0 0.169998)"/>
</clipPath>
<clipPath id="clip2_3432_3134">
<rect width="178" height="32" fill="white" transform="translate(0 0.169998)"/>
</clipPath>
</defs>
</svg>
