<svg width="1408" height="614" viewBox="0 0 1408 614" fill="none" xmlns="http://www.w3.org/2000/svg">
<mask id="mask0_4096_9365" style="mask-type:alpha" maskUnits="userSpaceOnUse" x="0" y="0" width="1408" height="614">
<path d="M0 0H1408V614H0V0Z" fill="#020303"/>
</mask>
<g mask="url(#mask0_4096_9365)">
<g filter="url(#filter0_f_4096_9365)">
<path d="M193.917 -116.827C196.334 -111.713 198.52 3.78724 212.86 27.5116C227.201 51.2359 241.682 68.6373 264.165 88.9045C286.648 109.172 297.777 113.688 315.785 136.071C333.793 158.453 327.448 145.028 341.213 173.326C354.978 201.624 349.265 195.329 369.178 231.671C389.091 268.013 386.877 260.847 398.254 289.883C409.63 318.919 396.625 306.294 415.406 329.485C475.807 372.892 394.258 428.138 470 443C480.794 445.118 505.29 460.448 518 465C530.71 469.552 539.033 519.448 551.742 524C564.452 528.552 573.652 587.643 590 585C606.348 582.357 606.487 661.965 631 669.15C695.96 692.415 778.911 632.079 819.466 679C824.516 684.843 828.518 688.864 831.657 691.453C833.476 683.03 835.039 675.132 834.417 669.15C833.162 657.077 853.729 709.656 831.657 691.453C829.282 702.448 826.469 714.34 827.508 724.034C828.975 737.731 822.758 757.563 819.466 765.767L780.665 789.579L766.973 793.704L761.241 809.708C749.44 842.659 705.166 856.544 707.577 869.092C709.987 881.639 704.963 858.596 712.63 897.988C720.298 937.379 719.356 937.042 724.762 985.715C730.168 1034.39 765.577 1042.29 720.874 1046.99C685.111 1050.75 721.111 1121.96 743.581 1157.09C735.459 1200.04 715.223 1284.92 699.243 1280.89C679.269 1275.87 481.89 1218.99 400.334 1173.84C318.779 1128.7 157.897 1066.31 82.5876 1031.9C7.27848 997.494 -74.6908 963.889 -87.4003 959.338L-223.91 910.449C-264.135 846.296 -332.861 687.032 -285.961 563.194C-227.336 408.396 -176.324 190.327 -135.586 143.309C-94.8475 96.2915 -38.6342 7.54652 -14.9737 -11.0649C8.68686 -29.6763 85.9004 -95.4967 100.302 -103.085C111.824 -109.156 167.513 -114.776 193.917 -116.827Z" fill="#0371EE" fill-opacity="0.37"/>
</g>
<g filter="url(#filter1_f_4096_9365)">
<path d="M79.6941 -36.6442C76.7708 -47.4634 60.9943 -75.3842 53.4714 -87.9922L19.0804 8.03572L-129.064 377.203L-255.573 812.008C-221.287 834.909 -148.29 882.296 -130.591 888.635C-108.467 896.558 1.39572 956.086 35.9621 966.341C70.5285 976.596 71.8136 968.558 95.3563 969.554C118.899 970.551 155.059 965.975 199.419 969.646C243.778 973.317 254.64 975.614 291.334 975.478C328.029 975.342 344.517 966.377 387.274 956.728C430.031 947.079 398.177 950.011 419.752 932.776C441.326 915.54 425.315 917.242 432.649 914.557C439.984 911.873 442.92 900.709 450.843 878.585C458.767 856.462 457.558 853.904 486.245 779.734C514.933 705.563 544.488 745.922 546.793 695.198C548.337 661.229 584.4 575.361 515.57 555.49C482.689 545.997 494.234 569.093 474.816 581.79C455.398 594.486 446.314 597.606 423.334 606.902C400.354 616.199 411.827 612.34 385.123 611.275C358.418 610.209 368.577 608.536 314.256 611.919C290.573 617.246 300.023 619.036 288.255 614.821C276.487 610.607 274.19 621.468 258.952 623.978C243.714 626.487 247.317 620.873 223.648 611.334C199.978 601.795 186.031 588.834 169.162 572.17C152.293 555.507 150.859 541.715 144.927 516.754C138.996 491.793 139.592 464.92 142.757 421.973C145.923 379.025 151.576 338.031 153.196 293.468C154.816 248.904 155.376 223.612 152.48 190.178C149.583 156.744 145.009 156.168 137.119 141.127C129.228 126.085 124.893 121.877 111.971 91.2257C99.0488 60.5741 83.3483 -23.1203 79.6941 -36.6442Z" fill="#0092AA"/>
</g>
<g opacity="0.62" filter="url(#filter2_f_4096_9365)">
<path d="M53.141 498.271C52.1234 492.808 57.989 467.433 61.049 455.428C63.0158 449.937 65.5918 437.405 60.1621 431.212C53.375 423.47 39.9341 409.096 4.22923 393.123C-31.4757 377.149 -9.62534 390.285 -47.1408 406.06C-84.6562 421.835 -87.2811 461.789 -101.998 483.604C-116.715 505.419 -137.238 589.418 -165.808 643.981C-194.377 698.544 -206.029 753.322 -213.011 775.783C-219.993 798.245 -217.44 840.053 -212.52 867.839C-207.6 895.624 -181.03 895.58 -160.184 904.108C-139.339 912.636 -91.334 901.68 -51.1344 893.239C-10.9347 884.799 28.0651 901.953 55.7677 915.061C83.4703 928.169 142.442 914.767 160.94 915.019C179.438 915.271 197.505 870.756 199.787 839.176C202.068 807.596 195.471 812.668 182.733 802.264C169.995 791.86 169.089 789.943 163.587 774.164C158.085 758.384 162.153 760.372 178.422 732.74C177.866 715.015 183.324 704.223 118.625 690.612C98.1735 692.847 101.004 686.426 75.999 665.786C50.9938 645.147 69.6541 652.361 66.3656 643.748C63.0771 635.135 71.9419 613.348 72.6578 602.451C73.3737 591.554 77.4262 572.824 72.5219 565.757C67.6176 558.689 60.3312 544.927 57.5769 540.754C54.8227 536.581 54.4131 505.099 53.141 498.271Z" fill="white"/>
</g>
</g>
<defs>
<filter id="filter0_f_4096_9365" x="-547.542" y="-362.627" width="1635.27" height="1889.46" filterUnits="userSpaceOnUse" color-interpolation-filters="sRGB">
<feFlood flood-opacity="0" result="BackgroundImageFix"/>
<feBlend mode="normal" in="SourceGraphic" in2="BackgroundImageFix" result="shape"/>
<feGaussianBlur stdDeviation="122.9" result="effect1_foregroundBlur_4096_9365"/>
</filter>
<filter id="filter1_f_4096_9365" x="-486.972" y="-319.392" width="1275.97" height="1526.28" filterUnits="userSpaceOnUse" color-interpolation-filters="sRGB">
<feFlood flood-opacity="0" result="BackgroundImageFix"/>
<feBlend mode="normal" in="SourceGraphic" in2="BackgroundImageFix" result="shape"/>
<feGaussianBlur stdDeviation="115.7" result="effect1_foregroundBlur_4096_9365"/>
</filter>
<filter id="filter2_f_4096_9365" x="-384.699" y="218.463" width="752.331" height="869.758" filterUnits="userSpaceOnUse" color-interpolation-filters="sRGB">
<feFlood flood-opacity="0" result="BackgroundImageFix"/>
<feBlend mode="normal" in="SourceGraphic" in2="BackgroundImageFix" result="shape"/>
<feGaussianBlur stdDeviation="83.7" result="effect1_foregroundBlur_4096_9365"/>
</filter>
</defs>
</svg>
