<svg width="286" height="316" viewBox="0 0 286 316" fill="none" xmlns="http://www.w3.org/2000/svg">
<g filter="url(#filter0_f_9524_15790)">
<path d="M110.574 179.37C115.985 175.023 149.384 166.734 150.621 165.926C147.271 161.04 139.828 150.824 136.859 149.045C133.148 146.821 105.935 136.611 98.0491 133.377C90.1636 130.142 58.4652 125.492 40.5289 120.943C22.5925 116.395 -46.2151 121.55 -97.3955 120.943C-138.34 120.458 -177.542 144.395 -192.025 156.424L-192.025 185.738C-192.025 188.467 -193.262 206.359 -195.427 223.038C-197.592 239.717 -198.983 274.591 -203.622 293.19C-208.261 311.79 -204.241 353.234 -203.622 357.378C-203.127 360.694 -176.305 358.76 -162.956 357.378C-155.07 350.707 -138.093 339.001 -133.268 345.552C-127.238 353.739 -128.63 346.461 -115.023 342.115C-101.416 337.768 -101.416 337.97 -90.7467 333.826C-80.0777 329.681 -86.2626 332.208 -82.8609 330.894C-79.4592 329.58 -70.8003 337.061 -59.9766 337.061L-54.7194 337.061L-52.0908 339.385L-41.1125 345.147C-38.3808 345.215 -31.9588 345.046 -28.1241 343.833C-23.3308 342.317 -15.2904 342.62 -11.4248 341.407C-7.55917 340.194 23.5202 322.707 32.9523 311.79C42.3843 300.873 35.117 309.465 35.117 295.515C34.6531 290.36 33.571 291.168 31.097 288.237C28.6231 285.306 31.097 286.418 31.097 283.688L31.097 278.129L31.0971 270.75C31.0971 268.526 37.4366 252.959 43.7762 238.504C48.5695 233.349 46.2502 236.684 53.5175 232.54C60.7848 228.395 58.9293 229.305 67.4336 223.038C75.9379 216.771 74.7009 218.287 81.5044 213.738C88.3078 209.19 85.0607 211.312 89.6994 206.359C94.3382 201.406 94.4928 198.98 98.0491 193.319C101.605 187.659 105.162 183.716 110.574 179.37Z" fill="#0371EE" fill-opacity="0.5"/>
</g>
<g filter="url(#filter1_f_9524_15790)">
<path d="M270.925 87.3808C274.478 85.7662 282.575 79.6438 286.179 76.7845L246.788 76.7845L93.2792 73.0001L-81.2767 79.9381C-85.1386 90.0299 -92.8623 111.399 -92.8623 116.142C-92.8623 122.071 -100.2 153.229 -99.4274 162.312C-98.6551 171.394 -95.5656 171.016 -92.8623 176.693C-90.159 182.369 -83.7869 190.569 -79.3458 201.417C-74.9046 212.266 -74.3254 215.041 -69.4981 223.745C-64.6707 232.449 -59.2641 235.603 -50.1888 244.938C-41.1134 254.273 -46.3269 246.956 -37.2516 250.614C-28.1762 254.273 -30.8795 250.614 -28.9486 252.128C-27.0176 253.642 -22.5765 253.39 -13.5011 253.39C-4.42577 253.39 -3.6534 252.885 27.0484 253.39C57.7501 253.894 46.9249 264.347 65.6669 260.58C78.2181 258.057 114.133 259.319 112.396 241.28C111.566 232.662 104.672 237.369 97.5272 233.837C90.3828 230.305 88.0657 228.413 81.6936 223.745C75.3216 219.078 78.2181 221.475 75.1285 215.041C72.0388 208.608 73.9699 210.878 65.6669 198.264C60.6465 193.092 61.226 195.488 61.226 192.335C61.226 189.181 56.9779 189.56 54.0816 186.154C51.1852 182.748 53.6954 183.126 54.0816 176.693C54.4677 170.259 57.3641 165.844 61.226 160.42C65.0878 154.995 69.9152 153.482 78.2182 149.95C86.5212 146.417 96.3689 144.273 112.396 141.372C128.422 138.47 144.063 136.326 160.476 132.92C176.889 129.514 186.157 127.495 197.936 123.963C209.714 120.431 209.328 119.296 213.769 116.142C218.21 112.989 219.176 111.601 228.637 105.924C238.099 100.248 266.484 89.3992 270.925 87.3808Z" fill="#2159B5" fill-opacity="0.55"/>
</g>
<g filter="url(#filter2_f_9524_15790)">
<path d="M166.375 161.289C163.133 161.296 154.029 158.979 149.882 157.82L173.274 140.64L261.779 70.0726L370.305 0.568887C379.679 8.52489 399.258 25.5696 402.586 30.1006C406.745 35.7643 432.963 62.3286 438.877 71.3417C444.79 80.3549 442.69 81.3408 445.068 87.9425C447.445 94.5442 449.414 105.156 454.388 117.456C459.362 129.757 460.965 132.661 464.205 143.081C467.445 153.501 466.447 158.872 467.607 171.747C468.767 184.622 466.729 175.359 463.907 182.812C461.084 190.265 460.123 185.591 460.038 187.88C459.954 190.168 457.139 191.864 451.75 195.822C446.361 199.78 445.548 199.635 427.67 213.507C409.792 227.38 423.554 232.644 409.781 237.219C400.558 240.283 380.115 257.152 368.491 239.163C362.938 230.569 370.334 232.058 372.099 225.568C373.863 219.078 373.912 216.26 374.421 209.022C374.93 201.784 374.892 205.337 372.213 197.844C369.534 190.351 369.98 193.362 366.061 177.69C365.413 170.56 366.751 173.102 364.538 170.09C362.326 167.077 365.114 165.586 364.444 161.069C363.774 156.552 362.549 158.008 357.806 152.031C353.063 146.054 348.246 143.099 342.147 139.602C336.048 136.105 332.119 136.764 324.71 137.011C317.301 137.259 309.949 139.505 298.396 143.723C286.843 147.942 276.051 152.715 263.914 156.619C251.778 160.524 244.858 162.639 235.385 164.402C225.913 166.165 225.345 164.912 220.495 163.836C215.646 162.76 214.099 161.856 204.497 160.56C194.896 159.264 170.429 161.28 166.375 161.289Z" fill="#059DDE" fill-opacity="0.5"/>
</g>
<defs>
<filter id="filter0_f_9524_15790" x="-263.949" y="60.929" width="472.695" height="356.401" filterUnits="userSpaceOnUse" color-interpolation-filters="sRGB">
<feFlood flood-opacity="0" result="BackgroundImageFix"/>
<feBlend mode="normal" in="SourceGraphic" in2="BackgroundImageFix" result="shape"/>
<feGaussianBlur stdDeviation="29.0605" result="effect1_foregroundBlur_9524_15790"/>
</filter>
<filter id="filter1_f_9524_15790" x="-179.309" y="-6.82445" width="545.313" height="348.046" filterUnits="userSpaceOnUse" color-interpolation-filters="sRGB">
<feFlood flood-opacity="0" result="BackgroundImageFix"/>
<feBlend mode="normal" in="SourceGraphic" in2="BackgroundImageFix" result="shape"/>
<feGaussianBlur stdDeviation="39.9123" result="effect1_foregroundBlur_9524_15790"/>
</filter>
<filter id="filter2_f_9524_15790" x="64.8829" y="-84.431" width="488.054" height="416.767" filterUnits="userSpaceOnUse" color-interpolation-filters="sRGB">
<feFlood flood-opacity="0" result="BackgroundImageFix"/>
<feBlend mode="normal" in="SourceGraphic" in2="BackgroundImageFix" result="shape"/>
<feGaussianBlur stdDeviation="42.4999" result="effect1_foregroundBlur_9524_15790"/>
</filter>
</defs>
</svg>
