<svg width="767" height="614" viewBox="0 0 767 614" fill="none" xmlns="http://www.w3.org/2000/svg">
<g clip-path="url(#clip0_4129_1315)">
<mask id="mask0_4129_1315" style="mask-type:alpha" maskUnits="userSpaceOnUse" x="0" y="0" width="767" height="614">
<path d="M0 0H767V614H0V0Z" fill="#020303"/>
</mask>
<g mask="url(#mask0_4129_1315)">
<g filter="url(#filter0_f_4129_1315)">
<path d="M158.75 533.524C161.837 530.739 164.629 467.845 182.945 454.926C201.262 442.008 219.758 432.532 248.474 421.496C277.191 410.459 291.405 408 314.405 395.812C337.406 383.624 329.302 390.934 346.884 375.525C364.464 360.116 357.17 363.543 382.603 343.754C408.036 323.964 405.209 327.866 419.74 312.055C434.268 296.244 417.659 303.118 441.645 290.49C518.793 266.854 414.636 236.77 511.377 228.677C525.164 227.523 556.451 219.176 572.685 216.697C588.919 214.218 599.549 187.048 615.782 184.569C632.016 182.091 643.767 149.913 664.648 151.352C685.528 152.791 685.706 109.442 717.015 105.529C799.984 92.8608 905.936 125.716 957.733 100.166C964.183 96.9842 969.294 94.7946 973.305 93.3848C975.627 97.9714 977.623 102.272 976.831 105.529C975.226 112.104 1001.49 83.4722 973.305 93.3848C970.27 87.3972 966.677 80.9219 968.004 75.6427C969.878 68.1842 961.939 57.3851 957.733 52.9179L908.176 39.9512L890.687 37.7051L883.364 28.9899C868.292 11.047 811.743 3.48593 814.822 -3.34665C817.902 -10.1792 811.485 2.36881 821.277 -19.0815C831.07 -40.5319 829.867 -40.3483 836.772 -66.8524C843.678 -93.3566 888.902 -97.6592 831.807 -100.22C786.129 -102.269 832.109 -141.044 860.81 -160.176C850.435 -183.56 824.587 -229.78 804.178 -227.59C778.668 -224.851 526.564 -193.878 422.398 -169.297C318.229 -144.716 112.743 -110.738 16.554 -92.0023C-79.6346 -73.2668 -184.33 -54.9676 -200.563 -52.489L-374.921 -25.8671C-426.298 9.06635 -514.079 95.7919 -454.175 163.227C-379.296 247.52 -314.141 366.267 -262.109 391.87C-210.075 417.473 -138.277 465.798 -108.056 475.933C-77.8358 486.067 20.7853 521.909 39.1802 526.041C53.8961 529.347 125.025 532.407 158.75 533.524Z" fill="#0371EE" fill-opacity="0.37"/>
</g>
<g filter="url(#filter1_f_4129_1315)">
<path d="M12.8582 489.862C9.12437 495.753 -11.0262 510.957 -20.6348 517.823L-64.5607 465.532L-253.78 264.506L-415.363 27.7376C-371.572 15.2671 -278.335 -10.5368 -255.729 -13.9885C-227.471 -18.3031 -87.1485 -50.718 -42.9986 -56.3023C1.15139 -61.8865 2.79287 -57.5099 32.8628 -58.0523C62.9328 -58.5947 109.118 -56.1029 165.777 -58.1022C222.435 -60.1015 236.308 -61.3521 283.177 -61.2781C330.043 -61.2041 351.104 -56.3219 405.716 -51.0677C460.326 -45.8136 419.642 -47.41 447.197 -38.0248C474.753 -28.6397 454.302 -29.5661 463.67 -28.1044C473.038 -26.6427 476.789 -20.5636 486.91 -8.51627C497.029 3.53109 495.486 4.92359 532.126 45.3124C568.768 85.7012 606.518 63.7239 609.461 91.3452C611.434 109.843 657.494 156.601 569.582 167.422C527.585 172.591 542.329 160.014 517.529 153.101C492.727 146.187 481.124 144.488 451.774 139.426C422.421 134.364 437.076 136.464 402.967 137.045C368.86 137.625 381.836 138.536 312.454 136.694C282.203 133.793 294.274 132.818 279.243 135.113C264.213 137.408 261.279 131.494 241.815 130.128C222.352 128.761 226.955 131.818 196.723 137.013C166.491 142.207 148.678 149.265 127.131 158.339C105.585 167.413 103.753 174.922 96.1774 188.515C88.6017 202.107 89.3624 216.741 93.4057 240.127C97.4492 263.514 104.669 285.837 106.739 310.103C108.808 334.37 109.523 348.142 105.824 366.348C102.124 384.555 96.282 384.868 86.2036 393.059C76.1252 401.249 70.5882 403.541 54.0837 420.232C37.5791 436.923 17.5255 482.498 12.8582 489.862Z" fill="#0092AA"/>
</g>
<g opacity="0.62" filter="url(#filter2_f_4129_1315)">
<path d="M-21.0576 198.58C-22.3574 201.555 -14.8655 215.373 -10.9571 221.91C-8.44509 224.9 -5.15482 231.724 -12.09 235.096C-20.7589 239.312 -37.9261 247.139 -83.5303 255.837C-129.134 264.536 -101.226 257.382 -149.143 248.792C-197.059 240.202 -200.412 218.446 -219.209 206.567C-238.006 194.688 -264.22 148.947 -300.71 119.235C-337.202 89.5237 -352.082 59.6946 -361 47.4637C-369.918 35.2327 -366.658 12.4665 -360.374 -2.66395C-354.09 -17.7944 -320.152 -17.7704 -293.528 -22.414C-266.903 -27.0577 -205.589 -21.0917 -154.244 -16.4957C-102.899 -11.8996 -53.0858 -21.2406 -17.7027 -28.3784C17.6805 -35.5161 93.0022 -28.2184 116.629 -28.3555C140.256 -28.4926 163.332 -4.2524 166.246 12.9441C169.159 30.1407 160.734 27.3783 144.464 33.0437C128.195 38.7091 127.037 39.7535 120.009 48.3457C112.982 56.938 118.178 55.8555 138.958 70.9025C138.247 80.5547 145.219 86.4311 62.5816 93.843C36.4602 92.6257 40.0759 96.1224 8.13783 107.361C-23.8002 118.6 0.0337489 114.672 -4.16652 119.362C-8.36679 124.052 2.95583 135.916 3.8702 141.85C4.78458 147.784 9.96065 157.983 3.69666 161.831C-2.56737 165.68 -11.8739 173.174 -15.3918 175.446C-18.9098 177.719 -19.4328 194.862 -21.0576 198.58Z" fill="white"/>
</g>
<g filter="url(#filter3_f_4129_1315)">
<path d="M729.702 -27.2146C879.267 -74.2541 1427.68 -100.05 1491.78 -107.637C1401.56 -115.224 1192.64 -133.433 1078.69 -145.572C936.245 -160.747 914.88 -145.572 608.624 -174.403C302.37 -203.234 191.976 -159.229 -181.939 -145.572C-555.854 -131.916 -416.97 -72.7367 -555.854 -27.2146C-694.737 18.3075 -815.813 132.112 -837.181 150.321C-858.546 168.53 -741.031 323.305 -630.637 352.136C-520.243 380.966 -367.115 356.688 -181.939 285.37C3.23832 214.052 -43.0559 238.33 21.0438 195.843C85.1436 153.356 142.121 168.53 252.515 132.112C362.909 95.695 455.498 92.6602 505.353 60.7947C555.208 28.9293 580.137 19.8249 729.702 -27.2146Z" fill="#BAE3EA"/>
</g>
</g>
</g>
<defs>
<filter id="filter0_f_4129_1315" x="-608.18" y="-361.513" width="1728.45" height="1028.88" filterUnits="userSpaceOnUse" color-interpolation-filters="sRGB">
<feFlood flood-opacity="0" result="BackgroundImageFix"/>
<feBlend mode="normal" in="SourceGraphic" in2="BackgroundImageFix" result="shape"/>
<feGaussianBlur stdDeviation="66.9238" result="effect1_foregroundBlur_4129_1315"/>
</filter>
<filter id="filter1_f_4129_1315" x="-541.37" y="-187.288" width="1290.64" height="831.117" filterUnits="userSpaceOnUse" color-interpolation-filters="sRGB">
<feFlood flood-opacity="0" result="BackgroundImageFix"/>
<feBlend mode="normal" in="SourceGraphic" in2="BackgroundImageFix" result="shape"/>
<feGaussianBlur stdDeviation="63.0032" result="effect1_foregroundBlur_4129_1315"/>
</filter>
<filter id="filter2_f_4129_1315" x="-457.634" y="-122.67" width="715.605" height="473.617" filterUnits="userSpaceOnUse" color-interpolation-filters="sRGB">
<feFlood flood-opacity="0" result="BackgroundImageFix"/>
<feBlend mode="normal" in="SourceGraphic" in2="BackgroundImageFix" result="shape"/>
<feGaussianBlur stdDeviation="45.5779" result="effect1_foregroundBlur_4129_1315"/>
</filter>
<filter id="filter3_f_4129_1315" x="-1090.22" y="-434.502" width="2832.49" height="1049" filterUnits="userSpaceOnUse" color-interpolation-filters="sRGB">
<feFlood flood-opacity="0" result="BackgroundImageFix"/>
<feBlend mode="normal" in="SourceGraphic" in2="BackgroundImageFix" result="shape"/>
<feGaussianBlur stdDeviation="125.25" result="effect1_foregroundBlur_4129_1315"/>
</filter>
<clipPath id="clip0_4129_1315">
<rect width="767" height="614" fill="white"/>
</clipPath>
</defs>
</svg>
