<svg width="19" height="19" viewBox="0 0 19 19" fill="none" xmlns="http://www.w3.org/2000/svg">
<path fill-rule="evenodd" clip-rule="evenodd" d="M2.10333 18.93H16.8267C17.9883 18.93 18.93 17.9883 18.93 16.8267V2.10333C18.93 0.941694 17.9883 0 16.8267 0H2.10333C0.941694 0 0 0.941694 0 2.10333V16.8267C0 17.9883 0.941694 18.93 2.10333 18.93Z" fill="black"/>
<path fill-rule="evenodd" clip-rule="evenodd" d="M16.3008 16.3011H13.4917V11.5165C13.4917 10.2047 12.9933 9.47168 11.955 9.47168C10.8255 9.47168 10.2354 10.2346 10.2354 11.5165V16.3011H7.52816V7.18662H10.2354V8.41433C10.2354 8.41433 11.0493 6.90816 12.9835 6.90816C14.9167 6.90816 16.3008 8.08872 16.3008 10.5304V16.3011ZM4.2985 5.99315C3.37637 5.99315 2.62915 5.24007 2.62915 4.31127C2.62915 3.38248 3.37637 2.62939 4.2985 2.62939C5.22063 2.62939 5.9674 3.38248 5.9674 4.31127C5.9674 5.24007 5.22063 5.99315 4.2985 5.99315ZM2.90063 16.3011H5.72352V7.18662H2.90063V16.3011Z" fill="#FFFF78"/>
</svg>
