<svg width="19" height="19" viewBox="0 0 19 19" fill="none" xmlns="http://www.w3.org/2000/svg">
<path fill-rule="evenodd" clip-rule="evenodd" d="M5.56269 0.0567884C6.57197 0.0103252 6.89377 0 9.46474 0C12.0357 0 12.3575 0.0111856 13.3659 0.0567884C14.3744 0.102391 15.0627 0.263292 15.665 0.496469C16.2957 0.734808 16.8679 1.10737 17.3411 1.58922C17.823 2.06159 18.1947 2.63292 18.4322 3.26448C18.6662 3.86678 18.8262 4.55512 18.8727 5.56183C18.9192 6.57283 18.9295 6.89464 18.9295 9.46474C18.9295 12.0357 18.9183 12.3575 18.8727 13.3668C18.8271 14.3735 18.6662 15.0618 18.4322 15.6641C18.1947 16.2958 17.8223 16.8681 17.3411 17.3411C16.8679 17.823 16.2957 18.1947 15.665 18.4322C15.0627 18.6662 14.3744 18.8262 13.3677 18.8727C12.3575 18.9192 12.0357 18.9295 9.46474 18.9295C6.89377 18.9295 6.57197 18.9183 5.56269 18.8727C4.55598 18.8271 3.86764 18.6662 3.26534 18.4322C2.63371 18.1946 2.06144 17.8223 1.58836 17.3411C1.10684 16.8685 0.734218 16.2965 0.496469 15.665C0.263292 15.0627 0.103252 14.3744 0.0567884 13.3677C0.0103252 12.3567 0 12.0349 0 9.46474C0 6.89377 0.0111856 6.57197 0.0567884 5.56355C0.102391 4.55512 0.263292 3.86678 0.496469 3.26448C0.73457 2.63299 1.10748 2.061 1.58922 1.58836C2.06163 1.10695 2.63333 0.734329 3.26448 0.496469C3.86678 0.263292 4.55598 0.103252 5.56269 0.0567884ZM13.2894 1.76044C12.2913 1.71484 11.9918 1.70537 9.46474 1.70537C6.93766 1.70537 6.63823 1.71484 5.64013 1.76044C4.71688 1.8026 4.21611 1.95662 3.88227 2.08655C3.44086 2.25863 3.12509 2.46255 2.79382 2.79382C2.4798 3.09932 2.23814 3.47122 2.08655 3.88227C1.95662 4.21611 1.8026 4.71688 1.76044 5.64013C1.71484 6.63823 1.70537 6.93766 1.70537 9.46474C1.70537 11.9918 1.71484 12.2913 1.76044 13.2894C1.8026 14.2126 1.95662 14.7134 2.08655 15.0472C2.23798 15.4576 2.47976 15.8302 2.79382 16.1357C3.09927 16.4497 3.47184 16.6915 3.88227 16.8429C4.21611 16.9729 4.71688 17.1269 5.64013 17.169C6.63823 17.2146 6.9368 17.2241 9.46474 17.2241C11.9927 17.2241 12.2913 17.2146 13.2894 17.169C14.2126 17.1269 14.7134 16.9729 15.0472 16.8429C15.4886 16.6709 15.8044 16.4669 16.1357 16.1357C16.4497 15.8302 16.6915 15.4576 16.8429 15.0472C16.9729 14.7134 17.1269 14.2126 17.169 13.2894C17.2146 12.2913 17.2241 11.9918 17.2241 9.46474C17.2241 6.93766 17.2146 6.63823 17.169 5.64013C17.1269 4.71688 16.9729 4.21611 16.8429 3.88227C16.6709 3.44086 16.4669 3.12509 16.1357 2.79382C15.8301 2.47982 15.4582 2.23816 15.0472 2.08655C14.7134 1.95662 14.2126 1.8026 13.2894 1.76044ZM8.25584 12.3825C8.93098 12.6635 9.68276 12.7014 10.3828 12.4898C11.0828 12.2781 11.6876 11.83 12.0939 11.222C12.5002 10.6139 12.6828 9.88366 12.6105 9.15594C12.5382 8.42822 12.2155 7.74816 11.6976 7.23192C11.3674 6.90193 10.9681 6.64925 10.5285 6.49208C10.0889 6.33491 9.61999 6.27715 9.15541 6.32298C8.69084 6.3688 8.2422 6.51706 7.8418 6.75708C7.4414 6.9971 7.0992 7.32291 6.83983 7.71106C6.58046 8.0992 6.41037 8.54003 6.34182 9.0018C6.27327 9.46357 6.30795 9.93479 6.44337 10.3815C6.57879 10.8283 6.81159 11.2395 7.12499 11.5855C7.43839 11.9315 7.82461 12.2037 8.25584 12.3825ZM6.02474 6.02474C6.47649 5.57299 7.01279 5.21465 7.60303 4.97016C8.19326 4.72568 8.82587 4.59984 9.46474 4.59984C10.1036 4.59984 10.7362 4.72568 11.3265 4.97016C11.9167 5.21464 12.453 5.57299 12.9047 6.02474C13.3565 6.47649 13.7148 7.01279 13.9593 7.60303C14.2038 8.19326 14.3296 8.82588 14.3296 9.46474C14.3296 10.1036 14.2038 10.7362 13.9593 11.3265C13.7148 11.9167 13.3565 12.453 12.9047 12.9047C11.9924 13.8171 10.755 14.3296 9.46474 14.3296C8.17449 14.3296 6.93708 13.8171 6.02474 12.9047C5.11239 11.9924 4.59984 10.755 4.59984 9.46474C4.59984 8.17449 5.11239 6.93708 6.02474 6.02474ZM15.4086 5.32435C15.5205 5.21875 15.6102 5.09176 15.6722 4.9509C15.7341 4.81004 15.7672 4.65817 15.7695 4.5043C15.7717 4.35042 15.7431 4.19765 15.6852 4.05505C15.6274 3.91244 15.5415 3.78289 15.4327 3.67407C15.3238 3.56525 15.1943 3.47937 15.0517 3.42152C14.9091 3.36366 14.7563 3.33501 14.6024 3.33725C14.4486 3.3395 14.2967 3.37259 14.1558 3.43458C14.015 3.49657 13.888 3.58619 13.7824 3.69813C13.577 3.91585 13.4646 4.20503 13.4689 4.5043C13.4733 4.80356 13.5941 5.08935 13.8058 5.30098C14.0174 5.51262 14.3032 5.63344 14.6024 5.6378C14.9017 5.64216 15.1909 5.52972 15.4086 5.32435Z" fill="black"/>
</svg>
