<svg width="21" height="14" viewBox="0 0 21 14" fill="none" xmlns="http://www.w3.org/2000/svg">
<path d="M20.2207 2.16137C20.1037 1.74426 19.876 1.36663 19.5616 1.06862C19.2383 0.761449 18.8421 0.541723 18.4103 0.43018C16.7944 0.00426669 10.3205 0.00426678 10.3205 0.00426678C7.62165 -0.0264397 4.92343 0.108615 2.24109 0.408669C1.80932 0.528453 1.41384 0.753089 1.08984 1.0626C0.771477 1.36891 0.540882 1.74664 0.420421 2.16051C0.131052 3.71939 -0.00954287 5.30224 0.000531044 6.88772C-0.00979413 8.47177 0.130456 10.0541 0.420421 11.6149C0.5383 12.0271 0.768035 12.4031 1.08726 12.7068C1.40648 13.0105 1.80399 13.23 2.24109 13.3461C3.87849 13.7712 10.3205 13.7712 10.3205 13.7712C13.0229 13.8019 15.7245 13.6669 18.4103 13.3668C18.8421 13.2552 19.2383 13.0355 19.5616 12.7283C19.8799 12.4246 20.1062 12.0469 20.2198 11.6356C20.5167 10.0773 20.6611 8.49379 20.6509 6.90751C20.6732 5.31451 20.529 3.72354 20.2207 2.16051V2.16137ZM8.26239 9.83383V3.94246L13.6487 6.88858L8.26239 9.83383Z" fill="black"/>
</svg>
