<svg width="24" height="24" viewBox="0 0 24 24" fill="none" xmlns="http://www.w3.org/2000/svg">
<path d="M9.99825 13C10.4277 13.5742 10.9756 14.0492 11.6048 14.393C12.234 14.7367 12.9298 14.9411 13.6449 14.9924C14.36 15.0436 15.0778 14.9404 15.7496 14.6898C16.4214 14.4392 17.0314 14.0471 17.5382 13.54L20.5382 10.54C21.449 9.59702 21.953 8.334 21.9416 7.02302C21.9302 5.71204 21.4044 4.45797 20.4773 3.53093C19.5503 2.60389 18.2962 2.07805 16.9853 2.06666C15.6743 2.05526 14.4113 2.55924 13.4682 3.47003L11.7482 5.18003M13.9982 11C13.5688 10.4259 13.0209 9.95084 12.3917 9.60709C11.7625 9.26333 11.0667 9.05891 10.3516 9.00769C9.63645 8.95648 8.91866 9.05966 8.2469 9.31025C7.57514 9.56083 6.96513 9.95296 6.45825 10.46L3.45825 13.46C2.54746 14.403 2.04348 15.666 2.05488 16.977C2.06627 18.288 2.59211 19.5421 3.51915 20.4691C4.44619 21.3962 5.70026 21.922 7.01124 21.9334C8.32222 21.9448 9.58524 21.4408 10.5282 20.53L12.2382 18.82" stroke="black" stroke-width="2" stroke-linecap="round" stroke-linejoin="round"/>
</svg>
