<svg width="77" height="77" viewBox="0 0 77 77" fill="none" xmlns="http://www.w3.org/2000/svg">
<circle cx="38.2031" cy="38.2032" r="33.3186" transform="rotate(-6.91945 38.2031 38.2032)" fill="#FFFF78"/>
<circle cx="38.2031" cy="38.2032" r="33.3186" transform="rotate(-6.91945 38.2031 38.2032)" fill="#39BF97"/>
<circle cx="38.2031" cy="38.2032" r="33.3186" transform="rotate(-6.91945 38.2031 38.2032)" stroke="black" stroke-width="2"/>
<path d="M66.658 47.3415C64.4386 53.4849 59.5878 58.7295 55.2577 62.2503C52.4202 64.5575 44.3193 67.3039 46.2446 64.1947C47.4565 62.2376 47.4118 61.8811 45.2056 55.633C43.4407 50.6346 50.4227 50.8973 54.1344 51.6535C55.6479 52.1938 59.1224 52.7857 60.9123 50.831C63.1497 48.3875 62.89 46.2471 62.3601 44.8635C60.5187 40.0554 68.4074 42.4992 66.658 47.3415Z" fill="black" stroke="black"/>
<path d="M40.2483 10.6934C40.7256 9.87705 41.7194 9.38173 43.0626 9.3355C44.3984 9.28957 46.0036 9.69765 47.5439 10.5982C49.0841 11.4988 50.227 12.6976 50.8421 13.8842C51.4607 15.0775 51.5164 16.1864 51.0391 17.0028C50.5617 17.8191 49.568 18.3145 48.2247 18.3607C46.889 18.4065 45.2837 17.9985 43.7435 17.098C42.2033 16.1974 41.0603 14.9986 40.4452 13.812C39.8267 12.6187 39.771 11.5098 40.2483 10.6934Z" fill="white" stroke="black"/>
<path d="M54.5951 19.2316C54.7626 19.1081 55.053 19.0613 55.462 19.2209C55.8641 19.3778 56.3096 19.7139 56.6757 20.2104C57.0417 20.7069 57.231 21.2318 57.262 21.6623C57.2935 22.1003 57.1629 22.3638 56.9955 22.4873C56.828 22.6108 56.5376 22.6576 56.1285 22.498C55.7265 22.3411 55.281 22.005 54.9149 21.5085C54.5489 21.012 54.3596 20.4871 54.3286 20.0566C54.2971 19.6186 54.4277 19.3551 54.5951 19.2316Z" fill="white" stroke="black"/>
<path d="M15.733 52.4814C16.0194 52.2704 16.4736 52.2207 17.0513 52.4461C17.6223 52.6689 18.2412 53.1401 18.7459 53.8247C19.2507 54.5094 19.5178 55.2399 19.5618 55.8512C19.6063 56.4699 19.4245 56.8889 19.1382 57.1001C18.8518 57.3113 18.3971 57.3615 17.8191 57.136C17.2483 56.9131 16.6292 56.442 16.1245 55.7574C15.6198 55.0728 15.3527 54.3421 15.3087 53.7309C15.2642 53.1121 15.4466 52.6926 15.733 52.4814Z" fill="white" stroke="black"/>
</svg>
