<svg width="141" height="141" viewBox="0 0 141 141" fill="none" xmlns="http://www.w3.org/2000/svg">
<circle cx="70.2494" cy="70.2494" r="69.2494" fill="#FFFF78"/>
<circle cx="70.2494" cy="70.2494" r="69.2494" fill="#39BF97"/>
<circle cx="70.2494" cy="70.2494" r="69.2494" stroke="black" stroke-width="2"/>
<path d="M130.199 76.501C131.376 102.982 103.227 122.352 89.0062 128.728C85.0821 128.728 77.823 127.992 80.1791 125.05C83.1242 121.372 83.1215 120.636 80.1791 107.396C77.8252 96.8031 91.9485 99.0589 99.3044 101.511C102.247 102.982 109.161 105.042 113.28 101.511C118.43 97.0974 118.43 92.6839 117.694 89.7415C116.958 86.7992 119.165 78.7077 130.199 76.501Z" fill="black" stroke="black"/>
<path d="M85.4763 16.1536C86.6055 14.6678 88.6266 13.9897 91.0909 14.2031C93.5478 14.416 96.3686 15.5156 98.9492 17.4768C101.53 19.4381 103.345 21.8613 104.208 24.1715C105.073 26.4886 104.96 28.617 103.831 30.1028C102.702 31.5886 100.681 32.2672 98.2171 32.0539C95.7602 31.8411 92.9395 30.7414 90.3588 28.7802C87.7782 26.819 85.9634 24.3957 85.1005 22.0855C84.2349 19.7683 84.347 17.6395 85.4763 16.1536Z" fill="white" stroke="black"/>
<path d="M109.28 34.5474C110.222 34.0148 111.482 34.1018 112.814 34.817C114.139 35.5287 115.466 36.833 116.45 38.5745C117.434 40.3159 117.868 42.1245 117.794 43.6268C117.72 45.1369 117.145 46.2608 116.203 46.7934C115.261 47.3261 114.002 47.2391 112.67 46.5238C111.344 45.8122 110.018 44.5085 109.034 42.7672C108.049 41.0257 107.616 39.2165 107.689 37.714C107.763 36.204 108.338 35.0801 109.28 34.5474Z" fill="white" stroke="black"/>
<path d="M20.8088 93.2674C21.6543 92.7895 22.7906 92.8643 24.0023 93.515C25.2075 94.1621 26.4167 95.349 27.3147 96.9374C28.2127 98.5259 28.6065 100.175 28.5396 101.541C28.4723 102.915 27.9499 103.926 27.1046 104.404C26.2592 104.882 25.1232 104.808 23.9116 104.157C22.7064 103.51 21.4967 102.323 20.5987 100.734C19.7008 99.1456 19.3074 97.4976 19.3743 96.1313C19.4416 94.7575 19.9634 93.7454 20.8088 93.2674Z" fill="white" stroke="black"/>
</svg>
