<svg width="617" height="301" viewBox="0 0 617 301" fill="none" xmlns="http://www.w3.org/2000/svg">
<path d="M166.765 196.62V3.83999H81.9248L0.444766 213.84V247.86H111.745V297H166.765V247.86H193.225V196.62H166.765ZM113.425 198.72H61.3448L116.365 47.52L113.425 198.72ZM308.354 300.36C373.454 300.36 407.894 249.12 407.894 150.42C407.894 51.72 373.454 0.479987 308.354 0.479987C243.254 0.479987 209.234 51.3 209.234 150.42C209.234 249.12 243.254 300.36 308.354 300.36ZM308.354 249.54C279.794 249.54 266.354 218.88 266.354 150.42C266.354 81.54 279.374 51.72 308.354 51.72C337.334 51.72 350.774 81.54 350.774 150.42C350.774 219.3 337.334 249.54 308.354 249.54ZM590.046 196.62V3.83999H505.206L423.726 213.84V247.86H535.026V297H590.046V247.86H616.506V196.62H590.046ZM536.706 198.72H484.626L539.646 47.52L536.706 198.72Z" fill="#EDFCFF"/>
</svg>
