<svg width="393" height="372" viewBox="0 0 393 372" fill="none" xmlns="http://www.w3.org/2000/svg">
<circle cx="197.266" cy="185.383" r="133.686" fill="#FFFF78" stroke="black"/>
<circle cx="197.248" cy="185.141" r="133.686" transform="rotate(-10.7101 197.248 185.141)" fill="#FFFF78" stroke="black"/>
<path d="M70.7209 228.622C108.326 287.213 178.728 320.385 251.308 307.262C242.208 311.242 232.521 314.27 222.346 316.195C156.193 328.706 92.2065 290.346 70.7209 228.622Z" fill="black"/>
<path d="M355.759 118.091C358.693 125.469 356.726 134.225 351 143.607C345.265 153.006 335.668 163.192 323.011 173.558C297.688 194.297 259.954 215.886 215.815 233.438C171.676 250.989 129.422 261.208 96.7724 263.522C80.453 264.678 66.4812 263.863 55.8578 260.97C45.2531 258.081 37.8115 253.068 34.8773 245.689C31.7058 237.714 34.2568 228.131 41.1067 217.869C46.2367 210.185 53.8433 202.014 63.5108 193.677L63.7312 195.809C54.5901 203.792 47.4228 211.568 42.5661 218.844C35.8311 228.933 33.656 237.872 36.5069 245.041C39.1438 251.672 45.9425 256.452 56.3191 259.278C66.6778 262.1 80.4305 262.922 96.6482 261.772C129.073 259.474 171.147 249.311 215.166 231.807C259.186 214.303 296.751 192.797 321.9 172.201C334.478 161.899 343.911 151.858 349.503 142.694C355.106 133.513 356.766 125.37 354.129 118.739L355.759 118.091Z" fill="black"/>
<circle cx="197.248" cy="185.141" r="133.686" transform="rotate(-10.7101 197.248 185.141)" stroke="black"/>
</svg>
