<?xml version="1.0" encoding="UTF-8" standalone="no"?><!DOCTYPE svg PUBLIC "-//W3C//DTD SVG 1.1//EN" "http://www.w3.org/Graphics/SVG/1.1/DTD/svg11.dtd"><svg xmlns="http://www.w3.org/2000/svg" xmlns:xlink="http://www.w3.org/1999/xlink" version="1.1" width="1154" height="962" viewBox="0 0 1154 962">
<desc>Created with SVGMaker Editor 2.2.1</desc>
<defs>
</defs>
<path transform="translate(0,0)" style="fill: rgb(0,0,0); fill-rule: evenodd" stroke-linecap="round" d="M 488.529 217.14 L 362.719 81.3301 L 481.369 221.41 C 483.719 219.94 486.109 218.51 488.539 217.15 L 488.529 217.14 Z"/>
<path transform="translate(0,0)" style="fill: rgb(0,0,0); fill-rule: evenodd" stroke-linecap="round" d="M 518.999 203.47 L 426.879 37.04 L 511.029 206.41 C 513.659 205.37 516.319 204.39 518.999 203.47 Z"/>
<path transform="translate(0,0)" style="fill: rgb(0,0,0); fill-rule: evenodd" stroke-linecap="round" d="M 550.13 195.79 L 499.77 9.3901 L 541.68 197.3 C 544.47 196.73 547.29 196.23 550.13 195.79 Z"/>
<path transform="translate(0,0)" style="fill: rgb(0,0,0); fill-rule: evenodd" stroke-linecap="round" d="M 433.729 264.99 L 274.789 208.72 L 429.209 271.24 C 430.669 269.12 432.179 267.04 433.729 264.99 Z"/>
<path transform="translate(0,0)" style="fill: rgb(0,0,0); fill-rule: evenodd" stroke-linecap="round" d="M 413.179 299.95 L 256.129 284.41 L 410.419 306.63 C 411.299 304.38 412.209 302.15 413.179 299.94 L 413.179 299.95 Z"/>
<path transform="translate(0,0)" style="fill: rgb(0,0,0); fill-rule: evenodd" stroke-linecap="round" d="M 459.609 237.45 L 311.02 139.68 L 453.609 242.85 C 455.569 241 457.57 239.2 459.62 237.44 L 459.609 237.45 Z"/>
<path transform="translate(0,0)" style="fill: rgb(0,0,0); fill-rule: evenodd" stroke-linecap="round" d="M 578.699 193.59 C 579.619 193.59 580.539 193.61 581.459 193.62 L 577.159 0 L 572.859 193.69 C 574.799 193.63 576.749 193.59 578.709 193.59 L 578.699 193.59 Z"/>
<path transform="translate(0,0)" style="fill: rgb(0,0,0); fill-rule: evenodd" stroke-linecap="round" d="M 702.457 241.59 L 843.297 139.68 L 696.457 236.29 C 698.497 238.01 700.497 239.78 702.457 241.59 Z"/>
<path transform="translate(0,0)" style="fill: rgb(0,0,0); fill-rule: evenodd" stroke-linecap="round" d="M 727.517 270.26 L 879.527 208.71 L 723.027 264.12 C 724.567 266.13 726.067 268.18 727.517 270.26 Z"/>
<path transform="translate(0,0)" style="fill: rgb(0,0,0); fill-rule: evenodd" stroke-linecap="round" d="M 612.769 196.74 L 654.549 9.3999 L 604.309 195.36 C 607.149 195.75 609.969 196.21 612.769 196.73 L 612.769 196.74 Z"/>
<path transform="translate(0,0)" style="fill: rgb(0,0,0); fill-rule: evenodd" stroke-linecap="round" d="M 744.09 299.65 C 745.04 301.81 745.95 304 746.82 306.21 L 898.19 284.41 L 744.1 299.66 L 744.09 299.65 Z"/>
<path transform="translate(0,0)" style="fill: rgb(0,0,0); fill-rule: evenodd" stroke-linecap="round" d="M 674.008 220.16 L 791.598 81.3301 L 666.828 216.01 C 669.258 217.34 671.648 218.72 673.998 220.16 L 674.008 220.16 Z"/>
<path transform="translate(0,0)" style="fill: rgb(0,0,0); fill-rule: evenodd" stroke-linecap="round" d="M 643.799 205.41 L 727.449 37.0498 L 635.809 202.6 C 638.499 203.48 641.159 204.41 643.799 205.41 Z"/>
<path transform="translate(0,0)" style="fill: rgb(255,204,203); fill-rule: evenodd" stroke-linecap="round" d="M 236.332 304.25 L 939.122 304.25 L 939.122 543.18 L 859.316 543.18 L 878.24 525.56 L 882.99 525.32 C 794.29 502.57 689.39 489.42 576.99 489.42 C 465.63 489.42 361.64 502.32 273.47 524.68 L 280.05 528.3 L 294.209 543.18 L 236.332 543.18 L 236.332 304.25 Z"/>
<path transform="translate(0,0)" style="stroke: rgb(0,0,0); stroke-width: 2; fill: none; fill-rule: evenodd" stroke-linecap="round" d="M 236.332 304.25 L 236.332 492.49 L 461.347 494.161 C 498.709 491.052 537.383 489.42 576.99 489.42 C 623.888 489.42 669.481 491.709 713.136 496.03 L 939.382 497.71 L 939.382 304.25 L 236.332 304.25 Z"/>
<path transform="translate(0,0)" style="stroke: rgb(0,0,0); stroke-width: 3; fill: none" stroke-linecap="round" d="M 757.789 305.35 L 644.379 305.35"/>
<path transform="translate(0,0)" style="stroke: rgb(0,0,0); stroke-width: 3; fill: none" stroke-linecap="round" d="M 509.629 305.35 L 408.129 305.35"/>
<g transform="matrix(1 0 0 1 579.351 342.3055)">
<linearGradient id="SVGID_paint0_linear_3182_404_3" gradientUnits="userSpaceOnUse" gradientTransform="matrix(1 0 0 1 0 0)" x1="553.611" y1="149.53" x2="609.331" y2="589.52">
<stop offset="0%" style="stop-color:rgb(255,255,255);stop-opacity: 1"/>
<stop offset="100%" style="stop-color:rgb(255,255,255);stop-opacity: 0"/>
</linearGradient>
<path transform=" translate(-579.351, -342.3055)" style="fill: url(#SVGID_paint0_linear_3182_404_3); fill-rule: evenodd" stroke-linecap="round" d="M 492.226 491.948 C 519.891 490.283 548.194 489.42 576.99 489.42 C 607.253 489.42 636.972 490.373 665.978 492.211 C 718.664 464.575 754.171 412.508 754.171 352.83 C 754.171 264.227 675.902 192.4 579.351 192.4 C 482.801 192.4 404.531 264.227 404.531 352.83 C 404.531 412.32 439.815 464.247 492.226 491.948 Z"/>
</g>
<path transform="translate(0,0)" style="fill: rgb(241,207,190)" stroke-linecap="round" d="M 569.53 433.51 L 500.79 441.76 L 498.73 435.87 L 488.52 425.66 L 485.97 415.84 L 484.89 410.63 L 479 411.32 L 468.49 407.88 L 458.18 401.99 L 451.109 394.92 L 445.81 385.49 L 442.77 373.31 L 443.56 360.64 L 447.1 350.92 L 452.7 343.36 L 461.34 335.41 L 472.14 330.79 L 483.14 329.32 L 494.24 331.78 L 495.91 325 L 504.95 310.86 L 515.07 299.66 L 522.83 292.69 L 536.88 284.05 L 553.28 277.37 L 571.84 274.72 L 584.42 275.21 L 597.77 276.59 L 612.2 281.7 L 624.58 288.18 L 637.049 297.8 L 646.77 307.43 L 656.89 322.36 L 659.35 330.22 L 670.84 329.73 L 680.16 330.22 L 690.09 334.35 L 698.43 339.95 L 706.49 350.07 L 710.7 362.74 L 711.29 374.23 L 708.54 386.31 L 703.04 394.95 L 697.049 401.53 L 684.68 407.23 L 666.609 409.98 L 659.93 431.59 L 647.75 439.84 L 569.57 433.55 L 569.53 433.51 Z"/>
<path transform="translate(0,0)" style="fill: rgb(241,207,190)" stroke-linecap="round" d="M 569.192 433.55 L 500.442 441.8 L 498.382 435.91 L 488.172 425.7 L 485.622 415.88 L 484.542 410.67 L 478.652 411.36 L 468.142 407.92 L 457.832 402.03 L 450.762 394.96 L 445.462 385.53 L 442.422 373.35 L 443.212 360.68 L 446.752 350.96 L 452.352 343.4 L 460.992 335.44 L 471.792 330.83 L 482.792 329.36 L 493.892 331.82 L 495.562 325.04 L 504.602 310.9 L 514.722 299.7 L 522.482 292.73 L 536.522 284.09 L 552.932 277.41 L 571.492 274.76 L 584.062 275.25 L 597.422 276.62 L 611.852 281.73 L 624.222 288.21 L 636.702 297.84 L 646.422 307.46 L 656.532 322.39 L 658.992 330.25 L 670.482 329.76 L 679.812 330.25 L 689.742 334.37 L 698.082 339.97 L 706.132 350.09 L 710.352 362.76 L 710.942 374.25 L 708.192 386.33 L 702.682 394.97 L 696.702 401.55 L 684.322 407.25 L 666.262 410 L 659.582 431.61 L 647.402 439.86 L 569.222 433.57 L 569.192 433.55 Z"/>
<path transform="translate(0,0)" style="fill: rgb(253,242,212)" stroke-linecap="round" d="M 513.44 426.75 L 515.6 438.61 L 538.23 436.45 L 575.95 434.83 L 640.08 438.6 L 640.08 414.35 L 636.31 401.42 L 630.92 386.87 L 630.92 382.02 L 634.15 376.63 L 641.16 370.7 L 646.55 361.54 L 649.24 349.68 L 649.24 338.9 L 646.55 327.04 L 641.16 318.42 L 634.15 309.26 L 622.29 302.79 L 607.74 300.63 L 595.88 300.63 L 585.64 305.48 L 577.56 309.25 L 568.94 305.48 L 559.24 300.63 L 547.92 300.63 L 532.83 302.79 L 521.51 309.26 L 513.43 317.34 L 508.58 327.04 L 503.73 342.13 L 506.96 359.37 L 513.43 372.3 L 524.21 382 L 524.21 386.85 L 518.82 400.32 L 515.59 412.71 L 513.43 426.72 L 513.44 426.75 Z"/>
<path transform="translate(0,0)" style="fill: rgb(253,242,212)" stroke-linecap="round" d="M 661.96 365.32 L 658.19 387.95 C 657.25 393.55 661.04 395.67 663.04 396.03 L 671.12 396.03 L 683.51 391.72 L 688.36 386.87 L 694.83 377.71 L 695.91 369.09 L 694.83 361.55 L 691.6 354.54 L 687.29 351.85 L 680.28 349.69 L 674.35 349.69 L 666.81 354.54 L 661.96 365.32 Z"/>
<path transform="translate(0,0)" style="fill: rgb(253,242,212)" stroke-linecap="round" d="M 492.231 365.32 L 496.001 387.95 C 496.931 393.55 493.161 395.67 491.151 396.03 L 483.071 396.03 L 470.681 391.72 L 465.831 386.87 L 459.361 377.71 L 458.281 369.09 L 459.361 361.55 L 462.591 354.54 L 466.901 351.85 L 473.911 349.69 L 479.841 349.69 L 487.381 354.54 L 492.231 365.32 Z"/>
<path transform="translate(0,0)" style="fill: rgb(255,255,255); fill-rule: evenodd" stroke-linecap="round" d="M 753.731 498.75 L 641.741 484.65 L 494.491 484.65 L 405.211 498.75 L 406.581 486.02 L 412.261 471.34 L 416.961 462.53 L 424.401 454.31 L 434.971 447.85 L 445.351 443.74 L 503.111 438.45 L 548.731 433.55 L 597.671 433.55 L 632.331 435.9 L 670.901 439.62 L 706.931 443.34 C 715.351 444.9 734.331 452.85 742.951 472.12 L 753.731 498.75 Z"/>
<path transform="translate(0,0)" style="fill: rgb(255,255,255); fill-rule: evenodd" stroke-linecap="round" d="M 370.92 489.35 L 284.77 481.52 L 284.75 481.5 C 237.76 485.42 138.92 510.95 119.5 581.75 L 117.16 589.01 C 107.468 602.803 96.0808 623.115 87.7908 643.342 L 86.41 646.92 C 86.363 646.994 86.3145 647.073 86.2647 647.155 C 74.7342 676.694 70.4791 705.161 88.5097 711.88 L 96.0097 713.13 L 103.45 713.13 L 108.74 727.03 L 117.17 735.84 L 135.18 737.02 L 148.69 728.21 C 154.76 732.39 171.32 738.82 189.02 731.15 L 197.68 724.854 L 200.676 720.979 L 202.53 716.08 C 210.3 716.99 227.71 717.26 235.23 710.99 C 236.456 709.995 237.998 708.527 239.514 706.734 C 243.506 701.107 244.994 694.625 245.087 689.706 C 244.984 689.306 244.874 688.906 244.758 688.504 C 231.533 671.048 228.722 653.535 228.99 646.91 C 229.93 633.08 241.95 612.35 247.84 603.7 L 251.193 600.596 C 253.373 598.008 255.638 595.773 257.94 594.11 C 260.61 591.57 266.75 589.69 269.88 602.53 L 273.8 625.63 C 277.85 633.27 290.72 646.93 309.83 640.51 C 316.276 638.567 327.491 632.275 330.366 620.872 C 330.659 619.188 330.76 617.625 330.72 616.28 L 324.04 595.86 L 314.22 573.86 L 303.22 552.65 L 280.05 528.3 L 273.47 524.68 C 277.877 523.562 282.324 522.468 286.809 521.398 L 287.12 521.26 L 289.143 520.844 C 308.327 516.317 328.206 512.229 348.7 508.613 L 351.93 507.95 L 370.92 489.35 Z"/>
<path transform="translate(0,0)" style="fill: rgb(255,255,255); fill-rule: evenodd" stroke-linecap="round" d="M 783.48 489.35 L 869.64 481.52 L 869.63 481.51 C 916.62 485.43 1015.46 510.96 1034.88 581.76 L 1037.22 589.02 C 1038.02 590.162 1038.84 591.349 1039.66 592.577 L 1039.66 593.69 C 1064.78 629.841 1074.85 664.239 1077.88 684.283 C 1079 697.806 1075.84 708.174 1065.87 711.89 L 1058.37 713.14 L 1052.92 713.14 C 1052.89 713.127 1052.85 713.113 1052.82 713.1 C 1052.82 713.113 1052.81 713.127 1052.81 713.14 L 1050.93 713.14 L 1045.64 727.04 L 1037.22 735.85 L 1019.21 737.02 L 1007.47 729.365 C 1007.33 729.177 1007.2 728.992 1007.07 728.81 C 1007.01 728.867 1006.94 728.924 1006.88 728.98 L 1005.7 728.21 C 999.631 732.39 983.06 738.82 965.37 731.15 L 957.408 725.367 C 955.422 722.755 954.05 720.142 953.26 718.01 C 953.052 718.061 952.844 718.11 952.636 718.157 L 951.85 716.08 C 944.08 716.99 926.67 717.26 919.16 710.99 C 918.059 710.097 916.704 708.822 915.342 707.273 L 911.04 700.14 C 909.86 697.65 909.59 688.87 917.91 673.63 C 926.24 658.4 925.44 645.68 924 641.23 L 922.46 636.703 L 921.9 634.05 C 918.384 624.847 909.187 605.358 898.869 596.082 L 898.86 596.07 L 898.857 596.071 C 898.057 595.352 897.251 594.696 896.44 594.11 C 893.76 591.57 887.63 589.69 884.5 602.53 L 880.58 625.63 C 876.54 633.27 863.67 646.93 844.56 640.51 C 837.749 638.46 825.641 631.565 823.625 618.932 C 823.616 612.683 825.589 606.192 827.18 602.54 L 839.16 577.4 L 840.53 571.12 L 855.46 546.77 L 878.24 525.56 L 882.99 525.32 C 878.081 524.061 873.122 522.831 868.115 521.631 L 867.28 521.26 L 861.593 520.092 C 844.475 516.112 826.809 512.481 808.656 509.22 L 802.47 507.95 L 783.48 489.35 Z"/>
<path transform="translate(0,0)" style="fill: rgb(0,0,0); fill-rule: evenodd" stroke-linecap="round" d="M 374.603 477.553 C 374.598 477.552 374.594 477.551 374.59 477.55 L 374.6 477.55 L 374.603 477.553 Z M 374.603 477.553 L 389.68 492.91 L 402.35 492.91 L 416.21 465.54 C 411.831 471.589 397.775 482.576 374.603 477.553 Z"/>
<path transform="translate(0,0)" style="stroke: rgb(0,0,0); stroke-width: 2; stroke-miterlimit: 10; fill: rgb(0,0,0)" stroke-linecap="round" d="M 963.141 280.59 L 939.121 280.59 L 939.121 304.61 L 963.141 304.61 L 963.141 280.59 Z"/>
<path transform="translate(0,0)" style="stroke: rgb(0,0,0); stroke-width: 2.54; stroke-linecap: round; stroke-miterlimit: 10; fill: none" stroke-linecap="round" d="M 753.49 352.08 C 753.49 388.25 740.22 421.6 717.88 448.32 C 713.11 446.17 707.94 444.77 702.54 444.24 C 687.64 442.8 668.94 441.07 650.03 439.52 L 650.02 439.52 C 646.1 439.2 642.17 438.89 638.27 438.59 C 614.72 436.79 576.94 435.42 576.94 435.42 C 562.21 435.42 539.43 436.77 516.03 438.56 C 511.63 438.9 507.19 439.25 502.77 439.61 C 484.23 441.13 465.96 442.83 451.34 444.24 C 447.06 444.66 442.92 445.62 439.01 447.08 C 417.29 420.58 404.43 387.69 404.43 352.08 C 404.43 264.28 482.57 193.1 578.96 193.1 C 675.35 193.1 753.49 264.28 753.49 352.08 Z"/>
<path transform="translate(0,0)" style="stroke: rgb(0,0,0); stroke-width: 2.49; stroke-linecap: round; stroke-miterlimit: 10; fill: none" stroke-linecap="round" d="M 602.571 363.33 C 600.371 359.88 599.031 355.26 599.031 350.18 C 599.031 339.5 604.981 330.84 612.321 330.84 C 619.661 330.84 625.611 339.5 625.611 350.18 C 625.611 353.82 624.921 357.23 623.721 360.13"/>
<path transform="translate(0,0)" style="stroke: rgb(0,0,0); stroke-width: 1.84; stroke-miterlimit: 10; fill: rgb(0,0,0)" stroke-linecap="round" d="M 608.359 367.12 C 613.407 367.12 617.499 360.217 617.499 351.7 C 617.499 343.184 613.407 336.28 608.359 336.28 C 603.311 336.28 599.219 343.184 599.219 351.7 C 599.219 360.217 603.311 367.12 608.359 367.12 Z"/>
<path transform="translate(0,0)" style="stroke: rgb(0,0,0); stroke-width: 2.49; stroke-linecap: round; stroke-miterlimit: 10; fill: none" stroke-linecap="round" d="M 550.821 363.33 C 553.021 359.88 554.361 355.26 554.361 350.18 C 554.361 339.5 548.411 330.84 541.071 330.84 C 533.731 330.84 527.781 339.5 527.781 350.18 C 527.781 353.82 528.471 357.23 529.671 360.13"/>
<path transform="translate(0,0)" style="stroke: rgb(0,0,0); stroke-width: 1.84; stroke-miterlimit: 10; fill: rgb(0,0,0)" stroke-linecap="round" d="M 545.019 367.12 C 550.067 367.12 554.159 360.217 554.159 351.7 C 554.159 343.184 550.067 336.28 545.019 336.28 C 539.971 336.28 535.879 343.184 535.879 351.7 C 535.879 360.217 539.971 367.12 545.019 367.12 Z"/>
<path transform="translate(0,0)" style="stroke: rgb(0,0,0); stroke-width: 1.71; stroke-miterlimit: 10; fill: rgb(0,0,0)" stroke-linecap="round" d="M 593.959 371.44 C 594.779 373.37 593.879 375.59 591.949 376.41 C 590.019 377.23 581.589 379.65 580.779 377.72 C 579.969 375.79 587.069 370.24 588.999 369.42 C 590.929 368.6 593.149 369.5 593.969 371.43 L 593.959 371.44 Z"/>
<path transform="translate(0,0)" style="stroke: rgb(0,0,0); stroke-width: 1.71; stroke-miterlimit: 10; fill: rgb(0,0,0)" stroke-linecap="round" d="M 560.362 371.44 C 559.542 373.37 560.442 375.59 562.372 376.41 C 564.302 377.23 572.732 379.65 573.542 377.72 C 574.362 375.79 567.252 370.24 565.322 369.42 C 563.392 368.6 561.172 369.5 560.352 371.43 L 560.362 371.44 Z"/>
<path transform="translate(0,0)" style="stroke: rgb(0,0,0); stroke-width: 2.49; stroke-linecap: round; stroke-miterlimit: 10; fill: none" stroke-linecap="round" d="M 616.541 393.76 C 607.151 402.2 592.461 407.63 575.931 407.63 C 559.401 407.63 546.101 402.7 536.691 394.93"/>
<path transform="translate(0,0)" style="stroke: rgb(0,0,0); stroke-width: 2.49; stroke-linecap: round; stroke-miterlimit: 10; fill: none" stroke-linecap="round" d="M 630.902 387.79 C 637.312 397.96 640.902 410.08 640.602 423.05 C 640.482 428.42 639.672 433.62 638.272 438.59 C 614.722 436.79 591.752 435.42 576.942 435.42 C 562.212 435.42 539.432 436.77 516.032 438.56 C 514.512 433.14 513.712 427.44 513.712 421.54 C 513.712 409.2 517.232 397.69 523.332 387.95 C 525.442 384.57 524.702 380.15 521.552 377.7 C 511.182 369.63 504.512 357.04 504.512 342.88 C 504.512 318.54 524.252 298.8 548.602 298.8 C 557.792 298.8 566.342 301.62 573.412 306.44 C 575.582 307.92 578.412 307.91 580.582 306.43 C 588.282 301.18 597.732 298.31 607.872 298.87 C 630.222 300.11 648.312 318.3 649.412 340.66 C 650.142 355.59 643.442 369 632.692 377.5 C 629.542 379.98 628.762 384.4 630.902 387.79 Z"/>
<path transform="translate(0,0)" style="stroke: rgb(0,0,0); stroke-width: 2.49; stroke-linecap: round; stroke-miterlimit: 10; fill: none" stroke-linecap="round" d="M 710.83 368.53 C 710.83 391.12 692.51 409.44 669.92 409.44 C 669.39 409.44 668.85 409.43 668.32 409.41 C 667.52 421.87 663.29 432.24 650.03 439.52 L 650.02 439.52 C 646.1 439.2 642.17 438.89 638.27 438.59 C 614.72 436.79 591.75 435.42 576.94 435.42 C 562.21 435.42 539.43 436.77 516.03 438.56 C 511.63 438.9 507.19 439.25 502.77 439.61 C 489.36 432.34 485.4 421.94 484.92 409.43 C 484.56 409.44 484.2 409.44 483.84 409.44 C 461.25 409.44 442.93 391.12 442.93 368.53 C 442.93 345.94 461.25 327.61 483.84 327.61 C 487.5 327.61 491.05 328.09 494.42 328.99 C 507.55 296.26 539.57 273.15 576.99 273.15 C 614.41 273.15 646.4 296.24 659.53 328.94 C 662.85 328.07 666.33 327.61 669.92 327.61 C 692.51 327.61 710.83 345.93 710.83 368.53 Z"/>
<path transform="translate(0,0)" style="fill: rgb(0,0,0); fill-rule: evenodd" stroke-linecap="round" d="M 967.11 510.27 C 839.84 436.07 748.33 488.93 748.33 488.93 L 748.32 488.92 L 752.996 500.605 C 780.213 504.168 806.552 508.536 831.844 513.639 L 876.09 494.63 L 911.1 493.04 L 967.11 510.27 Z"/>
<path transform="translate(0,0)" style="stroke: rgb(0,0,0); stroke-width: 2.49; stroke-linecap: round; stroke-miterlimit: 10; fill: none" stroke-linecap="round" d="M 487.1 395.19 C 471.52 395.19 458.84 382.51 458.84 366.93 C 458.84 364.33 459.19 361.82 459.85 359.43 C 464.39 342.97 488.13 344.03 491.38 360.79 L 496.36 386.5"/>
<path transform="translate(0,0)" style="stroke: rgb(0,0,0); stroke-width: 2.49; stroke-linecap: round; stroke-miterlimit: 10; fill: none" stroke-linecap="round" d="M 474.559 375.23 C 473.299 370.08 476.449 364.89 481.599 363.62 C 486.749 362.36 491.939 365.51 493.209 370.66"/>
<path transform="translate(0,0)" style="stroke: rgb(0,0,0); stroke-width: 2.49; stroke-linecap: round; stroke-miterlimit: 10; fill: none" stroke-linecap="round" d="M 666.662 395.19 C 682.242 395.19 694.922 382.51 694.922 366.93 C 694.922 364.33 694.572 361.82 693.912 359.43 C 689.372 342.97 665.632 344.03 662.382 360.79 L 657.402 386.5"/>
<path transform="translate(0,0)" style="stroke: rgb(0,0,0); stroke-width: 2.49; stroke-linecap: round; stroke-miterlimit: 10; fill: none" stroke-linecap="round" d="M 679.201 375.23 C 680.461 370.08 677.311 364.89 672.161 363.62 C 667.011 362.36 661.821 365.51 660.551 370.66"/>
<path transform="translate(0,0)" style="stroke: rgb(0,0,0); stroke-width: 2.49; stroke-linecap: round; fill: none; fill-rule: evenodd" stroke-linecap="round" d="M 752.261 500.509 C 696.986 493.307 638.096 489.42 576.99 489.42 C 515.839 489.42 456.911 493.31 401.604 500.52 L 410.029 476.59 C 414.899 462.74 425.649 452.05 439.009 447.08 C 442.919 445.62 447.059 444.66 451.339 444.24 C 465.959 442.83 484.229 441.13 502.769 439.61 C 507.189 439.25 511.629 438.9 516.029 438.56 C 539.429 436.77 562.209 435.42 576.939 435.42 C 591.759 435.42 614.719 436.79 638.269 438.59 C 642.169 438.89 646.099 439.2 650.019 439.52 L 650.029 439.52 C 668.939 441.07 687.639 442.8 702.539 444.24 C 707.939 444.77 713.109 446.17 717.879 448.32 C 729.829 453.71 739.339 463.8 743.839 476.59 L 752.261 500.509 Z"/>
<path transform="translate(0,0)" style="stroke: rgb(0,0,0); stroke-width: 2.49; stroke-linecap: round; stroke-miterlimit: 10; fill: rgb(0,0,0)" stroke-linecap="round" d="M 576.51 477.85 C 582.629 477.85 587.59 471.08 587.59 462.73 C 587.59 454.379 582.629 447.61 576.51 447.61 C 570.39 447.61 565.43 454.379 565.43 462.73 C 565.43 471.08 570.39 477.85 576.51 477.85 Z"/>
<path transform="translate(0,0)" style="stroke: rgb(0,0,0); stroke-width: 2; stroke-miterlimit: 10; fill: rgb(255,255,255)" stroke-linecap="round" d="M 436.442 305.35 C 435.452 305.35 434.442 305.14 433.482 304.69 C 429.982 303.05 428.472 298.89 430.112 295.38 C 439.942 274.36 455.372 255.43 474.742 240.62 C 477.812 238.27 482.202 238.86 484.552 241.93 C 486.902 245 486.312 249.39 483.242 251.74 C 465.662 265.19 451.672 282.33 442.792 301.31 C 441.602 303.85 439.082 305.35 436.442 305.35 Z"/>
<path transform="translate(0,0)" style="fill: rgb(0,0,0)" stroke-linecap="round" d="M 456.073 398.26 L 466.593 386.12 C 466.593 386.12 476.413 394.76 490.163 393.55 C 490.163 393.55 496.932 416.88 513.932 409.59 C 513.932 409.59 512.443 435.96 516.023 438.56 L 502.763 439.61 C 502.763 439.61 481.793 429.09 484.913 409.43 C 484.913 409.43 469.972 411.06 456.062 398.26 L 456.073 398.26 Z"/>
<path transform="translate(0,0)" style="fill: rgb(0,0,0)" stroke-linecap="round" d="M 697.141 398.26 L 686.621 386.12 C 686.621 386.12 676.801 394.76 663.051 393.55 C 663.051 393.55 656.281 416.88 639.281 409.59 C 639.281 409.59 640.771 435.96 637.191 438.56 L 650.451 439.61 C 650.451 439.61 671.421 429.09 668.301 409.43 C 668.301 409.43 683.241 411.06 697.151 398.26 L 697.141 398.26 Z"/>
<path transform="translate(0,0)" style="fill: rgb(0,0,0)" stroke-linecap="round" d="M 477.311 328.46 C 477.311 328.46 490.071 332.61 495.111 340.62 L 496.591 326.08 L 494.411 328.99 L 477.301 328.46 L 477.311 328.46 Z"/>
<path transform="translate(0,0)" style="fill: rgb(0,0,0)" stroke-linecap="round" d="M 676.991 328.46 C 676.991 328.46 664.231 332.61 659.191 340.62 L 657.711 326.08 L 659.891 328.99 L 677.001 328.46 L 676.991 328.46 Z"/>
<path transform="translate(0,0)" style="stroke: rgb(0,0,0); stroke-width: 2; stroke-miterlimit: 10; fill: rgb(255,255,255)" stroke-linecap="round" d="M 497.27 242.25 C 501.964 242.25 505.77 238.444 505.77 233.75 C 505.77 229.056 501.964 225.25 497.27 225.25 C 492.575 225.25 488.77 229.056 488.77 233.75 C 488.77 238.444 492.575 242.25 497.27 242.25 Z"/>
<path transform="translate(0,0)" style="stroke: rgb(0,0,0); stroke-width: 2.54; stroke-linecap: round; stroke-miterlimit: 10; fill: rgb(255,255,255)" stroke-linecap="round" d="M 576.509 468.9 C 582.054 468.9 586.549 464.136 586.549 458.26 C 586.549 452.384 582.054 447.62 576.509 447.62 C 570.964 447.62 566.469 452.384 566.469 458.26 C 566.469 464.136 570.964 468.9 576.509 468.9 Z"/>
<path transform="translate(0,0)" style="stroke: rgb(0,0,0); stroke-width: 2.49; stroke-linecap: round; fill: rgb(0,0,0); fill-rule: evenodd" stroke-linecap="round" d="M 400.997 500.599 C 456.48 493.338 515.615 489.42 576.99 489.42 C 637.31 489.42 695.47 493.207 750.126 500.233 L 747.771 493.61 C 595.781 451.1 405.491 489.56 405.491 489.56 L 400.997 500.599 Z"/>
<path transform="translate(0,0)" style="stroke: rgb(0,0,0); stroke-width: 2.54; stroke-linecap: round; fill: none; fill-rule: evenodd" stroke-linecap="round" d="M 865.519 537.404 L 1038.23 592.59 C 1031.9 554.26 995.591 516.91 944.281 500.73 C 899.438 486.596 854.712 492.286 826.017 512.48 C 845.648 516.33 864.665 520.62 882.99 525.32 L 878.24 525.56 L 865.519 537.404 Z"/>
<path transform="translate(0,0)" style="stroke: rgb(0,0,0); stroke-width: 2.54; stroke-linecap: round; stroke-miterlimit: 10; fill: none" stroke-linecap="round" d="M 872.222 528.7 C 871.802 528.97 871.392 529.29 870.982 529.63 C 846.872 547.18 843.322 567.96 834.382 585.34 C 824.022 605.48 816.962 623.61 831.942 635.36 C 850.492 649.91 877.432 643.24 881.132 623.25 C 884.832 603.28 885.282 590.91 899.292 598.29 C 912.902 610.77 926.922 641.11 924.272 653.53 C 921.632 665.95 916.592 674.96 910.162 686.02 C 903.832 696.9 914.432 723.57 952.072 717.45 C 952.072 717.45 949.502 729.57 973.652 735.55 C 992.662 740.25 1006.33 728.61 1006.33 728.61 C 1006.33 728.61 1013.07 742.93 1035.43 736.89 C 1047.65 733.59 1051.33 713.73 1051.33 713.73 C 1051.33 713.73 1070.12 718.5 1076.13 703.83 C 1082.15 689.16 1072.86 664.42 1068.16 650.05 C 1054.78 609.2 1035.02 585 1013.13 567.81 C 973.922 537.01 903.272 508.49 872.232 528.69 L 872.222 528.7 Z"/>
<path transform="translate(0,0)" style="fill: rgb(0,0,0)" stroke-linecap="round" d="M 911.34 611.28 L 893.89 582.9 L 890.21 578.13 L 882.82 607.42 C 882.82 607.42 887.71 597.57 892 596.32 C 900.05 593.97 911.35 611.28 911.35 611.28 L 911.34 611.28 Z"/>
<path transform="translate(0,0)" style="stroke: rgb(0,0,0); stroke-width: 2.54; stroke-linecap: round; stroke-miterlimit: 10; fill: none" stroke-linecap="round" d="M 952.082 717.46 L 966.642 690.13 C 975.122 674.2 978.062 655.91 974.982 638.13 L 963.002 596.63"/>
<path transform="translate(0,0)" style="stroke: rgb(0,0,0); stroke-width: 2.54; stroke-linecap: round; stroke-miterlimit: 10; fill: none" stroke-linecap="round" d="M 1005.47 728.98 L 1020.03 701.65 C 1028.51 685.72 1031.45 667.43 1028.37 649.65 L 1016.39 608.15"/>
<path transform="translate(0,0)" style="stroke: rgb(0,0,0); stroke-width: 2.54; stroke-linecap: round; stroke-miterlimit: 10; fill: none" stroke-linecap="round" d="M 924.281 653.53 C 924.281 653.53 961.421 632.36 975.241 657.02"/>
<path transform="translate(0,0)" style="stroke: rgb(0,0,0); stroke-width: 2.54; stroke-linecap: round; stroke-miterlimit: 10; fill: none" stroke-linecap="round" d="M 974.652 669.98 C 974.652 669.98 1013.99 647.56 1028.64 673.68"/>
<path transform="translate(0,0)" style="stroke: rgb(0,0,0); stroke-width: 2.54; stroke-linecap: round; stroke-miterlimit: 10; fill: none" stroke-linecap="round" d="M 916.469 620.04 C 916.469 620.04 956.179 597.41 970.969 623.78"/>
<path transform="translate(0,0)" style="stroke: rgb(0,0,0); stroke-width: 2.54; stroke-linecap: round; stroke-miterlimit: 10; fill: none" stroke-linecap="round" d="M 974.82 635.94 C 974.82 635.94 1010.05 612.45 1025.71 640.39"/>
<path transform="translate(0,0)" style="stroke: rgb(0,0,0); stroke-width: 2.54; stroke-linecap: round; stroke-miterlimit: 10; fill: none" stroke-linecap="round" d="M 830.441 594.57 C 830.441 594.57 861.621 576.27 883.801 607.85"/>
<path transform="translate(0,0)" style="stroke: rgb(0,0,0); stroke-width: 2.54; stroke-linecap: round; stroke-miterlimit: 10; fill: none" stroke-linecap="round" d="M 841.051 570.9 C 841.051 570.9 869.371 550.38 891.551 581.95"/>
<path transform="translate(0,0)" style="stroke: rgb(255,255,255); stroke-width: 2.49; stroke-linecap: round; stroke-miterlimit: 10; fill: none" stroke-linecap="round" d="M 583.051 474.93 C 581.221 476.76 578.961 477.85 576.511 477.85 C 574.061 477.85 571.721 476.73 569.871 474.83"/>
<path transform="translate(0,0)" style="fill: rgb(0,0,0)" stroke-linecap="round" d="M 841.379 504.53 L 888.019 522.41 L 877.119 526.76 L 818.449 511.51 L 824.139 506.82 L 841.379 504.53 Z"/>
<path transform="translate(0,0)" style="fill: rgb(0,0,0)" stroke-linecap="round" d="M 877.122 526.76 C 877.122 526.76 853.322 551.87 852.622 564.92 L 841.602 569.47 L 853.832 545.84 L 863.982 535.65 L 870.982 529.64 L 877.122 526.77 L 877.122 526.76 Z"/>
<path transform="translate(0,0)" style="fill: rgb(0,0,0)" stroke-linecap="round" d="M 1005.52 562.32 C 1005.52 562.32 1033.33 579.43 1030.87 570.78 L 1036.06 582.14 L 1036.98 590.3 L 1023.06 575.4 L 1005.52 562.32 Z"/>
<path transform="translate(0,0)" style="stroke: rgb(0,0,0); stroke-width: 2.54; stroke-linecap: round; stroke-miterlimit: 10; fill: none" stroke-linecap="round" d="M 1051.31 713.85 L 1057.39 683.48 C 1060.93 665.79 1058.48 647.42 1050.41 631.28"/>
<path transform="translate(0,0)" style="stroke: rgb(0,0,0); stroke-width: 2.54; stroke-linecap: round; stroke-miterlimit: 10; fill: none" stroke-linecap="round" d="M 1026.24 686.24 C 1026.24 686.24 1052.14 659.58 1057.26 682.7"/>
<path transform="translate(0,0)" style="stroke: rgb(0,0,0); stroke-width: 2.54; stroke-linecap: round; stroke-miterlimit: 10; fill: none" stroke-linecap="round" d="M 1055.35 695.42 C 1055.35 695.42 1076.46 667.25 1078.18 689.3"/>
<path transform="translate(0,0)" style="stroke: rgb(0,0,0); stroke-width: 2.54; stroke-linecap: round; stroke-miterlimit: 10; fill: none" stroke-linecap="round" d="M 1058.99 661.29 C 1058.99 661.29 1067.61 645.2 1073.6 666.37"/>
<path transform="translate(0,0)" style="stroke: rgb(0,0,0); stroke-width: 2.54; stroke-linecap: round; stroke-miterlimit: 10; fill: none" stroke-linecap="round" d="M 1028.71 651.5 C 1028.71 651.5 1050.26 632.71 1056.99 650.2"/>
<path transform="translate(0,0)" style="fill: rgb(0,0,0)" stroke-linecap="round" d="M 1067.58 712.21 C 1067.58 712.21 1053.95 707.52 1055.61 696.06 L 1051.33 713.74 L 1058.21 715.51 L 1067.59 712.21 L 1067.58 712.21 Z"/>
<path transform="translate(0,0)" style="fill: rgb(0,0,0)" stroke-linecap="round" d="M 1020 736.79 C 1020 736.79 1007.82 729.07 1012.09 718.31 L 1006.33 728.62 L 1011.29 734.69 L 1020 736.79 Z"/>
<path transform="translate(0,0)" style="fill: rgb(0,0,0)" stroke-linecap="round" d="M 963.482 698.16 C 963.482 698.16 953.322 726.28 967.642 732.6 L 960.912 730.77 L 954.262 724.41 L 952.172 717.87 L 956.152 710.01 L 963.482 698.17 L 963.482 698.16 Z"/>
<path transform="translate(0,0)" style="fill: rgb(0,0,0)" stroke-linecap="round" d="M 922.601 663.32 C 922.601 663.32 908.371 703.74 923.141 713.61 L 912.811 706.27 L 909.481 697.61 L 908.891 691.18 L 910.171 686.02 L 922.601 663.32 Z"/>
<path transform="translate(0,0)" style="fill: rgb(0,0,0)" stroke-linecap="round" d="M 405.151 488.93 C 405.151 488.93 313.641 436.07 186.371 510.27 L 242.381 493.04 L 277.391 494.63 L 323.151 514.29 L 326.411 514.01 L 400.261 501.14 L 405.151 488.92 L 405.151 488.93 Z"/>
<path transform="translate(0,0)" style="stroke: rgb(0,0,0); stroke-width: 2.54; stroke-linecap: round; stroke-miterlimit: 10; fill: none" stroke-linecap="round" d="M 327.29 512.35 C 298.59 492.26 253.95 486.62 209.2 500.73 C 157.89 516.91 121.58 554.26 115.25 592.59"/>
<path transform="translate(0,0)" style="stroke: rgb(0,0,0); stroke-width: 2.54; stroke-linecap: round; stroke-miterlimit: 10; fill: none" stroke-linecap="round" d="M 281.259 528.7 C 281.679 528.97 282.089 529.29 282.499 529.63 C 306.609 547.18 310.159 567.96 319.099 585.34 C 329.459 605.48 336.519 623.61 321.539 635.36 C 302.989 649.91 276.049 643.24 272.349 623.25 C 268.649 603.28 268.199 590.91 254.189 598.29 C 240.579 610.77 226.559 641.11 229.209 653.53 C 231.849 665.95 236.889 674.96 243.319 686.02 C 249.649 696.9 239.049 723.57 201.409 717.45 C 201.409 717.45 203.979 729.57 179.829 735.55 C 160.819 740.25 147.149 728.61 147.149 728.61 C 147.149 728.61 140.409 742.93 118.049 736.89 C 105.829 733.59 102.149 713.73 102.149 713.73 C 102.149 713.73 83.3591 718.5 77.3491 703.83 C 71.3291 689.16 80.6191 664.42 85.3191 650.05 C 98.6991 609.2 118.459 585 140.349 567.81 C 179.559 537.01 250.209 508.49 281.249 528.69 L 281.259 528.7 Z"/>
<path transform="translate(0,0)" style="fill: rgb(0,0,0)" stroke-linecap="round" d="M 242.151 611.28 L 259.601 582.9 L 263.281 578.13 L 270.671 607.42 C 270.671 607.42 265.781 597.57 261.491 596.32 C 253.441 593.97 242.141 611.28 242.141 611.28 L 242.151 611.28 Z"/>
<path transform="translate(0,0)" style="stroke: rgb(0,0,0); stroke-width: 2.54; stroke-linecap: round; stroke-miterlimit: 10; fill: none" stroke-linecap="round" d="M 201.41 717.46 L 186.85 690.13 C 178.37 674.2 175.43 655.91 178.51 638.13 L 190.49 596.63"/>
<path transform="translate(0,0)" style="stroke: rgb(0,0,0); stroke-width: 2.54; stroke-linecap: round; stroke-miterlimit: 10; fill: none" stroke-linecap="round" d="M 148.02 728.98 L 133.46 701.65 C 124.98 685.72 122.04 667.43 125.12 649.65 L 137.1 608.15"/>
<path transform="translate(0,0)" style="stroke: rgb(0,0,0); stroke-width: 2.54; stroke-linecap: round; stroke-miterlimit: 10; fill: none" stroke-linecap="round" d="M 229.21 653.53 C 229.21 653.53 192.07 632.36 178.25 657.02"/>
<path transform="translate(0,0)" style="stroke: rgb(0,0,0); stroke-width: 2.54; stroke-linecap: round; stroke-miterlimit: 10; fill: none" stroke-linecap="round" d="M 178.842 669.98 C 178.842 669.98 139.502 647.56 124.852 673.68"/>
<path transform="translate(0,0)" style="stroke: rgb(0,0,0); stroke-width: 2.54; stroke-linecap: round; stroke-miterlimit: 10; fill: none" stroke-linecap="round" d="M 237.02 620.04 C 237.02 620.04 197.31 597.41 182.52 623.78"/>
<path transform="translate(0,0)" style="stroke: rgb(0,0,0); stroke-width: 2.54; stroke-linecap: round; stroke-miterlimit: 10; fill: none" stroke-linecap="round" d="M 178.66 635.94 C 178.66 635.94 143.43 612.45 127.77 640.39"/>
<path transform="translate(0,0)" style="stroke: rgb(0,0,0); stroke-width: 2.54; stroke-linecap: round; stroke-miterlimit: 10; fill: none" stroke-linecap="round" d="M 323.051 594.57 C 323.051 594.57 291.871 576.27 269.691 607.85"/>
<path transform="translate(0,0)" style="stroke: rgb(0,0,0); stroke-width: 2.54; stroke-linecap: round; stroke-miterlimit: 10; fill: none" stroke-linecap="round" d="M 312.441 570.9 C 312.441 570.9 284.121 550.38 261.941 581.95"/>
<path transform="translate(0,0)" style="fill: rgb(0,0,0)" stroke-linecap="round" d="M 312.109 504.53 L 265.469 522.41 L 281.179 527.39 L 335.339 514.15 L 329.339 506.82 L 312.109 504.53 Z"/>
<path transform="translate(0,0)" style="fill: rgb(0,0,0)" stroke-linecap="round" d="M 276.371 526.76 C 276.371 526.76 300.171 551.87 300.871 564.92 L 311.891 569.47 L 299.661 545.84 L 289.511 535.65 L 282.511 529.64 L 276.371 526.77 L 276.371 526.76 Z"/>
<path transform="translate(0,0)" style="fill: rgb(0,0,0)" stroke-linecap="round" d="M 147.972 562.32 C 147.972 562.32 120.162 579.43 122.622 570.78 L 117.432 582.14 L 116.512 590.3 L 130.432 575.4 L 147.972 562.32 Z"/>
<path transform="translate(0,0)" style="stroke: rgb(0,0,0); stroke-width: 2.54; stroke-linecap: round; stroke-miterlimit: 10; fill: none" stroke-linecap="round" d="M 102.17 713.85 L 96.0905 683.48 C 92.5505 665.79 95.0004 647.42 103.07 631.28"/>
<path transform="translate(0,0)" style="stroke: rgb(0,0,0); stroke-width: 2.54; stroke-linecap: round; stroke-miterlimit: 10; fill: none" stroke-linecap="round" d="M 127.25 686.24 C 127.25 686.24 101.35 659.58 96.2305 682.7"/>
<path transform="translate(0,0)" style="stroke: rgb(0,0,0); stroke-width: 2.54; stroke-linecap: round; stroke-miterlimit: 10; fill: none" stroke-linecap="round" d="M 98.1425 695.42 C 98.1425 695.42 77.0325 667.25 75.3125 689.3"/>
<path transform="translate(0,0)" style="stroke: rgb(0,0,0); stroke-width: 2.54; stroke-linecap: round; stroke-miterlimit: 10; fill: none" stroke-linecap="round" d="M 94.5006 661.29 C 94.5006 661.29 85.8806 645.2 79.8906 666.37"/>
<path transform="translate(0,0)" style="stroke: rgb(0,0,0); stroke-width: 2.54; stroke-linecap: round; stroke-miterlimit: 10; fill: none" stroke-linecap="round" d="M 124.772 651.5 C 124.772 651.5 103.222 632.71 96.4922 650.2"/>
<path transform="translate(0,0)" style="fill: rgb(0,0,0)" stroke-linecap="round" d="M 85.9006 712.21 C 85.9006 712.21 99.5306 707.52 97.8706 696.06 L 102.151 713.74 L 95.2706 715.51 L 85.8906 712.21 L 85.9006 712.21 Z"/>
<path transform="translate(0,0)" style="fill: rgb(0,0,0)" stroke-linecap="round" d="M 133.48 736.79 C 133.48 736.79 145.66 729.07 141.39 718.31 L 147.15 728.62 L 142.19 734.69 L 133.48 736.79 Z"/>
<path transform="translate(0,0)" style="fill: rgb(0,0,0)" stroke-linecap="round" d="M 190 698.16 C 190 698.16 200.16 726.28 185.84 732.6 L 192.57 730.77 L 199.22 724.41 L 201.31 717.87 L 197.33 710.01 L 190 698.17 L 190 698.16 Z"/>
<path transform="translate(0,0)" style="fill: rgb(0,0,0)" stroke-linecap="round" d="M 230.892 663.32 C 230.892 663.32 245.122 703.74 230.352 713.61 L 240.682 706.27 L 244.012 697.61 L 244.602 691.18 L 243.322 686.02 L 230.892 663.32 Z"/>
<path transform="translate(0,0)" style="fill: rgb(0,0,0)" stroke-linecap="round" d="M 738.902 465 C 738.902 465 749.932 482.42 781.282 477.19 C 812.632 471.96 778.382 494.61 778.382 494.61 L 751.672 497.51 L 738.902 465 Z"/>
<path transform="translate(0,0)" style="fill: rgb(0,0,0)" stroke-linecap="round" d="M 687.32 441.8 C 687.32 441.8 732.84 427.6 746.81 393.88 L 741.13 411.5 L 733.77 425.31 L 723.76 440.86 L 717.39 448.97 L 708.38 445.33 L 698.21 443.84 L 689.69 443.1 L 687.32 441.8 Z"/>
<path transform="translate(0,0)" style="fill: rgb(0,0,0)" stroke-linecap="round" d="M 471.189 441.8 C 471.189 441.8 425.669 427.6 411.699 393.88 L 417.379 411.5 L 424.739 425.31 L 434.749 440.86 L 439.019 447.07 L 450.139 445.32 L 460.309 443.83 L 468.829 443.09 L 471.199 441.79 L 471.189 441.8 Z"/>
<path transform="translate(0,0)" style="fill: rgb(0,0,0)" stroke-linecap="round" d="M 669.982 363.13 C 669.982 363.13 671.762 350.09 678.582 348.31 L 672.102 349.09 L 667.102 352.02 L 664.432 355.12 L 662.882 358.91 L 661.672 366.75 L 664.512 364.6 L 669.982 363.14 L 669.982 363.13 Z"/>
<path transform="translate(0,0)" style="fill: rgb(0,0,0)" stroke-linecap="round" d="M 483.799 363.13 C 483.799 363.13 482.019 350.09 475.199 348.31 L 481.679 349.09 L 486.679 352.02 L 489.349 355.12 L 490.899 358.91 L 492.109 366.75 L 489.269 364.6 L 483.799 363.14 L 483.799 363.13 Z"/>
<path transform="translate(0,0)" style="stroke: rgb(0,0,0); stroke-width: 2; stroke-miterlimit: 10; fill: rgb(0,0,0)" stroke-linecap="round" d="M 250.45 321.78 C 253.046 321.78 255.15 319.676 255.15 317.08 C 255.15 314.484 253.046 312.38 250.45 312.38 C 247.854 312.38 245.75 314.484 245.75 317.08 C 245.75 319.676 247.854 321.78 250.45 321.78 Z"/>
<path transform="translate(0,0)" style="stroke: rgb(0,0,0); stroke-width: 2; stroke-miterlimit: 10; fill: rgb(0,0,0)" stroke-linecap="round" d="M 265.13 321.78 C 267.725 321.78 269.83 319.676 269.83 317.08 C 269.83 314.484 267.725 312.38 265.13 312.38 C 262.534 312.38 260.43 314.484 260.43 317.08 C 260.43 319.676 262.534 321.78 265.13 321.78 Z"/>
<path transform="translate(0,0)" style="stroke: rgb(0,0,0); stroke-width: 2; stroke-miterlimit: 10; fill: rgb(0,0,0)" stroke-linecap="round" d="M 279.809 321.78 C 282.405 321.78 284.509 319.676 284.509 317.08 C 284.509 314.484 282.405 312.38 279.809 312.38 C 277.214 312.38 275.109 314.484 275.109 317.08 C 275.109 319.676 277.214 321.78 279.809 321.78 Z"/>
<path transform="translate(0,0)" style="stroke: rgb(0,0,0); stroke-width: 2; stroke-miterlimit: 10; fill: none" stroke-linecap="round" d="M 246.02 331.75 L 405.1 331.75"/>
<path transform="translate(0,0)" style="fill: rgb(0,0,0)" stroke-linecap="round" d="M 502.77 439.61 L 506.99 435.59 L 529.4 432.58 C 562.28 428.16 595.62 428.46 628.42 433.48 L 642.19 435.59 L 646.23 439.63 L 607.71 436.27 L 565.97 435.7 L 516.03 438.85 L 502.77 439.61 Z"/>
<path transform="translate(0,0)" style="fill: rgb(255,237,120)" stroke-linecap="round" d="M 474.76 525.26 C 478.19 526.7 480.23 528.52 480.41 530.63 C 480.97 537.21 463.14 544.09 440.58 545.98 C 418.02 547.87 399.28 544.07 398.72 537.49 C 398.5 534.96 401.01 532.38 405.47 530.06 C 404.51 531.13 404.04 532.22 404.13 533.3 C 404.62 539.06 421.03 542.4 440.78 540.74 C 460.53 539.08 476.15 533.06 475.65 527.3 C 475.59 526.58 475.28 525.91 474.76 525.27 L 474.76 525.26 Z"/>
<path transform="translate(0,0)" style="stroke: rgb(0,0,0); fill: none" stroke-linecap="round" d="M 416.152 525.76 C 405.472 528.82 398.632 533.08 398.982 537.24 C 399.532 543.87 418.132 547.72 440.512 545.85 C 462.902 543.98 480.592 537.09 480.042 530.47 C 479.772 527.2 475.092 524.6 467.732 523.03"/>
<path transform="translate(0,0)" style="stroke: rgb(0,0,0); fill: none" stroke-linecap="round" d="M 399.082 536.79 C 398.552 540.42 395.902 548.22 389.492 550.39"/>
<path transform="translate(0,0)" style="stroke: rgb(0,0,0); fill: none" stroke-linecap="round" d="M 479.609 528.97 C 480.919 532.99 485.779 541.18 494.709 541.79"/>
</svg>