<svg width="25" height="25" viewBox="0 0 25 25" fill="none" xmlns="http://www.w3.org/2000/svg">
<rect width="25" height="25" rx="4.34783" fill="white"/>
<path d="M17.6461 12.4122V12.1011L17.8574 12.0703C18.3261 12.0242 18.7026 11.6785 18.6834 11.2059L18.7602 4.50602C18.7602 4.42151 18.6911 4.35236 18.6066 4.35236L16.6281 4.35236C16.5436 4.35236 16.4744 4.42151 16.4744 4.50602L16.4744 10.549C16.4744 10.9985 16.1095 11.3596 15.6638 11.3596L11.0384 11.3596C10.9539 11.3596 10.8848 11.4288 10.8848 11.5133L10.8848 13.2152C10.8848 13.2997 10.9539 13.3688 11.0384 13.3688L15.6638 13.3688C16.1133 13.3688 16.4744 13.7338 16.4744 14.1794L16.4744 20.0034C16.4744 20.0879 16.5436 20.1571 16.6281 20.1571L18.6066 20.1571C18.6911 20.1571 18.7602 20.0879 18.7602 20.0034L18.6834 13.3035C18.7065 12.831 18.3184 12.4891 17.8574 12.4391L17.6461 12.4084V12.4122Z" fill="#15141B"/>
<path d="M11.0938 4.34778L8.37387 4.34778C7.70542 4.34778 7.1599 4.88946 7.1599 5.56175L7.1599 7.92824C7.1599 9.04617 6.73731 10.1372 5.99971 10.9324C5.7692 11.209 5.38119 11.3742 4.95861 11.3742H4.56291C4.44382 11.3742 4.34778 11.4703 4.34778 11.5894L4.34778 13.0262C4.34778 13.1453 4.44382 13.2413 4.56291 13.2413L4.95477 13.2413C5.37735 13.2413 5.76536 13.4065 5.99971 13.6908C6.74499 14.4899 7.15606 15.554 7.15606 16.6873L7.15606 18.9462C7.15606 19.6147 7.69773 20.1602 8.37003 20.1602L11.0899 20.1602C11.1745 20.1602 11.2436 20.091 11.2436 20.0065L11.2436 18.4468C11.2436 18.3623 11.1745 18.2931 11.0899 18.2931L9.34582 18.2931C9.1691 18.2931 9.02312 18.1471 9.02312 17.9704L9.02312 16.6873C9.02312 15.1545 8.45455 13.6639 7.47492 12.5652C7.45955 12.5498 7.44034 12.5383 7.41729 12.5383L7.18679 12.5191L7.18679 12.1311L7.38272 12.1157C7.40577 12.1157 7.42497 12.1042 7.44034 12.0888C8.45455 10.9248 9.02312 9.45339 9.02312 7.92824L9.02312 6.53754C9.02312 6.36083 9.1691 6.21484 9.34582 6.21484L11.0899 6.21484C11.1745 6.21484 11.2436 6.14569 11.2436 6.06117L11.2436 4.50145C11.2436 4.41693 11.1745 4.34778 11.0899 4.34778H11.0938ZM7.17142 12.3731V12.3616C7.17142 12.3616 7.17911 12.3616 7.17911 12.3577L7.17142 12.3731Z" fill="#15141B"/>
</svg>
