<svg width="396" height="448" viewBox="0 0 396 448" fill="none" xmlns="http://www.w3.org/2000/svg">
<path d="M396 6L386 0.226637L386 11.7736L396 6ZM1 446C0.447715 446 0 446.448 0 447C0 447.552 0.447715 448 1 448L1 447V446ZM338.672 6.0008L338.672 7.0008L387 7.00013L387 6.00013L387 5.00013L338.672 5.0008L338.672 6.0008ZM278.672 447V446L1 446V447L1 448L278.672 448V447ZM308.672 36.0008H307.672L307.672 417H308.672H309.672L309.672 36.0008H308.672ZM278.672 447V448C295.793 448 309.672 434.121 309.672 417H308.672H307.672C307.672 433.016 294.688 446 278.672 446V447ZM338.672 6.0008L338.672 5.0008C321.551 5.00104 307.672 18.8801 307.672 36.0008H308.672H309.672C309.672 19.9847 322.655 7.00102 338.672 7.0008L338.672 6.0008Z" fill="url(#paint0_linear_680_6647)"/>
<defs>
<linearGradient id="paint0_linear_680_6647" x1="100.885" y1="-148.35" x2="490.532" y2="294.524" gradientUnits="userSpaceOnUse">
<stop stop-color="white"/>
<stop offset="0.358867" stop-color="#F9BAF9"/>
<stop offset="1" stop-color="#9470FD"/>
</linearGradient>
</defs>
</svg>
