<svg width="125" height="29" viewBox="0 0 125 29" fill="none" xmlns="http://www.w3.org/2000/svg">
<g clip-path="url(#clip0_361_8189)">
<path fill-rule="evenodd" clip-rule="evenodd" d="M115.685 20.0621L115.598 19.3355C115.58 19.2142 115.17 16.3506 117.114 14.3364C117.679 13.7487 118.362 13.4121 118.986 13.4121C119.518 13.4121 119.956 13.6443 120.178 14.0871C121.252 16.2302 115.685 20.0621 115.685 20.0621ZM107.223 15.5495L107.148 14.3404L107.137 14.1886C107.135 14.1507 106.865 10.3258 107.106 7.60336C107.369 4.64256 108.235 2.72982 109.309 2.72982C109.529 2.72982 109.74 2.84281 109.904 3.04907C110.44 3.71828 110.597 5.50328 110.262 7.11152C109.721 9.67972 108.865 11.7162 108.238 13.2075C108.061 13.6292 107.904 14.0022 107.781 14.3265L107.223 15.5495ZM101.352 23.6134C99.9802 23.6134 99.3323 22.2965 99.3323 21.0585C99.3323 14.6712 102.851 13.4121 104.389 13.9028C104.389 13.9028 104.44 15.116 104.564 16.6774C104.672 18.0334 104.769 19.6384 104.792 19.7769C104.792 19.7769 103.514 23.6134 101.352 23.6134ZM90.1693 14.1511C90.1693 14.1511 89.7781 23.6134 86.216 23.6134C84.5095 23.6134 84.3771 21.7064 84.3771 21.1213C84.3771 14.3729 89.4836 13.1714 90.1693 14.1511ZM57.2132 23.8396C55.1697 23.8396 54.4421 21.8063 54.4421 19.9033C54.4421 16.4365 56.4567 13.7471 58.1889 13.7471C59.8762 13.7471 60.4891 16.0718 60.4891 17.6338C60.4891 21.1137 59.0498 23.8396 57.2132 23.8396ZM24.6951 15.7916C23.5236 17.6187 20.8554 19.4262 20.0801 19.7142C20.0801 19.7142 19.5234 16.1356 22.4367 14.0459C24.5712 12.5148 25.5418 14.4711 24.6951 15.7916ZM113.795 24.1833C114.627 25.4986 116.109 26.1393 118.204 26.1393C120.508 26.1393 122.891 24.402 124.255 22.7838C125.065 21.824 125.153 21.2726 124.812 20.9713C124.502 20.6974 123.817 21.0558 123.189 21.6255C122.343 22.3936 120.551 23.4978 118.982 23.4978C117.081 23.4978 116.214 22.2572 116.214 22.2572C120.087 19.8863 122.939 17.195 122.939 14.8851C122.939 12.2963 121.027 11.1387 119.131 11.1387C115.739 11.1387 112.078 14.2489 112.078 19.2743C112.078 20.9352 112.635 22.3463 112.635 22.3463C112.635 22.3463 111.963 23.3964 109.824 23.219C107.551 23.0307 107.695 18.9067 107.695 18.9067C107.695 18.9067 108.391 17.6059 108.653 17.1215C110.192 14.2852 112.297 10.4017 112.638 5.74501C112.827 3.13576 112.091 1.73458 111.439 1.01815C110.86 0.380238 110.086 0 109.369 0C106.74 0 104.916 2.7075 104.474 5.38192C104.041 8.00452 104.215 11.9057 104.215 11.9057C104.215 11.9057 101.853 11.3194 99.4825 12.9339C97.3135 14.4108 96.3513 17.3666 96.0484 18.8584C95.9105 19.526 95.8637 20.2267 95.9085 20.9398C95.9294 21.2724 96.031 21.9129 96.031 21.9129C96.031 21.9129 95.2511 23.5624 93.8652 23.5624C91.6327 23.5624 93.1064 13.1734 93.1921 12.5891C93.261 12.1186 93.5472 11.1144 91.9723 11.044C91.0206 11.0016 90.6237 11.3583 90.5507 11.8238L90.4867 12.2874C90.4867 12.2874 87.2583 10.0823 83.6035 14.0536C81.6564 16.1659 80.9495 19.2225 80.9175 21.6749L80.9158 21.8294C80.9158 21.8294 80.115 24.1537 78.2514 23.8057C77.0106 23.5741 76.8545 21.3581 76.8545 20.5015C76.8545 18.8584 77.2315 17.0274 77.5349 15.5561C77.7265 14.6236 77.8926 13.8197 77.8926 13.3799C77.8926 11.8087 77.4539 11.1387 76.4269 11.1387C75.0292 11.1387 73.7746 12.2505 72.3847 13.967C70.611 16.1575 69.2914 19.58 69.2914 19.58C69.2914 19.58 69.3495 18.9682 69.441 18.3783C69.5004 17.9969 69.6617 16.2302 69.9594 14.626C70.1246 13.738 70.1847 13.011 70.1952 12.9327C70.2474 12.4978 70.1495 12.1224 69.9129 11.8468C69.6801 11.5759 69.324 11.4201 68.9364 11.4201C68.3154 11.4201 67.5163 11.8368 67.1368 13.0062C66.9634 13.5343 66.864 13.9237 66.7404 14.5509L66.6242 15.1328L66.1924 14.7374C64.4818 13.167 62.1123 11.2955 58.7144 11.2955C53.9293 11.2955 51.3467 15.7426 51.3467 19.928C51.3467 20.4437 51.3787 20.9356 51.4406 21.3912L51.4647 21.5709C51.4647 21.5709 50.4659 23.999 48.7126 23.5566C47.945 23.3629 47.4722 22.541 47.4722 20.584C47.4722 18.9559 47.798 16.7434 47.9929 15.4158C48.0588 14.9652 48.1116 14.6095 48.1262 14.4436L48.1695 13.9526C48.3034 12.4747 48.3411 11.8071 47.8534 11.4852C47.4948 11.2517 47.1168 11.1387 46.6996 11.1387C46.2984 11.1387 45.9823 11.3252 45.7007 11.5265C45.2676 11.8376 43.8505 13.7314 41.1741 18.1167C41.1308 18.1876 41.1059 18.2255 41.1034 18.2289L40.8114 18.7933L40.1093 20.3455L40.4921 18.0902L40.5162 17.9425C40.5787 17.5631 40.6894 16.8945 40.7352 16.6816L40.8475 16.1922C41.0281 15.4066 41.4043 13.7727 41.4542 13.4839C41.6153 12.5267 41.5519 11.8872 41.2599 11.5299C41.044 11.2666 40.6831 11.1387 40.1559 11.1387C39.185 11.1387 38.4036 11.8796 37.0564 14.0756C36.8463 14.4189 36.0593 15.7292 35.4375 16.7665C34.6319 18.1109 33.9011 19.1053 33.9011 19.1053L34.071 17.308C34.2011 16.5009 34.688 12.794 34.6946 12.62C34.6928 11.8384 34.3078 11.4745 33.4821 11.4745C33.1461 11.4745 32.3267 11.5488 31.9834 12.237C31.6689 12.8659 30.7959 15.7147 30.3714 20.0713C30.3714 20.0713 26.9928 23.3543 23.3807 23.3543C22.0497 23.3543 20.9962 22.8314 20.6144 21.8099C20.6144 21.8099 22.5468 20.7963 23.4644 20.155C25.8143 18.5129 27.5237 16.8395 27.5237 14.6906C27.5237 12.0614 25.1236 10.8774 23.1409 11.1387C19.7359 11.5873 16.8579 15.1878 16.8579 19.37C16.8579 23.3041 19.0298 26.1393 22.8095 26.1393C27.1873 26.1393 30.2091 22.4956 30.2091 22.4956L30.1181 24.1588C30.0618 25.0257 30.4158 26.1393 31.8574 26.1393C32.2401 26.1393 32.939 26.0164 33.3105 25.1929C35.553 20.2482 37.9015 16.3267 37.9246 16.288L38.0049 16.1543L38.4124 15.3653L39.0191 14.3438L38.5329 16.5363C38.4446 17.0366 37.6712 21.4852 37.5605 23.4468C37.5034 24.437 37.5026 25.4115 37.8861 25.8291C38.0804 26.0413 38.3925 26.1393 38.8674 26.1393C39.9289 26.1393 40.5875 25.7689 40.825 25.0377C42.5532 19.7688 44.4155 16.2137 44.494 16.0644L44.567 15.9265L45.5442 14.003C45.5442 14.003 44.7733 18.3911 44.7733 21.3836C44.7733 22.8139 45.0523 25.4177 47.072 25.9124C50.181 26.674 52.0912 23.4277 52.0912 23.4277L52.2935 23.9964C53.1808 25.499 54.6555 26.2938 56.5586 26.2938C60.5019 26.2938 63.0502 23.2033 63.0502 18.4196C63.0502 15.4516 61.6943 13.7513 61.6943 13.7513C61.6943 13.7513 63.1992 14.2842 64.3044 15.0826C65.5017 15.9473 66.3521 16.8632 66.3521 16.8632L66.3224 17.0587C66.287 17.2865 66.255 17.5158 66.2228 17.7478C66.0985 18.6655 65.9887 19.6277 65.8956 20.6088C65.8098 21.5231 65.7655 22.3499 65.7655 23.0656C65.7655 23.5004 65.7889 23.9014 65.8385 24.2926C65.8818 24.6573 65.9709 24.9899 66.1017 25.2786C66.1435 25.3669 66.5358 26.1393 67.5274 26.1393C68.1893 26.1393 68.6142 25.898 68.9276 25.1632C71.992 17.976 74.4468 15.6726 74.6625 15.4437C75.2313 14.84 74.9746 15.9636 74.9746 15.9636L74.9522 16.1115C74.9481 16.1354 74.5694 18.5697 74.4843 19.31C74.3985 20.0402 74.3552 20.7375 74.3552 21.3836C74.3552 23.3856 74.7993 25.6672 77.1234 26.0277C80.3004 26.5208 81.4012 24.0185 81.4012 24.0185C81.4012 24.0185 82.5507 26.1393 85.2646 26.1393C89.2444 26.1393 90.4763 23.0771 90.4763 23.0771C90.8955 24.9195 91.6415 25.9124 93.4359 25.9124C95.3783 25.9124 96.7275 23.716 96.7275 23.716C96.7275 23.716 97.8511 26.1393 100.597 26.1393C103.775 26.1393 105.399 23.6967 105.466 23.5945L105.835 23.0143C105.835 23.0143 106.869 25.6495 109.538 25.801C112.061 25.944 113.795 24.1833 113.795 24.1833ZM4.7573 25.1248C1.95135 25.0204 1.79656 22.8308 4.37358 22.2654C6.72838 21.7489 8.69237 22.5757 8.69237 22.5757C8.69237 22.5757 8.09811 25.2493 4.7573 25.1248ZM17.2177 2.99088C18.839 3.1246 18.7171 5.38829 18.2759 6.80761C16.983 10.9683 13.8905 11.0925 13.8905 11.0925C13.8905 11.0925 14.8688 2.79718 17.2177 2.99088ZM13.6165 13.0807C13.6165 13.0807 18.8148 13.1154 20.5853 6.96126C21.6156 3.37969 20.1566 0.327228 17.1144 0.262659C14.0426 0.197492 11.6629 2.92731 10.5477 11.0861C10.5477 11.0861 7.57857 10.6929 6.26688 8.34271C5.64638 7.23069 4.71017 7.74824 5.00213 8.80505C5.9891 12.3786 10.3606 12.954 10.3606 12.954C10.3606 12.954 10.1795 14.5359 9.90923 16.4724C9.64697 18.351 9.19677 20.7148 9.19677 20.7148C9.19677 20.7148 6.43872 19.8395 3.50423 20.4547C-1.00536 21.4003 -1.50153 27.0122 4.01649 27.5664C10.4874 28.2161 11.7092 23.7254 11.7092 23.7254C11.7092 23.7254 12.9805 24.3452 14.7845 25.9642C16.7838 27.7583 17.6974 28.8712 18.1119 28.4724C18.5663 28.0351 17.5654 26.5084 15.7123 24.5616C13.6154 22.3585 12.164 21.7899 12.164 21.7899C12.164 21.7899 12.511 20.3325 12.8891 17.9678C13.2895 15.4648 13.6165 13.0807 13.6165 13.0807Z" fill="#111214"/>
</g>
<defs>
<clipPath id="clip0_361_8189">
<rect width="125" height="28.5533" fill="white"/>
</clipPath>
</defs>
</svg>
