<svg width="37" height="37" viewBox="0 0 37 37" fill="none" xmlns="http://www.w3.org/2000/svg">
<mask id="mask0_3830_1817" style="mask-type:luminance" maskUnits="userSpaceOnUse" x="0" y="0" width="37" height="37">
<path d="M36.82 0H0V36.82H36.82V0Z" fill="white"/>
</mask>
<g mask="url(#mask0_3830_1817)">
<path d="M33.224 0H3.595C1.61 0 0 1.60984 0 3.59574V33.2243C0 35.2101 1.61 36.82 3.595 36.82H33.224C35.21 36.82 36.82 35.2101 36.82 33.2243V3.59574C36.82 1.60984 35.21 0 33.224 0Z" fill="#3178C6"/>
<path d="M33.224 0H3.595C1.61 0 0 1.60984 0 3.59574V33.2243C0 35.2101 1.61 36.82 3.595 36.82H33.224C35.21 36.82 36.82 35.2101 36.82 33.2243V3.59574C36.82 1.60984 35.21 0 33.224 0Z" fill="#3178C6"/>
<path fill-rule="evenodd" clip-rule="evenodd" d="M22.7904 29.2992V32.8993C23.3764 33.1993 24.0684 33.4242 24.8674 33.5742C25.6664 33.7243 26.5084 33.7993 27.3944 33.7993C28.2564 33.7993 29.0764 33.7168 29.8534 33.5517C30.6294 33.3868 31.3104 33.1149 31.8954 32.7361C32.4814 32.3574 32.9444 31.8623 33.2854 31.2511C33.6274 30.6398 33.7984 29.8842 33.7984 28.9842C33.7984 28.3316 33.7004 27.7598 33.5054 27.2685C33.3104 26.7773 33.0284 26.3404 32.6614 25.9579C32.2934 25.5754 31.8524 25.2322 31.3384 24.9284C30.8244 24.6247 30.2454 24.3378 29.5994 24.0678C29.1274 23.8728 28.7034 23.6835 28.3284 23.4997C27.9534 23.3159 27.6344 23.1284 27.3714 22.9372C27.1084 22.7459 26.9064 22.5434 26.7634 22.3297C26.6214 22.1159 26.5494 21.874 26.5494 21.604C26.5494 21.3565 26.6134 21.1334 26.7414 20.9346C26.8684 20.7359 27.0484 20.5653 27.2814 20.4227C27.5144 20.2803 27.7994 20.1696 28.1364 20.0909C28.4744 20.0121 28.8494 19.9728 29.2624 19.9728C29.5624 19.9728 29.8794 19.9953 30.2134 20.0402C30.5474 20.0852 30.8824 20.1546 31.2204 20.2483C31.5584 20.3421 31.8864 20.4603 32.2054 20.6027C32.5244 20.7453 32.8184 20.9102 33.0884 21.0978V17.7339C32.5414 17.524 31.9424 17.3683 31.2934 17.2671C30.6444 17.1658 29.9004 17.1152 29.0594 17.1152C28.2044 17.1152 27.3944 17.2071 26.6284 17.3908C25.8634 17.5746 25.1894 17.8615 24.6084 18.2514C24.0264 18.6415 23.5674 19.1384 23.2294 19.7421C22.8924 20.3459 22.7234 21.0677 22.7234 21.9078C22.7234 22.9803 23.0324 23.8953 23.6514 24.6529C24.2704 25.4103 25.2104 26.0516 26.4714 26.5766C26.9664 26.7792 27.4274 26.9779 27.8554 27.1729C28.2834 27.3679 28.6524 27.5704 28.9644 27.7804C29.2754 27.9904 29.5214 28.2192 29.7014 28.4667C29.8814 28.7141 29.9714 28.9954 29.9714 29.3105C29.9714 29.543 29.9154 29.7586 29.8024 29.9573C29.6904 30.1561 29.5194 30.3285 29.2904 30.4748C29.0614 30.6211 28.7764 30.7354 28.4354 30.8179C28.0934 30.9005 27.6944 30.9417 27.2364 30.9417C26.4564 30.9417 25.6834 30.8048 24.9174 30.5311C24.1524 30.2573 23.4434 29.8467 22.7904 29.2992ZM16.7384 20.4291H21.3564V17.4748H8.48438V20.4291H13.0804V33.5835H16.7384V20.4291Z" fill="white"/>
</g>
</svg>
