<svg width="36" height="36" viewBox="0 0 36 36" fill="none" xmlns="http://www.w3.org/2000/svg">
<mask id="mask0_3830_1841" style="mask-type:luminance" maskUnits="userSpaceOnUse" x="0" y="0" width="36" height="36">
<path d="M35.2519 0H0V35.2519H35.2519V0Z" fill="white"/>
</mask>
<g mask="url(#mask0_3830_1841)">
<mask id="mask1_3830_1841" style="mask-type:alpha" maskUnits="userSpaceOnUse" x="0" y="0" width="36" height="36">
<path fill-rule="evenodd" clip-rule="evenodd" d="M24.9976 35.0082C25.5526 35.2245 26.1856 35.2106 26.7466 34.9409L34.0036 31.4486C34.7666 31.0817 35.2516 30.3098 35.2516 29.4631V5.78294C35.2516 4.93624 34.7666 4.16444 34.0036 3.79744L26.7466 0.305037C26.0106 -0.0488627 25.1496 0.0377379 24.5046 0.507038C24.4126 0.574138 24.3246 0.648938 24.2426 0.731438L10.3476 13.4073L4.29562 8.81334C3.73262 8.38574 2.94463 8.42074 2.42163 8.89674L0.480617 10.6624C-0.159383 11.2446 -0.160366 12.2515 0.478634 12.8346L5.72763 17.6229L0.478634 22.4113C-0.160366 22.9944 -0.159383 24.0013 0.480617 24.5835L2.42163 26.3492C2.94463 26.8252 3.73262 26.8602 4.29562 26.4326L10.3476 21.8386L24.2426 34.5145C24.4616 34.7344 24.7196 34.9 24.9976 35.0082ZM26.4436 9.62034L15.9016 17.6229L26.4436 25.6255V9.62034Z" fill="white"/>
</mask>
<g mask="url(#mask1_3830_1841)">
<path d="M34.0104 3.81825L26.7464 0.32095C25.9064 -0.0838498 24.9014 0.0869505 24.2414 0.74675L0.463383 22.4266C-0.175617 23.0097 -0.175633 24.0167 0.465367 24.5989L2.40738 26.3645C2.93138 26.8405 3.71939 26.8756 4.28339 26.448L32.9174 4.72545C33.8784 3.99675 35.2574 4.68185 35.2574 5.88765V5.80335C35.2574 4.95695 34.7734 4.18535 34.0104 3.81825Z" fill="#0065A9"/>
<g filter="url(#filter0_d_3830_1841)">
<path d="M34.0104 31.4675L26.7464 34.9647C25.9064 35.3696 24.9014 35.1988 24.2414 34.5389L0.463383 12.8591C-0.175617 12.2759 -0.175633 11.269 0.465367 10.6868L2.40738 8.92107C2.93138 8.44507 3.71939 8.41007 4.28339 8.83767L32.9174 30.5602C33.8784 31.289 35.2574 30.6038 35.2574 29.398V29.4824C35.2574 30.3287 34.7734 31.1003 34.0104 31.4675Z" fill="#007ACC"/>
</g>
<g filter="url(#filter1_d_3830_1841)">
<path d="M26.7511 34.9567C25.9101 35.3612 24.9061 35.1901 24.2461 34.5302C25.0591 35.3433 26.4491 34.7674 26.4491 33.6176V1.65966C26.4491 0.509864 25.0591 -0.0659364 24.2461 0.747064C24.9061 0.0871636 25.9101 -0.0838356 26.7511 0.320664L34.0141 3.81306C34.7771 4.18006 35.2621 4.95186 35.2621 5.79866V29.4788C35.2621 30.3255 34.7771 31.0974 34.0141 31.4644L26.7511 34.9567Z" fill="#1F9CF0"/>
</g>
<g style="mix-blend-mode:overlay" opacity="0.25">
<path fill-rule="evenodd" clip-rule="evenodd" d="M24.9825 35.0238C25.5375 35.2401 26.1705 35.2262 26.7315 34.9566L33.9885 31.4643C34.7515 31.0973 35.2365 30.3255 35.2365 29.4787V5.79862C35.2365 4.95182 34.7515 4.18003 33.9885 3.81303L26.7315 0.320626C25.9955 -0.0332745 25.1345 0.0534253 24.4895 0.522725C24.3975 0.589725 24.3095 0.664525 24.2265 0.747025L10.3325 13.4229L4.28048 8.82902C3.71748 8.40132 2.92949 8.43643 2.40649 8.91233L0.464504 10.678C-0.175496 11.2602 -0.175503 12.2671 0.463497 12.8503L5.71148 17.6386L0.463497 22.4269C-0.175503 23.0101 -0.175496 24.017 0.464504 24.5991L2.40649 26.3648C2.92949 26.8408 3.71748 26.8759 4.28048 26.4482L10.3325 21.8542L24.2265 34.5301C24.4465 34.75 24.7045 34.9157 24.9825 35.0238ZM26.4285 9.63603L15.8865 17.6386L26.4285 25.6412V9.63603Z" fill="url(#paint0_linear_3830_1841)"/>
</g>
</g>
</g>
<defs>
<filter id="filter0_d_3830_1841" x="-2.95328" y="5.6014" width="41.1488" height="32.5179" filterUnits="userSpaceOnUse" color-interpolation-filters="sRGB">
<feFlood flood-opacity="0" result="BackgroundImageFix"/>
<feColorMatrix in="SourceAlpha" type="matrix" values="0 0 0 0 0 0 0 0 0 0 0 0 0 0 0 0 0 0 127 0" result="hardAlpha"/>
<feOffset/>
<feGaussianBlur stdDeviation="1.46883"/>
<feColorMatrix type="matrix" values="0 0 0 0 0 0 0 0 0 0 0 0 0 0 0 0 0 0 0.25 0"/>
<feBlend mode="overlay" in2="BackgroundImageFix" result="effect1_dropShadow_3830_1841"/>
<feBlend mode="normal" in="SourceGraphic" in2="effect1_dropShadow_3830_1841" result="shape"/>
</filter>
<filter id="filter1_d_3830_1841" x="21.3084" y="-2.83414" width="16.8909" height="40.9456" filterUnits="userSpaceOnUse" color-interpolation-filters="sRGB">
<feFlood flood-opacity="0" result="BackgroundImageFix"/>
<feColorMatrix in="SourceAlpha" type="matrix" values="0 0 0 0 0 0 0 0 0 0 0 0 0 0 0 0 0 0 127 0" result="hardAlpha"/>
<feOffset/>
<feGaussianBlur stdDeviation="1.46883"/>
<feColorMatrix type="matrix" values="0 0 0 0 0 0 0 0 0 0 0 0 0 0 0 0 0 0 0.25 0"/>
<feBlend mode="overlay" in2="BackgroundImageFix" result="effect1_dropShadow_3830_1841"/>
<feBlend mode="normal" in="SourceGraphic" in2="effect1_dropShadow_3830_1841" result="shape"/>
</filter>
<linearGradient id="paint0_linear_3830_1841" x1="17.6105" y1="0.103525" x2="17.6105" y2="35.1737" gradientUnits="userSpaceOnUse">
<stop stop-color="white"/>
<stop offset="1" stop-color="white" stop-opacity="0"/>
</linearGradient>
</defs>
</svg>
