<svg width="36" height="41" viewBox="0 0 36 41" fill="none" xmlns="http://www.w3.org/2000/svg">
<mask id="mask0_3831_1797" style="mask-type:luminance" maskUnits="userSpaceOnUse" x="0" y="0" width="36" height="41">
<path d="M16.8298 0.25616L0.959101 9.41657C0.364601 9.75937 0 10.3923 0 11.0764V29.4101C0 30.0945 0.364601 30.727 0.959101 31.0699L16.831 40.2374C17.4243 40.5791 18.1558 40.5791 18.7484 40.2374L34.6176 31.0699C35.2091 30.727 35.5745 30.0942 35.5745 29.4101V11.0764C35.5745 10.3923 35.2091 9.75937 34.6139 9.41657L18.7469 0.25616C18.4493 0.0855103 18.1178 0 17.7863 0C17.4548 0 17.1233 0.0855103 16.8257 0.25616" fill="white"/>
</mask>
<g mask="url(#mask0_3831_1797)">
<path d="M51.6123 7.86208L6.89125 -14.0586L-16.0391 32.7189L28.6808 54.6407L51.6123 7.86208Z" fill="url(#paint0_linear_3831_1797)"/>
</g>
<mask id="mask1_3831_1797" style="mask-type:luminance" maskUnits="userSpaceOnUse" x="0" y="0" width="36" height="41">
<path d="M0.394531 30.5726C0.546331 30.7696 0.736232 30.9403 0.959532 31.0683L14.5738 38.9321L16.8416 40.2356C17.1806 40.4314 17.5671 40.5143 17.9469 40.4861C18.0734 40.4759 18.2 40.4522 18.3236 40.4171L35.0622 9.76806C34.9342 9.62866 34.7842 9.51187 34.6162 9.41397L24.2243 3.41296L18.7312 0.252395C18.5752 0.161985 18.4061 0.0979444 18.2339 0.0527344L0.394531 30.5726Z" fill="white"/>
</mask>
<g mask="url(#mask1_3831_1797)">
<path d="M-18.9414 14.3458L12.6362 57.0846L54.3981 26.2298L22.8186 -16.5078L-18.9414 14.3458Z" fill="url(#paint1_linear_3831_1797)"/>
</g>
<mask id="mask2_3831_1797" style="mask-type:luminance" maskUnits="userSpaceOnUse" x="1" y="0" width="35" height="41">
<path d="M17.6 0.0110664C17.3336 0.0374364 17.0733 0.120306 16.8334 0.256676L1.00781 9.39079L18.0727 40.473C18.3101 40.4391 18.5436 40.36 18.7546 40.2379L34.6253 31.0703C35.115 30.7863 35.4503 30.3056 35.552 29.7609L18.1556 0.0423265C18.0275 0.0170865 17.8994 0.00390625 17.7676 0.00390625C17.7149 0.00390625 17.6621 0.00653646 17.6094 0.0114365" fill="white"/>
</mask>
<g mask="url(#mask2_3831_1797)">
<path d="M1.00781 0.00390625V40.4738H35.5456V0.00390625H1.00781Z" fill="url(#paint2_linear_3831_1797)"/>
</g>
<defs>
<linearGradient id="paint0_linear_3831_1797" x1="29.2383" y1="-3.13271" x2="6.30955" y2="43.6416" gradientUnits="userSpaceOnUse">
<stop offset="0.3" stop-color="#3E863D"/>
<stop offset="0.5" stop-color="#55934F"/>
<stop offset="0.8" stop-color="#5AAD45"/>
</linearGradient>
<linearGradient id="paint1_linear_3831_1797" x1="-2.96336" y1="35.9602" x2="38.8002" y2="5.10177" gradientUnits="userSpaceOnUse">
<stop offset="0.57" stop-color="#3E863D"/>
<stop offset="0.72" stop-color="#619857"/>
<stop offset="1" stop-color="#76AC64"/>
</linearGradient>
<linearGradient id="paint2_linear_3831_1797" x1="1.01951" y1="20.24" x2="35.5521" y2="20.24" gradientUnits="userSpaceOnUse">
<stop offset="0.16" stop-color="#6BBF47"/>
<stop offset="0.38" stop-color="#79B461"/>
<stop offset="0.47" stop-color="#75AC64"/>
<stop offset="0.7" stop-color="#659E5A"/>
<stop offset="0.9" stop-color="#3E863D"/>
</linearGradient>
</defs>
</svg>
