<svg width="112" height="32" viewBox="0 0 112 32" fill="none" xmlns="http://www.w3.org/2000/svg">
<g clip-path="url(#clip0_361_8276)">
<path d="M46.7 13.9539C47.36 14.7959 47.7 15.8839 47.7 17.2019C47.7 18.5819 47.37 19.7169 46.723 20.6219C46.063 21.5259 45.16 21.9769 43.988 21.9769C43.255 21.9769 42.658 21.8299 42.218 21.5369C41.948 21.3669 41.656 21.0609 41.351 20.6209V21.7209H39.056V9.7659H41.376V14.0259C41.669 13.6109 41.999 13.3059 42.353 13.0859C42.768 12.8159 43.305 12.6829 43.953 12.6829C45.125 12.6829 46.041 13.1099 46.713 13.9529L46.7 13.9539ZM44.76 19.3509C45.09 18.8629 45.26 18.2509 45.26 17.4459C45.26 16.8229 45.175 16.2979 45.016 15.8829C44.699 15.1029 44.116 14.7109 43.294 14.7109C42.452 14.7109 41.864 15.0889 41.548 15.8589C41.388 16.2619 41.304 16.7869 41.304 17.4339C41.304 18.1909 41.474 18.8259 41.817 19.3259C42.16 19.8259 42.672 20.0709 43.367 20.0709C43.953 20.0709 44.43 19.8269 44.76 19.3509ZM52.16 11.8309H49.804V9.6939H52.148V11.8309H52.16ZM49.804 12.8809H52.148V21.7449H49.804V12.8809ZM59.264 12.8799C59.826 13.1119 60.277 13.5399 60.631 14.1619V12.8799H62.891V21.2919C62.891 22.4399 62.696 23.2939 62.317 23.8799C61.657 24.8799 60.387 25.3819 58.517 25.3819C57.382 25.3819 56.454 25.1619 55.745 24.7099C55.025 24.2699 54.645 23.6099 54.561 22.7099H57.076C57.136 22.9799 57.246 23.1739 57.393 23.2959C57.637 23.5039 58.065 23.6129 58.651 23.6129C59.481 23.6129 60.043 23.3329 60.324 22.7709C60.507 22.4169 60.604 21.8059 60.604 20.9639V20.3999C60.384 20.7779 60.14 21.0599 59.884 21.2549C59.42 21.6089 58.822 21.7799 58.089 21.7799C56.954 21.7799 56.039 21.3769 55.366 20.5829C54.682 19.7889 54.34 18.7029 54.34 17.3349C54.34 16.0149 54.67 14.9049 55.317 14.0149C55.977 13.1149 56.904 12.6719 58.101 12.6719C58.5014 12.6644 58.8995 12.735 59.273 12.8799H59.264ZM60.058 19.2299C60.436 18.8149 60.62 18.1679 60.62 17.2759C60.62 16.4339 60.45 15.7989 60.095 15.3589C59.9271 15.1457 59.7115 14.975 59.4656 14.8605C59.2196 14.746 58.9501 14.691 58.679 14.6999C57.873 14.6999 57.312 15.0779 57.006 15.8479C56.846 16.2509 56.762 16.7519 56.762 17.3499C56.762 17.8629 56.847 18.3269 57.018 18.7299C57.335 19.4749 57.898 19.8529 58.703 19.8529C59.228 19.8529 59.68 19.6449 60.058 19.2299ZM65.393 13.0749H66.823V14.2349C67.116 13.8349 67.423 13.5389 67.788 13.3189C68.276 12.9889 68.862 12.8309 69.534 12.8309C70.534 12.8309 71.364 13.2089 72.049 13.9659C72.745 14.7229 73.087 15.7959 73.087 17.2019C73.087 19.0939 72.587 20.4499 71.587 21.2679C70.952 21.7809 70.22 22.0379 69.387 22.0379C68.727 22.0379 68.187 21.8909 67.727 21.6109C67.471 21.4509 67.177 21.1709 66.847 20.7689V25.2249H65.382V13.0749H65.393ZM70.899 19.9119C71.351 19.3379 71.583 18.4819 71.583 17.3479C71.583 16.6519 71.485 16.0539 71.278 15.5529C70.9 14.5879 70.204 14.1129 69.19 14.1129C68.176 14.1129 67.49 14.6259 67.102 15.6389C66.907 16.1759 66.797 16.8719 66.797 17.7019C66.797 18.3739 66.895 18.9469 67.102 19.4239C67.48 20.3279 68.176 20.7789 69.19 20.7789C69.874 20.7669 70.448 20.4739 70.89 19.9119H70.899ZM79.923 16.4819C80.265 16.4319 80.485 16.2989 80.595 16.0549C80.655 15.9209 80.693 15.7379 80.693 15.4929C80.693 14.9929 80.51 14.6259 80.156 14.4059C79.802 14.1859 79.289 14.0639 78.63 14.0639C77.873 14.0639 77.324 14.2719 77.006 14.6869C76.823 14.9189 76.713 15.2609 76.652 15.7129H75.3C75.324 14.6389 75.678 13.8829 76.338 13.4659C77.01 13.0389 77.778 12.8309 78.67 12.8309C79.696 12.8309 80.526 13.0259 81.17 13.4169C81.814 13.8079 82.122 14.4169 82.122 15.2369V20.2549C82.1193 20.3837 82.1533 20.5106 82.22 20.6209C82.28 20.7189 82.415 20.7549 82.62 20.7549C82.68 20.7549 82.754 20.7549 82.84 20.7429L83.096 20.7059V21.7929L82.571 21.9149L82.083 21.9389C81.583 21.9389 81.216 21.7559 80.983 21.4019C80.861 21.2069 80.775 20.9379 80.727 20.5959C80.434 20.9959 79.994 21.3289 79.445 21.6089C78.883 21.9019 78.273 22.0359 77.601 22.0359C76.795 22.0359 76.136 21.7919 75.623 21.3029C75.11 20.8139 74.853 20.2029 74.853 19.4589C74.853 18.6529 75.109 18.0289 75.61 17.5789C76.11 17.1389 76.77 16.8589 77.61 16.7609L79.923 16.4819ZM76.846 20.4379C77.151 20.6819 77.518 20.8039 77.946 20.8039C78.459 20.8039 78.959 20.6819 79.448 20.4499C80.266 20.0499 80.668 19.4119 80.668 18.5099V17.3379C80.4529 17.4602 80.223 17.5543 79.984 17.6179C79.712 17.6932 79.4345 17.7464 79.154 17.7769L78.274 17.8769C77.749 17.9499 77.346 18.0599 77.077 18.2069C76.625 18.4629 76.393 18.8669 76.393 19.4269C76.381 19.8419 76.527 20.1839 76.845 20.4269L76.846 20.4379ZM85 13.0379H86.392V14.2709C86.807 13.7579 87.234 13.3909 87.698 13.1709C88.162 12.9509 88.675 12.8409 89.236 12.8409C90.469 12.8409 91.312 13.2679 91.739 14.1349C91.983 14.6109 92.093 15.2829 92.093 16.1619V21.7539H90.593V16.2599C90.593 15.7229 90.52 15.2949 90.361 14.9779C90.105 14.4409 89.628 14.1599 88.945 14.1599C88.603 14.1599 88.31 14.1969 88.09 14.2599C87.6717 14.3879 87.3017 14.6388 87.028 14.9799C86.784 15.2729 86.625 15.5659 86.552 15.8799C86.479 16.1939 86.452 16.6249 86.452 17.1999V21.7659H84.987V13.0359L85 13.0379ZM99.52 13.3079C99.776 13.4679 100.07 13.7599 100.4 14.1629V9.7679H101.804V21.7679H100.484V20.5679C100.142 21.1049 99.739 21.4959 99.284 21.7279C98.82 21.9719 98.284 22.0819 97.684 22.0819C96.719 22.0819 95.877 21.6789 95.169 20.8619C94.461 20.0449 94.107 18.9569 94.107 17.6019C94.107 16.3319 94.424 15.2319 95.072 14.3049C95.72 13.3779 96.635 12.9129 97.844 12.9129C98.528 12.9009 99.077 13.0469 99.529 13.3279L99.52 13.3079ZM96.248 19.8399C96.648 20.4749 97.274 20.7799 98.14 20.7799C98.812 20.7799 99.373 20.4869 99.8 19.8999C100.24 19.3139 100.447 18.4839 100.447 17.3969C100.447 16.2969 100.227 15.4799 99.775 14.9549C99.323 14.4299 98.775 14.1609 98.115 14.1609C97.7725 14.1513 97.4326 14.2225 97.1228 14.3688C96.813 14.5151 96.5421 14.7323 96.332 15.0029C95.88 15.5649 95.648 16.3949 95.648 17.5029C95.66 18.4309 95.856 19.2029 96.246 19.8469L96.248 19.8399ZM109.14 16.4829C109.482 16.4329 109.702 16.2999 109.812 16.0559C109.872 15.9219 109.91 15.7389 109.91 15.4939C109.91 14.9939 109.727 14.6269 109.373 14.4069C109.019 14.1869 108.506 14.0649 107.847 14.0649C107.09 14.0649 106.541 14.2729 106.223 14.6879C106.04 14.9199 105.93 15.2619 105.869 15.7139H104.499C104.523 14.6399 104.877 13.8839 105.537 13.4669C106.209 13.0399 106.977 12.8319 107.869 12.8319C108.895 12.8319 109.725 13.0269 110.369 13.4179C111.013 13.8089 111.321 14.4179 111.321 15.2379V20.2559C111.318 20.3847 111.352 20.5117 111.419 20.6219C111.479 20.7199 111.614 20.7559 111.819 20.7559C111.879 20.7559 111.953 20.7559 112.039 20.7439L112.295 20.7069V21.7939L111.77 21.9159L111.282 21.9399C110.782 21.9399 110.415 21.7569 110.182 21.4029C110.06 21.2079 109.974 20.9389 109.926 20.5969C109.633 20.9969 109.193 21.3299 108.644 21.6099C108.082 21.9029 107.472 22.0369 106.8 22.0369C105.994 22.0369 105.335 21.7929 104.822 21.3039C104.309 20.8149 104.052 20.2039 104.052 19.4599C104.052 18.6539 104.308 18.0299 104.809 17.5799C105.309 17.1399 105.969 16.8599 106.809 16.7619L109.14 16.4829ZM106.04 20.4389C106.345 20.6829 106.712 20.8049 107.14 20.8049C107.653 20.8049 108.153 20.6829 108.642 20.4509C109.46 20.0509 109.862 19.4129 109.862 18.5109V17.3409C109.647 17.4632 109.417 17.5573 109.178 17.6209C108.906 17.6962 108.628 17.7494 108.348 17.7799L107.468 17.8799C106.943 17.9529 106.54 18.0629 106.271 18.2099C105.819 18.4659 105.587 18.8699 105.587 19.4299C105.587 19.8449 105.734 20.1869 106.039 20.4299L106.04 20.4389ZM22.287 31.7749L30.615 27.6729L31.912 21.9389C31.927 21.9319 31.942 21.9239 31.956 21.9089C33.129 21.1789 33.661 20.3209 34.302 18.0769L34.397 17.7419C34.937 15.8619 35.037 15.5489 35.432 15.3379L35.556 15.2719L35.84 13.2319V13.2019C35.847 13.0019 35.753 12.7499 35.512 12.6769C35.49 12.6699 34.266 12.2769 31.709 12.1229L30.989 9.5659L32.8 7.8999C34.447 6.1369 34.352 3.3749 32.6 1.7299L32.258 1.4099C30.495 -0.237099 27.726 -0.1421 26.078 1.6099L24.518 3.2859L17.8 1.8579L10.703 3.2719L9.15096 1.6119C8.3594 0.76315 7.26333 0.263258 6.10348 0.222009C4.94363 0.180759 3.81482 0.601526 2.96496 1.3919L2.62296 1.7119C0.859962 3.3589 0.764961 6.1199 2.42296 7.8819L4.23696 9.5519L3.51696 12.1389C1.18496 12.3069 0.0929617 12.6709 0.0709617 12.6709C-0.169038 12.7369 -0.271038 12.9839 -0.257038 13.1959L0.0429619 15.2579L0.166961 15.3239C0.559961 15.5239 0.661962 15.8559 1.20196 17.7359L1.29696 18.0639C1.84996 20.1139 2.34496 20.9999 3.31396 21.6999L4.96096 27.6669L13.281 31.7689L22.287 31.7749ZM26.855 21.7489H26.805C24.758 21.7489 23.483 21.0349 23.025 20.7219C22.305 20.2339 21.407 19.1549 21.072 18.3619C20.73 17.5619 20.577 16.0599 20.772 15.4399C20.972 14.8429 21.879 14.4639 22.55 14.2399C23.913 13.7659 26.288 13.5549 26.302 13.5549L28.277 13.4969L29.837 13.5469C30.515 13.5969 31.054 13.6929 31.484 13.8169C32.104 14.0169 32.387 14.2539 32.577 14.4799C32.803 14.7349 33.131 15.4999 32.817 17.7879C32.687 18.7129 32.424 19.4419 32.017 20.0179C31.8131 20.3078 31.5619 20.5613 31.274 20.7679C30.974 20.9679 30.604 21.1609 30.174 21.3079C29.329 21.6079 28.214 21.7519 26.859 21.7599L26.855 21.7489ZM7.47496 6.0189L17.775 3.7529L27.721 6.0189L29.721 12.0589H29.393L28.781 12.0659C27.316 12.0879 25.851 12.2119 24.387 12.4159L22.187 12.7959L20.511 13.1889C19.461 13.4509 18.771 13.6259 17.811 13.6259C16.835 13.6259 16.141 13.4509 15.093 13.1889L13.41 12.7889L10.925 12.3739C9.43096 12.1769 7.93796 12.0679 6.44496 12.0609H6.19696L5.50496 12.0679L7.47496 6.0189ZM7.25496 13.4869L9.22996 13.5369C9.25196 13.5369 11.627 13.7369 12.997 14.2219C13.667 14.4549 14.585 14.8339 14.775 15.4219C14.972 16.0339 14.819 17.5349 14.475 18.3439C14.14 19.1379 13.251 20.2169 12.53 20.7039C12.078 21.0099 10.796 21.7309 8.74996 21.7309H8.69996C7.13996 21.7239 5.89496 21.5309 4.99996 21.1309C4.74628 21.0267 4.50483 20.8949 4.27996 20.7379C3.8414 20.4214 3.48846 20.0008 3.25296 19.5139C3.00496 19.0259 2.83796 18.4499 2.75296 17.7579C2.43996 15.4699 2.76796 14.7049 2.99296 14.4429C3.19591 14.2071 3.45337 14.0245 3.74296 13.9109C4.14296 13.7359 4.67596 13.6109 5.37496 13.5469C5.90696 13.4969 6.54796 13.4669 7.27696 13.4669L7.25496 13.4869ZM13.703 30.2739L6.15496 26.5579L5.14996 22.5079C6.12596 22.7559 7.34296 22.9009 8.57396 22.9009C9.11475 22.9029 9.65513 22.8712 10.192 22.8059C13.136 22.4559 14.607 20.6129 14.877 20.2409C15.46 19.4409 16.123 17.9909 16.691 16.6929C16.895 16.2329 17.675 16.2129 17.784 16.2129H17.864C18.09 16.2279 18.694 16.2999 18.869 16.6929C19.437 17.9969 20.099 19.4399 20.683 20.2409C20.945 20.6049 22.417 22.4559 25.368 22.8059C25.9051 22.8681 26.4453 22.8998 26.986 22.9009C28.064 22.9009 29.128 22.8009 30.032 22.5949L29.032 26.5589L21.848 30.2749L13.703 30.2739ZM18.178 25.9599C19.154 25.8729 21.551 25.4999 21.34 24.0439C21.26 23.5779 20.91 22.5499 17.777 23.2209C14.644 22.5509 14.277 23.5779 14.214 24.0439C14.014 25.5009 16.394 25.8739 17.376 25.9599V27.3079H14.236L14.79 28.3579H20.772L21.326 27.3079H18.186V25.9599H18.178Z" fill="#111214"/>
</g>
<defs>
<clipPath id="clip0_361_8276">
<rect width="112" height="32" fill="white"/>
</clipPath>
</defs>
</svg>
