<svg width="34" height="62" viewBox="0 0 34 62" fill="none" xmlns="http://www.w3.org/2000/svg">
<g opacity="0.5">
<path d="M10.6572 34.7031C10.6572 34.7031 8.94217 35.7003 11.8772 36.0378C15.4332 36.4434 17.2502 36.3853 21.1692 35.6436C21.1692 35.6436 22.1992 36.2896 23.6382 36.8491C14.8542 40.614 3.75717 36.631 10.6572 34.7031Z" fill="#111214"/>
<path d="M9.58706 29.791C9.58706 29.791 7.66305 31.2147 10.601 31.5185C14.399 31.9104 17.399 31.9425 22.59 30.9429C22.59 30.9429 23.308 31.6708 24.437 32.0688C13.816 35.1746 1.98606 32.3138 9.58706 29.791Z" fill="#111214"/>
<path d="M18.6336 21.4571C20.7976 23.9491 18.0646 26.1916 18.0646 26.1916C18.0646 26.1916 23.5606 23.3544 21.0366 19.8015C18.6796 16.4882 16.8716 14.842 26.6586 9.16602C26.6586 9.16602 11.2966 13.0028 18.6336 21.4571Z" fill="#111214"/>
<path d="M30.253 38.3365C30.253 38.3365 31.522 39.3822 28.855 40.1911C23.785 41.7271 7.75103 42.1909 3.29703 40.2523C1.69604 39.5557 4.69903 38.5891 5.64303 38.3863C6.62803 38.1727 7.19103 38.2125 7.19103 38.2125C5.41003 36.9581 -4.31797 40.6755 2.24903 41.74C20.16 44.6446 34.899 40.4321 30.253 38.3365Z" fill="#111214"/>
<path d="M11.4856 24.7007C11.4856 24.7007 3.32965 26.6378 8.59665 27.3412C10.8216 27.639 15.2546 27.5716 19.3846 27.2256C22.7596 26.9409 26.1496 26.3355 26.1496 26.3355C26.1496 26.3355 24.9586 26.8452 24.0976 27.4332C15.8156 29.6113 -0.183361 28.598 4.42264 26.37C8.31764 24.4871 11.4856 24.7007 11.4856 24.7007Z" fill="#111214"/>
<path d="M26.1143 32.877C34.5333 28.5022 30.6403 24.298 27.9233 24.8644C27.2573 25.003 26.9603 25.1231 26.9603 25.1231C26.9603 25.1231 27.2083 24.7359 27.6803 24.5682C33.0553 22.6785 37.1893 30.1417 25.9453 33.0975C25.9453 33.0975 26.0753 32.9812 26.1143 32.877Z" fill="#111214"/>
<path d="M21.0374 0C21.0374 0 25.6994 4.66413 16.6154 11.8363C9.33035 17.5895 14.9534 20.8699 16.6124 24.6179C12.3594 20.7811 9.23836 17.4036 11.3324 14.2602C14.4054 9.6459 22.9184 7.4087 21.0374 0Z" fill="#111214"/>
<path d="M12.3127 44.7338C20.3937 45.2511 32.8037 44.4468 33.0977 40.623C33.0977 40.623 32.5327 42.0725 26.4187 43.2237C19.5207 44.5217 11.0138 44.3702 5.96875 43.5383C5.96875 43.5383 7.00174 44.3932 12.3127 44.7338Z" fill="#111214"/>
</g>
<path d="M5.30547 57.0432C5.30547 58.3482 8.90547 57.2412 8.90547 59.7432C8.90547 61.0032 7.86147 61.7322 6.43047 61.7322C4.98147 61.7322 3.94647 61.0662 3.73047 59.6712H5.25146C5.36846 60.2742 5.79147 60.6072 6.43947 60.6072C7.08747 60.6072 7.42947 60.3462 7.42947 59.9232C7.42947 58.5552 3.82047 59.5992 3.82047 57.1782C3.82047 56.1522 4.67547 55.3242 6.17847 55.3242C7.44747 55.3242 8.54547 55.9272 8.73447 57.3402H7.19547C7.06947 56.7372 6.71847 56.4492 6.12447 56.4492C5.62047 56.4492 5.30547 56.6832 5.30547 57.0432ZM12.7475 61.7322C10.8485 61.7322 9.67847 60.5082 9.67847 58.5372C9.67847 56.5572 10.8485 55.3242 12.7475 55.3242C14.6375 55.3242 15.8075 56.5572 15.8075 58.5372C15.8075 60.5082 14.6375 61.7322 12.7475 61.7322ZM12.7475 60.5532C13.7465 60.5532 14.3315 59.7972 14.3315 58.5372C14.3315 57.2772 13.7465 56.5032 12.7475 56.5032C11.7395 56.5032 11.1545 57.2682 11.1545 58.5372C11.1545 59.7972 11.7395 60.5532 12.7475 60.5532ZM19.7565 61.7322C17.8575 61.7322 16.6875 60.5082 16.6875 58.5372C16.6875 56.5572 17.8575 55.3242 19.7565 55.3242C21.6465 55.3242 22.8165 56.5572 22.8165 58.5372C22.8165 60.5082 21.6465 61.7322 19.7565 61.7322ZM19.7565 60.5532C20.7555 60.5532 21.3405 59.7972 21.3405 58.5372C21.3405 57.2772 20.7555 56.5032 19.7565 56.5032C18.7485 56.5032 18.1635 57.2682 18.1635 58.5372C18.1635 59.7972 18.7485 60.5532 19.7565 60.5532ZM23.8945 61.5882V55.4682H25.4155L27.3505 58.6812L27.8185 59.6532L27.7465 55.4682H29.1865V61.5882H27.6655L25.7305 58.3752L25.2625 57.3942L25.3345 61.5882H23.8945Z" fill="#888889"/>
</svg>
