<svg width="130" height="17" viewBox="0 0 130 17" fill="none" xmlns="http://www.w3.org/2000/svg">
<g clip-path="url(#clip0_361_8176)">
<path d="M39.6192 1.6543C39.5758 1.6543 39.5541 1.67598 39.5541 1.71935V13.7536L32.5938 1.69767C32.5721 1.67598 32.5721 1.67598 32.5504 1.67598H30.9675C30.9458 1.67598 30.9458 1.67598 30.9242 1.69767C30.9025 1.71935 30.9025 1.71935 30.9025 1.74103V16.5724C30.9025 16.6158 30.9242 16.6374 30.9675 16.6374H32.2685C32.2902 16.6374 32.2902 16.6374 32.3119 16.6158C32.3336 16.5941 32.3336 16.5941 32.3336 16.5724V4.38639L39.6408 16.6158C39.6408 16.6374 39.6625 16.6374 39.6842 16.6374H40.9418C40.9635 16.6374 40.9635 16.6374 40.9852 16.6158C41.0069 16.5941 41.0069 16.5941 41.0069 16.5724V1.71935C41.0069 1.67598 40.9852 1.6543 40.9418 1.6543H39.6192ZM103.52 10.2626L103.325 9.91563L103.39 9.89394L103.585 9.8289C105.081 9.37355 105.862 8.5279 106.057 7.18353C106.165 6.29452 106.165 5.40551 106.057 4.53818C105.948 3.49738 105.298 2.67341 104.17 2.13133C103.52 1.82777 102.804 1.67598 102.089 1.67598C100.744 1.67598 96.7329 1.71935 96.6896 1.71935C96.6462 1.71935 96.6245 1.74103 96.6245 1.7844V16.5941C96.6245 16.6374 96.6462 16.6591 96.6896 16.6591H98.164C98.2074 16.6591 98.2291 16.6374 98.2291 16.5941V10.2626H99.6602H101.026C101.265 10.2626 101.698 10.3059 101.894 10.6312C103.043 12.4959 105.32 16.6158 105.341 16.6591C105.363 16.6808 105.363 16.6808 105.385 16.6808H106.23C106.274 16.6808 106.295 16.6591 106.295 16.6158V14.686C106.295 14.6643 106.295 14.6643 106.295 14.6426C105.363 13.4066 104.149 11.3467 103.52 10.2626ZM104.669 5.81749C104.669 7.70394 104.17 8.72305 101.482 8.72305H98.2291V3.08539H100.224H102.349C103.802 3.08539 104.669 4.10451 104.669 5.81749ZM22.446 1.71935H23.9205C23.9638 1.71935 23.9855 1.74103 23.9855 1.7844V16.5941C23.9855 16.6374 23.9638 16.6591 23.9205 16.6591H22.446C22.4026 16.6591 22.3809 16.6374 22.3809 16.5941V1.7844C22.3809 1.74103 22.4243 1.71935 22.446 1.71935ZM121.56 5.08026C121.539 4.06115 121.018 3.10708 120.173 2.54331C119.327 1.95786 118.329 1.6543 117.31 1.67598C115.944 1.67598 112.128 1.69767 112.085 1.69767C112.041 1.69767 112.02 1.71935 112.02 1.76271V16.5724C112.02 16.6158 112.041 16.6374 112.085 16.6374C112.106 16.6374 114.231 16.6591 115.879 16.6591C116.443 16.6591 116.963 16.6591 117.332 16.6591C117.809 16.6591 118.286 16.5941 118.741 16.464C120.541 15.9653 121.582 14.7076 121.56 13.0163C121.56 12.5393 121.56 12.084 121.56 11.6069C121.56 11.2383 121.56 10.8697 121.56 10.5011C121.56 10.0024 121.56 9.50364 121.56 9.00493C121.604 7.70393 121.604 6.38126 121.56 5.08026ZM120.173 12.5393C120.173 13.2765 119.891 13.9704 119.37 14.4908C118.872 14.9678 118.199 15.2497 117.506 15.2497H113.537V3.12876H117.852C118.438 3.15045 119.002 3.38896 119.414 3.80094C119.869 4.25629 120.129 4.86343 120.129 5.51393C120.108 6.09937 120.173 12.0623 120.173 12.5393ZM57.291 5.08026C57.2694 4.06115 56.749 3.10708 55.9033 2.54331C55.0577 1.95786 54.0602 1.6543 53.0411 1.67598C51.6751 1.67598 47.8588 1.69767 47.8154 1.69767C47.7721 1.69767 47.7504 1.71935 47.7504 1.76271V16.5724C47.7504 16.6158 47.7721 16.6374 47.8154 16.6374C47.8371 16.6374 49.9621 16.6591 51.61 16.6591C52.1738 16.6591 52.6942 16.6591 53.0628 16.6591C53.5398 16.6591 54.0169 16.5941 54.4722 16.464C56.2719 15.9653 57.3127 14.7076 57.291 13.0163C57.291 12.5393 57.291 12.084 57.291 11.6069C57.291 11.2383 57.291 10.8697 57.291 10.5011C57.291 10.0024 57.291 9.50364 57.291 9.00493C57.3344 7.70393 57.3344 6.38126 57.291 5.08026ZM55.9033 12.5393C55.9033 13.2765 55.6214 13.9704 55.101 14.4908C54.6023 14.9678 53.9301 15.2497 53.2363 15.2497H49.2682V3.12876H53.5398C54.1253 3.15045 54.689 3.38896 55.101 3.80094C55.5564 4.25629 55.8166 4.86343 55.8166 5.51393C55.8383 6.09937 55.9033 12.0623 55.9033 12.5393ZM87.7127 1.82777C87.7127 1.80608 87.691 1.7844 87.6476 1.7844H85.4793C85.4576 1.7844 85.4359 1.80608 85.4143 1.82777L81.663 16.464C81.663 16.4857 81.663 16.5073 81.6847 16.5073C81.7064 16.529 81.7064 16.529 81.7281 16.529H83.1592C83.1809 16.529 83.2026 16.5073 83.2242 16.4857C83.2242 16.464 83.8747 13.6452 84.1783 12.3875C84.2434 12.1056 84.3084 12.0406 84.5469 12.0406H84.5903C85.2842 12.0623 88.6884 12.0406 89.1221 12.0406L90.3147 16.4857C90.3147 16.5073 90.3364 16.529 90.3797 16.529H91.4856C91.5289 16.529 91.5506 16.5073 91.5506 16.464V14.686V14.6643C90.3797 10.9347 87.7344 1.9145 87.7127 1.82777ZM88.7101 10.6095H84.677L86.5851 3.38896L88.7101 10.6095ZM7.83147 1.80608H7.33275C7.31107 1.80608 7.28939 1.82776 7.2677 1.84945L4.34046 13.8186L1.34817 1.80608C1.34817 1.7844 1.32648 1.76271 1.28312 1.76271H-0.0395646C-0.0612479 1.76271 -0.0829309 1.76271 -0.0829309 1.7844C-0.104614 1.80608 -0.104614 1.80608 -0.104614 1.82777L3.64659 16.4206C3.64659 16.4423 3.66828 16.464 3.71164 16.464H5.03432C5.05601 16.464 5.07769 16.4423 5.09937 16.4206L7.9182 5.27541V1.87113C7.9182 1.84945 7.9182 1.84945 7.89652 1.82777C7.87483 1.80608 7.85315 1.80608 7.83147 1.80608ZM16.6999 1.76271H15.3773C15.3556 1.76271 15.3339 1.7844 15.3122 1.80608L12.3199 13.8186L9.37098 1.84945C9.37098 1.82776 9.32761 1.80608 9.30593 1.80608H8.80721C8.78553 1.80608 8.78553 1.80608 8.76385 1.82777C8.76385 1.84945 8.74217 1.84945 8.74217 1.87113V5.29709L11.561 16.4206C11.561 16.4423 11.5827 16.464 11.626 16.464H12.9487C12.9704 16.464 12.9921 16.4423 13.0138 16.4206L16.765 1.82777C16.765 1.80608 16.765 1.7844 16.7433 1.7844C16.7216 1.7844 16.6999 1.76271 16.6999 1.76271ZM69.6722 1.80608H69.1735C69.1518 1.80608 69.1301 1.82776 69.1084 1.84945L66.1595 13.8186L63.1672 1.80608C63.1672 1.7844 63.1455 1.76271 63.1022 1.76271H61.7795C61.7578 1.76271 61.7361 1.76271 61.7361 1.7844C61.7361 1.80608 61.7361 1.82777 61.7361 1.82777L65.4873 16.4206C65.4873 16.4423 65.509 16.464 65.5524 16.464H66.8534C66.875 16.464 66.8967 16.4423 66.9184 16.4206L69.7372 5.27541V1.87113C69.7372 1.84945 69.7372 1.84945 69.7156 1.82777C69.7156 1.80608 69.6939 1.80608 69.6722 1.80608ZM78.519 1.76271H77.1963C77.1746 1.76271 77.1529 1.7844 77.1312 1.80608L74.1389 13.8186L71.19 1.84945C71.19 1.82776 71.1683 1.80608 71.125 1.80608H70.6263C70.6046 1.80608 70.6046 1.80608 70.5829 1.82777C70.5829 1.84945 70.5612 1.84945 70.5612 1.87113V5.29709L73.38 16.4206C73.38 16.4423 73.4017 16.464 73.4451 16.464H74.7461C74.7678 16.464 74.7894 16.4423 74.8111 16.4206L78.5623 1.82777C78.5623 1.80608 78.5623 1.7844 78.5407 1.7844C78.5623 1.7844 78.5407 1.76271 78.519 1.76271Z" fill="#111214"/>
<path d="M126.222 4.19137C126.222 3.45414 126.721 2.82532 127.436 2.63017L127.567 2.06641C126.504 2.19651 125.702 3.10721 125.68 4.16969C125.68 5.25385 126.504 6.16455 127.567 6.29465L127.436 5.73089C126.743 5.55742 126.222 4.9286 126.222 4.19137ZM129.453 4.19137C129.453 3.45414 128.954 2.82532 128.239 2.63017L128.109 2.06641C129.171 2.19651 129.995 3.10721 129.995 4.16969C129.995 5.25385 129.193 6.16455 128.109 6.29465L128.239 5.73089C128.954 5.55742 129.453 4.9286 129.453 4.19137Z" fill="#111214"/>
</g>
<defs>
<clipPath id="clip0_361_8176">
<rect width="130" height="16.25" fill="white" transform="translate(0 0.375)"/>
</clipPath>
</defs>
</svg>
