<svg width="114" height="35" viewBox="0 0 114 35" fill="none" xmlns="http://www.w3.org/2000/svg">
<g clip-path="url(#clip0_361_8270)">
<path opacity="0.75" d="M0.15199 11.4461L5.09199 20.8511C5.43399 21.4971 6.26999 22.0101 6.95399 22.0101L17.043 21.9911C17.727 21.9911 18.012 21.4781 17.67 20.8321L12.73 11.4271C12.388 10.7811 11.571 10.2681 10.868 10.2681H0.778991H0.74099C0.0759905 10.3061 -0.19001 10.8191 0.15199 11.4461ZM19.304 22.4091L22.287 27.9951C22.496 28.3751 22.99 28.6791 23.408 28.6791L29.412 28.6221C29.83 28.6221 29.982 28.2991 29.792 27.9191L26.79 22.3331C26.581 21.9531 26.087 21.6491 25.688 21.6491L19.684 21.7061H19.665C19.247 21.7251 19.095 22.0291 19.304 22.4091Z" fill="#111214"/>
<path d="M19.323 1.20528L13.319 8.91928C12.901 9.45128 12.863 10.3823 13.205 11.0283L18.221 20.3953C18.563 21.0413 19.171 21.1363 19.589 20.6043L25.593 12.8903C25.992 12.3583 26.049 11.4273 25.707 10.7813L20.691 1.41428C20.501 1.03428 20.216 0.863281 19.912 0.863281C19.703 0.863281 19.494 0.977282 19.323 1.20528ZM17.936 22.5043L14.345 27.1023C14.098 27.4253 14.06 27.9763 14.269 28.3563L17.271 33.9423C17.48 34.3223 17.841 34.3793 18.088 34.0563L21.66 29.4583C21.907 29.1353 21.945 28.5843 21.736 28.2043L18.734 22.6183C18.62 22.4093 18.449 22.2953 18.278 22.2953C18.145 22.2953 18.031 22.3713 17.936 22.5043ZM83.6 24.1383H85.595V9.03328H83.6V24.1383Z" fill="#111214"/>
<path opacity="0.75" d="M47.6709 13.8022C44.8019 13.8022 42.4649 16.1392 42.4649 19.0082V28.6222H44.4599V19.0082C44.4599 17.2222 45.9039 15.7782 47.6709 15.7782C49.4569 15.7782 50.8819 17.2222 50.8819 19.0082C50.8819 20.7942 49.4379 22.2382 47.6519 22.2382C46.6449 22.2382 45.7519 21.7822 45.1629 21.0602V23.6062C45.9039 24.0052 46.7399 24.2332 47.6329 24.2332C50.5019 24.2332 52.8389 21.8962 52.8389 19.0272C52.8769 16.1392 50.5399 13.8022 47.6709 13.8022ZM58.9759 13.8022C56.1069 13.8022 53.7699 16.1392 53.7699 19.0082V28.6222H55.7839V19.0082C55.7839 17.2222 57.2279 15.7782 58.9949 15.7782C60.7809 15.7782 62.2249 17.2222 62.2249 19.0082C62.2249 20.7942 60.7809 22.2382 58.9949 22.2382C57.9879 22.2382 57.0949 21.7822 56.5059 21.0602V23.6062C57.2469 24.0052 58.0829 24.2332 58.9759 24.2332C61.8449 24.2332 64.1819 21.8962 64.1819 19.0272C64.1819 16.1392 61.8449 13.8022 58.9759 13.8022ZM36.0239 9.0332C33.1549 9.0332 30.8179 11.3702 30.8179 14.2392V24.1192H32.8319V14.2392C32.8319 12.4722 34.2569 11.0472 36.0429 11.0472C37.8099 11.0472 39.2349 12.4722 39.2349 14.2392V15.3792H34.0859V17.3932H39.2349V24.1382H41.2299V14.2582C41.2299 11.3702 38.8929 9.0332 36.0239 9.0332Z" fill="#111214"/>
<path d="M76.8929 14.2392C76.8929 12.4722 78.3369 11.0472 80.1039 11.0472H82.6309V9.0332H80.1039C77.2349 9.0332 74.8979 11.3702 74.8979 14.2392V24.1192H76.9119V17.5642H82.4599V15.5882H76.9119L76.8929 14.2392ZM93.9929 13.8782V20.1862C93.9739 21.4592 92.9289 22.4662 91.6559 22.4662C90.3829 22.4662 89.3569 21.4402 89.3189 20.1862V13.8782H87.3049V20.1862C87.3239 22.2192 88.7489 23.9102 90.6299 24.3472V28.6222H92.6439V24.3472C94.5439 23.8912 95.9499 22.2002 95.9879 20.1862V13.8782H93.9929ZM105.26 19.8062C105.051 20.6422 104.5 21.3642 103.759 21.7822C102.22 22.6752 100.263 22.1432 99.3889 20.6042C98.5149 19.0652 99.0279 17.1082 100.567 16.2342C101.802 15.5312 103.303 15.7212 104.291 16.6142L99.7879 19.2172L100.795 20.9462L102.885 19.7492L107.103 17.3172C106.989 17.0132 106.856 16.6902 106.685 16.4052C105.241 13.9162 102.068 13.0612 99.5789 14.5052C97.0899 15.9492 96.2349 19.1222 97.6789 21.6112C99.1229 24.1002 102.296 24.9552 104.785 23.5112C106.21 22.6942 107.103 21.2882 107.331 19.7872L105.26 19.8062ZM113.601 13.8022C112.385 13.8022 111.283 14.2202 110.39 14.9042V13.8402H108.376V24.1382H110.39V19.0272C110.39 17.2602 111.815 15.8162 113.582 15.8162H113.981V13.8022H113.601Z" fill="#111214"/>
<path opacity="0.75" d="M71.7819 19.3689L66.7849 17.0319C66.5379 16.9179 66.4429 16.6329 66.5569 16.3859C66.6329 16.2149 66.8229 16.1009 66.9939 16.1009H72.6939V14.0869H66.9939C66.0439 14.0869 65.1509 14.6189 64.7329 15.5309C64.1439 16.7849 64.6949 18.2669 65.9299 18.8559L70.9269 21.1739C71.1739 21.2879 71.2879 21.5919 71.1739 21.8389C71.0979 22.0289 70.9079 22.1239 70.7179 22.1239H64.8849V24.1379H70.7179C71.6679 24.1379 72.5609 23.6059 72.9789 22.6939C73.5869 21.4399 73.0359 19.9579 71.7819 19.3689Z" fill="#111214"/>
</g>
<defs>
<clipPath id="clip0_361_8270">
<rect width="114" height="33.25" fill="white" transform="translate(0 0.958496)"/>
</clipPath>
</defs>
</svg>
