<svg width="44" height="48" viewBox="0 0 44 48" fill="none" xmlns="http://www.w3.org/2000/svg">
<g opacity="0.5">
<mask id="mask0_3830_1863" style="mask-type:luminance" maskUnits="userSpaceOnUse" x="0" y="0" width="44" height="23">
<path d="M43.9423 0H0V22.3013H43.9423V0Z" fill="white"/>
</mask>
<g mask="url(#mask0_3830_1863)">
<path d="M39.4079 1.78987C35.1559 -0.87543 28.6749 0.18887 25.0209 3.44797C23.3409 4.94597 21.9479 6.99367 21.2609 9.14247L11.8669 9.14367C11.3239 9.18437 11.1959 9.52857 10.9739 9.95337C10.6539 10.5669 10.3489 11.2364 10.0679 11.8697C9.9099 12.2249 9.54488 12.9155 9.59588 13.2825C9.61788 13.4443 9.75688 13.5654 9.90588 13.6157C9.96388 13.6352 10.1309 13.6682 10.1859 13.6682H15.8229L15.3619 14.3389C13.7939 16.6696 10.3169 17.5521 7.99688 15.793C5.29788 13.7461 5.80088 9.54187 8.08788 7.37987C10.2539 5.33307 13.4269 4.77457 15.6469 7.06887C15.7799 7.20637 15.9899 7.52937 16.1749 7.57817C16.3349 7.62057 16.5449 7.54107 16.7039 7.50327C18.3559 7.11187 19.9839 6.60257 21.6359 6.20737C21.8029 6.13487 21.9309 6.07567 21.8759 5.86467C20.5159 2.51847 17.2189 0.17347 13.5919 0.0128696C8.54088 -0.21063 3.9739 2.49357 1.5129 6.82697C-0.869097 11.0226 -0.533099 16.4764 3.1979 19.759C7.5779 23.612 14.3239 22.8067 18.3979 18.929C19.5669 17.8159 20.3169 16.6982 21.1069 15.307C21.1199 15.2844 21.1049 15.2565 21.1479 15.2659C22.1489 18.8835 25.3349 21.4186 28.9619 22.108C30.2529 22.3533 31.3099 22.3443 32.6099 22.1969C38.3329 21.5476 43.5429 16.8806 43.9159 10.9807C44.1609 7.08867 42.7259 3.86877 39.4079 1.78987ZM37.7129 12.5013C36.4989 15.9756 31.8609 18.1734 28.6979 15.7519C25.6309 13.4038 26.6969 8.70707 29.6199 6.75737C30.4809 6.18287 31.7869 5.69227 32.8239 5.62267C36.7139 5.36157 38.9509 8.95927 37.7129 12.5013Z" fill="#111214"/>
</g>
</g>
<path d="M11.0789 43.2717C11.0789 44.5767 14.6789 43.4697 14.6789 45.9717C14.6789 47.2317 13.6349 47.9607 12.2039 47.9607C10.7549 47.9607 9.71991 47.2947 9.50391 45.8997H11.0249C11.1419 46.5027 11.5649 46.8357 12.2129 46.8357C12.8609 46.8357 13.2029 46.5747 13.2029 46.1517C13.2029 44.7837 9.59393 45.8277 9.59393 43.4067C9.59393 42.3807 10.4489 41.5527 11.9519 41.5527C13.2209 41.5527 14.3189 42.1557 14.5079 43.5687H12.9689C12.8429 42.9657 12.4919 42.6777 11.8979 42.6777C11.3939 42.6777 11.0789 42.9117 11.0789 43.2717ZM18.5209 47.9607C16.6219 47.9607 15.4519 46.7367 15.4519 44.7657C15.4519 42.7857 16.6219 41.5527 18.5209 41.5527C20.4109 41.5527 21.5809 42.7857 21.5809 44.7657C21.5809 46.7367 20.4109 47.9607 18.5209 47.9607ZM18.5209 46.7817C19.5199 46.7817 20.1049 46.0257 20.1049 44.7657C20.1049 43.5057 19.5199 42.7317 18.5209 42.7317C17.5129 42.7317 16.9279 43.4967 16.9279 44.7657C16.9279 46.0257 17.5129 46.7817 18.5209 46.7817ZM25.5299 47.9607C23.6309 47.9607 22.4609 46.7367 22.4609 44.7657C22.4609 42.7857 23.6309 41.5527 25.5299 41.5527C27.4199 41.5527 28.5899 42.7857 28.5899 44.7657C28.5899 46.7367 27.4199 47.9607 25.5299 47.9607ZM25.5299 46.7817C26.5289 46.7817 27.1139 46.0257 27.1139 44.7657C27.1139 43.5057 26.5289 42.7317 25.5299 42.7317C24.5219 42.7317 23.9369 43.4967 23.9369 44.7657C23.9369 46.0257 24.5219 46.7817 25.5299 46.7817ZM29.6689 47.8167V41.6967H31.1899L33.1249 44.9097L33.5929 45.8817L33.5209 41.6967H34.9609V47.8167H33.4399L31.5049 44.6037L31.0369 43.6227L31.1089 47.8167H29.6689Z" fill="#888889"/>
</svg>
