<svg width="37" height="37" viewBox="0 0 37 37" fill="none" xmlns="http://www.w3.org/2000/svg">
<path d="M18.4097 9.60509H4.0021C4.0021 9.60509 0 9.60509 0 18.4097C0 27.2144 4.0021 27.2144 4.0021 27.2144H8.0042C8.0042 27.2144 8.0042 26.414 8.0042 23.2123C8.0042 20.0106 10.4054 17.6093 13.6071 17.6093C16.8088 17.6093 20.8003 17.6093 23.2069 17.6093C25.6135 17.6093 27.2143 16.0085 27.2475 13.5688C27.2806 11.1291 27.2143 4.00209 27.2143 4.00209C27.2143 4.00209 27.2143 0 18.4097 0C9.605 0 9.605 4.00209 9.605 4.00209V8.00419H18.4097V9.60509Z" fill="#387EB8"/>
<path d="M18.4101 27.2128H32.8177C32.8177 27.2128 36.8197 27.2128 36.8197 18.4081C36.8197 9.60352 32.8177 9.60352 32.8177 9.60352H28.8156C28.8156 9.60352 28.8156 10.4039 28.8156 13.6056C28.8156 16.8073 26.4143 19.2086 23.2127 19.2086C20.011 19.2086 16.0088 19.2086 13.6076 19.2086C11.2063 19.2086 9.60547 20.8094 9.60547 23.2107C9.60547 25.612 9.60547 32.8158 9.60547 32.8158C9.60547 32.8158 9.60547 36.8179 18.4101 36.8179C27.2148 36.8179 27.2148 32.8158 27.2148 32.8158V28.8136H18.4101V27.2128Z" fill="#FFC331"/>
<path d="M13.6086 5.60404C14.4927 5.60404 15.2095 4.88724 15.2095 4.00314C15.2095 3.11904 14.4927 2.40234 13.6086 2.40234C12.7245 2.40234 12.0078 3.11904 12.0078 4.00314C12.0078 4.88724 12.7245 5.60404 13.6086 5.60404Z" fill="#111214"/>
<path d="M23.2141 34.4165C24.0983 34.4165 24.815 33.6998 24.815 32.8157C24.815 31.9315 24.0983 31.2148 23.2141 31.2148C22.33 31.2148 21.6133 31.9315 21.6133 32.8157C21.6133 33.6998 22.33 34.4165 23.2141 34.4165Z" fill="#111214"/>
</svg>
