<svg width="64" height="33" viewBox="0 0 64 33" fill="none" xmlns="http://www.w3.org/2000/svg">
<g clip-path="url(#clip0_361_8179)">
<path d="M4.65882 27.4885C1.94962 27.4885 0.881147 25.9404 1.33619 23.3605L2.5371 16.5497H0.0860596L0.554522 13.8919H3.00377L3.74561 9.68604H6.97249L6.23065 13.8919H9.61056L9.14165 16.5497H5.76219L4.61095 23.0768C4.42929 24.1086 4.81632 24.5475 5.8481 24.5475C6.55439 24.5494 7.26008 24.5062 7.96087 24.4182L7.48302 27.1274C6.55981 27.3622 5.6114 27.4835 4.65882 27.4885Z" fill="#111214"/>
<path d="M9.25171 27.234L11.6043 13.8916H14.863L12.5104 27.234H9.25171Z" fill="#111214"/>
<path d="M52.7413 27.4885C50.0321 27.4885 48.9636 25.9404 49.4187 23.3605L50.6196 16.5497H48.1708L48.6392 13.8919H51.0885L51.8303 9.68604H55.0572L54.3154 13.8919H57.6953L57.2264 16.5497H53.8469L52.6957 23.0768C52.514 24.1086 52.901 24.5475 53.9328 24.5475C54.6391 24.5494 55.3448 24.5062 56.0456 24.4182L55.5677 27.1274C54.6438 27.3624 53.6946 27.4836 52.7413 27.4885Z" fill="#111214"/>
<path d="M57.3341 27.234L59.6867 13.8916H62.9454L60.5928 27.234H57.3341Z" fill="#111214"/>
<path d="M24.3853 26.5365C23.4457 27.2032 22.298 27.6135 20.94 27.6135C19.3503 27.6135 18.166 27.0493 17.6832 26.3061L16.6111 32.3827H13.4053L16.6559 13.9485H19.6496L19.3722 15.4102C20.3843 14.1793 21.9673 13.6406 23.4278 13.6406C24.7611 13.6406 25.7567 14.1024 26.4596 14.7691C27.8198 16.0751 28.26 18.0765 27.8189 20.5879C27.3576 23.2036 26.2054 25.2291 24.3853 26.5365ZM24.2837 17.3642C23.9258 16.7744 23.3146 16.3122 22.315 16.3122C19.8004 16.3122 18.8666 18.6984 18.527 20.6228C18.1874 22.5472 18.285 24.9074 20.7991 24.9074C21.8 24.9074 22.5741 24.4457 23.1401 23.8555C23.9607 22.9835 24.3531 21.7772 24.5566 20.6228C24.7602 19.4684 24.7969 18.2367 24.2837 17.3642Z" fill="#111214"/>
<path d="M38.4166 27.478C37.0296 27.478 36.4153 26.6055 36.4891 25.6046C35.6837 26.6825 33.9808 27.606 32.0823 27.606C28.9006 27.606 27.6116 25.6046 27.9959 23.4238C28.4434 20.8837 30.6774 19.4215 33.2492 19.2417L37.2247 18.9598L37.3692 18.1387C37.5929 16.8814 37.3043 16.0358 35.4824 16.0358C33.9942 16.0358 33.0045 16.7029 32.7083 17.9347H29.6058C30.3145 14.9329 32.936 13.5986 35.9124 13.5986C38.1943 13.5986 40.0189 14.3172 40.4359 16.3181C40.6198 17.1651 40.5039 18.1141 40.3464 19.0121L39.4726 23.963C39.3639 24.5786 39.5285 24.8095 40.0672 24.8095C40.2085 24.8067 40.3491 24.7894 40.4869 24.7581L40.0721 27.1187C39.4905 27.3496 39.1862 27.478 38.4166 27.478ZM36.8059 21.3428L33.3741 21.5992C32.3852 21.6761 31.332 22.2663 31.1423 23.3442C30.9633 24.3706 31.7463 25.0122 32.7468 25.0122C34.7477 25.0122 36.3491 23.9343 36.6976 21.9589L36.8059 21.3428Z" fill="#111214"/>
<path d="M45.1124 27.4135C42.9316 27.4135 41.6547 26.3616 42.1025 23.8215L44.5898 9.68262H47.8225L45.4305 23.281C45.2963 24.0506 45.3858 24.5638 46.4869 24.5638C46.7693 24.5638 46.8507 24.5378 47.0301 24.5378L46.5554 27.2318C45.8914 27.362 45.7545 27.4135 45.1124 27.4135Z" fill="#111214"/>
<path d="M63.9986 7.5145C64.0138 7.96535 63.9095 8.4122 63.6963 8.80973C63.4831 9.20727 63.1685 9.54133 62.7845 9.77804C62.4005 10.0148 61.9607 10.1457 61.5098 10.1576C61.0589 10.1694 60.6128 10.0618 60.2169 9.84563C60.1721 9.81923 60.1274 9.79283 60.0826 9.76733C60.0799 9.76375 60.0786 9.76241 60.0759 9.76241C53.3465 5.80576 45.4529 3.64779 37.0743 3.92609C28.4872 4.21156 20.577 7.01562 14.0315 11.6081C13.9975 11.6304 13.9622 11.6528 13.9286 11.6783C13.8687 11.709 13.8027 11.7261 13.7353 11.7284C13.6745 11.7305 13.6139 11.7206 13.5569 11.6992C13.4999 11.6779 13.4477 11.6455 13.4032 11.6039C13.3587 11.5624 13.3229 11.5125 13.2977 11.4571C13.2726 11.4016 13.2586 11.3418 13.2566 11.281C13.2533 11.1985 13.2727 11.1166 13.3125 11.0443C13.389 10.9736 13.4655 10.906 13.5429 10.8367C20.7341 4.40753 30.1364 0.369452 40.5321 0.0244818C48.4744 -0.239504 55.9815 1.6858 62.4742 5.25944C62.4768 5.25944 62.4782 5.25944 62.4809 5.26302L62.6625 5.36235C62.9349 5.5093 63.179 5.70353 63.3833 5.93596C63.7626 6.37648 63.9797 6.93352 63.9986 7.5145Z" fill="#111214"/>
</g>
<defs>
<clipPath id="clip0_361_8179">
<rect width="63.9283" height="32.3897" fill="white" transform="translate(0.0717773)"/>
</clipPath>
</defs>
</svg>
