<svg width="134" height="27" viewBox="0 0 134 27" fill="none" xmlns="http://www.w3.org/2000/svg">
<g clip-path="url(#clip0_361_8215)">
<path opacity="0.971" fill-rule="evenodd" clip-rule="evenodd" d="M8.59559 10.4406C7.51121 10.6971 6.6103 10.3882 5.89287 9.51394C5.71671 9.07307 5.55367 8.63549 5.40381 8.2012C5.40345 8.11971 5.4206 8.03394 5.45529 7.9438C5.38034 7.49911 5.32031 7.06153 5.27511 6.63105C5.17606 6.45 5.09025 6.26122 5.01771 6.06477C4.41302 5.3563 3.63222 5.04742 2.67536 5.13813C2.53904 5.05869 2.35886 5.00721 2.13482 4.98369C1.97343 5.01648 1.81899 4.98219 1.6715 4.88073C1.65435 4.89787 1.63716 4.91506 1.62002 4.93221C0.40256 4.37818 -0.137983 3.43439 -0.00161178 2.10079C0.25198 1.16931 0.835405 0.54295 1.74872 0.221764C1.73157 0.204622 1.71438 0.187427 1.69724 0.170284C2.21204 0.135947 2.72684 0.135947 3.24164 0.170284C3.2245 0.187427 3.20731 0.204622 3.19016 0.221764C4.20298 0.600247 4.77781 1.32957 4.91475 2.40967C4.9027 3.04211 4.98847 3.65987 5.17215 4.26296C5.7512 5.24582 6.60917 5.65766 7.74616 5.49849C7.7719 5.52423 7.79764 5.54997 7.82338 5.57571C9.17731 5.64176 10.0267 6.33674 10.3717 7.66066C10.4475 9.03132 9.85551 9.95796 8.59559 10.4406Z" fill="#111214"/>
<path opacity="0.971" fill-rule="evenodd" clip-rule="evenodd" d="M23.4221 0.144328C24.9132 -0.0659692 25.9514 0.517456 26.5366 1.89466C26.8069 3.32745 26.275 4.33986 24.9407 4.93199C24.9236 4.91485 24.9064 4.89765 24.8893 4.88051C24.8162 4.92993 24.739 4.97281 24.6576 5.00921C24.4334 5.01487 24.2189 5.05776 24.0141 5.13791C22.1095 5.0316 21.1656 5.97539 21.1827 7.96932C21.0779 9.28099 20.4087 10.139 19.175 10.5433C18.8011 10.5179 18.415 10.4835 18.0166 10.4404C17.5726 10.3053 17.1951 10.0651 16.8841 9.71965C16.8416 9.67404 16.7901 9.6569 16.7296 9.66817C16.5455 9.28953 16.3739 8.92063 16.2148 8.56135C16.095 6.96618 16.8072 5.97946 18.3513 5.60123C18.3684 5.61837 18.3856 5.63557 18.4028 5.65271C18.8809 5.5305 19.37 5.47042 19.8699 5.47253C20.6515 5.30733 21.1663 4.8612 21.4143 4.13405C21.5642 3.82269 21.6156 3.51381 21.5688 3.2074C21.5895 3.13157 21.6239 3.06295 21.6717 3.00148C21.6846 2.76354 21.6846 2.54047 21.6717 2.33224C21.7232 2.24642 21.7747 2.16065 21.8262 2.07484C21.7915 1.98469 21.7743 1.89893 21.7747 1.81743C21.9165 1.52554 22.0796 1.2424 22.2638 0.968011C22.6185 0.634574 23.0046 0.36003 23.4221 0.144328Z" fill="#111214"/>
<path opacity="0.965" fill-rule="evenodd" clip-rule="evenodd" d="M72.8944 7.55811C73.246 7.56001 73.5981 7.56001 73.9497 7.55811C76.1289 7.74693 77.7593 8.79368 78.8404 10.6984C79.4478 12.083 79.6023 13.5245 79.3037 15.0227C78.5042 17.5733 76.7879 19.0491 74.1557 19.45C73.5503 19.4077 72.9413 19.382 72.3281 19.3728C70.4542 19.0474 69.0385 18.0435 68.081 16.3612C67.8777 15.9559 67.7407 15.5269 67.6692 15.0742C67.5441 14.9169 67.5183 14.7539 67.5919 14.5852C67.5307 14.4088 67.4792 14.2286 67.4375 14.0446C67.4375 13.6843 67.4375 13.3239 67.4375 12.9635C67.9178 9.82354 69.7366 8.02174 72.8944 7.55811ZM73.821 9.61731C75.6579 9.90962 76.7559 10.9735 77.1158 12.8091C77.0556 12.9219 77.0725 13.0334 77.1673 13.1437C77.1436 13.3796 77.1436 13.6027 77.1673 13.813C76.7704 16.5481 75.1745 17.6978 72.3796 17.2621C70.6869 16.5852 69.8118 15.3325 69.7541 13.5041C69.9183 10.9459 71.2738 9.65031 73.821 9.61731Z" fill="#111214"/>
<path opacity="0.962" fill-rule="evenodd" clip-rule="evenodd" d="M129.729 7.55811C130.094 7.56691 130.446 7.56691 130.784 7.55811C131.151 7.63538 131.519 7.7126 131.891 7.78977C132.232 7.9441 132.576 8.09854 132.921 8.25309C133.212 8.46699 133.324 8.75013 133.255 9.10251C133.085 9.36589 132.922 9.63188 132.766 9.90046C132.568 10.1099 132.328 10.1786 132.045 10.1064C131.828 9.99585 131.605 9.89289 131.376 9.7975C130.746 9.60517 130.111 9.60517 129.471 9.7975C128.913 10.1371 128.742 10.6261 128.957 11.2647C129.152 11.6234 129.427 11.9065 129.78 12.1141C130.811 12.5445 131.806 13.0421 132.766 13.607C133.953 14.6159 134.288 15.86 133.77 17.3393C133.36 18.1956 132.716 18.8048 131.84 19.1669C131.588 19.2496 131.331 19.3183 131.067 19.3728C129.338 19.6631 127.845 19.1912 126.589 17.9571C126.543 17.7976 126.492 17.6431 126.434 17.4938C126.655 17.0236 126.981 16.6375 127.412 16.3355C127.567 16.3011 127.721 16.3011 127.876 16.3355C128.147 16.5043 128.405 16.6931 128.648 16.9018C129.013 17.0866 129.391 17.241 129.78 17.3651C130.299 17.4536 130.779 17.3678 131.222 17.1077C131.552 16.8249 131.724 16.4816 131.737 16.0781C131.656 15.8394 131.553 15.6077 131.428 15.3831C131.226 15.1732 131.003 14.993 130.758 14.8426C130.11 14.5228 129.449 14.2225 128.776 13.9417C128.11 13.5629 127.535 13.1081 127.052 12.5774C127.044 12.4431 126.975 12.323 126.846 12.2171C126.863 12.1999 126.88 12.1827 126.897 12.1656C126.181 10.3186 126.696 8.89438 128.442 7.89273C128.869 7.74621 129.298 7.63471 129.729 7.55811Z" fill="#111214"/>
<path opacity="0.963" fill-rule="evenodd" clip-rule="evenodd" d="M43.2418 7.66064C43.457 7.72386 43.6711 7.72386 43.8853 7.66064C44.3605 7.7007 44.6868 7.94095 44.8634 8.38137C46.2786 11.7259 47.6856 15.0721 49.0848 18.42C49.0935 18.8229 48.9134 19.1061 48.5443 19.2694C48.1839 19.3038 47.8235 19.3038 47.4632 19.2694C47.2552 19.1822 47.075 19.0535 46.9226 18.8833C46.8495 18.5604 46.7208 18.2601 46.5365 17.9824C46.5535 17.9653 46.571 17.9481 46.588 17.9309C46.3558 17.4062 46.1154 16.8828 45.8673 16.3608C44.3502 16.3807 42.8397 16.3807 41.337 16.3608C41.211 16.453 41.1167 16.5731 41.0539 16.7212C40.787 17.4516 40.4953 18.1723 40.1787 18.8833C40.004 19.136 39.7638 19.2732 39.458 19.2952C39.2297 19.2712 39.0066 19.2712 38.7888 19.2952C38.3046 19.1163 38.1159 18.7732 38.2225 18.2656C39.5887 15.1046 40.9186 11.9557 42.2122 8.81895C42.3146 8.52191 42.4521 8.23877 42.624 7.96953C42.813 7.82301 43.0189 7.72005 43.2418 7.66064ZM43.5507 10.6465C44.0485 11.8587 44.5633 13.0684 45.0951 14.2759C44.0825 14.3102 43.0704 14.3102 42.0577 14.2759C42.5828 13.0771 43.0801 11.8674 43.5507 10.6465Z" fill="#111214"/>
<path opacity="0.963" fill-rule="evenodd" clip-rule="evenodd" d="M61.2084 11.2643C60.7178 11.9785 60.2205 12.6906 59.7155 13.4007C60.8583 15.0579 61.9997 16.7138 63.1389 18.3685C63.2239 18.8675 63.0179 19.1763 62.5212 19.2952C62.2241 19.2712 61.9327 19.2712 61.646 19.2952C61.5266 19.2329 61.3979 19.19 61.2599 19.1665C61.1482 19.0721 61.037 18.9777 60.9253 18.8833C60.0882 17.612 59.213 16.3422 58.2998 15.0738C57.4318 16.4059 56.5309 17.7186 55.5971 19.012C55.4071 19.1564 55.1924 19.2508 54.9536 19.2952C54.6627 19.2626 54.3796 19.2626 54.1041 19.2952C53.5796 19.1379 53.4076 18.7947 53.5893 18.2656C54.7121 16.646 55.8272 15.0244 56.9356 13.4007C55.9183 11.8965 54.8799 10.3779 53.821 8.84468C53.7412 8.70537 53.6815 8.55948 53.6408 8.4071C53.7901 7.8697 54.1592 7.65523 54.7476 7.76359C55.2074 7.67299 55.5935 7.79309 55.9059 8.12396C56.7126 9.34157 57.5363 10.5428 58.377 11.7276C59.1389 10.6517 59.8684 9.55346 60.5649 8.43284C60.7487 8.16313 60.9804 7.94861 61.2599 7.78933C61.7242 7.7465 62.1876 7.7551 62.6499 7.81508C62.88 7.95047 63.0174 8.14779 63.0617 8.4071C63.0118 8.51577 62.9685 8.62733 62.933 8.74172C62.358 9.58306 61.7829 10.4239 61.2084 11.2643Z" fill="#111214"/>
<path opacity="0.961" fill-rule="evenodd" clip-rule="evenodd" d="M85.7643 7.76395C86.1592 7.7554 86.5541 7.76395 86.9484 7.78969C87.1106 7.90871 87.265 8.03741 87.4117 8.17579C89.318 10.5795 91.2228 12.9819 93.126 15.383C93.1276 13.0345 93.1276 10.6921 93.126 8.35597C93.2146 8.11406 93.369 7.92534 93.5893 7.78969C93.9842 7.75535 94.3785 7.75535 94.7734 7.78969C94.9973 7.91046 95.1435 8.09064 95.211 8.33023C95.2455 11.7965 95.2455 15.2629 95.211 18.7292C95.0869 19.0077 94.881 19.1965 94.5932 19.2955C94.3332 19.2628 94.0501 19.2542 93.7438 19.2698C93.4946 19.1438 93.2717 18.9894 93.0745 18.8065C92.3682 17.8215 91.6043 16.852 90.7837 15.8978C89.646 14.456 88.5309 13.0317 87.4375 11.625C87.4205 14.0102 87.403 16.3955 87.386 18.7807C87.2665 19.0029 87.0951 19.1745 86.8712 19.2955C86.5525 19.2836 86.2179 19.275 85.8673 19.2698C85.5533 19.1058 85.3649 18.8484 85.301 18.4976C85.3695 15.1685 85.3695 11.8395 85.301 8.51041C85.3556 8.36951 85.3983 8.22366 85.4297 8.07283C85.5389 7.95483 85.6501 7.85187 85.7643 7.76395Z" fill="#111214"/>
<path opacity="0.947" fill-rule="evenodd" clip-rule="evenodd" d="M102.599 7.76395C103.045 7.7554 103.491 7.76395 103.937 7.78969C104.16 7.90886 104.305 8.08904 104.375 8.33023C104.409 11.7965 104.409 15.2629 104.375 18.7292C104.251 19.008 104.045 19.1968 103.757 19.2955C103.448 19.2269 103.139 19.2269 102.83 19.2955C102.36 19.1572 102.128 18.8398 102.135 18.3431C102.204 15.117 102.204 11.891 102.135 8.66485C102.163 8.29265 102.317 7.99236 102.599 7.76395Z" fill="#111214"/>
<path opacity="0.964" fill-rule="evenodd" clip-rule="evenodd" d="M111.608 7.76395C112.054 7.7554 112.5 7.76395 112.946 7.78969C113.13 7.88832 113.259 8.03416 113.332 8.22727C113.391 10.3478 113.434 12.4671 113.461 14.5851C113.438 15.5258 113.789 16.3065 114.516 16.9274C115.561 17.5515 116.6 17.5429 117.631 16.9017C118.097 16.4383 118.354 15.8891 118.403 15.2543C118.423 15.0695 118.475 14.8979 118.557 14.7395C118.531 14.7106 118.513 14.6763 118.506 14.6366C118.549 12.4845 118.574 10.3309 118.583 8.17579C118.677 8.01275 118.806 7.88405 118.969 7.78969C119.398 7.75535 119.827 7.75535 120.256 7.78969C120.384 7.86624 120.496 7.96065 120.591 8.07283C120.651 9.32112 120.676 10.5738 120.668 11.8309C120.659 13.0493 120.651 14.2676 120.642 15.486C120.341 17.6217 119.165 18.9173 117.116 19.3727C115.625 19.6314 114.252 19.3568 112.998 18.5491C112.368 18.0574 111.896 17.4483 111.582 16.7215C111.472 16.2723 111.343 15.8348 111.196 15.4088C111.182 13.0312 111.199 10.6203 111.247 8.17579C111.351 8.02093 111.471 7.88364 111.608 7.76395Z" fill="#111214"/>
<path opacity="0.09" fill-rule="evenodd" clip-rule="evenodd" d="M8.5957 10.4404C8.66525 10.4752 8.66525 10.4752 8.5957 10.4404Z" fill="#111214"/>
<path opacity="0.984" fill-rule="evenodd" clip-rule="evenodd" d="M14.516 10.8006C14.5512 10.8869 14.6199 10.9212 14.7219 10.9036C14.9278 11.0366 15.1165 11.1911 15.2882 11.3669C15.3054 11.4184 15.3397 11.4527 15.3912 11.4698C15.4083 11.5213 15.4427 11.5557 15.4941 11.5728C15.5618 11.623 15.6305 11.6745 15.7001 11.7272C15.8179 12.0228 15.9552 12.3059 16.1119 12.5767C16.1075 12.6336 16.0903 12.6851 16.0604 12.7311C16.1076 12.7504 16.1505 12.7761 16.1891 12.8083C16.232 13.2555 16.2234 13.7017 16.1634 14.1468C16.1218 14.1627 16.0875 14.1884 16.0604 14.224C16.1166 14.3303 16.1252 14.4418 16.0862 14.5587C15.9382 14.867 15.7752 15.1416 15.5971 15.3823C15.5456 15.3995 15.5113 15.4338 15.4941 15.4853C15.4427 15.5024 15.4083 15.5368 15.3912 15.5883C15.3397 15.6054 15.3054 15.6397 15.2882 15.6912C15.2882 15.7256 15.2711 15.7427 15.2367 15.7427C15.1598 15.7679 15.0911 15.8022 15.0308 15.8457C14.9553 15.9129 14.8866 15.9901 14.8249 16.0773C14.5785 16.2005 14.3211 16.2948 14.0527 16.3605C13.5208 16.4291 12.9888 16.4291 12.4568 16.3605C12.264 16.3115 12.0752 16.2515 11.8905 16.1803C11.863 16.0717 11.8115 16.046 11.7361 16.1031C11.6096 15.9596 11.4552 15.8567 11.2728 15.7942C11.1265 15.6657 11.0236 15.5113 10.9639 15.3309C10.9467 15.2794 10.9124 15.245 10.8609 15.2279C10.8094 15.2108 10.7751 15.1764 10.758 15.1249C10.7408 15.0735 10.7065 15.0391 10.655 15.022C10.6382 14.9107 10.5867 14.8164 10.5006 14.7388C10.5476 14.666 10.5476 14.5888 10.5006 14.5072C10.4834 14.4557 10.4491 14.4214 10.3976 14.4042C10.3918 14.1781 10.3403 13.9636 10.2432 13.7607C10.3118 13.5548 10.3118 13.3489 10.2432 13.1429C10.3516 12.9256 10.4117 12.6939 10.4233 12.448C10.5406 12.3336 10.6178 12.1964 10.655 12.0361C10.7065 12.019 10.7408 11.9846 10.758 11.9332C10.9807 11.506 11.3067 11.18 11.7361 10.955C11.8131 10.9299 11.8817 10.8956 11.942 10.8521C11.9477 10.8203 11.9649 10.7946 11.9935 10.7749C12.0951 10.7494 12.198 10.7408 12.3024 10.7491C12.3539 10.732 12.3882 10.6976 12.4053 10.6462C12.5771 10.6119 12.7401 10.6119 12.8944 10.6462C12.9136 10.599 12.9394 10.5561 12.9716 10.5175C13.1604 10.4831 13.3491 10.4831 13.5379 10.5175C13.5661 10.5651 13.6003 10.608 13.6409 10.6462C13.7725 10.6196 13.9012 10.6024 14.027 10.5947C14.1756 10.7085 14.3387 10.7772 14.516 10.8006Z" fill="#111214"/>
<path opacity="0.166" fill-rule="evenodd" clip-rule="evenodd" d="M12.4052 10.6465C12.3881 10.698 12.3537 10.7323 12.3022 10.7494C12.3022 10.6808 12.3366 10.6465 12.4052 10.6465Z" fill="#111214"/>
<path opacity="0.113" fill-rule="evenodd" clip-rule="evenodd" d="M14.5159 10.8008C14.5928 10.826 14.6615 10.8602 14.7218 10.9037C14.6197 10.9214 14.551 10.8871 14.5159 10.8008Z" fill="#111214"/>
<path opacity="0.136" fill-rule="evenodd" clip-rule="evenodd" d="M11.942 10.8522C11.8817 10.8957 11.813 10.9299 11.7361 10.9551C11.7712 10.8688 11.8399 10.8345 11.942 10.8522Z" fill="#111214"/>
<path opacity="0.09" fill-rule="evenodd" clip-rule="evenodd" d="M61.2083 11.2646C61.2776 11.2994 61.2776 11.2994 61.2083 11.2646Z" fill="#111214"/>
<path opacity="0.166" fill-rule="evenodd" clip-rule="evenodd" d="M15.2881 11.3672C15.3567 11.3672 15.391 11.4015 15.391 11.4701C15.3396 11.453 15.3052 11.4187 15.2881 11.3672Z" fill="#111214"/>
<path opacity="0.166" fill-rule="evenodd" clip-rule="evenodd" d="M15.3911 11.4702C15.4597 11.4702 15.4941 11.5046 15.4941 11.5732C15.4426 11.556 15.4083 11.5217 15.3911 11.4702Z" fill="#111214"/>
<path opacity="0.166" fill-rule="evenodd" clip-rule="evenodd" d="M10.7577 11.9336C10.7406 11.9851 10.7063 12.0194 10.6548 12.0366C10.6548 11.9679 10.6891 11.9336 10.7577 11.9336Z" fill="#111214"/>
<path opacity="0.166" fill-rule="evenodd" clip-rule="evenodd" d="M10.3975 14.4048C10.4489 14.4219 10.4833 14.4563 10.5004 14.5077C10.4318 14.5077 10.3975 14.4734 10.3975 14.4048Z" fill="#111214"/>
<path opacity="0.166" fill-rule="evenodd" clip-rule="evenodd" d="M10.6548 15.022C10.7063 15.0391 10.7406 15.0735 10.7577 15.1249C10.6891 15.1249 10.6548 15.0906 10.6548 15.022Z" fill="#111214"/>
<path opacity="0.128" fill-rule="evenodd" clip-rule="evenodd" d="M10.8608 15.228C10.9123 15.2452 10.9467 15.2795 10.9638 15.331C10.8952 15.331 10.8608 15.2967 10.8608 15.228Z" fill="#111214"/>
<path opacity="0.166" fill-rule="evenodd" clip-rule="evenodd" d="M15.5971 15.3828C15.5971 15.4514 15.5628 15.4858 15.4941 15.4858C15.5113 15.4343 15.5456 15.4 15.5971 15.3828Z" fill="#111214"/>
<path opacity="0.166" fill-rule="evenodd" clip-rule="evenodd" d="M15.4941 15.4854C15.4941 15.554 15.4597 15.5883 15.3911 15.5883C15.4083 15.5368 15.4426 15.5025 15.4941 15.4854Z" fill="#111214"/>
<path opacity="0.166" fill-rule="evenodd" clip-rule="evenodd" d="M15.391 15.5884C15.391 15.657 15.3567 15.6913 15.2881 15.6913C15.3052 15.6399 15.3396 15.6055 15.391 15.5884Z" fill="#111214"/>
<path opacity="0.158" fill-rule="evenodd" clip-rule="evenodd" d="M15.2364 15.7432C15.2013 15.8294 15.1326 15.8638 15.0305 15.8461C15.0908 15.8026 15.1595 15.7683 15.2364 15.7432Z" fill="#111214"/>
<path opacity="0.97" fill-rule="evenodd" clip-rule="evenodd" d="M7.36026 16.464C9.14982 16.3499 10.1623 17.1736 10.3976 18.9351C10.2633 20.3305 9.50823 21.1284 8.13247 21.3289C8.05108 21.3653 7.97386 21.4082 7.90081 21.4576C7.25622 21.3642 6.61272 21.4758 5.9703 21.7922C5.52237 22.1042 5.22208 22.5248 5.06939 23.0535C4.96839 23.5781 4.91691 24.1104 4.91495 24.6494C4.68926 25.8875 3.97714 26.6164 2.77852 26.8373C1.40678 26.9233 0.480137 26.2628 -0.00140871 24.8553C-0.135206 23.8777 0.173676 23.0628 0.925235 22.41C1.48066 22.0707 2.07268 21.9076 2.7013 21.9209C2.78197 21.835 2.86779 21.818 2.9587 21.8695C3.18836 21.8308 3.42002 21.8051 3.65369 21.7922C4.21276 21.6584 4.65894 21.3584 4.99217 20.8913C5.09905 20.7077 5.19341 20.5189 5.27531 20.325C5.34033 19.903 5.40041 19.4825 5.4555 19.0638C5.4208 18.9736 5.40365 18.8879 5.40402 18.8064C5.48494 18.7015 5.53642 18.5814 5.55846 18.446C5.54131 18.3945 5.52412 18.3431 5.50698 18.2916C5.56855 18.2214 5.62003 18.1441 5.66142 18.0599C5.75727 17.6247 5.99753 17.2557 6.38214 16.9531C6.69262 16.7518 7.01864 16.5888 7.36026 16.464Z" fill="#111214"/>
<path opacity="0.97" fill-rule="evenodd" clip-rule="evenodd" d="M18.2741 16.4638C19.7053 16.3774 20.6405 17.0123 21.0798 18.3686C21.1791 18.9125 21.2305 19.4617 21.2342 20.016C21.5296 21.1778 22.2761 21.8126 23.4736 21.9207C24.2202 21.8662 24.9409 22.0294 25.6358 22.4098C26.4693 23.1357 26.7696 24.0196 26.5367 25.061C26.2033 25.9949 25.5598 26.5869 24.6061 26.8371C24.6233 26.8541 24.6405 26.8716 24.6576 26.8886C24.6105 26.9076 24.5675 26.9334 24.5289 26.9658C23.2317 26.989 22.3136 26.3799 21.7747 25.1382C21.7973 24.9802 21.7629 24.8258 21.6718 24.6749C21.7226 24.4834 21.7055 24.2775 21.6203 24.0572C21.6571 23.9882 21.6399 23.9192 21.5688 23.8512C21.6307 22.7171 21.1159 21.9537 20.0244 21.5604C19.9942 21.5711 19.9685 21.5882 19.9472 21.6118C19.6262 21.5067 19.283 21.4381 18.9176 21.4059C18.8661 21.4231 18.8146 21.4403 18.7631 21.4574C18.2969 21.3621 17.8421 21.2334 17.3989 21.0713C16.4756 20.4313 16.0895 19.5475 16.2406 18.4201C16.5572 17.3913 17.2351 16.7392 18.2741 16.4638Z" fill="#111214"/>
</g>
<defs>
<clipPath id="clip0_361_8215">
<rect width="134" height="26.6864" fill="white" transform="translate(0 0.156738)"/>
</clipPath>
</defs>
</svg>
