<svg width="24" height="24" viewBox="0 0 24 24" fill="none" xmlns="http://www.w3.org/2000/svg">
<g filter="url(#filter0_d_6878_10065)">
<path d="M22.4766 5.33333C22.4766 2.8086 20.4299 0.761902 17.9051 0.761902H6.09561C3.57088 0.761902 1.52418 2.8086 1.52418 5.33333V17.1429C1.52418 19.6676 3.57088 21.7143 6.09561 21.7143H17.9051C20.4299 21.7143 22.4766 19.6676 22.4766 17.1429V5.33333Z" fill="#0371EE" shape-rendering="crispEdges"/>
<path d="M8.66662 11.9184H13.7236L12.1951 13.4886C12.1314 13.5518 12.0806 13.6273 12.0457 13.7109C12.0107 13.7944 11.9923 13.8843 11.9916 13.9752C11.9908 14.0661 12.0077 14.1563 12.0412 14.2405C12.0747 14.3246 12.1242 14.4011 12.1868 14.4654C12.2494 14.5297 12.3238 14.5805 12.4057 14.6149C12.4877 14.6494 12.5754 14.6667 12.664 14.6659C12.7525 14.6651 12.8399 14.6462 12.9213 14.6103C13.0026 14.5744 13.0762 14.5223 13.1377 14.4569L15.8042 11.7178C15.8662 11.6542 15.9155 11.5786 15.9491 11.4954C15.9827 11.4122 16 11.3231 16 11.233C16 11.1429 15.9827 11.0537 15.9491 10.9705C15.9155 10.8873 15.8662 10.8118 15.8042 10.7482L13.1377 8.00911C13.0125 7.88071 12.8428 7.80865 12.6659 7.80878C12.489 7.80891 12.3194 7.88121 12.1944 8.00979C12.0694 8.13838 11.9992 8.3127 11.9994 8.49441C11.9995 8.67612 12.0699 8.85034 12.1951 8.97874L13.7236 10.5489H8.66662C8.48982 10.5489 8.32027 10.6211 8.19525 10.7495C8.07023 10.8779 8 11.0521 8 11.2337C8 11.4153 8.07023 11.5895 8.19525 11.7179C8.32027 11.8463 8.48982 11.9184 8.66662 11.9184Z" fill="white"/>
</g>
<defs>
<filter id="filter0_d_6878_10065" x="-0.000371933" y="-2.86102e-06" width="24.0007" height="24" filterUnits="userSpaceOnUse" color-interpolation-filters="sRGB">
<feFlood flood-opacity="0" result="BackgroundImageFix"/>
<feColorMatrix in="SourceAlpha" type="matrix" values="0 0 0 0 0 0 0 0 0 0 0 0 0 0 0 0 0 0 127 0" result="hardAlpha"/>
<feOffset dy="0.761905"/>
<feGaussianBlur stdDeviation="0.761905"/>
<feComposite in2="hardAlpha" operator="out"/>
<feColorMatrix type="matrix" values="0 0 0 0 0.0417941 0 0 0 0 0.123894 0 0 0 0 0.21719 0 0 0 0.45 0"/>
<feBlend mode="normal" in2="BackgroundImageFix" result="effect1_dropShadow_6878_10065"/>
<feBlend mode="normal" in="SourceGraphic" in2="effect1_dropShadow_6878_10065" result="shape"/>
</filter>
</defs>
</svg>
