<svg xmlns="http://www.w3.org/2000/svg" width="1006" height="740" fill="none" viewBox="0 0 1006 740"><path fill="#000" fill-rule="evenodd" d="M414.486 217.14 288.676 81.33l118.65 140.08c2.35-1.47 4.74-2.9 7.17-4.26zM444.956 203.47l-92.12-166.43 84.15 169.37c2.63-1.04 5.29-2.02 7.97-2.94M476.087 195.79l-50.36-186.4 41.91 187.91c2.79-.57 5.61-1.07 8.45-1.51M359.686 264.99l-158.94-56.27 154.42 62.52c1.46-2.12 2.97-4.2 4.52-6.25M339.136 299.95l-157.05-15.54 154.29 22.22c.88-2.25 1.79-4.48 2.76-6.69zM385.567 237.45l-148.59-97.77 142.59 103.17c1.96-1.85 3.96-3.65 6.01-5.41zM504.656 193.59c.92 0 1.84.02 2.76.03L503.116 0l-4.3 193.69c1.94-.06 3.89-.1 5.85-.1zM628.414 241.59l140.84-101.91-146.84 96.61c2.04 1.72 4.04 3.49 6 5.3M653.474 270.26l152.01-61.55-156.5 55.41c1.54 2.01 3.04 4.06 4.49 6.14M538.726 196.74 580.506 9.4l-50.24 185.96c2.84.39 5.66.85 8.46 1.37zM670.047 299.65c.95 2.16 1.86 4.35 2.73 6.56l151.37-21.8-154.09 15.25zM599.965 220.16l117.59-138.83-124.77 134.68c2.43 1.33 4.82 2.71 7.17 4.15zM569.756 205.41l83.65-168.36-91.64 165.55c2.69.88 5.35 1.81 7.99 2.81" clip-rule="evenodd"/><path fill="#ffcccb" d="M865.079 304.25h-702.79v238.93h702.79z"/><path stroke="#000" stroke-miterlimit="10" stroke-width="2" d="M162.289 492.49V304.25h703.05v193.46"/><path stroke="#000" stroke-width="3" d="M683.746 305.35h-113.41M435.586 305.35h-101.5"/><path fill="url(#a)" d="M505.308 513.26c96.551 0 174.82-71.827 174.82-160.43S601.859 192.4 505.308 192.4s-174.82 71.827-174.82 160.43 78.27 160.43 174.82 160.43"/><path fill="#f1cfbe" d="m495.487 433.51-68.74 8.25-2.06-5.89-10.21-10.21-2.55-9.82-1.08-5.21-5.89.69-10.51-3.44-10.31-5.89-7.07-7.07-5.3-9.43-3.04-12.18.79-12.67 3.54-9.72 5.6-7.56 8.64-7.95 10.8-4.62 11-1.47 11.1 2.46 1.67-6.78 9.04-14.14 10.12-11.2 7.76-6.97 14.05-8.64 16.4-6.68 18.56-2.65 12.58.49 13.35 1.38 14.43 5.11 12.38 6.48 12.47 9.62 9.72 9.63 10.12 14.93 2.46 7.86 11.49-.49 9.32.49 9.93 4.13 8.34 5.6 8.06 10.12 4.21 12.67.59 11.49-2.75 12.08-5.5 8.64-5.99 6.58-12.37 5.7-18.07 2.75-6.68 21.61-12.18 8.25-78.18-6.29z"/><path fill="#f1cfbe" d="m495.149 433.55-68.75 8.25-2.06-5.89-10.21-10.21-2.55-9.82-1.08-5.21-5.89.69-10.51-3.44-10.31-5.89-7.07-7.07-5.3-9.43-3.04-12.18.79-12.67 3.54-9.72 5.6-7.56 8.64-7.96 10.8-4.61 11-1.47 11.1 2.46 1.67-6.78 9.04-14.14 10.12-11.2 7.76-6.97 14.04-8.64 16.41-6.68 18.56-2.65 12.57.49 13.36 1.37 14.43 5.11 12.37 6.48 12.48 9.63 9.72 9.62 10.11 14.93 2.46 7.86 11.49-.49 9.33.49 9.93 4.12 8.34 5.6 8.05 10.12 4.22 12.67.59 11.49-2.75 12.08-5.51 8.64-5.98 6.58-12.38 5.7-18.06 2.75-6.68 21.61-12.18 8.25-78.18-6.29z"/><path fill="#fdf2d4" d="m439.397 426.75 2.16 11.86 22.631-2.16 37.719-1.62 64.13 3.77v-24.25l-3.77-12.93-5.389-14.55v-4.85l3.229-5.39 7.01-5.93 5.39-9.16 2.69-11.86V338.9l-2.69-11.86-5.39-8.62-7.01-9.16-11.86-6.47-14.55-2.16h-11.86l-10.24 4.85-8.08 3.77-8.62-3.77-9.7-4.85h-11.319l-15.091 2.16-11.32 6.47-8.08 8.08-4.85 9.7-4.849 15.09 3.229 17.24 6.47 12.93 10.78 9.7v4.85l-5.39 13.47-3.23 12.39-2.16 14.01zM587.917 365.32l-3.77 22.63c-.94 5.6 2.85 7.72 4.85 8.08h8.08l12.39-4.31 4.85-4.85 6.47-9.16 1.08-8.62-1.08-7.54-3.23-7.01-4.31-2.69-7.01-2.16h-5.93l-7.54 4.85zM418.188 365.32l3.77 22.63c.93 5.6-2.84 7.72-4.85 8.08h-8.08l-12.39-4.31-4.85-4.85-6.47-9.16-1.08-8.62 1.08-7.54 3.23-7.01 4.31-2.69 7.01-2.16h5.93l7.54 4.85z"/><path fill="#fff" d="m567.698 484.65 111.99 14.1-10.78-26.63c-8.62-19.27-27.6-27.22-36.02-28.78l-36.03-3.72-38.57-3.72-34.66-2.35h-48.94l-45.62 4.9-57.76 5.29-10.38 4.11-10.57 6.46-7.44 8.22-4.7 8.81-5.68 14.68-1.37 12.73 89.28-14.1h147.25M210.727 481.52l86.15 7.83-18.99 18.6-64.81 13.31-8.81 3.92 20.75 18.8 13.12 23.3 13.31 28.39 5.29 15.86c2.51 17.39-12.92 26.56-20.95 28.98-19.11 6.42-31.98-7.24-36.03-14.88l-3.92-23.1c-3.13-12.84-9.27-10.96-11.94-8.42-11.28 8.15-21.67 30.02-25.45 39.94l-2.15 10.18v9.2l4.89 15.66c2.48 3.52 7.95 12.69 9.99 21.15s-5.81 17.36-9.99 20.75c-7.52 6.27-24.93 6-32.7 5.09l-2.74 7.24-10.77 7.83c-17.7 7.67-34.26 1.24-40.33-2.94l-13.51 8.81-18.01-1.18-8.43-8.81-5.29-13.9h-7.44l-7.5-1.25c-31.13-11.6 4.17-88.03 28.65-122.87l2.34-7.26c19.42-70.8 118.26-96.33 165.25-100.25zM795.597 481.52l-86.159 7.83 18.989 18.6 64.81 13.31 8.81 3.92-20.76 18.8-13.12 23.3-13.31 28.39-5.29 15.86c-2.51 17.39 12.911 26.56 20.951 28.98 19.11 6.42 31.979-7.24 36.019-14.88l3.92-23.1c3.13-12.84 9.261-10.96 11.941-8.42 11.28 8.15 21.669 30.02 25.459 39.94l2.151 10.18v9.2l-4.891 15.66c-2.48 3.52-7.949 12.69-9.989 21.15-2.03 8.46 5.81 17.36 9.989 20.75 7.51 6.27 24.92 6 32.69 5.09l2.74 7.24 10.78 7.83c17.69 7.67 34.261 1.24 40.331-2.94l13.509 8.81 18.01-1.17 8.42-8.81 5.291-13.9h7.439l7.5-1.25c31.133-11.6-4.17-88.03-28.65-122.87l-2.34-7.26c-19.42-70.8-118.26-96.33-165.25-100.25z"/><path fill="#000" d="M300.547 477.55c23.18 5.03 37.24-5.96 41.62-12.01l-13.86 27.37h-12.67l-15.08-15.36z"/><path fill="#000" stroke="#000" stroke-miterlimit="10" stroke-width="2" d="M889.098 280.59h-24.02v24.02h24.02z"/><path stroke="#000" stroke-linecap="round" stroke-miterlimit="10" stroke-width="2.54" d="M679.447 352.08c0 36.17-13.27 69.52-35.61 96.24a49 49 0 0 0-15.34-4.08c-14.9-1.44-33.6-3.17-52.51-4.72h-.01c-3.92-.32-7.85-.63-11.75-.93-23.55-1.8-61.33-3.17-61.33-3.17-14.73 0-37.51 1.35-60.91 3.14-4.4.34-8.84.69-13.26 1.05-18.54 1.52-36.81 3.22-51.43 4.63a48.9 48.9 0 0 0-12.33 2.84c-21.72-26.5-34.58-59.39-34.58-95 0-87.8 78.14-158.98 174.53-158.98s174.53 71.18 174.53 158.98Z"/><path stroke="#000" stroke-linecap="round" stroke-miterlimit="10" stroke-width="2.49" d="M528.528 363.33c-2.2-3.45-3.54-8.07-3.54-13.15 0-10.68 5.95-19.34 13.29-19.34s13.29 8.66 13.29 19.34c0 3.64-.69 7.05-1.89 9.95"/><path fill="#000" stroke="#000" stroke-miterlimit="10" stroke-width="1.84" d="M534.316 367.12c5.048 0 9.14-6.904 9.14-15.42s-4.092-15.42-9.14-15.42-9.14 6.904-9.14 15.42 4.092 15.42 9.14 15.42Z"/><path stroke="#000" stroke-linecap="round" stroke-miterlimit="10" stroke-width="2.49" d="M476.778 363.33c2.2-3.45 3.54-8.07 3.54-13.15 0-10.68-5.95-19.34-13.29-19.34s-13.29 8.66-13.29 19.34c0 3.64.69 7.05 1.89 9.95"/><path fill="#000" stroke="#000" stroke-miterlimit="10" stroke-width="1.84" d="M470.976 367.12c5.048 0 9.14-6.904 9.14-15.42s-4.092-15.42-9.14-15.42-9.14 6.904-9.14 15.42 4.092 15.42 9.14 15.42Z"/><path fill="#000" stroke="#000" stroke-miterlimit="10" stroke-width="1.71" d="M519.916 371.44c.82 1.93-.08 4.15-2.01 4.97s-10.36 3.24-11.17 1.31 6.29-7.48 8.22-8.3 4.15.08 4.97 2.01zM486.319 371.44c-.82 1.93.08 4.15 2.01 4.97s10.36 3.24 11.17 1.31c.82-1.93-6.29-7.48-8.22-8.3s-4.15.08-4.97 2.01z"/><path stroke="#000" stroke-linecap="round" stroke-miterlimit="10" stroke-width="2.49" d="M542.498 393.76c-9.39 8.44-24.08 13.87-40.61 13.87s-29.83-4.93-39.24-12.7"/><path stroke="#000" stroke-linecap="round" stroke-miterlimit="10" stroke-width="2.49" d="M556.859 387.79c6.41 10.17 10 22.29 9.7 35.26-.12 5.37-.93 10.57-2.33 15.54-23.55-1.8-46.52-3.17-61.33-3.17-14.73 0-37.51 1.35-60.91 3.14a63 63 0 0 1-2.32-17.02c0-12.34 3.52-23.85 9.62-33.59 2.11-3.38 1.37-7.8-1.78-10.25-10.37-8.07-17.04-20.66-17.04-34.82 0-24.34 19.74-44.08 44.09-44.08 9.19 0 17.74 2.82 24.81 7.64 2.17 1.48 5 1.47 7.17-.01 7.7-5.25 17.15-8.12 27.29-7.56 22.35 1.24 40.44 19.43 41.54 41.79.73 14.93-5.97 28.34-16.72 36.84a7.78 7.78 0 0 0-1.79 10.29Z"/><path stroke="#000" stroke-linecap="round" stroke-miterlimit="10" stroke-width="2.49" d="M636.787 368.53c0 22.59-18.32 40.91-40.91 40.91-.53 0-1.07-.01-1.6-.03-.8 12.46-5.03 22.83-18.29 30.11h-.01c-3.92-.32-7.85-.63-11.75-.93-23.55-1.8-46.52-3.17-61.33-3.17-14.73 0-37.51 1.35-60.91 3.14-4.4.34-8.84.69-13.26 1.05-13.41-7.27-17.37-17.67-17.85-30.18-.36.01-.72.01-1.08.01-22.59 0-40.91-18.32-40.91-40.91s18.32-40.92 40.91-40.92c3.66 0 7.21.48 10.58 1.38 13.13-32.73 45.15-55.84 82.57-55.84s69.41 23.09 82.54 55.79c3.32-.87 6.8-1.33 10.39-1.33 22.59 0 40.91 18.32 40.91 40.92Z"/><path fill="#000" d="M674.287 488.93s91.51-52.86 218.78 21.34l-56.01-17.23-35.01 1.59-45.76 19.66-7.61 8.12-69.51-21.27-4.89-12.22z"/><path stroke="#000" stroke-linecap="round" stroke-miterlimit="10" stroke-width="2.49" d="M413.057 395.19c-15.58 0-28.26-12.68-28.26-28.26 0-2.6.35-5.11 1.01-7.5 4.54-16.46 28.28-15.4 31.53 1.36l4.98 25.71"/><path stroke="#000" stroke-linecap="round" stroke-miterlimit="10" stroke-width="2.49" d="M400.516 375.23c-1.26-5.15 1.89-10.34 7.04-11.61 5.15-1.26 10.34 1.89 11.61 7.04M592.619 395.19c15.58 0 28.26-12.68 28.26-28.26 0-2.6-.35-5.11-1.01-7.5-4.54-16.46-28.28-15.4-31.53 1.36l-4.98 25.71"/><path stroke="#000" stroke-linecap="round" stroke-miterlimit="10" stroke-width="2.49" d="M605.158 375.23c1.26-5.15-1.89-10.34-7.04-11.61-5.15-1.26-10.34 1.89-11.61 7.04M681.126 508.77h-356.47l11.33-32.18a48.74 48.74 0 0 1 28.98-29.51 48.9 48.9 0 0 1 12.33-2.84c14.62-1.41 32.89-3.11 51.43-4.63 4.42-.36 8.86-.71 13.26-1.05 23.4-1.79 46.18-3.14 60.91-3.14 14.82 0 37.78 1.37 61.33 3.17 3.9.3 7.83.61 11.75.93h.01c18.91 1.55 37.61 3.28 52.51 4.72 5.4.53 10.57 1.93 15.34 4.08a48.76 48.76 0 0 1 25.96 28.27z"/><path fill="#000" stroke="#000" stroke-linecap="round" stroke-miterlimit="10" stroke-width="2.49" d="M502.467 477.85c6.119 0 11.08-6.77 11.08-15.12 0-8.351-4.961-15.12-11.08-15.12-6.12 0-11.08 6.769-11.08 15.12s4.96 15.12 11.08 15.12Z"/><path fill="#fff" stroke="#000" stroke-miterlimit="10" stroke-width="2" d="M362.399 305.35a7 7 0 0 1-6.33-9.97c9.83-21.02 25.26-39.95 44.63-54.76 3.07-2.35 7.46-1.76 9.81 1.31s1.76 7.46-1.31 9.81c-17.58 13.45-31.57 30.59-40.45 49.57a7.01 7.01 0 0 1-6.35 4.04Z"/><path fill="#000" d="m382.03 398.26 10.52-12.14s9.82 8.64 23.57 7.43c0 0 6.77 23.33 23.77 16.04 0 0-1.49 26.37 2.09 28.97l-13.26 1.05s-20.97-10.52-17.85-30.18c0 0-14.94 1.63-28.85-11.17zM623.098 398.26l-10.52-12.14s-9.82 8.64-23.57 7.43c0 0-6.77 23.33-23.77 16.04 0 0 1.49 26.37-2.09 28.97l13.26 1.05s20.97-10.52 17.85-30.18c0 0 14.94 1.63 28.85-11.17zM403.268 328.46s12.76 4.15 17.8 12.16l1.48-14.54-2.18 2.91-17.11-.53zM602.948 328.46s-12.76 4.15-17.8 12.16l-1.48-14.54 2.18 2.91 17.11-.53z"/><path fill="#fff" stroke="#000" stroke-miterlimit="10" stroke-width="2" d="M423.227 242.25a8.5 8.5 0 1 0-.001-17.001 8.5 8.5 0 0 0 .001 17.001Z"/><path fill="#fff" stroke="#000" stroke-linecap="round" stroke-miterlimit="10" stroke-width="2.54" d="M502.466 468.9c5.545 0 10.04-4.764 10.04-10.64s-4.495-10.64-10.04-10.64-10.04 4.764-10.04 10.64 4.495 10.64 10.04 10.64Z"/><path fill="#000" stroke="#000" stroke-linecap="round" stroke-miterlimit="10" stroke-width="2.49" d="m326.738 501.13 4.71-11.57s190.29-38.46 342.28 4.05l8.05 22.64-183.14-6.31-107.58 11.87-64.32-20.67z"/><path stroke="#000" stroke-linecap="round" stroke-miterlimit="10" stroke-width="2.54" d="M741.328 521.38c27.34-27.21 78.05-36.68 128.91-20.65 51.31 16.18 87.62 53.53 93.95 91.86"/><path stroke="#000" stroke-linecap="round" stroke-miterlimit="10" stroke-width="2.54" d="M798.179 528.7c-.42.27-.83.59-1.24.93-24.11 17.55-27.66 38.33-36.6 55.71-10.36 20.14-17.42 38.27-2.44 50.02 18.55 14.55 45.49 7.88 49.19-12.11 3.7-19.97 4.15-32.34 18.16-24.96 13.61 12.48 27.63 42.82 24.98 55.24-2.64 12.42-7.68 21.43-14.11 32.49-6.33 10.88 4.27 37.55 41.91 31.43 0 0-2.57 12.12 21.58 18.1 19.01 4.7 32.68-6.94 32.68-6.94s6.74 14.32 29.1 8.28c12.22-3.3 15.9-23.16 15.9-23.16s18.79 4.77 24.801-9.9c6.02-14.67-3.271-39.41-7.971-53.78-13.38-40.85-33.14-65.05-55.03-82.24-39.21-30.8-109.86-59.32-140.9-39.12z"/><path fill="#000" d="m837.297 611.28-17.45-28.38-3.68-4.77-7.39 29.29s4.89-9.85 9.18-11.1c8.05-2.35 19.35 14.96 19.35 14.96z"/><path stroke="#000" stroke-linecap="round" stroke-miterlimit="10" stroke-width="2.54" d="m878.039 717.46 14.56-27.33a81.17 81.17 0 0 0 8.34-52l-11.98-41.5M931.426 728.98l14.56-27.33a81.17 81.17 0 0 0 8.34-52l-11.98-41.5"/><path stroke="#000" stroke-linecap="round" stroke-miterlimit="10" stroke-width="2.54" d="M850.238 653.53s37.14-21.17 50.96 3.49M900.609 669.98s39.34-22.42 53.99 3.7M842.426 620.04s39.71-22.63 54.5 3.74M900.777 635.94s35.23-23.49 50.89 4.45M756.398 594.57s31.18-18.3 53.36 13.28M767.008 570.9s28.32-20.52 50.5 11.05"/><path stroke="#fff" stroke-linecap="round" stroke-miterlimit="10" stroke-width="2.49" d="M509.008 474.93c-1.83 1.83-4.09 2.92-6.54 2.92s-4.79-1.12-6.64-3.02"/><path fill="#000" d="m767.336 504.53 46.64 17.88-10.9 4.35-58.67-15.25 5.69-4.69zM803.079 526.76s-23.8 25.11-24.5 38.16l-11.02 4.55 12.23-23.63 10.15-10.19 7-6.01 6.14-2.87zM931.477 562.32s27.81 17.11 25.35 8.46l5.19 11.36.92 8.16-13.92-14.9z"/><path stroke="#000" stroke-linecap="round" stroke-miterlimit="10" stroke-width="2.54" d="m977.267 713.85 6.08-30.37a81.13 81.13 0 0 0-6.98-52.2"/><path stroke="#000" stroke-linecap="round" stroke-miterlimit="10" stroke-width="2.54" d="M952.199 686.24s25.9-26.66 31.02-3.54M981.309 695.42s21.111-28.17 22.831-6.12M984.949 661.29s8.62-16.09 14.61 5.08M954.668 651.5s21.55-18.79 28.28-1.3"/><path fill="#000" d="M993.539 712.21s-13.63-4.69-11.97-16.15l-4.28 17.68 6.88 1.77 9.38-3.3zM945.959 736.79s-12.18-7.72-7.91-18.48l-5.76 10.31 4.96 6.07zM889.439 698.16s-10.16 28.12 4.16 34.44l-6.73-1.83-6.65-6.36-2.09-6.54 3.98-7.86 7.33-11.84zM848.558 663.32s-14.23 40.42.54 50.29l-10.33-7.34-3.33-8.66-.59-6.43 1.28-5.16zM331.108 488.93s-91.51-52.86-218.78 21.34l56.01-17.23 35.01 1.59 45.76 19.66 3.26-.28 73.85-12.87 4.89-12.22z"/><path stroke="#000" stroke-linecap="round" stroke-miterlimit="10" stroke-width="2.54" d="M253.247 512.35c-28.7-20.09-73.34-25.73-118.09-11.62-51.31 16.18-87.62 53.53-93.95 91.86"/><path stroke="#000" stroke-linecap="round" stroke-miterlimit="10" stroke-width="2.54" d="M207.216 528.7c.42.27.83.59 1.24.93 24.11 17.55 27.66 38.33 36.6 55.71 10.36 20.14 17.42 38.27 2.44 50.02-18.55 14.55-45.49 7.88-49.19-12.11-3.7-19.97-4.15-32.34-18.16-24.96-13.61 12.48-27.63 42.82-24.98 55.24 2.64 12.42 7.68 21.43 14.11 32.49 6.33 10.88-4.27 37.55-41.91 31.43 0 0 2.57 12.12-21.58 18.1-19.01 4.7-32.68-6.94-32.68-6.94s-6.74 14.32-29.1 8.28c-12.22-3.3-15.9-23.16-15.9-23.16s-18.79 4.77-24.8-9.9c-6.02-14.67 3.27-39.41 7.97-53.78 13.38-40.85 33.14-65.05 55.03-82.24 39.21-30.8 109.86-59.32 140.9-39.12z"/><path fill="#000" d="m168.108 611.28 17.45-28.38 3.68-4.77 7.39 29.29s-4.89-9.85-9.18-11.1c-8.05-2.35-19.35 14.96-19.35 14.96z"/><path stroke="#000" stroke-linecap="round" stroke-miterlimit="10" stroke-width="2.54" d="m127.367 717.46-14.56-27.33a81.17 81.17 0 0 1-8.34-52l11.98-41.5M73.977 728.98l-14.56-27.33a81.17 81.17 0 0 1-8.34-52l11.98-41.5"/><path stroke="#000" stroke-linecap="round" stroke-miterlimit="10" stroke-width="2.54" d="M155.167 653.53s-37.14-21.17-50.96 3.49M104.799 669.98s-39.34-22.42-53.99 3.7M162.977 620.04s-39.71-22.63-54.5 3.74M104.617 635.94s-35.23-23.49-50.89 4.45M249.008 594.57s-31.18-18.3-53.36 13.28M238.398 570.9s-28.32-20.52-50.5 11.05"/><path fill="#000" d="m238.066 504.53-46.64 17.88 15.71 4.98 54.16-13.24-6-7.33zM202.328 526.76s23.8 25.11 24.5 38.16l11.02 4.55-12.23-23.63-10.15-10.19-7-6.01-6.14-2.87zM73.929 562.32s-27.81 17.11-25.35 8.46l-5.19 11.36-.92 8.16 13.92-14.9z"/><path stroke="#000" stroke-linecap="round" stroke-miterlimit="10" stroke-width="2.54" d="m28.128 713.85-6.08-30.37a81.13 81.13 0 0 1 6.98-52.2"/><path stroke="#000" stroke-linecap="round" stroke-miterlimit="10" stroke-width="2.54" d="M53.208 686.24s-25.9-26.66-31.02-3.54M24.1 695.42S2.99 667.25 1.27 689.3M20.458 661.29s-8.62-16.09-14.61 5.08M50.73 651.5s-21.55-18.79-28.28-1.3"/><path fill="#000" d="M11.858 712.21s13.63-4.69 11.97-16.15l4.28 17.68-6.88 1.77-9.38-3.3zM59.438 736.79s12.18-7.72 7.91-18.48l5.76 10.31-4.96 6.07zM115.957 698.16s10.16 28.12-4.16 34.44l6.73-1.83 6.65-6.36 2.09-6.54-3.98-7.86-7.33-11.84zM156.849 663.32s14.23 40.42-.54 50.29l10.33-7.34 3.33-8.66.59-6.43-1.28-5.16zM664.859 465s11.03 17.42 42.38 12.19-2.9 17.42-2.9 17.42l-26.71 2.9zM613.277 441.8s45.52-14.2 59.49-47.92l-5.68 17.62-7.36 13.81-10.01 15.55-6.37 8.11-9.01-3.64-10.17-1.49-8.52-.74zM397.146 441.8s-45.52-14.2-59.49-47.92l5.68 17.62 7.36 13.81 10.01 15.55 4.27 6.21 11.12-1.75 10.17-1.49 8.52-.74 2.37-1.3zM595.939 363.13s1.78-13.04 8.6-14.82l-6.48.78-5 2.93-2.67 3.1-1.55 3.79-1.21 7.84 2.84-2.15 5.47-1.46zM409.756 363.13s-1.78-13.04-8.6-14.82l6.48.78 5 2.93 2.67 3.1 1.55 3.79 1.21 7.84-2.84-2.15-5.47-1.46z"/><path fill="#000" stroke="#000" stroke-miterlimit="10" stroke-width="2" d="M176.407 321.78a4.7 4.7 0 1 0 0-9.4 4.7 4.7 0 0 0 0 9.4ZM191.087 321.78a4.7 4.7 0 1 0 0-9.4 4.7 4.7 0 0 0 0 9.4ZM205.766 321.78a4.7 4.7 0 1 0 0-9.4 4.7 4.7 0 0 0 0 9.4Z"/><path stroke="#000" stroke-miterlimit="10" stroke-width="2" d="M171.977 331.75h159.08"/><path fill="#000" d="m428.727 439.61 4.22-4.02 22.41-3.01c32.88-4.42 66.22-4.12 99.02.9l13.77 2.11 4.04 4.04-38.52-3.36-41.74-.57-49.94 3.15z"/><defs><linearGradient id="a" x1="479.568" x2="535.288" y1="149.53" y2="589.52" gradientUnits="userSpaceOnUse"><stop stop-color="#fff"/><stop offset="1" stop-color="#fff" stop-opacity="0"/></linearGradient></defs></svg>