<svg width="12" height="12" viewBox="0 0 12 12" fill="none" xmlns="http://www.w3.org/2000/svg">
<path d="M1.51113 1.06819C1.51095 1.35167 1.62344 1.62335 1.82376 1.82367C2.02408 2.02398 2.29591 2.13648 2.57923 2.13648H7.55437L0.31281 9.37804C0.1125 9.57834 0 9.85004 0 10.1335C0 10.4168 0.1125 10.6885 0.31281 10.889C0.5133 11.0893 0.78496 11.2018 1.06829 11.2018C1.35177 11.2018 1.62344 11.0893 1.82376 10.889L9.06537 3.64743V8.62254C9.06537 9.00424 9.26887 9.35694 9.59937 9.54774C9.92987 9.73864 10.3372 9.73864 10.6677 9.54774C10.9982 9.35694 11.2018 9.00424 11.2018 8.62254V1.06828C11.2019 0.78498 11.0894 0.51312 10.8889 0.31281C10.6886 0.11249 10.4169 -0.000179785 10.1336 2.15343e-07H2.57933C2.29602 -0.000179785 2.02435 0.11249 1.82385 0.31281C1.62354 0.51312 1.51095 0.78491 1.51113 1.06819Z" fill="white"/>
</svg>
