<svg width="24" height="24" viewBox="0 0 24 24" fill="none" xmlns="http://www.w3.org/2000/svg">
<g clip-path="url(#clip0_853_236)">
<path d="M19.667 0C22.0599 0.000175222 23.9998 1.94003 24 4.33301V19.667C23.9998 22.0599 22.0599 23.9998 19.667 24H4.33301C1.94003 23.9998 0.000175222 22.0599 0 19.667V4.33301C0.000175992 1.94003 1.94003 0.000175992 4.33301 0H19.667Z" fill="black"/>
<path d="M19.1313 9.55121C19.2971 9.41873 19.3397 9.18962 19.2325 9.00943L18.1284 7.15592C18.0209 6.97543 17.7949 6.89704 17.5936 6.96996L17.2178 7.1067L18.8212 9.79855L19.1313 9.55121Z" fill="white"/>
<path d="M13.0996 14.8701C12.3106 15.1096 11.5165 15.4204 10.7942 15.8242L10.4121 16.0381L12.0497 18.7871C12.1309 18.9238 12.2786 19.0001 12.4306 19.0001C12.5052 19.0001 12.5808 18.9816 12.6501 18.943L14.426 17.9491C14.5269 17.8926 14.6006 17.7996 14.6307 17.6905C14.6611 17.5814 14.6451 17.465 14.5868 17.3672L13.0996 14.8701Z" fill="white"/>
<path d="M6.37644 12.6224C6.13914 12.7552 5.96923 12.9694 5.89869 13.2255C5.86766 13.3368 5.85732 13.4501 5.86641 13.5616L4.72313 14.1891C4.62094 14.245 4.54633 14.3383 4.51561 14.4476C4.48457 14.5573 4.50025 14.6743 4.55887 14.7728L5.59368 16.5102C5.67518 16.6466 5.82283 16.7232 5.97487 16.7232C6.04823 16.7232 6.12252 16.7053 6.19086 16.6679L7.31407 16.0514C7.49777 16.1951 7.72693 16.2729 7.96048 16.2729C8.13446 16.2729 8.31064 16.2301 8.47177 16.1401L9.5931 15.5124L7.49777 11.9946L6.37644 12.6224Z" fill="white"/>
<path d="M19.4411 12.545L15.0739 5.213C14.9955 5.08174 14.851 5.0003 14.6943 5C14.694 5 14.6937 5 14.6934 5C14.5369 5 14.3924 5.08052 14.3137 5.21148C14.2868 5.25615 11.5748 9.714 8.25879 11.5693L10.3544 15.0871C12.2043 14.0518 14.4629 13.5894 16.0319 13.3837C17.7432 13.1591 19.0304 13.1831 19.0505 13.1837C19.2088 13.1874 19.3577 13.1074 19.4385 12.975C19.5194 12.8425 19.5204 12.6781 19.4411 12.545Z" fill="white"/>
</g>
<defs>
<clipPath id="clip0_853_236">
<rect width="24" height="24" fill="white"/>
</clipPath>
</defs>
</svg>
