<svg width="30" height="29" viewBox="0 0 30 29" fill="none" xmlns="http://www.w3.org/2000/svg">
<path d="M11.4526 10.1451L21.311 17.3959C21.7944 17.7514 22.4852 17.6127 22.7155 17.0606C23.9275 14.1487 23.386 10.6493 20.9745 8.24664C18.5631 5.84408 15.2078 5.31714 12.1409 6.51719L8.7907 4.97169C13.5959 1.69931 19.431 2.50857 23.0773 6.14402C25.9696 9.02572 26.8653 12.9537 26.0277 16.4958L26.0353 16.4883C24.8207 21.6919 26.334 23.7719 29.4337 28.025C29.507 28.1259 29.5804 28.2267 29.6538 28.3301L25.5747 24.266V24.2786L11.4502 10.1425" fill="#D9D9D9"/>
<path d="M9.41817 8.38291C5.9692 11.6655 6.56385 16.7456 9.50669 19.6751C11.6828 21.8433 15.2482 22.7282 18.3605 21.4273L21.7032 22.9652C21.101 23.3988 20.3292 23.8652 19.4435 24.193C15.4405 25.8343 10.6479 25.0174 7.39382 21.7777C4.26372 18.6591 3.27939 13.8639 4.9697 9.77205C6.23236 6.71391 4.1625 4.55083 2.07745 2.36747C1.33858 1.59352 0.59717 0.819496 0 0.000137329L9.41559 8.38043" fill="#D9D9D9"/>
</svg>
