<svg width="24" height="24" viewBox="0 0 24 24" fill="none" xmlns="http://www.w3.org/2000/svg"><path d="M12 24C18.6274 24 24 18.6274 24 12C24 5.37258 18.6274 0 12 0C5.37258 0 0 5.37258 0 12C0 18.6274 5.37258 24 12 24Z" fill="#303245"/><path fill-rule="evenodd" clip-rule="evenodd" d="M15.189 7.7747C14.815 7.69988 14.3099 7.64402 13.9922 7.64402C13.132 7.64402 13.0762 8.018 13.0762 8.61644V9.68168H15.2264L15.039 11.8882H13.0762V18.6H10.3838V11.8882H9V9.68168H10.3838V8.3168C10.3838 6.4472 11.2625 5.40002 13.4686 5.40002C14.2351 5.40002 14.7961 5.51222 15.5252 5.6618L15.189 7.7747Z" fill="white"/></svg>