<svg width="26" height="30" viewBox="0 0 26 30" fill="none" xmlns="http://www.w3.org/2000/svg">
<path fill-rule="evenodd" clip-rule="evenodd" d="M25.4625 20.7544H21.9643V29.6265L13.4393 21.6829V29.6265H12.0232V21.6829L3.49816 29.6265V20.7544H0V7.97162H3.48879V-6.48499e-05L12.0232 7.59648V-6.48499e-05H13.4393V7.59648L21.9737 -6.48499e-05V7.97162H25.4625V20.7544ZM20.5388 26.3534V20.7451H14.5272L20.5388 26.3534ZM4.91431 26.3534L10.9259 20.7451H4.91431V26.3534ZM1.41615 9.38777V19.3289H10.9071L3.48879 12.5108V9.38777H1.42553H1.41615ZM4.90493 11.8918L12.0232 18.4286V9.49093L4.90493 3.16047V11.8918ZM20.5482 3.16047L13.4299 9.49093V18.4286L20.5482 11.8918V3.16047ZM24.037 9.38777H21.9737V12.5108L14.5554 19.3289H24.0463V9.38777H24.037Z" fill="#D9D9D9"/>
</svg>
