<svg width="24" height="24" viewBox="0 0 24 24" fill="none" xmlns="http://www.w3.org/2000/svg">
<path d="M12 24C18.6274 24 24 18.6274 24 12C24 5.37258 18.6274 0 12 0C5.37258 0 0 5.37258 0 12C0 18.6274 5.37258 24 12 24Z" fill="#303245"/>
<path d="M8.3483 19.0422V9.56739H5.18637V19.0422H8.34863H8.3483ZM6.768 8.27399C7.8704 8.27399 8.55672 7.54644 8.55672 6.6372C8.53608 5.70725 7.8704 5 6.78896 5C5.70679 5 5 5.70725 5 6.63712C5 7.54636 5.68607 8.27391 6.74728 8.27391H6.76775L6.768 8.27399ZM10.0985 19.0422H13.2602V13.7516C13.2602 13.4688 13.2808 13.1853 13.3643 12.9833C13.5928 12.4173 14.113 11.8314 14.9867 11.8314C16.1306 11.8314 16.5884 12.7002 16.5884 13.974V19.0422H19.75V13.6096C19.75 10.6995 18.1903 9.34526 16.1101 9.34526C14.4046 9.34526 13.6555 10.2947 13.2394 10.9414H13.2604V9.56772H10.0986C10.1399 10.4566 10.0984 19.0425 10.0984 19.0425L10.0985 19.0422Z" fill="white"/>
</svg>
