<svg width="30" height="30" viewBox="0 0 30 30" fill="none" xmlns="http://www.w3.org/2000/svg">
<path d="M26.4196 16.3858C24.1822 17.3383 22.1478 18.7103 20.4262 20.4277C18.0287 22.83 16.3183 25.8304 15.4726 29.1174C15.4355 29.2633 15.3508 29.3928 15.2319 29.4853C15.113 29.5777 14.9666 29.6279 14.816 29.6279C14.6654 29.6279 14.5191 29.5777 14.4001 29.4853C14.2812 29.3928 14.1965 29.2633 14.1594 29.1174C13.312 25.8309 11.6013 22.8307 9.20448 20.4277C7.48274 18.7105 5.44839 17.3386 3.21112 16.3858C2.33568 16.0087 1.43601 15.7057 0.51478 15.4727C0.367898 15.4366 0.23736 15.3523 0.144038 15.2333C0.0507158 15.1143 0 14.9674 0 14.8161C0 14.6649 0.0507158 14.518 0.144038 14.399C0.23736 14.2799 0.367898 14.1956 0.51478 14.1596C1.43601 13.9279 2.33299 13.6249 3.21112 13.2478C5.44852 12.2953 7.48291 10.9233 9.20448 9.20594C11.6026 6.80339 13.3135 3.80242 14.1594 0.514898C14.1955 0.368017 14.2798 0.237476 14.3988 0.144156C14.5179 0.0508327 14.6648 0.000116348 14.816 0.000116348C14.9673 0.000116348 15.1141 0.0508327 15.2332 0.144156C15.3522 0.237476 15.4365 0.368017 15.4726 0.514898C15.7042 1.43747 16.0073 2.33446 16.3844 3.21258C17.3368 5.45002 18.7088 7.48442 20.4262 9.20594C22.8289 11.6035 25.8299 13.314 29.1172 14.1596C29.2632 14.1967 29.3927 14.2814 29.4851 14.4003C29.5776 14.5192 29.6278 14.6655 29.6278 14.8161C29.6278 14.9668 29.5776 15.1131 29.4851 15.232C29.3927 15.3509 29.2632 15.4356 29.1172 15.4727C28.1951 15.7047 27.293 16.0101 26.4196 16.3858Z" fill="#D9D9D9"/>
<path d="M26.4196 16.3858C24.1822 17.3383 22.1478 18.7103 20.4262 20.4277C18.0287 22.83 16.3183 25.8304 15.4726 29.1174C15.4355 29.2633 15.3508 29.3928 15.2319 29.4853C15.113 29.5777 14.9666 29.6279 14.816 29.6279C14.6654 29.6279 14.5191 29.5777 14.4001 29.4853C14.2812 29.3928 14.1965 29.2633 14.1594 29.1174C13.312 25.8309 11.6013 22.8307 9.20448 20.4277C7.48274 18.7105 5.44839 17.3386 3.21112 16.3858C2.33568 16.0087 1.43601 15.7057 0.51478 15.4727C0.367898 15.4366 0.23736 15.3523 0.144038 15.2333C0.0507158 15.1143 0 14.9674 0 14.8161C0 14.6649 0.0507158 14.518 0.144038 14.399C0.23736 14.2799 0.367898 14.1956 0.51478 14.1596C1.43601 13.9279 2.33299 13.6249 3.21112 13.2478C5.44852 12.2953 7.48291 10.9233 9.20448 9.20594C11.6026 6.80339 13.3135 3.80242 14.1594 0.514898C14.1955 0.368017 14.2798 0.237476 14.3988 0.144156C14.5179 0.0508327 14.6648 0.000116348 14.816 0.000116348C14.9673 0.000116348 15.1141 0.0508327 15.2332 0.144156C15.3522 0.237476 15.4365 0.368017 15.4726 0.514898C15.7042 1.43747 16.0073 2.33446 16.3844 3.21258C17.3368 5.45002 18.7088 7.48442 20.4262 9.20594C22.8289 11.6035 25.8299 13.314 29.1172 14.1596C29.2632 14.1967 29.3927 14.2814 29.4851 14.4003C29.5776 14.5192 29.6278 14.6655 29.6278 14.8161C29.6278 14.9668 29.5776 15.1131 29.4851 15.232C29.3927 15.3509 29.2632 15.4356 29.1172 15.4727C28.1951 15.7047 27.293 16.0101 26.4196 16.3858Z" fill="#D9D9D9"/>
<path d="M26.4196 16.3858C24.1822 17.3383 22.1478 18.7103 20.4262 20.4277C18.0287 22.83 16.3183 25.8304 15.4726 29.1174C15.4355 29.2633 15.3508 29.3928 15.2319 29.4853C15.113 29.5777 14.9666 29.6279 14.816 29.6279C14.6654 29.6279 14.5191 29.5777 14.4001 29.4853C14.2812 29.3928 14.1965 29.2633 14.1594 29.1174C13.312 25.8309 11.6013 22.8307 9.20448 20.4277C7.48274 18.7105 5.44839 17.3386 3.21112 16.3858C2.33568 16.0087 1.43601 15.7057 0.51478 15.4727C0.367898 15.4366 0.23736 15.3523 0.144038 15.2333C0.0507158 15.1143 0 14.9674 0 14.8161C0 14.6649 0.0507158 14.518 0.144038 14.399C0.23736 14.2799 0.367898 14.1956 0.51478 14.1596C1.43601 13.9279 2.33299 13.6249 3.21112 13.2478C5.44852 12.2953 7.48291 10.9233 9.20448 9.20594C11.6026 6.80339 13.3135 3.80242 14.1594 0.514898C14.1955 0.368017 14.2798 0.237476 14.3988 0.144156C14.5179 0.0508327 14.6648 0.000116348 14.816 0.000116348C14.9673 0.000116348 15.1141 0.0508327 15.2332 0.144156C15.3522 0.237476 15.4365 0.368017 15.4726 0.514898C15.7042 1.43747 16.0073 2.33446 16.3844 3.21258C17.3368 5.45002 18.7088 7.48442 20.4262 9.20594C22.8289 11.6035 25.8299 13.314 29.1172 14.1596C29.2632 14.1967 29.3927 14.2814 29.4851 14.4003C29.5776 14.5192 29.6278 14.6655 29.6278 14.8161C29.6278 14.9668 29.5776 15.1131 29.4851 15.232C29.3927 15.3509 29.2632 15.4356 29.1172 15.4727C28.1951 15.7047 27.293 16.0101 26.4196 16.3858Z" fill="#D9D9D9"/>
<path d="M26.4196 16.3858C24.1822 17.3383 22.1478 18.7103 20.4262 20.4277C18.0287 22.83 16.3183 25.8304 15.4726 29.1174C15.4355 29.2633 15.3508 29.3928 15.2319 29.4853C15.113 29.5777 14.9666 29.6279 14.816 29.6279C14.6654 29.6279 14.5191 29.5777 14.4001 29.4853C14.2812 29.3928 14.1965 29.2633 14.1594 29.1174C13.312 25.8309 11.6013 22.8307 9.20448 20.4277C7.48274 18.7105 5.44839 17.3386 3.21112 16.3858C2.33568 16.0087 1.43601 15.7057 0.51478 15.4727C0.367898 15.4366 0.23736 15.3523 0.144038 15.2333C0.0507158 15.1143 0 14.9674 0 14.8161C0 14.6649 0.0507158 14.518 0.144038 14.399C0.23736 14.2799 0.367898 14.1956 0.51478 14.1596C1.43601 13.9279 2.33299 13.6249 3.21112 13.2478C5.44852 12.2953 7.48291 10.9233 9.20448 9.20594C11.6026 6.80339 13.3135 3.80242 14.1594 0.514898C14.1955 0.368017 14.2798 0.237476 14.3988 0.144156C14.5179 0.0508327 14.6648 0.000116348 14.816 0.000116348C14.9673 0.000116348 15.1141 0.0508327 15.2332 0.144156C15.3522 0.237476 15.4365 0.368017 15.4726 0.514898C15.7042 1.43747 16.0073 2.33446 16.3844 3.21258C17.3368 5.45002 18.7088 7.48442 20.4262 9.20594C22.8289 11.6035 25.8299 13.314 29.1172 14.1596C29.2632 14.1967 29.3927 14.2814 29.4851 14.4003C29.5776 14.5192 29.6278 14.6655 29.6278 14.8161C29.6278 14.9668 29.5776 15.1131 29.4851 15.232C29.3927 15.3509 29.2632 15.4356 29.1172 15.4727C28.1951 15.7047 27.293 16.0101 26.4196 16.3858Z" fill="#D9D9D9"/>
</svg>
