<svg width="195" height="30" viewBox="0 0 195 30" fill="none" xmlns="http://www.w3.org/2000/svg">
<g clip-path="url(#clip0_3432_2987)">
<path d="M45.0548 2.43494V11.7167C43.726 10.4543 41.9206 9.67655 39.9301 9.67655C35.8525 9.67655 32.5469 12.9327 32.5469 16.9492C32.5469 20.9655 35.8525 24.2218 39.9301 24.2218C43.838 24.2218 47.0356 21.2295 47.2933 17.4437L47.3131 17.469V2.43494H45.0548ZM39.9301 21.9973C37.0988 21.9973 34.8052 19.7379 34.8052 16.9492C34.8052 14.1603 37.0988 11.901 39.9301 11.901C42.7612 11.901 45.0548 14.1603 45.0548 16.9492C45.0548 19.7379 42.7612 21.9973 39.9301 21.9973Z" fill="#1F034F"/>
<path d="M91.1176 9.67651C87.2093 9.67651 84.0121 12.669 83.7541 16.4547L83.7344 16.4293V28.9402H85.9928V22.1817C87.3215 23.444 89.127 24.2218 91.1176 24.2218C95.1949 24.2218 98.5011 20.9655 98.5011 16.9491C98.5011 12.9327 95.1949 9.67651 91.1176 9.67651ZM91.1176 21.9973C88.2861 21.9973 85.9928 19.738 85.9928 16.9491C85.9928 14.1604 88.2861 11.9009 91.1176 11.9009C93.949 11.9009 96.2423 14.1604 96.2423 16.9491C96.2423 19.738 93.949 21.9973 91.1176 21.9973Z" fill="#1F034F"/>
<path d="M57.3223 9.6991C53.2566 9.6991 49.9609 12.9456 49.9609 16.9504C49.9609 20.9551 53.2566 24.2016 57.3223 24.2016C59.5745 24.2016 61.5906 23.2048 62.9393 21.634L61.5965 20.1096C60.6221 21.3876 59.0705 22.2139 57.3223 22.2139C54.6014 22.2139 52.3569 20.2104 52.0223 17.6195H64.0595C64.0793 17.3983 64.0931 17.1754 64.0931 16.9504C64.0931 12.9456 61.3879 9.6991 57.3223 9.6991ZM52.1364 15.682C52.7134 13.3878 54.816 11.6869 57.3242 11.6869C59.8325 11.6869 61.3445 13.3878 61.9196 15.682H52.1364Z" fill="#1F034F"/>
<path d="M73.9474 9.6991C69.8817 9.6991 66.5859 12.9456 66.5859 16.9504C66.5859 20.9551 69.8817 24.2016 73.9474 24.2016C76.1997 24.2016 78.2157 23.2048 79.5645 21.634L78.2217 20.1096C77.2471 21.3876 75.6957 22.2139 73.9474 22.2139C71.2264 22.2139 68.9821 20.2104 68.6473 17.6195H80.6847C80.7043 17.3983 80.7181 17.1754 80.7181 16.9504C80.7181 12.9456 78.0129 9.6991 73.9474 9.6991ZM68.7615 15.682C69.3383 13.3878 71.4409 11.6869 73.9493 11.6869C76.4577 11.6869 77.9697 13.3878 78.5446 15.682H68.7615Z" fill="#1F034F"/>
<path d="M129.488 15.3585V24.0527H128.619V15.3585C128.619 14.028 128.238 12.9537 127.475 12.1372C126.714 11.3207 125.695 10.9115 124.421 10.9115C123.108 10.9115 122.029 11.3304 121.181 12.1663C120.333 13.0022 119.907 14.067 119.907 15.3585V24.0527H119.039V2.67114H119.907V12.5638C120.852 10.9095 122.368 10.0834 124.451 10.0834C125.995 10.0834 127.218 10.5683 128.126 11.538C129.035 12.5076 129.488 13.7798 129.488 15.3585Z" fill="#1F034F"/>
<path d="M164.938 24.0527V2.67114H165.807V24.0527H164.938ZM167.543 16.3845L174.894 24.0527H173.736L166.355 16.3553L172.983 10.3685H174.227L167.543 16.3845Z" fill="#1F034F"/>
<path d="M176.492 21.0833L177.187 20.5693C178.461 22.3556 179.983 23.2496 181.761 23.2496C182.783 23.2496 183.617 23.0072 184.263 22.5223C184.909 22.0376 185.232 21.3587 185.232 20.484C185.173 19.6676 184.923 19.0586 184.481 18.6591C184.035 18.2597 183.234 17.8038 182.077 17.2899L180.863 16.7488C179.685 16.2349 178.826 15.7229 178.288 15.2089C177.748 14.6951 177.476 14.0298 177.476 13.2133C177.476 12.168 177.891 11.3516 178.721 10.762C179.55 10.1355 180.543 9.82141 181.701 9.82141C183.418 9.82141 184.875 10.5525 186.072 12.0168L185.437 12.5869C184.335 11.2953 183.072 10.6476 181.644 10.6476C180.72 10.6476 179.947 10.8706 179.329 11.3166C178.712 11.7627 178.404 12.3853 178.404 13.1843C178.423 13.5081 178.485 13.7874 178.593 14.0259C178.699 14.2644 178.789 14.4486 178.868 14.5826C178.944 14.7163 179.153 14.8812 179.49 15.0809C179.827 15.2807 180.068 15.4146 180.213 15.4804C180.358 15.5464 180.728 15.7229 181.327 16.0079L182.629 16.5782C183.825 17.0921 184.712 17.6331 185.291 18.2033C185.869 18.7736 186.158 19.5143 186.158 20.4278C186.158 21.5681 185.724 22.4621 184.856 23.1081C184.007 23.7539 182.955 24.0777 181.701 24.0777C179.539 24.0777 177.803 23.0789 176.492 21.0833Z" fill="#1F034F"/>
<path d="M115.087 20.9748C113.915 22.3577 112.156 23.2363 110.185 23.2363C106.66 23.2363 103.803 20.4221 103.803 16.9506C103.803 13.4793 106.66 10.6652 110.185 10.6652C112.143 10.6652 113.896 11.536 115.067 12.9051L115.701 12.3796C114.378 10.8339 112.399 9.85071 110.186 9.85071C106.203 9.85071 102.977 13.0313 102.977 16.9527C102.977 20.8761 106.206 24.0546 110.186 24.0546C112.417 24.0546 114.412 23.0558 115.733 21.4889L115.087 20.9748Z" fill="#1F034F"/>
<path d="M160.939 20.9748C159.767 22.3577 158.006 23.2363 156.037 23.2363C152.512 23.2363 149.656 20.4221 149.656 16.9506C149.656 13.4793 152.512 10.6652 156.037 10.6652C157.996 10.6652 159.748 11.536 160.919 12.9051L161.553 12.3796C160.231 10.8339 158.252 9.85071 156.038 9.85071C152.056 9.85071 148.828 13.0313 148.828 16.9527C148.828 20.8761 152.058 24.0546 156.038 24.0546C158.269 24.0546 160.263 23.0558 161.584 21.4889L160.939 20.9748Z" fill="#1F034F"/>
<path d="M139.718 9.84558C135.735 9.84558 132.508 13.0261 132.508 16.9475C132.508 20.869 135.737 24.0495 139.718 24.0495C141.96 24.0495 143.961 23.0428 145.284 21.4625L144.651 20.9079C143.483 22.3158 141.707 23.2155 139.718 23.2155C136.204 23.2155 133.356 20.4093 133.356 16.9475H146.141C146.141 13.0261 143.7 9.84558 139.718 9.84558ZM133.407 16.164C133.798 13.0728 136.474 10.6795 139.718 10.6795C142.963 10.6795 144.851 13.0728 145.243 16.164H133.407Z" fill="#1F034F"/>
<path d="M6.60539 13.2691L6.62508 13.2944C6.88496 9.50868 10.0804 6.51629 13.9885 6.51629C13.9904 6.51629 13.9924 6.51629 13.9924 6.51629C13.9944 6.51629 13.9964 6.51629 13.9964 6.51629C15.9867 6.51629 17.7942 7.29395 19.1211 8.5565V0.95805C17.5362 0.34133 15.8076 0 13.9983 0C6.26675 0 0 6.17301 0 13.7889C0 18.7304 2.6402 23.063 6.60539 25.4969V13.2691Z" fill="#00E6FF"/>
<path d="M21.3829 2.07495V14.3104L21.3632 14.2852C21.1053 18.0708 17.908 21.0632 13.9998 21.0632C13.9979 21.0632 13.996 21.0632 13.996 21.0632C13.9939 21.0632 13.9921 21.0632 13.9921 21.0632C12.0015 21.0632 10.1942 20.2857 8.86719 19.023V26.6196C10.458 27.2383 12.1885 27.5816 14.0018 27.5816C21.7334 27.5816 28 21.4086 28 13.7925C28 8.84334 25.354 4.50885 21.3829 2.07495Z" fill="#007AFF"/>
<path d="M18.2722 11.0022C18.2269 11.2368 18.1443 11.4676 18.0162 11.6848C17.404 12.7301 16.0494 13.087 14.9883 12.4838C13.927 11.8807 13.5648 10.5464 14.177 9.50104C14.3444 9.21595 14.5689 8.98327 14.8248 8.80678C14.557 8.76412 14.2814 8.74084 13.9999 8.74084C11.1687 8.74084 8.875 11.0002 8.875 13.789C8.875 16.5779 11.1706 18.8372 13.9999 18.8372C16.829 18.8372 19.1248 16.5779 19.1248 13.789C19.1248 12.7592 18.8118 11.8012 18.2722 11.0022Z" fill="#9D60FB"/>
<path d="M191.898 24.0773C193.121 24.0773 194.114 23.0997 194.114 21.8937C194.114 20.6877 193.121 19.7098 191.898 19.7098C190.673 19.7098 189.68 20.6877 189.68 21.8937C189.68 23.0997 190.673 24.0773 191.898 24.0773Z" fill="#9D60FB"/>
</g>
<defs>
<clipPath id="clip0_3432_2987">
<rect width="195" height="30" fill="white"/>
</clipPath>
</defs>
</svg>
