<svg width="413" height="303" viewBox="0 0 413 303" fill="none" xmlns="http://www.w3.org/2000/svg">
<g filter="url(#filter0_d_476_3165)">
<rect x="17.3746" y="23.9754" width="275.676" height="226.014" rx="13.3652" transform="rotate(3.7261 17.3746 23.9754)" fill="white" stroke="black" stroke-width="1.78202"/>
<path fill-rule="evenodd" clip-rule="evenodd" d="M196.567 83.4236C202.719 78.0244 212.083 78.6341 217.483 84.7857C221.584 89.4581 228.697 89.9212 233.369 85.8203C236.33 83.2219 240.034 82.0148 243.683 82.1479L243.451 85.7087C240.713 85.6337 237.941 86.5501 235.72 88.4993C229.569 93.8986 220.204 93.2886 214.805 87.1372C210.704 82.4647 203.591 82.0018 198.919 86.1026C192.767 91.5019 183.403 90.8918 178.003 84.7405C173.902 80.068 166.789 79.605 162.117 83.7059C155.965 89.1054 146.6 88.4955 141.2 82.3437C137.099 77.6713 129.986 77.2083 125.314 81.3091C119.162 86.7083 109.798 86.0985 104.398 79.947C100.297 75.2745 93.1844 74.8116 88.5118 78.9124C82.36 84.3116 72.9958 83.7017 67.5962 77.5503C65.6468 75.3293 63.0163 74.0612 60.2915 73.7805L60.5234 70.2197C64.1588 70.561 67.6765 72.2382 70.2751 75.1989C74.3764 79.8711 81.489 80.3345 86.1614 76.2335C92.3133 70.8344 101.678 71.4439 107.077 77.5956C111.178 82.2679 118.291 82.7313 122.963 78.6302C129.115 73.231 138.48 73.8406 143.879 79.9923C147.98 84.6647 155.093 85.128 159.765 81.0269C165.917 75.6276 175.281 76.2373 180.681 82.389C184.782 87.0614 191.895 87.5246 196.567 83.4236Z" fill="black"/>
<path fill-rule="evenodd" clip-rule="evenodd" d="M194.485 115.378C200.637 109.978 210.001 110.588 215.401 116.74C219.502 121.412 226.615 121.875 231.287 117.774C234.248 115.176 237.952 113.969 241.601 114.102L241.369 117.663C238.631 117.588 235.859 118.504 233.638 120.453C227.487 125.853 218.122 125.243 212.723 119.091C208.622 114.419 201.509 113.956 196.837 118.057C190.685 123.456 181.321 122.846 175.921 116.695C171.82 112.022 164.707 111.559 160.035 115.66C153.883 121.06 144.518 120.45 139.118 114.298C135.017 109.625 127.904 109.162 123.232 113.263C117.08 118.662 107.716 118.053 102.316 111.901C98.215 107.229 91.1023 106.766 86.4298 110.866C80.278 116.266 70.9137 115.656 65.5141 109.504C63.5647 107.283 60.9342 106.015 58.2095 105.735L58.4414 102.174C62.0768 102.515 65.5944 104.192 68.1931 107.153C72.2943 111.825 79.407 112.289 84.0794 108.188C90.2313 102.789 99.5956 103.398 104.995 109.55C109.096 114.222 116.209 114.685 120.881 110.584C127.033 105.185 136.397 105.795 141.797 111.946C145.898 116.619 153.011 117.082 157.683 112.981C163.835 107.582 173.199 108.191 178.599 114.343C182.7 119.015 189.813 119.479 194.485 115.378Z" fill="black"/>
<path fill-rule="evenodd" clip-rule="evenodd" d="M192.403 147.386C198.555 141.987 207.919 142.597 213.319 148.748C217.42 153.42 224.533 153.884 229.205 149.783C232.166 147.184 235.87 145.977 239.519 146.11L239.287 149.671C236.549 149.596 233.777 150.512 231.556 152.462C225.405 157.861 216.04 157.251 210.641 151.1C206.54 146.427 199.427 145.964 194.755 150.065C188.603 155.464 179.239 154.854 173.839 148.703C169.738 144.03 162.625 143.567 157.953 147.668C151.801 153.068 142.436 152.458 137.036 146.306C132.935 141.634 125.822 141.171 121.15 145.272C114.998 150.671 105.634 150.061 100.234 143.909C96.133 139.237 89.0203 138.774 84.3478 142.875C78.196 148.274 68.8317 147.664 63.4321 141.513C61.4827 139.292 58.8522 138.024 56.1275 137.743L56.3594 134.182C59.9948 134.523 63.5124 136.201 66.1111 139.161C70.2123 143.834 77.3249 144.297 81.9974 140.196C88.1493 134.797 97.5136 135.406 102.913 141.558C107.014 146.23 114.127 146.694 118.799 142.593C124.951 137.193 134.315 137.803 139.715 143.955C143.816 148.627 150.929 149.09 155.601 144.989C161.753 139.59 171.117 140.2 176.517 146.351C180.618 151.024 187.731 151.487 192.403 147.386Z" fill="black"/>
<path fill-rule="evenodd" clip-rule="evenodd" d="M190.321 179.34C196.473 173.94 205.837 174.55 211.237 180.702C215.338 185.374 222.451 185.837 227.123 181.736C230.084 179.138 233.788 177.931 237.437 178.064L237.205 181.625C234.467 181.55 231.695 182.466 229.474 184.415C223.323 189.815 213.958 189.205 208.559 183.053C204.458 178.381 197.345 177.918 192.672 182.019C186.521 187.418 177.156 186.808 171.757 180.656C167.656 175.984 160.543 175.521 155.871 179.622C149.719 185.021 140.354 184.411 134.954 178.26C130.853 173.587 123.74 173.124 119.068 177.225C112.916 182.624 103.552 182.015 98.152 175.863C94.0509 171.191 86.9383 170.728 82.2657 174.828C76.1139 180.228 66.7497 179.618 61.3501 173.466C59.4007 171.245 56.7702 169.977 54.0454 169.697L54.2773 166.136C57.9128 166.477 61.4304 168.154 64.0291 171.115C68.1303 175.787 75.2429 176.251 79.9153 172.149C86.0672 166.75 95.4315 167.36 100.831 173.512C104.932 178.184 112.045 178.647 116.717 174.546C122.869 169.147 132.233 169.757 137.633 175.908C141.734 180.581 148.847 181.044 153.519 176.943C159.671 171.544 169.035 172.153 174.435 178.305C178.536 182.977 185.649 183.441 190.321 179.34Z" fill="black"/>
<path fill-rule="evenodd" clip-rule="evenodd" d="M188.239 211.293C194.391 205.894 203.755 206.503 209.155 212.655C213.256 217.327 220.368 217.79 225.041 213.689C228.002 211.091 231.706 209.884 235.355 210.017L235.123 213.578C232.385 213.503 229.613 214.419 227.392 216.368C221.241 221.768 211.876 221.158 206.477 215.006C202.376 210.334 195.263 209.871 190.59 213.972C184.439 219.371 175.074 218.761 169.675 212.61C165.574 207.937 158.461 207.474 153.789 211.575C147.637 216.975 138.272 216.365 132.872 210.213C128.771 205.54 121.658 205.077 116.986 209.178C110.834 214.577 101.47 213.968 96.07 207.816C91.9689 203.144 84.8563 202.681 80.1837 206.782C74.0319 212.181 64.6676 211.571 59.268 205.419C57.3186 203.198 54.6881 201.93 51.9634 201.65L52.1953 198.089C55.8307 198.43 59.3483 200.107 61.947 203.068C66.0482 207.74 73.1609 208.204 77.8333 204.103C83.9852 198.704 93.3495 199.313 98.7489 205.465C102.85 210.137 109.963 210.6 114.635 206.499C120.787 201.1 130.151 201.71 135.551 207.861C139.652 212.534 146.765 212.997 151.437 208.896C157.589 203.497 166.953 204.106 172.353 210.258C176.454 214.931 183.567 215.394 188.239 211.293Z" fill="black"/>
</g>
<path d="M313.531 190.188L385.162 271.798C390.146 277.477 389.582 286.12 383.904 291.104C378.226 296.088 369.583 295.525 364.599 289.847L292.968 208.236L313.531 190.188Z" fill="#FFB89F" stroke="black" stroke-width="1.78202"/>
<path d="M313.206 190.468L325.569 204.553C320.772 212.199 313.847 218.277 305.643 222.041L293.281 207.956L313.206 190.468Z" fill="black" stroke="black" stroke-width="1.78202"/>
<mask id="path-9-inside-1_476_3165" fill="white">
<path d="M243.101 14.6564C300.892 18.42 344.691 68.3206 340.927 126.112C337.163 183.903 287.263 227.7 229.472 223.937C171.681 220.173 127.883 170.273 131.647 112.482C135.41 54.6913 185.31 10.8928 243.101 14.6564ZM241.699 36.1899C195.8 33.2008 156.168 67.9863 153.179 113.885C150.19 159.783 184.976 199.414 230.874 202.403C276.772 205.392 316.403 170.608 319.392 124.709C322.382 78.8109 287.597 39.1791 241.699 36.1899Z"/>
</mask>
<path d="M243.101 14.6564C300.892 18.42 344.691 68.3206 340.927 126.112C337.163 183.903 287.263 227.7 229.472 223.937C171.681 220.173 127.883 170.273 131.647 112.482C135.41 54.6913 185.31 10.8928 243.101 14.6564ZM241.699 36.1899C195.8 33.2008 156.168 67.9863 153.179 113.885C150.19 159.783 184.976 199.414 230.874 202.403C276.772 205.392 316.403 170.608 319.392 124.709C322.382 78.8109 287.597 39.1791 241.699 36.1899Z" fill="#FFB89F"/>
<path d="M243.101 14.6564L243.217 12.8781V12.8781L243.101 14.6564ZM340.927 126.112L342.705 126.228V126.228L340.927 126.112ZM229.472 223.937L229.356 225.715V225.715L229.472 223.937ZM131.647 112.482L129.868 112.367V112.367L131.647 112.482ZM241.699 36.1899L241.814 34.4116L241.814 34.4116L241.699 36.1899ZM153.179 113.885L151.401 113.769L151.401 113.769L153.179 113.885ZM230.874 202.403L230.758 204.181L230.758 204.181L230.874 202.403ZM319.392 124.709L321.171 124.825L321.171 124.825L319.392 124.709ZM243.101 14.6564L242.985 16.4347C299.794 20.1343 342.848 69.1869 339.149 125.996L340.927 126.112L342.705 126.228C346.533 67.4543 301.99 16.7057 243.217 12.8781L243.101 14.6564ZM340.927 126.112L339.149 125.996C335.449 182.805 286.396 225.858 229.588 222.158L229.472 223.937L229.356 225.715C288.129 229.543 338.877 185.001 342.705 126.228L340.927 126.112ZM229.472 223.937L229.588 222.158C172.779 218.459 129.725 169.407 133.425 112.598L131.647 112.482L129.868 112.367C126.041 171.14 170.583 221.887 229.356 225.715L229.472 223.937ZM131.647 112.482L133.425 112.598C137.125 55.7892 186.176 12.735 242.985 16.4347L243.101 14.6564L243.217 12.8781C184.444 9.05059 133.696 53.5934 129.868 112.367L131.647 112.482ZM241.699 36.1899L241.814 34.4116C194.934 31.3586 154.454 66.8884 151.401 113.769L153.179 113.885L154.957 114.001C157.883 69.0842 196.666 35.043 241.583 37.9681L241.699 36.1899ZM153.179 113.885L151.401 113.769C148.348 160.649 183.878 201.128 230.758 204.181L230.874 202.403L230.99 200.625C186.074 197.7 152.032 158.917 154.957 114.001L153.179 113.885ZM230.874 202.403L230.758 204.181C277.639 207.234 318.118 171.705 321.171 124.825L319.392 124.709L317.614 124.593C314.689 169.51 275.906 203.55 230.99 200.625L230.874 202.403ZM319.392 124.709L321.171 124.825C324.224 77.9447 288.695 37.4648 241.814 34.4116L241.699 36.1899L241.583 37.9681C286.499 40.8934 320.539 79.6772 317.614 124.593L319.392 124.709Z" fill="black" mask="url(#path-9-inside-1_476_3165)"/>
<circle cx="236.286" cy="119.297" r="84.1055" transform="rotate(3.7261 236.286 119.297)" fill="white" stroke="black" stroke-width="1.78202"/>
<mask id="mask0_476_3165" style="mask-type:alpha" maskUnits="userSpaceOnUse" x="152" y="35" width="169" height="169">
<circle cx="236.288" cy="119.297" r="83.9055" transform="rotate(3.7261 236.288 119.297)" fill="white"/>
</mask>
<g mask="url(#mask0_476_3165)">
<path fill-rule="evenodd" clip-rule="evenodd" d="M181.97 110.345C192.758 100.876 209.18 101.946 218.649 112.734C225.841 120.927 238.313 121.74 246.507 114.548C251.699 109.991 258.196 107.876 264.595 108.109L264.188 114.349C259.387 114.218 254.525 115.827 250.63 119.245C239.842 128.714 223.42 127.644 213.951 116.856C206.759 108.663 194.287 107.851 186.093 115.042C175.305 124.511 158.883 123.441 149.414 112.653C142.222 104.46 129.75 103.648 121.556 110.839C110.768 120.308 94.346 119.239 84.8771 108.45C77.6852 100.257 65.2129 99.4446 57.0191 106.636C46.231 116.105 29.8089 115.036 20.34 104.247C13.1481 96.0541 0.675715 95.2416 -7.51799 102.433C-18.3061 111.902 -34.7282 110.833 -44.1971 100.045C-47.6155 96.1502 -52.2267 93.9241 -57.0044 93.4316L-56.5981 87.1919C-50.2235 87.7906 -44.0562 90.7305 -39.4994 95.9221C-32.3076 104.116 -19.8352 104.928 -11.6414 97.7364C-0.853351 88.2676 15.5688 89.3372 25.0377 100.125C32.2296 108.319 44.7019 109.131 52.8957 101.939C63.6838 92.4705 80.1059 93.5402 89.5749 104.328C96.7667 112.522 109.239 113.334 117.433 106.142C128.221 96.6735 144.643 97.7431 154.112 108.531C161.304 116.725 173.776 117.537 181.97 110.345Z" fill="black"/>
<path fill-rule="evenodd" clip-rule="evenodd" d="M184.173 76.5156C194.961 67.0468 211.383 68.1165 220.852 78.9043C228.044 87.0979 240.516 87.9102 248.71 80.7186C253.902 76.1616 260.399 74.0466 266.798 74.2798L266.391 80.5196C261.59 80.3881 256.728 81.9971 252.834 85.4154C242.045 94.8843 225.623 93.8148 216.154 83.0267C208.963 74.8333 196.49 74.021 188.296 81.2125C177.508 90.6813 161.086 89.6119 151.617 78.8238C144.425 70.6304 131.953 69.818 123.759 77.0095C112.971 86.4784 96.5491 85.4089 87.0802 74.6208C79.8883 66.4275 67.416 65.615 59.2223 72.8066C48.4341 82.2754 32.012 81.206 22.5431 70.4179C15.3512 62.2246 2.87884 61.4121 -5.31487 68.6036C-16.103 78.0725 -32.5251 77.003 -41.994 66.2149C-45.4124 62.3206 -50.0236 60.0945 -54.8013 59.602L-54.3949 53.3623C-48.0203 53.961 -41.8531 56.9009 -37.2962 62.0926C-30.1044 70.2862 -17.6321 71.0983 -9.43827 63.9068C1.34977 54.438 17.7719 55.5076 27.2409 66.2955C34.4327 74.4891 46.905 75.3013 55.0988 68.1097C65.8869 58.6409 82.3091 59.7106 91.778 70.4985C98.9698 78.692 111.442 79.5042 119.636 72.3127C130.424 62.8439 146.846 63.9135 156.315 74.7014C163.507 82.8949 175.979 83.7072 184.173 76.5156Z" fill="black"/>
<path fill-rule="evenodd" clip-rule="evenodd" d="M179.767 144.174C190.555 134.706 206.977 135.775 216.446 146.563C223.638 154.757 236.11 155.569 244.304 148.377C249.496 143.82 255.993 141.705 262.391 141.939L261.985 148.178C257.184 148.047 252.322 149.656 248.427 153.074C237.639 162.543 221.217 161.474 211.748 150.685C204.556 142.492 192.084 141.68 183.89 148.871C173.102 158.34 156.68 157.271 147.211 146.482C140.019 138.289 127.547 137.477 119.353 144.668C108.565 154.137 92.1429 153.068 82.674 142.28C75.4821 134.086 63.0097 133.274 54.816 140.465C44.0279 149.934 27.6058 148.865 18.1369 138.077C10.9449 129.883 -1.52741 129.071 -9.72111 136.262C-20.5092 145.731 -36.9314 144.662 -46.4003 133.874C-49.8186 129.979 -54.4298 127.753 -59.2075 127.261L-58.8012 121.021C-52.4266 121.62 -46.2594 124.56 -41.7025 129.751C-34.5107 137.945 -22.0384 138.757 -13.8445 131.565C-3.05648 122.097 13.3657 123.166 22.8346 133.954C30.0265 142.148 42.4988 142.96 50.6926 135.768C61.4806 126.3 77.9028 127.369 87.3717 138.157C94.5636 146.351 107.036 147.163 115.23 139.971C126.018 130.503 142.44 131.572 151.909 142.36C159.101 150.554 171.573 151.366 179.767 144.174Z" fill="black"/>
</g>
<defs>
<filter id="filter0_d_476_3165" x="2.63709" y="23.9243" width="294.883" height="248.554" filterUnits="userSpaceOnUse" color-interpolation-filters="sRGB">
<feFlood flood-opacity="0" result="BackgroundImageFix"/>
<feColorMatrix in="SourceAlpha" type="matrix" values="0 0 0 0 0 0 0 0 0 0 0 0 0 0 0 0 0 0 127 0" result="hardAlpha"/>
<feOffset dx="5" dy="5"/>
<feComposite in2="hardAlpha" operator="out"/>
<feColorMatrix type="matrix" values="0 0 0 0 0 0 0 0 0 0 0 0 0 0 0 0 0 0 1 0"/>
<feBlend mode="normal" in2="BackgroundImageFix" result="effect1_dropShadow_476_3165"/>
<feBlend mode="normal" in="SourceGraphic" in2="effect1_dropShadow_476_3165" result="shape"/>
</filter>
</defs>
</svg>
