<svg width="306" height="286" viewBox="0 0 306 286" fill="none" xmlns="http://www.w3.org/2000/svg">
<g filter="url(#filter0_d_396_1011)">
<path d="M239.719 125.151C205.821 125.151 178.152 99.5311 173.999 66.509C172.242 66.6878 170.539 67.0454 168.728 67.0454C140.013 67.0454 116.763 44.1069 115.681 15.4294C55.1083 25.96 9 79.0063 9 143.03C9 214.617 66.6087 272.651 137.67 272.651C208.731 272.651 266.34 214.617 266.34 143.03C266.34 135.271 265.541 127.708 264.246 120.306C256.65 123.346 248.397 125.151 239.719 125.151Z" fill="#FFFF78" stroke="#111013" stroke-width="0.909121" stroke-linecap="round" stroke-linejoin="round"/>
<path d="M195.35 0.454102C202.447 0.454102 208.206 6.25145 208.206 13.4092C208.206 20.5669 202.447 26.3633 195.35 26.3633C188.253 26.3632 182.493 20.5668 182.493 13.4092C182.493 6.2515 188.253 0.454183 195.35 0.454102Z" fill="#FFFF78" stroke="#111013" stroke-width="0.909121"/>
<path d="M239.72 48.9656C244.725 48.9657 248.789 53.0552 248.789 58.1062C248.789 63.1571 244.725 67.2457 239.72 67.2458C234.714 67.2458 230.65 63.1572 230.649 58.1062C230.649 53.0552 234.714 48.9656 239.72 48.9656Z" fill="#FFFF78" stroke="#111013" stroke-width="0.909121"/>
</g>
<path d="M83.4014 147.977C94.5713 146.87 102.736 136.851 101.638 125.599C100.54 114.346 90.5942 106.121 79.4244 107.227C68.2545 108.334 60.0895 118.353 61.1877 129.605C62.286 140.858 72.2316 149.083 83.4014 147.977Z" fill="#FFCBCB" stroke="#111013" stroke-width="0.909121" stroke-miterlimit="10" stroke-linecap="square"/>
<path d="M65.1011 115.918C63.3206 119.373 63.1825 121.407 63.5887 125.569C64.7057 137.013 74.8206 145.378 86.1803 144.253C91.658 143.71 95.9143 141.236 99.2344 136.809C96.1205 142.852 90.6638 147.607 83.4359 148.323C72.0762 149.448 61.9613 141.083 60.8443 129.64C60.2659 123.714 61.511 120.086 65.1011 115.918Z" fill="#111013"/>
<path d="M183.225 169.555C189.891 168.895 194.764 162.915 194.109 156.2C193.453 149.484 187.518 144.575 180.852 145.236C174.185 145.896 169.313 151.875 169.968 158.591C170.623 165.306 176.559 170.215 183.225 169.555Z" fill="#FFCBCB" stroke="#111013" stroke-width="0.909121" stroke-miterlimit="10" stroke-linecap="square"/>
<path d="M172.304 150.422C171.241 152.484 171.159 153.698 171.401 156.182C172.068 163.012 178.104 168.004 184.884 167.332C188.153 167.009 190.693 165.532 192.675 162.89C190.816 166.496 187.56 169.334 183.246 169.761C176.467 170.433 170.43 165.441 169.763 158.611C169.418 155.075 170.161 152.91 172.304 150.422Z" fill="#111013"/>
<path d="M117.979 231.323C132.148 229.92 142.506 217.21 141.113 202.936C139.72 188.661 127.103 178.227 112.934 179.631C98.7644 181.034 88.4067 193.744 89.7999 208.018C91.193 222.292 103.81 232.726 117.979 231.323Z" fill="#FFCBCB" stroke="#111013" stroke-width="0.909121" stroke-miterlimit="10" stroke-linecap="square"/>
<path d="M94.7653 190.654C92.5066 195.037 92.3314 197.618 92.8467 202.898C94.2637 217.415 107.095 228.026 121.505 226.599C128.454 225.911 133.853 222.772 138.065 217.156C134.115 224.822 127.193 230.854 118.024 231.762C103.613 233.189 90.7823 222.578 89.3653 208.061C88.6316 200.544 90.211 195.943 94.7653 190.654Z" fill="#111013"/>
<defs>
<filter id="filter0_d_396_1011" x="8.54688" y="0" width="263.701" height="278.56" filterUnits="userSpaceOnUse" color-interpolation-filters="sRGB">
<feFlood flood-opacity="0" result="BackgroundImageFix"/>
<feColorMatrix in="SourceAlpha" type="matrix" values="0 0 0 0 0 0 0 0 0 0 0 0 0 0 0 0 0 0 127 0" result="hardAlpha"/>
<feOffset dx="5.45473" dy="5.45473"/>
<feComposite in2="hardAlpha" operator="out"/>
<feColorMatrix type="matrix" values="0 0 0 0 0 0 0 0 0 0 0 0 0 0 0 0 0 0 1 0"/>
<feBlend mode="normal" in2="BackgroundImageFix" result="effect1_dropShadow_396_1011"/>
<feBlend mode="normal" in="SourceGraphic" in2="effect1_dropShadow_396_1011" result="shape"/>
</filter>
</defs>
</svg>
