<svg width="489" height="571" viewBox="0 0 489 571" fill="none" xmlns="http://www.w3.org/2000/svg">
<mask id="path-1-outside-1_2101_22124" maskUnits="userSpaceOnUse" x="-0.660156" y="27" width="490" height="544" fill="black">
<rect fill="white" x="-0.660156" y="27" width="490" height="544"/>
<path d="M244.417 28C308.97 28 367.669 40.0313 411.318 59.6758C411.913 59.7767 412.585 59.7639 413.278 59.6758C417.089 59.1916 421.092 58.9163 424.477 60.7314L430.13 63.7627C433.411 65.5219 435.417 68.817 436.885 72.2383C437.099 72.7367 437.334 73.1852 437.587 73.542C469.501 93.3469 488.494 118.192 488.494 145.168C488.494 145.775 488.484 146.381 488.465 146.985H488.494V569.765H0.339844V146.985H0.369141C0.349989 146.381 0.339844 145.775 0.339844 145.168C0.339928 114.413 25.024 86.4277 65.3994 65.5244C65.3981 65.525 65.3968 65.5258 65.3955 65.5264C66.111 64.9511 66.7212 64.0295 67.2285 62.998C68.9962 59.4043 71.3793 55.954 75.0557 54.3652L82.0752 51.332C85.6452 49.7893 89.6659 50.2854 93.3252 51.6025C94.3034 51.9546 95.2351 52.1863 95.9482 52.1621C137.082 37.0076 188.558 28 244.417 28Z"/>
</mask>
<path d="M244.417 28C308.97 28 367.669 40.0313 411.318 59.6758C411.913 59.7767 412.585 59.7639 413.278 59.6758C417.089 59.1916 421.092 58.9163 424.477 60.7314L430.13 63.7627C433.411 65.5219 435.417 68.817 436.885 72.2383C437.099 72.7367 437.334 73.1852 437.587 73.542C469.501 93.3469 488.494 118.192 488.494 145.168C488.494 145.775 488.484 146.381 488.465 146.985H488.494V569.765H0.339844V146.985H0.369141C0.349989 146.381 0.339844 145.775 0.339844 145.168C0.339928 114.413 25.024 86.4277 65.3994 65.5244C65.3981 65.525 65.3968 65.5258 65.3955 65.5264C66.111 64.9511 66.7212 64.0295 67.2285 62.998C68.9962 59.4043 71.3793 55.954 75.0557 54.3652L82.0752 51.332C85.6452 49.7893 89.6659 50.2854 93.3252 51.6025C94.3034 51.9546 95.2351 52.1863 95.9482 52.1621C137.082 37.0076 188.558 28 244.417 28Z" fill="#FFFF78"/>
<path d="M244.417 28V27.661V27.661V28ZM411.318 59.6758L411.179 59.9849L411.219 60.0027L411.262 60.01L411.318 59.6758ZM413.278 59.6758L413.321 60.0121V60.0121L413.278 59.6758ZM424.477 60.7314L424.316 61.0302V61.0302L424.477 60.7314ZM430.13 63.7627L430.29 63.4639V63.4639L430.13 63.7627ZM436.885 72.2383L436.573 72.3719V72.3719L436.885 72.2383ZM437.587 73.542L437.31 73.738L437.35 73.7939L437.408 73.83L437.587 73.542ZM488.494 145.168H488.833V145.168H488.494ZM488.465 146.985L488.126 146.975L488.115 147.324H488.465V146.985ZM488.494 146.985H488.833V146.646H488.494V146.985ZM488.494 569.765V570.104H488.833V569.765H488.494ZM0.339844 569.765H0.000847429V570.104H0.339844V569.765ZM0.339844 146.985V146.646H0.000847429V146.985H0.339844ZM0.369141 146.985V147.324H0.719044L0.707967 146.975L0.369141 146.985ZM0.339844 145.168H0.000847429V145.168H0.339844ZM65.3994 65.5244L65.5553 65.8255L65.2649 65.2132L65.3994 65.5244ZM65.3955 65.5264L65.1831 65.2622L65.53 65.8376L65.3955 65.5264ZM67.2285 62.998L67.5327 63.1477V63.1477L67.2285 62.998ZM75.0557 54.3652L74.9212 54.054L74.9212 54.0541L75.0557 54.3652ZM82.0752 51.332L82.2097 51.6432V51.6432L82.0752 51.332ZM93.3252 51.6025L93.2104 51.9215L93.2104 51.9215L93.3252 51.6025ZM95.9482 52.1621L95.9597 52.5009L96.0143 52.4991L96.0654 52.4802L95.9482 52.1621ZM244.417 28V28.339C308.932 28.339 367.582 40.3637 411.179 59.9849L411.318 59.6758L411.457 59.3666C367.757 39.6988 309.008 27.661 244.417 27.661V28ZM411.318 59.6758L411.262 60.01C411.9 60.1183 412.607 60.1028 413.321 60.0121L413.278 59.6758L413.236 59.3395C412.562 59.425 411.926 59.4351 411.375 59.3416L411.318 59.6758ZM413.278 59.6758L413.321 60.0121C417.136 59.5273 421.037 59.2717 424.316 61.0302L424.477 60.7314L424.637 60.4327C421.146 58.5609 417.041 58.8559 413.236 59.3395L413.278 59.6758ZM424.477 60.7314L424.316 61.0302L429.97 64.0615L430.13 63.7627L430.29 63.4639L424.637 60.4327L424.477 60.7314ZM430.13 63.7627L429.97 64.0615C433.146 65.7647 435.114 68.9699 436.573 72.3719L436.885 72.2383L437.196 72.1047C435.721 68.6641 433.675 65.2792 430.29 63.4639L430.13 63.7627ZM436.885 72.2383L436.573 72.3719C436.793 72.8834 437.039 73.3551 437.31 73.738L437.587 73.542L437.863 73.346C437.629 73.0152 437.404 72.59 437.196 72.1046L436.885 72.2383ZM437.587 73.542L437.408 73.83C469.281 93.609 488.155 118.364 488.155 145.168H488.494H488.833C488.833 118.019 469.722 93.0847 437.766 73.254L437.587 73.542ZM488.494 145.168H488.155C488.155 145.771 488.145 146.373 488.126 146.975L488.465 146.985L488.804 146.996C488.823 146.388 488.833 145.779 488.833 145.168H488.494ZM488.465 146.985V147.324H488.494V146.985V146.646H488.465V146.985ZM488.494 146.985H488.155V569.765H488.494H488.833V146.985H488.494ZM488.494 569.765V569.426H0.339844V569.765V570.104H488.494V569.765ZM0.339844 569.765H0.67884V146.985H0.339844H0.000847429V569.765H0.339844ZM0.339844 146.985V147.324H0.369141V146.985V146.646H0.339844V146.985ZM0.369141 146.985L0.707967 146.975C0.688923 146.373 0.67884 145.771 0.67884 145.168H0.339844H0.000847429C0.000847429 145.779 0.0110562 146.388 0.0303142 146.996L0.369141 146.985ZM0.339844 145.168H0.67884C0.678924 114.609 25.2143 86.7109 65.5553 65.8255L65.3994 65.5244L65.2436 65.2234C24.8336 86.1446 0.000932664 114.218 0.000847429 145.168H0.339844ZM65.3994 65.5244L65.2649 65.2132C65.2561 65.2171 65.249 65.2205 65.2447 65.2227C65.2425 65.2239 65.2407 65.2248 65.2396 65.2254C65.2385 65.226 65.2376 65.2265 65.2375 65.2265C65.2367 65.2269 65.2395 65.2254 65.2428 65.2238C65.2465 65.2219 65.2528 65.2187 65.261 65.2152L65.3955 65.5264L65.53 65.8376C65.5388 65.8337 65.5459 65.8302 65.5502 65.828C65.5524 65.8269 65.5542 65.826 65.5554 65.8254C65.5564 65.8248 65.5574 65.8243 65.5574 65.8243C65.5582 65.8238 65.5555 65.8253 65.5521 65.827C65.5485 65.8289 65.5421 65.8321 65.5339 65.8356L65.3994 65.5244ZM65.3955 65.5264L65.6079 65.7906C66.3806 65.1694 67.0172 64.1957 67.5327 63.1477L67.2285 62.998L66.9243 62.8484C66.4251 63.8633 65.8415 64.7328 65.1831 65.2622L65.3955 65.5264ZM67.2285 62.998L67.5327 63.1477C69.2912 59.5726 71.6286 56.2155 75.1901 54.6764L75.0557 54.3652L74.9212 54.0541C71.1301 55.6924 68.7012 59.2361 66.9243 62.8484L67.2285 62.998ZM75.0557 54.3652L75.1901 54.6764L82.2097 51.6432L82.0752 51.332L81.9407 51.0208L74.9212 54.054L75.0557 54.3652ZM82.0752 51.332L82.2097 51.6432C85.6681 50.1488 89.5912 50.6188 93.2104 51.9215L93.3252 51.6025L93.44 51.2836C89.7406 49.9521 85.6224 49.4299 81.9407 51.0208L82.0752 51.332ZM93.3252 51.6025L93.2104 51.9215C94.1972 52.2767 95.1793 52.5274 95.9597 52.5009L95.9482 52.1621L95.9368 51.8233C95.2908 51.8452 94.4096 51.6325 93.44 51.2836L93.3252 51.6025ZM95.9482 52.1621L96.0654 52.4802C137.157 37.3414 188.593 28.339 244.417 28.339V28V27.661C188.524 27.661 137.008 36.6738 95.831 51.844L95.9482 52.1621Z" fill="black" mask="url(#path-1-outside-1_2101_22124)"/>
<ellipse cx="33.2894" cy="11.5657" rx="33.2894" ry="11.5657" transform="matrix(0.998515 0.0544693 -0.143354 0.989671 346.758 216.873)" fill="#FFDF78"/>
<ellipse cx="31.0075" cy="10.0787" rx="31.0075" ry="10.0787" transform="matrix(0.998515 0.0544693 -0.143354 0.989671 351.82 216)" fill="#FFFF78"/>
<path d="M359.696 219.721C350.84 221.502 344.951 224.819 344.804 228.817C344.567 235.264 359.342 241.039 377.804 241.718C396.267 242.396 411.425 237.721 411.662 231.275C412.645 234.999 415.702 241.221 422.574 242.919" stroke="black" stroke-width="0.533998"/>
<path d="M344.92 227.876C344.295 229.897 342.019 234.246 337.918 235.469" stroke="black" stroke-width="0.533998"/>
<path fill-rule="evenodd" clip-rule="evenodd" d="M393.848 110.131C388.421 111.193 384.739 113.238 384.425 115.805C383.899 120.115 393.066 124.266 404.899 125.076C414.23 125.716 422.433 124.086 425.742 121.256C424.13 125.748 413.841 128.651 401.841 127.829C389.137 126.958 379.327 122.244 379.931 117.298C380.363 113.759 386.013 111.06 393.848 110.131Z" fill="#FFED78"/>
<path d="M403.938 109.492C391.373 108.668 380.915 112.137 380.58 117.241C380.246 122.344 390.161 127.149 402.727 127.973C415.292 128.798 425.75 125.328 426.085 120.225C426.484 122.481 428.477 127.189 433.259 127.973" stroke="black" stroke-width="0.681273"/>
<path d="M381.257 115.255C379.355 118.465 377.377 119.826 374.34 121.004" stroke="black" stroke-width="0.681273"/>
<path d="M124.936 101.116C126.747 104.226 132.364 110.85 140.341 112.463" stroke="black" stroke-width="0.534089"/>
<ellipse cx="41.0541" cy="16.5037" rx="41.0541" ry="16.5037" transform="matrix(-0.997142 0.0755552 0.111493 0.993765 124.846 89)" fill="#FFDF78"/>
<ellipse cx="38.2399" cy="14.4042" rx="38.2399" ry="14.4042" transform="matrix(-0.997142 0.0755552 0.111493 0.993765 118.729 89.2326)" fill="#FFFF78"/>
<path d="M84.5918 91.7509C107.321 90.2603 126.237 96.5355 126.843 105.767C127.448 114.998 109.513 123.69 86.7841 125.181C64.055 126.671 45.1386 120.396 44.5332 111.165C44.3213 113.731 42.3565 119.751 36.1928 123.302" stroke="black" stroke-width="0.534089"/>
<path d="M434.806 69.9759C433.979 71.2337 429.668 69.8596 425.177 66.9069C420.686 63.9542 417.716 60.541 418.543 59.2833" stroke="black" stroke-width="0.34"/>
<path d="M411.938 59.6329C411.04 60.7913 413.567 64.3476 417.965 68.4757" stroke="black" stroke-width="0.34"/>
<path d="M87.5447 50C87.918 50.8583 84.4086 53.2122 79.7061 55.2577C75.0037 57.3032 70.889 58.2656 70.5156 57.4074" stroke="black" stroke-width="0.34"/>
<path d="M65.5508 65.045C66.088 66.6515 71.2948 66.3584 77.1804 64.3903C79.5153 63.6095 81.6062 62.6824 83.2458 61.7477" stroke="black" stroke-width="0.34"/>
<path fill-rule="evenodd" clip-rule="evenodd" d="M327.67 34.4419C354.123 39.9451 379.2 46.5143 402.566 53.9803C405.863 56.636 407.496 59.1672 406.964 61.2975C405.339 67.7958 384.184 68.1038 359.712 61.9861C335.241 55.8683 316.719 45.6415 318.344 39.1432C318.957 36.6887 322.357 35.1175 327.67 34.4419Z" fill="black"/>
<path d="M358.97 39.2138L361.344 36.4922L371.89 38.7606L372.558 42.0327L374.928 42.4651L375.837 46.5735L378.41 47.0036L379.785 53.6643L346.131 47.0047L350.428 41.5455L352.957 42.0458L355.957 38.6177L358.97 39.2138Z" fill="#DCE6DE"/>
<path d="M380.95 37.6113L382.223 37.3822L384.99 52.5752L383.21 52.2167L380.95 37.6113Z" fill="black"/>
<path d="M351.736 31.073L350.734 30.2549L341.696 45.2555L343.538 45.6338L351.736 31.073Z" fill="black"/>
<path d="M350.726 8.5949L356.176 11.6373L360.807 16.0336L365.697 20.2263L374.217 22.2966L380.792 23.1312L385.145 22.8416L392.107 13.951L396.267 13.6742L395.315 20.8929L399.071 20.6429L402.59 23.3368L402.849 27.2289L401.519 28.7485L396.069 32.2196L402.185 38.7684L397.371 40.6128L387.151 36.258L383.661 37.5691L373.265 39.0558L371.886 38.7591L361.339 36.4906L359.715 36.1412L352.349 32.9741L342.63 20.7412L343.908 11.2747L342.811 6.73642L345.471 3.6973L349.429 3.43397L350.726 8.5949Z" fill="#FFFF78"/>
<path d="M387.154 36.2594L393.437 33.8991L396.072 32.221L402.189 38.7698L397.374 40.6142L387.154 36.2594Z" fill="white"/>
<path d="M389.492 22.3952L385.138 22.6849L392.1 13.7943L396.26 13.5175L395.308 20.7362L389.492 22.3952Z" fill="white"/>
<path d="M342.813 6.73716L346.929 6.46329L349.43 3.43471L345.473 3.69804L342.813 6.73716Z" fill="black"/>
<path d="M402.593 23.338L399.074 20.6441L399.39 25.3933L402.852 27.2301L402.593 23.338Z" fill="black"/>
<path d="M365.697 20.2278L360.807 16.0352L356.962 23.4463L362.502 27.8479L365.697 20.2278Z" fill="#FA673A"/>
<path d="M350.643 8.61303L349.46 3.66993L346.954 6.67856L348.172 10.8698L350.643 8.61303Z" fill="#FFB195" fill-opacity="0.91"/>
<path d="M391.296 27.9993L383.222 30.9217L383.665 37.5705L387.155 36.2594L393.438 33.8991L391.296 27.9993Z" fill="#C1F174"/>
<path d="M343.908 11.2747L348.183 10.9903M343.908 11.2747L342.63 20.7412M343.908 11.2747L342.811 6.73642M348.183 10.9903L350.726 8.5949M348.183 10.9903L351.358 18.0933M348.183 10.9903L346.927 6.46256M350.726 8.5949L356.176 11.6373M350.726 8.5949L349.429 3.43397M356.176 11.6373L360.807 16.0336M356.176 11.6373L351.358 18.0933M360.807 16.0336L365.697 20.2263M360.807 16.0336L356.962 23.4448M365.697 20.2263L374.217 22.2966M365.697 20.2263L362.502 27.8464M374.217 22.2966L380.792 23.1312M374.217 22.2966L374.132 30.5707M380.792 23.1312L383.218 30.9202M380.792 23.1312L385.145 22.8416M389.499 22.5519L391.292 27.9979M389.499 22.5519L385.145 22.8416M389.499 22.5519L395.315 20.8929M399.071 20.6429L402.59 23.3368L402.849 27.2289M399.071 20.6429L399.387 25.3921M399.071 20.6429L395.315 20.8929M402.849 27.2289L401.519 28.7485L396.069 32.2196M402.849 27.2289L399.387 25.3921M393.434 33.8976L391.292 27.9979M393.434 33.8976L387.151 36.258M393.434 33.8976L396.069 32.2196M383.661 37.5691L373.265 39.0558M383.661 37.5691L383.218 30.9202M383.661 37.5691L387.151 36.258M373.265 39.0558L374.132 30.5707M373.265 39.0558L371.886 38.7591M359.715 36.1412L352.349 32.9741M359.715 36.1412L362.502 27.8464M359.715 36.1412L361.339 36.4906M352.349 32.9741L342.63 20.7412M352.349 32.9741L356.962 23.4448M342.63 20.7412L351.358 18.0933M351.358 18.0933L356.962 23.4448M356.962 23.4448L362.502 27.8464M362.502 27.8464L374.132 30.5707M374.132 30.5707L383.218 30.9202M383.218 30.9202L391.292 27.9979M391.292 27.9979L399.387 25.3921M346.927 6.46256L342.811 6.73642M346.927 6.46256L349.429 3.43397M342.811 6.73642L345.471 3.6973L349.429 3.43397M385.145 22.8416L392.107 13.951L396.267 13.6742L395.315 20.8929M387.151 36.258L397.371 40.6128L402.185 38.7684L396.069 32.2196M361.339 36.4906L358.965 39.2122M361.339 36.4906L371.886 38.7591M358.965 39.2122L372.554 42.0311M358.965 39.2122L355.952 38.6161L352.952 42.0442M372.554 42.0311L371.886 38.7591M372.554 42.0311L374.923 42.4635L375.832 46.5719M352.952 42.0442L375.832 46.5719M352.952 42.0442L350.424 41.5439L346.127 47.0032L379.78 53.6627L378.405 47.0021L375.832 46.5719" stroke="black" stroke-width="0.393573"/>
<path d="M365.047 25.5937L361.335 36.4991L371.899 38.7379L372.986 27.1394C373.102 25.9069 372.453 24.7288 371.349 24.1677C370.284 23.6258 369.092 23.3816 367.899 23.461L367.82 23.4663C366.551 23.5507 365.457 24.3899 365.047 25.5937Z" fill="black" stroke="black" stroke-width="0.393573"/>
</svg>
