<svg width="575" height="1095" viewBox="0 0 575 1095" fill="none" xmlns="http://www.w3.org/2000/svg">
<g clip-path="url(#clip0_3916_1859)">
<path d="M287.498 262.248C386.479 262.248 476.484 280.699 543.412 310.827C544.325 310.982 545.355 310.962 546.418 310.827C552.261 310.085 558.399 309.661 563.59 312.445L572.258 317.095C577.288 319.792 580.364 324.846 582.615 330.092C582.943 330.857 583.304 331.544 583.692 332.092C632.626 362.465 661.749 400.568 661.749 441.938C661.749 442.869 661.734 443.799 661.705 444.725H661.749V1093.11H-86.7539V444.725H-86.709C-86.7384 443.799 -86.7539 442.869 -86.7539 441.938C-86.7538 394.772 -48.905 351.854 13.0041 319.795L12.9981 319.798C14.0952 318.917 15.0307 317.503 15.8086 315.921C18.5191 310.41 22.1733 305.119 27.8103 302.682L38.5735 298.03C44.0477 295.664 50.2126 296.425 55.8235 298.446C57.3236 298.986 58.7521 299.34 59.8456 299.303C122.918 276.063 201.847 262.248 287.498 262.248Z" fill="#FFFF78"/>
<mask id="mask0_3916_1859" style="mask-type:luminance" maskUnits="userSpaceOnUse" x="-89" y="260" width="753" height="835">
<path d="M663.048 260.715H-88.2852V1095H663.048V260.715Z" fill="white"/>
<path d="M287.502 262.248C386.483 262.248 476.488 280.699 543.416 310.827C544.329 310.982 545.359 310.962 546.422 310.827C552.265 310.085 558.403 309.661 563.594 312.445L572.261 317.095C577.292 319.792 580.368 324.846 582.619 330.092C582.947 330.857 583.308 331.544 583.696 332.092C632.63 362.465 661.753 400.568 661.753 441.938C661.753 442.869 661.738 443.799 661.708 444.725H661.753V1093.11H-86.75V444.725H-86.7051C-86.7345 443.799 -86.75 442.869 -86.75 441.938C-86.7498 394.772 -48.9011 351.854 13.008 319.795L13.002 319.798C14.0991 318.917 15.0346 317.503 15.8125 315.921C18.523 310.41 22.1772 305.119 27.8142 302.682L38.5775 298.03C44.0516 295.664 50.2165 296.425 55.8275 298.446C57.3275 298.986 58.756 299.34 59.8495 299.303C122.922 276.063 201.851 262.248 287.502 262.248Z" fill="black"/>
</mask>
<g mask="url(#mask0_3916_1859)">
<path d="M543.413 310.825L543.2 311.299L543.261 311.327L543.327 311.337L543.413 310.825ZM583.692 332.09L583.267 332.391L583.329 332.477L583.417 332.532L583.692 332.09ZM661.705 444.723L661.185 444.708L661.168 445.243H661.705V444.723ZM661.749 444.723H662.269V444.204H661.749V444.723ZM661.749 1093.1V1093.62H662.269V1093.1H661.749ZM-86.7536 1093.1H-87.2734V1093.62H-86.7536V1093.1ZM-86.7536 444.723V444.204H-87.2734V444.723H-86.7536ZM-86.7087 444.723V445.243H-86.1722L-86.1892 444.708L-86.7087 444.723ZM13.0043 319.794L13.2433 320.255L12.7981 319.317L13.0043 319.794ZM12.9983 319.797L12.6727 319.392L13.2045 320.275L12.9983 319.797ZM59.8459 299.302L59.8635 299.822L59.9471 299.818L60.0256 299.789L59.8459 299.302ZM287.498 262.246V262.766C386.421 262.766 476.351 281.208 543.2 311.299L543.413 310.825L543.627 310.351C476.619 280.188 386.537 261.727 287.498 261.727V262.246ZM543.413 310.825L543.327 311.337C544.305 311.503 545.389 311.48 546.484 311.34L546.418 310.825L546.354 310.308C545.32 310.44 544.345 310.456 543.5 310.313L543.413 310.825ZM546.418 310.825L546.484 311.34C552.334 310.597 558.315 310.206 563.343 312.902L563.59 312.443L563.835 311.986C558.482 309.115 552.188 309.568 546.354 310.308L546.418 310.825ZM563.59 312.443L563.343 312.902L572.013 317.55L572.258 317.093L572.503 316.635L563.835 311.986L563.59 312.443ZM572.258 317.093L572.013 317.55C576.882 320.163 579.9 325.079 582.137 330.296L582.615 330.09L583.092 329.886C580.831 324.609 577.694 319.418 572.503 316.635L572.258 317.093ZM582.615 330.09L582.137 330.296C582.474 331.08 582.852 331.804 583.267 332.391L583.692 332.09L584.117 331.79C583.756 331.282 583.413 330.63 583.092 329.886L582.615 330.09ZM583.692 332.09L583.417 332.532C632.289 362.865 661.23 400.83 661.23 441.937H661.749H662.269C662.269 400.301 632.966 362.062 583.966 331.649L583.692 332.09ZM661.749 441.937H661.23C661.23 442.862 661.214 443.785 661.185 444.708L661.705 444.723L662.225 444.74C662.254 443.808 662.269 442.874 662.269 441.937H661.749ZM661.705 444.723V445.243H661.749V444.723V444.204H661.705V444.723ZM661.749 444.723H661.23V1093.1H661.749H662.269V444.723H661.749ZM661.749 1093.1V1092.58H-86.7536V1093.1V1093.62H661.749V1093.1ZM-86.7536 1093.1H-86.2338V444.723H-86.7536H-87.2734V1093.1H-86.7536ZM-86.7536 444.723V445.243H-86.7087V444.723V444.204H-86.7536V444.723ZM-86.7087 444.723L-86.1892 444.708C-86.2184 443.785 -86.2338 442.862 -86.2338 441.937H-86.7536H-87.2734C-87.2734 442.874 -87.2578 443.808 -87.2284 444.74L-86.7087 444.723ZM-86.7536 441.937H-86.2338C-86.2337 395.071 -48.6129 352.286 13.2433 320.255L13.0043 319.794L12.7653 319.332C-49.1966 351.418 -87.2733 394.472 -87.2734 441.937H-86.7536ZM13.0043 319.794L12.7981 319.317C12.7846 319.323 12.7738 319.329 12.7671 319.332C12.7638 319.334 12.761 319.335 12.7592 319.335C12.7576 319.337 12.7562 319.337 12.7561 319.337C12.7548 319.338 12.7591 319.335 12.7642 319.334C12.7698 319.331 12.7796 319.326 12.7921 319.32L12.9983 319.797L13.2045 320.275C13.2181 320.269 13.2289 320.263 13.2355 320.26C13.2389 320.258 13.2416 320.257 13.2433 320.255C13.245 320.255 13.2465 320.254 13.2466 320.254C13.2478 320.254 13.2436 320.255 13.2385 320.258C13.2329 320.262 13.2231 320.266 13.2105 320.272L13.0043 319.794ZM12.9983 319.797L13.324 320.203C14.5088 319.249 15.4849 317.757 16.2753 316.15L15.8089 315.92L15.3426 315.69C14.5771 317.246 13.6823 318.581 12.6727 319.392L12.9983 319.797ZM15.8089 315.92L16.2753 316.15C18.9717 310.667 22.5557 305.519 28.0168 303.157L27.8106 302.68L27.6044 302.203C21.7913 304.715 18.067 310.15 15.3426 315.69L15.8089 315.92ZM27.8106 302.68L28.0168 303.157L38.7801 298.506L38.5738 298.029L38.3677 297.552L27.6044 302.203L27.8106 302.68ZM38.5738 298.029L38.7801 298.506C44.0829 296.214 50.0984 296.935 55.6478 298.934L55.8238 298.444L55.9998 297.955C50.3276 295.912 44.0129 295.112 38.3677 297.552L38.5738 298.029ZM55.8238 298.444L55.6478 298.934C57.1609 299.478 58.6668 299.861 59.8635 299.822L59.8459 299.302L59.8283 298.782C58.8379 298.815 57.4867 298.49 55.9998 297.955L55.8238 298.444ZM59.8459 299.302L60.0256 299.789C123.032 276.572 201.901 262.766 287.498 262.766V262.246V261.727C201.795 261.727 122.803 275.549 59.6662 298.814L59.8459 299.302Z" fill="black"/>
</g>
<path d="M529.905 513.608C582.618 516.484 627.482 504.098 630.111 485.943C632.741 467.787 592.14 450.738 539.426 447.862C486.713 444.986 441.849 457.372 439.22 475.527C436.59 493.683 477.191 510.732 529.905 513.608Z" fill="#FFDF78"/>
<path d="M539.129 502.29C588.229 504.969 629.89 494.315 632.181 478.494C634.472 462.673 596.527 447.676 547.427 444.997C498.327 442.318 456.666 452.972 454.375 468.793C452.083 484.614 490.029 499.611 539.129 502.29Z" fill="#FFFF78"/>
<path d="M481.137 450.834C455.705 455.949 438.797 465.475 438.375 476.959C437.694 495.471 480.119 512.059 533.132 514.008C586.146 515.956 629.672 502.529 630.352 484.015C633.173 494.711 641.951 512.582 661.685 517.457" stroke="black"/>
<path d="M438.708 474.254C436.913 480.06 430.379 492.548 418.602 496.06" stroke="black"/>
<path d="M169.613 445.342C172.453 450.219 181.257 460.603 193.762 463.132" stroke="black" stroke-width="0.54602"/>
<path d="M111.073 482.636C75.6323 485.321 45.6102 475.986 44.0172 461.785C42.4241 447.583 69.8635 433.893 105.305 431.207C140.746 428.521 170.768 437.856 172.361 452.058C173.954 466.26 146.515 479.95 111.073 482.636Z" fill="#FFDF78"/>
<path d="M105.149 476.125C72.137 478.627 44.2486 470.607 42.8583 458.212C41.4679 445.817 67.102 433.741 100.114 431.239C133.125 428.737 161.014 436.757 162.404 449.152C163.795 461.547 138.16 473.623 105.149 476.125Z" fill="#FFFF78"/>
<path d="M106.373 430.658C142.003 428.321 171.656 438.16 172.605 452.633C173.554 467.107 145.44 480.735 109.81 483.072C74.1801 485.409 44.5272 475.57 43.5782 461.097C43.2459 465.12 40.1661 474.559 30.5039 480.126" stroke="black" stroke-width="0.54602"/>
<path d="M579.43 326.624C578.162 328.553 571.551 326.446 564.665 321.917C557.779 317.388 553.225 312.154 554.493 310.225" stroke="black" stroke-width="0.34"/>
<path d="M544.362 310.76C542.985 312.536 546.86 317.991 553.604 324.322" stroke="black" stroke-width="0.34"/>
<path d="M46.9627 295.988C47.5352 297.304 42.154 300.914 34.9437 304.052C27.7332 307.188 21.424 308.665 20.8516 307.348" stroke="black" stroke-width="0.34"/>
<path d="M13.2383 319.06C14.062 321.525 22.0457 321.074 31.0703 318.056C34.6505 316.858 37.8567 315.436 40.3706 314.004" stroke="black" stroke-width="0.34"/>
<path d="M415.15 272.127C455.711 280.566 494.164 290.641 529.992 302.091C535.047 306.164 537.551 310.046 536.734 313.314C534.244 323.279 501.806 323.751 464.282 314.369C426.76 304.986 398.36 289.302 400.851 279.336C401.791 275.573 407.005 273.164 415.15 272.127Z" fill="black"/>
<path d="M463.151 279.446L466.791 275.271L482.962 278.751L483.986 283.769L487.62 284.432L489.014 290.732L492.959 291.393L495.068 301.607L443.465 291.394L450.054 283.021L453.931 283.789L458.531 278.532L463.151 279.446Z" fill="#DCE6DE"/>
<path d="M496.852 276.988L498.804 276.637L503.046 299.937L500.317 299.388L496.852 276.988Z" fill="black"/>
<path d="M452.055 266.962L450.518 265.707L436.66 288.711L439.485 289.292L452.055 266.962Z" fill="black"/>
<path d="M450.508 232.487L458.864 237.152L465.965 243.896L473.463 250.325L486.527 253.501L496.609 254.78L503.283 254.337L513.959 240.701L520.337 240.276L518.877 251.348L524.637 250.964L530.032 255.096L530.43 261.065L528.39 263.396L520.034 268.719L529.411 278.761L522.03 281.59L506.359 274.912L501.008 276.922L485.067 279.203L482.953 278.747L466.781 275.269L464.291 274.732L452.996 269.875L438.094 251.115L440.053 236.597L438.371 229.636L442.45 224.976L448.519 224.572L450.508 232.487Z" fill="#FFFF78"/>
<path d="M506.363 274.913L515.997 271.294L520.038 268.721L529.417 278.764L522.034 281.592L506.363 274.913Z" fill="white"/>
<path d="M509.946 253.653L503.27 254.098L513.945 240.462L520.323 240.039L518.864 251.109L509.946 253.653Z" fill="white"/>
<path d="M438.375 229.638L444.686 229.218L448.521 224.574L442.454 224.978L438.375 229.638Z" fill="black"/>
<path d="M530.036 255.098L524.641 250.967L525.125 258.25L530.434 261.067L530.036 255.098Z" fill="black"/>
<path d="M473.464 250.329L465.966 243.898L460.07 255.264L468.565 262.015L473.464 250.329Z" fill="#FA673A"/>
<path d="M450.383 232.516L448.569 224.936L444.727 229.55L446.594 235.978L450.383 232.516Z" fill="#FFB195" fill-opacity="0.91"/>
<path d="M512.712 262.246L500.332 266.729L501.011 276.926L506.363 274.914L515.997 271.294L512.712 262.246Z" fill="#C1F174"/>
<path d="M440.053 236.597L446.608 236.16M440.053 236.597L438.094 251.115M440.053 236.597L438.371 229.636M446.608 236.16L450.508 232.487M446.608 236.16L451.477 247.053M446.608 236.16L444.682 229.218M438.094 251.115L452.996 269.875M438.094 251.115L451.477 247.053M438.371 229.636L444.682 229.218M438.371 229.636L442.45 224.976L448.519 224.572M450.508 232.487L458.864 237.152M450.508 232.487L448.519 224.572M451.477 247.053L458.864 237.152M451.477 247.053L460.069 255.261M444.682 229.218L448.519 224.572M458.864 237.152L465.965 243.896M465.965 243.896L473.463 250.325M465.965 243.896L460.069 255.261M473.463 250.325L486.527 253.501M473.463 250.325L468.564 262.011M460.069 255.261L452.996 269.875M460.069 255.261L468.564 262.011M486.527 253.501L496.609 254.78M486.527 253.501L486.397 266.19M468.564 262.011L464.291 274.732M468.564 262.011L486.397 266.19M496.609 254.78L500.329 266.725M496.609 254.78L503.283 254.337M486.397 266.19L485.067 279.203M486.397 266.19L500.329 266.725M500.329 266.725L501.008 276.922M500.329 266.725L512.709 262.244M503.283 254.337L509.96 253.892M503.283 254.337L513.959 240.701L520.337 240.276L518.877 251.348M509.96 253.892L512.709 262.244M509.96 253.892L518.877 251.348M512.709 262.244L515.993 271.292M512.709 262.244L525.121 258.247M518.877 251.348L524.637 250.964M524.637 250.964L530.032 255.096L530.43 261.065M524.637 250.964L525.121 258.247M530.43 261.065L528.39 263.396L520.034 268.719M530.43 261.065L525.121 258.247M520.034 268.719L515.993 271.292M520.034 268.719L529.411 278.761L522.03 281.59L506.359 274.912M515.993 271.292L506.359 274.912M506.359 274.912L501.008 276.922M501.008 276.922L485.067 279.203M485.067 279.203L482.953 278.747M482.953 278.747L466.781 275.269M482.953 278.747L483.977 283.765M464.291 274.732L452.996 269.875M464.291 274.732L466.781 275.269M466.781 275.269L463.141 279.442M463.141 279.442L483.977 283.765M463.141 279.442L458.521 278.528L453.921 283.785M483.977 283.765L487.61 284.429L489.003 290.729M453.921 283.785L489.003 290.729M453.921 283.785L450.045 283.018L443.456 291.39L495.057 301.604L492.949 291.389L489.003 290.729" stroke="black" stroke-width="0.393573"/>
<path d="M472.469 258.557L466.777 275.281L482.975 278.715L484.642 260.927C484.82 259.037 483.825 257.231 482.132 256.37C480.499 255.539 478.671 255.165 476.842 255.286L476.721 255.294C474.775 255.424 473.098 256.711 472.469 258.557Z" fill="black" stroke="black" stroke-width="0.393573"/>
</g>
<defs>
<clipPath id="clip0_3916_1859">
<rect width="575" height="1095" fill="white"/>
</clipPath>
</defs>
</svg>
