<svg width="157" height="149" viewBox="0 0 157 149" fill="none" xmlns="http://www.w3.org/2000/svg">
<path d="M125.226 2.3208L37.6855 14.7708L1.8855 99.5908L54.4155 136.161L139.236 146.671L154.406 57.9608L125.226 2.3208Z" fill="white"/>
<path d="M101.103 102.321L119.393 27.6109L124.453 2.71094L37.3033 13.9909L1.89331 98.8109L101.113 102.311L101.103 102.321Z" fill="#FFBC65"/>
<path d="M125.744 2.3208L102.374 101.901L138.674 146.101" stroke="black" stroke-width="2.49" stroke-miterlimit="10" stroke-linecap="round"/>
<path d="M2.96362 98.5811L102.374 101.901" stroke="black" stroke-width="2.49" stroke-miterlimit="10" stroke-linecap="round"/>
<path d="M68.0652 99.7308L78.9052 63.4508L110.605 62.3408" stroke="black" stroke-width="2.49" stroke-miterlimit="10" stroke-linecap="round"/>
<path d="M38.3152 14.521L78.9052 63.451" stroke="black" stroke-width="2.49" stroke-miterlimit="10" stroke-linecap="round"/>
<path d="M126.324 1.35107L155.324 57.9111L140.214 146.671L54.614 136.051L1.53394 99.2711L37.0339 13.3611L126.324 1.35107Z" stroke="black" stroke-width="2.49" stroke-miterlimit="10" stroke-linecap="round"/>
<path d="M104.333 62.3112L95.3933 101.221L102.373 101.901L111.083 61.9312L104.333 62.3112Z" fill="black"/>
</svg>
