<svg width="431" height="256" viewBox="0 0 431 256" fill="none" xmlns="http://www.w3.org/2000/svg">
<path d="M230.757 5.59086L233.453 2.12482C236.149 -1.91889 256.369 1.74096 265.997 38.5195C275.625 75.298 238.461 104.373 227.1 115.541C218.012 124.476 218.82 134.669 220.361 138.648C224.674 121.703 249.501 118.494 261.376 119.007C294.033 115.772 303.995 128.186 304.894 134.797L309.9 133.642C316.752 145.809 323.652 152.007 333.139 158C349.507 168.341 361.364 172.735 375.487 176.004C390.798 174.319 405.053 167.719 420.284 148.517C423.942 149.865 423.509 155.401 422.835 158C426.263 162.236 416.882 171.768 411.763 176.004C429.016 211.743 418.952 236.467 411.763 244.362C380.184 254.377 355.023 236.917 345.908 224.336C345.715 224.517 345.521 224.697 345.326 224.876C304.894 262.051 239.688 252.851 213.236 242.437C167.6 264.775 124.018 251.872 108.677 241.474C108.831 246.557 106.173 247.186 104.825 246.866C103.542 247.186 98.7414 247.636 89.8068 246.866C80.8721 246.095 71.2258 241.843 67.503 239.982L53.2321 247.672C38.7899 254.54 8.70048 260.576 1.61437 229.15C-5.47175 197.725 29.471 181.268 47.8282 176.967C53.836 175.581 60.3444 180.112 62.8477 182.551C89.4206 179.278 98.4708 185.825 104.825 186.98C109.909 187.904 110.281 193.784 109.832 196.608L118.497 199.689V176.967L120.807 172.731L123.986 171.865C124.371 156.846 127.838 122.187 150.27 116.987C171.672 112.025 183.005 116.987 201.49 135.665C193.788 123.649 206.365 109.868 225.078 94.7461C255.58 70.0988 253.384 47.9546 246.934 32.9341L240.772 21.5732L230.757 10.2122V5.59086Z" fill="white"/>
<path d="M232.683 228.806C228.94 227.87 226.835 223.347 226.25 221.203C227.794 223.262 231.182 224.868 232.683 225.414C237.829 231.777 243.716 230.326 246.017 228.806C252.613 232.174 256.173 229.079 257.128 227.11C264.193 227.718 266.466 223.932 266.719 221.963C267.374 228.513 261.768 229.761 258.882 229.566C257.105 234.899 249.876 233.387 246.484 231.964C241.104 235.987 235.042 231.535 232.683 228.806Z" fill="black"/>
<path d="M110.577 246.322C107.087 246.682 104.15 241.546 103.156 238.82L108.173 241.415L110.577 246.322Z" fill="black"/>
<path d="M230.621 5.51469L233.317 2.04865C236.013 -1.99506 256.233 1.66479 265.861 38.4433C275.489 75.2218 238.325 104.297 226.964 115.465C217.875 124.4 218.684 134.592 220.225 138.572L217.664 148.73L201.296 134.963C193.593 122.947 206.229 109.792 224.942 94.67C255.443 70.0226 253.248 47.8785 246.798 32.8579L240.636 21.497L230.621 10.1361V5.51469Z" fill="#FFB195" fill-opacity="0.91"/>
<path d="M430.26 113.584C430.26 147.042 404.876 172.34 375.18 176.197C355.924 170.805 339.749 165.028 326.655 153.475C322.127 147.907 312.622 140.381 310.128 133.48C307.585 126.442 307.344 121.727 307.344 113.942C307.344 80.4835 335.202 53.002 369.022 53.002C402.843 53.002 430.26 80.1254 430.26 113.584Z" fill="url(#paint0_linear_3915_1812)"/>
<path d="M327.618 92.05C339.326 85.7342 342.381 91.8575 342.445 95.7086C345.975 91.5366 360.544 86.9806 374.794 94.1682C392.201 102.949 393.471 116.44 391.931 122.089C407.335 124.245 404.511 138.777 401.174 145.773C397.477 154.862 386.539 154.952 381.533 153.861C379.993 166.492 366.899 170.805 360.544 171.383L331.083 157.712L317.412 143.462C311.096 130.215 318.119 116.248 322.419 110.921C318.568 111.306 312.984 99.9448 327.618 92.05Z" fill="#F1CFBE"/>
<path d="M327.704 92.05C339.412 85.7342 342.467 91.8575 342.531 95.7086C346.061 91.5366 360.63 86.9806 374.879 94.1682C392.287 102.949 393.557 116.44 392.017 122.089C407.421 124.245 404.597 138.777 401.26 145.773C397.563 154.862 386.625 154.952 381.619 153.861C380.078 166.492 366.985 170.805 360.63 171.383L331.169 157.712L317.498 143.462C311.182 130.215 318.205 116.248 322.505 110.921C318.654 111.306 313.07 99.9448 327.704 92.05Z" fill="#F1CFBE"/>
<path d="M318.327 120.598C320.412 118.133 325.487 118.569 327.765 119.095V115.444L328.403 110.052L330.299 104.956L328.877 106.022L325.559 108.334C319.396 104.494 325.203 98.4775 328.877 95.9491L332.728 95.4167L335.631 97.846V100.749L343.097 95.4167L348.785 92.3945L353.821 93.0465L359.095 95.9491L361.465 100.749V104.956L361.939 106.022L370.116 105.607L375.982 106.97L382.025 111.059L385.166 116.391L385.817 123.561L385.166 127.59L382.855 133.041L379.24 137.307L374.382 140.862L368.16 142.758L366.975 145.365L368.575 150.165L368.16 154.49L366.561 159.408L362.413 163.2L358.265 165.925L354.355 168.592L347.719 165.925L330.062 156.564L316.256 141.632L314.891 130.849L315.544 124.686C315.603 124.351 316.243 123.063 318.327 120.598Z" fill="#FDF2D4"/>
<path d="M382.81 144.37L390.263 130.19C396.226 127.741 398.256 132.434 398.526 135.087C399.831 143.085 392.743 147.737 389.036 149.063C381.038 150.042 381.553 146.343 382.81 144.37Z" fill="#FDF2D4"/>
<path d="M385.767 174.078L375.754 176.003C375.754 183.396 372.288 186.914 370.555 187.75C374.714 189.444 380.375 195.003 382.686 197.57C382.532 193.103 386.473 184.155 388.462 180.24L385.767 174.078Z" fill="#FFFF78"/>
<path d="M358.201 235.345C352.56 225.983 355.099 214.24 357.449 209.689C355.89 209.689 349.449 219.492 346.047 224.243C347.847 228.324 354.9 233.345 358.201 235.345Z" fill="black"/>
<path d="M362.402 192.589C319.792 182.146 301.838 154.53 298.188 142.027H299.238L304.489 149.379C319.492 169.783 350.349 182.286 363.902 185.987L362.402 192.589Z" fill="black"/>
<path d="M253.844 179.69C257.304 174.787 258.532 163.985 258.713 159.197C259.545 166.398 258.068 179.643 257.226 185.366L253.844 179.69Z" fill="black"/>
<path d="M257.305 147.937C259.347 148.958 264.699 150.462 269.803 148.338C271.948 147.437 274.959 146.172 269.843 148.321L269.803 148.338L258.201 153.353L257.305 147.937Z" fill="black"/>
<path d="M205.914 138.329C209.618 141.933 216.82 138.993 218.891 133.889C219.349 136.912 219.677 138.025 220.046 138.993L218.146 149.796L214.704 146.472L205.914 139.387L205.914 138.329Z" fill="black"/>
<path d="M175.916 178.033C182.398 184.275 193.52 186.385 198.121 186.885L183.995 191.161C165.079 200.999 153.636 202.039 144.109 202.264L148.91 191.161C150.231 191.401 156.612 191.861 159.638 192.061L162.263 185.76C164.124 185.88 170.94 185.26 174.116 184.935L175.916 178.033Z" fill="black"/>
<path d="M264.199 32.5329C266.03 38.6794 267.184 45.6799 267.414 53.5829C267.461 55.2056 267.381 56.832 267.186 58.4574C266.357 65.3872 263.453 72.2995 259.523 78.8398M264.199 32.5329C261.77 24.3769 258.149 17.7247 253.912 12.4634C249.933 7.52315 245.411 3.80921 240.822 1.22797C238.334 0.286463 234.519 0.430095 231.541 4.50521C229.214 7.6903 231.132 11.9416 234.061 14.584C236.303 16.6064 238.633 19.1035 240.822 22.017C244.027 26.2822 246.93 31.4399 248.812 37.3075M264.199 32.5329C260.911 31.8977 253.231 31.9632 248.812 37.3075M248.812 37.3075C250.402 42.2629 251.264 47.7247 250.965 53.5829C250.942 54.0359 250.907 54.4894 250.861 54.9431C250.314 60.3607 248.176 65.8175 245.217 70.9758M259.523 78.8398C256.219 75.8022 248.733 69.9767 245.217 70.9758M259.523 78.8398C255.85 84.9523 251.28 90.7398 246.67 95.9127C241.927 101.235 237.141 105.907 233.245 109.612M245.217 70.9758C242.253 76.1418 238.466 81.0084 234.628 85.236C231.362 88.833 228.059 91.9676 225.196 94.4305C223.369 96.0018 221.445 97.6409 219.499 99.3517M233.245 109.612C229.392 113.276 226.409 115.995 225.196 117.465C223.159 119.933 221.676 122.499 220.641 125.017C219.588 127.736 217.989 133.699 220.165 139.251M233.245 109.612C231.333 106.279 225.907 99.5604 219.499 99.3517M219.499 99.3517C212.735 105.295 205.682 112.104 201.365 119.937C200.197 122.055 197.303 127.001 200.38 134.218" stroke="black" stroke-width="1.5"/>
<path d="M364.041 186.347C362.571 195.882 359.594 204.144 355.448 211.27M213.406 241.86C209.444 226.056 205.078 189.799 220.922 171.794M213.406 241.86C211.583 242.893 209.446 243.967 207.032 245.036M213.406 241.86C234.742 252.451 291.466 258.136 329.173 236.653M108.281 241.711C120.265 248.384 132.516 252.072 144.314 253.708M108.281 241.711C108.281 245.955 106.079 247.044 104.978 247.058M108.281 241.711L103.595 238.656C99.9938 228.753 100.083 204.742 104.978 194.9M67.4714 239.61C53.6682 249.012 22.7011 263.076 9.25799 244.111M67.4714 239.61C72.8828 242.993 86.1906 249.158 104.978 247.058M67.4714 239.61C51.4158 224.53 57.7793 195.318 62.9681 182.597M9.25799 244.111C-2.23656 211.147 40.2753 189.367 62.9681 182.597M9.25799 244.111C6.1775 240.207 2.979 234.358 1.55325 227.675M62.9681 182.597C72.7703 179.796 92.342 181.793 105.845 186.798M62.9681 182.597C61.4359 181.066 59.1929 179.524 56.7309 178.424M105.845 186.798C107.546 187.198 110.079 189.739 110.079 196.7L104.978 194.9M105.845 186.798C103.645 186.516 99.3936 193.882 97.8933 201.285C95.7581 211.82 93.9924 244.057 104.978 247.058M104.978 194.9C108.574 196.428 113.311 198.027 118.795 199.343M184.498 190.744L199.499 186.798C196.817 186.7 192.47 186.141 188.023 184.787M184.498 190.744C179.928 193.256 176.948 194.618 172.081 196.7M184.498 190.744C190.727 197.93 205.154 216.892 207.032 245.036M175.494 177.496L174.198 184.787M175.494 177.496C164.598 150.476 170.09 125.501 174.198 116.391M175.494 177.496C170.038 161.909 154.222 130.364 134.603 128.882M175.494 177.496C178.569 181.063 183.351 183.364 188.023 184.787M172.081 196.7L173.14 190.744M172.081 196.7C166.802 198.959 161.316 200.427 155.822 201.285M118.795 199.343V177.496M118.795 199.343C126.758 201.253 136.296 202.567 146.199 202.198M118.795 177.496C118.69 175.895 119.561 172.515 123.882 171.794M118.795 177.496C135.85 193.58 162.131 193.029 173.14 190.744M123.882 171.794C128.319 177.956 144.595 189.18 174.198 184.787M123.882 171.794C123.882 160.466 126.374 141.482 134.603 128.882M174.198 184.787L173.14 190.744M218.104 149.289C192.774 128.455 185.522 119.161 174.198 116.391M375.018 175.999C326.107 164.597 316.516 143.992 309.914 133.689M375.018 175.999C376.419 178.1 375.018 186.347 369.906 187.794M375.018 175.999C378.973 175.589 382.816 174.806 386.512 173.685M309.914 133.689C307.973 127.698 306.924 121.304 306.924 114.666C306.924 80.61 334.532 53.002 368.588 53.002C402.645 53.002 430.253 80.61 430.253 114.666C430.253 132.74 422.476 148.999 410.087 160.277M309.914 133.689C303.193 133.689 299.523 138.384 299.122 141.185C312.926 166.391 340.799 179.392 369.906 187.794M411.421 175.999C416.822 171.598 425.749 163.458 422.868 157.937C423.668 153.936 423.51 150.774 420.389 148.133M411.421 175.999C405.72 175.699 394.181 177.253 388.66 179.894M411.421 175.999C418.073 184.994 427.308 214.926 416.297 238.682C415.233 240.976 413.541 242.911 411.421 244.182M388.66 179.894C387.754 181.99 383.07 192.033 382.491 197.803M388.66 179.894C387.829 179.022 386.235 176.561 386.512 173.685M345.991 223.75C366.773 250.62 394.861 249.23 408.63 245.385C409.623 245.108 410.557 244.7 411.421 244.182M382.491 197.803C380.808 195.134 373.987 188.514 369.906 187.794M382.491 197.803C382.349 199.224 382.248 200.733 382.204 202.316M382.841 213.201C382.467 210.628 382.269 208.149 382.204 205.798M305.451 134.466C304.392 130.76 299.039 122.216 287.158 119.92M225.907 128.882C232.369 129.09 247.897 134.545 258.313 154.7M225.907 128.882C230.933 124.17 237.907 121.509 245.518 120.075C249.28 119.367 253.198 118.958 257.113 118.75C266.06 118.275 274.993 118.848 282.02 119.28C283.86 119.393 285.57 119.613 287.158 119.92M225.907 128.882C220.502 133.949 217.283 145.957 217.964 158.108M227.407 183.494C234.85 178.495 248.111 179.011 253.812 179.894M227.407 183.494C224.193 190.574 220.606 202.733 222.505 212.413M227.407 183.494C221.373 177.067 218.493 167.544 217.964 158.108M253.812 179.894L264.732 197.803C265.467 198.949 266.06 200.115 266.532 201.281M253.812 179.894C256.109 176.065 259.666 166.374 258.313 154.7M256.405 145.48C256.979 147.631 258.075 152.65 258.313 154.7M299.423 141.786C297.15 141.654 292.912 141.947 287.158 143.159M258.313 153.488C262.974 151.185 267.378 149.308 271.463 147.786M232.924 225.453C234.764 227.853 239.98 231.934 246.127 229.053M232.924 225.453C228.957 223.914 226.274 221.377 224.557 218.251M232.924 225.453C232.495 224.893 232.08 224.151 231.693 223.283M246.127 229.053C249.35 230.254 255.099 231.424 257.113 227.103M246.127 229.053C245.378 228.163 244.469 226.934 243.532 225.453M257.113 227.103C260.044 227.366 266.196 226.806 266.683 221.309C266.833 219.613 265.919 218.048 264.763 216.798C264.418 216.425 264.061 216.039 263.7 215.648M257.113 227.103C256.103 226.162 254.931 224.861 253.736 223.283M255.88 196.7C255.932 199.427 256.394 201.962 257.113 204.272M246.127 201.747C245.856 206.615 247.196 211.445 249.144 215.648M238.026 205.798C237.605 209.117 238.08 212.495 239.011 215.648M230.224 206.998C229.55 208.308 229.297 210.251 229.348 212.413M222.505 212.413C223.945 213.467 227.328 214.944 229.348 212.413M222.505 212.413C222.915 214.499 223.579 216.471 224.557 218.251M229.348 212.413C229.383 213.85 229.552 215.384 229.823 216.892M229.823 216.892C232.714 218.06 238.599 219.447 239.011 215.648M229.823 216.892C230.019 217.984 230.268 219.064 230.557 220.083M239.011 215.648C239.467 217.191 240.032 218.681 240.656 220.083M240.656 220.083C242.811 220.822 247.791 221.492 250.467 218.251M240.656 220.083C241.158 221.212 241.698 222.284 242.249 223.283M250.467 218.251C250.005 217.416 249.561 216.546 249.144 215.648M250.467 218.251C251.059 219.321 251.681 220.335 252.312 221.28M249.144 215.648C251.823 215.913 257.606 215.048 259.306 209.47M259.306 209.47C258.459 207.899 257.7 206.161 257.113 204.272M259.306 209.47C259.644 210.097 259.996 210.697 260.357 211.27M257.113 204.272C259.352 205.42 264.372 206.43 266.532 201.281M266.532 201.281C266.968 202.804 267.396 204.888 267.546 206.998M263.7 215.648C263.19 215.096 262.666 214.483 262.143 213.813M263.7 215.648C267.135 214.999 267.827 210.951 267.546 206.998M224.557 218.251C225.768 219.222 228.664 220.948 230.557 220.083M230.557 220.083C230.889 221.252 231.274 222.342 231.693 223.283M231.693 223.283C233.919 224.96 239.146 227.308 242.249 223.283M242.249 223.283C242.674 224.053 243.106 224.779 243.532 225.453M243.532 225.453C245.807 226.407 251.034 227.308 253.736 223.283M253.736 223.283C253.262 222.657 252.784 221.988 252.312 221.28M252.312 221.28C254.904 221.971 260.5 221.445 262.143 213.813M262.143 213.813C261.54 213.04 260.937 212.191 260.357 211.27M267.546 206.998C267.356 208.746 265.654 212.047 260.357 211.27M411.421 244.182C411.033 234.42 404.646 213.076 382.204 205.798M382.204 205.798C382.172 204.603 382.174 203.44 382.204 202.316M355.448 211.27C359.014 207.633 369.358 200.751 382.204 202.316M355.448 211.27C349.053 222.261 339.88 230.552 329.173 236.653M287.158 143.159C290.032 139.744 294.056 130.316 287.158 119.92M287.158 143.159C282.749 144.087 277.45 145.556 271.463 147.786M174.198 116.391C168.886 115.092 162.679 115.228 153.289 116.282C145.077 117.203 139.015 122.125 134.603 128.882M146.199 202.198C140.039 209.782 131.039 230.701 144.314 253.708M146.199 202.198C149.382 202.079 152.604 201.787 155.822 201.285M144.314 253.708C148.208 254.248 152.053 254.564 155.822 254.69M155.822 254.69C162.896 249.137 172.798 230.681 155.822 201.285M155.822 254.69C176.651 255.388 195.179 250.284 207.032 245.036M56.7309 178.424C53.404 176.938 47.1028 176.511 44.1899 177.749L32.632 182.93L21.4726 188.709C1.74932 199.649 -1.00226 215.697 1.55325 227.675M56.7309 178.424C38.5325 183.929 2.01909 201.486 1.55325 227.675M386.512 173.685C395.382 170.995 403.405 166.36 410.087 160.277M410.087 160.277C411.217 159.497 414.041 157.937 416.297 157.937M217.964 158.108C214.745 167.001 204.249 184.787 188.023 184.787M271.463 147.786C271.586 171.396 283.301 222.223 329.173 236.653" stroke="black" stroke-width="1.5" stroke-linecap="round" stroke-linejoin="round"/>
<path d="M266.569 218.446C269.274 216.43 268.105 207.24 267.183 202.896C269.052 212.238 265.913 215.311 264.109 215.68L266.569 218.446Z" fill="black"/>
<circle cx="324.921" cy="162.589" r="4.04622" fill="black" stroke="black" stroke-width="1.5"/>
<circle cx="323.804" cy="161.376" r="4.04622" fill="#FFFF78" stroke="black" stroke-width="1.5"/>
<path d="M337.383 99.3254C339.257 97.8827 339.856 92.4943 339.921 89.9805C342.732 91.5544 342.915 94.6803 342.654 96.0465L337.383 99.3254Z" fill="black"/>
<path d="M379.344 159.863C379.799 157.967 378.363 153.96 377.531 152.078L381.327 154.046L379.344 159.863C379.312 159.997 379.271 160.121 379.218 160.233L379.344 159.863Z" fill="black"/>
<path d="M358.967 165.439C363.579 167.464 370.918 167.033 374.011 166.564C371.199 169.039 364.029 170.97 360.795 171.626L351.094 168.392L358.967 165.439Z" fill="black"/>
<path d="M357.208 166.853C336.271 162.856 321.043 146.47 316.047 138.777L317.355 144.309C319.306 148.021 326.377 154.025 329.668 156.562C338.091 162.939 348.841 167.507 353.164 168.994L357.208 166.853Z" fill="black"/>
<path d="M317.735 144.599C314.568 138.028 314.2 130.317 315.616 124.616M392.478 122.055C393.307 103.915 378.83 95.8092 372.95 93.4947C365.094 90.2676 357.27 88.9233 347.166 93.2613M389.748 122.485C395.765 121.421 405.599 124.616 403.804 139.311C402.924 146.515 394.272 157.805 381.185 153.902M381.185 153.902C379.532 164.92 370.972 170.49 360.419 171.356M381.185 153.902C380.291 153.635 377.634 152.952 376.193 150M347.166 93.2613C349.224 92.6382 353.329 92.3281 356.914 94.7001C358.707 95.8862 362.259 98.4417 361.495 104.884C361.407 105.625 362.083 106.273 362.816 106.128C367.934 105.12 376.171 105.172 382.118 111.522C388.895 118.759 386.819 138.145 369.026 142.589C367.541 142.96 366.735 144.789 367.311 146.206C369.826 152.397 369.431 162.971 352.081 167.961M347.166 93.2613C344.928 94.2222 345.496 94.0838 342.816 95.825M331.974 102.976C329.417 104.994 326.87 107.166 324.455 109.382C323.88 109.855 323.276 110.431 322.664 111.101M331.974 102.976C329.234 105.207 327.12 111.992 328.123 117.756C328.258 118.535 327.547 119.252 326.776 119.081C323.205 118.291 318.168 118.108 315.616 124.616M331.974 102.976C333.15 102.047 334.328 101.151 335.497 100.298M315.616 124.616C317.038 118.894 319.941 114.077 322.664 111.101M342.816 95.825C343.242 92.5387 340.426 89.4203 335.497 89.4004C328.631 89.3727 322.385 96.0025 320.807 98.2059C318.26 101.764 316.446 109.613 322.664 111.101M342.816 95.825C341.441 96.7182 336.923 99.2564 335.497 100.298M335.497 100.298C335.993 98.0988 335.476 94.1259 329.433 95.825" stroke="black" stroke-width="1.5" stroke-linecap="round" stroke-linejoin="round"/>
<path d="M384.578 140.917C385.589 139.132 385.74 138.841 386.779 136.752M386.779 136.752C387.68 134.941 388.058 134.332 389.742 131.286C390.21 130.44 390.96 129.746 391.912 129.575C396.596 128.732 400.179 132.506 398.447 139.965C397.148 145.559 392.273 148.104 389.197 148.827M386.779 136.752C389.124 132.037 397.242 135.312 393.619 141.393" stroke="black" stroke-width="1.5" stroke-linecap="round" stroke-linejoin="round"/>
<path d="M360.531 120.973C362.844 117.614 366.916 116.404 369.627 118.27C372.338 120.137 372.66 124.373 370.347 127.732C369.528 128.922 368.488 129.842 367.366 130.451" stroke="black" stroke-width="1.5" stroke-linecap="round" stroke-linejoin="round"/>
<ellipse cx="363.651" cy="123.486" rx="4.54753" ry="5.63499" transform="rotate(34.5503 363.651 123.486)" fill="black"/>
<path d="M334.87 100.587C333.736 99.0996 330.974 99.2988 328.701 101.032C326.428 102.765 325.505 105.376 326.64 106.863" stroke="black" stroke-width="1.5"/>
<path d="M351.501 130.621L348.55 128.539C347.854 128.048 348.219 126.953 349.07 126.977L352.68 127.076C353.888 127.11 354.776 128.223 354.539 129.409C354.263 130.793 352.654 131.435 351.501 130.621Z" fill="black"/>
<path d="M343.218 123.586L345.689 126.219C346.272 126.839 347.306 126.327 347.164 125.487L346.564 121.926C346.363 120.734 345.138 120.01 343.996 120.408C342.664 120.874 342.252 122.557 343.218 123.586Z" fill="black"/>
<path d="M341.453 107.094C343.766 103.735 347.838 102.525 350.549 104.391C353.26 106.258 353.582 110.494 351.269 113.853C350.45 115.043 349.41 115.963 348.288 116.572" stroke="black" stroke-width="1.5" stroke-linecap="round" stroke-linejoin="round"/>
<ellipse cx="344.573" cy="109.599" rx="4.54753" ry="5.63499" transform="rotate(34.5503 344.573 109.599)" fill="black"/>
<path d="M333.438 122.789C333.195 128.22 338.296 140.804 356.986 140.804" stroke="black" stroke-width="1.5" stroke-linecap="round" stroke-linejoin="round"/>
<path d="M368.567 57.7363C378.915 57.7363 388.632 60.4714 397.027 65.2599C398.244 65.9547 398.668 67.5053 397.974 68.7232C397.279 69.9412 395.728 70.3651 394.51 69.6703C386.862 65.3075 378.009 62.8142 368.567 62.8142C357.08 62.8142 346.462 66.5043 337.826 72.7647C336.69 73.5875 335.103 73.3347 334.28 72.1994C333.457 71.064 333.711 69.4767 334.846 68.6538C344.321 61.7863 355.974 57.7364 368.567 57.7363Z" fill="white" stroke="black" stroke-width="1.5" stroke-linecap="round"/>
<path fill-rule="evenodd" clip-rule="evenodd" d="M105.965 75.3692C124.251 93.6556 83.1081 93.6556 101.394 75.3692C83.1081 93.6556 83.1081 52.5124 101.394 70.7988C83.1081 52.5124 124.251 52.5124 105.965 70.7988C124.251 52.5124 124.251 93.6556 105.965 75.3692Z" fill="#FA673A"/>
<path d="M105.965 75.3692C124.251 93.6556 83.1081 93.6556 101.394 75.3692C83.1081 93.6556 83.1081 52.5124 101.394 70.7988C83.1081 52.5124 124.251 52.5124 105.965 70.7988C124.251 52.5124 124.251 93.6556 105.965 75.3692Z" stroke="black" stroke-width="0.959161" stroke-miterlimit="10"/>
<defs>
<linearGradient id="paint0_linear_3915_1812" x1="397.102" y1="66.1024" x2="318.873" y2="213.003" gradientUnits="userSpaceOnUse">
<stop stop-color="white"/>
<stop offset="1" stop-color="white" stop-opacity="0"/>
</linearGradient>
</defs>
</svg>
