<svg width="2022" height="906" viewBox="0 0 2022 906" fill="none" xmlns="http://www.w3.org/2000/svg">
<rect width="1440" height="822" transform="translate(291)" fill="#FFB89F"/>
<g clip-path="url(#clip0_3909_1801)">
<mask id="path-1-outside-1_3909_1801" maskUnits="userSpaceOnUse" x="-2" y="308.17" width="2025" height="999" fill="black">
<rect fill="white" x="-2" y="308.17" width="2025" height="999"/>
<path d="M1136.21 310.229C1140.68 310.125 1147.09 310.121 1154.84 310.522C1162.49 310.918 1168.53 311.53 1172.69 312.048C1176.91 312.574 1180.6 314.944 1183.39 318.158C1185.83 320.966 1188.98 324.241 1191.82 326.107C1435.39 344.281 1648.58 398.452 1797.85 474.781C1806.51 475.384 1817.45 472.347 1823.87 470.222C1827.39 469.053 1831.18 468.822 1834.66 470.129C1840.91 472.48 1852.17 477.322 1866.21 486.02C1880.57 494.921 1890.36 503.343 1895.38 508.068C1898.01 510.543 1899.5 513.92 1900.02 517.494C1901.05 524.642 1903.28 536.979 1907.14 543.556C1980.15 601.201 2021.43 666.763 2021.43 736.304V1305.01H0V736.304C0.000182861 629.691 97.0343 532.428 256.662 458.714C260.014 453.901 262.526 447.544 264.061 442.98C265.316 439.249 267.545 435.87 270.836 433.708C275.874 430.399 284.084 425.376 292.577 421.74C301.749 417.814 314.31 414.874 321.658 413.352C325.553 412.544 329.565 413.304 333.103 415.122C337.322 417.29 343.302 420.085 348.38 421.41C525.764 357.885 757.353 319.433 1010.72 319.433C1046.34 319.433 1081.53 320.194 1116.21 321.677C1119.16 320.057 1122.07 317.676 1124.38 315.529C1127.66 312.492 1131.75 310.333 1136.21 310.229Z"/>
</mask>
<path d="M1136.21 310.229C1140.68 310.125 1147.09 310.121 1154.84 310.522C1162.49 310.918 1168.53 311.53 1172.69 312.048C1176.91 312.574 1180.6 314.944 1183.39 318.158C1185.83 320.966 1188.98 324.241 1191.82 326.107C1435.39 344.281 1648.58 398.452 1797.85 474.781C1806.51 475.384 1817.45 472.347 1823.87 470.222C1827.39 469.053 1831.18 468.822 1834.66 470.129C1840.91 472.48 1852.17 477.322 1866.21 486.02C1880.57 494.921 1890.36 503.343 1895.38 508.068C1898.01 510.543 1899.5 513.92 1900.02 517.494C1901.05 524.642 1903.28 536.979 1907.14 543.556C1980.15 601.201 2021.43 666.763 2021.43 736.304V1305.01H0V736.304C0.000182861 629.691 97.0343 532.428 256.662 458.714C260.014 453.901 262.526 447.544 264.061 442.98C265.316 439.249 267.545 435.87 270.836 433.708C275.874 430.399 284.084 425.376 292.577 421.74C301.749 417.814 314.31 414.874 321.658 413.352C325.553 412.544 329.565 413.304 333.103 415.122C337.322 417.29 343.302 420.085 348.38 421.41C525.764 357.885 757.353 319.433 1010.72 319.433C1046.34 319.433 1081.53 320.194 1116.21 321.677C1119.16 320.057 1122.07 317.676 1124.38 315.529C1127.66 312.492 1131.75 310.333 1136.21 310.229Z" fill="#FFFF78"/>
<path d="M1136.21 310.229L1136.18 308.826V308.826L1136.21 310.229ZM1154.84 310.522L1154.92 309.121V309.121L1154.84 310.522ZM1172.69 312.048L1172.86 310.655V310.655L1172.69 312.048ZM1183.39 318.158L1184.45 317.238V317.238L1183.39 318.158ZM1191.82 326.107L1191.05 327.281L1191.35 327.48L1191.72 327.507L1191.82 326.107ZM1797.85 474.781L1797.21 476.031L1797.46 476.162L1797.75 476.182L1797.85 474.781ZM1823.87 470.222L1824.31 471.554V471.554L1823.87 470.222ZM1834.66 470.129L1835.16 468.815V468.815L1834.66 470.129ZM1866.21 486.02L1866.95 484.826V484.826L1866.21 486.02ZM1895.38 508.068L1896.35 507.046V507.046L1895.38 508.068ZM1900.02 517.494L1901.41 517.294V517.294L1900.02 517.494ZM1907.14 543.556L1905.93 544.266L1906.06 544.494L1906.27 544.657L1907.14 543.556ZM2021.43 736.304H2022.84V736.304H2021.43ZM2021.43 1305.01V1306.41H2022.84V1305.01H2021.43ZM0 1305.01H-1.40377V1306.41H0V1305.01ZM0 736.304H-1.40377V736.304H0ZM256.662 458.714L257.251 459.988L257.596 459.829L257.814 459.516L256.662 458.714ZM264.061 442.98L262.73 442.533L262.73 442.533L264.061 442.98ZM270.836 433.708L270.065 432.535V432.535L270.836 433.708ZM292.577 421.74L292.025 420.45V420.45L292.577 421.74ZM321.658 413.352L321.373 411.977V411.977L321.658 413.352ZM333.103 415.122L332.461 416.371V416.371L333.103 415.122ZM348.38 421.41L348.025 422.768L348.445 422.878L348.853 422.732L348.38 421.41ZM1010.72 319.433V318.029V318.029V319.433ZM1116.21 321.677L1116.15 323.079L1116.54 323.096L1116.88 322.908L1116.21 321.677ZM1124.38 315.529L1123.43 314.5V314.5L1124.38 315.529ZM1136.21 310.229L1136.25 311.633C1140.68 311.53 1147.06 311.525 1154.77 311.924L1154.84 310.522L1154.92 309.121C1147.12 308.717 1140.68 308.721 1136.18 308.826L1136.21 310.229ZM1154.84 310.522L1154.77 311.924C1162.38 312.318 1168.39 312.927 1172.51 313.441L1172.69 312.048L1172.86 310.655C1168.67 310.133 1162.6 309.518 1154.92 309.121L1154.84 310.522ZM1172.69 312.048L1172.51 313.441C1176.31 313.914 1179.71 316.058 1182.33 319.078L1183.39 318.158L1184.45 317.238C1181.5 313.83 1177.51 311.233 1172.86 310.655L1172.69 312.048ZM1183.39 318.158L1182.33 319.078C1184.78 321.897 1188.03 325.3 1191.05 327.281L1191.82 326.107L1192.59 324.934C1189.92 323.181 1186.88 320.036 1184.45 317.238L1183.39 318.158ZM1191.82 326.107L1191.72 327.507C1435.16 345.672 1648.16 399.812 1797.21 476.031L1797.85 474.781L1798.49 473.531C1649.01 397.093 1435.61 342.89 1191.92 324.708L1191.82 326.107ZM1797.85 474.781L1797.75 476.182C1806.72 476.805 1817.89 473.682 1824.31 471.554L1823.87 470.222L1823.43 468.889C1817.02 471.013 1806.31 473.962 1797.94 473.381L1797.85 474.781ZM1823.87 470.222L1824.31 471.554C1827.62 470.459 1831.06 470.276 1834.17 471.443L1834.66 470.129L1835.16 468.815C1831.3 467.367 1827.17 467.647 1823.43 468.889L1823.87 470.222ZM1834.66 470.129L1834.17 471.443C1840.35 473.766 1851.52 478.569 1865.47 487.213L1866.21 486.02L1866.95 484.826C1852.82 476.075 1841.48 471.194 1835.16 468.815L1834.66 470.129ZM1866.21 486.02L1865.47 487.213C1879.74 496.056 1889.46 504.418 1894.42 509.091L1895.38 508.068L1896.35 507.046C1891.27 502.268 1881.4 493.785 1866.95 484.826L1866.21 486.02ZM1895.38 508.068L1894.42 509.091C1896.77 511.304 1898.15 514.366 1898.63 517.694L1900.02 517.494L1901.41 517.294C1900.86 513.474 1899.25 509.781 1896.35 507.046L1895.38 508.068ZM1900.02 517.494L1898.63 517.694C1899.15 521.292 1899.97 526.212 1901.15 531.071C1902.33 535.901 1903.89 540.794 1905.93 544.266L1907.14 543.556L1908.35 542.846C1906.53 539.74 1905.04 535.176 1903.88 530.407C1902.73 525.667 1901.92 520.844 1901.41 517.294L1900.02 517.494ZM1907.14 543.556L1906.27 544.657C1979.1 602.164 2020.03 667.363 2020.03 736.304H2021.43H2022.84C2022.84 666.162 1981.19 600.237 1908.01 542.454L1907.14 543.556ZM2021.43 736.304H2020.03V1305.01H2021.43H2022.84V736.304H2021.43ZM2021.43 1305.01V1303.6H0V1305.01V1306.41H2021.43V1305.01ZM0 1305.01H1.40377V736.304H0H-1.40377V1305.01H0ZM0 736.304H1.40377C1.40386 683.453 25.449 632.812 69.4917 586.135C113.541 539.45 177.538 496.799 257.251 459.988L256.662 458.714L256.074 457.439C176.159 494.343 111.824 537.18 67.4497 584.208C23.0683 631.244 -1.40368 682.541 -1.40377 736.304H0ZM256.662 458.714L257.814 459.516C261.283 454.535 263.845 448.025 265.391 443.428L264.061 442.98L262.73 442.533C261.206 447.063 258.745 453.266 255.51 457.912L256.662 458.714ZM264.061 442.98L265.391 443.428C266.572 439.918 268.639 436.831 271.607 434.881L270.836 433.708L270.065 432.535C266.452 434.908 264.06 438.58 262.73 442.533L264.061 442.98ZM270.836 433.708L271.607 434.881C276.616 431.591 284.747 426.619 293.13 423.031L292.577 421.74L292.025 420.45C283.421 424.133 275.131 429.207 270.065 432.535L270.836 433.708ZM292.577 421.74L293.13 423.031C302.162 419.164 314.601 416.248 321.943 414.726L321.658 413.352L321.373 411.977C314.018 413.501 301.337 416.463 292.025 420.45L292.577 421.74ZM321.658 413.352L321.943 414.726C325.473 413.995 329.159 414.674 332.461 416.371L333.103 415.122L333.744 413.873C329.971 411.935 325.633 411.094 321.373 411.977L321.658 413.352ZM333.103 415.122L332.461 416.371C336.696 418.547 342.79 421.402 348.025 422.768L348.38 421.41L348.734 420.052C343.814 418.768 337.949 416.034 333.744 413.873L333.103 415.122ZM348.38 421.41L348.853 422.732C526.058 359.27 757.483 320.836 1010.72 320.836V319.433V318.029C757.224 318.029 525.47 356.499 347.907 420.089L348.38 421.41ZM1010.72 319.433V320.836C1046.32 320.836 1081.49 321.597 1116.15 323.079L1116.21 321.677L1116.27 320.274C1081.57 318.79 1046.36 318.029 1010.72 318.029V319.433ZM1116.21 321.677L1116.88 322.908C1119.99 321.208 1122.99 318.738 1125.34 316.559L1124.38 315.529L1123.43 314.5C1121.15 316.614 1118.34 318.907 1115.53 320.446L1116.21 321.677ZM1124.38 315.529L1125.34 316.559C1128.45 313.678 1132.22 311.727 1136.25 311.633L1136.21 310.229L1136.18 308.826C1131.27 308.94 1126.87 311.307 1123.43 314.5L1124.38 315.529Z" fill="black" mask="url(#path-1-outside-1_3909_1801)"/>
<ellipse cx="62.3399" cy="21.6588" rx="62.3399" ry="21.6588" transform="matrix(0.998515 0.0544693 -0.143354 0.989671 1348.55 492.969)" fill="#FFDF78"/>
<ellipse cx="58.0666" cy="18.8741" rx="58.0666" ry="18.8741" transform="matrix(0.998515 0.0544693 -0.143354 0.989671 1358.04 491.334)" fill="#FFFF78"/>
<path d="M1372.78 498.303C1356.2 501.638 1345.17 507.85 1344.9 515.338C1344.45 527.409 1372.12 538.225 1406.69 539.496C1441.27 540.766 1469.65 532.01 1470.1 519.939C1471.94 526.913 1477.66 538.566 1490.53 541.745" stroke="black"/>
<path d="M1345.11 513.572C1343.94 517.358 1339.68 525.501 1332 527.791" stroke="black"/>
<path d="M385.625 522.455C389.016 528.278 399.533 540.68 414.469 543.7" stroke="black"/>
<ellipse cx="76.8676" cy="30.9006" rx="76.8676" ry="30.9006" transform="matrix(-0.997142 0.0755552 0.111493 0.993765 385.461 499.77)" fill="#FFDF78"/>
<ellipse cx="71.5984" cy="26.9696" rx="71.5984" ry="26.9696" transform="matrix(-0.997142 0.0755552 0.111493 0.993765 374.004 500.205)" fill="#FFFF78"/>
<path d="M310.089 504.92C352.646 502.129 388.064 513.878 389.197 531.162C390.331 548.447 356.751 564.721 314.194 567.512C271.637 570.303 236.219 558.553 235.086 541.269C234.689 546.074 231.01 557.346 219.469 563.995" stroke="black"/>
<ellipse cx="1154.7" cy="313.653" rx="25.2896" ry="3.48743" transform="rotate(3.4716 1154.7 313.653)" fill="#FFED78"/>
<path d="M1179.18 315.26C1179.04 317.338 1167.91 318.297 1154.32 317.403C1140.73 316.508 1129.82 314.098 1129.96 312.02" stroke="black" stroke-width="1.40377"/>
<path d="M1116.45 321.508C1116.34 323.118 1120.5 324.857 1127.33 326.367" stroke="black" stroke-width="1.40377"/>
<path d="M1899.13 512.064C1897.28 515.064 1879.87 507.669 1860.26 495.546C1840.64 483.423 1826.24 471.164 1828.09 468.164" stroke="black" stroke-width="1.40377"/>
<path d="M1799.01 474.695C1797.18 477.398 1804.38 485.758 1816.89 496.32" stroke="black" stroke-width="1.40377"/>
<path d="M1845.56 475.09C1839.39 471.631 1835 470.071 1832.16 469.485C1830.33 469.108 1829.57 470.84 1830.79 472.249C1844.8 488.407 1878.39 505.371 1894.28 512.156C1861.95 497.976 1849.59 483.306 1846.93 476.739C1846.65 476.056 1846.2 475.451 1845.56 475.09Z" fill="#FFEF78"/>
<path d="M456.648 752.271C461.409 760.446 476.173 777.855 497.139 782.095" stroke="black" stroke-width="1.40377"/>
<path d="M1444.54 358.507C1511.75 372.489 1575.46 389.171 1634.82 408.139C1643.21 414.891 1647.37 421.327 1646.01 426.743C1641.88 443.254 1588.13 444.037 1525.95 428.493C1463.78 412.949 1416.72 386.963 1420.84 370.452C1422.4 364.216 1431.04 360.224 1444.54 358.507Z" fill="black"/>
<path d="M1522.68 671.333C1512.63 675.098 1506.33 680.026 1505.51 685.673C1503.42 700.155 1538.16 713.883 1583.11 716.335C1623.34 718.529 1658.11 710.948 1666.47 698.951C1666.54 699.754 1666.52 700.561 1666.4 701.37C1663.99 717.988 1622.92 729.326 1574.66 726.694C1526.4 724.061 1489.23 708.455 1491.64 691.837C1492.9 683.14 1504.75 675.892 1522.68 671.333Z" fill="#FFED78"/>
<path d="M1530.01 669.233C1506.73 673.914 1491.25 682.634 1490.86 693.145C1490.24 710.091 1529.08 725.274 1577.61 727.057C1626.15 728.841 1666 716.55 1666.62 699.605C1669.2 709.394 1677.24 725.752 1695.3 730.215" stroke="black" stroke-width="1.40377"/>
<path d="M1491.17 690.67C1489.53 695.984 1483.54 707.416 1472.76 710.63" stroke="black" stroke-width="1.40377"/>
<path d="M461.255 763.533C458.798 741.629 415.992 726.632 362.883 727.88C407.752 728.368 442.554 740.807 444.557 758.66C446.888 779.439 403.907 799.683 348.557 803.877C298.639 807.66 255.71 797.094 246.054 779.743C246.057 779.774 246.059 779.806 246.063 779.838C248.734 803.645 299.071 819.295 358.495 814.793C417.919 810.29 463.926 787.34 461.255 763.533Z" fill="#FFED78"/>
<path d="M350.615 727.657C410.355 723.739 460.074 740.232 461.665 764.496C463.256 788.759 416.117 811.604 356.377 815.522C296.637 819.44 246.918 802.946 245.327 778.683C244.77 785.428 239.606 801.252 223.405 810.585" stroke="black" stroke-width="1.40377"/>
<path d="M1693.05 488.814C1681.86 491.002 1674.26 495.216 1673.61 500.51C1672.53 509.39 1691.42 517.943 1715.8 519.613C1735.03 520.93 1751.93 517.571 1758.75 511.739C1755.43 520.995 1734.23 526.978 1709.5 525.284C1683.32 523.49 1663.11 513.775 1664.35 503.585C1665.24 496.288 1676.9 490.726 1693.05 488.814Z" fill="#FFED78"/>
<path d="M1713.82 487.501C1687.93 485.803 1666.38 492.952 1665.69 503.468C1665 513.983 1685.43 523.885 1711.33 525.583C1737.22 527.281 1758.77 520.132 1759.45 509.616C1760.28 514.265 1764.38 523.966 1774.24 525.583" stroke="black" stroke-width="1.40377"/>
<path d="M1667.09 499.377C1663.17 505.991 1659.09 508.795 1652.84 511.223" stroke="black" stroke-width="1.40377"/>
<path d="M1202.76 382.584C1202.58 385.271 1193.98 386.894 1183.54 386.209C1173.1 385.525 1164.79 382.792 1164.96 380.105C1165.14 377.418 1173.74 375.795 1184.18 376.479" stroke="black" stroke-width="1.40377"/>
<path d="M1165.31 379.848C1166 377.396 1174.83 376.025 1185.02 376.786C1186.98 376.933 1188.86 377.149 1190.6 377.418C1189.56 377.293 1188.49 377.188 1187.38 377.105C1178.23 376.422 1170.34 377.542 1169.75 379.606C1169.17 381.671 1176.12 383.898 1185.27 384.581C1192.88 385.15 1199.62 384.469 1202.01 383.037C1200.45 385.213 1192.09 386.38 1182.52 385.665C1172.32 384.904 1164.62 382.299 1165.31 379.848Z" fill="#FFED78"/>
<path d="M325.784 413.027C326.778 415.51 314.42 422.795 298.181 429.298C281.942 435.801 267.971 439.059 266.977 436.576" stroke="black" stroke-width="1.40377"/>
<path d="M257.852 457.264C258.675 459.598 267.022 458.972 279.104 456.104" stroke="black" stroke-width="1.40377"/>
<path d="M278.82 429.159C274.695 431.035 271.994 432.744 270.303 434.107C268.851 435.277 269.723 436.878 271.578 436.69C287.783 435.041 312.557 422.541 323.653 416.027C300.814 429.139 286.392 430.254 280.968 429.015C280.25 428.851 279.49 428.854 278.82 429.159Z" fill="#FFEF78"/>
<path d="M1524.07 370.633L1530.1 363.718L1556.9 369.482L1558.59 377.796L1564.61 378.894L1566.92 389.333L1573.46 390.426L1576.96 407.35L1491.45 390.429L1502.36 376.558L1508.79 377.829L1516.41 369.119L1524.07 370.633Z" fill="#DCE6DE"/>
<path d="M1579.92 366.562L1583.15 365.98L1590.18 404.582L1585.66 403.671L1579.92 366.562Z" fill="black"/>
<path d="M1505.69 349.949L1503.14 347.871L1480.18 385.985L1484.85 386.946L1505.69 349.949Z" fill="black"/>
<path d="M1503.12 292.835L1516.97 300.566L1528.73 311.736L1541.16 322.389L1562.81 327.649L1579.51 329.77L1590.58 329.034L1608.26 306.444L1618.83 305.741L1616.41 324.082L1625.96 323.447L1634.9 330.292L1635.56 340.181L1632.18 344.042L1618.33 352.862L1633.87 369.501L1621.64 374.187L1595.67 363.122L1586.8 366.454L1560.39 370.231L1556.88 369.477L1530.09 363.714L1525.96 362.826L1507.24 354.779L1482.55 323.697L1485.8 299.644L1483.01 288.113L1489.77 280.391L1499.83 279.722L1503.12 292.835Z" fill="#FFFF78"/>
<path d="M1595.68 363.127L1611.64 357.13L1618.34 352.866L1633.88 369.505L1621.64 374.192L1595.68 363.127Z" fill="white"/>
<path d="M1601.62 327.901L1590.56 328.637L1608.24 306.047L1618.81 305.344L1616.39 323.685L1601.62 327.901Z" fill="white"/>
<path d="M1483.02 288.115L1493.47 287.419L1499.83 279.724L1489.78 280.393L1483.02 288.115Z" fill="black"/>
<path d="M1634.9 330.296L1625.96 323.451L1626.77 335.518L1635.56 340.185L1634.9 330.296Z" fill="black"/>
<path d="M1541.16 322.393L1528.74 311.741L1518.97 330.571L1533.04 341.755L1541.16 322.393Z" fill="#FA673A"/>
<path d="M1502.91 292.881L1499.9 280.322L1493.54 287.966L1496.63 298.615L1502.91 292.881Z" fill="#FFB195" fill-opacity="0.91"/>
<path d="M1606.2 342.14L1585.69 349.565L1586.81 366.458L1595.68 363.127L1611.64 357.13L1606.2 342.14Z" fill="#C1F174"/>
<path d="M1485.8 299.644L1496.66 298.922M1485.8 299.644L1482.55 323.697M1485.8 299.644L1483.01 288.113M1496.66 298.922L1503.12 292.835M1496.66 298.922L1504.73 316.969M1496.66 298.922L1493.47 287.418M1503.12 292.835L1516.97 300.566M1503.12 292.835L1499.83 279.722M1516.97 300.566L1528.73 311.736M1516.97 300.566L1504.73 316.969M1528.73 311.736L1541.16 322.389M1528.73 311.736L1518.97 330.566M1541.16 322.389L1562.81 327.649M1541.16 322.389L1533.04 341.75M1562.81 327.649L1579.51 329.77M1562.81 327.649L1562.59 348.672M1579.51 329.77L1585.68 349.56M1579.51 329.77L1590.58 329.034M1601.64 328.298L1606.19 342.135M1601.64 328.298L1590.58 329.034M1601.64 328.298L1616.41 324.082M1625.96 323.447L1634.9 330.292L1635.56 340.181M1625.96 323.447L1626.76 335.514M1625.96 323.447L1616.41 324.082M1635.56 340.181L1632.18 344.042L1618.33 352.862M1635.56 340.181L1626.76 335.514M1611.64 357.125L1606.19 342.135M1611.64 357.125L1595.67 363.122M1611.64 357.125L1618.33 352.862M1586.8 366.454L1560.39 370.231M1586.8 366.454L1585.68 349.56M1586.8 366.454L1595.67 363.122M1560.39 370.231L1562.59 348.672M1560.39 370.231L1556.88 369.477M1525.96 362.826L1507.24 354.779M1525.96 362.826L1533.04 341.75M1525.96 362.826L1530.09 363.714M1507.24 354.779L1482.55 323.697M1507.24 354.779L1518.97 330.566M1482.55 323.697L1504.73 316.969M1504.73 316.969L1518.97 330.566M1518.97 330.566L1533.04 341.75M1533.04 341.75L1562.59 348.672M1562.59 348.672L1585.68 349.56M1585.68 349.56L1606.19 342.135M1606.19 342.135L1626.76 335.514M1493.47 287.418L1483.01 288.113M1493.47 287.418L1499.83 279.722M1483.01 288.113L1489.77 280.391L1499.83 279.722M1590.58 329.034L1608.26 306.444L1618.83 305.741L1616.41 324.082M1595.67 363.122L1621.64 374.187L1633.87 369.501L1618.33 352.862M1530.09 363.714L1524.06 370.629M1530.09 363.714L1556.88 369.477M1524.06 370.629L1558.58 377.791M1524.06 370.629L1516.4 369.114L1508.78 377.824M1558.58 377.791L1556.88 369.477M1558.58 377.791L1564.6 378.89L1566.91 389.328M1508.78 377.824L1566.91 389.328M1508.78 377.824L1502.35 376.553L1491.44 390.424L1576.94 407.345L1573.45 390.421L1566.91 389.328" stroke="black"/>
<path d="M1539.51 336.027L1530.08 363.736L1556.92 369.424L1559.68 339.955C1559.98 336.823 1558.33 333.83 1555.52 332.404C1552.82 331.027 1549.79 330.407 1546.76 330.609L1546.55 330.622C1543.33 330.836 1540.55 332.969 1539.51 336.027Z" fill="black" stroke="black"/>
</g>


<defs>
<clipPath id="clip0_3909_1801">
<rect width="2021.43" height="744" fill="white" transform="translate(0 161.334)"/>
</clipPath>
</defs>
</svg>
