<svg width="83" height="83" viewBox="0 0 83 83" fill="none" xmlns="http://www.w3.org/2000/svg">
<path d="M41.5 82C63.8675 82 82 63.8675 82 41.5C82 19.1325 63.8675 1 41.5 1C19.1325 1 1 19.1325 1 41.5C1 63.8675 19.1325 82 41.5 82Z" fill="#FFFF78"/>
<path d="M41.5 82C63.8675 82 82 63.8675 82 41.5C82 19.1325 63.8675 1 41.5 1C19.1325 1 1 19.1325 1 41.5C1 63.8675 19.1325 82 41.5 82Z" fill="#39BF97"/>
<path d="M41.5 82C63.8675 82 82 63.8675 82 41.5C82 19.1325 63.8675 1 41.5 1C19.1325 1 1 19.1325 1 41.5C1 63.8675 19.1325 82 41.5 82Z" stroke="black" stroke-width="2"/>
<path d="M76.4064 46.1895C77.0907 61.676 60.6334 73.0043 52.3111 76.7355C50.0186 76.7355 45.7726 76.3027 47.1528 74.5833C48.8723 72.4311 48.8723 72.0042 47.1528 64.2609C45.7726 58.0675 54.0364 59.3834 58.3349 60.8162C60.0544 61.676 64.1014 62.8807 66.5109 60.8162C69.5229 58.2371 69.5229 55.6521 69.0901 53.9327C68.6632 52.2133 69.9498 47.4819 76.4064 46.1895Z" fill="black" stroke="black"/>
<path d="M12.5831 54.9632C13.0802 54.6825 13.7411 54.7293 14.4546 55.1094C15.1565 55.4896 15.8641 56.1797 16.3904 57.1096C16.9168 58.0395 17.1448 59.0044 17.1039 59.7998C17.0688 60.6011 16.7589 61.1976 16.2676 61.4725C15.7705 61.7532 15.1096 61.7064 14.402 61.3262C13.6943 60.9461 12.9867 60.2502 12.4603 59.3261C11.934 58.3962 11.7059 57.4312 11.7468 56.6358C11.7878 55.8346 12.0919 55.2381 12.5831 54.9632Z" fill="white" stroke="black"/>
</svg>
