<svg width="1440" height="852" viewBox="0 0 1440 852" fill="none" xmlns="http://www.w3.org/2000/svg">
<mask id="path-1-outside-1_2104_424" maskUnits="userSpaceOnUse" x="-0.921875" y="82.6492" width="1442" height="2068" fill="black">
<rect fill="white" x="-0.921875" y="82.6492" width="1442" height="2068"/>
<path fill-rule="evenodd" clip-rule="evenodd" d="M809.477 83.6915C812.659 83.6174 817.226 83.6145 822.75 83.9005C828.193 84.1823 832.497 84.6176 835.46 84.9864C838.468 85.361 841.101 87.05 843.087 89.34C844.822 91.3403 847.064 93.6723 849.091 95.0021C1022.6 107.948 1174.47 146.538 1280.8 200.91C1286.97 201.341 1294.77 199.179 1299.34 197.664C1301.85 196.832 1304.55 196.668 1307.03 197.599C1311.48 199.273 1319.5 202.722 1329.5 208.918C1339.73 215.259 1346.71 221.259 1350.29 224.625C1352.16 226.388 1353.22 228.794 1353.58 231.34C1354.32 236.435 1355.92 245.228 1358.66 249.911C1410.67 290.974 1440.08 337.676 1440.08 387.212V2149.15H0.078125V387.212C0.0783854 311.265 69.2019 241.978 182.915 189.467C185.303 186.038 187.092 181.51 188.186 178.259C189.08 175.601 190.668 173.193 193.012 171.653C196.6 169.296 202.45 165.718 208.5 163.128C215.034 160.331 223.982 158.236 229.217 157.151C231.991 156.577 234.848 157.119 237.368 158.413C240.374 159.958 244.634 161.949 248.251 162.893C374.614 117.639 539.59 90.2472 720.078 90.2472C745.454 90.2472 770.523 90.7894 795.221 91.8458C797.328 90.6922 799.401 88.997 801.051 87.4669C803.384 85.3035 806.296 83.7657 809.477 83.6915Z"/>
</mask>
<path fill-rule="evenodd" clip-rule="evenodd" d="M809.477 83.6915C812.659 83.6174 817.226 83.6145 822.75 83.9005C828.193 84.1823 832.497 84.6176 835.46 84.9864C838.468 85.361 841.101 87.05 843.087 89.34C844.822 91.3403 847.064 93.6723 849.091 95.0021C1022.6 107.948 1174.47 146.538 1280.8 200.91C1286.97 201.341 1294.77 199.179 1299.34 197.664C1301.85 196.832 1304.55 196.668 1307.03 197.599C1311.48 199.273 1319.5 202.722 1329.5 208.918C1339.73 215.259 1346.71 221.259 1350.29 224.625C1352.16 226.388 1353.22 228.794 1353.58 231.34C1354.32 236.435 1355.92 245.228 1358.66 249.911C1410.67 290.974 1440.08 337.676 1440.08 387.212V2149.15H0.078125V387.212C0.0783854 311.265 69.2019 241.978 182.915 189.467C185.303 186.038 187.092 181.51 188.186 178.259C189.08 175.601 190.668 173.193 193.012 171.653C196.6 169.296 202.45 165.718 208.5 163.128C215.034 160.331 223.982 158.236 229.217 157.151C231.991 156.577 234.848 157.119 237.368 158.413C240.374 159.958 244.634 161.949 248.251 162.893C374.614 117.639 539.59 90.2472 720.078 90.2472C745.454 90.2472 770.523 90.7894 795.221 91.8458C797.328 90.6922 799.401 88.997 801.051 87.4669C803.384 85.3035 806.296 83.7657 809.477 83.6915Z" fill="#FFFF78"/>
<path fill-rule="evenodd" clip-rule="evenodd" d="M809.477 83.6915L809.453 82.6918L809.453 82.6918L809.477 83.6915ZM822.75 83.9005L822.802 82.9018V82.9018L822.75 83.9005ZM835.46 84.9864L835.583 83.9941V83.9941L835.46 84.9864ZM843.087 89.34L842.331 89.9952V89.9952L843.087 89.34ZM849.091 95.0021L848.542 95.8381L848.758 95.98L849.016 95.9993L849.091 95.0021ZM1280.8 200.91L1280.34 201.801L1280.52 201.894L1280.73 201.908L1280.8 200.91ZM1299.34 197.664L1299.65 198.613L1299.34 197.664ZM1307.03 197.599L1307.38 196.663V196.663L1307.03 197.599ZM1329.5 208.918L1330.03 208.068L1329.5 208.918ZM1350.29 224.625L1350.97 223.897L1350.29 224.625ZM1353.58 231.34L1354.57 231.197L1353.58 231.34ZM1358.66 249.911L1357.8 250.417L1357.9 250.58L1358.04 250.696L1358.66 249.911ZM1440.08 387.212H1441.08H1440.08ZM1440.08 2149.15V2150.15H1441.08V2149.15H1440.08ZM0.078125 2149.15H-0.921875V2150.15H0.078125V2149.15ZM0.078125 387.212H-0.921875H0.078125ZM182.915 189.467L183.334 190.375L183.581 190.261L183.736 190.038L182.915 189.467ZM188.186 178.259L187.238 177.94V177.94L188.186 178.259ZM193.012 171.653L192.463 170.818L192.463 170.818L193.012 171.653ZM208.5 163.128L208.106 162.209H208.106L208.5 163.128ZM229.217 157.151L229.014 156.172L229.014 156.172L229.217 157.151ZM237.368 158.413L237.825 157.524L237.825 157.524L237.368 158.413ZM248.251 162.893L247.998 163.86L248.297 163.938L248.588 163.834L248.251 162.893ZM795.221 91.8458L795.178 92.8449L795.456 92.8568L795.701 92.723L795.221 91.8458ZM801.051 87.4669L800.371 86.7337V86.7337L801.051 87.4669ZM809.477 83.6915L809.5 84.6912C812.661 84.6176 817.203 84.6146 822.698 84.8992L822.75 83.9005L822.802 82.9018C817.25 82.6144 812.657 82.6172 809.453 82.6918L809.477 83.6915ZM822.75 83.9005L822.698 84.8992C828.116 85.1797 832.396 85.6127 835.336 85.9788L835.46 84.9864L835.583 83.9941C832.599 83.6225 828.271 83.185 822.802 82.9018L822.75 83.9005ZM835.46 84.9864L835.336 85.9788C838.043 86.3158 840.465 87.8438 842.331 89.9952L843.087 89.34L843.842 88.6847C841.736 86.2562 838.893 84.4062 835.583 83.9941L835.46 84.9864ZM843.087 89.34L842.331 89.9952C844.073 92.0032 846.392 94.427 848.542 95.8381L849.091 95.0021L849.639 94.166C847.737 92.9176 845.571 90.6775 843.842 88.6847L843.087 89.34ZM849.091 95.0021L849.016 95.9993C1022.43 108.939 1174.16 147.507 1280.34 201.801L1280.8 200.91L1281.25 200.02C1174.77 145.569 1022.76 106.958 849.165 94.0048L849.091 95.0021ZM1280.8 200.91L1280.73 201.908C1287.12 202.354 1295.08 200.13 1299.65 198.613L1299.34 197.664L1299.02 196.715C1294.46 198.228 1286.83 200.329 1280.87 199.913L1280.8 200.91ZM1299.34 197.664L1299.65 198.613C1302.01 197.833 1304.46 197.704 1306.68 198.535L1307.03 197.599L1307.38 196.663C1304.64 195.632 1301.69 195.83 1299.02 196.715L1299.34 197.664ZM1307.03 197.599L1306.68 198.535C1311.08 200.189 1319.04 203.611 1328.97 209.768L1329.5 208.918L1330.03 208.068C1319.96 201.834 1311.89 198.357 1307.38 196.663L1307.03 197.599ZM1329.5 208.918L1328.97 209.768C1339.14 216.068 1346.06 222.024 1349.6 225.353L1350.29 224.625L1350.97 223.897C1347.35 220.493 1340.33 214.45 1330.03 208.068L1329.5 208.918ZM1350.29 224.625L1349.6 225.353C1351.28 226.93 1352.25 229.112 1352.6 231.482L1353.58 231.34L1354.57 231.197C1354.18 228.477 1353.04 225.845 1350.97 223.897L1350.29 224.625ZM1353.58 231.34L1352.6 231.482C1352.96 234.047 1353.55 237.554 1354.4 241.017C1355.24 244.459 1356.35 247.945 1357.8 250.417L1358.66 249.911L1359.53 249.405C1358.23 247.194 1357.17 243.942 1356.34 240.543C1355.52 237.165 1354.94 233.727 1354.57 231.197L1353.58 231.34ZM1358.66 249.911L1358.04 250.696C1409.93 291.66 1439.08 338.104 1439.08 387.212H1440.08H1441.08C1441.08 337.248 1411.41 290.288 1359.28 249.126L1358.66 249.911ZM1440.08 387.212H1439.08V2149.15H1440.08H1441.08V387.212H1440.08ZM1440.08 2149.15V2148.15H0.078125V2149.15V2150.15H1440.08V2149.15ZM0.078125 2149.15H1.07812V387.212H0.078125H-0.921875V2149.15H0.078125ZM0.078125 387.212H1.07812C1.07825 349.563 18.2071 313.488 49.5816 280.237C80.961 246.981 126.55 216.597 183.334 190.375L182.915 189.467L182.496 188.559C125.567 214.848 79.7376 245.363 48.1269 278.865C16.5113 312.371 -0.921744 348.914 -0.921875 387.212H0.078125ZM182.915 189.467L183.736 190.038C186.207 186.49 188.032 181.853 189.133 178.578L188.186 178.259L187.238 177.94C186.152 181.167 184.399 185.586 182.094 188.895L182.915 189.467ZM188.186 178.259L189.133 178.578C189.974 176.077 191.447 173.878 193.561 172.489L193.012 171.653L192.463 170.818C189.889 172.509 188.185 175.124 187.238 177.94L188.186 178.259ZM193.012 171.653L193.561 172.489C197.129 170.145 202.922 166.604 208.894 164.047L208.5 163.128L208.106 162.209C201.977 164.833 196.071 168.447 192.463 170.818L193.012 171.653ZM208.5 163.128L208.894 164.047C215.328 161.293 224.19 159.215 229.42 158.131L229.217 157.151L229.014 156.172C223.774 157.258 214.74 159.369 208.106 162.209L208.5 163.128ZM229.217 157.151L229.42 158.131C231.934 157.61 234.559 158.094 236.911 159.303L237.368 158.413L237.825 157.524C235.138 156.143 232.048 155.544 229.014 156.172L229.217 157.151ZM237.368 158.413L236.911 159.303C239.928 160.853 244.269 162.887 247.998 163.86L248.251 162.893L248.504 161.925C244.998 161.01 240.82 159.063 237.825 157.524L237.368 158.413ZM248.251 162.893L248.588 163.834C374.823 118.626 539.682 91.2472 720.078 91.2472V90.2472V89.2472C539.498 89.2472 374.404 116.652 247.914 161.951L248.251 162.893ZM720.078 90.2472V91.2472C745.439 91.2472 770.494 91.7891 795.178 92.8449L795.221 91.8458L795.263 90.8467C770.551 89.7897 745.468 89.2472 720.078 89.2472V90.2472ZM795.221 91.8458L795.701 92.723C797.913 91.5123 800.055 89.7543 801.731 88.2001L801.051 87.4669L800.371 86.7337C798.747 88.2396 796.744 89.8721 794.741 90.9686L795.221 91.8458ZM801.051 87.4669L801.731 88.2001C803.943 86.1481 806.633 84.7581 809.5 84.6912L809.477 83.6915L809.453 82.6918C805.959 82.7733 802.824 84.4588 800.371 86.7337L801.051 87.4669Z" fill="black" mask="url(#path-1-outside-1_2104_424)"/>
<ellipse cx="822.648" cy="86.1312" rx="18.0154" ry="2.48433" transform="rotate(3.4716 822.648 86.1312)" fill="#FFED78"/>
<path d="M840.083 87.2752C839.986 88.7556 832.058 89.439 822.377 88.8016C812.695 88.1641 804.926 86.4472 805.023 84.9668" stroke="black"/>
<path d="M795.395 91.7266C795.319 92.8736 798.286 94.1121 803.147 95.188" stroke="black"/>
<path d="M1352.96 227.472C1351.64 229.609 1339.24 224.341 1325.26 215.705C1311.29 207.069 1301.03 198.336 1302.35 196.199" stroke="black"/>
<path d="M1281.63 200.852C1280.33 202.777 1285.46 208.732 1294.37 216.256" stroke="black"/>
<path d="M1314.79 201.133C1310.4 198.669 1307.27 197.557 1305.25 197.14C1303.95 196.871 1303.4 198.105 1304.27 199.108C1314.25 210.619 1338.18 222.703 1349.5 227.537C1326.46 217.436 1317.66 206.985 1315.77 202.307C1315.57 201.821 1315.25 201.389 1314.79 201.133Z" fill="#FFEF78"/>
<path d="M325.379 398.588C328.77 404.411 339.287 416.813 354.223 419.833" stroke="black"/>
<path d="M616.667 231.554C617.988 233.394 622.095 238.371 627.586 241.293M523.672 239.806C522.509 241.845 520.628 245.67 516.348 247.053" stroke="black"/>
<path fill-rule="evenodd" clip-rule="evenodd" d="M959.056 107.041C1007.45 114.06 1053.48 123.152 1096.51 134.058C1102.77 138.494 1106 142.889 1105.28 146.799C1103.06 158.718 1064.87 161.613 1019.99 153.264C975.1 144.915 940.509 128.484 942.726 116.564C943.563 112.062 949.533 108.848 959.056 107.041Z" fill="black"/>
<path d="M1084.78 340.928C1077.62 343.61 1073.14 347.121 1072.55 351.144C1071.06 361.46 1095.81 371.24 1127.83 372.986C1156.49 374.55 1181.26 369.148 1187.22 360.602C1187.26 361.174 1187.25 361.749 1187.17 362.326C1185.45 374.164 1156.19 382.24 1121.81 380.365C1087.43 378.49 1060.96 367.373 1062.67 355.534C1063.57 349.339 1072.01 344.175 1084.78 340.928Z" fill="#FFED78"/>
<path d="M1090.01 339.433C1073.42 342.768 1062.39 348.98 1062.12 356.468C1061.67 368.539 1089.34 379.355 1123.92 380.625C1158.49 381.896 1186.88 373.14 1187.32 361.069C1189.16 368.043 1194.89 379.695 1207.76 382.875" stroke="black"/>
<path d="M1062.34 354.704C1061.17 358.49 1056.9 366.633 1049.22 368.923" stroke="black"/>
<path fill-rule="evenodd" clip-rule="evenodd" d="M328.659 406.608C326.908 391.005 296.418 380.323 258.588 381.21C290.548 381.559 315.337 390.42 316.763 403.137C318.424 417.939 287.806 432.36 248.377 435.348C212.817 438.042 182.235 430.516 175.356 418.156C175.359 418.178 175.36 418.201 175.363 418.224C177.266 435.183 213.125 446.331 255.456 443.123C297.787 439.916 330.561 423.567 328.659 406.608Z" fill="#FFED78"/>
<path d="M249.843 381.051C292.4 378.261 327.818 390.01 328.951 407.294C330.085 424.579 296.505 440.853 253.948 443.644C211.391 446.434 175.973 434.685 174.839 417.401C174.443 422.206 170.764 433.478 159.223 440.126" stroke="black"/>
<path d="M1206.16 210.909C1198.18 212.467 1192.77 215.469 1192.31 219.241C1191.53 225.566 1204.99 231.66 1222.36 232.85C1236.05 233.788 1248.1 231.395 1252.95 227.239C1250.59 233.834 1235.48 238.095 1217.87 236.889C1199.22 235.611 1184.82 228.691 1185.71 221.431C1186.34 216.233 1194.64 212.271 1206.16 210.909Z" fill="#FFED78"/>
<path d="M1220.95 209.974C1202.5 208.764 1187.15 213.856 1186.66 221.347C1186.17 228.838 1200.72 235.892 1219.17 237.101C1237.61 238.311 1252.96 233.219 1253.45 225.728C1254.04 229.039 1256.96 235.95 1263.98 237.101" stroke="black"/>
<path d="M1187.65 218.433C1184.86 223.145 1181.96 225.142 1177.5 226.872" stroke="black"/>
<path d="M856.882 135.235C856.757 137.149 850.627 138.305 843.192 137.817C835.757 137.33 829.831 135.383 829.957 133.469C830.082 131.555 836.212 130.399 843.647 130.886" stroke="black"/>
<path fill-rule="evenodd" clip-rule="evenodd" d="M608.389 227.39C611.58 228.674 613.568 230.263 613.977 232.097C615.395 238.455 597.308 245.331 573.578 247.455C549.849 249.58 529.463 246.148 528.044 239.791C527.207 236.037 533.169 232.102 543.078 229.072C530.51 232.662 522.759 237.696 523.84 242.543C525.52 250.072 547.877 254.295 573.777 251.977C599.678 249.658 619.313 241.675 617.634 234.146C617.022 231.402 613.663 229.099 608.389 227.39Z" fill="#FFED78"/>
<path fill-rule="evenodd" clip-rule="evenodd" d="M830.206 133.284C830.699 131.538 836.983 130.562 844.244 131.104C845.643 131.209 846.976 131.362 848.213 131.554C847.478 131.465 846.714 131.39 845.926 131.331C839.407 130.844 833.786 131.642 833.37 133.112C832.956 134.583 837.905 136.17 844.424 136.657C849.844 137.062 854.642 136.577 856.345 135.557C855.238 137.107 849.281 137.938 842.461 137.429C835.201 136.887 829.714 135.031 830.206 133.284Z" fill="#FFED78"/>
<path d="M543.287 228.678C530.84 232.245 522.864 237.213 523.269 242.061C523.914 249.784 545.59 254.277 571.682 252.097C597.775 249.916 618.404 241.887 617.759 234.164C617.44 230.348 611.987 227.321 603.405 225.497" stroke="black"/>
<path d="M1013.15 99.6351L1019.18 92.72L1045.98 98.4837L1047.67 106.797L1053.69 107.896L1056 118.335L1062.54 119.428L1066.04 136.351L980.527 119.43L991.445 105.56L997.869 106.831L1005.49 98.1205L1013.15 99.6351Z" fill="#DCE6DE"/>
<path d="M1069 95.5635L1072.23 94.9814L1079.26 133.584L1074.74 132.673L1069 95.5635Z" fill="black"/>
<path d="M994.766 78.951L992.22 76.8722L969.256 114.986L973.935 115.947L994.766 78.951Z" fill="black"/>
<path d="M992.203 21.8381L1006.05 29.5683L1017.81 40.7385L1030.24 51.3914L1051.89 56.6518L1068.59 58.7724L1079.66 58.0364L1097.34 35.447L1107.91 34.7436L1105.5 53.0851L1115.04 52.4501L1123.98 59.2947L1124.64 69.1839L1121.26 73.0449L1107.41 81.8643L1122.95 98.5038L1110.72 103.19L1084.75 92.1251L1075.88 95.4564L1049.47 99.2339L1045.96 98.48L1019.17 92.7163L1015.04 91.8285L996.325 83.7815L971.632 52.6996L974.88 28.6469L972.092 17.116L978.851 9.39416L988.907 8.72509L992.203 21.8381Z" fill="#FFFF78"/>
<path d="M1084.76 92.1284L1100.72 86.1313L1107.42 81.8676L1122.96 98.5071L1110.73 103.193L1084.76 92.1284Z" fill="white"/>
<path d="M1090.7 56.9023L1079.64 57.6383L1097.32 35.0488L1107.89 34.3455L1105.47 52.6869L1090.7 56.9023Z" fill="white"/>
<path d="M972.097 17.1178L982.555 16.422L988.911 8.72688L978.856 9.39595L972.097 17.1178Z" fill="black"/>
<path d="M1123.98 59.2975L1115.05 52.4529L1115.85 64.5198L1124.64 69.1867L1123.98 59.2975Z" fill="black"/>
<path d="M1030.24 51.3951L1017.82 40.7423L1008.05 59.5728L1022.12 70.7565L1030.24 51.3951Z" fill="#FA673A"/>
<path d="M991.99 21.8841L988.984 9.32458L982.617 16.969L985.711 27.6182L991.99 21.8841Z" fill="#FFB195" fill-opacity="0.91"/>
<path d="M1095.28 71.1413L1074.77 78.5664L1075.89 95.4601L1084.76 92.1288L1100.72 86.1316L1095.28 71.1413Z" fill="#C1F174"/>
<path d="M974.88 28.6469L985.74 27.9243M974.88 28.6469L971.632 52.6996M974.88 28.6469L972.092 17.116M985.74 27.9243L992.203 21.8381M985.74 27.9243L993.809 45.9719M985.74 27.9243L982.55 16.4202M992.203 21.8381L1006.05 29.5683M992.203 21.8381L988.907 8.72509M1006.05 29.5683L1017.81 40.7385M1006.05 29.5683L993.809 45.9719M1017.81 40.7385L1030.24 51.3914M1017.81 40.7385L1008.05 59.569M1030.24 51.3914L1051.89 56.6518M1030.24 51.3914L1022.12 70.7527M1051.89 56.6518L1068.59 58.7724M1051.89 56.6518L1051.67 77.6748M1068.59 58.7724L1074.76 78.5627M1068.59 58.7724L1079.66 58.0364M1090.72 57.3004L1095.27 71.1376M1090.72 57.3004L1079.66 58.0364M1090.72 57.3004L1105.5 53.0851M1115.04 52.4501L1123.98 59.2947L1124.64 69.1839M1115.04 52.4501L1115.84 64.517M1115.04 52.4501L1105.5 53.0851M1124.64 69.1839L1121.26 73.0449L1107.41 81.8643M1124.64 69.1839L1115.84 64.517M1100.72 86.128L1095.27 71.1376M1100.72 86.128L1084.75 92.1251M1100.72 86.128L1107.41 81.8643M1075.88 95.4564L1049.47 99.2339M1075.88 95.4564L1074.76 78.5627M1075.88 95.4564L1084.75 92.1251M1049.47 99.2339L1051.67 77.6748M1049.47 99.2339L1045.96 98.48M1015.04 91.8285L996.325 83.7815M1015.04 91.8285L1022.12 70.7527M1015.04 91.8285L1019.17 92.7163M996.325 83.7815L971.632 52.6996M996.325 83.7815L1008.05 59.569M971.632 52.6996L993.809 45.9719M993.809 45.9719L1008.05 59.569M1008.05 59.569L1022.12 70.7527M1022.12 70.7527L1051.67 77.6748M1051.67 77.6748L1074.76 78.5627M1074.76 78.5627L1095.27 71.1376M1095.27 71.1376L1115.84 64.517M982.55 16.4202L972.092 17.116M982.55 16.4202L988.907 8.72509M972.092 17.116L978.851 9.39416L988.907 8.72509M1079.66 58.0364L1097.34 35.447L1107.91 34.7436L1105.5 53.0851M1084.75 92.1251L1110.72 103.19L1122.95 98.5038L1107.41 81.8643M1019.17 92.7163L1013.14 99.6314M1019.17 92.7163L1045.96 98.48M1013.14 99.6314L1047.66 106.794M1013.14 99.6314L1005.48 98.1168L997.858 106.827M1047.66 106.794L1045.96 98.48M1047.66 106.794L1053.68 107.892L1055.99 118.331M997.858 106.827L1055.99 118.331M997.858 106.827L991.434 105.556L980.516 119.427L1066.02 136.348L1062.53 119.424L1055.99 118.331" stroke="black"/>
<path d="M1028.59 65.0291L1019.16 92.7378L1046 98.4261L1048.76 68.9563C1049.06 65.8248 1047.41 62.8316 1044.6 61.4058C1041.9 60.0289 1038.87 59.4086 1035.84 59.6102L1035.64 59.6237C1032.41 59.8382 1029.63 61.9705 1028.59 65.0291Z" fill="black" stroke="black"/>
<path d="M232.154 156.922C232.862 158.691 224.059 163.88 212.491 168.512C200.922 173.145 190.97 175.466 190.262 173.697" stroke="black"/>
<path d="M183.762 188.434C184.349 190.097 190.295 189.651 198.901 187.608" stroke="black"/>
<path d="M198.698 168.413C195.76 169.749 193.836 170.967 192.631 171.938C191.597 172.771 192.218 173.912 193.54 173.778C205.083 172.603 222.732 163.698 230.636 159.059C214.366 168.399 204.093 169.193 200.229 168.311C199.717 168.194 199.176 168.196 198.698 168.413Z" fill="#FFEF78"/>
<path d="M289.961 85.5495C298.094 89.4338 322.006 92.0314 352.595 71.3476C383.184 50.6638 411.466 56.6602 421.784 62.2438C423.673 66.7514 425.902 73.9829 427.53 83.0457C428.312 83.3116 434.169 85.5495 443.633 85.5495C462.988 85.5495 476.771 80.4513 500.805 64.7928C520.032 52.266 548.144 54.718 559.797 57.5098C548.144 81.1068 554.942 124.149 559.797 142.721C552.514 141.629 524.11 147.455 503.354 156.923C482.597 166.391 460.748 172.582 421.784 175.131C390.612 177.17 384.276 163.842 385.004 156.923C384.946 152.051 385.903 140.674 390.197 134.139C370.255 137.753 358.057 147.091 350.956 151.461C340.34 157.994 317.454 161.839 300.885 156.923L289.961 85.5495Z" fill="white"/>
<path d="M402.846 150.004C415.373 153.5 422.631 148.547 424.695 145.634C425.909 139.808 422.656 129.029 399.933 132.524C396.322 133.08 393.099 133.612 390.195 134.138C385.901 140.673 384.944 152.051 385.002 156.923C385.731 153.16 390.319 146.508 402.846 150.004Z" fill="#FFCCCB"/>
<path d="M410.995 138.368C402.624 137.395 390.27 140.626 387 143.032C387 139.657 389.216 135.787 390.324 134.274L399.408 133.058C404.923 131.63 411.546 132.03 414.169 132.409C424.226 134.68 425.442 142.168 424.793 145.629L422.036 148.386C420.684 145.223 419.365 139.342 410.995 138.368Z" fill="black"/>
<path d="M424.697 145.634C422.633 148.548 415.375 153.5 402.848 150.004C390.321 146.508 385.733 153.16 385.004 156.923M424.697 145.634C431.471 122.302 430.507 99.6383 427.536 83.079M424.697 145.634C425.911 139.808 422.658 129.029 399.935 132.525C396.324 133.08 393.101 133.612 390.197 134.139M385.004 156.923C384.276 163.842 390.612 177.17 421.784 175.131C460.748 172.582 482.597 166.391 503.354 156.923C524.11 147.455 552.514 141.629 559.797 142.721C554.942 124.149 548.144 81.1068 559.797 57.5098C548.144 54.718 520.032 52.266 500.805 64.7928C476.771 80.4513 462.988 85.5495 443.633 85.5495C432.708 85.5495 426.59 82.5672 427.536 83.079M385.004 156.923C384.946 152.051 385.903 140.674 390.197 134.139M427.536 83.079C425.907 74.0006 423.675 66.757 421.784 62.2438C411.466 56.6602 383.184 50.6638 352.595 71.3476C322.006 92.0314 298.094 89.4338 289.961 85.5495L300.885 156.923C317.454 161.839 340.34 157.994 350.956 151.461C358.057 147.091 370.255 137.753 390.197 134.139" stroke="black"/>
<rect x="274.992" y="68.9033" width="13.1094" height="193.337" transform="rotate(-8.15259 274.992 68.9033)" fill="#D9D9D9" stroke="black"/>
<path d="M267.17 51.5415C266.244 45.0713 270.737 39.0748 277.207 38.1479C283.678 37.221 289.674 41.7147 290.601 48.1849L293.196 66.2971L269.765 69.6538L267.17 51.5415Z" fill="#D9D9D9" stroke="black"/>
<rect x="274.992" y="68.9033" width="13.1094" height="4.18774" transform="rotate(-8.15259 274.992 68.9033)" fill="black"/>
<path d="M308.088 257.524L301.848 257.594L298.974 259.739L301.106 270.26L318.674 268.622L320.168 258.17L315.232 256.033L308.088 257.524Z" fill="#FFFF78"/>
<path d="M326.081 249.257C326.39 252.918 318.141 256.604 307.656 257.491C297.171 258.377 288.42 256.128 288.111 252.467C287.919 250.197 291.02 247.916 295.905 246.3" stroke="black"/>
<path d="M517.544 116.392L516.703 109.93L536.709 107.326L537.55 113.788L517.544 116.392ZM529.931 90.9324L546.905 118.237L538.353 119.35L523.951 95.1739L526.273 94.8716L518.502 121.934L509.95 123.048L519.367 92.3076L529.931 90.9324Z" fill="black"/>
<path d="M477.383 114.887L487.857 112.945C489.136 112.708 490.079 112.228 490.687 111.507C491.294 110.786 491.5 109.901 491.306 108.852C491.106 107.778 490.596 107.026 489.776 106.596C488.951 106.141 487.899 106.031 486.62 106.269L475.032 108.417L477.896 103.957L482.841 130.623L474.898 132.096L469.562 103.319L486.637 100.153C488.836 99.7455 490.828 99.7863 492.612 100.276C494.392 100.74 495.87 101.577 497.047 102.787C498.219 103.972 498.978 105.498 499.325 107.366C499.661 109.182 499.497 110.866 498.833 112.418C498.168 113.97 497.088 115.281 495.593 116.352C494.099 117.423 492.251 118.163 490.052 118.57L478.464 120.719L477.383 114.887ZM482.185 116.814L491.125 115.157L503.943 126.71L494.735 128.418L482.185 116.814Z" fill="black"/>
<path d="M459.899 120.414L460.495 126.236L439.183 128.42L438.587 122.597L459.899 120.414ZM444.359 124.948L443.654 136.827L440.019 133.512L462.301 131.229L462.97 137.751L435.912 140.523L436.634 125.739L432.93 111.408L459.793 108.656L460.461 115.178L438.373 117.441L441.26 113.458L444.359 124.948Z" fill="black"/>
<path d="M424.333 105.701L421.852 106.227L423.639 79.4425L426.881 78.8093L428.337 86.942L429.358 97.2919L429.358 108.148L419.165 110.306L405.708 87.627L408.953 86.9399L405.804 113.135L395.649 115.285L380.844 88.5039L389.243 86.7256L401.733 110.487L399.281 110.966L402.261 83.9692L410.621 82.1989L424.333 105.701Z" fill="black"/>
<path d="M374.597 101.292L376.546 106.811L356.346 113.947L354.397 108.428L374.597 101.292ZM360.559 109.355L362.669 121.067L358.357 118.7L379.476 111.239L381.66 117.42L356.015 126.48L353.237 111.942L346.266 98.8848L371.727 89.8895L373.911 96.0709L352.975 103.467L354.844 98.9168L360.559 109.355Z" fill="black"/>
<path d="M338.139 124.595L335.73 125.427L332.549 101.522L340.324 100.487L344.185 129.498L334.089 130.842L314.163 109.205L316.533 108.377L319.777 132.747L312.002 133.782L308.141 104.771L318.507 103.391L338.139 124.595Z" fill="black"/>
</svg>
