<svg width="1919" height="1783" viewBox="0 0 1919 1783" fill="none" xmlns="http://www.w3.org/2000/svg">
<path d="M1515.78 26.5C1545.21 26.5001 1573.16 39.4002 1592.26 61.7949L1780.06 282.063H1829.85V340.452L1917.16 442.854L1917.67 443.451L1916.91 443.66L1829.85 467.765L1829.85 1341.23L1916.91 1365.34L1917.67 1365.55L1917.16 1366.15L1592.25 1747.21C1573.16 1769.6 1545.21 1782.5 1515.78 1782.5H459.776C430.346 1782.5 402.395 1769.6 383.3 1747.21L107.717 1423.99H104.127V1419.78L58.3979 1366.15L57.8892 1365.55L58.645 1365.34L104.127 1352.75V456.252L58.646 443.66L57.8901 443.451L58.3989 442.854L104.127 389.222V282.063H195.494L413.246 26.6758L413.396 26.5H1515.78Z" fill="black" stroke="black"/>
<path d="M1458.78 0.5C1488.21 0.500071 1516.16 13.4002 1535.26 35.7949L1723.06 256.063H1772.85V314.452L1860.16 416.854L1860.67 417.451L1859.91 417.66L1772.85 441.765L1772.85 1315.23L1859.91 1339.34L1860.67 1339.55L1860.16 1340.15L1535.25 1721.21C1516.16 1743.6 1488.21 1756.5 1458.78 1756.5H402.776C373.346 1756.5 345.395 1743.6 326.3 1721.21L50.7173 1397.99H47.1274V1393.78L1.39795 1340.15L0.88916 1339.55L1.64502 1339.34L47.1274 1326.75V430.252L1.646 417.66L0.890137 417.451L1.39893 416.854L47.1274 363.222V256.063H138.494L356.246 0.675781L356.396 0.5H1458.78Z" fill="#FDF2D4" stroke="black"/>
</svg>
