<svg width="375" height="1011" viewBox="0 0 375 1011" fill="none" xmlns="http://www.w3.org/2000/svg">
<path d="M336.102 7.29053C343.905 7.29053 351.286 10.835 356.165 16.9253L404.179 76.8638H416.908V92.7544L439.242 120.637L439.361 120.786L439.179 120.839L416.908 127.402V365.207L439.178 371.77L439.361 371.824L439.242 371.972L356.164 475.684C351.285 481.774 343.905 485.319 336.102 485.319H66.9736C59.1704 485.319 51.7897 481.774 46.9111 475.684L-23.5527 387.719H-24.4678V386.576L-36.166 371.972L-36.2852 371.824L-36.1025 371.77L-24.4678 368.34V124.268L-36.1025 120.839L-36.2852 120.786L-36.166 120.637L-24.4678 106.034V76.8638H-1.10254L54.5908 7.33838L54.6289 7.29053H336.102Z" fill="black" stroke="black" stroke-width="0.255785"/>
<path d="M321.43 0.12793C329.233 0.12793 336.615 3.67241 341.493 9.7627L389.507 69.7012H402.236V85.5918L424.57 113.475L424.689 113.623L424.507 113.677L402.236 120.239V358.044L424.506 364.607L424.689 364.661L424.57 364.81L341.492 468.521C336.614 474.612 329.233 478.156 321.43 478.156H52.3018C44.4985 478.156 37.1179 474.612 32.2393 468.521L-38.2246 380.557H-39.1396V379.413L-50.8379 364.81L-50.957 364.661L-50.7744 364.607L-39.1396 361.178V117.105L-50.7744 113.677L-50.957 113.623L-50.8379 113.475L-39.1396 98.8711V69.7012H-15.7744L39.9189 0.175781L39.957 0.12793H321.43Z" fill="#FDF2D4" stroke="black" stroke-width="0.255785"/>
<mask id="mask0_1948_42734" style="mask-type:alpha" maskUnits="userSpaceOnUse" x="-38" y="325" width="470" height="686">
<rect x="-38" y="325.91" width="470" height="684.281" fill="#D9D9D9"/>
</mask>
<g mask="url(#mask0_1948_42734)">
<path d="M314.451 -173.523C324.271 -173.523 332.984 -167.23 336.072 -157.908L380.28 -24.4661H391.533V9.49976L411.341 69.2908L411.367 69.3699L411.3 69.4187L391.533 83.5027V593.326L404.132 722.083L404.136 722.119L404.117 722.15L337.441 838.828C333.386 845.925 325.839 850.304 317.665 850.304H86.9541C77.1349 850.304 68.4211 844.011 65.333 834.69L1.23242 641.203H0.449219V638.839L-9.93555 607.491L-9.96191 607.412L-9.89355 607.363L0.449219 599.992V76.7878L-9.89355 69.4187L-9.96191 69.3699L-9.93555 69.2908L0.449219 37.9421V-24.4661H21.125L70.4805 -173.445L70.5059 -173.523H314.451Z" fill="black" stroke="black" stroke-width="0.22664"/>
<path d="M301.451 -188.868C311.271 -188.868 319.984 -182.575 323.072 -173.254L367.28 -39.8115H378.533V-5.8457L398.341 53.9453L398.367 54.0244L398.3 54.0732L378.533 68.1572V739.401L378.516 739.43L324.59 824.388C320.412 830.97 313.156 834.959 305.359 834.959H68.1299C61.4119 834.959 55.0367 831.993 50.709 826.854L-22.915 739.441L-22.9453 739.405L-22.9414 739.358L-12.5508 625.734V623.493L-22.9355 592.146L-22.9619 592.066L-22.8936 592.018L-12.5508 584.647V61.4424L-22.8936 54.0732L-22.9619 54.0244L-22.9355 53.9453L-12.5508 22.5967V-39.8115H8.125L57.4805 -188.79L57.5059 -188.868H301.451Z" fill="#FDF2D4" stroke="black" stroke-width="0.22664"/>
</g>
</svg>
