<svg width="1154" height="962" viewBox="0 0 1154 962" fill="none" xmlns="http://www.w3.org/2000/svg">
<path fill-rule="evenodd" clip-rule="evenodd" d="M488.529 217.14L362.719 81.3301L481.369 221.41C483.719 219.94 486.109 218.51 488.539 217.15L488.529 217.14Z" fill="black"/>
<path fill-rule="evenodd" clip-rule="evenodd" d="M518.999 203.47L426.879 37.04L511.029 206.41C513.659 205.37 516.319 204.39 518.999 203.47Z" fill="black"/>
<path fill-rule="evenodd" clip-rule="evenodd" d="M550.13 195.79L499.77 9.39014L541.68 197.3C544.47 196.73 547.29 196.23 550.13 195.79Z" fill="black"/>
<path fill-rule="evenodd" clip-rule="evenodd" d="M433.729 264.99L274.789 208.72L429.209 271.24C430.669 269.12 432.179 267.04 433.729 264.99Z" fill="black"/>
<path fill-rule="evenodd" clip-rule="evenodd" d="M413.179 299.95L256.129 284.41L410.419 306.63C411.299 304.38 412.209 302.15 413.179 299.94V299.95Z" fill="black"/>
<path fill-rule="evenodd" clip-rule="evenodd" d="M459.609 237.45L311.02 139.68L453.609 242.85C455.569 241 457.57 239.2 459.62 237.44L459.609 237.45Z" fill="black"/>
<path fill-rule="evenodd" clip-rule="evenodd" d="M578.699 193.59C579.619 193.59 580.539 193.61 581.459 193.62L577.159 0L572.859 193.69C574.799 193.63 576.749 193.59 578.709 193.59H578.699Z" fill="black"/>
<path fill-rule="evenodd" clip-rule="evenodd" d="M702.457 241.59L843.297 139.68L696.457 236.29C698.497 238.01 700.497 239.78 702.457 241.59Z" fill="black"/>
<path fill-rule="evenodd" clip-rule="evenodd" d="M727.517 270.26L879.527 208.71L723.027 264.12C724.567 266.13 726.067 268.18 727.517 270.26Z" fill="black"/>
<path fill-rule="evenodd" clip-rule="evenodd" d="M612.769 196.74L654.549 9.3999L604.309 195.36C607.149 195.75 609.969 196.21 612.769 196.73V196.74Z" fill="black"/>
<path fill-rule="evenodd" clip-rule="evenodd" d="M744.09 299.65C745.04 301.81 745.95 304 746.82 306.21L898.19 284.41L744.1 299.66L744.09 299.65Z" fill="black"/>
<path fill-rule="evenodd" clip-rule="evenodd" d="M674.008 220.16L791.598 81.3301L666.828 216.01C669.258 217.34 671.648 218.72 673.998 220.16H674.008Z" fill="black"/>
<path fill-rule="evenodd" clip-rule="evenodd" d="M643.799 205.41L727.449 37.0498L635.809 202.6C638.499 203.48 641.159 204.41 643.799 205.41Z" fill="black"/>
<path d="M939.122 304.25H236.332V543.18H939.122V304.25Z" fill="#FFCCCB"/>
<path d="M236.332 492.49V304.25H939.382V497.71" stroke="black" stroke-width="2" stroke-miterlimit="10"/>
<path d="M757.789 305.35H644.379" stroke="black" stroke-width="3"/>
<path d="M509.629 305.35H408.129" stroke="black" stroke-width="3"/>
<path d="M579.351 513.26C675.902 513.26 754.171 441.433 754.171 352.83C754.171 264.227 675.902 192.4 579.351 192.4C482.801 192.4 404.531 264.227 404.531 352.83C404.531 441.433 482.801 513.26 579.351 513.26Z" fill="url(#paint0_linear_3182_404)"/>
<path d="M569.53 433.51L500.79 441.76L498.73 435.87L488.52 425.66L485.97 415.84L484.89 410.63L479 411.32L468.49 407.88L458.18 401.99L451.109 394.92L445.81 385.49L442.77 373.31L443.56 360.64L447.1 350.92L452.7 343.36L461.34 335.41L472.14 330.79L483.14 329.32L494.24 331.78L495.91 325L504.95 310.86L515.07 299.66L522.83 292.69L536.88 284.05L553.28 277.37L571.84 274.72L584.42 275.21L597.77 276.59L612.2 281.7L624.58 288.18L637.049 297.8L646.77 307.43L656.89 322.36L659.35 330.22L670.84 329.73L680.16 330.22L690.09 334.35L698.43 339.95L706.49 350.07L710.7 362.74L711.29 374.23L708.54 386.31L703.04 394.95L697.049 401.53L684.68 407.23L666.609 409.98L659.93 431.59L647.75 439.84L569.57 433.55L569.53 433.51Z" fill="#F1CFBE"/>
<path d="M569.192 433.55L500.442 441.8L498.382 435.91L488.172 425.7L485.622 415.88L484.542 410.67L478.652 411.36L468.142 407.92L457.832 402.03L450.762 394.96L445.462 385.53L442.422 373.35L443.212 360.68L446.752 350.96L452.352 343.4L460.992 335.44L471.792 330.83L482.792 329.36L493.892 331.82L495.562 325.04L504.602 310.9L514.722 299.7L522.482 292.73L536.522 284.09L552.932 277.41L571.492 274.76L584.062 275.25L597.422 276.62L611.852 281.73L624.222 288.21L636.702 297.84L646.422 307.46L656.532 322.39L658.992 330.25L670.482 329.76L679.812 330.25L689.742 334.37L698.082 339.97L706.132 350.09L710.352 362.76L710.942 374.25L708.192 386.33L702.682 394.97L696.702 401.55L684.322 407.25L666.262 410L659.582 431.61L647.402 439.86L569.222 433.57L569.192 433.55Z" fill="#F1CFBE"/>
<path d="M513.44 426.75L515.6 438.61L538.23 436.45L575.95 434.83L640.08 438.6V414.35L636.31 401.42L630.92 386.87V382.02L634.15 376.63L641.16 370.7L646.55 361.54L649.24 349.68V338.9L646.55 327.04L641.16 318.42L634.15 309.26L622.29 302.79L607.74 300.63H595.88L585.64 305.48L577.56 309.25L568.94 305.48L559.24 300.63H547.92L532.83 302.79L521.51 309.26L513.43 317.34L508.58 327.04L503.73 342.13L506.96 359.37L513.43 372.3L524.21 382V386.85L518.82 400.32L515.59 412.71L513.43 426.72L513.44 426.75Z" fill="#FDF2D4"/>
<path d="M661.96 365.32L658.19 387.95C657.25 393.55 661.04 395.67 663.04 396.03H671.12L683.51 391.72L688.36 386.87L694.83 377.71L695.91 369.09L694.83 361.55L691.6 354.54L687.29 351.85L680.28 349.69H674.35L666.81 354.54L661.96 365.32Z" fill="#FDF2D4"/>
<path d="M492.231 365.32L496.001 387.95C496.931 393.55 493.161 395.67 491.151 396.03H483.071L470.681 391.72L465.831 386.87L459.361 377.71L458.281 369.09L459.361 361.55L462.591 354.54L466.901 351.85L473.911 349.69H479.841L487.381 354.54L492.231 365.32Z" fill="#FDF2D4"/>
<path d="M641.741 484.65L753.731 498.75L742.951 472.12C734.331 452.85 715.351 444.9 706.931 443.34L670.901 439.62L632.331 435.9L597.671 433.55H548.731L503.111 438.45L445.351 443.74L434.971 447.85L424.401 454.31L416.961 462.53L412.261 471.34L406.581 486.02L405.211 498.75L494.491 484.65H641.731H641.741Z" fill="white"/>
<path d="M284.77 481.52L370.92 489.35L351.93 507.95L287.12 521.26L278.31 525.18L299.06 543.98L312.18 567.28L325.49 595.67L330.78 611.53C333.29 628.92 317.86 638.09 309.83 640.51C290.72 646.93 277.85 633.27 273.8 625.63L269.88 602.53C266.75 589.69 260.61 591.57 257.94 594.11C246.66 602.26 236.27 624.13 232.49 634.05L230.34 644.23V653.43L235.23 669.09C237.71 672.61 243.18 681.78 245.22 690.24C247.26 698.7 239.41 707.6 235.23 710.99C227.71 717.26 210.3 716.99 202.53 716.08L199.79 723.32L189.02 731.15C171.32 738.82 154.76 732.39 148.69 728.21L135.18 737.02L117.17 735.84L108.74 727.03L103.45 713.13H96.0097L88.5097 711.88C57.3797 700.28 92.6797 623.85 117.16 589.01L119.5 581.75C138.92 510.95 237.76 485.42 284.75 481.5L284.77 481.52Z" fill="white"/>
<path d="M869.64 481.52L783.48 489.35L802.47 507.95L867.28 521.26L876.09 525.18L855.33 543.98L842.21 567.28L828.9 595.67L823.61 611.53C821.1 628.92 836.52 638.09 844.56 640.51C863.67 646.93 876.54 633.27 880.58 625.63L884.5 602.53C887.63 589.69 893.76 591.57 896.44 594.11C907.72 602.26 918.11 624.13 921.9 634.05L924.05 644.23V653.43L919.16 669.09C916.68 672.61 911.21 681.78 909.17 690.24C907.14 698.7 914.98 707.6 919.16 710.99C926.67 717.26 944.08 716.99 951.85 716.08L954.59 723.32L965.37 731.15C983.06 738.82 999.631 732.39 1005.7 728.21L1019.21 737.02L1037.22 735.85L1045.64 727.04L1050.93 713.14H1058.37L1065.87 711.89C1097 700.29 1061.7 623.86 1037.22 589.02L1034.88 581.76C1015.46 510.96 916.62 485.43 869.63 481.51L869.64 481.52Z" fill="white"/>
<path d="M374.59 477.55C397.77 482.58 411.83 471.59 416.21 465.54L402.35 492.91H389.68L374.6 477.55H374.59Z" fill="black"/>
<path d="M963.141 280.59H939.121V304.61H963.141V280.59Z" fill="black" stroke="black" stroke-width="2" stroke-miterlimit="10"/>
<path d="M753.49 352.08C753.49 388.25 740.22 421.6 717.88 448.32C713.11 446.17 707.94 444.77 702.54 444.24C687.64 442.8 668.94 441.07 650.03 439.52H650.02C646.1 439.2 642.17 438.89 638.27 438.59C614.72 436.79 576.94 435.42 576.94 435.42C562.21 435.42 539.43 436.77 516.03 438.56C511.63 438.9 507.19 439.25 502.77 439.61C484.23 441.13 465.96 442.83 451.34 444.24C447.06 444.66 442.92 445.62 439.01 447.08C417.29 420.58 404.43 387.69 404.43 352.08C404.43 264.28 482.57 193.1 578.96 193.1C675.35 193.1 753.49 264.28 753.49 352.08Z" stroke="black" stroke-width="2.54" stroke-miterlimit="10" stroke-linecap="round"/>
<path d="M602.571 363.33C600.371 359.88 599.031 355.26 599.031 350.18C599.031 339.5 604.981 330.84 612.321 330.84C619.661 330.84 625.611 339.5 625.611 350.18C625.611 353.82 624.921 357.23 623.721 360.13" stroke="black" stroke-width="2.49" stroke-miterlimit="10" stroke-linecap="round"/>
<path d="M608.359 367.12C613.407 367.12 617.499 360.217 617.499 351.7C617.499 343.184 613.407 336.28 608.359 336.28C603.311 336.28 599.219 343.184 599.219 351.7C599.219 360.217 603.311 367.12 608.359 367.12Z" fill="black" stroke="black" stroke-width="1.84" stroke-miterlimit="10"/>
<path d="M550.821 363.33C553.021 359.88 554.361 355.26 554.361 350.18C554.361 339.5 548.411 330.84 541.071 330.84C533.731 330.84 527.781 339.5 527.781 350.18C527.781 353.82 528.471 357.23 529.671 360.13" stroke="black" stroke-width="2.49" stroke-miterlimit="10" stroke-linecap="round"/>
<path d="M545.019 367.12C550.067 367.12 554.159 360.217 554.159 351.7C554.159 343.184 550.067 336.28 545.019 336.28C539.971 336.28 535.879 343.184 535.879 351.7C535.879 360.217 539.971 367.12 545.019 367.12Z" fill="black" stroke="black" stroke-width="1.84" stroke-miterlimit="10"/>
<path d="M593.959 371.44C594.779 373.37 593.879 375.59 591.949 376.41C590.019 377.23 581.589 379.65 580.779 377.72C579.969 375.79 587.069 370.24 588.999 369.42C590.929 368.6 593.149 369.5 593.969 371.43L593.959 371.44Z" fill="black" stroke="black" stroke-width="1.71" stroke-miterlimit="10"/>
<path d="M560.362 371.44C559.542 373.37 560.442 375.59 562.372 376.41C564.302 377.23 572.732 379.65 573.542 377.72C574.362 375.79 567.252 370.24 565.322 369.42C563.392 368.6 561.172 369.5 560.352 371.43L560.362 371.44Z" fill="black" stroke="black" stroke-width="1.71" stroke-miterlimit="10"/>
<path d="M616.541 393.76C607.151 402.2 592.461 407.63 575.931 407.63C559.401 407.63 546.101 402.7 536.691 394.93" stroke="black" stroke-width="2.49" stroke-miterlimit="10" stroke-linecap="round"/>
<path d="M630.902 387.79C637.312 397.96 640.902 410.08 640.602 423.05C640.482 428.42 639.672 433.62 638.272 438.59C614.722 436.79 591.752 435.42 576.942 435.42C562.212 435.42 539.432 436.77 516.032 438.56C514.512 433.14 513.712 427.44 513.712 421.54C513.712 409.2 517.232 397.69 523.332 387.95C525.442 384.57 524.702 380.15 521.552 377.7C511.182 369.63 504.512 357.04 504.512 342.88C504.512 318.54 524.252 298.8 548.602 298.8C557.792 298.8 566.342 301.62 573.412 306.44C575.582 307.92 578.412 307.91 580.582 306.43C588.282 301.18 597.732 298.31 607.872 298.87C630.222 300.11 648.312 318.3 649.412 340.66C650.142 355.59 643.442 369 632.692 377.5C629.542 379.98 628.762 384.4 630.902 387.79Z" stroke="black" stroke-width="2.49" stroke-miterlimit="10" stroke-linecap="round"/>
<path d="M710.83 368.53C710.83 391.12 692.51 409.44 669.92 409.44C669.39 409.44 668.85 409.43 668.32 409.41C667.52 421.87 663.29 432.24 650.03 439.52H650.02C646.1 439.2 642.17 438.89 638.27 438.59C614.72 436.79 591.75 435.42 576.94 435.42C562.21 435.42 539.43 436.77 516.03 438.56C511.63 438.9 507.19 439.25 502.77 439.61C489.36 432.34 485.4 421.94 484.92 409.43C484.56 409.44 484.2 409.44 483.84 409.44C461.25 409.44 442.93 391.12 442.93 368.53C442.93 345.94 461.25 327.61 483.84 327.61C487.5 327.61 491.05 328.09 494.42 328.99C507.55 296.26 539.57 273.15 576.99 273.15C614.41 273.15 646.4 296.24 659.53 328.94C662.85 328.07 666.33 327.61 669.92 327.61C692.51 327.61 710.83 345.93 710.83 368.53Z" stroke="black" stroke-width="2.49" stroke-miterlimit="10" stroke-linecap="round"/>
<path d="M748.33 488.93C748.33 488.93 839.84 436.07 967.11 510.27L911.1 493.04L876.09 494.63L830.33 514.29L822.72 522.41L753.21 501.14L748.32 488.92L748.33 488.93Z" fill="black"/>
<path d="M487.1 395.19C471.52 395.19 458.84 382.51 458.84 366.93C458.84 364.33 459.19 361.82 459.85 359.43C464.39 342.97 488.13 344.03 491.38 360.79L496.36 386.5" stroke="black" stroke-width="2.49" stroke-miterlimit="10" stroke-linecap="round"/>
<path d="M474.559 375.23C473.299 370.08 476.449 364.89 481.599 363.62C486.749 362.36 491.939 365.51 493.209 370.66" stroke="black" stroke-width="2.49" stroke-miterlimit="10" stroke-linecap="round"/>
<path d="M666.662 395.19C682.242 395.19 694.922 382.51 694.922 366.93C694.922 364.33 694.572 361.82 693.912 359.43C689.372 342.97 665.632 344.03 662.382 360.79L657.402 386.5" stroke="black" stroke-width="2.49" stroke-miterlimit="10" stroke-linecap="round"/>
<path d="M679.201 375.23C680.461 370.08 677.311 364.89 672.161 363.62C667.011 362.36 661.821 365.51 660.551 370.66" stroke="black" stroke-width="2.49" stroke-miterlimit="10" stroke-linecap="round"/>
<path d="M755.169 508.77H398.699L410.029 476.59C414.899 462.74 425.649 452.05 439.009 447.08C442.919 445.62 447.059 444.66 451.339 444.24C465.959 442.83 484.229 441.13 502.769 439.61C507.189 439.25 511.629 438.9 516.029 438.56C539.429 436.77 562.209 435.42 576.939 435.42C591.759 435.42 614.719 436.79 638.269 438.59C642.169 438.89 646.099 439.2 650.019 439.52H650.029C668.939 441.07 687.639 442.8 702.539 444.24C707.939 444.77 713.109 446.17 717.879 448.32C729.829 453.71 739.339 463.8 743.839 476.59L755.169 508.77Z" stroke="black" stroke-width="2.49" stroke-miterlimit="10" stroke-linecap="round"/>
<path d="M576.51 477.85C582.629 477.85 587.59 471.08 587.59 462.73C587.59 454.379 582.629 447.61 576.51 447.61C570.39 447.61 565.43 454.379 565.43 462.73C565.43 471.08 570.39 477.85 576.51 477.85Z" fill="black" stroke="black" stroke-width="2.49" stroke-miterlimit="10" stroke-linecap="round"/>
<path d="M436.442 305.35C435.452 305.35 434.442 305.14 433.482 304.69C429.982 303.05 428.472 298.89 430.112 295.38C439.942 274.36 455.372 255.43 474.742 240.62C477.812 238.27 482.202 238.86 484.552 241.93C486.902 245 486.312 249.39 483.242 251.74C465.662 265.19 451.672 282.33 442.792 301.31C441.602 303.85 439.082 305.35 436.442 305.35Z" fill="white" stroke="black" stroke-width="2" stroke-miterlimit="10"/>
<path d="M456.073 398.26L466.593 386.12C466.593 386.12 476.413 394.76 490.163 393.55C490.163 393.55 496.932 416.88 513.932 409.59C513.932 409.59 512.443 435.96 516.023 438.56L502.763 439.61C502.763 439.61 481.793 429.09 484.913 409.43C484.913 409.43 469.972 411.06 456.062 398.26H456.073Z" fill="black"/>
<path d="M697.141 398.26L686.621 386.12C686.621 386.12 676.801 394.76 663.051 393.55C663.051 393.55 656.281 416.88 639.281 409.59C639.281 409.59 640.771 435.96 637.191 438.56L650.451 439.61C650.451 439.61 671.421 429.09 668.301 409.43C668.301 409.43 683.241 411.06 697.151 398.26H697.141Z" fill="black"/>
<path d="M477.311 328.46C477.311 328.46 490.071 332.61 495.111 340.62L496.591 326.08L494.411 328.99L477.301 328.46H477.311Z" fill="black"/>
<path d="M676.991 328.46C676.991 328.46 664.231 332.61 659.191 340.62L657.711 326.08L659.891 328.99L677.001 328.46H676.991Z" fill="black"/>
<path d="M497.27 242.25C501.964 242.25 505.77 238.444 505.77 233.75C505.77 229.056 501.964 225.25 497.27 225.25C492.575 225.25 488.77 229.056 488.77 233.75C488.77 238.444 492.575 242.25 497.27 242.25Z" fill="white" stroke="black" stroke-width="2" stroke-miterlimit="10"/>
<path d="M576.509 468.9C582.054 468.9 586.549 464.136 586.549 458.26C586.549 452.384 582.054 447.62 576.509 447.62C570.964 447.62 566.469 452.384 566.469 458.26C566.469 464.136 570.964 468.9 576.509 468.9Z" fill="white" stroke="black" stroke-width="2.54" stroke-miterlimit="10" stroke-linecap="round"/>
<path d="M400.781 501.13L405.491 489.56C405.491 489.56 595.781 451.1 747.771 493.61L755.821 516.25L572.681 509.94L465.101 521.81L400.781 501.14V501.13Z" fill="black" stroke="black" stroke-width="2.49" stroke-miterlimit="10" stroke-linecap="round"/>
<path d="M815.371 521.38C842.711 494.17 893.421 484.7 944.281 500.73C995.591 516.91 1031.9 554.26 1038.23 592.59" stroke="black" stroke-width="2.54" stroke-miterlimit="10" stroke-linecap="round"/>
<path d="M576.99 489.42C689.39 489.42 794.29 502.57 882.99 525.32L878.24 525.56L855.46 546.77L840.53 571.12L839.16 577.4L827.18 602.54C824.5 608.69 820.74 622.89 827.18 630.43C833.62 637.97 832.48 636.58 831.11 634.95C836.08 639.47 849.26 647.36 862.13 642.81C878.24 637.12 881.18 630.44 880.59 627.49C880.13 625.13 884.46 606.87 886.68 598.03L898.86 596.07L909.08 609.42L916.74 622.38L920.66 631.41L924 641.23C925.44 645.68 926.24 658.4 917.91 673.63C909.59 688.87 909.86 697.65 911.04 700.14L917.91 711.53C923.28 715.26 937.87 721.78 953.26 718.01C956.27 726.13 967.71 741.22 989.39 736.67C992.34 736.73 999.99 735.26 1007.07 728.81C1011.52 735.22 1024.82 745.31 1042.41 734.31C1044.71 732.54 1050 725.83 1052.82 713.1C1060.61 716.11 1076.74 716.91 1078.94 696.01C1078.81 680.56 1070.77 638.47 1039.66 593.69V589.57L1064.8 605.67L1088.37 621.97L1107.02 637.88L1121.94 653.2L1133.34 666.75L1144.33 682.46L1144.31 682.25C1150.66 696.26 1153.96 710.71 1153.96 725.47C1153.96 855.84 895.64 961.53 576.98 961.53C258.32 961.53 0 855.84 0 725.47C0 711.78 2.84999 698.36 8.31999 685.31L7.85001 694.05C27.02 649.12 85.75 608.56 112.72 593.89L106.83 603.71L95.05 624.53L86.41 646.92C84.18 650.45 78.79 662.87 75.02 684.23C71.25 705.6 81.04 713.03 86.41 714.08H101.73L105.27 727.04L109.98 732.54C125.06 746.05 140.35 736.6 146.11 730.18C170.93 744.63 189.71 734.11 195.99 727.04L202.67 718.4C236.92 723.43 245.22 700.86 245.09 688.94C231.58 671.34 228.72 653.59 228.99 646.91C229.93 633.08 241.95 612.35 247.84 603.7L258.45 593.88L267.09 599.38L272.2 624.52C275.97 640.86 292.89 644.16 300.87 643.77C325.38 642.51 330.98 624.92 330.72 616.28L324.04 595.86L314.22 573.86L303.22 552.65L280.05 528.3L273.47 524.68C361.64 502.32 465.63 489.42 576.99 489.42Z" fill="#FFFF78"/>
<path d="M872.222 528.7C871.802 528.97 871.392 529.29 870.982 529.63C846.872 547.18 843.322 567.96 834.382 585.34C824.022 605.48 816.962 623.61 831.942 635.36C850.492 649.91 877.432 643.24 881.132 623.25C884.832 603.28 885.282 590.91 899.292 598.29C912.902 610.77 926.922 641.11 924.272 653.53C921.632 665.95 916.592 674.96 910.162 686.02C903.832 696.9 914.432 723.57 952.072 717.45C952.072 717.45 949.502 729.57 973.652 735.55C992.662 740.25 1006.33 728.61 1006.33 728.61C1006.33 728.61 1013.07 742.93 1035.43 736.89C1047.65 733.59 1051.33 713.73 1051.33 713.73C1051.33 713.73 1070.12 718.5 1076.13 703.83C1082.15 689.16 1072.86 664.42 1068.16 650.05C1054.78 609.2 1035.02 585 1013.13 567.81C973.922 537.01 903.272 508.49 872.232 528.69L872.222 528.7Z" stroke="black" stroke-width="2.54" stroke-miterlimit="10" stroke-linecap="round"/>
<path d="M911.34 611.28L893.89 582.9L890.21 578.13L882.82 607.42C882.82 607.42 887.71 597.57 892 596.32C900.05 593.97 911.35 611.28 911.35 611.28H911.34Z" fill="black"/>
<path d="M952.082 717.46L966.642 690.13C975.122 674.2 978.062 655.91 974.982 638.13L963.002 596.63" stroke="black" stroke-width="2.54" stroke-miterlimit="10" stroke-linecap="round"/>
<path d="M1005.47 728.98L1020.03 701.65C1028.51 685.72 1031.45 667.43 1028.37 649.65L1016.39 608.15" stroke="black" stroke-width="2.54" stroke-miterlimit="10" stroke-linecap="round"/>
<path d="M924.281 653.53C924.281 653.53 961.421 632.36 975.241 657.02" stroke="black" stroke-width="2.54" stroke-miterlimit="10" stroke-linecap="round"/>
<path d="M974.652 669.98C974.652 669.98 1013.99 647.56 1028.64 673.68" stroke="black" stroke-width="2.54" stroke-miterlimit="10" stroke-linecap="round"/>
<path d="M916.469 620.04C916.469 620.04 956.179 597.41 970.969 623.78" stroke="black" stroke-width="2.54" stroke-miterlimit="10" stroke-linecap="round"/>
<path d="M974.82 635.94C974.82 635.94 1010.05 612.45 1025.71 640.39" stroke="black" stroke-width="2.54" stroke-miterlimit="10" stroke-linecap="round"/>
<path d="M830.441 594.57C830.441 594.57 861.621 576.27 883.801 607.85" stroke="black" stroke-width="2.54" stroke-miterlimit="10" stroke-linecap="round"/>
<path d="M841.051 570.9C841.051 570.9 869.371 550.38 891.551 581.95" stroke="black" stroke-width="2.54" stroke-miterlimit="10" stroke-linecap="round"/>
<path d="M583.051 474.93C581.221 476.76 578.961 477.85 576.511 477.85C574.061 477.85 571.721 476.73 569.871 474.83" stroke="white" stroke-width="2.49" stroke-miterlimit="10" stroke-linecap="round"/>
<path d="M841.379 504.53L888.019 522.41L877.119 526.76L818.449 511.51L824.139 506.82L841.379 504.53Z" fill="black"/>
<path d="M877.122 526.76C877.122 526.76 853.322 551.87 852.622 564.92L841.602 569.47L853.832 545.84L863.982 535.65L870.982 529.64L877.122 526.77V526.76Z" fill="black"/>
<path d="M1005.52 562.32C1005.52 562.32 1033.33 579.43 1030.87 570.78L1036.06 582.14L1036.98 590.3L1023.06 575.4L1005.52 562.32Z" fill="black"/>
<path d="M1051.31 713.85L1057.39 683.48C1060.93 665.79 1058.48 647.42 1050.41 631.28" stroke="black" stroke-width="2.54" stroke-miterlimit="10" stroke-linecap="round"/>
<path d="M1026.24 686.24C1026.24 686.24 1052.14 659.58 1057.26 682.7" stroke="black" stroke-width="2.54" stroke-miterlimit="10" stroke-linecap="round"/>
<path d="M1055.35 695.42C1055.35 695.42 1076.46 667.25 1078.18 689.3" stroke="black" stroke-width="2.54" stroke-miterlimit="10" stroke-linecap="round"/>
<path d="M1058.99 661.29C1058.99 661.29 1067.61 645.2 1073.6 666.37" stroke="black" stroke-width="2.54" stroke-miterlimit="10" stroke-linecap="round"/>
<path d="M1028.71 651.5C1028.71 651.5 1050.26 632.71 1056.99 650.2" stroke="black" stroke-width="2.54" stroke-miterlimit="10" stroke-linecap="round"/>
<path d="M1067.58 712.21C1067.58 712.21 1053.95 707.52 1055.61 696.06L1051.33 713.74L1058.21 715.51L1067.59 712.21H1067.58Z" fill="black"/>
<path d="M1020 736.79C1020 736.79 1007.82 729.07 1012.09 718.31L1006.33 728.62L1011.29 734.69L1020 736.79Z" fill="black"/>
<path d="M963.482 698.16C963.482 698.16 953.322 726.28 967.642 732.6L960.912 730.77L954.262 724.41L952.172 717.87L956.152 710.01L963.482 698.17V698.16Z" fill="black"/>
<path d="M922.601 663.32C922.601 663.32 908.371 703.74 923.141 713.61L912.811 706.27L909.481 697.61L908.891 691.18L910.171 686.02L922.601 663.32Z" fill="black"/>
<path d="M405.151 488.93C405.151 488.93 313.641 436.07 186.371 510.27L242.381 493.04L277.391 494.63L323.151 514.29L326.411 514.01L400.261 501.14L405.151 488.92V488.93Z" fill="black"/>
<path d="M327.29 512.35C298.59 492.26 253.95 486.62 209.2 500.73C157.89 516.91 121.58 554.26 115.25 592.59" stroke="black" stroke-width="2.54" stroke-miterlimit="10" stroke-linecap="round"/>
<path d="M281.259 528.7C281.679 528.97 282.089 529.29 282.499 529.63C306.609 547.18 310.159 567.96 319.099 585.34C329.459 605.48 336.519 623.61 321.539 635.36C302.989 649.91 276.049 643.24 272.349 623.25C268.649 603.28 268.199 590.91 254.189 598.29C240.579 610.77 226.559 641.11 229.209 653.53C231.849 665.95 236.889 674.96 243.319 686.02C249.649 696.9 239.049 723.57 201.409 717.45C201.409 717.45 203.979 729.57 179.829 735.55C160.819 740.25 147.149 728.61 147.149 728.61C147.149 728.61 140.409 742.93 118.049 736.89C105.829 733.59 102.149 713.73 102.149 713.73C102.149 713.73 83.3591 718.5 77.3491 703.83C71.3291 689.16 80.6191 664.42 85.3191 650.05C98.6991 609.2 118.459 585 140.349 567.81C179.559 537.01 250.209 508.49 281.249 528.69L281.259 528.7Z" stroke="black" stroke-width="2.54" stroke-miterlimit="10" stroke-linecap="round"/>
<path d="M242.151 611.28L259.601 582.9L263.281 578.13L270.671 607.42C270.671 607.42 265.781 597.57 261.491 596.32C253.441 593.97 242.141 611.28 242.141 611.28H242.151Z" fill="black"/>
<path d="M201.41 717.46L186.85 690.13C178.37 674.2 175.43 655.91 178.51 638.13L190.49 596.63" stroke="black" stroke-width="2.54" stroke-miterlimit="10" stroke-linecap="round"/>
<path d="M148.02 728.98L133.46 701.65C124.98 685.72 122.04 667.43 125.12 649.65L137.1 608.15" stroke="black" stroke-width="2.54" stroke-miterlimit="10" stroke-linecap="round"/>
<path d="M229.21 653.53C229.21 653.53 192.07 632.36 178.25 657.02" stroke="black" stroke-width="2.54" stroke-miterlimit="10" stroke-linecap="round"/>
<path d="M178.842 669.98C178.842 669.98 139.502 647.56 124.852 673.68" stroke="black" stroke-width="2.54" stroke-miterlimit="10" stroke-linecap="round"/>
<path d="M237.02 620.04C237.02 620.04 197.31 597.41 182.52 623.78" stroke="black" stroke-width="2.54" stroke-miterlimit="10" stroke-linecap="round"/>
<path d="M178.66 635.94C178.66 635.94 143.43 612.45 127.77 640.39" stroke="black" stroke-width="2.54" stroke-miterlimit="10" stroke-linecap="round"/>
<path d="M323.051 594.57C323.051 594.57 291.871 576.27 269.691 607.85" stroke="black" stroke-width="2.54" stroke-miterlimit="10" stroke-linecap="round"/>
<path d="M312.441 570.9C312.441 570.9 284.121 550.38 261.941 581.95" stroke="black" stroke-width="2.54" stroke-miterlimit="10" stroke-linecap="round"/>
<path d="M312.109 504.53L265.469 522.41L281.179 527.39L335.339 514.15L329.339 506.82L312.109 504.53Z" fill="black"/>
<path d="M276.371 526.76C276.371 526.76 300.171 551.87 300.871 564.92L311.891 569.47L299.661 545.84L289.511 535.65L282.511 529.64L276.371 526.77V526.76Z" fill="black"/>
<path d="M147.972 562.32C147.972 562.32 120.162 579.43 122.622 570.78L117.432 582.14L116.512 590.3L130.432 575.4L147.972 562.32Z" fill="black"/>
<path d="M102.17 713.85L96.0905 683.48C92.5505 665.79 95.0004 647.42 103.07 631.28" stroke="black" stroke-width="2.54" stroke-miterlimit="10" stroke-linecap="round"/>
<path d="M127.25 686.24C127.25 686.24 101.35 659.58 96.2305 682.7" stroke="black" stroke-width="2.54" stroke-miterlimit="10" stroke-linecap="round"/>
<path d="M98.1425 695.42C98.1425 695.42 77.0325 667.25 75.3125 689.3" stroke="black" stroke-width="2.54" stroke-miterlimit="10" stroke-linecap="round"/>
<path d="M94.5006 661.29C94.5006 661.29 85.8806 645.2 79.8906 666.37" stroke="black" stroke-width="2.54" stroke-miterlimit="10" stroke-linecap="round"/>
<path d="M124.772 651.5C124.772 651.5 103.222 632.71 96.4922 650.2" stroke="black" stroke-width="2.54" stroke-miterlimit="10" stroke-linecap="round"/>
<path d="M85.9006 712.21C85.9006 712.21 99.5306 707.52 97.8706 696.06L102.151 713.74L95.2706 715.51L85.8906 712.21H85.9006Z" fill="black"/>
<path d="M133.48 736.79C133.48 736.79 145.66 729.07 141.39 718.31L147.15 728.62L142.19 734.69L133.48 736.79Z" fill="black"/>
<path d="M190 698.16C190 698.16 200.16 726.28 185.84 732.6L192.57 730.77L199.22 724.41L201.31 717.87L197.33 710.01L190 698.17V698.16Z" fill="black"/>
<path d="M230.892 663.32C230.892 663.32 245.122 703.74 230.352 713.61L240.682 706.27L244.012 697.61L244.602 691.18L243.322 686.02L230.892 663.32Z" fill="black"/>
<path d="M738.902 465C738.902 465 749.932 482.42 781.282 477.19C812.632 471.96 778.382 494.61 778.382 494.61L751.672 497.51L738.902 465Z" fill="black"/>
<path d="M687.32 441.8C687.32 441.8 732.84 427.6 746.81 393.88L741.13 411.5L733.77 425.31L723.76 440.86L717.39 448.97L708.38 445.33L698.21 443.84L689.69 443.1L687.32 441.8Z" fill="black"/>
<path d="M471.189 441.8C471.189 441.8 425.669 427.6 411.699 393.88L417.379 411.5L424.739 425.31L434.749 440.86L439.019 447.07L450.139 445.32L460.309 443.83L468.829 443.09L471.199 441.79L471.189 441.8Z" fill="black"/>
<path d="M669.982 363.13C669.982 363.13 671.762 350.09 678.582 348.31L672.102 349.09L667.102 352.02L664.432 355.12L662.882 358.91L661.672 366.75L664.512 364.6L669.982 363.14V363.13Z" fill="black"/>
<path d="M483.799 363.13C483.799 363.13 482.019 350.09 475.199 348.31L481.679 349.09L486.679 352.02L489.349 355.12L490.899 358.91L492.109 366.75L489.269 364.6L483.799 363.14V363.13Z" fill="black"/>
<path d="M250.45 321.78C253.046 321.78 255.15 319.676 255.15 317.08C255.15 314.484 253.046 312.38 250.45 312.38C247.854 312.38 245.75 314.484 245.75 317.08C245.75 319.676 247.854 321.78 250.45 321.78Z" fill="black" stroke="black" stroke-width="2" stroke-miterlimit="10"/>
<path d="M265.13 321.78C267.725 321.78 269.83 319.676 269.83 317.08C269.83 314.484 267.725 312.38 265.13 312.38C262.534 312.38 260.43 314.484 260.43 317.08C260.43 319.676 262.534 321.78 265.13 321.78Z" fill="black" stroke="black" stroke-width="2" stroke-miterlimit="10"/>
<path d="M279.809 321.78C282.405 321.78 284.509 319.676 284.509 317.08C284.509 314.484 282.405 312.38 279.809 312.38C277.214 312.38 275.109 314.484 275.109 317.08C275.109 319.676 277.214 321.78 279.809 321.78Z" fill="black" stroke="black" stroke-width="2" stroke-miterlimit="10"/>
<path d="M246.02 331.75H405.1" stroke="black" stroke-width="2" stroke-miterlimit="10"/>
<path d="M502.77 439.61L506.99 435.59L529.4 432.58C562.28 428.16 595.62 428.46 628.42 433.48L642.19 435.59L646.23 439.63L607.71 436.27L565.97 435.7L516.03 438.85L502.77 439.61Z" fill="black"/>
<path d="M474.76 525.26C478.19 526.7 480.23 528.52 480.41 530.63C480.97 537.21 463.14 544.09 440.58 545.98C418.02 547.87 399.28 544.07 398.72 537.49C398.5 534.96 401.01 532.38 405.47 530.06C404.51 531.13 404.04 532.22 404.13 533.3C404.62 539.06 421.03 542.4 440.78 540.74C460.53 539.08 476.15 533.06 475.65 527.3C475.59 526.58 475.28 525.91 474.76 525.27V525.26Z" fill="#FFED78"/>
<path d="M416.152 525.76C405.472 528.82 398.632 533.08 398.982 537.24C399.532 543.87 418.132 547.72 440.512 545.85C462.902 543.98 480.592 537.09 480.042 530.47C479.772 527.2 475.092 524.6 467.732 523.03" stroke="black"/>
<path d="M399.082 536.79C398.552 540.42 395.902 548.22 389.492 550.39" stroke="black"/>
<path d="M479.609 528.97C480.919 532.99 485.779 541.18 494.709 541.79" stroke="black"/>
<defs>
<linearGradient id="paint0_linear_3182_404" x1="553.611" y1="149.53" x2="609.331" y2="589.52" gradientUnits="userSpaceOnUse">
<stop stop-color="white"/>
<stop offset="1" stop-color="white" stop-opacity="0"/>
</linearGradient>
</defs>
</svg>
