<svg xmlns="http://www.w3.org/2000/svg" width="617" height="301" fill="none" viewBox="0 0 617 301"><path fill="#edfcff" d="M166.765 196.62V3.84h-84.84l-81.48 210v34.02h111.3V297h55.02v-49.14h26.46v-51.24zm-53.34 2.1h-52.08l55.02-151.2zm194.929 101.64c65.1 0 99.54-51.24 99.54-149.94S373.454.48 308.354.48s-99.12 50.82-99.12 149.94c0 98.7 34.02 149.94 99.12 149.94m0-50.82c-28.56 0-42-30.66-42-99.12 0-68.88 13.02-98.7 42-98.7s42.42 29.82 42.42 98.7-13.44 99.12-42.42 99.12m281.692-52.92V3.84h-84.84l-81.48 210v34.02h111.3V297h55.02v-49.14h26.46v-51.24zm-53.34 2.1h-52.08l55.02-151.2z"/></svg>