<svg xmlns="http://www.w3.org/2000/svg" width="393" height="372" fill="none" viewBox="0 0 393 372"><circle cx="197.266" cy="185.383" r="133.686" fill="#ffff78" stroke="#000"/><circle cx="197.248" cy="185.141" r="133.686" fill="#ffff78" stroke="#000" transform="rotate(-10.71 197.248 185.141)"/><path fill="#000" d="M70.72 228.622c37.606 58.591 108.008 91.763 180.588 78.64a134.7 134.7 0 0 1-28.962 8.933c-66.153 12.511-130.14-25.849-151.625-87.573"/><path fill="#000" d="M355.759 118.091c2.934 7.378.967 16.134-4.759 25.516-5.735 9.399-15.332 19.585-27.989 29.951-25.323 20.739-63.057 42.328-107.196 59.88-44.139 17.551-86.393 27.77-119.043 30.084-16.319 1.156-30.29.341-40.914-2.552-10.605-2.889-18.046-7.902-20.98-15.281-3.172-7.975-.621-17.558 6.229-27.82 5.13-7.684 12.736-15.855 22.404-24.192l.22 2.132c-9.14 7.983-16.308 15.759-21.165 23.035-6.735 10.089-8.91 19.028-6.06 26.197 2.638 6.631 9.437 11.411 19.813 14.237 10.359 2.822 24.111 3.644 40.33 2.494 32.424-2.298 74.498-12.461 118.517-29.965 44.02-17.504 81.585-39.01 106.734-59.606 12.578-10.302 22.011-20.343 27.603-29.507 5.603-9.181 7.263-17.324 4.626-23.955z"/><circle cx="197.248" cy="185.141" r="133.686" stroke="#000" transform="rotate(-10.71 197.248 185.141)"/></svg>