<svg xmlns="http://www.w3.org/2000/svg" width="375" height="1011" fill="none" viewBox="0 0 375 1011"><path fill="#000" stroke="#000" stroke-width=".256" d="M336.102 7.29a25.7 25.7 0 0 1 20.063 9.635l48.014 59.939h12.729v15.89l22.334 27.883.119.149-.182.053-22.271 6.563v237.805l22.27 6.563.183.054-.119.148-83.078 103.712a25.7 25.7 0 0 1-20.062 9.635H66.974a25.7 25.7 0 0 1-20.063-9.635l-70.464-87.965h-.915v-1.143l-11.698-14.604-.12-.148.184-.054 11.634-3.43V124.268l-11.634-3.429-.183-.053.119-.149 11.698-14.603v-29.17h23.365L54.591 7.338l.038-.047z"/><path fill="#fdf2d4" stroke="#000" stroke-width=".256" d="M321.43.128a25.7 25.7 0 0 1 20.063 9.635L389.507 69.7h12.729v15.89l22.334 27.884.119.148-.182.054-22.271 6.562v237.805l22.27 6.563.183.054-.119.149-83.078 103.711a25.7 25.7 0 0 1-20.062 9.635H52.302a25.7 25.7 0 0 1-20.063-9.635l-70.464-87.964h-.915v-1.144l-11.698-14.603-.119-.149.183-.054 11.634-3.429V117.105l-11.634-3.428-.183-.054.12-.148 11.697-14.604v-29.17h23.366L39.919.176l.038-.048z"/><mask id="a" width="470" height="686" x="-38" y="325" maskUnits="userSpaceOnUse" style="mask-type:alpha"><path fill="#d9d9d9" d="M-38 325.91h470v684.281H-38z"/></mask><g stroke="#000" stroke-width=".227" mask="url(#a)"><path fill="#000" d="M314.451-173.523c9.82 0 18.533 6.293 21.621 15.615L380.28-24.466h11.253V9.5l19.808 59.79.026.08-.067.049-19.767 14.084v509.823l12.599 128.757.004.036-.019.031-66.676 116.678a22.78 22.78 0 0 1-19.776 11.476H86.955a22.78 22.78 0 0 1-21.622-15.614l-64.1-193.487H.448v-2.364l-10.385-31.348-.026-.079.068-.049L.45 599.992V76.788l-10.343-7.37-.068-.048.026-.08L.45 37.943v-62.408h20.676l49.356-148.979.025-.078z"/><path fill="#fdf2d4" d="M301.451-188.868c9.82 0 18.533 6.293 21.621 15.614L367.28-39.811h11.253v33.965l19.808 59.791.026.08-.067.048-19.767 14.084v671.244l-.017.029-53.926 84.958a22.78 22.78 0 0 1-19.231 10.571H68.129a22.78 22.78 0 0 1-17.42-8.105l-73.624-87.413-.03-.036.004-.047 10.39-113.624v-2.241l-10.385-31.347-.026-.08.068-.048 10.343-7.371V61.442l-10.343-7.369-.068-.049.026-.079 10.385-31.348v-62.408H8.125L57.481-188.79l.025-.078z"/></g></svg>