<svg xmlns="http://www.w3.org/2000/svg" width="1440" height="479" fill="none" viewBox="0 0 1440 479"><g stroke="#dce6de" stroke-linecap="round" stroke-width=".5" clip-path="url(#a)"><path d="M28.548 457.121v-25.292M41.189 444.48H15.896M28.548 370.685v-25.292M41.189 358.044H15.896M114.978 457.121v-25.292M127.618 444.48h-25.292M201.407 457.121v-25.292M214.048 444.48h-25.292M114.978 370.685v-25.292M127.618 358.044h-25.292M201.407 370.685v-25.292M214.048 358.044h-25.292M287.837 457.12v-25.292M300.478 444.479h-25.292M287.837 370.685v-25.292M300.478 358.044h-25.292M374.267 457.12v-25.292M386.907 444.479h-25.292M460.696 457.12v-25.292M473.337 444.479h-25.292M374.267 370.685v-25.292M386.907 358.044h-25.292M460.696 370.685v-25.292M473.337 358.044h-25.292M547.134 457.12v-25.292M559.774 444.479h-25.292M547.134 370.685v-25.292M559.774 358.044h-25.292M633.563 457.12v-25.292M646.204 444.479h-25.292M719.993 457.12v-25.292M732.634 444.479h-25.292M633.563 370.685v-25.292M646.204 358.044h-25.292M719.993 370.685v-25.292M732.634 358.044h-25.292M28.548 284.257v-25.292M41.189 271.617H15.896M28.548 197.822V172.53M41.189 185.181H15.896M114.978 284.257v-25.292M127.618 271.617h-25.292M201.407 284.257v-25.292M214.048 271.617h-25.292M114.978 197.822V172.53M127.618 185.181h-25.292M201.407 197.822V172.53M214.048 185.181h-25.292M28.548 111.394V86.102M41.189 98.753H15.896M28.548 24.959V-.334M41.189 12.318H15.896M114.978 111.394V86.102M127.618 98.753h-25.292M201.407 111.394V86.102M214.048 98.753h-25.292M114.978 24.959V-.334M127.618 12.318h-25.292M201.407 24.959V-.334M214.048 12.318h-25.292M287.837 284.257v-25.292M300.478 271.617h-25.292M287.837 197.822V172.53M300.478 185.181h-25.292M374.267 284.257v-25.292M386.907 271.617h-25.292M460.696 284.257v-25.292M473.337 271.617h-25.292M374.267 197.822V172.53M386.907 185.181h-25.292M460.696 197.822V172.53M473.337 185.181h-25.292M547.134 284.257v-25.292M559.774 271.617h-25.292M547.134 197.822V172.53M559.774 185.181h-25.292M633.563 284.257v-25.292M646.204 271.617h-25.292M719.993 284.257v-25.292M732.634 271.617h-25.292M633.563 197.822V172.53M646.204 185.181h-25.292M719.993 197.822V172.53M732.634 185.181h-25.292M287.837 111.394V86.102M300.478 98.753h-25.292M287.837 24.959V-.334M300.478 12.318h-25.292M374.267 111.394V86.102M386.907 98.753h-25.292M460.696 111.394V86.102M473.337 98.753h-25.292M374.267 24.959V-.334M386.907 12.318h-25.292M460.696 24.959V-.334M473.337 12.318h-25.292M547.134 111.394V86.102M559.774 98.754h-25.292M547.134 24.959V-.333M559.774 12.318h-25.292M633.563 111.394V86.102M646.204 98.754h-25.292M719.993 111.394V86.102M732.634 98.754h-25.292M633.563 24.959V-.333M646.204 12.318h-25.292M719.993 24.959V-.333M732.634 12.318h-25.292M806.438 457.121v-25.292M819.087 444.48h-25.292M806.438 370.686v-25.292M819.087 358.045h-25.292M892.868 457.121v-25.292M905.517 444.48h-25.292M979.298 457.121v-25.292M991.946 444.48h-25.292M892.868 370.686v-25.292M905.517 358.045h-25.292M979.298 370.686v-25.292M991.946 358.045h-25.292M1065.74 457.121v-25.292M1078.38 444.48h-25.29M1065.74 370.686v-25.292M1078.38 358.045h-25.29M1152.17 457.121v-25.292M1164.81 444.48h-25.29M1238.59 457.121v-25.292M1251.24 444.48h-25.29M1152.17 370.686v-25.292M1164.81 358.045h-25.29M1238.59 370.686v-25.292M1251.24 358.045h-25.29M1325.02 457.121v-25.292M1337.67 444.48h-25.29M1325.02 370.685v-25.292M1337.67 358.044h-25.29M1411.45 457.121v-25.292M1424.1 444.48h-25.29M1411.45 370.685v-25.292M1424.1 358.044h-25.29M806.438 284.258v-25.292M819.087 271.617h-25.292M806.438 197.822V172.53M819.087 185.182h-25.292M892.868 284.258v-25.292M905.517 271.617h-25.292M979.298 284.258v-25.292M991.946 271.617h-25.292M892.868 197.822V172.53M905.517 185.182h-25.292M979.298 197.822V172.53M991.946 185.182h-25.292M1065.74 284.258v-25.292M1078.38 271.617h-25.29M1065.74 197.822V172.53M1078.38 185.182h-25.29M1152.17 284.258v-25.292M1164.81 271.617h-25.29M1238.59 284.258v-25.292M1251.24 271.617h-25.29M1152.17 197.822V172.53M1164.81 185.182h-25.29M1238.59 197.822V172.53M1251.24 185.182h-25.29M806.438 111.395V86.103M819.087 98.754h-25.292M806.438 24.959V-.333M819.087 12.318h-25.292M892.868 111.395V86.103M905.517 98.754h-25.292M979.298 111.395V86.103M991.946 98.754h-25.292M892.868 24.959V-.333M905.517 12.318h-25.292M979.298 24.959V-.333M991.946 12.318h-25.292M1065.74 111.395V86.103M1078.38 98.754h-25.29M1065.74 24.959V-.333M1078.38 12.318h-25.29M1152.17 111.395V86.103M1164.81 98.754h-25.29M1238.59 111.395V86.103M1251.24 98.754h-25.29M1152.17 24.959V-.333M1164.81 12.318h-25.29M1238.59 24.959V-.333M1251.24 12.318h-25.29M1325.02 284.258v-25.292M1337.67 271.618h-25.29M1325.02 197.823v-25.292M1337.67 185.182h-25.29M1411.45 284.258v-25.292M1424.1 271.618h-25.29M1411.45 197.823v-25.292M1424.1 185.182h-25.29M1325.02 111.395V86.103M1337.67 98.754h-25.29M1325.02 24.96V-.334M1337.67 12.319h-25.29M1411.45 111.395V86.103M1424.1 98.754h-25.29M1411.45 24.96V-.334M1424.1 12.319h-25.29"/></g><defs><clipPath id="a"><path fill="#fff" d="M-330-.333h2100v479H-330z"/></clipPath></defs></svg>