<svg xmlns="http://www.w3.org/2000/svg" width="2022" height="906" fill="none" viewBox="0 0 2022 906"><path fill="#ffb89f" d="M291 0h1440v822H291z"/><g clip-path="url(#a)"><mask id="b" width="2025" height="999" x="-2" y="308.17" fill="#000" maskUnits="userSpaceOnUse"><path fill="#fff" d="M-2 308.17h2025v999H-2z"/><path d="M1136.21 310.229c4.47-.104 10.88-.108 18.63.293 7.65.396 13.69 1.008 17.85 1.526 4.22.526 7.91 2.896 10.7 6.11 2.44 2.808 5.59 6.083 8.43 7.949 243.57 18.174 456.76 72.345 606.03 148.674 8.66.603 19.6-2.434 26.02-4.559 3.52-1.169 7.31-1.4 10.79-.093 6.25 2.351 17.51 7.193 31.55 15.891 14.36 8.901 24.15 17.323 29.17 22.048 2.63 2.475 4.12 5.852 4.64 9.426 1.03 7.148 3.26 19.485 7.12 26.062 73.01 57.645 114.29 123.207 114.29 192.748v568.706H0V736.304c0-106.613 97.034-203.876 256.662-277.59 3.352-4.813 5.864-11.17 7.399-15.734 1.255-3.731 3.484-7.11 6.775-9.272 5.038-3.309 13.248-8.332 21.741-11.968 9.172-3.926 21.733-6.866 29.081-8.388 3.895-.808 7.907-.048 11.445 1.77 4.219 2.168 10.199 4.963 15.277 6.288 177.384-63.525 408.973-101.977 662.34-101.977 35.62 0 70.81.761 105.49 2.244 2.95-1.62 5.86-4.001 8.17-6.148 3.28-3.037 7.37-5.196 11.83-5.3"/></mask><path fill="#ffff78" d="M1136.21 310.229c4.47-.104 10.88-.108 18.63.293 7.65.396 13.69 1.008 17.85 1.526 4.22.526 7.91 2.896 10.7 6.11 2.44 2.808 5.59 6.083 8.43 7.949 243.57 18.174 456.76 72.345 606.03 148.674 8.66.603 19.6-2.434 26.02-4.559 3.52-1.169 7.31-1.4 10.79-.093 6.25 2.351 17.51 7.193 31.55 15.891 14.36 8.901 24.15 17.323 29.17 22.048 2.63 2.475 4.12 5.852 4.64 9.426 1.03 7.148 3.26 19.485 7.12 26.062 73.01 57.645 114.29 123.207 114.29 192.748v568.706H0V736.304c0-106.613 97.034-203.876 256.662-277.59 3.352-4.813 5.864-11.17 7.399-15.734 1.255-3.731 3.484-7.11 6.775-9.272 5.038-3.309 13.248-8.332 21.741-11.968 9.172-3.926 21.733-6.866 29.081-8.388 3.895-.808 7.907-.048 11.445 1.77 4.219 2.168 10.199 4.963 15.277 6.288 177.384-63.525 408.973-101.977 662.34-101.977 35.62 0 70.81.761 105.49 2.244 2.95-1.62 5.86-4.001 8.17-6.148 3.28-3.037 7.37-5.196 11.83-5.3"/><path fill="#000" d="m1136.21 310.229-.03-1.403zm18.63.293.08-1.401zm17.85 1.526.17-1.393zm10.7 6.11 1.06-.92zm8.43 7.949-.77 1.174.3.199.37.027zm606.03 148.674-.64 1.25.25.131.29.02zm26.02-4.559.44 1.332zm10.79-.093.5-1.314zm31.55 15.891.74-1.194zm29.17 22.048.97-1.022zm4.64 9.426 1.39-.2zm7.12 26.062-1.21.71.13.228.21.163zm114.29 192.748h1.41zm0 568.706v1.4h1.41v-1.4zM0 1305.01h-1.404v1.4H0zm0-568.706h-1.404zm256.662-277.59.589 1.274.345-.159.218-.313zm7.399-15.734-1.331-.447zm6.775-9.272-.771-1.173zm21.741-11.968-.552-1.29zm29.081-8.388-.285-1.375zm11.445 1.77-.642 1.249zm15.277 6.288-.355 1.358.42.11.408-.146zm662.34-101.977v-1.404zm105.49 2.244-.06 1.402.39.017.34-.188zm8.17-6.148-.95-1.029zm11.83-5.3.04 1.404c4.43-.103 10.81-.108 18.52.291l.07-1.402.08-1.401c-7.8-.404-14.24-.4-18.74-.295zm18.63.293-.07 1.402c7.61.394 13.62 1.003 17.74 1.517l.18-1.393.17-1.393c-4.19-.522-10.26-1.137-17.94-1.534zm17.85 1.526-.18 1.393c3.8.473 7.2 2.617 9.82 5.637l1.06-.92 1.06-.92c-2.95-3.408-6.94-6.005-11.59-6.583zm10.7 6.11-1.06.92c2.45 2.819 5.7 6.222 8.72 8.203l.77-1.174.77-1.173c-2.67-1.753-5.71-4.898-8.14-7.696zm8.43 7.949-.1 1.4c243.44 18.165 456.44 72.305 605.49 148.524l.64-1.25.64-1.25c-149.48-76.438-362.88-130.641-606.57-148.823zm606.03 148.674-.1 1.401c8.97.623 20.14-2.5 26.56-4.628l-.44-1.332-.44-1.333c-6.41 2.124-17.12 5.073-25.49 4.492zm26.02-4.559.44 1.332c3.31-1.095 6.75-1.278 9.86-.111l.49-1.314.5-1.314c-3.86-1.448-7.99-1.168-11.73.074zm10.79-.093-.49 1.314c6.18 2.323 17.35 7.126 31.3 15.77l.74-1.193.74-1.194c-14.13-8.751-25.47-13.632-31.79-16.011zm31.55 15.891-.74 1.193c14.27 8.843 23.99 17.205 28.95 21.878l.96-1.023.97-1.022c-5.08-4.778-14.95-13.261-29.4-22.22zm29.17 22.048-.96 1.023c2.35 2.213 3.73 5.275 4.21 8.603l1.39-.2 1.39-.2c-.55-3.82-2.16-7.513-5.06-10.248zm4.64 9.426-1.39.2c.52 3.598 1.34 8.518 2.52 13.377 1.18 4.83 2.74 9.723 4.78 13.195l1.21-.71 1.21-.71c-1.82-3.106-3.31-7.67-4.47-12.439-1.15-4.74-1.96-9.563-2.47-13.113zm7.12 26.062-.87 1.101c72.83 57.507 113.76 122.706 113.76 191.647h2.81c0-70.142-41.65-136.067-114.83-193.85zm114.29 192.748h-1.4v568.706h2.81V736.304zm0 568.706v-1.41H0v2.81h2021.43zM0 1305.01h1.404V736.304h-2.808v568.706zm0-568.706h1.404c0-52.851 24.045-103.492 68.088-150.169 44.049-46.685 108.046-89.336 187.759-126.147l-.589-1.274-.588-1.275c-79.915 36.904-144.25 79.741-188.624 126.769-44.382 47.036-68.854 98.333-68.854 152.096zm256.662-277.59 1.152.802c3.469-4.981 6.031-11.491 7.577-16.088l-1.33-.448-1.331-.447c-1.524 4.53-3.985 10.733-7.22 15.379zm7.399-15.734 1.33.448c1.181-3.51 3.248-6.597 6.216-8.547l-.771-1.173-.771-1.173c-3.613 2.373-6.005 6.045-7.335 9.998zm6.775-9.272.771 1.173c5.009-3.29 13.14-8.262 21.523-11.85l-.553-1.291-.552-1.29c-8.604 3.683-16.894 8.757-21.96 12.085zm21.741-11.968.553 1.291c9.032-3.867 21.471-6.783 28.813-8.305l-.285-1.374-.285-1.375c-7.355 1.524-20.036 4.486-29.348 8.473zm29.081-8.388.285 1.374c3.53-.731 7.216-.052 10.518 1.645l.642-1.249.641-1.249c-3.773-1.938-8.111-2.779-12.371-1.896zm11.445 1.77-.642 1.249c4.235 2.176 10.329 5.031 15.564 6.397l.355-1.358.354-1.358c-4.92-1.284-10.785-4.018-14.99-6.179zm15.277 6.288.473 1.322c177.205-63.462 408.63-101.896 661.867-101.896v-2.807c-253.496 0-485.25 38.47-662.813 102.06zm662.34-101.977v1.403c35.6 0 70.77.761 105.43 2.243l.06-1.402.06-1.403c-34.7-1.484-69.91-2.245-105.55-2.245zm105.49 2.244.67 1.231c3.11-1.7 6.11-4.17 8.46-6.349l-.96-1.03-.95-1.029c-2.28 2.114-5.09 4.407-7.9 5.946zm8.17-6.148.96 1.03c3.11-2.881 6.88-4.832 10.91-4.926l-.04-1.404-.03-1.403c-4.91.114-9.31 2.481-12.75 5.674z" mask="url(#b)"/><ellipse cx="62.34" cy="21.659" fill="#ffdf78" rx="62.34" ry="21.659" transform="matrix(.99852 .05447 -.14335 .98967 1348.55 492.969)"/><ellipse cx="58.067" cy="18.874" fill="#ffff78" rx="58.067" ry="18.874" transform="matrix(.99852 .05447 -.14335 .98967 1358.04 491.334)"/><path stroke="#000" d="M1372.78 498.303c-16.58 3.335-27.61 9.547-27.88 17.035-.45 12.071 27.22 22.887 61.79 24.158 34.58 1.27 62.96-7.486 63.41-19.557 1.84 6.974 7.56 18.627 20.43 21.806"/><path stroke="#000" d="M1345.11 513.572c-1.17 3.786-5.43 11.929-13.11 14.219M385.625 522.455c3.391 5.823 13.908 18.225 28.844 21.245"/><ellipse cx="76.868" cy="30.901" fill="#ffdf78" rx="76.868" ry="30.901" transform="matrix(-.99714 .07556 .1115 .99377 385.461 499.77)"/><ellipse cx="71.598" cy="26.97" fill="#ffff78" rx="71.598" ry="26.97" transform="matrix(-.99714 .07556 .1115 .99377 374.004 500.205)"/><path stroke="#000" d="M310.089 504.92c42.557-2.791 77.975 8.958 79.108 26.242 1.134 17.285-32.446 33.559-75.003 36.35s-77.975-8.959-79.108-26.243c-.397 4.805-4.076 16.077-15.617 22.726"/><ellipse cx="1154.7" cy="313.653" fill="#ffed78" rx="25.29" ry="3.487" transform="rotate(3.472 1154.7 313.653)"/><path stroke="#000" stroke-width="1.404" d="M1179.18 315.26c-.14 2.078-11.27 3.037-24.86 2.143s-24.5-3.305-24.36-5.383M1116.45 321.508c-.11 1.61 4.05 3.349 10.88 4.859M1899.13 512.064c-1.85 3-19.26-4.395-38.87-16.518-19.62-12.123-34.02-24.382-32.17-27.382M1799.01 474.695c-1.83 2.703 5.37 11.063 17.88 21.625"/><path fill="#ffef78" d="M1845.56 475.09c-6.17-3.459-10.56-5.019-13.4-5.605-1.83-.377-2.59 1.355-1.37 2.764 14.01 16.158 47.6 33.122 63.49 39.907-32.33-14.18-44.69-28.85-47.35-35.417-.28-.683-.73-1.288-1.37-1.649"/><path stroke="#000" stroke-width="1.404" d="M456.648 752.271c4.761 8.175 19.525 25.584 40.491 29.824"/><path fill="#000" d="M1444.54 358.507c67.21 13.982 130.92 30.664 190.28 49.632 8.39 6.752 12.55 13.188 11.19 18.604-4.13 16.511-57.88 17.294-120.06 1.75-62.17-15.544-109.23-41.53-105.11-58.041 1.56-6.236 10.2-10.228 23.7-11.945"/><path fill="#ffed78" d="M1522.68 671.333c-10.05 3.765-16.35 8.693-17.17 14.34-2.09 14.482 32.65 28.21 77.6 30.662 40.23 2.194 75-5.387 83.36-17.384.07.803.05 1.61-.07 2.419-2.41 16.618-43.48 27.956-91.74 25.324-48.26-2.633-85.43-18.239-83.02-34.857 1.26-8.697 13.11-15.945 31.04-20.504"/><path stroke="#000" stroke-width="1.404" d="M1530.01 669.233c-23.28 4.681-38.76 13.401-39.15 23.912-.62 16.946 38.22 32.129 86.75 33.912 48.54 1.784 88.39-10.507 89.01-27.452 2.58 9.789 10.62 26.147 28.68 30.61"/><path stroke="#000" stroke-width="1.404" d="M1491.17 690.67c-1.64 5.314-7.63 16.746-18.41 19.96"/><path fill="#ffed78" d="M461.255 763.533c-2.457-21.904-45.263-36.901-98.372-35.653 44.869.488 79.671 12.927 81.674 30.78 2.331 20.779-40.65 41.023-96 45.217-49.918 3.783-92.847-6.783-102.503-24.134l.009.095c2.671 23.807 53.008 39.457 112.432 34.955s105.431-27.453 102.76-51.26"/><path stroke="#000" stroke-width="1.404" d="M350.615 727.657c59.74-3.918 109.459 12.575 111.05 36.839s-45.548 47.108-105.288 51.026-109.459-12.576-111.05-36.839c-.557 6.745-5.721 22.569-21.922 31.902"/><path fill="#ffed78" d="M1693.05 488.814c-11.19 2.188-18.79 6.402-19.44 11.696-1.08 8.88 17.81 17.433 42.19 19.103 19.23 1.317 36.13-2.042 42.95-7.874-3.32 9.256-24.52 15.239-49.25 13.545-26.18-1.794-46.39-11.509-45.15-21.699.89-7.297 12.55-12.859 28.7-14.771"/><path stroke="#000" stroke-width="1.404" d="M1713.82 487.501c-25.89-1.698-47.44 5.451-48.13 15.967-.69 10.515 19.74 20.417 45.64 22.115 25.89 1.698 47.44-5.451 48.12-15.967.83 4.649 4.93 14.35 14.79 15.967"/><path stroke="#000" stroke-width="1.404" d="M1667.09 499.377c-3.92 6.614-8 9.418-14.25 11.846M1202.76 382.584c-.18 2.687-8.78 4.31-19.22 3.625s-18.75-3.417-18.58-6.104c.18-2.687 8.78-4.31 19.22-3.626"/><path fill="#ffed78" d="M1165.31 379.848c.69-2.452 9.52-3.823 19.71-3.062 1.96.147 3.84.363 5.58.632-1.04-.125-2.11-.23-3.22-.313-9.15-.683-17.04.437-17.63 2.501-.58 2.065 6.37 4.292 15.52 4.975 7.61.569 14.35-.112 16.74-1.544-1.56 2.176-9.92 3.343-19.49 2.628-10.2-.761-17.9-3.366-17.21-5.817"/><path stroke="#000" stroke-width="1.404" d="M325.784 413.027c.994 2.483-11.364 9.768-27.603 16.271s-30.21 9.761-31.204 7.278M257.852 457.264c.823 2.334 9.17 1.708 21.252-1.16"/><path fill="#ffef78" d="M278.82 429.159c-4.125 1.876-6.826 3.585-8.517 4.948-1.452 1.17-.58 2.771 1.275 2.583 16.205-1.649 40.979-14.149 52.075-20.663-22.839 13.112-37.261 14.227-42.685 12.988-.718-.164-1.478-.161-2.148.144"/><path fill="#dce6de" d="m1524.07 370.633 6.03-6.915 26.8 5.764 1.69 8.314 6.02 1.098 2.31 10.439 6.54 1.093 3.5 16.924-85.51-16.921 10.91-13.871 6.43 1.271 7.62-8.71z"/><path fill="#000" d="m1579.92 366.562 3.23-.582 7.03 38.602-4.52-.911zM1505.69 349.949l-2.55-2.078-22.96 38.114 4.67.961z"/><path fill="#ffff78" d="m1503.12 292.835 13.85 7.731 11.76 11.17 12.43 10.653 21.65 5.26 16.7 2.121 11.07-.736 17.68-22.59 10.57-.703-2.42 18.341 9.55-.635 8.94 6.845.66 9.889-3.38 3.861-13.85 8.82 15.54 16.639-12.23 4.686-25.97-11.065-8.87 3.332-26.41 3.777-3.51-.754-26.79-5.763-4.13-.888-18.72-8.047-24.69-31.082 3.25-24.053-2.79-11.531 6.76-7.722 10.06-.669z"/><path fill="#fff" d="m1595.68 363.127 15.96-5.997 6.7-4.264 15.54 16.639-12.24 4.687zM1601.62 327.901l-11.06.736 17.68-22.59 10.57-.703-2.42 18.341z"/><path fill="#000" d="m1483.02 288.115 10.45-.696 6.36-7.695-10.05.669zM1634.9 330.296l-8.94-6.845.81 12.067 8.79 4.667z"/><path fill="#fa673a" d="m1541.16 322.393-12.42-10.652-9.77 18.83 14.07 11.184z"/><path fill="#ffb195" fill-opacity=".91" d="m1502.91 292.881-3.01-12.559-6.36 7.644 3.09 10.649z"/><path fill="#c1f174" d="m1606.2 342.14-20.51 7.425 1.12 16.893 8.87-3.331 15.96-5.997z"/><path stroke="#000" d="m1485.8 299.644 10.86-.722m-10.86.722-3.25 24.053m3.25-24.053-2.79-11.531m13.65 10.809 6.46-6.087m-6.46 6.087 8.07 18.047m-8.07-18.047-3.19-11.504m9.65 5.417 13.85 7.731m-13.85-7.731-3.29-13.113m17.14 20.844 11.76 11.17m-11.76-11.17-12.24 16.403m24-5.233 12.43 10.653m-12.43-10.653-9.76 18.83m22.19-8.177 21.65 5.26m-21.65-5.26-8.12 19.361m29.77-14.101 16.7 2.121m-16.7-2.121-.22 21.023m16.92-18.902 6.17 19.79m-6.17-19.79 11.07-.736m11.06-.736 4.55 13.837m-4.55-13.837-11.06.736m11.06-.736 14.77-4.216m9.55-.635 8.94 6.845.66 9.889m-9.6-16.734.8 12.067m-.8-12.067-9.55.635m19.15 16.099-3.38 3.861-13.85 8.82m17.23-12.681-8.8-4.667m-15.12 21.611-5.45-14.99m5.45 14.99-15.97 5.997m15.97-5.997 6.69-4.263m-31.53 13.592-26.41 3.777m26.41-3.777-1.12-16.894m1.12 16.894 8.87-3.332m-35.28 7.109 2.2-21.559m-2.2 21.559-3.51-.754m-30.92-6.651-18.72-8.047m18.72 8.047 7.08-21.076m-7.08 21.076 4.13.888m-22.85-8.935-24.69-31.082m24.69 31.082 11.73-24.213m-36.42-6.869 22.18-6.728m0 0 14.24 13.597m0 0 14.07 11.184m0 0 29.55 6.922m0 0 23.09.888m0 0 20.51-7.425m0 0 20.57-6.621m-133.29-48.096-10.46.695m10.46-.695 6.36-7.696m-16.82 8.391 6.76-7.722 10.06-.669m90.75 49.312 17.68-22.59 10.57-.703-2.42 18.341m-20.74 39.04 25.97 11.065 12.23-4.686-15.54-16.639m-88.24 10.852-6.03 6.915m6.03-6.915 26.79 5.763m-32.82 1.152 34.52 7.162m-34.52-7.162-7.66-1.515-7.62 8.71m49.8-.033-1.7-8.314m1.7 8.314 6.02 1.099 2.31 10.438m-58.13-11.504 58.13 11.504m-58.13-11.504-6.43-1.271-10.91 13.871 85.5 16.921-3.49-16.924-6.54-1.093"/><path fill="#000" stroke="#000" d="m1539.51 336.027-9.43 27.709 26.84 5.688 2.76-29.469a7.65 7.65 0 0 0-4.16-7.551 16.8 16.8 0 0 0-8.76-1.795l-.21.013a8 8 0 0 0-7.04 5.405Z"/></g><defs><clipPath id="a"><path fill="#fff" d="M0 161.334h2021.43v744H0z"/></clipPath></defs></svg>