<svg xmlns="http://www.w3.org/2000/svg" width="1440" height="886" fill="none" viewBox="0 0 1440 886"><path stroke="#fff" stroke-linecap="round" stroke-width=".5" d="M28.548 629.982V604.69M41.189 617.342H15.896M28.548 543.549v-25.292M41.189 530.908H15.896M28.548 716.414v-25.292M41.189 703.773H15.896M114.978 716.414v-25.292M127.618 703.773h-25.292M114.978 629.982V604.69M127.618 617.342h-25.292M201.407 629.982V604.69M214.048 617.342h-25.292M114.978 543.549v-25.292M127.618 530.908h-25.292M201.407 543.549v-25.292M214.048 530.908h-25.292M201.407 716.414v-25.292M214.048 703.773h-25.292M28.548 457.121v-25.292M41.189 444.48H15.896M28.548 370.685v-25.292M41.189 358.044H15.896M114.978 457.121v-25.292M127.618 444.48h-25.292M201.407 457.121v-25.292M214.048 444.48h-25.292M114.978 370.685v-25.292M127.618 358.044h-25.292M201.407 370.685v-25.292M214.048 358.044h-25.292M287.837 629.982V604.69M300.478 617.341h-25.292M287.837 543.548v-25.292M300.478 530.908h-25.292M287.837 716.414v-25.292M300.478 703.773h-25.292M374.267 716.414v-25.292M386.907 703.773h-25.292M374.267 629.982V604.69M386.907 617.341h-25.292M460.696 629.982V604.69M473.337 617.341h-25.292M374.267 543.548v-25.292M386.907 530.908h-25.292M460.696 543.548v-25.292M473.337 530.908h-25.292M460.696 716.414v-25.292M473.337 703.773h-25.292M547.134 629.982V604.69M559.774 617.341h-25.292M547.134 543.548v-25.292M559.774 530.908h-25.292M547.134 716.414v-25.292M559.774 703.773h-25.292M633.563 716.414v-25.292M646.204 703.773h-25.292M633.563 629.982V604.69M646.204 617.341h-25.292M719.993 629.982V604.69M732.634 617.341h-25.292M633.563 543.548v-25.292M646.204 530.908h-25.292M719.993 543.548v-25.292M732.634 530.908h-25.292M719.993 716.414v-25.292M732.634 703.773h-25.292M287.837 457.12v-25.292M300.478 444.479h-25.292M287.837 370.685v-25.292M300.478 358.044h-25.292M374.267 457.12v-25.292M386.907 444.479h-25.292M460.696 457.12v-25.292M473.337 444.479h-25.292M374.267 370.685v-25.292M386.907 358.044h-25.292M460.696 370.685v-25.292M473.337 358.044h-25.292M547.134 457.12v-25.292M559.774 444.479h-25.292M547.134 370.685v-25.292M559.774 358.044h-25.292M633.563 457.12v-25.292M646.204 444.479h-25.292M719.993 457.12v-25.292M732.634 444.479h-25.292M633.563 370.685v-25.292M646.204 358.044h-25.292M719.993 370.685v-25.292M732.634 358.044h-25.292M28.548 284.257v-25.292M41.189 271.617H15.896M28.548 197.822V172.53M41.189 185.181H15.896M114.978 284.257v-25.292M127.618 271.617h-25.292M201.407 284.257v-25.292M214.048 271.617h-25.292M114.978 197.822V172.53M127.618 185.181h-25.292M201.407 197.822V172.53M214.048 185.181h-25.292M28.548 111.394V86.102M41.189 98.753H15.896M28.548 24.959V-.334M41.189 12.318H15.896M114.978 111.394V86.102M127.618 98.753h-25.292M201.407 111.394V86.102M214.048 98.753h-25.292M114.978 24.959V-.334M127.618 12.318h-25.292M201.407 24.959V-.334M214.048 12.318h-25.292M287.837 284.257v-25.292M300.478 271.617h-25.292M287.837 197.822V172.53M300.478 185.181h-25.292M374.267 284.257v-25.292M386.907 271.617h-25.292M460.696 284.257v-25.292M473.337 271.617h-25.292M374.267 197.822V172.53M386.907 185.181h-25.292M460.696 197.822V172.53M473.337 185.181h-25.292M547.134 284.257v-25.292M559.774 271.617h-25.292M547.134 197.822V172.53M559.774 185.181h-25.292M633.563 284.257v-25.292M646.204 271.617h-25.292M719.993 284.257v-25.292M732.634 271.617h-25.292M633.563 197.822V172.53M646.204 185.181h-25.292M719.993 197.822V172.53M732.634 185.181h-25.292M287.837 111.394V86.102M300.478 98.753h-25.292M287.837 24.959V-.334M300.478 12.318h-25.292M374.267 111.394V86.102M386.907 98.753h-25.292M460.696 111.394V86.102M473.337 98.753h-25.292M374.267 24.959V-.334M386.907 12.318h-25.292M460.696 24.959V-.334M473.337 12.318h-25.292M547.134 111.394V86.102M559.774 98.754h-25.292M547.134 24.959V-.333M559.774 12.318h-25.292M633.563 111.394V86.102M646.204 98.754h-25.292M719.993 111.394V86.102M732.634 98.754h-25.292M633.563 24.959V-.333M646.204 12.318h-25.292M719.993 24.959V-.333M732.634 12.318h-25.292M806.438 629.983v-25.292M819.087 617.342h-25.292M806.438 543.549v-25.292M819.087 530.909h-25.292M806.438 716.415v-25.292M819.087 703.774h-25.292M892.868 716.415v-25.292M905.517 703.774h-25.292M892.868 629.983v-25.292M905.517 617.342h-25.292M979.298 629.983v-25.292M991.946 617.342h-25.292M892.868 543.549v-25.292M905.517 530.909h-25.292M979.298 543.549v-25.292M991.946 530.909h-25.292M979.298 716.415v-25.292M991.946 703.774h-25.292M1065.74 629.983v-25.292M1078.38 617.342h-25.29M1065.74 543.549v-25.292M1078.38 530.909h-25.29M1065.74 716.415v-25.292M1078.38 703.774h-25.29M1152.17 716.415v-25.292M1164.81 703.774h-25.29M1152.17 629.983v-25.292M1164.81 617.342h-25.29M1238.59 629.983v-25.292M1251.24 617.342h-25.29M1152.17 543.549v-25.292M1164.81 530.909h-25.29M1238.59 543.549v-25.292M1251.24 530.909h-25.29M1238.59 716.415v-25.292M1251.24 703.774h-25.29M806.438 457.121v-25.292M819.087 444.48h-25.292M806.438 370.686v-25.292M819.087 358.045h-25.292M892.868 457.121v-25.292M905.517 444.48h-25.292M979.298 457.121v-25.292M991.946 444.48h-25.292M892.868 370.686v-25.292M905.517 358.045h-25.292M979.298 370.686v-25.292M991.946 358.045h-25.292M1065.74 457.121v-25.292M1078.38 444.48h-25.29M1065.74 370.686v-25.292M1078.38 358.045h-25.29M1152.17 457.121v-25.292M1164.81 444.48h-25.29M1238.59 457.121v-25.292M1251.24 444.48h-25.29M1152.17 370.686v-25.292M1164.81 358.045h-25.29M1238.59 370.686v-25.292M1251.24 358.045h-25.29M1325.02 629.982V604.69M1337.67 617.342h-25.29M1325.02 543.549v-25.292M1337.67 530.908h-25.29M1325.02 716.414v-25.292M1337.67 703.773h-25.29M1411.45 716.414v-25.292M1424.1 703.773h-25.29M1411.45 629.982V604.69M1424.1 617.342h-25.29M1411.45 543.549v-25.292M1424.1 530.908h-25.29M1325.02 457.121v-25.292M1337.67 444.48h-25.29M1325.02 370.685v-25.292M1337.67 358.044h-25.29M1411.45 457.121v-25.292M1424.1 444.48h-25.29M1411.45 370.685v-25.292M1424.1 358.044h-25.29M806.438 284.258v-25.292M819.087 271.617h-25.292M806.438 197.822V172.53M819.087 185.182h-25.292M892.868 284.258v-25.292M905.517 271.617h-25.292M979.298 284.258v-25.292M991.946 271.617h-25.292M892.868 197.822V172.53M905.517 185.182h-25.292M979.298 197.822V172.53M991.946 185.182h-25.292M1065.74 284.258v-25.292M1078.38 271.617h-25.29M1065.74 197.822V172.53M1078.38 185.182h-25.29M1152.17 284.258v-25.292M1164.81 271.617h-25.29M1238.59 284.258v-25.292M1251.24 271.617h-25.29M1152.17 197.822V172.53M1164.81 185.182h-25.29M1238.59 197.822V172.53M1251.24 185.182h-25.29M806.438 111.395V86.103M819.087 98.754h-25.292M806.438 24.959V-.333M819.087 12.318h-25.292M892.868 111.395V86.103M905.517 98.754h-25.292M979.298 111.395V86.103M991.946 98.754h-25.292M892.868 24.959V-.333M905.517 12.318h-25.292M979.298 24.959V-.333M991.946 12.318h-25.292M1065.74 111.395V86.103M1078.38 98.754h-25.29M1065.74 24.959V-.333M1078.38 12.318h-25.29M1152.17 111.395V86.103M1164.81 98.754h-25.29M1238.59 111.395V86.103M1251.24 98.754h-25.29M1152.17 24.959V-.333M1164.81 12.318h-25.29M1238.59 24.959V-.333M1251.24 12.318h-25.29M1325.02 284.258v-25.292M1337.67 271.618h-25.29M1325.02 197.823v-25.292M1337.67 185.182h-25.29M1411.45 284.258v-25.292M1424.1 271.618h-25.29M1411.45 197.823v-25.292M1424.1 185.182h-25.29M1325.02 111.395V86.103M1337.67 98.754h-25.29M1325.02 24.96V-.334M1337.67 12.319h-25.29M1411.45 111.395V86.103M1424.1 98.754h-25.29M1411.45 24.96V-.334M1424.1 12.319h-25.29M28.54 889.144v-25.292M41.189 876.503H15.896M28.54 802.708v-25.292M41.189 790.067H15.896M114.97 889.144v-25.292M127.618 876.503h-25.292M201.399 889.144v-25.292M214.048 876.503h-25.292M114.97 802.708v-25.292M127.618 790.067h-25.292M201.399 802.708v-25.292M214.048 790.067h-25.292M287.829 889.144v-25.292M300.478 876.503h-25.292M287.829 802.708v-25.292M300.478 790.067h-25.292M374.259 889.144v-25.292M386.907 876.503h-25.292M460.688 889.144v-25.292M473.337 876.503h-25.292M374.259 802.708v-25.292M386.907 790.067h-25.292M460.688 802.708v-25.292M473.337 790.067h-25.292M547.126 889.144v-25.292M559.774 876.503h-25.292M547.126 802.708v-25.292M559.774 790.067h-25.292M633.556 889.144v-25.292M646.204 876.503h-25.292M719.985 889.144v-25.292M732.634 876.503h-25.292M633.556 802.708v-25.292M646.204 790.067h-25.292M719.985 802.708v-25.292M732.634 790.067h-25.292M806.438 889.142V863.85M819.079 876.501h-25.292M806.438 802.706v-25.292M819.079 790.065h-25.292M892.868 889.142V863.85M905.509 876.501h-25.292M979.298 889.142V863.85M991.938 876.501h-25.291M892.868 802.706v-25.292M905.509 790.065h-25.292M979.298 802.706v-25.292M991.938 790.065h-25.291M1065.74 889.142V863.85M1078.38 876.501h-25.3M1065.74 802.706v-25.292M1078.38 790.065h-25.3M1152.17 889.142V863.85M1164.81 876.501h-25.3M1238.6 889.142V863.85M1251.24 876.501h-25.29M1152.17 802.706v-25.292M1164.81 790.065h-25.3M1238.6 802.706v-25.292M1251.24 790.065h-25.29M1325.03 889.142V863.85M1337.67 876.501h-25.29M1325.03 802.706v-25.292M1337.67 790.065h-25.29M1411.46 889.142V863.85M1424.1 876.501h-25.29M1411.46 802.706v-25.292M1424.1 790.065h-25.29"/></svg>