<svg xmlns="http://www.w3.org/2000/svg" width="575" height="1095" fill="none" viewBox="0 0 575 1095"><g clip-path="url(#a)"><path fill="#ffff78" d="M287.498 262.248c98.981 0 188.986 18.451 255.914 48.579.913.155 1.943.135 3.006 0 5.843-.742 11.981-1.166 17.172 1.618l8.668 4.65c5.03 2.697 8.106 7.751 10.357 12.997.328.765.689 1.452 1.077 2 48.934 30.373 78.057 68.476 78.057 109.846q0 1.397-.044 2.787h.044v648.385H-86.754V444.725h.045a88 88 0 0 1-.045-2.787c0-47.166 37.849-90.084 99.758-122.143l-.006.003c1.097-.881 2.033-2.295 2.81-3.877 2.711-5.511 6.365-10.802 12.002-13.239l10.764-4.652c5.474-2.366 11.639-1.605 17.25.416 1.5.54 2.928.894 4.022.857 63.072-23.24 142.001-37.055 227.652-37.055"/><mask id="b" width="753" height="835" x="-89" y="260" maskUnits="userSpaceOnUse" style="mask-type:luminance"><path fill="#fff" d="M663.048 260.715H-88.285V1095h751.333z"/><path fill="#000" d="M287.502 262.248c98.981 0 188.986 18.451 255.914 48.579.913.155 1.943.135 3.006 0 5.843-.742 11.981-1.166 17.172 1.618l8.667 4.65c5.031 2.697 8.107 7.751 10.358 12.997.328.765.689 1.452 1.077 2 48.934 30.373 78.057 68.476 78.057 109.846q0 1.397-.045 2.787h.045v648.385H-86.75V444.725h.045a88 88 0 0 1-.045-2.787c0-47.166 37.849-90.084 99.758-122.143l-.006.003c1.097-.881 2.033-2.295 2.81-3.877 2.711-5.511 6.365-10.802 12.002-13.239l10.764-4.652c5.474-2.366 11.639-1.605 17.25.416 1.5.54 2.928.894 4.021.857 63.073-23.24 142.002-37.055 227.653-37.055"/></mask><g mask="url(#b)"><path fill="#000" d="m543.413 310.825-.213.474.061.028.066.01zm40.279 21.265-.425.301.062.086.088.055zm78.013 112.633-.52-.015-.017.535h.537zm.044 0h.52v-.519h-.52zm0 648.377v.52h.52v-.52zm-748.503 0h-.52v.52h.52zm0-648.377v-.519h-.52v.519zm.045 0v.52h.537l-.017-.535zm99.713-124.929.24.461-.446-.938zm-.006.003-.325-.405.531.883zm46.848-20.495.018.52.083-.004.079-.029zm227.652-37.056v.52c98.923 0 188.853 18.442 255.702 48.533l.213-.474.214-.474c-67.008-30.163-157.09-48.624-256.129-48.624zm255.915 48.579-.086.512c.978.166 2.062.143 3.157.003l-.066-.515-.064-.517c-1.034.132-2.009.148-2.854.005zm3.005 0 .066.515c5.85-.743 11.831-1.134 16.859 1.562l.247-.459.245-.457c-5.353-2.871-11.647-2.418-17.481-1.678zm17.172 1.618-.247.459 8.67 4.648.245-.457.245-.458-8.668-4.649zm8.668 4.65-.245.457c4.869 2.613 7.887 7.529 10.124 12.746l.478-.206.477-.204c-2.261-5.277-5.398-10.468-10.589-13.251zm10.357 12.997-.478.206c.337.784.715 1.508 1.13 2.095l.425-.301.425-.3c-.361-.508-.704-1.16-1.025-1.904zm1.077 2-.275.442c48.872 30.333 77.813 68.298 77.813 109.405h1.039c0-41.636-29.303-79.875-78.303-110.288zm78.057 109.847h-.519a88 88 0 0 1-.045 2.771l.52.015.52.017q.044-1.398.044-2.803zm-.044 2.786v.52h.044v-1.039h-.044zm.044 0h-.519V1093.1h1.039V444.723zm0 648.377v-.52H-86.754v1.04H661.75zm-748.503 0h.52V444.723h-1.04V1093.1zm0-648.377v.52h.045v-1.039h-.045zm.045 0 .52-.015a88 88 0 0 1-.045-2.771h-1.04q0 1.405.046 2.803zm-.045-2.786h.52c0-46.866 37.621-89.651 99.477-121.682l-.239-.461-.239-.462c-61.962 32.086-100.038 75.14-100.038 122.605zm99.758-122.143-.206-.477-.03.015-.009.003q-.002.002-.003.002l.008-.003.028-.014.206.477.207.478.03-.015q.006-.003.008-.005l.004-.001-.008.004-.029.014zm-.006.003.326.406c1.185-.954 2.16-2.446 2.951-4.053l-.466-.23-.466-.23c-.766 1.556-1.66 2.891-2.67 3.702zm2.81-3.877.467.23c2.697-5.483 6.28-10.631 11.742-12.993l-.206-.477-.207-.477c-5.813 2.512-9.537 7.947-12.261 13.487zm12.003-13.24.206.477 10.763-4.651-.206-.477-.206-.477-10.764 4.651zm10.763-4.651.206.477c5.303-2.292 11.318-1.571 16.868.428l.176-.49.176-.489c-5.672-2.043-11.987-2.843-17.632-.403zm17.25.415-.176.49c1.513.544 3.019.927 4.215.888l-.017-.52-.018-.52c-.99.033-2.341-.292-3.828-.827zm4.022.858.18.487c63.006-23.217 141.875-37.023 227.472-37.023v-1.039c-85.703 0-164.695 13.822-227.832 37.087z"/></g><path fill="#ffdf78" d="M529.905 513.608c52.713 2.876 97.577-9.51 100.206-27.665s-37.971-35.205-90.685-38.081c-52.713-2.876-97.577 9.51-100.206 27.665s37.971 35.205 90.685 38.081"/><path fill="#ffff78" d="M539.129 502.29c49.1 2.679 90.761-7.975 93.052-23.796s-35.654-30.818-84.754-33.497-90.761 7.975-93.052 23.796 35.654 30.818 84.754 33.497"/><path stroke="#000" d="M481.137 450.834c-25.432 5.115-42.34 14.641-42.762 26.125-.681 18.512 41.744 35.1 94.757 37.049s96.54-11.479 97.22-29.993c2.821 10.696 11.599 28.567 31.333 33.442"/><path stroke="#000" d="M438.708 474.254c-1.795 5.806-8.329 18.294-20.106 21.806"/><path stroke="#000" stroke-width=".546" d="M169.613 445.342c2.84 4.877 11.644 15.261 24.149 17.79"/><path fill="#ffdf78" d="M111.073 482.636c-35.44 2.685-65.463-6.65-67.056-20.851-1.593-14.202 25.847-27.892 61.288-30.578s65.463 6.649 67.056 20.851-25.846 27.892-61.288 30.578"/><path fill="#ffff78" d="M105.149 476.125c-33.012 2.502-60.9-5.518-62.29-17.913s24.243-24.471 57.255-26.973 60.9 5.518 62.29 17.913-24.244 24.471-57.255 26.973"/><path stroke="#000" stroke-width=".546" d="M106.373 430.658c35.63-2.337 65.283 7.502 66.232 21.975s-27.165 28.102-62.795 30.439-65.283-7.502-66.232-21.975c-.332 4.023-3.412 13.462-13.074 19.029"/><path stroke="#000" stroke-width=".34" d="M579.43 326.624c-1.268 1.929-7.879-.178-14.765-4.707s-11.44-9.763-10.172-11.692M544.362 310.76c-1.377 1.776 2.498 7.231 9.242 13.562M46.963 295.988c.572 1.316-4.809 4.926-12.02 8.064-7.21 3.136-13.519 4.613-14.091 3.296M13.238 319.06c.824 2.465 8.808 2.014 17.832-1.004 3.58-1.198 6.787-2.62 9.3-4.052"/><path fill="#000" d="M415.15 272.127c40.561 8.439 79.014 18.514 114.842 29.964 5.055 4.073 7.559 7.955 6.742 11.223-2.49 9.965-34.928 10.437-72.452 1.055-37.522-9.383-65.922-25.067-63.431-35.033.94-3.763 6.154-6.172 14.299-7.209"/><path fill="#dce6de" d="m463.151 279.446 3.64-4.175 16.171 3.48 1.024 5.018 3.634.663 1.394 6.3 3.945.661 2.109 10.214-51.603-10.213 6.589-8.373 3.877.768 4.6-5.257z"/><path fill="#000" d="m496.852 276.988 1.952-.351 4.242 23.3-2.729-.549zM452.055 266.962l-1.537-1.255-13.858 23.004 2.825.581z"/><path fill="#ffff78" d="m450.508 232.487 8.356 4.665 7.101 6.744 7.498 6.429 13.064 3.176 10.082 1.279 6.674-.443 10.676-13.636 6.378-.425-1.46 11.072 5.76-.384 5.395 4.132.398 5.969-2.04 2.331-8.356 5.323 9.377 10.042-7.381 2.829-15.671-6.678-5.351 2.01-15.941 2.281-2.114-.456-16.172-3.478-2.49-.537-11.295-4.857-14.902-18.76 1.959-14.518-1.682-6.961 4.079-4.66 6.069-.404z"/><path fill="#fff" d="m506.363 274.913 9.634-3.619 4.041-2.573 9.379 10.043-7.383 2.828zM509.946 253.653l-6.676.445 10.675-13.636 6.378-.423-1.459 11.07z"/><path fill="#000" d="m438.375 229.638 6.311-.42 3.835-4.644-6.067.404zM530.036 255.098l-5.395-4.131.484 7.283 5.309 2.817z"/><path fill="#fa673a" d="m473.464 250.329-7.498-6.431-5.896 11.366 8.495 6.751z"/><path fill="#ffb195" fill-opacity=".91" d="m450.383 232.516-1.814-7.58-3.842 4.614 1.867 6.428z"/><path fill="#c1f174" d="m512.712 262.246-12.38 4.483.679 10.197 5.352-2.012 9.634-3.62z"/><path stroke="#000" stroke-width=".394" d="m440.053 236.597 6.555-.437m-6.555.437-1.959 14.518m1.959-14.518-1.682-6.961m8.237 6.524 3.9-3.673m-3.9 3.673 4.869 10.893m-4.869-10.893-1.926-6.942m-6.588 21.897 14.902 18.76m-14.902-18.76 13.383-4.062m-13.106-17.417 6.311-.418m-6.311.418 4.079-4.66 6.069-.404m1.989 7.915 8.356 4.665m-8.356-4.665-1.989-7.915m2.958 22.481 7.387-9.901m-7.387 9.901 8.592 8.208m-15.387-26.043 3.837-4.646m10.345 12.58 7.101 6.744m0 0 7.498 6.429m-7.498-6.429-5.896 11.365m13.394-4.936 13.064 3.176m-13.064-3.176-4.899 11.686m-8.495-6.75-7.073 14.614m7.073-14.614 8.495 6.75m17.963-8.51 10.082 1.279m-10.082-1.279-.13 12.689m-17.833-4.179-4.273 12.721m4.273-12.721 17.833 4.179m10.212-11.41 3.72 11.945m-3.72-11.945 6.674-.443m-16.886 11.853-1.33 13.013m1.33-13.013 13.932.535m0 0 .679 10.197m-.679-10.197 12.38-4.481m-9.426-7.907 6.677-.445m-6.677.445 10.676-13.636 6.378-.425-1.46 11.072m-8.917 2.544 2.749 8.352m-2.749-8.352 8.917-2.544m-6.168 10.896 3.284 9.048m-3.284-9.048 12.412-3.997m-6.244-6.899 5.76-.384m0 0 5.395 4.132.398 5.969m-5.793-10.101.484 7.283m5.309 2.818-2.04 2.331-8.356 5.323m10.396-7.654-5.309-2.818m-5.087 10.472-4.041 2.573m4.041-2.573 9.377 10.042-7.381 2.829-15.671-6.678m9.634-3.62-9.634 3.62m0 0-5.351 2.01m0 0-15.941 2.281m0 0-2.114-.456m0 0-16.172-3.478m16.172 3.478 1.024 5.018m-19.686-9.033-11.295-4.857m11.295 4.857 2.49.537m0 0-3.64 4.173m0 0 20.836 4.323m-20.836-4.323-4.62-.914-4.6 5.257m30.056-.02 3.633.664 1.393 6.3m-35.082-6.944 35.082 6.944m-35.082-6.944-3.876-.767-6.589 8.372 51.601 10.214-2.108-10.215-3.946-.66"/><path fill="#000" stroke="#000" stroke-width=".394" d="m472.469 258.557-5.692 16.724 16.198 3.434 1.667-17.788a4.63 4.63 0 0 0-2.51-4.557 10.2 10.2 0 0 0-5.29-1.084l-.121.008a4.83 4.83 0 0 0-4.252 3.263Z"/></g><defs><clipPath id="a"><path fill="#fff" d="M0 0h575v1095H0z"/></clipPath></defs></svg>