<svg xmlns="http://www.w3.org/2000/svg" width="868" height="868" fill="none" viewBox="0 0 868 868"><circle cx="434" cy="434" r="433.5" fill="#ffcccb" stroke="#000"/><path stroke="#000" stroke-width=".5" d="M434 .25c18.529 0 36.228 12.069 52.365 34.004 16.134 21.93 30.674 53.68 42.889 92.935 24.429 78.509 39.543 186.983 39.543 306.811s-15.114 228.302-39.543 306.811c-12.215 39.255-26.755 71.005-42.889 92.935-16.137 21.936-33.836 34.004-52.365 34.004s-36.228-12.068-52.365-34.004c-16.134-21.93-30.674-53.68-42.889-92.935-24.429-78.509-39.543-186.983-39.543-306.811s15.114-228.302 39.543-306.811c12.215-39.255 26.755-71.005 42.889-92.935C397.772 12.319 415.471.25 434 .25Z"/><path stroke="#000" stroke-width=".5" d="M740.706 127.292c13.102 13.102 17.084 34.151 12.984 61.073-4.099 26.915-16.268 59.647-35.389 96.042-38.239 72.788-104.255 160.178-188.986 244.909S357.194 680.063 284.406 718.302c-36.396 19.121-69.127 31.29-96.043 35.389-26.921 4.1-47.97.119-61.072-12.983s-17.083-34.151-12.983-61.073c4.099-26.915 16.268-59.647 35.388-96.042 38.24-72.788 104.256-160.178 188.987-244.909s172.121-150.747 244.909-188.987c36.395-19.12 69.127-31.289 96.042-35.388 26.922-4.1 47.97-.119 61.072 12.983Z"/><path stroke="#000" stroke-width=".5" d="M867.75 434c0 18.529-12.068 36.228-34.004 52.365-21.93 16.134-53.68 30.674-92.935 42.889-78.509 24.429-186.983 39.543-306.811 39.543s-228.302-15.114-306.811-39.543c-39.255-12.215-71.005-26.755-92.935-42.889C12.319 470.228.25 452.529.25 434s12.069-36.228 34.004-52.365c21.93-16.134 53.68-30.674 92.935-42.889 78.509-24.429 186.983-39.543 306.811-39.543s228.302 15.114 306.811 39.543c39.255 12.215 71.005 26.755 92.935 42.889 21.936 16.137 34.004 33.836 34.004 52.365Z"/><circle cx="434" cy="433.951" r="134.375" stroke="#000" stroke-width=".5"/><path stroke="#000" stroke-width=".5" d="M740.706 740.706c-13.102 13.102-34.151 17.084-61.073 12.984-26.915-4.099-59.647-16.268-96.042-35.389-72.788-38.239-160.178-104.255-244.909-188.986S187.935 357.194 149.696 284.406c-19.121-36.396-31.29-69.127-35.389-96.043-4.1-26.921-.118-47.97 12.984-61.072s34.15-17.083 61.072-12.983c26.915 4.099 59.647 16.268 96.042 35.388 72.788 38.24 160.178 104.256 244.909 188.987s150.747 172.121 188.987 244.909c19.12 36.395 31.289 69.127 35.388 96.042 4.1 26.922.119 47.97-12.983 61.072Z"/></svg>