<svg width="32" height="32" viewBox="0 0 32 32" fill="none" xmlns="http://www.w3.org/2000/svg">
<g clip-path="url(#clip0_1062_34080)">
<path d="M30.4038 11.2935V13.1715H28.8075V15.0619H30.4038V16.9399H28.8075V18.8179H30.4038V20.7082H28.8075V22.5862H32.0001V7.52515H30.4038V9.40315H28.8075V11.2935H30.4038Z" fill="#0000FF"/>
<path d="M25.6042 7.52515H28.8074V9.40315H25.6042V7.52515Z" fill="#0000FF"/>
<path d="M11.1951 11.2918H14.3982V13.1698H16.0051V15.0602H19.1977V16.9382H16.0051V18.8162H19.1977V20.7065H16.0051V22.5845H19.1977V24.4749H16.0051V26.3529H19.1977V28.2309H22.4009V26.3529H25.604V24.4749H28.8071V22.5845H25.604V20.7065H28.8071V18.8162H25.604V16.9382H28.8071V15.0602H25.604V13.1698H28.8071V11.2918H25.604V9.40148H22.4009V7.52348H19.1977V5.64548H16.0051V3.75513H12.8019V5.64548H9.59877V7.52348H6.39563V9.40148H11.1951V11.2918Z" fill="#0000FF"/>
<path d="M22.401 1.87744H25.6041V3.75544H22.401V1.87744Z" fill="#0000FF"/>
<path d="M25.205 3.58228H28.4081V5.46027H25.205V3.58228Z" fill="#0000FF"/>
<path d="M28.3557 4.81763H31.5589V6.69563H28.3557V4.81763Z" fill="#0000FF"/>
<path d="M19.198 0H22.4011V1.878H19.198V0Z" fill="#0000FF"/>
<path d="M16.0051 1.87744H19.1978V3.75544H16.0051V1.87744Z" fill="#0000FF"/>
<path d="M16.0051 28.2324H19.1978V30.1228H16.0051V28.2324Z" fill="#0000FF"/>
<path d="M14.3983 28.2317H16.0052V26.3537H14.3983V24.4757H16.0052V22.5854H14.3983V20.7074H16.0052V18.817H14.3983V16.939H16.0052V15.061H12.802V16.939H9.59888V18.817H12.802V20.7074H9.59888V22.5854H12.802V24.4757H9.59888V26.3537H12.802V28.2317H9.59888V30.1221H12.802V32.0001H16.0052V30.1221H14.3983V28.2317Z" fill="#0000FF"/>
<path d="M6.39563 26.3542H9.59878V28.2322H6.39563V26.3542Z" fill="#0000FF"/>
<path d="M6.39563 15.061H9.59878V16.939H6.39563V15.061Z" fill="#0000FF"/>
<path d="M6.39563 22.5842H9.59878V24.4746H6.39563V22.5842Z" fill="#0000FF"/>
<path d="M6.39563 18.8167H9.59878V20.707H6.39563V18.8167Z" fill="#0000FF"/>
<path d="M3.19263 24.4749H6.39577V26.3529H3.19263V24.4749Z" fill="#0000FF"/>
<path d="M3.19263 20.7065H6.39577V22.5845H3.19263V20.7065Z" fill="#0000FF"/>
<path d="M3.19263 16.939H6.39577V18.817H3.19263V16.939Z" fill="#0000FF"/>
<path d="M3.19263 13.1704H6.39577V15.0608H3.19263V13.1704Z" fill="#0000FF"/>
<path d="M3.19263 9.40283H6.39577V11.2932H3.19263V9.40283Z" fill="#0000FF"/>
<path d="M3.19264 22.5862H1.59632V20.7082H3.19264V18.8178H1.59632V16.9398H3.19264V15.0618H1.59632V13.1715H3.19264V11.2935H0V24.4765H3.19264V22.5862Z" fill="#0000FF"/>
</g>
<defs>
<clipPath id="clip0_1062_34080">
<rect width="32" height="32" fill="white"/>
</clipPath>
</defs>
</svg>
