<svg width="32" height="32" viewBox="0 0 32 32" fill="none" xmlns="http://www.w3.org/2000/svg">
<g clip-path="url(#clip0_1062_34115)">
<path d="M30.48 25.9001H28.95V27.4301H32V21.3301H30.48V25.9001Z" fill="#0000FF"/>
<path d="M28.95 19.8101H30.48V21.3301H28.95V19.8101Z" fill="#0000FF"/>
<path d="M27.43 24.3799H28.95V25.8999H27.43V24.3799Z" fill="#0000FF"/>
<path d="M22.86 22.8601V27.4301H24.38V28.9501H25.91V30.4801H21.34V32.0001H27.43V27.4301H25.91V24.3801H27.43V22.8601H22.86Z" fill="#0000FF"/>
<path d="M19.81 28.95H21.34V30.4799H19.81V28.95Z" fill="#0000FF"/>
<path d="M19.81 19.8101H21.34V21.3301H19.81V19.8101Z" fill="#0000FF"/>
<path d="M18.29 22.8601H19.81V28.9501H18.29V22.8601Z" fill="#0000FF"/>
<path d="M18.29 18.28H19.81V19.81H18.29V18.28Z" fill="#0000FF"/>
<path d="M16.76 21.3301H18.29V22.8601H16.76V21.3301Z" fill="#0000FF"/>
<path d="M16.76 16.76H18.29V18.28H16.76V16.76Z" fill="#0000FF"/>
<path d="M15.24 19.8101H16.76V21.3301H15.24V19.8101Z" fill="#0000FF"/>
<path d="M15.24 15.24H16.76V16.76H15.24V15.24Z" fill="#0000FF"/>
<path d="M13.72 18.28H15.24V19.81H13.72V18.28Z" fill="#0000FF"/>
<path d="M13.72 13.71H15.24V15.24H13.72V13.71Z" fill="#0000FF"/>
<path d="M12.19 16.76H13.72V18.28H12.19V16.76Z" fill="#0000FF"/>
<path d="M12.19 12.1899H13.72V13.7099H12.19V12.1899Z" fill="#0000FF"/>
<path d="M10.67 15.24H12.19V16.76H10.67V15.24Z" fill="#0000FF"/>
<path d="M10.67 10.6699H12.19V12.1899H10.67V10.6699Z" fill="#0000FF"/>
<path d="M9.15002 13.71H10.67V15.24H9.15002V13.71Z" fill="#0000FF"/>
<path d="M3.04999 12.1899H9.14999V13.7099H3.04999V12.1899Z" fill="#0000FF"/>
<path d="M6.09998 3.05005H7.61998V4.57005H6.09998V3.05005Z" fill="#0000FF"/>
<path d="M10.67 1.52V3.05H12.19V9.14H13.72V10.67H15.24V12.19H16.76V13.71H18.29V15.24H19.81V16.76H21.34V18.28H22.86V19.81H28.95V18.28H24.38V16.76H22.86V15.24H21.34V13.71H19.81V12.19H18.29V10.67H16.76V9.14H15.24V3.05H13.72V1.52H12.19V0H4.57001V3.05H6.10001V1.52H10.67Z" fill="#0000FF"/>
<path d="M1.53003 10.6699H3.05003V12.1899H1.53003V10.6699Z" fill="#0000FF"/>
<path d="M1.53 6.09007H3.05V7.62007H4.57V9.14007H9.15V4.57007H7.62V7.62007H6.1V6.09007H4.57V4.57007H0V10.6701H1.53V6.09007Z" fill="#0000FF"/>
</g>
<defs>
<clipPath id="clip0_1062_34115">
<rect width="32" height="32" fill="white"/>
</clipPath>
</defs>
</svg>
