<svg width="32" height="32" viewBox="0 0 32 32" fill="none" xmlns="http://www.w3.org/2000/svg">
<path d="M1.52 9.14005H30.48V28.9501H32V3.05005H30.48V7.62005H1.52V3.05005H0V28.9501H1.52V9.14005Z" fill="#0000FF"/>
<path d="M1.52002 28.95H30.48V30.4799H1.52002V28.95Z" fill="#0000FF"/>
<path d="M4.57001 12.1899V25.9099H27.43V12.1899H4.57001ZM13.71 19.8099H12.19V21.3299H10.67V22.8599H9.14001V21.3299H10.67V19.8099H12.19V18.2899H10.67V16.7599H9.14001V15.2399H10.67V16.7599H12.19V18.2899H13.71V19.8099ZM22.86 19.8099H16.76V18.2899H22.86V19.8099Z" fill="#0000FF"/>
<path d="M9.14001 4.57007H10.67V6.10007H9.14001V4.57007Z" fill="#0000FF"/>
<path d="M6.09998 4.57007H7.61998V6.10007H6.09998V4.57007Z" fill="#0000FF"/>
<path d="M3.04999 4.57007H4.56999V6.10007H3.04999V4.57007Z" fill="#0000FF"/>
<path d="M1.52002 1.52002H30.48V3.05002H1.52002V1.52002Z" fill="#0000FF"/>
</svg>
