<svg width="40" height="21" viewBox="0 0 40 21" fill="none" xmlns="http://www.w3.org/2000/svg">
<rect width="11.7073" height="2" fill="white"/>
<rect y="2" width="2.92683" height="8" fill="white"/>
<rect x="2.92682" y="7" width="5.85366" height="3" fill="white"/>
<rect x="8.78052" y="9" width="1.95122" height="2" fill="white"/>
<rect x="8.78052" y="11" width="2.92683" height="7" fill="white"/>
<rect y="18" width="10.7317" height="1" fill="white"/>
<rect y="14" width="2.92683" height="4" fill="white"/>
<rect x="1.95123" y="19" width="6.82927" height="2" fill="white"/>
<rect x="28.2927" width="2.92683" height="2" fill="white"/>
<rect x="14.6342" width="2.92683" height="2" fill="white"/>
<rect width="2.92683" height="2" transform="matrix(1 0 0 -1 28.2927 21)" fill="white"/>
<rect width="2.92683" height="2" transform="matrix(1 0 0 -1 14.6342 21)" fill="white"/>
<rect width="2.92683" height="2" transform="matrix(-1 0 0 1 40 0)" fill="white"/>
<rect width="2.92683" height="2" transform="matrix(-1 0 0 1 26.3415 0)" fill="white"/>
<rect x="29.2683" y="2" width="1.95122" height="4" fill="white"/>
<rect x="15.6097" y="2" width="1.95122" height="4" fill="white"/>
<rect x="40" y="21" width="2.92683" height="2" transform="rotate(180 40 21)" fill="white"/>
<rect x="26.3415" y="21" width="2.92683" height="2" transform="rotate(180 26.3415 21)" fill="white"/>
<rect width="1.95122" height="4" transform="matrix(1 0 0 -1 29.2683 19)" fill="white"/>
<rect width="1.95122" height="4" transform="matrix(1 0 0 -1 15.6097 19)" fill="white"/>
<rect x="31.2195" y="3" width="0.97561" height="5" fill="white"/>
<rect x="17.561" y="3" width="0.97561" height="5" fill="white"/>
<rect width="1.95122" height="4" transform="matrix(-1 0 0 1 39.0244 2)" fill="white"/>
<rect width="1.95122" height="4" transform="matrix(-1 0 0 1 25.3658 2)" fill="white"/>
<rect x="39.0244" y="19" width="1.95122" height="4" transform="rotate(180 39.0244 19)" fill="white"/>
<rect x="25.3658" y="19" width="1.95122" height="4" transform="rotate(180 25.3658 19)" fill="white"/>
<rect width="0.97561" height="5" transform="matrix(1 0 0 -1 31.2195 18)" fill="white"/>
<rect width="0.97561" height="5" transform="matrix(1 0 0 -1 17.561 18)" fill="white"/>
<rect width="0.97561" height="5" transform="matrix(-1 0 0 1 37.0732 3)" fill="white"/>
<rect width="0.97561" height="5" transform="matrix(-1 0 0 1 23.4146 3)" fill="white"/>
<rect x="37.0732" y="18" width="0.97561" height="5" transform="rotate(180 37.0732 18)" fill="white"/>
<rect x="23.4146" y="18" width="0.97561" height="5" transform="rotate(180 23.4146 18)" fill="white"/>
<rect x="32.1951" y="7" width="4.87805" height="1" fill="white"/>
<rect x="18.5366" y="7" width="4.87805" height="1" fill="white"/>
<rect x="32.1951" y="13" width="4.87805" height="1" fill="white"/>
<rect x="18.5366" y="13" width="4.87805" height="1" fill="white"/>
<rect x="32.1951" y="8" width="3.90244" height="1" fill="white"/>
<rect x="18.5366" y="8" width="3.90244" height="1" fill="white"/>
<rect x="32.1951" y="12" width="3.90244" height="1" fill="white"/>
<rect x="18.5366" y="12" width="3.90244" height="1" fill="white"/>
<rect x="32.1951" y="9" width="3.90244" height="3" fill="white"/>
<rect x="18.5366" y="9" width="3.90244" height="3" fill="white"/>
<rect x="30.2439" y="6" width="0.97561" height="2" fill="white"/>
<rect x="16.5854" y="6" width="0.97561" height="2" fill="white"/>
<rect x="37.0732" y="6" width="0.97561" height="2" fill="white"/>
<rect x="23.4146" y="6" width="0.97561" height="2" fill="white"/>
<rect x="37.0732" y="13" width="0.97561" height="2" fill="white"/>
<rect x="23.4146" y="13" width="0.97561" height="2" fill="white"/>
<rect x="30.2439" y="13" width="0.97561" height="2" fill="white"/>
<rect x="16.5854" y="13" width="0.97561" height="2" fill="white"/>
</svg>
