<svg width="32" height="32" viewBox="0 0 32 32" fill="none" xmlns="http://www.w3.org/2000/svg">
<path d="M3.04999 32H28.95V7.62H27.43V6.1H25.91V4.57H24.38V3.05H22.86V1.52H21.33V0H3.04999V32ZM4.56999 1.52H19.81V9.14H27.43V30.48H4.56999V1.52Z" fill="#0000FF"/>
<path d="M7.62 19.8101V21.3301H18.29V24.3801H19.81V21.3301H22.86V24.3801H24.38V19.8101H7.62Z" fill="#0000FF"/>
<path d="M22.86 12.1899H21.33V13.7099H19.81V15.2399H21.33V16.7599H22.86V15.2399H24.38V13.7099H22.86V12.1899Z" fill="#0000FF"/>
<path d="M19.81 24.3799H22.86V25.8999H19.81V24.3799Z" fill="#0000FF"/>
<path d="M9.14 16.7599H10.67V15.2399H12.19V13.7099H10.67V12.1899H9.14V13.7099H7.62V15.2399H9.14V16.7599Z" fill="#0000FF"/>
</svg>
