<svg width="32" height="32" viewBox="0 0 32 32" fill="none" xmlns="http://www.w3.org/2000/svg">
<g clip-path="url(#clip0_1062_34156)">
<path d="M30.48 12.1899H32V19.8099H30.48V12.1899Z" fill="#0000FF"/>
<path d="M28.95 19.8101H30.4799V22.8501H28.95V19.8101Z" fill="#0000FF"/>
<path d="M27.4301 22.8501H28.9501V25.9001H27.4301V22.8501Z" fill="#0000FF"/>
<path d="M27.4301 6.09009H28.9501V9.14009H27.4301V6.09009Z" fill="#0000FF"/>
<path d="M25.91 25.8999H27.43V27.4199H25.91V25.8999Z" fill="#0000FF"/>
<path d="M25.91 4.57007H27.43V6.09007H25.91V4.57007Z" fill="#0000FF"/>
<path d="M22.86 27.4199H25.91V28.9499H22.86V27.4199Z" fill="#0000FF"/>
<path d="M22.86 3.04004H25.91V4.57004H22.86V3.04004Z" fill="#0000FF"/>
<path d="M19.8101 28.95H22.8601V30.4699H19.8101V28.95Z" fill="#0000FF"/>
<path d="M19.8101 1.52002H22.8601V3.04002H19.8101V1.52002Z" fill="#0000FF"/>
<path d="M12.1899 30.47H19.8099V32H12.1899V30.47Z" fill="#0000FF"/>
<path d="M13.72 22.8501H19.81V24.3801H13.72V22.8501Z" fill="#0000FF"/>
<path d="M12.1899 0H19.8099V1.52H12.1899V0Z" fill="#0000FF"/>
<path d="M12.1899 24.3301H13.7199V25.8501H12.1899V24.3301Z" fill="#0000FF"/>
<path d="M9.14001 28.95H12.19V30.4699H9.14001V28.95Z" fill="#0000FF"/>
<path d="M9.14001 1.52002H12.19V3.04002H9.14001V1.52002Z" fill="#0000FF"/>
<path d="M6.09998 27.4199H9.13998V28.9499H6.09998V27.4199Z" fill="#0000FF"/>
<path d="M6.09998 3.04004H9.13998V4.57004H6.09998V3.04004Z" fill="#0000FF"/>
<path d="M4.56995 25.8999H6.09995V27.4199H4.56995V25.8999Z" fill="#0000FF"/>
<path d="M4.56995 4.57007H6.09995V6.09007H4.56995V4.57007Z" fill="#0000FF"/>
<path d="M3.05005 22.8501H4.57005V25.9001H3.05005V22.8501Z" fill="#0000FF"/>
<path d="M30.48 12.1899H28.95V9.13989H30.48V12.1899Z" fill="#0000FF"/>
<path d="M1.53003 9.13989H3.05003V12.1899H1.53003V9.13989Z" fill="#0000FF"/>
<path d="M3.05005 6.09009H4.57005V9.14009H3.05005V6.09009Z" fill="#0000FF"/>
<path d="M1.53003 19.8101H3.05003V22.8501H1.53003V19.8101Z" fill="#0000FF"/>
<path d="M0 12.1899H1.53V19.8099H0V12.1899Z" fill="#0000FF"/>
<rect x="9" y="9" width="5" height="5" fill="#0000FF"/>
<path d="M11.5 12.75H13.4125V14.65H11.5V12.75Z" fill="#0000FF"/>
<rect x="18" y="9" width="5" height="5" fill="#0000FF"/>
<path d="M20.5 12.75H22.4125V14.65H20.5V12.75Z" fill="#0000FF"/>
</g>
<defs>
<clipPath id="clip0_1062_34156">
<rect width="32" height="32" fill="white"/>
</clipPath>
</defs>
</svg>
