<?xml version="1.0" encoding="UTF-8"?>
<svg xmlns="http://www.w3.org/2000/svg" width="200" height="38" viewBox="0 0 200 38" fill="none">
  <g clip-path="url(#clip0_877_5349)">
    <path d="M49.6544 9.25366C52.1393 9.25366 53.7312 11.2747 53.2128 13.7735L50.3099 27.6064C50.2711 28.0702 50.3944 28.486 50.6844 28.8557C50.9722 29.2255 51.365 29.4116 51.8629 29.4116H58.1299L61.6266 13.7758C62.1793 11.2724 64.6322 9.25366 67.1239 9.25366C69.6384 9.25366 71.2395 11.3092 70.6959 13.8377L65.6028 37.4637H57.4014L57.374 37.4912H48.8414C46.3564 37.4912 44.3626 36.529 42.8621 34.6043C41.3434 32.6981 40.8066 30.4681 41.2543 27.9119L44.1754 13.8125C44.6961 11.2977 47.1535 9.25366 49.6544 9.25366Z" fill="white"></path>
    <path d="M117.354 9.25366H122.235C124.459 9.25366 125.87 11.0772 125.38 13.3142C124.893 15.5237 122.73 17.3057 120.533 17.3057H119.645C119.092 17.3057 118.591 17.501 118.146 17.8891C117.716 18.2773 117.44 18.7688 117.312 19.3613L113.54 37.4936H104.594L108.785 17.0577C109.899 12.5034 112.756 9.90358 117.354 9.256V9.25366Z" fill="white"></path>
    <path d="M134.791 37.3806C132.115 37.2129 130.074 36.6135 128.667 35.5754C127.26 34.5397 126.178 33.1318 125.417 31.3541C123.759 27.5233 123.942 23.1643 125.965 18.2768C128.72 12.7051 133.425 9.71484 140.074 9.30834H147.196L148.324 4.40496C148.887 1.9613 151.282 0.00683594 153.712 0.00683594C156.143 0.00683594 157.749 2.01643 157.223 4.49224L153.453 22.2823C152.92 24.7948 150.464 26.8298 147.966 26.8298C145.468 26.8298 143.869 24.7857 144.406 22.2685L145.527 17.0274H140.999C138.792 17.101 137.026 17.7211 135.704 18.8878C134.379 19.981 133.532 21.313 133.162 22.8863C132.057 27.1994 133.402 29.3836 137.195 29.4388H148.014C150.186 29.4388 151.577 31.2026 151.128 33.3868L150.282 37.4909L134.789 37.3806H134.791Z" fill="white"></path>
    <path d="M194.815 29.1014H196.622C198.947 29.1014 200.418 31.0123 199.897 33.348C199.384 35.6446 197.134 37.4911 194.849 37.4911H193.043C190.734 37.4911 189.263 35.6033 189.761 33.2814C190.256 30.9685 192.518 29.0991 194.818 29.0991L194.815 29.1014Z" fill="white"></path>
    <path d="M102.025 33.8944C102.5 31.6437 101.243 29.7879 99.163 29.4664L101.833 16.5087C102.657 12.5102 100.111 9.28101 96.1347 9.28101H87.3072C80.6565 9.68751 75.954 12.6778 73.1996 18.2495C71.176 23.1369 70.9933 27.4959 72.6515 31.3268C73.412 33.1044 74.4945 34.51 75.9014 35.5481C77.3083 36.5838 79.3479 37.1856 82.0245 37.3533L88.0997 37.3968L97.518 37.4634L97.523 37.4452C98.7722 37.452 100.024 37.4589 101.273 37.4634L102.027 33.8944H102.025ZM84.4297 29.4113C80.6359 29.3563 79.2907 27.1721 80.3961 22.8589C80.766 21.2857 81.6135 19.9537 82.9381 18.8604C84.2947 17.657 86.1239 17.0368 88.4239 17.0001H92.7039L92.1147 19.972H92.1422L90.2264 29.4136H84.4272L84.4297 29.4113Z" fill="white"></path>
    <path d="M183.858 29.4482C178.943 29.4482 174.029 29.4437 169.114 29.4414L181.206 16.9429C182.02 16.1023 182.58 15.0757 182.805 14.0192C183.362 11.3872 181.69 9.25366 179.074 9.25366H163.392C161.542 9.25366 159.727 10.7602 159.334 12.6206C159.315 12.7078 159.304 12.7905 159.295 12.8756C159.267 12.9697 159.24 13.0662 159.22 13.1626C158.769 15.2916 160.121 17.0165 162.236 17.0165H168.142C168.575 17.0165 168.722 17.5056 168.399 17.8593L168.391 17.8662L156.373 30.8906C155.823 31.4854 155.389 32.1744 155.159 32.9025C154.368 35.3898 155.857 37.489 158.271 37.489H185.888C186.206 36.0512 186.523 34.6135 186.838 33.1781C187.261 31.2627 185.81 29.446 183.86 29.4437L183.858 29.4482Z" fill="white"></path>
    <path d="M38.7834 20.6588L37.0065 29.2828H37.0133L35.0538 37.5003L12.1761 37.3555C10.9701 37.2706 8.23859 37.0639 5.52075 34.4641C5.52075 34.4641 5.21014 34.1472 4.81731 33.6419C4.81731 33.6419 4.09561 32.7049 3.62284 31.6736C3.09298 30.5207 2.44663 28.5479 4.139 24.8342C5.94099 20.8747 9.61581 18.3988 10.2233 18.8697C10.6413 19.1958 9.34173 20.6449 9.4719 23.3528C9.51073 24.175 9.59523 25.9181 10.8902 27.388C11.0706 27.5924 12.2971 28.9452 14.2886 29.2346C14.6928 29.2943 15.0355 29.2943 15.2798 29.2851H27.8595L29.5999 20.8518C30.1388 18.2473 32.658 16.1136 35.2228 16.0999H35.2502C35.7641 16.0999 36.2506 16.1849 36.689 16.3549C37.2211 16.5546 37.6826 16.8785 38.0457 17.301C38.0754 17.3354 38.1073 17.37 38.1347 17.4044C38.8131 18.2657 39.046 19.4186 38.7902 20.661L38.7834 20.6588Z" fill="white"></path>
    <path d="M41.8147 4.75871C41.4972 6.25843 40.5425 7.58821 39.3069 8.45175C38.3729 9.10633 37.2743 9.49217 36.178 9.48067L20.7389 9.32675C19.0832 9.398 17.7196 9.57483 16.7536 9.72875C13.7456 10.2088 10.201 11.4719 6.27959 14.1016C5.42084 14.6872 4.21724 15.6197 3.0159 16.9862C1.37607 18.8511 0.679479 20.4588 0.245544 20.3072C-0.268333 20.1258 0.177027 17.5696 0.220422 17.3215C1.78488 8.54592 7.97881 3.90894 7.97881 3.90894C12.7522 0.335315 17.4341 0.0183734 19.4052 0L38.3867 0.190624C39.5491 0.202107 40.5472 0.670628 41.1889 1.49972C41.8558 2.36098 42.0773 3.51621 41.8147 4.75871Z" fill="white"></path>
  </g>
  <defs>
    <clipPath id="clip0_877_5349">
      <rect width="200" height="37.5" fill="white"></rect>
    </clipPath>
  </defs>
</svg>
