<?xml version="1.0" encoding="UTF-8"?>
<svg xmlns="http://www.w3.org/2000/svg" width="58" height="45" viewBox="0 0 58 45" fill="none">
  <g clip-path="url(#clip0_665_2123)">
    <path d="M9.78711 5.69004C10.7585 5.61063 11.7361 5.48944 12.7075 5.34525C11.8422 6.77873 10.8625 8.14952 9.78711 9.43046V5.69004ZM9.91607 16.5164C9.83495 15.4841 9.79543 14.4288 9.78711 13.3652C12.331 10.889 14.4007 7.97191 15.9087 4.75598C16.8717 4.54702 17.8514 4.29626 18.8062 4.02252C18.5171 4.7727 18.1967 5.50615 17.8514 6.20618C16.021 9.95496 13.4854 13.3151 10.382 16.0964C10.2364 16.2343 10.0762 16.3785 9.91607 16.5164ZM10.7585 22.1981C10.565 21.3434 10.3966 20.4658 10.2614 19.5944C11.0871 18.9738 11.8817 18.3134 12.6285 17.6364C17.0652 13.6055 20.0417 8.7388 21.477 3.17622C22.3755 2.86278 23.2824 2.5159 24.1561 2.14395C23.6361 4.6912 22.802 7.16531 21.6871 9.51196C19.8649 13.267 17.3294 16.6292 14.2322 19.4168C13.1339 20.4093 11.9691 21.335 10.7585 22.1981ZM12.227 27.0585C11.9379 26.3 11.6654 25.5268 11.4324 24.7369C13.2213 23.6315 14.9144 22.359 16.4703 20.9401C22.2403 15.6931 25.5123 9.06896 26.1945 1.24124C27.2449 0.750174 28.0645 0.321802 28.6739 0C28.4888 4.44045 27.4217 8.79522 25.5206 12.8156C23.7005 16.5707 21.1712 19.9413 18.0761 22.7309C16.2789 24.3587 14.3133 25.8089 12.227 27.0585ZM14.2654 31.3861C13.8702 30.6924 13.5021 29.9673 13.1651 29.2505C15.7485 27.8964 18.1468 26.2206 20.3142 24.2605C26.9808 18.1922 30.2943 10.2768 30.1508 0.750174V0.445089C30.9849 0.871372 31.7462 1.24124 32.5407 1.59647C32.5095 6.87486 31.4341 11.7604 29.3479 16.1214C27.5341 19.8848 25.0068 23.2533 21.9117 26.043C19.607 28.1472 17.0319 29.9443 14.2654 31.3861ZM16.8551 35.3125C16.3663 34.6668 15.8858 34.0065 15.4428 33.3295C18.6211 31.8772 21.5581 29.9443 24.1498 27.5893C30.8164 21.521 34.1216 13.5825 33.978 3.99745V2.20873C34.7643 2.53262 35.5651 2.83771 36.368 3.12816V3.9661C36.4491 9.60808 35.3821 14.8071 33.1835 19.4251C31.378 23.1885 28.8507 26.5675 25.7535 29.3634C23.089 31.7727 20.0979 33.7808 16.8551 35.3125ZM20.0646 38.915C19.7755 38.6329 19.4864 38.3425 19.2076 38.052L19.1827 37.9726L19.1432 37.9789C18.854 37.6821 18.5732 37.3666 18.2924 37.0532C21.8472 35.5863 25.1274 33.505 27.975 30.9118C34.6437 24.8414 37.9489 16.8695 37.8116 7.23009V3.6046C38.5978 3.85326 39.4007 4.0873 40.2036 4.29626V7.19875C40.2827 12.8721 39.2156 18.1024 37.0108 22.7309C35.2053 26.5027 32.6863 29.8879 29.5808 32.6838C26.7561 35.2561 23.5383 37.352 20.0646 38.915ZM23.9959 42.179C23.2512 41.6462 22.5128 41.082 21.8056 40.4864C25.8347 38.8983 29.508 36.5203 32.6135 33.4904C38.7351 27.5015 41.7678 19.7553 41.6305 10.4795V4.65986C42.4251 4.84374 43.228 5.00673 44.0226 5.14256V10.446C44.1495 19.4335 41.4787 27.1149 36.0789 33.296C32.7259 37.0929 28.6094 40.1145 23.9959 42.179ZM28.8986 45C27.9605 44.5883 27.0453 44.114 26.1633 43.5895C29.6287 42.1539 32.8215 40.1312 35.6067 37.6174C42.2982 31.547 45.6117 23.5124 45.4661 13.7351V5.3766C46.2607 5.48944 47.0636 5.58556 47.8582 5.6587V13.6933C47.9456 19.4732 46.8535 24.785 44.6237 29.4678C42.8016 33.2647 40.2598 36.6582 37.1314 39.4625C34.652 41.688 31.8834 43.5498 28.8986 45Z" fill="white" fill-opacity="0.29"></path>
    <path d="M0 29.2693H58V15.7307H0V29.2693Z" fill="white"></path>
    <path d="M10.1147 18.9779C9.98368 18.9779 9.85264 19.0072 9.73408 19.0615C9.60928 19.1221 9.50319 19.2182 9.43247 19.3394L5.09766 25.882H6.51417L9.43247 21.2535V25.882H10.6119V19.5756C10.6202 19.4188 10.5723 19.2663 10.4767 19.1409C10.3872 19.0323 10.2541 18.9738 10.1147 18.9779Z" fill="black"></path>
    <path d="M18.8031 19.0302H17.6133V22.7915C17.6195 23.0924 17.5925 23.3933 17.5343 23.69C17.4968 23.9011 17.4095 24.1017 17.2805 24.273C17.1661 24.4193 17.0101 24.53 16.8354 24.5906C16.6274 24.6596 16.409 24.693 16.1885 24.6868H15.9618C15.7413 24.693 15.5208 24.6617 15.3107 24.5948C15.136 24.5363 14.9841 24.4256 14.8739 24.2793C14.7491 24.1037 14.6638 23.9052 14.6222 23.6942C14.564 23.3975 14.539 23.0924 14.5432 22.7894V19.0302H13.3555V22.7894C13.3555 23.7924 13.5822 24.5572 14.0336 25.088C14.5224 25.6334 15.2338 25.9259 15.9618 25.882H16.1906C16.9186 25.9217 17.6279 25.6292 18.1167 25.0838C18.6138 24.4276 18.8572 23.6127 18.8031 22.7894V19.0302Z" fill="black"></path>
    <path d="M21.9022 19.0302H21.5527V20.2254H21.9043C22.651 20.2254 23.0233 20.6308 23.0233 21.4374V25.882H24.2006V21.4374C24.2401 20.7938 24.0301 20.1607 23.6161 19.6675C23.1627 19.2182 22.5387 18.9863 21.9022 19.0302Z" fill="black"></path>
    <path d="M35.9199 20.2254H37.6588V25.882H38.8486V20.2254H40.5875V19.0302H35.9199V20.2254Z" fill="black"></path>
    <path d="M43.332 25.882H44.5218V19.0302H43.332V25.882Z" fill="black"></path>
    <path d="M50.5709 22.221L52.2745 19.0323H50.9204L49.9157 21.0174L48.909 19.0323H47.5445L49.2418 22.0873L47.2637 25.882H48.5762L49.9157 23.316L51.2532 25.882H52.5553L50.5709 22.221Z" fill="black"></path>
    <path d="M33.177 22.3861C33.1832 21.9243 33.1105 21.4625 32.9628 21.0257C32.8318 20.6371 32.6258 20.2777 32.3596 19.9663C32.2701 19.8639 32.1703 19.772 32.0684 19.6863L32.266 19.26L31.2925 18.8045L31.124 19.1639C30.8328 19.0719 30.5291 19.0281 30.2213 19.0302H29.9155C29.4974 19.0259 29.0856 19.1096 28.7049 19.2767C28.3472 19.4356 28.0269 19.6717 27.7689 19.9663C27.5006 20.2777 27.2968 20.6371 27.1657 21.0258C27.018 21.4625 26.9452 21.9243 26.9494 22.3861C26.9474 22.85 27.0201 23.3139 27.1699 23.7527C27.303 24.1581 27.5089 24.5342 27.7772 24.8644C27.9208 25.0378 28.0851 25.1925 28.2619 25.3283L28.1101 25.6543L29.0835 26.1098L29.2291 25.7984C29.4538 25.8549 29.6826 25.8862 29.9155 25.882H30.2213C30.6352 25.8883 31.0471 25.7943 31.4194 25.6104C31.7792 25.4307 32.0954 25.1757 32.3492 24.8644C32.6175 24.5342 32.8234 24.1581 32.9586 23.7527C33.1063 23.3139 33.1812 22.85 33.177 22.3861ZM28.7445 24.3211C28.7008 24.2772 28.6301 24.2062 28.5926 24.1581C28.4221 23.9387 28.291 23.6879 28.2099 23.4205C28.1121 23.1175 28.0664 22.8019 28.0684 22.4843C28.0665 22.1562 28.1121 21.8282 28.2099 21.5147C28.2889 21.241 28.4221 20.986 28.5968 20.7625C28.7569 20.5598 28.9587 20.3947 29.1875 20.2756C29.4163 20.1586 29.7034 20.0854 29.9342 20.0854C30.1631 20.0854 30.2525 20.0959 30.2525 20.0959C30.4002 20.1042 30.5083 20.121 30.6477 20.1565M32.0601 22.4843C32.0643 22.8019 32.0185 23.1175 31.9249 23.4205C31.8458 23.6879 31.7169 23.9387 31.5484 24.1581C31.3903 24.3608 31.1885 24.5259 30.9597 24.6408C30.7268 24.7557 30.3981 24.8121 30.2005 24.8205C29.9634 24.8288 29.7762 24.831 29.7117 24.8247L31.4964 20.9151C31.5213 20.8586 31.5608 20.7688 31.5608 20.7688C31.7106 20.9777 31.8458 21.2661 31.9207 21.5148C32.0164 21.8282 32.0642 22.1562 32.0601 22.4843Z" fill="black"></path>
  </g>
  <defs>
    <clipPath id="clip0_665_2123">
      <rect width="58" height="45" fill="white"></rect>
    </clipPath>
  </defs>
</svg>
