<?xml version="1.0" encoding="UTF-8"?>
<svg xmlns="http://www.w3.org/2000/svg" width="67" height="45" viewBox="0 0 67 45" fill="none">
  <path fill-rule="evenodd" clip-rule="evenodd" d="M41.2316 17.3939C42.1656 17.3939 42.9227 16.6341 42.9227 15.697C42.9227 14.7598 42.1656 14 41.2316 14C40.2976 14 39.5405 14.7598 39.5405 15.697C39.5405 16.6341 40.2976 17.3939 41.2316 17.3939ZM42.5202 18.606H39.9432V29.8383H42.5202V18.606ZM11.5158 24.1819C11.5158 24.2167 11.5154 24.2514 11.5148 24.286V29.8383H8.85738V29.086C7.9626 29.6646 6.89899 30 5.75787 30C2.57789 30 0 27.3951 0 24.1819C0 20.9686 2.57789 18.3637 5.75787 18.3637C8.93787 18.3637 11.5158 20.9686 11.5158 24.1819ZM5.7581 27.4948C7.55934 27.4948 9.01955 26.0115 9.01955 24.1817C9.01955 22.3519 7.55934 20.8686 5.7581 20.8686C3.95684 20.8686 2.49665 22.3519 2.49665 24.1817C2.49665 26.0115 3.95684 27.4948 5.7581 27.4948ZM49.8064 30C52.9864 30 55.5643 27.3951 55.5643 24.1819C55.5643 20.9686 52.9864 18.3637 49.8064 18.3637C46.6264 18.3637 44.0486 20.9686 44.0486 24.1819C44.0486 27.3951 46.6264 30 49.8064 30ZM49.8067 27.495C51.608 27.495 53.0682 26.0117 53.0682 24.1819C53.0682 22.3521 51.608 20.8688 49.8067 20.8688C48.0055 20.8688 46.5454 22.3521 46.5454 24.1819C46.5454 26.0117 48.0055 27.495 49.8067 27.495ZM12.5626 26.0808H14.9383C14.9383 26.9293 15.5825 27.6162 16.5488 27.6162C17.3139 27.6162 17.9178 27.0505 17.9178 26C17.9178 25.0987 16.9173 24.8668 16.1073 24.679C15.8642 24.6227 15.6382 24.5704 15.4617 24.5051C14.6967 24.2223 13.2874 23.495 13.2874 21.596C13.2874 19.697 14.4953 18.4041 16.4683 18.4041C18.0467 18.4041 18.8976 19.3199 19.1258 19.8183L17.636 21.3132C17.4347 20.9091 17.1528 20.5859 16.5488 20.5859C16.2267 20.5859 15.663 20.788 15.663 21.5152C15.663 22.1669 16.0668 22.2942 17.1297 22.6294C17.4508 22.7306 17.8319 22.8508 18.2802 23.0101C20.2129 23.697 20.3337 25.5152 20.3337 26.3233C20.3337 27.1313 20.2129 30 16.4683 30C13.4726 30 12.5626 27.7374 12.5626 26.0808ZM21.1788 18.6061H23.8766V25.4343C23.8766 25.7979 23.9974 27.6565 26.1314 27.6565C28.2654 27.6565 28.7486 26 28.7486 25.4343V18.6061H31.245V26.202L31.2443 26.2029V29.8382H28.6674V28.9568C27.8555 29.5392 26.8833 29.9595 25.7287 29.9595C22.9908 29.9595 21.1788 27.9798 21.1788 25.4343V18.6061ZM35.6748 19.4519C36.4689 18.8465 37.4062 18.397 38.492 18.3656V20.8342C38.4272 20.8304 38.3603 20.8284 38.2912 20.8284C36.1572 20.8284 35.5935 22.485 35.5935 23.0507V29.8789H33.0971V22.283L33.0978 22.2821V18.6467H35.6748V19.4519ZM56.6921 23.5354C56.6921 20.6792 58.9995 18.3637 61.846 18.3637C64.6926 18.3637 67 20.6792 67 23.5354V29.8384H64.5038V23.5354C64.5038 22.0627 63.3137 20.8688 61.846 20.8688C60.3784 20.8688 59.1886 22.0627 59.1886 23.5354V29.8384H56.6921V23.5354Z" fill="white"></path>
</svg>
