<?xml version="1.0" encoding="UTF-8"?>
<svg xmlns="http://www.w3.org/2000/svg" width="243" height="45" viewBox="0 0 243 45" fill="none">
  <path d="M39.3088 0.00186521H44.1339C44.5715 0.00186521 44.9243 0.35528 44.9243 0.79385V13.2578C44.9243 13.6962 44.5856 14.0497 44.1481 14.0638H40.0992C39.6616 14.0638 39.3088 13.7104 39.3088 13.2719V9.62554L8.09421 39.3752H16.0562C16.4938 39.3752 16.8466 39.7287 16.8466 40.1671V44.208C16.8466 44.6465 16.4938 45 16.0562 45H0.790383C0.352797 45 0 44.6466 0 44.208V39.3752L35.3823 5.62661H31.6759C31.2383 5.62661 30.8855 5.2732 30.8855 4.83463V0.80788C30.8855 0.369416 31.2383 0.0161381 31.6759 0.0161381L39.3088 0.00186521ZM11.231 5.62661L24.4796 5.61072C24.917 5.61072 25.27 5.25725 25.27 4.81873V0.791985C25.27 0.353521 24.917 0 24.4936 0H0.818598C0.381012 0 0.0282157 0.353414 0.0282157 0.791985V13.2701C0.0282157 13.7085 0.381007 14.0619 0.818598 14.0619H4.83931C5.27674 14.0619 5.61553 13.7085 5.61553 13.2701V5.62475L11.231 5.62661ZM39.3088 39.3752H23.2525C22.815 39.3752 22.4621 39.7287 22.4621 40.1671V44.208C22.4621 44.6465 22.815 45 23.2525 45H44.1339C44.5715 45 44.9243 44.6466 44.9243 44.208V31.6641C44.9243 31.2257 44.5715 30.8722 44.1339 30.8722H40.0992C39.6616 30.8722 39.3088 31.2256 39.3088 31.6641V39.3752Z" fill="white"></path>
  <path d="M67.1016 33.527V29.4299L82.2793 15.177H71.6334V17.9867H67.3465V11.274H87.9951V15.3711L72.9399 29.5423H83.9532V26.6917H88.2401V33.527H67.1016Z" fill="white"></path>
  <path d="M101.262 34.0356C99.0375 34.0356 97.0877 33.535 95.3933 32.544C93.7091 31.5528 92.3823 30.1735 91.4129 28.4265C90.4537 26.6793 89.9629 24.6564 89.9629 22.3779C89.9629 20.0995 90.4324 18.0764 91.3816 16.3293C92.3307 14.5821 93.6474 13.2028 95.3418 12.2118C97.0362 11.2208 98.9759 10.7202 101.17 10.7202C103.365 10.7202 105.304 11.2208 106.998 12.2118C108.683 13.2028 110.009 14.5821 110.959 16.3293C111.908 18.0764 112.377 20.0995 112.377 22.3779C112.377 24.6564 111.908 26.6793 110.959 28.4265C110.009 30.1735 108.703 31.5528 107.03 32.544C105.356 33.535 103.436 34.0356 101.272 34.0356H101.262ZM101.262 30.1633C102.6 30.1633 103.783 29.8263 104.814 29.1621C105.855 28.4979 106.662 27.5784 107.234 26.4238C107.815 25.2693 108.101 23.9206 108.101 22.3779C108.101 20.8351 107.815 19.4864 107.234 18.3318C106.652 17.1774 105.835 16.2578 104.764 15.5937C103.691 14.9295 102.497 14.5924 101.16 14.5924C99.8231 14.5924 98.5983 14.9295 97.5572 15.5937C96.5162 16.2578 95.7094 17.1774 95.1076 18.3318C94.5159 19.4864 94.2201 20.8351 94.2201 22.3779C94.2201 23.9206 94.5159 25.2693 95.1076 26.4238C95.6993 27.5784 96.5263 28.4979 97.5976 29.1621C98.67 29.8262 99.8847 30.1633 101.242 30.1633H101.262Z" fill="white"></path>
  <path d="M126.032 34.0357C123.807 34.0357 121.858 33.5351 120.164 32.5441C118.48 31.5529 117.153 30.1737 116.182 28.4266C115.223 26.6794 114.733 24.6565 114.733 22.378C114.733 20.0996 115.203 18.0765 116.152 16.3294C117.101 14.5823 118.418 13.203 120.112 12.2119C121.807 11.2209 123.746 10.7203 125.941 10.7203C128.135 10.7203 130.074 11.2209 131.769 12.2119C133.453 13.203 134.78 14.5823 135.729 16.3294C136.678 18.0765 137.148 20.0996 137.148 22.378C137.148 24.6565 136.678 26.6794 135.729 28.4266C134.78 30.1737 133.473 31.5529 131.799 32.5441C130.126 33.5351 128.206 34.0357 126.043 34.0357H126.032ZM126.032 30.1635C127.369 30.1635 128.554 29.8264 129.585 29.1622C130.626 28.4981 131.432 27.5785 132.003 26.4239C132.586 25.2695 132.872 23.9207 132.872 22.378C132.872 20.8352 132.586 19.4866 132.003 18.3319C131.421 17.1775 130.606 16.2579 129.533 15.5938C128.462 14.9297 127.267 14.5925 125.93 14.5925C124.594 14.5925 123.369 14.9296 122.328 15.5938C121.287 16.2579 120.48 17.1775 119.878 18.3319C119.285 19.4866 118.989 20.8352 118.989 22.378C118.989 23.9207 119.285 25.2695 119.878 26.4239C120.47 27.5785 121.297 28.4981 122.368 29.1622C123.439 29.8263 124.654 30.1635 126.012 30.1635H126.032Z" fill="white"></path>
  <path d="M172.497 13.1818C170.966 11.5369 168.874 10.7093 166.21 10.7093C164.403 10.7093 162.852 11.1589 161.565 12.0477C160.3 12.9162 159.331 14.1728 158.656 15.7974C158.279 14.7654 157.779 13.8868 157.126 13.1818C155.595 11.5369 153.503 10.7093 150.838 10.7093C149.031 10.7093 147.481 11.1589 146.194 12.0477C145.307 12.6607 144.582 13.4679 143.979 14.4487L143.775 11.2508H139.814V33.5037H144.04V21.938C144.04 19.6289 144.54 17.8306 145.551 16.5535C146.562 15.2764 147.97 14.6428 149.777 14.6428C150.848 14.6725 151.787 14.8981 152.604 15.307C153.421 15.7259 154.053 16.4615 154.512 17.5139C154.972 18.5663 155.207 20.0988 155.207 22.1218V33.5139H159.433V21.9482C159.433 19.6391 159.933 17.8409 160.943 16.5637C161.953 15.2866 163.362 14.653 165.169 14.653C166.241 14.6827 167.17 14.9087 167.965 15.3172C168.762 15.7361 169.405 16.4717 169.874 17.5241C170.343 18.5765 170.589 20.109 170.589 22.132V33.5242H174.763V20.7936C174.794 17.3811 174.049 14.8574 172.518 13.2023L172.497 13.1818Z" fill="white"></path>
  <path d="M179.723 7.67785C178.886 7.67785 178.162 7.36119 177.549 6.72767C176.937 6.09423 176.62 5.35859 176.62 4.5208C176.62 3.68298 176.927 2.91657 177.549 2.31374C178.162 1.71104 178.886 1.41473 179.723 1.41473C180.56 1.41473 181.326 1.71104 181.928 2.31374C182.53 2.91657 182.826 3.64202 182.826 4.5208C182.826 5.39946 182.53 6.09423 181.928 6.72767C181.326 7.36111 180.602 7.67785 179.723 7.67785ZM177.591 33.5068L177.682 11.2538H181.857L181.816 33.5068H177.591Z" fill="white"></path>
  <path d="M202.55 13.1818C201.02 11.5369 198.926 10.7093 196.263 10.7093C194.456 10.7093 192.904 11.1589 191.619 12.0477C190.73 12.6607 190.006 13.4679 189.403 14.4487L189.199 11.2508H185.239V33.5037H189.465V21.938C189.465 19.6289 189.965 17.8306 190.976 16.5535C191.986 15.2764 193.395 14.6428 195.201 14.6428C196.273 14.6725 197.212 14.8981 198.029 15.307C198.845 15.7259 199.478 16.4615 199.937 17.5139C200.397 18.5663 200.631 20.0988 200.631 22.1218V33.5139H204.857V20.7834C204.857 17.3709 204.091 14.8472 202.571 13.192L202.55 13.1818Z" fill="white"></path>
  <path d="M214.307 9.24919C214.307 7.91075 214.541 6.9298 215.021 6.28615C215.49 5.65271 216.225 5.32575 217.195 5.32575C217.522 5.32575 217.909 5.39741 218.369 5.5301C218.828 5.6628 219.37 5.87777 219.992 6.17378L221.544 2.92468C220.717 2.53633 219.9 2.23001 219.094 2.01545C218.297 1.79075 217.552 1.67841 216.868 1.67841C214.582 1.67841 212.878 2.28123 211.755 3.47662C210.632 4.68227 210.061 6.44973 210.061 8.78956V11.2417H206.101V14.7564H210.061V33.4945H214.287V14.7564H220.421V11.2417H214.287V9.23903L214.307 9.24919Z" fill="white"></path>
  <path d="M230.802 34.0357C228.576 34.0357 226.628 33.5351 224.933 32.5441C223.249 31.5529 221.922 30.1737 220.952 28.4266C219.993 26.6794 219.503 24.6565 219.503 22.378C219.503 20.0996 219.972 18.0765 220.922 16.3294C221.871 14.5823 223.187 13.203 224.882 12.2119C226.576 11.2209 228.516 10.7203 230.71 10.7203C232.904 10.7203 234.844 11.2209 236.538 12.2119C238.223 13.203 239.549 14.5823 240.499 16.3294C241.448 18.0765 241.917 20.0996 241.917 22.378C241.917 24.6565 241.448 26.6794 240.499 28.4266C239.549 30.1737 238.243 31.5529 236.569 32.5441C234.896 33.5351 232.976 34.0357 230.812 34.0357H230.802ZM230.802 30.1635C232.139 30.1635 233.323 29.8264 234.354 29.1622C235.395 28.4981 236.201 27.5785 236.774 26.4239C237.355 25.2695 237.641 23.9207 237.641 22.378C237.641 20.8352 237.355 19.4866 236.774 18.3319C236.191 17.1775 235.375 16.2579 234.303 15.5938C233.231 14.9297 232.037 14.5925 230.7 14.5925C229.363 14.5925 228.138 14.9296 227.097 15.5938C226.056 16.2579 225.249 17.1775 224.648 18.3319C224.055 19.4866 223.759 20.8352 223.759 22.378C223.759 23.9207 224.055 25.2695 224.648 26.4239C225.239 27.5785 226.066 28.4981 227.138 29.1622C228.21 29.8263 229.424 30.1635 230.782 30.1635H230.802Z" fill="white"></path>
</svg>
