<?xml version="1.0" encoding="UTF-8"?>
<svg xmlns="http://www.w3.org/2000/svg" width="200" height="57" viewBox="0 0 200 57" fill="none">
  <g clip-path="url(#clip0_877_5416)">
    <path d="M0.285378 18.0141L8.93786 34.0425C9.50524 35.1773 10.9237 36.0283 12.2003 36.0283H29.7889C30.9237 36.0283 31.4911 35.1773 30.9237 34.0425L22.2712 18.0141C21.7038 16.8794 20.2854 16.0283 19.0088 16.0283H1.27829H1.13644C0.143534 16.0283 -0.281998 16.8794 0.285378 18.0141Z" fill="white"></path>
    <path d="M33.6182 36.5959L38.8664 46.0995C39.1501 46.8087 40.0012 47.2342 40.8522 47.2342L51.2068 47.0924C51.916 47.0924 52.1997 46.525 51.916 45.9576L46.6678 36.4541C46.3841 35.7449 45.5331 35.3193 44.682 35.3193L34.1856 35.4612C33.6182 35.4612 33.1926 36.0286 33.6182 36.5959Z" fill="white"></path>
    <path d="M33.9057 0.638665L23.5511 13.6883C22.8419 14.5394 22.8419 16.2415 23.4093 17.2344L32.0618 33.1209C32.6291 34.2557 33.622 34.3975 34.4731 33.4046L44.9696 20.355C45.6788 19.5039 45.6788 17.8018 45.1114 16.8089L36.3171 1.0642C36.0334 0.496821 35.466 0.0712891 34.8986 0.0712891C34.615 0.0712891 34.3313 0.213133 33.9057 0.638665Z" fill="white"></path>
    <path d="M31.2024 36.7375L24.9613 44.539C24.5357 45.1063 24.3939 45.9574 24.8194 46.6666L30.0677 56.1702C30.3514 56.8794 31.0606 56.8794 31.4861 56.312L37.7272 48.5106C38.1528 47.9432 38.2946 47.0922 37.8691 46.3829L32.7627 36.8794C32.6209 36.5957 32.1953 36.312 32.0535 36.312C31.6279 36.4539 31.4861 36.4539 31.2024 36.7375Z" fill="white"></path>
    <path d="M149.077 13.9009H145.531V39.4328H149.077V13.9009Z" fill="white"></path>
    <path d="M82.9843 21.9858C77.8779 21.9858 73.9062 25.9575 73.9062 30.7802V47.0922H77.4523V30.7802C77.4523 27.8014 79.8637 25.2483 83.1261 25.2483C86.2467 25.2483 88.7999 27.8014 88.7999 30.7802C88.7999 33.7589 86.3885 36.3121 83.1261 36.3121C81.424 36.3121 79.8637 35.6029 78.7289 34.3263V38.5816C80.0055 39.2908 81.424 39.5745 82.9843 39.5745C88.0906 39.5745 92.0623 35.6029 92.0623 30.7802C92.0623 25.9575 88.0906 21.9858 82.9843 21.9858Z" fill="white"></path>
    <path d="M102.695 21.9858C97.5888 21.9858 93.6172 25.9575 93.6172 30.7802V47.0922H97.1633V30.7802C97.1633 27.8014 99.5746 25.2483 102.837 25.2483C105.958 25.2483 108.511 27.8014 108.511 30.7802C108.511 33.7589 106.099 36.3121 102.837 36.3121C101.135 36.3121 99.5746 35.6029 98.4399 34.3263V38.5816C99.7165 39.2908 101.135 39.5745 102.695 39.5745C107.802 39.5745 111.773 35.6029 111.773 30.7802C111.773 25.9575 107.66 21.9858 102.695 21.9858Z" fill="white"></path>
    <path d="M62.8358 13.9009C57.7294 13.9009 53.7578 17.8725 53.7578 22.6952V39.4328H57.3039V22.837C57.3039 19.8583 59.7153 17.447 62.8358 17.447C65.9564 17.447 68.3677 19.8583 68.3677 22.837V24.681H59.4316V28.0853H68.3677V39.5746H71.9138V22.837C71.772 17.8725 67.8004 13.9009 62.8358 13.9009Z" fill="white"></path>
    <path d="M133.905 22.837C133.905 19.8583 136.317 17.447 139.437 17.447H143.835V13.9009H139.437C134.331 13.9009 130.359 17.8725 130.359 22.6952V39.4328H133.905V28.369H143.551V24.9647H133.905V22.837Z" fill="white"></path>
    <path d="M163.687 22.1274V32.7657C163.545 34.8934 161.843 36.5955 159.574 36.5955C157.304 36.5955 155.602 34.8934 155.46 32.7657V22.1274H151.914V32.7657C151.914 36.17 154.325 39.1487 157.73 39.8579V47.092H161.276V39.8579C164.538 39.1487 167.091 36.3118 167.091 32.7657V22.1274H163.687Z" fill="white"></path>
    <path d="M183.404 32.1987C183.12 33.6172 182.128 34.7519 180.709 35.603C178.014 37.1633 174.61 36.1704 173.05 33.6172C171.489 31.064 172.482 27.6597 175.035 26.0994C177.163 24.9647 179.858 25.2484 181.56 26.8087L173.759 31.2058L175.461 34.1845L186.383 28.0853C186.241 27.5179 185.957 27.0923 185.674 26.525C183.262 22.2697 177.589 20.8512 173.333 23.2626C168.936 25.8158 167.518 31.2058 170.071 35.3193C172.624 39.4328 178.156 40.9931 182.411 38.5817C184.823 37.1633 186.383 34.7519 186.808 32.1987H183.404Z" fill="white"></path>
    <path d="M197.875 21.9856C195.747 21.9856 193.903 22.6948 192.343 23.8296V21.9856H188.797V39.4324H192.343V30.6381C192.343 27.6594 194.754 25.248 197.875 25.248H198.584V21.8438H197.875V21.9856Z" fill="white"></path>
    <path d="M125.106 31.4896L116.312 27.518C115.886 27.3762 115.744 26.8088 115.886 26.3833C116.028 26.0996 116.312 25.8159 116.595 25.8159H126.524V22.4116H116.595C115.035 22.4116 113.333 23.4045 112.624 24.9648C111.631 27.0925 112.482 29.6457 114.61 30.6386L123.262 34.6102C123.688 34.752 123.829 35.3194 123.688 35.745C123.546 36.0286 123.262 36.3123 122.978 36.3123H112.766V39.7166H122.978C124.539 39.7166 126.241 38.7237 126.95 37.1634C128.227 34.8939 127.234 32.4825 125.106 31.4896Z" fill="white"></path>
  </g>
  <defs>
    <clipPath id="clip0_877_5416">
      <rect width="200" height="56.7376" fill="white"></rect>
    </clipPath>
  </defs>
</svg>
