<?xml version="1.0" encoding="UTF-8"?>
<svg xmlns="http://www.w3.org/2000/svg" width="119" height="45" viewBox="0 0 119 45" fill="none">
  <path d="M19.25 11.0009H21.6129C21.8272 11.0009 22 11.1737 22 11.3881V17.4816C22 17.6959 21.8341 17.8687 21.6198 17.8756H19.637C19.4227 17.8756 19.25 17.7028 19.25 17.4885V15.7058L3.96383 30.2501H7.8629C8.07719 30.2501 8.24996 30.4229 8.24996 30.6372V32.6128C8.24996 32.8272 8.07719 33 7.8629 33H0.38706C0.172769 33 0 32.8272 0 32.6128V30.2501L17.3271 13.7508H15.5121C15.2978 13.7508 15.125 13.578 15.125 13.3636V11.395C15.125 11.1806 15.2978 11.0079 15.5121 11.0079L19.25 11.0009ZM5.49997 13.7508L11.9879 13.743C12.2022 13.743 12.375 13.5702 12.375 13.3558V11.3872C12.375 11.1728 12.2022 11 11.9948 11H0.400877C0.186586 11 0.0138175 11.1728 0.0138175 11.3872V17.4876C0.0138175 17.702 0.186584 17.8747 0.400877 17.8747H2.36987C2.58408 17.8747 2.74999 17.7019 2.74999 17.4876V13.7499L5.49997 13.7508ZM19.25 30.2501H11.387C11.1728 30.2501 10.9999 30.4229 10.9999 30.6372V32.6128C10.9999 32.8272 11.1728 33 11.387 33H21.6129C21.8272 33 22 32.8272 22 32.6128V26.4803C22 26.2659 21.8272 26.0931 21.6129 26.0931H19.637C19.4227 26.0931 19.25 26.2658 19.25 26.4803V30.2501Z" fill="white"></path>
  <path d="M32.8604 27.391V25.3879L40.2931 18.4199H35.0796V19.7935H32.9803V16.5117H43.0922V18.5147L35.7195 25.4429H41.1128V24.0493H43.2121V27.391H32.8604Z" fill="white"></path>
  <path d="M49.5889 27.6396C48.4996 27.6396 47.5448 27.3949 46.715 26.9104C45.8902 26.4258 45.2405 25.7515 44.7658 24.8974C44.296 24.0432 44.0557 23.0542 44.0557 21.9403C44.0557 20.8264 44.2856 19.8374 44.7504 18.9832C45.2152 18.129 45.86 17.4547 46.6898 16.9702C47.5195 16.4857 48.4695 16.241 49.544 16.241C50.619 16.241 51.5684 16.4857 52.3981 16.9702C53.2229 17.4547 53.8727 18.129 54.3375 18.9832C54.8023 19.8374 55.0322 20.8264 55.0322 21.9403C55.0322 23.0542 54.8023 24.0432 54.3375 24.8974C53.8727 25.7515 53.2328 26.4258 52.4135 26.9104C51.5936 27.3949 50.6536 27.6396 49.5939 27.6396H49.5889ZM49.5889 25.7465C50.2442 25.7465 50.8237 25.5817 51.3286 25.257C51.8384 24.9323 52.2335 24.4828 52.5134 23.9183C52.7982 23.3539 52.9381 22.6945 52.9381 21.9403C52.9381 21.186 52.7982 20.5267 52.5134 19.9622C52.2286 19.3978 51.8285 18.9482 51.3039 18.6236C50.7787 18.2989 50.1937 18.1341 49.539 18.1341C48.8843 18.1341 48.2845 18.2989 47.7747 18.6236C47.2649 18.9482 46.8698 19.3978 46.5751 19.9622C46.2853 20.5267 46.1405 21.186 46.1405 21.9403C46.1405 22.6945 46.2853 23.3539 46.5751 23.9183C46.8648 24.4828 47.2698 24.9323 47.7945 25.257C48.3196 25.5817 48.9145 25.7465 49.5791 25.7465H49.5889Z" fill="white"></path>
  <path d="M61.7198 27.6396C60.6299 27.6396 59.6756 27.3949 58.8459 26.9104C58.0211 26.4258 57.3713 25.7515 56.8961 24.8974C56.4263 24.0432 56.1865 23.0542 56.1865 21.9403C56.1865 20.8264 56.4165 19.8374 56.8813 18.9832C57.3461 18.129 57.9909 17.4547 58.8206 16.9702C59.6504 16.4857 60.6003 16.241 61.6748 16.241C62.7493 16.241 63.6992 16.4857 64.529 16.9702C65.3538 17.4547 66.0035 18.129 66.4684 18.9832C66.9332 19.8374 67.1631 20.8264 67.1631 21.9403C67.1631 23.0542 66.9332 24.0432 66.4684 24.8974C66.0035 25.7515 65.3637 26.4258 64.5438 26.9104C63.7245 27.3949 62.7844 27.6396 61.7248 27.6396H61.7198ZM61.7198 25.7465C62.3745 25.7465 62.9546 25.5817 63.4594 25.257C63.9692 24.9323 64.3638 24.4828 64.6437 23.9183C64.929 23.3539 65.069 22.6945 65.069 21.9403C65.069 21.186 64.929 20.5267 64.6437 19.9622C64.3589 19.3978 63.9594 18.9482 63.4342 18.6236C62.9096 18.2989 62.3246 18.1341 61.6699 18.1341C61.0152 18.1341 60.4154 18.2989 59.9056 18.6236C59.3958 18.9482 59.0006 19.3978 58.7059 19.9622C58.4156 20.5267 58.2708 21.186 58.2708 21.9403C58.2708 22.6945 58.4156 23.3539 58.7059 23.9183C58.9957 24.4828 59.4007 24.9323 59.9253 25.257C60.45 25.5817 61.0448 25.7465 61.7099 25.7465H61.7198Z" fill="white"></path>
  <path d="M84.4737 17.4444C83.7241 16.6402 82.6996 16.2356 81.3951 16.2356C80.5099 16.2356 79.7504 16.4554 79.1204 16.89C78.5009 17.3145 78.0262 17.9289 77.6958 18.7231C77.5109 18.2186 77.2661 17.789 76.9462 17.4444C76.1966 16.6402 75.172 16.2356 73.867 16.2356C72.9824 16.2356 72.2229 16.4554 71.5929 16.89C71.1583 17.1896 70.8032 17.5843 70.508 18.0638L70.4081 16.5003H68.4688V27.3795H70.5382V21.7252C70.5382 20.5963 70.7829 19.7171 71.2779 19.0928C71.7729 18.4684 72.4627 18.1587 73.3473 18.1587C73.872 18.1732 74.3319 18.2834 74.7319 18.4834C75.132 18.6881 75.4415 19.0478 75.6665 19.5623C75.8915 20.0768 76.0067 20.826 76.0067 21.815V27.3845H78.0761V21.7302C78.0761 20.6013 78.3209 19.7221 78.8159 19.0977C79.3103 18.4734 80.0001 18.1637 80.8853 18.1637C81.4099 18.1782 81.8649 18.2886 82.2545 18.4884C82.6447 18.6931 82.9597 19.0528 83.1891 19.5673C83.419 20.0818 83.5392 20.831 83.5392 21.82V27.3895H85.5834V21.1657C85.5987 19.4974 85.2338 18.2636 84.4842 17.4544L84.4737 17.4444Z" fill="white"></path>
  <path d="M88.0127 14.7536C87.6028 14.7536 87.2483 14.5988 86.9481 14.2891C86.6485 13.9794 86.4932 13.6198 86.4932 13.2102C86.4932 12.8006 86.6435 12.4259 86.9481 12.1312C87.2483 11.8365 87.6028 11.6917 88.0127 11.6917C88.4227 11.6917 88.7975 11.8365 89.0927 12.1312C89.3874 12.4259 89.5323 12.7805 89.5323 13.2102C89.5323 13.6397 89.3874 13.9794 89.0927 14.2891C88.7975 14.5988 88.443 14.7536 88.0127 14.7536ZM86.9684 27.3811L87.0134 16.5018H89.0576L89.0379 27.3811H86.9684Z" fill="white"></path>
  <path d="M99.1913 17.4444C98.4417 16.6402 97.4166 16.2356 96.1121 16.2356C95.2275 16.2356 94.4675 16.4554 93.838 16.89C93.4028 17.1896 93.0483 17.5843 92.7531 18.0638L92.6532 16.5003H90.7139V27.3795H92.7833V21.7252C92.7833 20.5963 93.028 19.7171 93.523 19.0928C94.018 18.4684 94.7078 18.1587 95.5925 18.1587C96.1171 18.1732 96.577 18.2834 96.977 18.4834C97.3765 18.6881 97.6866 19.0478 97.9116 19.5623C98.1366 20.0768 98.2513 20.826 98.2513 21.815V27.3845H100.321V21.1607C100.321 19.4924 99.9459 18.2586 99.2012 17.4494L99.1913 17.4444Z" fill="white"></path>
  <path d="M104.948 15.5218C104.948 14.8675 105.063 14.3879 105.298 14.0732C105.528 13.7636 105.888 13.6037 106.363 13.6037C106.523 13.6037 106.713 13.6387 106.938 13.7036C107.163 13.7685 107.428 13.8736 107.732 14.0183L108.492 12.4298C108.087 12.24 107.687 12.0902 107.293 11.9853C106.903 11.8755 106.538 11.8206 106.203 11.8206C105.083 11.8206 104.249 12.1153 103.699 12.6997C103.149 13.2891 102.869 14.1532 102.869 15.2971V16.4959H100.93V18.2142H102.869V27.3751H104.938V18.2142H107.942V16.4959H104.938V15.5169L104.948 15.5218Z" fill="white"></path>
  <path d="M113.026 27.6396C111.937 27.6396 110.982 27.3949 110.153 26.9104C109.328 26.4258 108.678 25.7515 108.203 24.8974C107.733 24.0432 107.493 23.0542 107.493 21.9403C107.493 20.8264 107.723 19.8374 108.188 18.9832C108.653 18.129 109.298 17.4547 110.127 16.9702C110.957 16.4857 111.907 16.241 112.981 16.241C114.056 16.241 115.006 16.4857 115.836 16.9702C116.66 17.4547 117.31 18.129 117.775 18.9832C118.24 19.8374 118.47 20.8264 118.47 21.9403C118.47 23.0542 118.24 24.0432 117.775 24.8974C117.31 25.7515 116.67 26.4258 115.85 26.9104C115.031 27.3949 114.091 27.6396 113.031 27.6396H113.026ZM113.026 25.7465C113.681 25.7465 114.261 25.5817 114.766 25.257C115.276 24.9323 115.67 24.4828 115.951 23.9183C116.236 23.3539 116.376 22.6945 116.376 21.9403C116.376 21.186 116.236 20.5267 115.951 19.9622C115.666 19.3978 115.266 18.9482 114.741 18.6236C114.216 18.2989 113.631 18.1341 112.977 18.1341C112.322 18.1341 111.722 18.2989 111.212 18.6236C110.702 18.9482 110.307 19.3978 110.013 19.9622C109.722 20.5267 109.577 21.186 109.577 21.9403C109.577 22.6945 109.722 23.3539 110.013 23.9183C110.302 24.4828 110.707 24.9323 111.232 25.257C111.757 25.5817 112.351 25.7465 113.017 25.7465H113.026Z" fill="white"></path>
</svg>
