<?xml version="1.0" encoding="UTF-8"?>
<svg xmlns="http://www.w3.org/2000/svg" width="118" height="45" viewBox="0 0 118 45" fill="none">
  <g clip-path="url(#clip0_1009_2974)">
    <path d="M17.621 12H2.38767C1.06649 12 0 13.066 0 14.3866V29.6134C0 30.934 1.06649 32 2.38767 32H17.621C18.9422 32 20.0087 30.934 20.0087 29.6134V14.3866C20.0087 13.066 18.9422 12 17.621 12ZM15.1219 22.175C14.9628 22.6364 14.6922 23.3206 14.2942 23.965C13.8724 24.6571 13.4028 25.1344 12.9094 25.3731C12.6547 25.5004 12.392 25.564 12.1294 25.564C12.0259 25.564 11.9225 25.5561 11.8269 25.5322C11.4608 25.4606 11.1106 25.2776 10.7923 24.9674C10.2352 24.4264 9.75763 23.5115 9.31989 22.1591C8.88215 20.7987 8.4842 20.2259 8.22952 19.9793C8.10217 19.86 8.02259 19.8282 7.98279 19.8202C7.95891 19.8202 7.91912 19.8202 7.83953 19.852C7.61668 19.9554 7.33812 20.2578 7.06752 20.6874C6.80487 21.101 6.55019 21.6261 6.35121 22.183C6.20795 22.5807 5.77021 22.7876 5.36431 22.6444C5.16534 22.5728 5.00616 22.4376 4.91861 22.2466C4.83106 22.0636 4.8231 21.8568 4.88677 21.6659C5.05391 21.2045 5.34043 20.5203 5.74634 19.8759C6.18408 19.1838 6.66161 18.7144 7.16302 18.4757C7.52117 18.3087 7.88728 18.253 8.25339 18.3166C8.62746 18.3803 8.97766 18.5712 9.29601 18.8735C9.86109 19.4145 10.3466 20.3373 10.7843 21.6897C11.2221 23.0501 11.6121 23.6309 11.8667 23.8695C11.9941 23.9968 12.0737 24.0207 12.0975 24.0207C12.1135 24.0207 12.1453 24.0286 12.2169 23.9889C12.4318 23.8854 12.7024 23.5831 12.9571 23.1615C13.2118 22.7478 13.4506 22.2148 13.6416 21.6659C13.7769 21.2681 14.2146 21.0533 14.6205 21.1885C14.8195 21.2522 14.9787 21.3954 15.0742 21.5784C15.1617 21.7613 15.1776 21.9682 15.114 22.1591L15.1219 22.175Z" fill="#0000FF"></path>
    <path d="M36.3086 22.2624C36.6269 21.7532 36.7861 21.1327 36.7861 20.4087C36.7861 19.6848 36.6269 19.0722 36.3165 18.5472C36.0061 18.0221 35.5604 17.6164 34.9874 17.3379C34.4144 17.0515 33.7378 16.9163 32.9499 16.9163H28.6123V27.4016H31.1512V23.8137H32.4485L34.3666 27.4016H37.1363L34.9635 23.4079C35.5445 23.1454 35.9902 22.7556 36.3006 22.2544L36.3086 22.2624ZM31.1592 18.9608H32.4087C32.7907 18.9608 33.1091 19.0165 33.3638 19.1279C33.6264 19.2313 33.8174 19.3904 33.9527 19.6052C34.088 19.82 34.1517 20.0826 34.1517 20.4087C34.1517 20.7349 34.088 20.9974 33.9527 21.2043C33.8174 21.4111 33.6264 21.5623 33.3638 21.6657C33.1091 21.7612 32.7907 21.8169 32.4087 21.8169H31.1592V18.9608Z" fill="#0000FF"></path>
    <path d="M42.6053 16.9163H40.0664V27.4016H42.6053V16.9163Z" fill="#0000FF"></path>
    <path d="M50.891 24.5933H50.8035L48.4556 16.9163H45.6143L49.156 27.4016H52.5306L56.0723 16.9163H53.2309L50.891 24.5933Z" fill="#0000FF"></path>
    <path d="M59.0762 27.4016H66.3984V25.3411H61.6151V23.1852H66.0243V21.1247H61.6151V18.9768H66.3984V16.9163H59.0762V27.4016Z" fill="#0000FF"></path>
    <path d="M77.5498 22.2624C77.8681 21.7532 78.0273 21.1327 78.0273 20.4088C78.0273 19.6848 77.8681 19.0722 77.5577 18.5472C77.2473 18.0221 76.8016 17.6164 76.2286 17.338C75.6556 17.0516 74.9791 16.9163 74.1911 16.9163H69.8535V27.4016H72.3924V23.8137H73.6897L75.6078 27.4016H78.3775L76.2047 23.408C76.7857 23.1454 77.2314 22.7556 77.5418 22.2544L77.5498 22.2624ZM72.4004 18.9609H73.6499C74.0319 18.9609 74.3503 19.0166 74.605 19.1279C74.8676 19.2314 75.0586 19.3905 75.1939 19.6053C75.3293 19.8201 75.3929 20.0826 75.3929 20.4088C75.3929 20.7349 75.3293 20.9975 75.1939 21.2043C75.0586 21.4112 74.8676 21.5623 74.605 21.6657C74.3503 21.7612 74.0319 21.8169 73.6499 21.8169H72.4004V18.9609Z" fill="#0000FF"></path>
    <path d="M88.7112 22.3262C88.4406 22.0636 88.1063 21.8409 87.7084 21.6579C87.3104 21.467 86.8568 21.3238 86.3395 21.2044L85.4401 20.9976C85.2013 20.9499 84.9864 20.8862 84.7954 20.8146C84.6044 20.743 84.4373 20.6714 84.302 20.576C84.1667 20.4805 84.0632 20.3771 83.9916 20.2577C83.9199 20.1384 83.8961 20.0032 83.8961 19.8441C83.8961 19.6531 83.9597 19.4861 84.0632 19.3349C84.1746 19.1838 84.3338 19.0644 84.5567 18.9849C84.7795 18.8974 85.0501 18.8576 85.3764 18.8576C85.8699 18.8576 86.2519 18.961 86.5225 19.1758C86.7931 19.3827 86.9443 19.677 86.9762 20.0509H89.4036C89.4036 19.3986 89.2285 18.8258 88.8943 18.3325C88.56 17.8393 88.0984 17.4574 87.4935 17.179C86.8966 16.9006 86.1882 16.7653 85.3764 16.7653C84.5646 16.7653 83.8722 16.9006 83.2514 17.171C82.6306 17.4415 82.1451 17.8234 81.787 18.3166C81.4368 18.8019 81.2617 19.3747 81.2617 20.0191C81.2617 20.8146 81.5164 21.4431 82.0416 21.9125C82.5669 22.3739 83.2753 22.716 84.1905 22.9228L85.2889 23.1774C85.6709 23.2649 85.9893 23.3604 86.228 23.4717C86.4748 23.5752 86.6578 23.6945 86.7852 23.8377C86.9045 23.9809 86.9682 24.148 86.9682 24.3468C86.9682 24.5616 86.8966 24.7446 86.7692 24.9117C86.6419 25.0787 86.4509 25.206 86.2121 25.2935C85.9733 25.389 85.6868 25.4288 85.3446 25.4288C84.9705 25.4288 84.6442 25.3731 84.3577 25.2538C84.0791 25.1344 83.8563 24.9674 83.6971 24.7446C83.5379 24.5219 83.4424 24.2355 83.4265 23.9013H80.999C81.007 24.7207 81.198 25.397 81.5562 25.9379C81.9223 26.4709 82.4237 26.8767 83.0763 27.1392C83.7289 27.4017 84.493 27.537 85.3685 27.537C86.244 27.537 86.9921 27.4097 87.6049 27.1551C88.2257 26.9005 88.7033 26.5425 89.0375 26.0652C89.3718 25.5879 89.5389 25.0231 89.5389 24.3628C89.5389 23.9411 89.4673 23.5672 89.3241 23.2251C89.1808 22.891 88.9818 22.5887 88.7033 22.3262H88.7112Z" fill="#0000FF"></path>
    <path d="M95.244 16.9163H92.7051V27.4016H95.244V16.9163Z" fill="#0000FF"></path>
    <path d="M105.354 17.5448C104.582 17.1231 103.658 16.9163 102.592 16.9163H98.7158V27.4016H102.592C103.658 27.4016 104.574 27.1947 105.354 26.7731C106.126 26.3515 106.722 25.7468 107.144 24.9672C107.566 24.1796 107.773 23.2409 107.773 22.151C107.773 21.0611 107.566 20.1303 107.144 19.3427C106.722 18.5551 106.126 17.9585 105.354 17.5368V17.5448ZM104.916 23.9648C104.709 24.4183 104.398 24.7445 103.993 24.9433C103.587 25.1422 103.085 25.2377 102.504 25.2377H101.263V19.0722H102.472C103.077 19.0722 103.579 19.1756 103.993 19.3745C104.406 19.5734 104.717 19.8996 104.932 20.3451C105.147 20.7906 105.25 21.3952 105.25 22.151C105.25 22.9067 105.147 23.5114 104.932 23.9648H104.916Z" fill="#0000FF"></path>
    <path d="M111.14 27.4016H118.454V25.3411H113.679V23.1852H118.08V21.1248H113.679V18.9768H118.454V16.9163H111.14V27.4016Z" fill="#0000FF"></path>
  </g>
  <defs>
    <clipPath id="clip0_1009_2974">
      <rect width="118" height="45" fill="#0000FF"></rect>
    </clipPath>
  </defs>
</svg>
