<?xml version="1.0" encoding="UTF-8"?>
<svg xmlns="http://www.w3.org/2000/svg" width="180" height="42" viewBox="0 0 180 42" fill="none">
  <path fill-rule="evenodd" clip-rule="evenodd" d="M166.591 28.8731L166.5 27.868C166.5 27.6853 165.86 23.5736 168.693 20.6497C169.515 19.8274 170.52 19.2792 171.434 19.2792C172.165 19.2792 172.805 19.6447 173.17 20.2843C174.632 23.3909 166.591 28.8731 166.591 28.8731ZM154.439 22.3858L154.348 20.6497V20.467C154.348 20.3756 153.982 14.8934 154.348 10.9645C154.713 6.67005 155.992 3.92893 157.546 3.92893C157.82 3.92893 158.185 4.11168 158.368 4.38579C159.099 5.39086 159.373 7.94924 158.916 10.2335C158.094 13.8883 156.906 16.9036 155.992 19.0051C155.718 19.6447 155.536 20.1929 155.353 20.6497L154.439 22.3858ZM145.942 33.9898C143.931 33.9898 143.018 32.0711 143.018 30.335C143.018 21.1066 148.043 19.2792 150.327 20.0102C150.327 20.0102 150.419 21.7462 150.602 24.0305C150.784 25.9492 150.876 28.3249 150.967 28.5076C150.967 28.5076 149.048 33.9898 145.942 33.9898ZM129.86 20.3756C129.86 20.3756 129.312 33.9898 124.195 33.9898C121.728 33.9898 121.546 31.2487 121.546 30.4264C121.546 20.7411 128.855 19.0051 129.86 20.3756ZM82.4391 34.3553C79.5152 34.3553 78.4188 31.4315 78.4188 28.6904C78.4188 23.665 81.3426 19.8274 83.8096 19.8274C86.2766 19.8274 87.099 23.2081 87.099 25.401C87.099 30.4264 85.0888 34.3553 82.4391 34.3553ZM35.566 22.7513C33.9213 25.401 29.9924 27.9594 28.8959 28.4162C28.8959 28.4162 28.0736 23.2995 32.2767 20.2843C35.3832 18 36.8452 20.8325 35.566 22.7513ZM163.85 34.8122C165.038 36.731 167.14 37.6447 170.155 37.6447C173.444 37.6447 176.916 35.1777 178.835 32.802C180.023 31.4315 180.114 30.6091 179.657 30.1523C179.201 29.7868 178.195 30.2437 177.282 31.066C176.094 32.1624 173.444 33.8071 171.251 33.8071C168.51 33.8071 167.231 31.9797 167.231 31.9797C172.805 28.599 176.916 24.67 176.916 21.3807C176.916 17.6345 174.175 15.9898 171.434 15.9898C166.591 15.9898 161.292 20.467 161.292 27.6853C161.292 30.0609 162.114 32.0711 162.114 32.0711C162.114 32.0711 161.109 33.6244 158.094 33.3503C154.805 33.0761 154.987 27.1371 154.987 27.1371C154.987 27.1371 155.992 25.3096 156.358 24.5787C158.551 20.467 161.566 14.8934 162.114 8.22335C162.388 4.47716 161.292 2.467 160.378 1.46193C159.556 0.548223 158.459 0 157.363 0C153.617 0 150.967 3.92893 150.327 7.7665C149.688 11.5127 149.962 17.1777 149.962 17.1777C149.962 17.1777 146.581 16.3553 143.109 18.6396C140.003 20.7411 138.632 25.0355 138.175 27.1371C137.992 28.1421 137.901 29.1472 137.992 30.1523C137.992 30.6091 138.175 31.5228 138.175 31.5228C138.175 31.5228 137.079 33.8985 135.069 33.8985C131.871 33.8985 133.972 18.9137 134.063 18.0914C134.155 17.4518 134.612 15.9898 132.327 15.8985C130.957 15.8071 130.409 16.3553 130.317 16.9949L130.226 17.6345C130.226 17.6345 125.566 14.4365 120.358 20.1929C117.525 23.2081 116.52 27.5939 116.52 31.1574V31.3401C116.52 31.3401 115.332 34.7208 112.683 34.1726C110.855 33.8071 110.673 30.6091 110.673 29.4213C110.673 27.0457 111.221 24.3959 111.678 22.2944C111.952 20.9239 112.226 19.8274 112.226 19.1878C112.226 16.9036 111.586 15.9898 110.124 15.9898C108.114 15.9898 106.287 17.6345 104.277 20.1015C101.718 23.2995 99.7995 28.1421 99.7995 28.1421C99.7995 28.1421 99.8909 27.2284 99.9822 26.4061C100.074 25.8579 100.256 23.2995 100.713 21.0152C100.987 19.736 101.079 18.731 101.079 18.5482C101.17 17.9086 100.987 17.3604 100.713 16.9949C100.348 16.6294 99.8909 16.3553 99.3426 16.3553C98.4289 16.3553 97.3325 16.9949 96.7843 18.6396C96.5102 19.3706 96.4188 19.9188 96.236 20.8325L96.0533 21.6548L95.4137 21.1066C92.9467 18.8223 89.566 16.1726 84.632 16.1726C77.7792 16.1726 74.033 22.5685 74.033 28.599C74.033 29.3299 74.1244 30.0609 74.1244 30.7005V30.9746C74.1244 30.9746 72.6624 34.4467 70.1954 33.8071C69.099 33.533 68.368 32.3452 68.368 29.5127C68.368 27.1371 68.8249 23.9391 69.099 22.1117C69.1904 21.4721 69.2817 20.9239 69.2817 20.7411L69.3731 20.0102C69.5558 17.9086 69.6472 16.9036 68.9162 16.4467C68.368 16.0812 67.8198 15.9898 67.2716 15.9898C66.7234 15.9898 66.2665 16.264 65.8096 16.5381C65.1701 16.9949 63.1599 19.736 59.3223 26.0406C59.231 26.132 59.231 26.2233 59.231 26.2233L58.7741 27.0457L57.769 29.2386L58.3173 25.9492V25.7665C58.4086 25.2183 58.5914 24.2132 58.5914 23.9391L58.7741 23.2081C59.0482 22.1117 59.5965 19.736 59.6878 19.2792C59.9619 17.9086 59.8706 16.9949 59.4137 16.4467C59.1396 16.0812 58.5914 15.8985 57.8604 15.8985C56.4898 15.8985 55.302 16.9949 53.3833 20.1015C53.1091 20.5584 51.9213 22.4772 51.0076 23.9391C49.8198 25.8579 48.8147 27.3198 48.8147 27.3198L49.0888 24.7614C49.2716 23.5736 50.0025 18.2741 50.0025 18C50.0025 16.9036 49.4543 16.3553 48.2665 16.3553C47.8096 16.3553 46.6218 16.4467 46.0736 17.4518C45.6168 18.3655 44.3376 22.4772 43.7893 28.6904C43.7893 28.6904 38.9467 33.4416 33.7386 33.4416C31.8198 33.4416 30.2665 32.7107 29.7183 31.2487C29.7183 31.2487 32.4594 29.7868 33.83 28.8731C37.2107 26.4975 39.6777 24.1218 39.6777 21.0152C39.6777 17.269 36.2056 15.533 33.3731 15.8985C28.4391 16.5381 24.3274 21.7462 24.3274 27.7766C24.3274 33.4416 27.434 37.5533 32.9162 37.5533C39.2208 37.5533 43.6066 32.3452 43.6066 32.3452L43.5152 34.7208C43.4239 36 43.9721 37.5533 45.9822 37.5533C46.5305 37.5533 47.5355 37.3706 48.0838 36.1827C51.2817 29.0558 54.6624 23.3909 54.7538 23.3909L54.8452 23.2081L55.3934 22.1117L56.3071 20.6497L55.5761 23.8477C55.4848 24.5787 54.297 30.9746 54.2056 33.8071C54.1142 35.269 54.1142 36.6396 54.6624 37.2792C54.9365 37.5533 55.3934 37.736 56.033 37.736C57.5863 37.736 58.5 37.1878 58.8655 36.1827C61.3325 28.599 64.0736 23.4822 64.165 23.2995L64.2563 23.1167L65.6269 20.3756C65.6269 20.3756 64.5305 26.6802 64.5305 30.9746C64.5305 33.0761 64.8959 36.8223 67.8198 37.4619C72.297 38.5584 75.0381 33.8985 75.0381 33.8985L75.3122 34.7208C76.5914 36.9137 78.6929 38.0101 81.434 38.0101C87.099 38.0101 90.7538 33.533 90.7538 26.6802C90.7538 22.3858 88.835 19.9188 88.835 19.9188C88.835 19.9188 91.0279 20.6497 92.5812 21.8376C94.3173 23.1167 95.5051 24.3959 95.5051 24.3959V24.67C95.4137 25.0355 95.4137 25.3096 95.3223 25.6751C95.1396 26.9543 94.9569 28.4162 94.8655 29.7868C94.7741 31.066 94.6827 32.2538 94.6827 33.3503C94.6827 33.9898 94.6827 34.5381 94.7741 35.0863C94.8655 35.6345 94.9569 36.0914 95.1396 36.5482C95.231 36.6396 95.7792 37.8274 97.1498 37.8274C98.0635 37.8274 98.703 37.4619 99.1599 36.4569C103.546 26.132 107.109 22.7513 107.383 22.4772C108.206 21.5635 107.84 23.2081 107.84 23.2081V23.3909C107.84 23.3909 107.292 26.9543 107.201 27.9594C107.109 29.0558 107.018 29.9695 107.018 30.9746C107.018 33.8985 107.657 37.1878 111.038 37.6447C115.607 38.3756 117.16 34.7208 117.16 34.7208C117.16 34.7208 118.805 37.736 122.734 37.736C128.49 37.736 130.226 33.3503 130.226 33.3503C130.865 36 131.871 37.4619 134.52 37.4619C137.353 37.4619 139.272 34.264 139.272 34.264C139.272 34.264 140.916 37.736 144.845 37.736C149.414 37.736 151.789 34.264 151.881 34.0812L152.429 33.2589C152.429 33.2589 153.891 37.0964 157.728 37.2792C161.383 37.3706 163.85 34.8122 163.85 34.8122ZM6.87563 36.1827C2.85533 36 2.58122 32.8934 6.32741 32.0711C9.70812 31.3401 12.5406 32.5279 12.5406 32.5279C12.5406 32.5279 11.7183 36.3655 6.87563 36.1827ZM24.7843 4.29442C27.1599 4.47716 26.9772 7.7665 26.3376 9.77665C24.5102 15.8071 20.033 15.9898 20.033 15.9898C20.033 15.9898 21.4036 4.0203 24.7843 4.29442ZM19.6675 18.8223C19.6675 18.8223 27.1599 18.9137 29.7183 10.0508C31.1802 4.84264 29.0787 0.456853 24.6929 0.365482C20.3071 0.274112 16.835 4.20305 15.2817 15.9898C15.2817 15.9898 10.9873 15.4416 9.1599 12.0609C8.24619 10.4162 6.87563 11.2386 7.33249 12.7005C8.79442 17.8173 15.0076 18.6396 15.0076 18.6396C15.0076 18.6396 14.6421 20.9239 14.2766 23.7563C13.9112 26.4975 13.2716 29.8782 13.2716 29.8782C13.2716 29.8782 9.34264 28.599 5.04822 29.5127C-1.43909 30.8832 -2.17005 38.9239 5.77919 39.7462C15.099 40.6599 16.835 34.1726 16.835 34.1726C16.835 34.1726 18.6624 35.0863 21.2208 37.3706C24.1447 39.9289 25.4239 41.5736 25.9721 41.0254C26.6117 40.3858 25.1497 38.1929 22.5 35.3604C19.4848 32.1624 17.3832 31.3401 17.3832 31.3401C17.3832 31.3401 17.8401 29.2386 18.3883 25.8579C19.1193 22.2944 19.6675 18.8223 19.6675 18.8223Z" fill="white"></path>
</svg>
