<?xml version="1.0" encoding="UTF-8"?>
<svg xmlns="http://www.w3.org/2000/svg" width="126" height="65" viewBox="0 0 126 65" fill="none">
  <g clip-path="url(#clip0_877_5383)">
    <path d="M9.01464 55.1751C3.67377 55.1751 1.56742 52.0676 2.46447 46.8891L4.83192 33.218H0L0.923516 27.8832H5.75191L7.21436 19.4409H13.5758L12.1133 27.8832H18.7764L17.852 33.218H11.1898L8.92026 46.3197C8.56214 48.3907 9.32513 49.2718 11.3592 49.2718C12.7515 49.2756 14.1427 49.1889 15.5242 49.0122L14.5822 54.4503C12.7622 54.9216 10.8925 55.165 9.01464 55.1751Z" fill="white"></path>
    <path d="M18.0703 54.6651L22.7082 27.8833H29.1322L24.4943 54.6651H18.0703Z" fill="white"></path>
    <path d="M103.799 55.1751C98.4584 55.1751 96.3521 52.0676 97.2491 46.8891L99.6166 33.218H94.7891L95.7126 27.8832H100.541L102.003 19.4409H108.365L106.902 27.8832H113.565L112.641 33.218H105.979L103.709 46.3197C103.351 48.3907 104.114 49.2718 106.148 49.2718C107.541 49.2756 108.932 49.1889 110.313 49.0122L109.371 54.4503C107.55 54.922 105.679 55.1654 103.799 55.1751Z" fill="white"></path>
    <path d="M112.859 54.6651L117.497 27.8833H123.921L119.283 54.6651H112.859Z" fill="white"></path>
    <path d="M47.9035 53.2653C46.0512 54.6035 43.7887 55.4271 41.1117 55.4271C37.9777 55.4271 35.6429 54.2946 34.6912 52.8028L32.5778 65.0001H26.2578L32.666 27.9978H38.5678L38.0209 30.9319C40.0162 28.4612 43.1369 27.3799 46.0159 27.3799C48.6445 27.3799 50.607 28.3067 51.9928 29.6449C54.6742 32.2665 55.5422 36.2838 54.6725 41.3249C53.7631 46.5753 51.4918 50.641 47.9035 53.2653ZM47.7033 34.854C46.9977 33.6703 45.7928 32.7425 43.8223 32.7425C38.8651 32.7425 37.0242 37.5322 36.3547 41.395C35.6853 45.2577 35.8775 49.9953 40.8338 49.9953C42.807 49.9953 44.333 49.0684 45.4488 47.8838C47.0665 46.1334 47.84 43.7121 48.2414 41.395C48.6427 39.0778 48.715 36.6053 47.7033 34.854Z" fill="white"></path>
    <path d="M75.5637 55.1547C72.8293 55.1547 71.6182 53.4033 71.7637 51.3943C70.176 53.5578 66.8189 55.4115 63.0763 55.4115C56.804 55.4115 54.2628 51.3943 55.0205 47.0169C55.9026 41.9183 60.3067 38.9832 65.3768 38.6222L73.2138 38.0564L73.4988 36.4083C73.9398 33.8846 73.3709 32.1872 69.7791 32.1872C66.8454 32.1872 64.8943 33.5263 64.3103 35.9988H58.1941C59.5913 29.9733 64.7593 27.2952 70.6268 27.2952C75.1253 27.2952 78.7223 28.7375 79.5444 32.7539C79.9069 34.454 79.6785 36.3589 79.368 38.1614L77.6453 48.0991C77.431 49.3349 77.7556 49.7983 78.8176 49.7983C79.0961 49.7926 79.3733 49.758 79.6449 49.695L78.8273 54.4335C77.6806 54.8969 77.0808 55.1547 75.5637 55.1547ZM72.3882 42.8397L65.6228 43.3543C63.6735 43.5088 61.5971 44.6934 61.2231 46.857C60.8703 48.9173 62.4139 50.2052 64.3862 50.2052C68.3308 50.2052 71.4877 48.0416 72.1748 44.0764L72.3882 42.8397Z" fill="white"></path>
    <path d="M88.7655 55.0253C84.4664 55.0253 81.949 52.9138 82.8319 47.8152L87.7353 19.4348H94.1082L89.3927 46.7303C89.1281 48.2751 89.3045 49.3052 91.4752 49.3052C92.0318 49.3052 92.1923 49.2531 92.546 49.2531L91.6102 54.6607C90.3012 54.922 90.0313 55.0253 88.7655 55.0253Z" fill="white"></path>
    <path d="M125.993 15.0826C126.023 15.9876 125.818 16.8845 125.397 17.6825C124.977 18.4804 124.357 19.151 123.6 19.6261C122.843 20.1012 121.976 20.3641 121.087 20.3879C120.198 20.4117 119.319 20.1957 118.538 19.7618C118.45 19.7088 118.362 19.6558 118.273 19.6046C118.268 19.5974 118.266 19.5947 118.26 19.5947C104.994 11.6527 89.4328 7.32109 72.9154 7.87972C55.9869 8.45271 40.393 14.0812 27.4893 23.2994C27.4223 23.3443 27.3526 23.3893 27.2865 23.4404C27.1683 23.5021 27.0382 23.5364 26.9054 23.541C26.7855 23.5452 26.666 23.5253 26.5536 23.4824C26.4413 23.4396 26.3383 23.3746 26.2507 23.2912C26.163 23.2078 26.0924 23.1076 26.0428 22.9963C25.9932 22.8851 25.9656 22.765 25.9616 22.6429C25.9553 22.4773 25.9934 22.313 26.0719 22.1678C26.2227 22.0259 26.3735 21.8903 26.5261 21.7511C40.7026 8.84609 59.2382 0.740607 79.7319 0.0481612C95.3894 -0.481726 110.189 3.38286 122.988 10.5561C122.993 10.5561 122.996 10.5561 123.001 10.5633L123.359 10.7627C123.896 11.0576 124.378 11.4475 124.78 11.914C125.528 12.7983 125.956 13.9164 125.993 15.0826Z" fill="white"></path>
  </g>
  <defs>
    <clipPath id="clip0_877_5383">
      <rect width="126" height="65" fill="white"></rect>
    </clipPath>
  </defs>
</svg>
