<?xml version="1.0" encoding="UTF-8"?>
<svg xmlns="http://www.w3.org/2000/svg" width="78" height="45" viewBox="0 0 78 45" fill="none">
  <path d="M28.661 28.3606C24.9561 28.3606 22.5088 25.9118 22.5088 22.1704C22.5088 18.5311 25.075 15.9802 28.7969 15.9802C30.4965 15.9802 32.043 16.6095 33.2156 17.8169L31.941 19.0923C31.1422 18.2931 29.9356 17.8169 28.7799 17.8169C26.2476 17.8169 24.4972 19.5685 24.4972 22.1704C24.4972 24.8234 26.1287 26.524 28.661 26.524C29.8506 26.524 30.8193 26.2179 31.6691 25.5546V23.1058H28.3381V21.3542H33.5046V26.4049C32.1789 27.7314 30.6154 28.3606 28.661 28.3606Z" fill="#0000FF"></path>
  <path d="M38.3866 28.2926C36.2452 28.2926 34.8516 26.7621 34.8516 24.3643V19.7216H36.7551V24.2452C36.7551 25.7247 37.5029 26.575 38.7265 26.575C40.12 26.575 41.0548 25.5546 41.0548 24.1431V19.7216H42.9583V28.1226H41.2587L41.2417 27.0342C40.528 27.8675 39.5422 28.2926 38.3866 28.2926Z" fill="#0000FF"></path>
  <path d="M48.5723 28.3607C45.8021 28.3607 44.0176 26.609 44.0176 23.9221C44.0176 21.3201 45.7681 19.5515 48.3684 19.5515C51.3255 19.5515 52.9571 21.4902 52.6851 24.6364H45.972C46.125 25.8608 47.1447 26.6431 48.6232 26.6431C49.5751 26.6431 50.5268 26.3029 51.0366 25.7758L52.1922 26.8982C51.3595 27.7995 50.0169 28.3607 48.5723 28.3607ZM45.989 23.1568H50.8666C50.7307 21.9664 49.8129 21.2011 48.4193 21.2011C47.0937 21.2011 46.227 21.9154 45.989 23.1568Z" fill="#0000FF"></path>
  <path d="M57.1912 28.3267C55.7806 28.3267 54.523 27.9185 53.4014 27.0852L54.2851 25.7077C55.0329 26.3029 56.1376 26.6431 57.2423 26.6431C58.3129 26.6431 58.9248 26.3029 58.9248 25.6907C58.9248 25.0954 58.3809 24.8063 57.0893 24.6703C54.8969 24.4663 53.6563 23.5479 53.6563 22.0854C53.6563 20.5549 55.1178 19.5175 57.2932 19.5175C58.5679 19.5175 59.6896 19.8406 60.6243 20.4868L59.7915 21.8473C59.0437 21.3712 58.245 21.1331 57.3782 21.1331C56.1716 21.1331 55.5258 21.4732 55.5258 22.0854C55.5258 22.6296 56.0186 22.9187 57.2423 23.0548C59.7235 23.3269 60.8112 24.1261 60.8112 25.7077C60.8112 27.2723 59.3667 28.3267 57.1912 28.3267Z" fill="#0000FF"></path>
  <path d="M65.9803 28.2416C64.2468 28.2416 63.227 27.2382 63.227 25.2316V21.3371H61.6465V19.7216H63.227V17.5278L65.1135 17.3237V19.7216H67.5268V21.3371H65.1135V25.2316C65.1135 26.0819 65.5044 26.558 66.2862 26.558C66.626 26.558 67.017 26.456 67.3399 26.3029L67.8668 27.8335C67.2209 28.1226 66.6771 28.2416 65.9803 28.2416Z" fill="#0000FF"></path>
  <path d="M70.221 32L71.9205 28.0716L68.6064 19.7216H70.6458L72.1074 23.548L72.9741 25.9629L73.9428 23.548L75.5234 19.7216H77.5628L72.2944 32H70.221Z" fill="#0000FF"></path>
  <path d="M10.2778 12.3213C9.66813 11.8981 8.86155 11.8925 8.24608 12.3071L8.01354 12.4638C8.01329 12.4639 8.01304 12.4641 8.01279 12.4643L0.976749 17.204C0.97654 17.2042 0.976332 17.2043 0.976123 17.2045L0.795028 17.3265C0.29802 17.6613 0 18.2215 0 18.821V28.2045C0 29.1994 0.806125 30.0062 1.80053 30.0062H12.2519C13.2463 30.0062 14.0523 29.1995 14.0523 28.2045V20.8625C14.0523 20.2497 13.7411 19.6789 13.226 19.3473L10.2234 17.4143C9.64022 17.0389 8.89336 17.0319 8.30329 17.3965L5.15661 19.3407C4.62542 19.6689 4.30203 20.249 4.30203 20.8737V25.5642H6.05112V21.1034C6.05112 20.9429 6.13418 20.7938 6.27063 20.7094L6.27087 20.7092L9.00148 19.0221C9.15308 18.9285 9.34491 18.9301 9.49482 19.0264L12.0911 20.6979C12.2234 20.7832 12.3032 20.9298 12.3032 21.0873V27.7927C12.3032 28.0485 12.096 28.256 11.8403 28.256H2.21208C1.95638 28.256 1.74909 28.0485 1.74909 27.7927V19.0402C1.74909 18.8862 1.82562 18.7422 1.95327 18.6561L8.98957 13.9162C9.14768 13.8096 9.35484 13.811 9.51156 13.9195L16.3239 18.6477C16.3242 18.6478 16.3245 18.648 16.3247 18.6482C16.449 18.7348 16.523 18.8768 16.523 19.0283V30.0062H18.2721V18.8128C18.2721 18.2221 17.9828 17.669 17.4978 17.3323L17.3222 17.2104C17.3216 17.2101 17.3212 17.2098 17.3208 17.2095L10.2778 12.3213Z" fill="#0000FF"></path>
</svg>
