<?xml version="1.0" encoding="UTF-8"?>
<svg xmlns="http://www.w3.org/2000/svg" width="100" height="46" viewBox="0 0 100 46" fill="none">
  <g clip-path="url(#clip0_119_1184)">
    <path fill-rule="evenodd" clip-rule="evenodd" d="M92.539 27.4692L92.4883 26.9109C92.4883 26.8093 92.1329 24.5251 93.7066 22.9007C94.1634 22.4438 94.7218 22.1393 95.2294 22.1393C95.6355 22.1393 95.9908 22.3423 96.1939 22.6977C97.006 24.4235 92.539 27.4692 92.539 27.4692ZM85.7878 23.8652L85.737 22.9007V22.7992C85.737 22.7484 85.534 19.7027 85.737 17.52C85.94 15.1342 86.6507 13.6114 87.5136 13.6114C87.6659 13.6114 87.869 13.7129 87.9705 13.8652C88.3766 14.4235 88.5289 15.8449 88.2751 17.1139C87.8182 19.1444 87.1583 20.8195 86.6507 21.987C86.4984 22.3423 86.3969 22.6469 86.2954 22.9007L85.7878 23.8652ZM81.067 30.3119C79.9502 30.3119 79.4426 29.2459 79.4426 28.2814C79.4426 23.1545 82.2345 22.1393 83.5035 22.5454C83.5035 22.5454 83.5543 23.5098 83.6558 24.7789C83.7573 25.8449 83.8081 27.1647 83.8588 27.2662C83.8588 27.2662 82.7928 30.3119 81.067 30.3119ZM72.1329 22.7484C72.1329 22.7484 71.8284 30.3119 68.9857 30.3119C67.6152 30.3119 67.5137 28.789 67.5137 28.3322C67.5137 22.9515 71.5746 21.987 72.1329 22.7484ZM45.7878 30.5149C44.1634 30.5149 43.5543 28.8905 43.5543 27.3677C43.5543 24.5758 45.1786 22.4438 46.5492 22.4438C47.9198 22.4438 48.3766 24.322 48.3766 25.5403C48.3766 28.3322 47.2599 30.5149 45.7878 30.5149ZM19.7472 24.0682C18.8335 25.5403 16.6507 26.9616 16.0416 27.2154C16.0416 27.2154 15.5847 24.3728 17.9198 22.6977C19.6456 21.4286 20.4578 23.0022 19.7472 24.0682ZM91.0162 30.7687C91.6761 31.8347 92.8436 32.3423 94.5187 32.3423C96.3461 32.3423 98.2751 30.9718 99.3411 29.652C100.001 28.8905 100.052 28.4337 99.7979 28.1799C99.5441 27.9768 98.9857 28.2306 98.4781 28.6875C97.8182 29.2966 96.3461 30.2103 95.1279 30.2103C93.605 30.2103 92.8944 29.1951 92.8944 29.1951C95.9908 27.3169 98.2751 25.1342 98.2751 23.3068C98.2751 21.2256 96.7522 20.3119 95.2294 20.3119C92.539 20.3119 89.5949 22.7992 89.5949 26.8093C89.5949 28.1291 90.0517 29.2459 90.0517 29.2459C90.0517 29.2459 89.4934 30.1088 87.8182 29.9565C85.9908 29.8043 86.0923 26.5048 86.0923 26.5048C86.0923 26.5048 86.6507 25.4895 86.8538 25.0834C88.072 22.7992 89.7472 19.7027 90.0517 15.9971C90.204 13.9159 89.5949 12.7992 89.0873 12.2408C88.6304 11.7332 88.0213 11.4286 87.4121 11.4286C85.3309 11.4286 83.8588 13.6114 83.5035 15.7433C83.1482 17.8246 83.3005 20.9718 83.3005 20.9718C83.3005 20.9718 81.4223 20.5149 79.4934 21.7839C77.7675 22.9515 77.006 25.3372 76.7522 26.5048C76.6507 27.0631 76.6 27.6215 76.6507 28.1799C76.6507 28.4337 76.7522 28.9413 76.7522 28.9413C76.7522 28.9413 76.1431 30.2611 75.0264 30.2611C73.2497 30.2611 74.4172 21.9362 74.468 21.4794C74.5187 21.1241 74.7725 20.3119 73.5035 20.2611C72.7421 20.2103 72.4375 20.5149 72.3868 20.8702L72.336 21.2256C72.336 21.2256 69.7472 19.4489 66.8538 22.6469C65.2802 24.322 64.7218 26.7586 64.7218 28.7383V28.8398C64.7218 28.8398 64.0619 30.718 62.5898 30.4134C61.5746 30.2103 61.473 28.4337 61.473 27.7738C61.473 26.454 61.7776 24.9819 62.0314 23.8144C62.1837 23.053 62.336 22.4438 62.336 22.0885C62.336 20.8195 61.9807 20.3119 61.1685 20.3119C60.0517 20.3119 59.0365 21.2256 57.9198 22.5961C56.4984 24.3728 55.4324 27.0631 55.4324 27.0631C55.4324 27.0631 55.4832 26.5555 55.534 26.0987C55.5847 25.7941 55.6862 24.3728 55.9401 23.1037C56.0923 22.3931 56.1431 21.8347 56.1431 21.7332C56.1939 21.3779 56.0923 21.0733 55.9401 20.8702C55.737 20.6672 55.4832 20.5149 55.1786 20.5149C54.671 20.5149 54.0619 20.8702 53.7573 21.7839C53.605 22.19 53.5543 22.4946 53.4527 23.0022L53.3512 23.4591L52.9959 23.1545C51.6253 21.8855 49.7472 20.4134 47.006 20.4134C43.1989 20.4134 41.1177 23.9667 41.1177 27.3169C41.1177 27.723 41.1685 28.1291 41.1685 28.4845V28.6367C41.1685 28.6367 40.3563 30.5657 38.9857 30.2103C38.3766 30.0581 37.9705 29.3982 37.9705 27.8246C37.9705 26.5048 38.2243 24.7281 38.3766 23.7129C38.4274 23.3576 38.4781 23.053 38.4781 22.9515L38.5289 22.5454C38.6304 21.3779 38.6812 20.8195 38.2751 20.5657C37.9705 20.3626 37.6659 20.3119 37.3614 20.3119C37.0568 20.3119 36.803 20.4642 36.5492 20.6164C36.1939 20.8702 35.0771 22.3931 32.9451 25.8956C32.8944 25.9464 32.8944 25.9971 32.8944 25.9971L32.6406 26.454L32.0822 27.6723L32.3868 25.8449V25.7433C32.4375 25.4388 32.539 24.8804 32.539 24.7281L32.6406 24.322C32.7929 23.7129 33.0974 22.3931 33.1482 22.1393C33.3005 21.3779 33.2497 20.8702 32.9959 20.5657C32.8436 20.3626 32.539 20.2611 32.1329 20.2611C31.3715 20.2611 30.7116 20.8702 29.6456 22.5961C29.4934 22.8499 28.8335 23.9159 28.3258 24.7281C27.6659 25.7941 27.1076 26.6063 27.1076 26.6063L27.2599 25.185C27.3614 24.5251 27.7675 21.5809 27.7675 21.4286C27.7675 20.8195 27.4629 20.5149 26.803 20.5149C26.5492 20.5149 25.8893 20.5657 25.5847 21.1241C25.3309 21.6317 24.6203 23.9159 24.3157 27.3677C24.3157 27.3677 21.6253 30.0073 18.7319 30.0073C17.6659 30.0073 16.803 29.6012 16.4984 28.789C16.4984 28.789 18.0213 27.9768 18.7827 27.4692C20.6609 26.1494 22.0314 24.8296 22.0314 23.1037C22.0314 21.0225 20.1025 20.0581 18.5289 20.2611C15.7878 20.6164 13.5035 23.5098 13.5035 26.8601C13.5035 30.0073 15.2294 32.2916 18.2751 32.2916C21.7776 32.2916 24.2142 29.3982 24.2142 29.3982L24.1634 30.718C24.1126 31.4286 24.4172 32.2916 25.534 32.2916C25.8385 32.2916 26.3969 32.19 26.7015 31.5301C28.4781 27.5707 30.3563 24.4235 30.4071 24.4235L30.4578 24.322L30.7624 23.7129L31.27 22.9007L30.8639 24.6774C30.8132 25.0834 30.1533 28.6367 30.1025 30.2103C30.0517 31.0225 30.0517 31.7839 30.3563 32.1393C30.5086 32.2916 30.7624 32.3931 31.1177 32.3931C31.9807 32.3931 32.4883 32.0885 32.6913 31.5301C34.0619 27.3169 35.5847 24.4743 35.6355 24.3728L35.6863 24.2713L36.4477 22.7484C36.4477 22.7484 35.8385 26.251 35.8385 28.6367C35.8385 29.8043 36.0416 31.8855 37.6659 32.2408C40.1533 32.8499 41.6761 30.2611 41.6761 30.2611L41.8284 30.718C42.539 31.9362 43.7066 32.5454 45.2294 32.5454C48.3766 32.5454 50.4071 30.0581 50.4071 26.251C50.4071 23.8652 49.3411 22.4946 49.3411 22.4946C49.3411 22.4946 50.5593 22.9007 51.4223 23.5606C52.3868 24.2713 53.0467 24.9819 53.0467 24.9819V25.1342C52.9959 25.3372 52.9959 25.4895 52.9451 25.6926C52.8436 26.4032 52.7421 27.2154 52.6913 27.9768C52.6406 28.6875 52.5898 29.3474 52.5898 29.9565C52.5898 30.3119 52.5898 30.6164 52.6406 30.921C52.6913 31.2256 52.7421 31.4794 52.8436 31.7332C52.8944 31.7839 53.1989 32.4438 53.9604 32.4438C54.468 32.4438 54.8233 32.2408 55.0771 31.6824C57.5137 25.9464 59.4934 24.0682 59.6456 23.9159C60.1025 23.4083 59.8994 24.322 59.8994 24.322V24.4235C59.8994 24.4235 59.5949 26.4032 59.5441 26.9616C59.4934 27.5708 59.4426 28.0784 59.4426 28.6367C59.4426 30.2611 59.7979 32.0885 61.6761 32.3423C64.2142 32.7484 65.0771 30.718 65.0771 30.718C65.0771 30.718 65.9908 32.3931 68.1736 32.3931C71.3715 32.3931 72.336 29.9565 72.336 29.9565C72.6913 31.4286 73.2497 32.2408 74.7218 32.2408C76.2954 32.2408 77.3614 30.4642 77.3614 30.4642C77.3614 30.4642 78.2751 32.3931 80.4578 32.3931C82.9959 32.3931 84.3157 30.4642 84.3664 30.3626L84.671 29.9058C84.671 29.9058 85.4832 32.0378 87.6152 32.1393C89.6456 32.19 91.0162 30.7687 91.0162 30.7687ZM3.80808 31.5301C1.57458 31.4286 1.42229 29.7027 3.50351 29.2459C5.38168 28.8398 6.95529 29.4997 6.95529 29.4997C6.95529 29.4997 6.49843 31.6317 3.80808 31.5301ZM13.7573 13.8144C15.0771 13.9159 14.9756 15.7433 14.6203 16.8601C13.605 20.2103 11.1177 20.3119 11.1177 20.3119C11.1177 20.3119 11.8791 13.6621 13.7573 13.8144ZM10.9147 21.8855C10.9147 21.8855 15.0771 21.9362 16.4984 17.0124C17.3106 14.119 16.1431 11.6824 13.7066 11.6317C11.27 11.5809 9.34107 13.7636 8.47813 20.3119C8.47813 20.3119 6.09234 20.0073 5.07711 18.1291C4.5695 17.2154 3.80808 17.6723 4.06188 18.4845C4.87407 21.3271 8.32584 21.7839 8.32584 21.7839C8.32584 21.7839 8.1228 23.053 7.91975 24.6266C7.71671 26.1494 7.36138 28.0276 7.36138 28.0276C7.36138 28.0276 5.17864 27.3169 2.79285 27.8246C-0.811211 28.586 -1.2173 33.053 3.19894 33.5098C8.37661 34.0175 9.34107 30.4134 9.34107 30.4134C9.34107 30.4134 10.3563 30.921 11.7776 32.19C13.402 33.6114 14.1126 34.5251 14.4172 34.2205C14.7725 33.8652 13.9604 32.6469 12.4883 31.0733C10.8132 29.2966 9.64564 28.8398 9.64564 28.8398C9.64564 28.8398 9.89945 27.6723 10.204 25.7941C10.6101 23.8144 10.9147 21.8855 10.9147 21.8855Z" fill="white"></path>
  </g>
  <defs>
    <clipPath id="clip0_119_1184">
      <rect width="100" height="22.8426" fill="white" transform="translate(0 11.4286)"></rect>
    </clipPath>
  </defs>
</svg>
