<?xml version="1.0" encoding="UTF-8"?>
<svg xmlns="http://www.w3.org/2000/svg" width="218" height="48" viewBox="0 0 218 48" fill="none">
  <path d="M5.36512 37.2278C4.41171 37.2299 3.47484 36.9789 2.65021 36.5003C1.82558 36.0218 1.14275 35.333 0.671484 34.5042C0.207431 33.6812 -0.0240044 32.7475 0.00196877 31.8031C0.027942 30.8587 0.310345 29.9392 0.818928 29.143L10.4847 13.9644C10.9794 13.1486 11.6818 12.4788 12.5201 12.0233C13.3584 11.5678 14.3026 11.343 15.2562 11.3718C16.209 11.3947 17.1388 11.6703 17.9501 12.1704C18.7615 12.6706 19.4255 13.3773 19.874 14.2183C20.7751 15.9221 20.6624 17.972 19.5832 19.5714L9.9236 34.7499C9.43375 35.5132 8.75913 36.1406 7.96227 36.5737C7.16541 37.0069 6.27209 37.2318 5.36512 37.2278Z" fill="white"></path>
  <path d="M21.9491 37.2274C19.9996 37.2274 18.2057 36.185 17.2637 34.5099C16.8006 33.6892 16.5697 32.758 16.5957 31.816C16.6217 30.8741 16.9036 29.9569 17.4111 29.163L27.0585 14.0193C27.5459 13.192 28.2458 12.5103 29.0855 12.0447C29.9252 11.5791 30.8742 11.3466 31.834 11.3714C33.7999 11.4144 35.5815 12.5141 36.4826 14.2343C37.3775 15.9545 37.2464 18.0166 36.1345 19.6119L26.4892 34.7556C26.0008 35.5157 25.3289 36.1406 24.5355 36.5726C23.742 37.0045 22.8525 37.2297 21.9491 37.2274Z" fill="white"></path>
  <path d="M38.1559 37.3542C40.9042 37.3542 43.1322 35.173 43.1322 32.4824C43.1322 29.7918 40.9042 27.6106 38.1559 27.6106C35.4076 27.6106 33.1797 29.7918 33.1797 32.4824C33.1797 35.173 35.4076 37.3542 38.1559 37.3542Z" fill="white"></path>
  <path fill-rule="evenodd" clip-rule="evenodd" d="M217.825 12.6065H210.553L205.456 25.7474L200.386 12.6065H193.114L201.954 33.3715L196.456 47.1002H203.675L217.825 12.6065ZM173.6 24.1563C173.6 27.4737 176.5 29.6567 179.348 29.6567C182.148 29.6567 184.898 27.6253 184.898 24.1542C184.898 20.6831 182.148 18.6496 179.348 18.6496C176.5 18.6496 173.6 20.8367 173.6 24.1563ZM184.898 35.7511V33.1237C183.424 35.3559 179.983 36.1996 178.218 36.1996C172.373 36.1996 166.527 31.5919 166.527 24.1542C166.527 16.7185 172.371 12.1109 178.218 12.1109C179.69 12.1109 183.131 12.6024 184.898 15.1826V12.6147H191.676V35.7552L184.898 35.7511ZM164.598 35.7511H157.819V32.8759C156.687 35.0057 153.941 36.2467 151.09 36.2467C145.195 36.2467 139.987 31.5387 139.987 24.2484C139.987 16.8209 145.195 12.1068 151.09 12.1068C153.937 12.1068 156.691 13.2945 157.819 15.4263V0H164.598V35.7511ZM157.672 24.103C157.672 20.634 155.168 18.6005 152.368 18.6005C149.468 18.6005 147.06 20.7814 147.06 24.103C147.06 27.5311 149.468 29.7018 152.366 29.7018C155.219 29.7059 157.672 27.4246 157.672 24.103ZM123.227 23.505C123.227 19.9869 125.046 18.7971 127.452 18.7971C129.76 18.7971 131.431 20.3329 131.431 23.4047V35.747H138.259V21.92C138.259 15.3301 135.015 12.1068 129.856 12.1068C127.155 12.1068 124.454 13.6427 123.225 15.9731V12.6065H116.402V35.747H123.227V23.505ZM102.538 36.1443C96.0547 36.1443 90.6464 31.3872 90.6464 24.101C90.6464 16.8107 96.0486 12.1007 102.538 12.1007C109.028 12.1007 114.477 16.8107 114.477 24.101C114.477 31.3913 109.022 36.1443 102.538 36.1443ZM102.538 29.4069C105.385 29.4069 107.746 27.3222 107.746 24.103C107.746 20.9801 105.387 18.8483 102.538 18.8483C101.852 18.8375 101.171 18.9665 100.537 19.2274C99.9026 19.4883 99.3279 19.8756 98.848 20.3657C98.3653 20.8585 97.9865 21.4432 97.7343 22.0852C97.4821 22.7273 97.3615 23.4135 97.3797 24.103C97.3817 27.3263 99.7388 29.4069 102.538 29.4069ZM78.4065 18.7991C80.4195 18.7991 82.1889 20.3862 82.1889 23.4068V35.7511H88.9672V22.6081C88.9672 15.6209 85.5698 12.1027 80.1246 12.1027C78.5068 12.1027 75.4597 12.5942 73.248 16.2148C71.9702 13.5382 69.5148 12.1498 65.886 12.1498C64.6262 12.1434 63.3911 12.5 62.3285 13.1769C61.2659 13.8538 60.4208 14.8224 59.8941 15.967V12.6085H53.0625V35.7491H59.8879V23.505C59.8879 19.9869 61.8047 18.7971 63.8669 18.7971C65.8328 18.7971 67.598 20.333 67.6492 23.2573V35.7491H74.4767V23.505C74.4767 20.1405 76.246 18.7991 78.4065 18.7991Z" fill="white"></path>
</svg>
