<svg xmlns="http://www.w3.org/2000/svg" width="77" height="77" fill="none" viewBox="0 0 77 77"><circle cx="38.203" cy="38.203" r="33.319" fill="#ffff78" transform="rotate(-6.92 38.203 38.203)"/><circle cx="38.203" cy="38.203" r="33.319" fill="#39bf97" transform="rotate(-6.92 38.203 38.203)"/><circle cx="38.203" cy="38.203" r="33.319" stroke="#000" stroke-width="2" transform="rotate(-6.92 38.203 38.203)"/><path fill="#000" stroke="#000" d="M66.658 47.342c-2.22 6.143-7.07 11.388-11.4 14.908-2.838 2.308-10.939 5.054-9.013 1.945 1.212-1.957 1.167-2.314-1.04-8.562-1.764-4.998 5.218-4.736 8.93-3.98 1.513.54 4.987 1.133 6.777-.822 2.238-2.443 1.978-4.584 1.448-5.968-1.841-4.808 6.047-2.364 4.298 2.479Z"/><path fill="#fff" stroke="#000" d="M40.248 10.693c.478-.816 1.471-1.311 2.815-1.357 1.335-.046 2.94.362 4.48 1.262s2.684 2.1 3.3 3.286c.618 1.194.673 2.302.196 3.119-.477.816-1.471 1.311-2.814 1.358-1.336.046-2.941-.363-4.482-1.263-1.54-.9-2.683-2.1-3.298-3.286-.618-1.193-.674-2.302-.197-3.119ZM54.595 19.232c.168-.124.458-.17.867-.011.402.157.848.493 1.214.99.366.496.555 1.02.586 1.451.032.438-.1.702-.267.825-.167.124-.457.17-.866.011-.402-.157-.848-.493-1.214-.99-.366-.496-.555-1.02-.586-1.451-.032-.438.099-.702.266-.825ZM15.733 52.481c.286-.21.74-.26 1.318-.035.571.223 1.19.694 1.695 1.379.505.684.772 1.415.816 2.026.044.619-.138 1.038-.424 1.25-.286.21-.74.26-1.319.035-.57-.223-1.19-.694-1.694-1.379-.505-.684-.772-1.415-.816-2.026-.045-.619.138-1.038.424-1.25Z"/></svg>