<svg xmlns="http://www.w3.org/2000/svg" width="141" height="141" fill="none" viewBox="0 0 141 141"><circle cx="70.249" cy="70.249" r="69.249" fill="#ffff78"/><circle cx="70.249" cy="70.249" r="69.249" fill="#39bf97"/><circle cx="70.249" cy="70.249" r="69.249" stroke="#000" stroke-width="2"/><path fill="#000" stroke="#000" d="M130.199 76.501c1.177 26.481-26.972 45.851-41.193 52.227-3.924 0-11.183-.736-8.827-3.678 2.945-3.678 2.942-4.414 0-17.654-2.354-10.593 11.77-8.337 19.125-5.885 2.943 1.471 9.857 3.531 13.976 0 5.15-4.414 5.15-8.827 4.414-11.77s1.471-11.033 12.505-13.24Z"/><path fill="#fff" stroke="#000" d="M85.476 16.154c1.13-1.486 3.15-2.164 5.615-1.95 2.457.212 5.278 1.312 7.858 3.273s4.396 4.384 5.259 6.695c.865 2.317.752 4.445-.377 5.93-1.129 1.487-3.15 2.165-5.614 1.952-2.457-.213-5.278-1.313-7.858-3.274s-4.396-4.384-5.258-6.695c-.866-2.317-.754-4.445.375-5.931ZM109.28 34.547c.942-.532 2.202-.445 3.534.27 1.325.712 2.652 2.016 3.636 3.758.984 1.74 1.418 3.55 1.344 5.052-.074 1.51-.649 2.634-1.591 3.166-.942.533-2.201.446-3.533-.27-1.326-.71-2.652-2.015-3.636-3.756-.985-1.741-1.418-3.55-1.345-5.053.074-1.51.649-2.634 1.591-3.167ZM20.809 93.267c.845-.477 1.982-.403 3.193.248 1.206.647 2.415 1.834 3.313 3.422s1.291 3.238 1.225 4.604c-.068 1.374-.59 2.385-1.435 2.863s-1.982.404-3.193-.247c-1.206-.647-2.415-1.834-3.313-3.423s-1.292-3.236-1.225-4.603c.068-1.374.59-2.386 1.435-2.864Z"/></svg>