<svg xmlns="http://www.w3.org/2000/svg" width="1154" height="962" fill="none" viewBox="0 0 1154 962"><path fill="#000" fill-rule="evenodd" d="M488.529 217.14 362.719 81.33l118.65 140.08c2.35-1.47 4.74-2.9 7.17-4.26zM518.999 203.47l-92.12-166.43 84.15 169.37c2.63-1.04 5.29-2.02 7.97-2.94M550.13 195.79 499.77 9.39l41.91 187.91c2.79-.57 5.61-1.07 8.45-1.51M433.729 264.99l-158.94-56.27 154.42 62.52c1.46-2.12 2.97-4.2 4.52-6.25M413.179 299.95l-157.05-15.54 154.29 22.22c.88-2.25 1.79-4.48 2.76-6.69zM459.609 237.45 311.02 139.68l142.589 103.17c1.96-1.85 3.961-3.65 6.011-5.41zM578.699 193.59c.92 0 1.84.02 2.76.03L577.159 0l-4.3 193.69c1.94-.06 3.89-.1 5.85-.1zM702.457 241.59l140.84-101.91-146.84 96.61c2.04 1.72 4.04 3.49 6 5.3M727.517 270.26l152.01-61.55-156.5 55.41c1.54 2.01 3.04 4.06 4.49 6.14M612.769 196.74 654.549 9.4l-50.24 185.96c2.84.39 5.66.85 8.46 1.37zM744.09 299.65c.95 2.16 1.86 4.35 2.73 6.56l151.37-21.8-154.09 15.25zM674.008 220.16l117.59-138.83-124.77 134.68c2.43 1.33 4.82 2.71 7.17 4.15zM643.799 205.41l83.65-168.36-91.64 165.55c2.69.88 5.35 1.81 7.99 2.81" clip-rule="evenodd"/><path fill="#ffcccb" d="M939.122 304.25h-702.79v238.93h702.79z"/><path stroke="#000" stroke-miterlimit="10" stroke-width="2" d="M236.332 492.49V304.25h703.05v193.46"/><path stroke="#000" stroke-width="3" d="M757.789 305.35h-113.41M509.629 305.35h-101.5"/><path fill="url(#a)" d="M579.351 513.26c96.551 0 174.82-71.827 174.82-160.43S675.902 192.4 579.351 192.4s-174.82 71.827-174.82 160.43 78.27 160.43 174.82 160.43"/><path fill="#f1cfbe" d="m569.53 433.51-68.74 8.25-2.06-5.89-10.21-10.21-2.55-9.82-1.08-5.21-5.89.69-10.51-3.44-10.31-5.89-7.071-7.07-5.299-9.43-3.04-12.18.79-12.67 3.54-9.72 5.6-7.56 8.64-7.95 10.8-4.62 11-1.47 11.1 2.46 1.67-6.78 9.04-14.14 10.12-11.2 7.76-6.97 14.05-8.64 16.4-6.68 18.56-2.65 12.58.49 13.35 1.38 14.43 5.11 12.38 6.48 12.469 9.62 9.721 9.63 10.12 14.93 2.46 7.86 11.49-.49 9.32.49 9.93 4.13 8.34 5.6 8.06 10.12 4.21 12.67.59 11.49-2.75 12.08-5.5 8.64-5.991 6.58-12.369 5.7-18.071 2.75-6.679 21.61-12.18 8.25-78.18-6.29z"/><path fill="#f1cfbe" d="m569.192 433.55-68.75 8.25-2.06-5.89-10.21-10.21-2.55-9.82-1.08-5.21-5.89.69-10.51-3.44-10.31-5.89-7.07-7.07-5.3-9.43-3.04-12.18.79-12.67 3.54-9.72 5.6-7.56 8.64-7.96 10.8-4.61 11-1.47 11.1 2.46 1.67-6.78 9.04-14.14 10.12-11.2 7.76-6.97 14.04-8.64 16.41-6.68 18.56-2.65 12.57.49 13.36 1.37 14.43 5.11 12.37 6.48 12.48 9.63 9.72 9.62 10.11 14.93 2.46 7.86 11.49-.49 9.33.49 9.93 4.12 8.34 5.6 8.05 10.12 4.22 12.67.59 11.49-2.75 12.08-5.51 8.64-5.98 6.58-12.38 5.7-18.06 2.75-6.68 21.61-12.18 8.25-78.18-6.29z"/><path fill="#fdf2d4" d="m513.44 426.75 2.16 11.86 22.63-2.16 37.72-1.62 64.13 3.77v-24.25l-3.77-12.93-5.39-14.55v-4.85l3.23-5.39 7.01-5.93 5.39-9.16 2.69-11.86V338.9l-2.69-11.86-5.39-8.62-7.01-9.16-11.86-6.47-14.55-2.16h-11.86l-10.24 4.85-8.08 3.77-8.62-3.77-9.7-4.85h-11.32l-15.09 2.16-11.32 6.47-8.08 8.08-4.85 9.7-4.85 15.09 3.23 17.24 6.47 12.93 10.78 9.7v4.85l-5.39 13.47-3.23 12.39-2.16 14.01zM661.96 365.32l-3.77 22.63c-.94 5.6 2.85 7.72 4.85 8.08h8.08l12.39-4.31 4.85-4.85 6.47-9.16 1.08-8.62-1.08-7.54-3.23-7.01-4.31-2.69-7.01-2.16h-5.93l-7.54 4.85zM492.231 365.32l3.77 22.63c.93 5.6-2.84 7.72-4.85 8.08h-8.08l-12.39-4.31-4.85-4.85-6.47-9.16-1.08-8.62 1.08-7.54 3.23-7.01 4.31-2.69 7.01-2.16h5.93l7.54 4.85z"/><path fill="#fff" d="m641.741 484.65 111.99 14.1-10.78-26.63c-8.62-19.27-27.6-27.22-36.02-28.78l-36.03-3.72-38.57-3.72-34.66-2.35h-48.94l-45.62 4.9-57.76 5.29-10.38 4.11-10.57 6.46-7.44 8.22-4.7 8.81-5.68 14.68-1.37 12.73 89.28-14.1h147.25M284.77 481.52l86.15 7.83-18.99 18.6-64.81 13.31-8.81 3.92 20.75 18.8 13.12 23.3 13.31 28.39 5.29 15.86c2.51 17.39-12.92 26.56-20.95 28.98-19.11 6.42-31.98-7.24-36.03-14.88l-3.92-23.1c-3.13-12.84-9.27-10.96-11.94-8.42-11.28 8.15-21.67 30.02-25.45 39.94l-2.15 10.18v9.2l4.89 15.66c2.48 3.52 7.95 12.69 9.99 21.15s-5.81 17.36-9.99 20.75c-7.52 6.27-24.93 6-32.7 5.09l-2.74 7.24-10.77 7.83c-17.7 7.67-34.26 1.24-40.33-2.94l-13.51 8.81-18.01-1.18-8.43-8.81-5.29-13.9h-7.44l-7.5-1.25c-31.13-11.6 4.17-88.03 28.65-122.87l2.34-7.26c19.42-70.8 118.26-96.33 165.25-100.25zM869.64 481.52l-86.16 7.83 18.99 18.6 64.81 13.31 8.81 3.92-20.76 18.8-13.12 23.3-13.31 28.39-5.29 15.86c-2.51 17.39 12.91 26.56 20.95 28.98 19.11 6.42 31.98-7.24 36.02-14.88l3.92-23.1c3.13-12.84 9.26-10.96 11.94-8.42 11.28 8.15 21.67 30.02 25.46 39.94l2.15 10.18v9.2l-4.89 15.66c-2.48 3.52-7.95 12.69-9.99 21.15-2.03 8.46 5.81 17.36 9.99 20.75 7.51 6.27 24.92 6 32.69 5.09l2.74 7.24 10.78 7.83c17.69 7.67 34.261 1.24 40.33-2.94l13.51 8.81 18.01-1.17 8.42-8.81 5.29-13.9h7.44l7.5-1.25c31.13-11.6-4.17-88.03-28.65-122.87l-2.34-7.26c-19.42-70.8-118.26-96.33-165.25-100.25z"/><path fill="#000" d="M374.59 477.55c23.18 5.03 37.24-5.96 41.62-12.01l-13.86 27.37h-12.67l-15.08-15.36z"/><path fill="#000" stroke="#000" stroke-miterlimit="10" stroke-width="2" d="M963.141 280.59h-24.02v24.02h24.02z"/><path stroke="#000" stroke-linecap="round" stroke-miterlimit="10" stroke-width="2.54" d="M753.49 352.08c0 36.17-13.27 69.52-35.61 96.24a49 49 0 0 0-15.34-4.08c-14.9-1.44-33.6-3.17-52.51-4.72h-.01c-3.92-.32-7.85-.63-11.75-.93-23.55-1.8-61.33-3.17-61.33-3.17-14.73 0-37.51 1.35-60.91 3.14-4.4.34-8.84.69-13.26 1.05-18.54 1.52-36.81 3.22-51.43 4.63a48.9 48.9 0 0 0-12.33 2.84c-21.72-26.5-34.58-59.39-34.58-95 0-87.8 78.14-158.98 174.53-158.98s174.53 71.18 174.53 158.98Z"/><path stroke="#000" stroke-linecap="round" stroke-miterlimit="10" stroke-width="2.49" d="M602.571 363.33c-2.2-3.45-3.54-8.07-3.54-13.15 0-10.68 5.95-19.34 13.29-19.34s13.29 8.66 13.29 19.34c0 3.64-.69 7.05-1.89 9.95"/><path fill="#000" stroke="#000" stroke-miterlimit="10" stroke-width="1.84" d="M608.359 367.12c5.048 0 9.14-6.903 9.14-15.42s-4.092-15.42-9.14-15.42-9.14 6.904-9.14 15.42 4.092 15.42 9.14 15.42Z"/><path stroke="#000" stroke-linecap="round" stroke-miterlimit="10" stroke-width="2.49" d="M550.821 363.33c2.2-3.45 3.54-8.07 3.54-13.15 0-10.68-5.95-19.34-13.29-19.34s-13.29 8.66-13.29 19.34c0 3.64.69 7.05 1.89 9.95"/><path fill="#000" stroke="#000" stroke-miterlimit="10" stroke-width="1.84" d="M545.019 367.12c5.048 0 9.14-6.903 9.14-15.42s-4.092-15.42-9.14-15.42-9.14 6.904-9.14 15.42 4.092 15.42 9.14 15.42Z"/><path fill="#000" stroke="#000" stroke-miterlimit="10" stroke-width="1.71" d="M593.959 371.44c.82 1.93-.08 4.15-2.01 4.97s-10.36 3.24-11.17 1.31 6.29-7.48 8.22-8.3 4.15.08 4.97 2.01zM560.362 371.44c-.82 1.93.08 4.15 2.01 4.97s10.36 3.24 11.17 1.31c.82-1.93-6.29-7.48-8.22-8.3s-4.15.08-4.97 2.01z"/><path stroke="#000" stroke-linecap="round" stroke-miterlimit="10" stroke-width="2.49" d="M616.541 393.76c-9.39 8.44-24.08 13.87-40.61 13.87s-29.83-4.93-39.24-12.7"/><path stroke="#000" stroke-linecap="round" stroke-miterlimit="10" stroke-width="2.49" d="M630.902 387.79c6.41 10.17 10 22.29 9.7 35.26-.12 5.37-.93 10.57-2.33 15.54-23.55-1.8-46.52-3.17-61.33-3.17-14.73 0-37.51 1.35-60.91 3.14a63 63 0 0 1-2.32-17.02c0-12.34 3.52-23.85 9.62-33.59 2.11-3.38 1.37-7.8-1.78-10.25-10.37-8.07-17.04-20.66-17.04-34.82 0-24.34 19.74-44.08 44.09-44.08 9.19 0 17.74 2.82 24.81 7.64 2.17 1.48 5 1.47 7.17-.01 7.7-5.25 17.15-8.12 27.29-7.56 22.35 1.24 40.44 19.43 41.54 41.79.73 14.93-5.97 28.34-16.72 36.84a7.78 7.78 0 0 0-1.79 10.29Z"/><path stroke="#000" stroke-linecap="round" stroke-miterlimit="10" stroke-width="2.49" d="M710.83 368.53c0 22.59-18.32 40.91-40.91 40.91-.53 0-1.07-.01-1.6-.03-.8 12.46-5.03 22.83-18.29 30.11h-.01c-3.92-.32-7.85-.63-11.75-.93-23.55-1.8-46.52-3.17-61.33-3.17-14.73 0-37.51 1.35-60.91 3.14-4.4.34-8.84.69-13.26 1.05-13.41-7.27-17.37-17.67-17.85-30.18-.36.01-.72.01-1.08.01-22.59 0-40.91-18.32-40.91-40.91s18.32-40.92 40.91-40.92c3.66 0 7.21.48 10.58 1.38 13.13-32.73 45.15-55.84 82.57-55.84s69.41 23.09 82.54 55.79c3.32-.87 6.8-1.33 10.39-1.33 22.59 0 40.91 18.32 40.91 40.92Z"/><path fill="#000" d="M748.33 488.93s91.51-52.86 218.78 21.34l-56.01-17.23-35.01 1.59-45.76 19.66-7.61 8.12-69.51-21.27-4.89-12.22z"/><path stroke="#000" stroke-linecap="round" stroke-miterlimit="10" stroke-width="2.49" d="M487.1 395.19c-15.58 0-28.26-12.68-28.26-28.26 0-2.6.35-5.11 1.01-7.5 4.54-16.46 28.28-15.4 31.53 1.36l4.98 25.71"/><path stroke="#000" stroke-linecap="round" stroke-miterlimit="10" stroke-width="2.49" d="M474.559 375.23c-1.26-5.15 1.89-10.34 7.04-11.61 5.15-1.26 10.34 1.89 11.61 7.04M666.662 395.19c15.58 0 28.26-12.68 28.26-28.26 0-2.6-.35-5.11-1.01-7.5-4.54-16.46-28.28-15.4-31.53 1.36l-4.98 25.71"/><path stroke="#000" stroke-linecap="round" stroke-miterlimit="10" stroke-width="2.49" d="M679.201 375.23c1.26-5.15-1.89-10.34-7.04-11.61-5.15-1.26-10.34 1.89-11.61 7.04M755.169 508.77h-356.47l11.33-32.18a48.74 48.74 0 0 1 28.98-29.51 48.9 48.9 0 0 1 12.33-2.84c14.62-1.41 32.89-3.11 51.43-4.63 4.42-.36 8.86-.71 13.26-1.05 23.4-1.79 46.18-3.14 60.91-3.14 14.82 0 37.78 1.37 61.33 3.17 3.9.3 7.83.61 11.75.93h.01c18.91 1.55 37.61 3.28 52.51 4.72 5.4.53 10.57 1.93 15.34 4.08a48.76 48.76 0 0 1 25.96 28.27z"/><path fill="#000" stroke="#000" stroke-linecap="round" stroke-miterlimit="10" stroke-width="2.49" d="M576.51 477.85c6.119 0 11.08-6.77 11.08-15.12 0-8.351-4.961-15.12-11.08-15.12-6.12 0-11.08 6.769-11.08 15.12s4.96 15.12 11.08 15.12Z"/><path fill="#fff" stroke="#000" stroke-miterlimit="10" stroke-width="2" d="M436.442 305.35a7 7 0 0 1-6.33-9.97c9.83-21.02 25.26-39.95 44.63-54.76 3.07-2.35 7.46-1.76 9.81 1.31s1.76 7.46-1.31 9.81c-17.58 13.45-31.57 30.59-40.45 49.57a7.01 7.01 0 0 1-6.35 4.04Z"/><path fill="#000" d="m456.073 398.26 10.52-12.14s9.82 8.64 23.57 7.43c0 0 6.769 23.33 23.769 16.04 0 0-1.489 26.37 2.091 28.97l-13.26 1.05s-20.97-10.52-17.85-30.18c0 0-14.941 1.63-28.851-11.17zM697.141 398.26l-10.52-12.14s-9.82 8.64-23.57 7.43c0 0-6.77 23.33-23.77 16.04 0 0 1.49 26.37-2.09 28.97l13.26 1.05s20.97-10.52 17.85-30.18c0 0 14.94 1.63 28.85-11.17zM477.311 328.46s12.76 4.15 17.8 12.16l1.48-14.54-2.18 2.91-17.11-.53zM676.991 328.46s-12.76 4.15-17.8 12.16l-1.48-14.54 2.18 2.91 17.11-.53z"/><path fill="#fff" stroke="#000" stroke-miterlimit="10" stroke-width="2" d="M497.27 242.25a8.5 8.5 0 1 0-.001-17.001 8.5 8.5 0 0 0 .001 17.001Z"/><path fill="#fff" stroke="#000" stroke-linecap="round" stroke-miterlimit="10" stroke-width="2.54" d="M576.509 468.9c5.545 0 10.04-4.764 10.04-10.64s-4.495-10.64-10.04-10.64-10.04 4.764-10.04 10.64 4.495 10.64 10.04 10.64Z"/><path fill="#000" stroke="#000" stroke-linecap="round" stroke-miterlimit="10" stroke-width="2.49" d="m400.781 501.13 4.71-11.57s190.29-38.46 342.28 4.05l8.05 22.64-183.14-6.31-107.58 11.87-64.32-20.67z"/><path stroke="#000" stroke-linecap="round" stroke-miterlimit="10" stroke-width="2.54" d="M815.371 521.38c27.34-27.21 78.05-36.68 128.91-20.65 51.31 16.18 87.619 53.53 93.949 91.86"/><path fill="#ffff78" d="M576.99 489.42c112.4 0 217.3 13.15 306 35.9l-4.75.24-22.78 21.21-14.93 24.35-1.37 6.28-11.98 25.14c-2.68 6.15-6.44 20.35 0 27.89s5.3 6.15 3.93 4.52c4.97 4.52 18.15 12.41 31.02 7.86 16.11-5.69 19.05-12.37 18.46-15.32-.46-2.36 3.87-20.62 6.09-29.46l12.18-1.96 10.22 13.35 7.66 12.96 3.92 9.03 3.34 9.82c1.44 4.45 2.24 17.17-6.09 32.4-8.32 15.24-8.05 24.02-6.87 26.51l6.87 11.39c5.37 3.73 19.96 10.25 35.35 6.48 3.01 8.12 14.45 23.21 36.13 18.66 2.95.06 10.6-1.41 17.68-7.86 4.45 6.41 17.75 16.5 35.34 5.5 2.3-1.77 7.59-8.48 10.41-21.21 7.79 3.01 23.92 3.81 26.12-17.09-.13-15.45-8.17-57.54-39.28-102.32v-4.12l25.14 16.1 23.57 16.3 18.65 15.91 14.92 15.32 11.4 13.55 10.99 15.71-.02-.21c6.35 14.01 9.65 28.46 9.65 43.22 0 130.37-258.32 236.06-576.98 236.06S0 855.84 0 725.47c0-13.69 2.85-27.11 8.32-40.16l-.47 8.74c19.17-44.93 77.9-85.49 104.87-100.16l-5.89 9.82-11.78 20.82-8.64 22.39c-2.23 3.53-7.62 15.95-11.39 37.31-3.77 21.37 6.02 28.8 11.39 29.85h15.32l3.54 12.96 4.71 5.5c15.08 13.51 30.37 4.06 36.13-2.36 24.82 14.45 43.6 3.93 49.88-3.14l6.68-8.64c34.25 5.03 42.55-17.54 42.42-29.46-13.51-17.6-16.37-35.35-16.1-42.03.94-13.83 12.96-34.56 18.85-43.21l10.61-9.82 8.64 5.5 5.11 25.14c3.77 16.34 20.69 19.64 28.67 19.25 24.51-1.26 30.11-18.85 29.85-27.49l-6.68-20.42-9.82-22-11-21.21-23.17-24.35-6.58-3.62c88.17-22.36 192.16-35.26 303.52-35.26"/><path stroke="#000" stroke-linecap="round" stroke-miterlimit="10" stroke-width="2.54" d="M872.222 528.7c-.42.27-.83.59-1.24.93-24.11 17.55-27.66 38.33-36.6 55.71-10.36 20.14-17.42 38.27-2.44 50.02 18.55 14.55 45.49 7.88 49.19-12.11 3.7-19.97 4.15-32.34 18.16-24.96 13.61 12.48 27.63 42.82 24.98 55.24-2.64 12.42-7.68 21.43-14.11 32.49-6.33 10.88 4.27 37.55 41.91 31.43 0 0-2.57 12.12 21.58 18.1 19.01 4.7 32.678-6.94 32.678-6.94s6.74 14.32 29.1 8.28c12.22-3.3 15.9-23.16 15.9-23.16s18.79 4.77 24.8-9.9c6.02-14.67-3.27-39.41-7.97-53.78-13.38-40.85-33.14-65.05-55.03-82.24-39.208-30.8-109.858-59.32-140.898-39.12z"/><path fill="#000" d="m911.34 611.28-17.45-28.38-3.68-4.77-7.39 29.29s4.89-9.85 9.18-11.1c8.05-2.35 19.35 14.96 19.35 14.96z"/><path stroke="#000" stroke-linecap="round" stroke-miterlimit="10" stroke-width="2.54" d="m952.082 717.46 14.56-27.33a81.17 81.17 0 0 0 8.34-52l-11.98-41.5M1005.47 728.98l14.56-27.33a81.17 81.17 0 0 0 8.34-52l-11.98-41.5"/><path stroke="#000" stroke-linecap="round" stroke-miterlimit="10" stroke-width="2.54" d="M924.281 653.53s37.14-21.17 50.96 3.49M974.652 669.98s39.338-22.42 53.988 3.7M916.469 620.04s39.71-22.63 54.5 3.74M974.82 635.94s35.23-23.49 50.89 4.45M830.441 594.57s31.18-18.3 53.36 13.28M841.051 570.9s28.32-20.52 50.5 11.05"/><path stroke="#fff" stroke-linecap="round" stroke-miterlimit="10" stroke-width="2.49" d="M583.051 474.93c-1.83 1.83-4.09 2.92-6.54 2.92s-4.79-1.12-6.64-3.02"/><path fill="#000" d="m841.379 504.53 46.64 17.88-10.9 4.35-58.67-15.25 5.69-4.69zM877.122 526.76s-23.8 25.11-24.5 38.16l-11.02 4.55 12.23-23.63 10.15-10.19 7-6.01 6.14-2.87zM1005.52 562.32s27.81 17.11 25.35 8.46l5.19 11.36.92 8.16-13.92-14.9z"/><path stroke="#000" stroke-linecap="round" stroke-miterlimit="10" stroke-width="2.54" d="m1051.31 713.85 6.08-30.37a81.13 81.13 0 0 0-6.98-52.2"/><path stroke="#000" stroke-linecap="round" stroke-miterlimit="10" stroke-width="2.54" d="M1026.24 686.24s25.9-26.66 31.02-3.54M1055.35 695.42s21.11-28.17 22.83-6.12M1058.99 661.29s8.62-16.09 14.61 5.08M1028.71 651.5s21.55-18.79 28.28-1.3"/><path fill="#000" d="M1067.58 712.21s-13.63-4.69-11.97-16.15l-4.28 17.68 6.88 1.77 9.38-3.3zM1020 736.79s-12.18-7.72-7.91-18.48l-5.76 10.31 4.96 6.07zM963.482 698.16s-10.16 28.12 4.16 34.44l-6.73-1.83-6.65-6.36-2.09-6.54 3.98-7.86 7.33-11.84zM922.601 663.32s-14.23 40.42.54 50.29l-10.33-7.34-3.33-8.66-.59-6.43 1.28-5.16zM405.151 488.93s-91.51-52.86-218.78 21.34l56.01-17.23 35.01 1.59 45.76 19.66 3.26-.28 73.85-12.87 4.89-12.22z"/><path stroke="#000" stroke-linecap="round" stroke-miterlimit="10" stroke-width="2.54" d="M327.29 512.35c-28.7-20.09-73.34-25.73-118.09-11.62-51.31 16.18-87.62 53.53-93.95 91.86"/><path stroke="#000" stroke-linecap="round" stroke-miterlimit="10" stroke-width="2.54" d="M281.259 528.7c.42.27.83.59 1.24.93 24.11 17.55 27.66 38.33 36.6 55.71 10.36 20.14 17.42 38.27 2.44 50.02-18.55 14.55-45.49 7.88-49.19-12.11-3.7-19.97-4.15-32.34-18.16-24.96-13.61 12.48-27.63 42.82-24.98 55.24 2.64 12.42 7.68 21.43 14.11 32.49 6.33 10.88-4.27 37.55-41.91 31.43 0 0 2.57 12.12-21.58 18.1-19.01 4.7-32.68-6.94-32.68-6.94s-6.74 14.32-29.1 8.28c-12.22-3.3-15.9-23.16-15.9-23.16s-18.79 4.77-24.8-9.9c-6.02-14.67 3.27-39.41 7.97-53.78 13.38-40.85 33.14-65.05 55.03-82.24 39.21-30.8 109.86-59.32 140.9-39.12z"/><path fill="#000" d="m242.151 611.28 17.45-28.38 3.68-4.77 7.39 29.29s-4.89-9.85-9.18-11.1c-8.05-2.35-19.35 14.96-19.35 14.96z"/><path stroke="#000" stroke-linecap="round" stroke-miterlimit="10" stroke-width="2.54" d="m201.41 717.46-14.56-27.33a81.17 81.17 0 0 1-8.34-52l11.98-41.5M148.02 728.98l-14.56-27.33a81.17 81.17 0 0 1-8.34-52l11.98-41.5"/><path stroke="#000" stroke-linecap="round" stroke-miterlimit="10" stroke-width="2.54" d="M229.21 653.53s-37.14-21.17-50.96 3.49M178.842 669.98s-39.34-22.42-53.99 3.7M237.02 620.04s-39.71-22.63-54.5 3.74M178.66 635.94s-35.23-23.49-50.89 4.45M323.051 594.57s-31.18-18.3-53.36 13.28M312.441 570.9s-28.32-20.52-50.5 11.05"/><path fill="#000" d="m312.109 504.53-46.64 17.88 15.71 4.98 54.16-13.24-6-7.33zM276.371 526.76s23.8 25.11 24.5 38.16l11.02 4.55-12.23-23.63-10.15-10.19-7-6.01-6.14-2.87zM147.972 562.32s-27.81 17.11-25.35 8.46l-5.19 11.36-.92 8.16 13.92-14.9z"/><path stroke="#000" stroke-linecap="round" stroke-miterlimit="10" stroke-width="2.54" d="m102.17 713.85-6.08-30.37a81.13 81.13 0 0 1 6.98-52.2"/><path stroke="#000" stroke-linecap="round" stroke-miterlimit="10" stroke-width="2.54" d="M127.25 686.24s-25.9-26.66-31.02-3.54M98.143 695.42s-21.11-28.17-22.83-6.12M94.5 661.29s-8.62-16.09-14.61 5.08M124.772 651.5s-21.55-18.79-28.28-1.3"/><path fill="#000" d="M85.9 712.21s13.63-4.69 11.97-16.15l4.281 17.68-6.88 1.77-9.38-3.3zM133.48 736.79s12.18-7.72 7.91-18.48l5.76 10.31-4.96 6.07zM190 698.16s10.16 28.12-4.16 34.44l6.73-1.83 6.65-6.36 2.09-6.54-3.98-7.86-7.33-11.84zM230.892 663.32s14.23 40.42-.54 50.29l10.33-7.34 3.33-8.66.59-6.43-1.28-5.16zM738.902 465s11.03 17.42 42.38 12.19-2.9 17.42-2.9 17.42l-26.71 2.9zM687.32 441.8s45.52-14.2 59.49-47.92l-5.68 17.62-7.36 13.81-10.01 15.55-6.37 8.11-9.01-3.64-10.17-1.49-8.52-.74zM471.189 441.8s-45.52-14.2-59.49-47.92l5.68 17.62 7.36 13.81 10.01 15.55 4.27 6.21 11.12-1.75 10.17-1.49 8.52-.74 2.37-1.3zM669.982 363.13s1.78-13.04 8.6-14.82l-6.48.78-5 2.93-2.67 3.1-1.55 3.79-1.21 7.84 2.84-2.15 5.47-1.46zM483.799 363.13s-1.78-13.04-8.6-14.82l6.48.78 5 2.93 2.67 3.1 1.55 3.79 1.21 7.84-2.84-2.15-5.47-1.46z"/><path fill="#000" stroke="#000" stroke-miterlimit="10" stroke-width="2" d="M250.45 321.78a4.7 4.7 0 1 0 0-9.4 4.7 4.7 0 0 0 0 9.4ZM265.13 321.78a4.7 4.7 0 1 0 0-9.4 4.7 4.7 0 0 0 0 9.4ZM279.809 321.78a4.7 4.7 0 1 0 0-9.4 4.7 4.7 0 0 0 0 9.4Z"/><path stroke="#000" stroke-miterlimit="10" stroke-width="2" d="M246.02 331.75H405.1"/><path fill="#000" d="m502.77 439.61 4.22-4.02 22.41-3.01c32.88-4.42 66.22-4.12 99.02.9l13.77 2.11 4.04 4.04-38.52-3.36-41.74-.57-49.94 3.15z"/><path fill="#ffed78" d="M474.76 525.26c3.43 1.44 5.47 3.26 5.65 5.37.56 6.58-17.27 13.46-39.83 15.35s-41.3-1.91-41.86-8.49c-.22-2.53 2.29-5.11 6.75-7.43-.96 1.07-1.43 2.16-1.34 3.24.49 5.76 16.9 9.1 36.65 7.44s35.37-7.68 34.87-13.44c-.06-.72-.37-1.39-.89-2.03z"/><path stroke="#000" d="M416.152 525.76c-10.68 3.06-17.52 7.32-17.17 11.48.55 6.63 19.15 10.48 41.53 8.61 22.39-1.87 40.08-8.76 39.53-15.38-.27-3.27-4.95-5.87-12.31-7.44"/><path stroke="#000" d="M399.082 536.79c-.53 3.63-3.18 11.43-9.59 13.6M479.609 528.97c1.31 4.02 6.17 12.21 15.1 12.82"/><defs><linearGradient id="a" x1="553.611" x2="609.331" y1="149.53" y2="589.52" gradientUnits="userSpaceOnUse"><stop stop-color="#fff"/><stop offset="1" stop-color="#fff" stop-opacity="0"/></linearGradient></defs></svg>