<svg width="1006" height="740" viewBox="0 0 1006 740" fill="none" xmlns="http://www.w3.org/2000/svg">
<path fill-rule="evenodd" clip-rule="evenodd" d="M414.486 217.14L288.676 81.33L407.326 221.41C409.676 219.94 412.066 218.51 414.496 217.15L414.486 217.14Z" fill="black"/>
<path fill-rule="evenodd" clip-rule="evenodd" d="M444.956 203.47L352.836 37.04L436.986 206.41C439.616 205.37 442.276 204.39 444.956 203.47Z" fill="black"/>
<path fill-rule="evenodd" clip-rule="evenodd" d="M476.087 195.79L425.727 9.39L467.637 197.3C470.427 196.73 473.247 196.23 476.087 195.79Z" fill="black"/>
<path fill-rule="evenodd" clip-rule="evenodd" d="M359.686 264.99L200.746 208.72L355.166 271.24C356.626 269.12 358.136 267.04 359.686 264.99Z" fill="black"/>
<path fill-rule="evenodd" clip-rule="evenodd" d="M339.136 299.95L182.086 284.41L336.376 306.63C337.256 304.38 338.166 302.15 339.136 299.94V299.95Z" fill="black"/>
<path fill-rule="evenodd" clip-rule="evenodd" d="M385.567 237.45L236.977 139.68L379.567 242.85C381.527 241 383.527 239.2 385.577 237.44L385.567 237.45Z" fill="black"/>
<path fill-rule="evenodd" clip-rule="evenodd" d="M504.656 193.59C505.576 193.59 506.496 193.61 507.416 193.62L503.116 0L498.816 193.69C500.756 193.63 502.706 193.59 504.666 193.59H504.656Z" fill="black"/>
<path fill-rule="evenodd" clip-rule="evenodd" d="M628.414 241.59L769.254 139.68L622.414 236.29C624.454 238.01 626.454 239.78 628.414 241.59Z" fill="black"/>
<path fill-rule="evenodd" clip-rule="evenodd" d="M653.474 270.26L805.484 208.71L648.984 264.12C650.524 266.13 652.024 268.18 653.474 270.26Z" fill="black"/>
<path fill-rule="evenodd" clip-rule="evenodd" d="M538.726 196.74L580.506 9.39999L530.266 195.36C533.106 195.75 535.926 196.21 538.726 196.73V196.74Z" fill="black"/>
<path fill-rule="evenodd" clip-rule="evenodd" d="M670.047 299.65C670.997 301.81 671.907 304 672.777 306.21L824.147 284.41L670.057 299.66L670.047 299.65Z" fill="black"/>
<path fill-rule="evenodd" clip-rule="evenodd" d="M599.965 220.16L717.555 81.33L592.785 216.01C595.215 217.34 597.605 218.72 599.955 220.16H599.965Z" fill="black"/>
<path fill-rule="evenodd" clip-rule="evenodd" d="M569.756 205.41L653.406 37.05L561.766 202.6C564.456 203.48 567.116 204.41 569.756 205.41Z" fill="black"/>
<path d="M865.079 304.25H162.289V543.18H865.079V304.25Z" fill="#FFCCCB"/>
<path d="M162.289 492.49V304.25H865.339V497.71" stroke="black" stroke-width="2" stroke-miterlimit="10"/>
<path d="M683.746 305.35H570.336" stroke="black" stroke-width="3"/>
<path d="M435.586 305.35H334.086" stroke="black" stroke-width="3"/>
<path d="M505.308 513.26C601.859 513.26 680.128 441.433 680.128 352.83C680.128 264.227 601.859 192.4 505.308 192.4C408.758 192.4 330.488 264.227 330.488 352.83C330.488 441.433 408.758 513.26 505.308 513.26Z" fill="url(#paint0_linear_3082_2444)"/>
<path d="M495.487 433.51L426.747 441.76L424.687 435.87L414.477 425.66L411.927 415.84L410.847 410.63L404.957 411.32L394.447 407.88L384.137 401.99L377.067 394.92L371.767 385.49L368.727 373.31L369.517 360.64L373.057 350.92L378.657 343.36L387.297 335.41L398.097 330.79L409.097 329.32L420.197 331.78L421.867 325L430.907 310.86L441.027 299.66L448.787 292.69L462.837 284.05L479.237 277.37L497.797 274.72L510.377 275.21L523.727 276.59L538.157 281.7L550.537 288.18L563.007 297.8L572.727 307.43L582.847 322.36L585.307 330.22L596.797 329.73L606.117 330.22L616.047 334.35L624.387 339.95L632.447 350.07L636.657 362.74L637.247 374.23L634.497 386.31L628.997 394.95L623.007 401.53L610.637 407.23L592.567 409.98L585.887 431.59L573.707 439.84L495.527 433.55L495.487 433.51Z" fill="#F1CFBE"/>
<path d="M495.149 433.55L426.399 441.8L424.339 435.91L414.129 425.7L411.579 415.88L410.499 410.67L404.609 411.36L394.099 407.92L383.789 402.03L376.719 394.96L371.419 385.53L368.379 373.35L369.169 360.68L372.709 350.96L378.309 343.4L386.949 335.44L397.749 330.83L408.749 329.36L419.849 331.82L421.519 325.04L430.559 310.9L440.679 299.7L448.439 292.73L462.479 284.09L478.889 277.41L497.449 274.76L510.019 275.25L523.379 276.62L537.809 281.73L550.179 288.21L562.659 297.84L572.379 307.46L582.489 322.39L584.949 330.25L596.439 329.76L605.769 330.25L615.699 334.37L624.039 339.97L632.089 350.09L636.309 362.76L636.899 374.25L634.149 386.33L628.639 394.97L622.659 401.55L610.279 407.25L592.219 410L585.539 431.61L573.359 439.86L495.179 433.57L495.149 433.55Z" fill="#F1CFBE"/>
<path d="M439.397 426.75L441.557 438.61L464.188 436.45L501.907 434.83L566.037 438.6V414.35L562.267 401.42L556.878 386.87V382.02L560.107 376.63L567.117 370.7L572.507 361.54L575.197 349.68V338.9L572.507 327.04L567.117 318.42L560.107 309.26L548.247 302.79L533.697 300.63H521.837L511.597 305.48L503.517 309.25L494.897 305.48L485.197 300.63H473.878L458.787 302.79L447.467 309.26L439.387 317.34L434.537 327.04L429.688 342.13L432.917 359.37L439.387 372.3L450.167 382V386.85L444.777 400.32L441.547 412.71L439.387 426.72L439.397 426.75Z" fill="#FDF2D4"/>
<path d="M587.917 365.32L584.147 387.95C583.207 393.55 586.997 395.67 588.997 396.03H597.077L609.467 391.72L614.317 386.87L620.787 377.71L621.867 369.09L620.787 361.55L617.557 354.54L613.247 351.85L606.237 349.69H600.307L592.767 354.54L587.917 365.32Z" fill="#FDF2D4"/>
<path d="M418.188 365.32L421.958 387.95C422.888 393.55 419.118 395.67 417.108 396.03H409.028L396.638 391.72L391.788 386.87L385.318 377.71L384.238 369.09L385.318 361.55L388.548 354.54L392.858 351.85L399.868 349.69H405.798L413.338 354.54L418.188 365.32Z" fill="#FDF2D4"/>
<path d="M567.698 484.65L679.688 498.75L668.908 472.12C660.288 452.85 641.308 444.9 632.888 443.34L596.858 439.62L558.288 435.9L523.628 433.55H474.688L429.068 438.45L371.308 443.74L360.928 447.85L350.358 454.31L342.918 462.53L338.218 471.34L332.538 486.02L331.168 498.75L420.448 484.65H567.688H567.698Z" fill="white"/>
<path d="M210.727 481.52L296.877 489.35L277.887 507.95L213.077 521.26L204.267 525.18L225.017 543.98L238.137 567.28L251.447 595.67L256.737 611.53C259.247 628.92 243.817 638.09 235.787 640.51C216.677 646.93 203.807 633.27 199.757 625.63L195.837 602.53C192.707 589.69 186.567 591.57 183.897 594.11C172.617 602.26 162.227 624.13 158.447 634.05L156.297 644.23V653.43L161.187 669.09C163.667 672.61 169.137 681.78 171.177 690.24C173.217 698.7 165.367 707.6 161.187 710.99C153.667 717.26 136.257 716.99 128.487 716.08L125.747 723.32L114.977 731.15C97.2768 738.82 80.7167 732.39 74.6467 728.21L61.1368 737.02L43.1268 735.84L34.6968 727.03L29.4068 713.13H21.9668L14.4668 711.88C-16.6632 700.28 18.6367 623.85 43.1167 589.01L45.4567 581.75C64.8767 510.95 163.717 485.42 210.707 481.5L210.727 481.52Z" fill="white"/>
<path d="M795.597 481.52L709.438 489.35L728.427 507.95L793.237 521.26L802.047 525.18L781.287 543.98L768.167 567.28L754.857 595.67L749.567 611.53C747.057 628.92 762.478 638.09 770.518 640.51C789.628 646.93 802.497 633.27 806.537 625.63L810.457 602.53C813.587 589.69 819.718 591.57 822.398 594.11C833.678 602.26 844.067 624.13 847.857 634.05L850.008 644.23V653.43L845.117 669.09C842.637 672.61 837.168 681.78 835.128 690.24C833.098 698.7 840.938 707.6 845.117 710.99C852.627 717.26 870.037 716.99 877.807 716.08L880.547 723.32L891.327 731.15C909.017 738.82 925.588 732.39 931.658 728.21L945.167 737.02L963.177 735.85L971.597 727.04L976.888 713.14H984.327L991.827 711.89C1022.96 700.29 987.657 623.86 963.177 589.02L960.837 581.76C941.417 510.96 842.577 485.43 795.587 481.51L795.597 481.52Z" fill="white"/>
<path d="M300.547 477.55C323.727 482.58 337.787 471.59 342.167 465.54L328.307 492.91H315.637L300.557 477.55H300.547Z" fill="black"/>
<path d="M889.098 280.59H865.078V304.61H889.098V280.59Z" fill="black" stroke="black" stroke-width="2" stroke-miterlimit="10"/>
<path d="M679.447 352.08C679.447 388.25 666.177 421.6 643.837 448.32C639.067 446.17 633.897 444.77 628.497 444.24C613.597 442.8 594.897 441.07 575.987 439.52H575.977C572.057 439.2 568.127 438.89 564.227 438.59C540.677 436.79 502.897 435.42 502.897 435.42C488.167 435.42 465.387 436.77 441.987 438.56C437.587 438.9 433.147 439.25 428.727 439.61C410.187 441.13 391.917 442.83 377.297 444.24C373.017 444.66 368.877 445.62 364.967 447.08C343.247 420.58 330.387 387.69 330.387 352.08C330.387 264.28 408.527 193.1 504.917 193.1C601.307 193.1 679.447 264.28 679.447 352.08Z" stroke="black" stroke-width="2.54" stroke-miterlimit="10" stroke-linecap="round"/>
<path d="M528.528 363.33C526.328 359.88 524.988 355.26 524.988 350.18C524.988 339.5 530.938 330.84 538.278 330.84C545.618 330.84 551.568 339.5 551.568 350.18C551.568 353.82 550.878 357.23 549.678 360.13" stroke="black" stroke-width="2.49" stroke-miterlimit="10" stroke-linecap="round"/>
<path d="M534.316 367.12C539.364 367.12 543.456 360.216 543.456 351.7C543.456 343.184 539.364 336.28 534.316 336.28C529.268 336.28 525.176 343.184 525.176 351.7C525.176 360.216 529.268 367.12 534.316 367.12Z" fill="black" stroke="black" stroke-width="1.84" stroke-miterlimit="10"/>
<path d="M476.778 363.33C478.978 359.88 480.318 355.26 480.318 350.18C480.318 339.5 474.368 330.84 467.028 330.84C459.688 330.84 453.738 339.5 453.738 350.18C453.738 353.82 454.428 357.23 455.628 360.13" stroke="black" stroke-width="2.49" stroke-miterlimit="10" stroke-linecap="round"/>
<path d="M470.976 367.12C476.024 367.12 480.116 360.216 480.116 351.7C480.116 343.184 476.024 336.28 470.976 336.28C465.928 336.28 461.836 343.184 461.836 351.7C461.836 360.216 465.928 367.12 470.976 367.12Z" fill="black" stroke="black" stroke-width="1.84" stroke-miterlimit="10"/>
<path d="M519.916 371.44C520.736 373.37 519.836 375.59 517.906 376.41C515.976 377.23 507.546 379.65 506.736 377.72C505.926 375.79 513.026 370.24 514.956 369.42C516.886 368.6 519.106 369.5 519.926 371.43L519.916 371.44Z" fill="black" stroke="black" stroke-width="1.71" stroke-miterlimit="10"/>
<path d="M486.319 371.44C485.499 373.37 486.399 375.59 488.329 376.41C490.259 377.23 498.689 379.65 499.499 377.72C500.319 375.79 493.209 370.24 491.279 369.42C489.349 368.6 487.129 369.5 486.309 371.43L486.319 371.44Z" fill="black" stroke="black" stroke-width="1.71" stroke-miterlimit="10"/>
<path d="M542.498 393.76C533.108 402.2 518.418 407.63 501.888 407.63C485.358 407.63 472.058 402.7 462.648 394.93" stroke="black" stroke-width="2.49" stroke-miterlimit="10" stroke-linecap="round"/>
<path d="M556.859 387.79C563.269 397.96 566.859 410.08 566.559 423.05C566.439 428.42 565.629 433.62 564.229 438.59C540.679 436.79 517.709 435.42 502.899 435.42C488.169 435.42 465.389 436.77 441.989 438.56C440.469 433.14 439.669 427.44 439.669 421.54C439.669 409.2 443.189 397.69 449.289 387.95C451.399 384.57 450.659 380.15 447.509 377.7C437.139 369.63 430.469 357.04 430.469 342.88C430.469 318.54 450.209 298.8 474.559 298.8C483.749 298.8 492.299 301.62 499.369 306.44C501.539 307.92 504.369 307.91 506.539 306.43C514.239 301.18 523.689 298.31 533.829 298.87C556.179 300.11 574.269 318.3 575.369 340.66C576.099 355.59 569.399 369 558.649 377.5C555.499 379.98 554.719 384.4 556.859 387.79Z" stroke="black" stroke-width="2.49" stroke-miterlimit="10" stroke-linecap="round"/>
<path d="M636.787 368.53C636.787 391.12 618.467 409.44 595.877 409.44C595.347 409.44 594.807 409.43 594.277 409.41C593.477 421.87 589.247 432.24 575.987 439.52H575.977C572.057 439.2 568.127 438.89 564.227 438.59C540.677 436.79 517.707 435.42 502.897 435.42C488.167 435.42 465.387 436.77 441.987 438.56C437.587 438.9 433.147 439.25 428.727 439.61C415.317 432.34 411.357 421.94 410.877 409.43C410.517 409.44 410.157 409.44 409.797 409.44C387.207 409.44 368.887 391.12 368.887 368.53C368.887 345.94 387.207 327.61 409.797 327.61C413.457 327.61 417.007 328.09 420.377 328.99C433.507 296.26 465.527 273.15 502.947 273.15C540.367 273.15 572.357 296.24 585.487 328.94C588.807 328.07 592.287 327.61 595.877 327.61C618.467 327.61 636.787 345.93 636.787 368.53Z" stroke="black" stroke-width="2.49" stroke-miterlimit="10" stroke-linecap="round"/>
<path d="M674.287 488.93C674.287 488.93 765.797 436.07 893.067 510.27L837.057 493.04L802.047 494.63L756.287 514.29L748.677 522.41L679.167 501.14L674.277 488.92L674.287 488.93Z" fill="black"/>
<path d="M413.057 395.19C397.477 395.19 384.797 382.51 384.797 366.93C384.797 364.33 385.147 361.82 385.807 359.43C390.347 342.97 414.087 344.03 417.337 360.79L422.317 386.5" stroke="black" stroke-width="2.49" stroke-miterlimit="10" stroke-linecap="round"/>
<path d="M400.516 375.23C399.256 370.08 402.406 364.89 407.556 363.62C412.706 362.36 417.896 365.51 419.166 370.66" stroke="black" stroke-width="2.49" stroke-miterlimit="10" stroke-linecap="round"/>
<path d="M592.619 395.19C608.199 395.19 620.879 382.51 620.879 366.93C620.879 364.33 620.529 361.82 619.869 359.43C615.329 342.97 591.589 344.03 588.339 360.79L583.359 386.5" stroke="black" stroke-width="2.49" stroke-miterlimit="10" stroke-linecap="round"/>
<path d="M605.158 375.23C606.418 370.08 603.268 364.89 598.118 363.62C592.968 362.36 587.778 365.51 586.508 370.66" stroke="black" stroke-width="2.49" stroke-miterlimit="10" stroke-linecap="round"/>
<path d="M681.126 508.77H324.656L335.986 476.59C340.856 462.74 351.606 452.05 364.966 447.08C368.876 445.62 373.016 444.66 377.296 444.24C391.916 442.83 410.186 441.13 428.726 439.61C433.146 439.25 437.586 438.9 441.986 438.56C465.386 436.77 488.166 435.42 502.896 435.42C517.716 435.42 540.676 436.79 564.226 438.59C568.126 438.89 572.056 439.2 575.976 439.52H575.986C594.896 441.07 613.596 442.8 628.496 444.24C633.896 444.77 639.066 446.17 643.836 448.32C655.786 453.71 665.296 463.8 669.796 476.59L681.126 508.77Z" stroke="black" stroke-width="2.49" stroke-miterlimit="10" stroke-linecap="round"/>
<path d="M502.467 477.85C508.586 477.85 513.547 471.08 513.547 462.73C513.547 454.379 508.586 447.61 502.467 447.61C496.347 447.61 491.387 454.379 491.387 462.73C491.387 471.08 496.347 477.85 502.467 477.85Z" fill="black" stroke="black" stroke-width="2.49" stroke-miterlimit="10" stroke-linecap="round"/>
<path d="M362.399 305.35C361.409 305.35 360.399 305.14 359.439 304.69C355.939 303.05 354.429 298.89 356.069 295.38C365.899 274.36 381.329 255.43 400.699 240.62C403.769 238.27 408.159 238.86 410.509 241.93C412.859 245 412.269 249.39 409.199 251.74C391.619 265.19 377.629 282.33 368.749 301.31C367.559 303.85 365.039 305.35 362.399 305.35Z" fill="white" stroke="black" stroke-width="2" stroke-miterlimit="10"/>
<path d="M382.03 398.26L392.55 386.12C392.55 386.12 402.37 394.76 416.12 393.55C416.12 393.55 422.89 416.88 439.89 409.59C439.89 409.59 438.4 435.96 441.98 438.56L428.72 439.61C428.72 439.61 407.75 429.09 410.87 409.43C410.87 409.43 395.93 411.06 382.02 398.26H382.03Z" fill="black"/>
<path d="M623.098 398.26L612.578 386.12C612.578 386.12 602.758 394.76 589.008 393.55C589.008 393.55 582.238 416.88 565.238 409.59C565.238 409.59 566.728 435.96 563.148 438.56L576.408 439.61C576.408 439.61 597.378 429.09 594.258 409.43C594.258 409.43 609.198 411.06 623.108 398.26H623.098Z" fill="black"/>
<path d="M403.268 328.46C403.268 328.46 416.028 332.61 421.068 340.62L422.548 326.08L420.368 328.99L403.258 328.46H403.268Z" fill="black"/>
<path d="M602.948 328.46C602.948 328.46 590.188 332.61 585.148 340.62L583.668 326.08L585.848 328.99L602.958 328.46H602.948Z" fill="black"/>
<path d="M423.227 242.25C427.921 242.25 431.727 238.444 431.727 233.75C431.727 229.056 427.921 225.25 423.227 225.25C418.532 225.25 414.727 229.056 414.727 233.75C414.727 238.444 418.532 242.25 423.227 242.25Z" fill="white" stroke="black" stroke-width="2" stroke-miterlimit="10"/>
<path d="M502.466 468.9C508.011 468.9 512.506 464.136 512.506 458.26C512.506 452.384 508.011 447.62 502.466 447.62C496.921 447.62 492.426 452.384 492.426 458.26C492.426 464.136 496.921 468.9 502.466 468.9Z" fill="white" stroke="black" stroke-width="2.54" stroke-miterlimit="10" stroke-linecap="round"/>
<path d="M326.738 501.13L331.448 489.56C331.448 489.56 521.738 451.1 673.728 493.61L681.778 516.25L498.638 509.94L391.058 521.81L326.738 501.14V501.13Z" fill="black" stroke="black" stroke-width="2.49" stroke-miterlimit="10" stroke-linecap="round"/>
<path d="M741.328 521.38C768.668 494.17 819.378 484.7 870.238 500.73C921.548 516.91 957.858 554.26 964.188 592.59" stroke="black" stroke-width="2.54" stroke-miterlimit="10" stroke-linecap="round"/>
<path d="M798.179 528.7C797.759 528.97 797.349 529.29 796.939 529.63C772.829 547.18 769.279 567.96 760.339 585.34C749.979 605.48 742.919 623.61 757.899 635.36C776.449 649.91 803.389 643.24 807.089 623.25C810.789 603.28 811.239 590.91 825.249 598.29C838.859 610.77 852.879 641.11 850.229 653.53C847.589 665.95 842.549 674.96 836.119 686.02C829.789 696.9 840.389 723.57 878.029 717.45C878.029 717.45 875.459 729.57 899.609 735.55C918.619 740.25 932.289 728.61 932.289 728.61C932.289 728.61 939.029 742.93 961.389 736.89C973.609 733.59 977.289 713.73 977.289 713.73C977.289 713.73 996.079 718.5 1002.09 703.83C1008.11 689.16 998.819 664.42 994.119 650.05C980.739 609.2 960.979 585 939.089 567.81C899.879 537.01 829.229 508.49 798.189 528.69L798.179 528.7Z" stroke="black" stroke-width="2.54" stroke-miterlimit="10" stroke-linecap="round"/>
<path d="M837.297 611.28L819.847 582.9L816.167 578.13L808.777 607.42C808.777 607.42 813.667 597.57 817.957 596.32C826.007 593.97 837.307 611.28 837.307 611.28H837.297Z" fill="black"/>
<path d="M878.039 717.46L892.599 690.13C901.079 674.2 904.019 655.91 900.939 638.13L888.959 596.63" stroke="black" stroke-width="2.54" stroke-miterlimit="10" stroke-linecap="round"/>
<path d="M931.426 728.98L945.986 701.65C954.466 685.72 957.406 667.43 954.326 649.65L942.346 608.15" stroke="black" stroke-width="2.54" stroke-miterlimit="10" stroke-linecap="round"/>
<path d="M850.238 653.53C850.238 653.53 887.378 632.36 901.198 657.02" stroke="black" stroke-width="2.54" stroke-miterlimit="10" stroke-linecap="round"/>
<path d="M900.609 669.98C900.609 669.98 939.949 647.56 954.599 673.68" stroke="black" stroke-width="2.54" stroke-miterlimit="10" stroke-linecap="round"/>
<path d="M842.426 620.04C842.426 620.04 882.136 597.41 896.926 623.78" stroke="black" stroke-width="2.54" stroke-miterlimit="10" stroke-linecap="round"/>
<path d="M900.777 635.94C900.777 635.94 936.007 612.45 951.667 640.39" stroke="black" stroke-width="2.54" stroke-miterlimit="10" stroke-linecap="round"/>
<path d="M756.398 594.57C756.398 594.57 787.578 576.27 809.758 607.85" stroke="black" stroke-width="2.54" stroke-miterlimit="10" stroke-linecap="round"/>
<path d="M767.008 570.9C767.008 570.9 795.328 550.38 817.508 581.95" stroke="black" stroke-width="2.54" stroke-miterlimit="10" stroke-linecap="round"/>
<path d="M509.008 474.93C507.178 476.76 504.918 477.85 502.468 477.85C500.018 477.85 497.678 476.73 495.828 474.83" stroke="white" stroke-width="2.49" stroke-miterlimit="10" stroke-linecap="round"/>
<path d="M767.336 504.53L813.976 522.41L803.076 526.76L744.406 511.51L750.096 506.82L767.336 504.53Z" fill="black"/>
<path d="M803.079 526.76C803.079 526.76 779.279 551.87 778.579 564.92L767.559 569.47L779.789 545.84L789.939 535.65L796.939 529.64L803.079 526.77V526.76Z" fill="black"/>
<path d="M931.477 562.32C931.477 562.32 959.287 579.43 956.827 570.78L962.017 582.14L962.937 590.3L949.017 575.4L931.477 562.32Z" fill="black"/>
<path d="M977.267 713.85L983.347 683.48C986.887 665.79 984.437 647.42 976.367 631.28" stroke="black" stroke-width="2.54" stroke-miterlimit="10" stroke-linecap="round"/>
<path d="M952.199 686.24C952.199 686.24 978.099 659.58 983.219 682.7" stroke="black" stroke-width="2.54" stroke-miterlimit="10" stroke-linecap="round"/>
<path d="M981.309 695.42C981.309 695.42 1002.42 667.25 1004.14 689.3" stroke="black" stroke-width="2.54" stroke-miterlimit="10" stroke-linecap="round"/>
<path d="M984.949 661.29C984.949 661.29 993.569 645.2 999.559 666.37" stroke="black" stroke-width="2.54" stroke-miterlimit="10" stroke-linecap="round"/>
<path d="M954.668 651.5C954.668 651.5 976.218 632.71 982.948 650.2" stroke="black" stroke-width="2.54" stroke-miterlimit="10" stroke-linecap="round"/>
<path d="M993.539 712.21C993.539 712.21 979.909 707.52 981.569 696.06L977.289 713.74L984.169 715.51L993.549 712.21H993.539Z" fill="black"/>
<path d="M945.959 736.79C945.959 736.79 933.779 729.07 938.049 718.31L932.289 728.62L937.249 734.69L945.959 736.79Z" fill="black"/>
<path d="M889.439 698.16C889.439 698.16 879.279 726.28 893.599 732.6L886.869 730.77L880.219 724.41L878.129 717.87L882.109 710.01L889.439 698.17V698.16Z" fill="black"/>
<path d="M848.558 663.32C848.558 663.32 834.328 703.74 849.098 713.61L838.768 706.27L835.438 697.61L834.848 691.18L836.128 686.02L848.558 663.32Z" fill="black"/>
<path d="M331.108 488.93C331.108 488.93 239.598 436.07 112.328 510.27L168.338 493.04L203.348 494.63L249.108 514.29L252.368 514.01L326.218 501.14L331.108 488.92V488.93Z" fill="black"/>
<path d="M253.247 512.35C224.547 492.26 179.907 486.62 135.157 500.73C83.847 516.91 47.537 554.26 41.207 592.59" stroke="black" stroke-width="2.54" stroke-miterlimit="10" stroke-linecap="round"/>
<path d="M207.216 528.7C207.636 528.97 208.046 529.29 208.456 529.63C232.566 547.18 236.116 567.96 245.056 585.34C255.416 605.48 262.476 623.61 247.496 635.36C228.946 649.91 202.006 643.24 198.306 623.25C194.606 603.28 194.156 590.91 180.146 598.29C166.536 610.77 152.516 641.11 155.166 653.53C157.806 665.95 162.846 674.96 169.276 686.02C175.606 696.9 165.006 723.57 127.366 717.45C127.366 717.45 129.936 729.57 105.786 735.55C86.7761 740.25 73.1061 728.61 73.1061 728.61C73.1061 728.61 66.3661 742.93 44.0061 736.89C31.7861 733.59 28.1062 713.73 28.1062 713.73C28.1062 713.73 9.31613 718.5 3.30613 703.83C-2.71387 689.16 6.57613 664.42 11.2761 650.05C24.6561 609.2 44.4161 585 66.3061 567.81C105.516 537.01 176.166 508.49 207.206 528.69L207.216 528.7Z" stroke="black" stroke-width="2.54" stroke-miterlimit="10" stroke-linecap="round"/>
<path d="M168.108 611.28L185.558 582.9L189.238 578.13L196.628 607.42C196.628 607.42 191.738 597.57 187.448 596.32C179.398 593.97 168.098 611.28 168.098 611.28H168.108Z" fill="black"/>
<path d="M127.367 717.46L112.807 690.13C104.327 674.2 101.387 655.91 104.467 638.13L116.447 596.63" stroke="black" stroke-width="2.54" stroke-miterlimit="10" stroke-linecap="round"/>
<path d="M73.9767 728.98L59.4167 701.65C50.9367 685.72 47.9967 667.43 51.0767 649.65L63.0567 608.15" stroke="black" stroke-width="2.54" stroke-miterlimit="10" stroke-linecap="round"/>
<path d="M155.167 653.53C155.167 653.53 118.027 632.36 104.207 657.02" stroke="black" stroke-width="2.54" stroke-miterlimit="10" stroke-linecap="round"/>
<path d="M104.799 669.98C104.799 669.98 65.4586 647.56 50.8086 673.68" stroke="black" stroke-width="2.54" stroke-miterlimit="10" stroke-linecap="round"/>
<path d="M162.977 620.04C162.977 620.04 123.267 597.41 108.477 623.78" stroke="black" stroke-width="2.54" stroke-miterlimit="10" stroke-linecap="round"/>
<path d="M104.617 635.94C104.617 635.94 69.3866 612.45 53.7266 640.39" stroke="black" stroke-width="2.54" stroke-miterlimit="10" stroke-linecap="round"/>
<path d="M249.008 594.57C249.008 594.57 217.828 576.27 195.648 607.85" stroke="black" stroke-width="2.54" stroke-miterlimit="10" stroke-linecap="round"/>
<path d="M238.398 570.9C238.398 570.9 210.078 550.38 187.898 581.95" stroke="black" stroke-width="2.54" stroke-miterlimit="10" stroke-linecap="round"/>
<path d="M238.066 504.53L191.426 522.41L207.136 527.39L261.296 514.15L255.296 506.82L238.066 504.53Z" fill="black"/>
<path d="M202.328 526.76C202.328 526.76 226.128 551.87 226.828 564.92L237.848 569.47L225.618 545.84L215.468 535.65L208.468 529.64L202.328 526.77V526.76Z" fill="black"/>
<path d="M73.9287 562.32C73.9287 562.32 46.1188 579.43 48.5788 570.78L43.3888 582.14L42.4688 590.3L56.3888 575.4L73.9287 562.32Z" fill="black"/>
<path d="M28.1275 713.85L22.0475 683.48C18.5075 665.79 20.9575 647.42 29.0275 631.28" stroke="black" stroke-width="2.54" stroke-miterlimit="10" stroke-linecap="round"/>
<path d="M53.2075 686.24C53.2075 686.24 27.3075 659.58 22.1875 682.7" stroke="black" stroke-width="2.54" stroke-miterlimit="10" stroke-linecap="round"/>
<path d="M24.0995 695.42C24.0995 695.42 2.98953 667.25 1.26953 689.3" stroke="black" stroke-width="2.54" stroke-miterlimit="10" stroke-linecap="round"/>
<path d="M20.4576 661.29C20.4576 661.29 11.8377 645.2 5.84766 666.37" stroke="black" stroke-width="2.54" stroke-miterlimit="10" stroke-linecap="round"/>
<path d="M50.7292 651.5C50.7292 651.5 29.1792 632.71 22.4492 650.2" stroke="black" stroke-width="2.54" stroke-miterlimit="10" stroke-linecap="round"/>
<path d="M11.8577 712.21C11.8577 712.21 25.4877 707.52 23.8277 696.06L28.1077 713.74L21.2277 715.51L11.8477 712.21H11.8577Z" fill="black"/>
<path d="M59.4375 736.79C59.4375 736.79 71.6175 729.07 67.3475 718.31L73.1075 728.62L68.1475 734.69L59.4375 736.79Z" fill="black"/>
<path d="M115.957 698.16C115.957 698.16 126.117 726.28 111.797 732.6L118.527 730.77L125.177 724.41L127.267 717.87L123.287 710.01L115.957 698.17V698.16Z" fill="black"/>
<path d="M156.849 663.32C156.849 663.32 171.079 703.74 156.309 713.61L166.639 706.27L169.969 697.61L170.559 691.18L169.279 686.02L156.849 663.32Z" fill="black"/>
<path d="M664.859 465C664.859 465 675.889 482.42 707.239 477.19C738.589 471.96 704.339 494.61 704.339 494.61L677.629 497.51L664.859 465Z" fill="black"/>
<path d="M613.277 441.8C613.277 441.8 658.797 427.6 672.767 393.88L667.087 411.5L659.727 425.31L649.717 440.86L643.347 448.97L634.337 445.33L624.167 443.84L615.647 443.1L613.277 441.8Z" fill="black"/>
<path d="M397.146 441.8C397.146 441.8 351.626 427.6 337.656 393.88L343.336 411.5L350.696 425.31L360.706 440.86L364.976 447.07L376.096 445.32L386.266 443.83L394.786 443.09L397.156 441.79L397.146 441.8Z" fill="black"/>
<path d="M595.939 363.13C595.939 363.13 597.719 350.09 604.539 348.31L598.059 349.09L593.059 352.02L590.389 355.12L588.839 358.91L587.629 366.75L590.469 364.6L595.939 363.14V363.13Z" fill="black"/>
<path d="M409.756 363.13C409.756 363.13 407.976 350.09 401.156 348.31L407.636 349.09L412.636 352.02L415.306 355.12L416.856 358.91L418.066 366.75L415.226 364.6L409.756 363.14V363.13Z" fill="black"/>
<path d="M176.407 321.78C179.003 321.78 181.107 319.676 181.107 317.08C181.107 314.484 179.003 312.38 176.407 312.38C173.811 312.38 171.707 314.484 171.707 317.08C171.707 319.676 173.811 321.78 176.407 321.78Z" fill="black" stroke="black" stroke-width="2" stroke-miterlimit="10"/>
<path d="M191.087 321.78C193.682 321.78 195.787 319.676 195.787 317.08C195.787 314.484 193.682 312.38 191.087 312.38C188.491 312.38 186.387 314.484 186.387 317.08C186.387 319.676 188.491 321.78 191.087 321.78Z" fill="black" stroke="black" stroke-width="2" stroke-miterlimit="10"/>
<path d="M205.766 321.78C208.362 321.78 210.466 319.676 210.466 317.08C210.466 314.484 208.362 312.38 205.766 312.38C203.171 312.38 201.066 314.484 201.066 317.08C201.066 319.676 203.171 321.78 205.766 321.78Z" fill="black" stroke="black" stroke-width="2" stroke-miterlimit="10"/>
<path d="M171.977 331.75H331.057" stroke="black" stroke-width="2" stroke-miterlimit="10"/>
<path d="M428.727 439.61L432.947 435.59L455.357 432.58C488.237 428.16 521.577 428.46 554.377 433.48L568.147 435.59L572.187 439.63L533.667 436.27L491.927 435.7L441.987 438.85L428.727 439.61Z" fill="black"/>
<defs>
<linearGradient id="paint0_linear_3082_2444" x1="479.568" y1="149.53" x2="535.288" y2="589.52" gradientUnits="userSpaceOnUse">
<stop stop-color="white"/>
<stop offset="1" stop-color="white" stop-opacity="0"/>
</linearGradient>
</defs>
</svg>
