<svg width="405" height="360" viewBox="0 0 405 360" fill="none" xmlns="http://www.w3.org/2000/svg">
<circle cx="148.302" cy="148.302" r="147.796" transform="matrix(-1 3.56466e-09 3.56466e-09 1 350.363 54.5693)" stroke="#111013" stroke-width="1.01231"/>
<circle cx="148.302" cy="148.302" r="147.796" transform="matrix(-0.98258 -0.18584 -0.18584 0.98258 375.359 84.446)" stroke="#111013" stroke-width="1.01231"/>
<circle cx="148.302" cy="148.302" r="147.796" transform="matrix(-0.98258 -0.18584 -0.18584 0.98258 375.359 84.446)" fill="#FFFF78" stroke="#111013" stroke-width="1.01231"/>
<path d="M341.922 250.66C300.361 315.414 222.552 352.076 142.337 337.572C152.395 341.972 163.101 345.318 174.346 347.445C247.458 361.273 318.176 318.877 341.922 250.66Z" fill="#111013"/>
<path d="M77.4438 125.378C46.849 123.467 26.4304 127.824 22.4224 139.091C13.4549 164.306 90.0561 214.576 193.516 251.371L195.938 252.228C298.394 288.31 388.185 297.356 397.083 272.338C401.83 258.99 382.597 238.62 348.092 216.945L347.507 219.373C349.175 220.425 350.806 221.475 352.399 222.52C367.796 232.624 379.554 242.279 386.882 250.868C394.342 259.611 396.633 266.545 394.855 271.545C393.076 276.546 386.922 280.477 375.617 282.546C364.511 284.579 349.297 284.641 330.977 282.754C294.376 278.984 245.915 267.494 194.309 249.141C142.703 230.788 97.8695 209.098 67.1069 188.911C51.7098 178.807 39.9519 169.151 32.6235 160.562C25.1636 151.819 22.8724 144.885 24.6509 139.884C26.4296 134.884 32.584 130.954 43.8892 128.884C52.362 127.333 63.2261 126.93 76.0356 127.664L77.4194 125.383L77.4438 125.378Z" fill="#111013"/>
</svg>
