<svg width="484" height="368" viewBox="0 0 484 368" fill="none" xmlns="http://www.w3.org/2000/svg">
<g filter="url(#filter0_d_323_13516)">
<path d="M351.024 229.656L322.794 221.241L308.234 194.319C284.562 196.916 260.583 185.268 248.557 163.028C232.706 133.716 243.619 97.1043 272.931 81.2535C302.243 65.4028 338.855 76.3154 354.706 105.628C366.085 126.672 363.671 151.478 350.556 169.664L413.747 286.52L403.153 322.064L372.327 312.876L362.42 294.549L370.837 266.31L342.607 257.895L351.024 229.656Z" fill="#FDF2D4"/>
<path d="M351.024 229.656L322.794 221.241L308.234 194.319C284.562 196.916 260.583 185.268 248.557 163.028C232.706 133.716 243.619 97.1043 272.931 81.2535C302.243 65.4028 338.855 76.3154 354.706 105.628C366.085 126.672 363.671 151.478 350.556 169.664L413.747 286.52L403.153 322.064L372.327 312.876L362.42 294.549L370.837 266.31L342.607 257.895L351.024 229.656Z" stroke="#111013" stroke-width="1.09034" stroke-miterlimit="10" stroke-linecap="square"/>
</g>
<path d="M296.118 142.627C305.834 142.897 313.929 135.241 314.2 125.526C314.471 115.81 306.815 107.714 297.099 107.443C287.384 107.172 279.288 114.829 279.017 124.544C278.746 134.26 286.403 142.356 296.118 142.627Z" fill="#FFB89F" stroke="#111013" stroke-width="1.09034" stroke-miterlimit="10" stroke-linecap="square"/>
<path d="M283.384 114.179C281.402 118.037 281.493 121.816 282.239 126.181C283.737 132.351 288.907 138.309 297.977 138.562C302.687 138.693 306.441 138.055 311.862 132.705C308.763 138.889 304.456 142.203 297.478 142.694C289.855 143.229 279.753 137.671 278.983 126.705C278.584 121.026 279.816 118.066 283.384 114.179Z" fill="#111013"/>
<path d="M234.024 155.249L58.1776 172.538C37.9449 174.527 23.1556 192.542 25.1449 212.775L36.671 330.006C38.6602 350.238 56.6748 365.028 76.9075 363.038L252.754 345.749C272.986 343.76 287.776 325.745 285.787 305.513L274.261 188.282C272.271 168.049 254.257 153.26 234.024 155.249Z" fill="#111013" stroke="#111013" stroke-width="1.05465" stroke-miterlimit="10" stroke-linecap="square"/>
<path d="M194.713 151.032L189.147 94.4149C185.352 56.9454 152.914 29.4945 116.524 32.958C80.1573 36.6478 53.6868 69.8906 57.2619 107.382L62.8285 163.999" stroke="#111013" stroke-width="1.05465" stroke-miterlimit="10" stroke-linecap="square"/>
<path d="M210.78 149.452L205.213 92.8351C201.418 55.3655 168.98 27.9146 132.591 31.3781C96.2237 35.068 69.7532 68.3108 73.3283 105.802L78.8949 162.419" stroke="#111013" stroke-width="1.05465" stroke-miterlimit="10" stroke-linecap="square"/>
<path d="M224.727 148.082L48.8807 165.371C28.648 167.36 13.8587 185.375 15.848 205.607L27.3741 322.838C29.3634 343.071 47.3779 357.86 67.6107 355.871L243.457 338.582C263.69 336.592 278.479 318.578 276.49 298.345L264.964 181.114C262.974 160.882 244.96 146.092 224.727 148.082Z" fill="#FFFF78" stroke="#111013" stroke-width="1.05465" stroke-miterlimit="10" stroke-linecap="square"/>
<path d="M147.609 266.63L150.491 295.938" stroke="#111013" stroke-width="1.05465" stroke-miterlimit="10" stroke-linecap="square"/>
<path d="M147.61 266.63C163.796 265.038 175.627 250.627 174.036 234.441C172.445 218.255 158.033 206.423 141.847 208.014C125.661 209.606 113.829 224.018 115.421 240.204C117.012 256.39 131.424 268.221 147.61 266.63Z" fill="#FFB89F" stroke="#111013" stroke-width="1.05465" stroke-miterlimit="10" stroke-linecap="square"/>
<path d="M121.09 220.515C118.51 225.485 118.31 228.411 118.899 234.399C120.517 250.86 135.174 262.892 151.635 261.274C159.573 260.493 165.741 256.935 170.552 250.566C166.04 259.259 158.132 266.098 147.659 267.128C131.197 268.747 116.54 256.714 114.922 240.253C114.084 231.729 115.888 226.512 121.09 220.515Z" fill="#111013"/>
<defs>
<filter id="filter0_d_323_13516" x="240.738" y="73.4336" width="180.14" height="255.851" filterUnits="userSpaceOnUse" color-interpolation-filters="sRGB">
<feFlood flood-opacity="0" result="BackgroundImageFix"/>
<feColorMatrix in="SourceAlpha" type="matrix" values="0 0 0 0 0 0 0 0 0 0 0 0 0 0 0 0 0 0 127 0" result="hardAlpha"/>
<feOffset dx="6.54205" dy="6.54205"/>
<feComposite in2="hardAlpha" operator="out"/>
<feColorMatrix type="matrix" values="0 0 0 0 0 0 0 0 0 0 0 0 0 0 0 0 0 0 1 0"/>
<feBlend mode="normal" in2="BackgroundImageFix" result="effect1_dropShadow_323_13516"/>
<feBlend mode="normal" in="SourceGraphic" in2="effect1_dropShadow_323_13516" result="shape"/>
</filter>
</defs>
</svg>
