<svg width="327" height="407" viewBox="0 0 327 407" fill="none" xmlns="http://www.w3.org/2000/svg">
<path d="M12.0916 134.491C79.8054 130.743 134.619 75.241 159.336 39.9682C162.34 35.6815 168.89 35.6815 171.894 39.9682C196.611 75.241 251.425 130.743 319.138 134.491C323.087 134.71 326.266 137.959 326.047 141.907C321.66 221.043 284.903 373.516 167.442 406.453C166.259 406.785 164.971 406.785 163.788 406.453C46.3267 373.516 9.5701 221.043 5.18266 141.907C4.96374 137.958 8.14292 134.71 12.0916 134.491Z" fill="black"/>
<path d="M170.504 104.387L92.3011 133.351L79.6293 190.555L67.6816 266.948L62.2509 330.307L85.0601 357.823L109.68 379.546L136.471 394.753L160.729 403.08L179.556 398.011L208.52 382.081L233.501 362.53L255.948 335.376L268.982 283.965L231.329 147.833L170.504 104.387Z" fill="white"/>
<path d="M175.849 238.667L160.849 295.167L144.349 238.667" stroke="black" stroke-width="5"/>
<rect x="133.653" y="295.077" width="54.3052" height="34.6552" rx="4.12519" fill="white" stroke="black" stroke-width="1.5"/>
<path d="M143.012 312.427C143.012 311.433 143.241 310.541 143.699 309.751C144.167 308.961 144.796 308.347 145.586 307.908C146.386 307.46 147.258 307.235 148.204 307.235C149.286 307.235 150.247 307.503 151.085 308.04C151.934 308.566 152.548 309.317 152.928 310.292H150.924C150.661 309.756 150.295 309.356 149.827 309.093C149.359 308.83 148.818 308.698 148.204 308.698C147.531 308.698 146.932 308.849 146.405 309.151C145.879 309.454 145.464 309.887 145.162 310.453C144.869 311.018 144.723 311.677 144.723 312.427C144.723 313.178 144.869 313.836 145.162 314.402C145.464 314.967 145.879 315.406 146.405 315.718C146.932 316.02 147.531 316.172 148.204 316.172C148.818 316.172 149.359 316.04 149.827 315.777C150.295 315.513 150.661 315.114 150.924 314.577H152.928C152.548 315.552 151.934 316.303 151.085 316.83C150.247 317.356 149.286 317.619 148.204 317.619C147.248 317.619 146.376 317.4 145.586 316.961C144.796 316.513 144.167 315.894 143.699 315.104C143.241 314.314 143.012 313.422 143.012 312.427ZM156.547 307.367V317.532H154.88V307.367H156.547ZM162.085 317.634C161.403 317.634 160.788 317.517 160.242 317.283C159.696 317.039 159.267 316.698 158.955 316.259C158.643 315.821 158.487 315.309 158.487 314.724H160.272C160.311 315.162 160.481 315.523 160.784 315.806C161.096 316.089 161.53 316.23 162.085 316.23C162.661 316.23 163.109 316.094 163.431 315.821C163.753 315.538 163.913 315.177 163.913 314.738C163.913 314.397 163.811 314.119 163.606 313.905C163.411 313.69 163.163 313.524 162.86 313.407C162.568 313.29 162.158 313.164 161.632 313.027C160.969 312.852 160.428 312.676 160.008 312.501C159.599 312.315 159.248 312.033 158.955 311.652C158.663 311.272 158.517 310.765 158.517 310.131C158.517 309.546 158.663 309.034 158.955 308.596C159.248 308.157 159.657 307.82 160.184 307.586C160.71 307.352 161.32 307.235 162.012 307.235C162.997 307.235 163.801 307.484 164.425 307.981C165.059 308.469 165.41 309.142 165.478 310H163.636C163.606 309.629 163.431 309.312 163.109 309.049C162.787 308.786 162.363 308.654 161.837 308.654C161.359 308.654 160.969 308.776 160.667 309.02C160.364 309.263 160.213 309.614 160.213 310.073C160.213 310.385 160.306 310.643 160.491 310.848C160.686 311.043 160.93 311.199 161.222 311.316C161.515 311.433 161.915 311.56 162.422 311.696C163.094 311.881 163.64 312.067 164.06 312.252C164.489 312.437 164.85 312.725 165.142 313.115C165.444 313.495 165.595 314.007 165.595 314.651C165.595 315.167 165.454 315.655 165.171 316.113C164.898 316.571 164.494 316.942 163.957 317.225C163.431 317.498 162.807 317.634 162.085 317.634ZM172.199 317.634C171.253 317.634 170.381 317.415 169.581 316.976C168.791 316.527 168.162 315.908 167.694 315.119C167.236 314.319 167.007 313.422 167.007 312.427C167.007 311.433 167.236 310.541 167.694 309.751C168.162 308.961 168.791 308.347 169.581 307.908C170.381 307.46 171.253 307.235 172.199 307.235C173.155 307.235 174.027 307.46 174.817 307.908C175.617 308.347 176.246 308.961 176.704 309.751C177.162 310.541 177.391 311.433 177.391 312.427C177.391 313.422 177.162 314.319 176.704 315.119C176.246 315.908 175.617 316.527 174.817 316.976C174.027 317.415 173.155 317.634 172.199 317.634ZM172.199 316.186C172.872 316.186 173.472 316.035 173.998 315.733C174.525 315.421 174.934 314.982 175.227 314.416C175.529 313.841 175.68 313.178 175.68 312.427C175.68 311.677 175.529 311.018 175.227 310.453C174.934 309.887 174.525 309.454 173.998 309.151C173.472 308.849 172.872 308.698 172.199 308.698C171.526 308.698 170.927 308.849 170.4 309.151C169.874 309.454 169.459 309.887 169.157 310.453C168.864 311.018 168.718 311.677 168.718 312.427C168.718 313.178 168.864 313.841 169.157 314.416C169.459 314.982 169.874 315.421 170.4 315.733C170.927 316.035 171.526 316.186 172.199 316.186Z" fill="black"/>
<rect x="133.653" y="295.077" width="54.3052" height="34.6552" rx="4.12519" stroke="black" stroke-width="1.5"/>
<path d="M132.903 299.202C132.903 296.509 135.086 294.327 137.778 294.327H183.833C186.526 294.327 188.708 296.509 188.708 299.202V300.721H132.903V299.202Z" fill="black"/>
<path d="M188.708 325.607C188.708 328.299 186.525 330.482 183.833 330.482L137.778 330.482C135.085 330.482 132.903 328.299 132.903 325.606L132.903 324.087L188.708 324.087L188.708 325.607Z" fill="black"/>
<path d="M142.256 52.9773C161.065 31.8096 156.832 19.4015 181.374 52.9773C209.813 86.9922 250.31 120.667 301.705 128.824C324.983 130.902 324.055 132.062 321.224 151.337C313.667 232.337 275.471 368.262 167.07 401.246C163.666 402.282 159.964 402.282 156.559 401.246C48.1586 368.262 9.95959 232.337 2.40216 151.337C0.303273 128.824 0.104727 132.286 21.9217 128.824C73.3177 120.668 116.151 83.9932 142.256 52.9773Z" fill="#9FE384"/>
<mask id="mask0_1948_10356" style="mask-type:alpha" maskUnits="userSpaceOnUse" x="1" y="32" width="322" height="371">
<path fill-rule="evenodd" clip-rule="evenodd" d="M142.256 52.9774C161.065 31.8096 156.832 19.4013 181.374 52.9774C209.813 86.9924 250.31 120.668 301.705 128.824C324.983 130.902 324.056 132.062 321.225 151.337C313.667 232.337 275.471 368.261 167.07 401.245C163.666 402.281 159.964 402.281 156.559 401.245C48.1586 368.261 9.95918 232.337 2.40176 151.337C0.302875 128.824 0.104471 132.286 21.9214 128.824C73.3176 120.668 116.151 83.9934 142.256 52.9774Z" fill="black"/>
</mask>
<g mask="url(#mask0_1948_10356)">
<path d="M-115.195 208.737L-115.098 201.588C-115.567 193.69 -85.7138 178.588 -37.0955 216.898C11.5229 255.208 -8.19115 329.46 -11.9787 355.12C-15.0088 375.648 -3.94977 388.091 1.95851 391.747C-9.07905 365.505 20.0124 336.958 35.9379 325.965C75.1739 289.695 100.3 296.035 107.959 303.738L113.327 297.322C134.174 306.395 149.219 307.669 167.426 306.137C198.837 303.493 218.551 297.556 240.103 287.935C258.331 270.711 270.364 248.143 271.288 208.249C277.363 206.407 282.237 214.022 283.914 218.06C292.525 220.196 289.702 241.786 287.214 252.314C344.714 281.786 355.922 323.778 354.338 341.09C323.159 385.105 273.338 387.137 249.148 379.748C249.074 380.173 248.999 380.597 248.922 381.02C232.917 469.003 139.2 521.084 94.621 533.533C57.2881 607.355 -11.9816 633.394 -42.1146 634.954C-36.9228 641.405 -39.757 644.832 -41.8231 645.739C-43.1747 647.416 -48.9678 652.713 -61.3276 660.486C-73.6873 668.259 -90.3901 672.209 -97.0526 673.448L-108.035 697.448C-120.047 720.549 -153.197 757.934 -193.258 724.08C-233.319 690.226 -204.099 634.541 -184.482 610.93C-178.041 603.23 -165.139 602.724 -159.493 603.434C-128.197 573.089 -110.015 572.705 -100.628 567.966C-93.1181 564.174 -86.8613 571.444 -84.6716 575.553L-70.393 571.046L-92.7047 541.537L-93.8636 533.766L-90.5858 529.522C-104.834 509.638 -134.365 461.221 -110.339 432.441C-87.416 404.982 -67.8265 400.297 -25.4784 406.402C-47.2801 398.361 -44.4784 368.113 -35.0243 330.099C-19.6151 268.139 -44.2104 241.536 -67.3373 228.363L-86.4955 219.659L-110.657 214.738L-115.195 208.737Z" fill="white"/>
<path d="M-115.445 208.771L-115.348 201.623C-115.817 193.724 -85.964 178.622 -37.3456 216.932C11.2727 255.242 -8.44136 329.495 -12.229 355.155C-15.2591 375.683 -4.20001 388.126 1.70828 391.782L8.35775 407.489L-26.4189 405.681C-48.2206 397.64 -44.7286 368.148 -35.2745 330.134C-19.8653 268.174 -44.4606 241.571 -67.5875 228.398L-86.7457 219.694L-110.907 214.773L-115.445 208.771Z" fill="#FFB195" fill-opacity="0.91"/>
<path d="M249.944 153.086C282.799 196.538 274.674 254.318 239.894 288.487C209.592 300.393 182.914 308.774 154.564 306.627C143.215 303.842 123.482 303.402 113.467 296.888C103.252 290.246 98.3094 284.359 90.665 274.248C57.8104 230.796 67.0037 167.751 110.927 134.54C154.849 101.33 217.09 109.633 249.944 153.086Z" fill="url(#paint0_linear_1948_10356)"/>
<path d="M95.4998 225.909C104.502 206.21 114.483 211.163 118.348 216.101C118.835 207.217 133.283 186.994 158.846 182.336C190.074 176.647 204.973 192.92 208.519 201.768C230.642 189.443 241.244 211.088 243.779 223.451C247.902 238.885 233.787 249.742 226.213 253.241C236.616 271.158 223.847 289.617 216.162 296.607L164.476 307.781L132.73 302.7C111.518 291.697 106.924 266.663 107.278 255.521C102.655 259.803 84.2467 250.532 95.4998 225.909Z" fill="#F1CFBE"/>
<path d="M95.6053 225.824C104.608 206.126 114.588 211.078 118.453 216.017C118.941 207.132 133.388 186.909 158.951 182.252C190.18 176.562 205.079 192.836 208.624 201.684C230.748 189.358 241.349 211.004 243.885 223.367C248.008 238.801 233.892 249.657 226.319 253.156C236.722 271.073 223.952 289.532 216.267 296.522L164.582 307.697L132.835 302.616C111.624 291.612 107.029 266.578 107.383 255.437C102.76 259.718 84.3521 250.447 95.6053 225.824Z" fill="#F1CFBE"/>
<path d="M111.471 272.107C111.757 266.86 118.777 262.441 122.251 260.888L118.666 256.146L114.2 248.518L111.658 240.038L110.859 242.819L108.819 249.079C97.0458 250.143 98.6789 236.628 100.967 229.737L105.446 225.264L111.602 225.568L114.453 229.338L118.912 215.082L123.332 205.572L130.513 201.473L140.211 200.064L148.003 203.971L152.134 209.434L153.797 210.354L164.008 201.785L172.964 197.795L184.828 197.171L194.143 201.012L202.029 209.683L205.139 215.556L207.491 224.904L206.986 233.994L204.167 243.382L197.949 251.953L198.97 256.503L205.76 261.165L209.469 267.189L212.22 275.147L210.558 284.144L207.848 291.757L205.387 299.06L194.15 302.113L162.027 307.293L129.436 301.459L117.073 288.794L111.871 280.15C111.618 279.656 111.184 277.355 111.471 272.107Z" fill="#FDF2D4"/>
<path d="M218.555 239.662L214.31 213.927C219.649 204.892 226.894 208.994 229.849 212.174C239.398 221.279 234.761 234.28 231.248 239.643C221.823 248.769 218.859 243.458 218.555 239.662Z" fill="#FDF2D4"/>
<path d="M251.565 275.339L240.451 287.67C247.711 297.272 246.664 305.245 245.234 308.031C252.299 306.148 265.11 307.807 270.632 308.873C266.045 303.222 262.377 287.733 261.116 280.694L251.565 275.339Z" fill="#FFFF78"/>
<path d="M275.963 381.971C259.443 375.352 251.21 357.609 249.794 349.39C247.769 350.921 249.029 369.977 249.276 379.487C255.621 383.019 269.711 382.615 275.963 381.971Z" fill="black"/>
<path d="M239.399 322.322C173.809 350.601 123.374 332.366 106.356 319.713L107.72 318.682L121.759 323.073C161.28 334.84 213.63 320.777 234.866 312.275L239.399 322.322Z" fill="black"/>
<path d="M85.7527 412.169C85.4315 402.403 76.4191 387.17 71.953 380.774C80.105 389.309 91.1928 407.96 95.7177 416.219L85.7527 412.169Z" fill="black"/>
<path d="M59.062 367.533C62.7169 366.853 71.1445 363.55 75.6868 355.78C77.5877 352.504 80.2562 347.905 75.7226 355.719L75.6868 355.78L65.5442 373.686L59.062 367.533Z" fill="black"/>
<path d="M-17.1044 405.517C-8.75486 406.562 -2.28775 395.671 -4.61115 387.009C-1.04745 390.484 0.470865 391.609 1.901 392.504L10.042 408.398L2.30719 407.462L-16.0653 406.892L-17.1044 405.517Z" fill="black"/>
<path d="M-45.3016 210.888C-36.8887 217.072 -28.5164 225.031 -20.4571 235.069C-18.8022 237.13 -17.3096 239.321 -15.9662 241.623C-10.2386 251.437 -7.22233 263.265 -5.90414 275.618M-45.3016 210.888C-56.4652 202.681 -67.7001 197.597 -78.3696 194.925C-88.388 192.417 -97.9079 192.034 -106.402 193.188C-110.558 194.408 -115.371 198.341 -115.236 206.557C-115.131 212.978 -108.466 216.616 -102.067 217.172C-97.1703 217.597 -91.6924 218.552 -85.9883 220.186C-77.638 222.579 -68.8032 226.426 -60.5967 232.198M-45.3016 210.888C-50.1956 213.291 -60.1062 220.919 -60.5967 232.198M-60.5967 232.198C-53.6659 237.072 -47.1832 243.319 -41.819 251.221C-41.4042 251.832 -41.004 252.455 -40.618 253.089C-36.0095 260.663 -33.4277 269.849 -32.2055 279.453M-5.90414 275.618C-13.1775 274.918 -28.6205 274.703 -32.2055 279.453M-5.90414 275.618C-4.67215 287.164 -4.92341 299.167 -5.83081 310.411C-6.76443 321.981 -8.39257 332.748 -9.81448 341.387M-32.2055 279.453C-30.9815 289.073 -31.121 299.111 -31.9544 308.371C-32.6634 316.249 -33.8747 323.563 -35.1755 329.574C-36.0054 333.408 -36.8933 337.426 -37.7419 341.559M-9.81448 341.387C-11.2202 349.927 -12.4244 356.388 -12.5563 359.489C-12.7778 364.694 -12.1842 369.482 -11.0557 373.768C-9.75404 378.334 -5.97425 387.648 2.30215 392.722M-9.81448 341.387C-15.5706 338.935 -29.2148 335.538 -37.7419 341.559M-37.7419 341.559C-40.6898 355.92 -43.1628 371.687 -41.078 386.099C-40.5152 389.997 -39.4169 399.263 -28.3336 405.613" stroke="black" stroke-width="2.17937"/>
<path d="M235.4 312.606C242.855 326.433 247.1 340.086 248.714 353.412M94.2821 532.616C73.6175 515.983 32.3447 473.183 35.2416 434.243M94.2821 532.616C92.9285 535.748 91.2084 539.242 89.1229 543M94.2821 532.616C132.391 525.421 211.641 477.103 239.515 412.177M-42.3905 635.651C-20.2742 632.549 -0.74188 625.308 16.1862 615.848M-42.3905 635.651C-38.2227 641.163 -40.0134 644.739 -41.4297 645.838M-42.3905 635.651L-51.4763 636.285C-65.8762 626.961 -89.3384 595.69 -92.6461 578.101M-97.4522 672.995C-106.146 698.76 -132.553 747.432 -168.634 736.004M-97.4522 672.995C-87.1027 672.075 -63.766 667.014 -41.4297 645.838M-97.4522 672.995C-133.111 669.177 -153.532 624.99 -159.285 603.375M-168.634 736.004C-215.931 704.48 -182.108 634.45 -159.285 603.375M-168.634 736.004C-176.468 733.958 -186.366 729.503 -194.78 722.224M-159.285 603.375C-149.305 590.112 -121.927 573.486 -99.4753 566.727M-159.285 603.375C-162.778 602.89 -167.205 603.091 -171.482 604.08M-99.4753 566.727C-96.8741 565.577 -91.0893 566.389 -84.2533 575.43L-92.6461 578.101M-99.4753 566.727C-102.61 568.522 -100.898 582.262 -95.5771 593.349C-88.0052 609.128 -58.6429 652.728 -41.4297 645.838M-92.6461 578.101C-86.4752 576.555 -78.7527 573.98 -70.339 570.303M6.54559 494.618L22.1534 474.763C18.5738 477.271 12.3791 480.814 5.27447 483.421M6.54559 494.618C3.07729 502.369 0.544112 507.064 -3.73142 514.547M6.54559 494.618C21.6919 497.834 59.048 508.295 89.1229 543M-18.1568 486.255L-12.6799 496.997M-18.1568 486.255C-58.8394 461.865 -76.231 424.036 -79.8415 408.171M-18.1568 486.255C-40.5483 471.369 -92.0648 445.933 -118.999 463.273M-18.1568 486.255C-10.6607 487.868 -2.19083 486.161 5.27447 483.421M-3.73142 514.547L-8.20567 505.772M-3.73142 514.547C-8.36941 522.664 -14.0523 529.959 -20.3448 536.466M-70.339 570.303L-91.7918 541.931M-70.339 570.303C-58.1206 564.965 -44.4445 557.304 -31.9461 547.102M-91.7918 541.931C-93.4992 539.955 -95.6879 534.709 -90.7834 529.531M-91.7918 541.931C-53.849 546.071 -20.2582 519.55 -8.20567 505.772M-90.7834 529.531C-78.9706 533.175 -46.8121 531.77 -12.6799 496.997M-90.7834 529.531C-101.908 514.818 -117.312 487.718 -118.999 463.273M-12.6799 496.997L-8.20567 505.772M9.48309 407.782C-43.8701 405.597 -62.4151 400.649 -79.8415 408.171M239.495 288.388C164.778 321.608 132.089 304.267 113.399 297.369M239.495 288.388C243.376 289.741 249.656 301.827 244.438 308.726M239.495 288.388C244.228 283.973 248.451 279.182 252.15 274.096M113.399 297.369C104.994 291.494 97.3542 284.221 90.8358 275.6C57.3943 231.371 66.139 168.407 110.368 134.966C154.596 101.524 217.561 110.269 251.002 154.498C268.75 177.971 274.616 206.721 269.601 233.534M113.399 297.369C104.67 303.969 104.513 313.671 106.744 317.701C149.421 336.881 198.387 326.396 244.438 308.726M286.772 252.642C289.465 241.623 293.064 222.287 283.902 217.945C281.012 211.963 277.701 208.012 271.056 207.647M286.772 252.642C279.073 257.851 265.614 271.199 261.036 280.05M286.772 252.642C304.243 257.791 345.629 287.597 354.655 329.261C355.527 333.285 355.229 337.459 353.724 341.192M261.036 280.05C261.917 283.662 265.696 301.305 270.61 309.366M261.036 280.05C259.101 279.735 254.614 278.104 252.15 274.096M248.687 378.905C302.062 393.394 337.175 364.009 351.281 345.494C352.297 344.16 353.111 342.712 353.724 341.192M270.61 309.366C265.803 307.553 250.445 305.654 244.438 308.726M270.61 309.366C271.821 311.353 273.172 313.411 274.67 315.509M286.186 329.021C283.172 326.046 280.481 323.021 278.089 320.032M108.364 302.761C103.35 298.988 88.0087 293.149 70.3245 301.833M-0.422422 373.617C8.17414 367.542 33.697 359.378 67.0157 375.326M-0.422422 373.617C1.47817 362.562 7.92242 352.258 16.3989 342.923C20.5892 338.309 25.2762 333.931 30.1563 329.817C41.3101 320.414 53.4732 312.385 63.0238 306.047C65.524 304.387 67.961 302.994 70.3245 301.833M-0.422422 373.617C-2.46614 385.506 5.14525 404.26 17.9618 419.372M55.153 443.069C59.9089 429.268 77.6388 416.915 85.9093 412.465M55.153 443.069C57.9308 455.42 65.2127 474.733 77.1836 485.438M55.153 443.069C41.0062 440.647 27.9146 431.108 17.9618 419.372M85.9093 412.465L117.676 425C119.757 425.767 121.672 426.699 123.43 427.75M85.9093 412.465C85.1331 405.237 80.236 389.159 67.0157 375.326M55.4835 365.225C58.3415 367.456 64.6939 372.896 67.0157 375.326M107.723 318.186C104.644 320.247 99.4267 324.789 93.1438 332.013M65.8259 373.752C69.6173 366.185 73.4946 359.422 77.305 353.434M103.519 492.142C108.265 493.454 119.047 493.632 124.202 483.854M103.519 492.142C96.8558 494.04 90.8797 493.38 85.5809 491.006M103.519 492.142C102.412 491.837 101.145 491.281 99.7897 490.533M124.202 483.854C129.566 482.248 138.18 478.124 136.553 470.534M124.202 483.854C122.354 483.434 119.967 482.731 117.295 481.726M136.553 470.534C140.686 467.956 148.305 461.005 143.046 453.234C141.659 451.185 139.255 450.154 136.819 449.719C135.868 449.549 134.87 449.371 133.859 449.189M136.553 470.534C134.318 470.303 131.518 469.765 128.416 468.889M105.098 432.261C107.844 435.751 110.933 438.589 114.134 440.884M97.3884 448.392C101.816 454.98 108.299 459.937 114.956 463.482M90.8443 461.608C93.5574 466.33 97.4907 470.252 101.796 473.433M81.8907 470.828C82.3019 473.189 83.8808 475.962 86.0705 478.719M77.1836 485.438C80.0881 485.395 85.9317 483.99 86.0705 478.719M77.1836 485.438C79.7642 487.746 82.5627 489.654 85.5809 491.006M86.0705 478.719C87.5264 480.552 89.2523 482.378 91.0846 484.071M91.0846 484.071C95.9866 482.749 104.992 478.771 101.796 473.433M91.0846 484.071C92.412 485.297 93.7953 486.454 95.1721 487.493M101.796 473.433C103.904 474.989 106.101 476.369 108.287 477.577M108.287 477.577C111.813 476.421 118.937 472.4 119.23 465.564M108.287 477.577C110.048 478.55 111.803 479.413 113.498 480.168M119.23 465.564C117.81 464.933 116.379 464.24 114.956 463.482M119.23 465.564C121.05 466.372 122.853 467.078 124.6 467.686M114.956 463.482C118.695 461.195 125.355 454.394 122.086 445.48M122.086 445.48C119.444 444.272 116.752 442.759 114.134 440.884M122.086 445.48C123.141 445.963 124.188 446.397 125.219 446.786M114.134 440.884C118.171 440.176 125.68 436.558 123.43 427.75M123.43 427.75C125.492 429.3 128.093 431.586 130.361 434.18M133.859 449.189C132.656 448.973 131.374 448.692 130.035 448.335M133.859 449.189C137.683 444.974 134.607 439.036 130.361 434.18M85.5809 491.006C88.1072 491.078 93.5624 490.476 95.1721 487.493M95.1721 487.493C96.751 488.685 98.3215 489.722 99.7897 490.533M99.7897 490.533C104.327 490.526 113.422 488.442 113.498 480.168M113.498 480.168C114.807 480.751 116.081 481.27 117.295 481.726M117.295 481.726C121.187 480.731 128.86 476.769 128.416 468.889M128.416 468.889C127.186 468.541 125.909 468.141 124.6 467.686M124.6 467.686C128.646 466.037 135.397 459.86 130.035 448.335M130.035 448.335C128.494 447.924 126.877 447.413 125.219 446.786M130.361 434.18C131.831 436.635 132.861 442.594 125.219 446.786M353.724 341.192C343.634 328.895 314.381 307.447 278.089 320.032M278.089 320.032C276.873 318.511 275.734 317 274.67 315.509M248.714 353.412C249.774 345.187 256.449 326.091 274.67 315.509M248.714 353.412C251.202 373.965 247.43 393.74 239.515 412.177M93.1438 332.013C93.5237 324.756 89.4917 308.56 70.3245 301.833M93.1438 332.013C88.3295 337.549 82.8892 344.659 77.305 353.434M-79.8415 408.171C-88.0159 411.699 -95.9442 417.972 -107.104 428.561C-116.863 437.821 -119.903 450.165 -118.999 463.273M-31.9461 547.102C-32.4985 562.999 -23.6453 599.005 16.1862 615.848M-31.9461 547.102C-27.9281 543.822 -24.0318 540.279 -20.3448 536.466M16.1862 615.848C21.7738 612.725 27.0776 609.361 32.0969 605.824M32.0969 605.824C35.8299 591.666 30.5678 557.974 -20.3448 536.466M32.0969 605.824C59.8329 586.277 78.8827 561.454 89.1229 543M-171.482 604.08C-177.262 605.417 -185.865 611.049 -188.432 615.518L-198.355 633.596L-207.173 652.059C-222.045 685.634 -209.861 709.177 -194.78 722.224M-171.482 604.08C-189.711 629.1 -219.891 687.755 -194.78 722.224M252.15 274.096C261.027 261.893 266.897 247.995 269.601 233.534M269.601 233.534C270.302 231.412 272.437 226.613 275.368 224.397M17.9618 419.372C22.5129 434.083 26.3468 467.488 5.27447 483.421M77.305 353.434C100.648 383.975 165.771 438.48 239.515 412.177" stroke="black" stroke-width="2.17937" stroke-linecap="round" stroke-linejoin="round"/>
<circle cx="161.299" cy="320.162" r="6.71923" transform="rotate(-37.0931 161.299 320.162)" fill="black" stroke="black" stroke-width="2.17937"/>
<circle cx="158.654" cy="319.684" r="6.71923" transform="rotate(-37.0931 158.654 319.684)" fill="#FFFF78" stroke="black" stroke-width="2.17937"/>
<path d="M115.321 225.769C116.339 222.055 111.825 214.469 109.441 211.14C114.638 210.424 117.944 214.304 118.948 216.334L115.321 225.769Z" fill="black"/>
<path d="M229.269 263.184C227.998 260.276 222.198 256.482 219.27 254.854L226.133 253.683L229.269 263.184C229.359 263.391 229.427 263.592 229.469 263.788L229.269 263.184Z" fill="black"/>
<path d="M208.281 290.436C216.258 288.537 225.366 280.77 228.923 277.124C227.701 283.099 220.284 292.648 216.729 296.675L200.954 302.002L208.281 290.436Z" fill="black"/>
<path d="M207.389 293.999C176.272 309.367 140.407 303.04 126.364 297.956L133.495 303.855C139.674 306.759 154.751 307.613 161.518 307.677C178.718 307.688 197.165 303.064 204.238 300.751L207.389 293.999Z" fill="black"/>
<path d="M134.268 303.859C123.704 298.435 115.653 288.782 111.895 279.987M209.2 201.187C192.463 176.814 165.704 180.503 155.794 183.272C142.423 186.794 130.942 192.732 122.08 208.286M206.076 204.427C212.847 197.136 228.756 191.629 240.854 212.476C246.785 222.695 246.634 245.854 225.805 253.635M225.805 253.635C234.479 269.568 228.831 285.208 215.977 296.695M225.805 253.635C224.383 254.167 220.263 255.889 215.492 253.47M122.08 208.286C124.14 205.457 129.167 201.023 136.152 200.583C139.677 200.361 146.897 200.191 152.245 209.561C152.784 210.504 154.132 210.658 154.849 209.843C160.454 203.475 171.287 195.246 185.403 197.681C201.416 200.443 217.866 228.001 198.53 251.344C197.112 253.056 197.772 255.871 199.709 256.963C209.199 262.312 219.775 276.517 201.814 300.473M122.08 208.286C120.117 211.732 120.718 210.995 118.947 215.888M111.888 235.821C110.55 240.953 109.374 246.275 108.415 251.524C108.132 252.703 107.914 254.044 107.776 255.515M111.888 235.821C110.505 241.471 114.527 252.541 121.637 259.015C122.486 259.788 122.293 261.239 121.245 261.708C115.786 264.154 108.762 268.831 111.895 279.987M111.888 235.821C112.504 233.46 113.154 231.138 113.834 228.883M111.895 279.987C108.123 271.16 107.163 262.053 107.776 255.515M118.947 215.888C116.274 211.201 109.555 209.917 103.133 214.731C94.1902 221.437 92.588 236.181 92.703 240.591C92.8886 247.714 98.2399 259.687 107.776 255.515M118.947 215.888C118.039 218.397 114.664 226.131 113.834 228.883M113.834 228.883C112.32 225.54 107.747 220.889 101.566 229.03" stroke="black" stroke-width="2.17937" stroke-linecap="round" stroke-linejoin="round"/>
<path d="M217.466 233.439C217.027 230.129 216.937 229.603 216.235 225.87M216.235 225.87C215.617 222.583 215.516 221.436 214.679 215.601C214.479 214.211 214.747 212.754 215.678 211.703C220.922 205.785 229.412 207.069 234.543 218.585C238.349 227.125 234.517 235.217 231.232 239.177M216.235 225.87C214.651 217.444 228.409 213.726 229.675 225.179" stroke="black" stroke-width="2.17937" stroke-linecap="round" stroke-linejoin="round"/>
<path d="M166.655 231.151C166.36 224.518 170.461 218.947 175.815 218.71C181.168 218.472 185.746 223.657 186.041 230.29C186.145 232.64 185.698 234.856 184.839 236.749" stroke="black" stroke-width="2.17937" stroke-linecap="round" stroke-linejoin="round"/>
<ellipse cx="176.152" cy="228.494" rx="7.40402" ry="9.17455" transform="rotate(-2.54275 176.152 228.494)" fill="black"/>
<path d="M113.303 229.875C110.369 229.057 106.978 232.027 105.728 236.51C104.479 240.992 105.844 245.289 108.777 246.107" stroke="black" stroke-width="2.17937"/>
<path d="M164.405 252.548L158.528 252.742C157.143 252.788 156.541 251.008 157.669 250.203L162.455 246.788C164.057 245.645 166.303 246.219 167.16 247.991C168.16 250.059 166.701 252.473 164.405 252.548Z" fill="black"/>
<path d="M146.742 251.545L152.538 252.538C153.904 252.772 154.743 251.091 153.735 250.14L149.459 246.104C148.027 244.753 145.725 245.016 144.634 246.654C143.361 248.567 144.478 251.157 146.742 251.545Z" fill="black"/>
<path d="M128.241 231.86C127.946 225.227 132.047 219.657 137.401 219.419C142.754 219.181 147.332 224.366 147.627 230.999C147.731 233.349 147.284 235.565 146.425 237.458" stroke="black" stroke-width="2.17937" stroke-linecap="round" stroke-linejoin="round"/>
<ellipse cx="137.152" cy="228.494" rx="7.40402" ry="9.17455" transform="rotate(-2.54275 137.152 228.494)" fill="black"/>
<path d="M134.852 269C139.569 276.491 154.249 250.846 180.36 261.649" stroke="black" stroke-width="2.17937" stroke-linecap="round" stroke-linejoin="round"/>
<path d="M115.023 141.133C128.463 130.972 143.768 124.981 159.372 122.958C161.636 122.664 163.709 124.261 164.003 126.525C164.297 128.789 162.699 130.862 160.435 131.156C146.219 133 132.273 138.455 120.01 147.728C105.092 159.007 94.9265 174.225 89.8573 190.836C89.1908 193.02 86.8811 194.25 84.6975 193.584C82.5141 192.917 81.2851 190.607 81.9514 188.423C87.5123 170.201 98.67 153.498 115.023 141.133Z" fill="white" stroke="black" stroke-width="2.17937" stroke-linecap="round"/>
</g>
<path d="M7.66975 130.563C75.3835 126.815 130.197 71.3127 154.914 36.04C157.918 31.7533 164.468 31.7533 167.472 36.04C192.189 71.3128 247.003 126.815 314.717 130.563C318.665 130.782 321.844 134.03 321.626 137.979C317.238 217.115 280.481 369.587 163.02 402.525C161.837 402.857 160.549 402.857 159.366 402.525C41.9048 369.587 5.14822 217.115 0.760788 137.979C0.541866 134.03 3.72105 130.782 7.66975 130.563Z" stroke="#9FE384" stroke-width="1.5" stroke-linecap="round" stroke-linejoin="round"/>
<path d="M203.778 83.2442C204.305 80.0465 205.673 77.3801 207.882 75.2451C210.102 73.0405 213.417 71.3378 217.828 70.1371L226.563 67.8283C228.438 67.2807 229.913 66.5599 230.989 65.6662C232.076 64.703 232.728 63.5609 232.946 62.2402C233.382 59.5986 232.573 57.3588 230.519 55.5208C228.478 53.6133 225.302 52.3043 220.992 51.5938C216.543 50.8604 212.837 51.2491 209.875 52.7601C206.993 54.213 205.034 56.5676 203.997 59.8241L183.664 56.4721C185.63 48.0135 190.137 41.9016 197.184 38.1365C204.3 34.3828 213.142 33.377 223.708 35.1189C234.343 36.8722 242.266 40.3561 247.476 45.5706C252.767 50.727 254.782 57.1286 253.521 64.7752C252.902 68.529 251.304 71.7285 248.725 74.3739C246.147 77.0192 242.577 78.9656 238.016 80.2129L228.466 82.9227C226.741 83.4237 225.381 84.0921 224.386 84.9278C223.392 85.7635 222.774 86.9112 222.533 88.3711L222.258 90.0394L203.698 86.9796C203.604 86.2501 203.568 85.6015 203.59 85.034C203.624 84.3969 203.686 83.8003 203.778 83.2442ZM208.283 115.69C204.738 115.106 202.019 113.622 200.127 111.239C198.304 108.868 197.662 106.049 198.201 102.782C198.751 99.4452 200.27 96.9465 202.757 95.2859C205.314 93.6367 208.365 93.1043 211.91 93.6887C215.455 94.2732 218.139 95.751 219.962 98.1222C221.784 100.493 222.421 103.347 221.871 106.684C221.332 109.951 219.819 112.415 217.332 114.076C214.845 115.736 211.828 116.275 208.283 115.69Z" fill="#3B3434"/>
<defs>
<linearGradient id="paint0_linear_1948_10356" x1="160.257" y1="123.981" x2="202.912" y2="391.578" gradientUnits="userSpaceOnUse">
<stop stop-color="white"/>
<stop offset="1" stop-color="white" stop-opacity="0"/>
</linearGradient>
</defs>
</svg>
