<svg xmlns="http://www.w3.org/2000/svg" width="2800" height="120" fill="none" viewBox="0 0 2800 120"><g clip-path="url(#a)"><g filter="url(#b)"><path fill="#ffb89f" d="M0 60q71.325-60 142.65 0t142.65 0 142.65 0 142.65 0 142.65 0 142.65 0 142.65 0 142.65 0 142.65 0 142.65 0 142.65 0 142.65 0 142.65 0c20.38 15 33.96 25 47.55 30v30H0z"/></g><g filter="url(#c)"><path fill="#ffb89f" d="M1712 60q71.325-60 142.65 0t142.65 0 142.65 0 142.65 0 142.65 0 142.65 0 142.65 0 142.65 0 142.65 0 142.65 0 142.65 0 142.65 0 142.65 0c20.38 15 33.96 25 47.55 30v30H1712z"/></g></g><defs><filter id="b" width="1902" height="90" x="0" y="30" color-interpolation-filters="sRGB" filterUnits="userSpaceOnUse"><feFlood flood-opacity="0" result="BackgroundImageFix"/><feBlend in="SourceGraphic" in2="BackgroundImageFix" result="shape"/><feColorMatrix in="SourceAlpha" result="hardAlpha" values="0 0 0 0 0 0 0 0 0 0 0 0 0 0 0 0 0 0 127 0"/><feOffset dy="1"/><feComposite in2="hardAlpha" k2="-1" k3="1" operator="arithmetic"/><feColorMatrix values="0 0 0 0 0 0 0 0 0 0 0 0 0 0 0 0 0 0 1 0"/><feBlend in2="shape" result="effect1_innerShadow_3950_1888"/></filter><filter id="c" width="1902" height="90" x="1712" y="30" color-interpolation-filters="sRGB" filterUnits="userSpaceOnUse"><feFlood flood-opacity="0" result="BackgroundImageFix"/><feBlend in="SourceGraphic" in2="BackgroundImageFix" result="shape"/><feColorMatrix in="SourceAlpha" result="hardAlpha" values="0 0 0 0 0 0 0 0 0 0 0 0 0 0 0 0 0 0 127 0"/><feOffset dy="1"/><feComposite in2="hardAlpha" k2="-1" k3="1" operator="arithmetic"/><feColorMatrix values="0 0 0 0 0 0 0 0 0 0 0 0 0 0 0 0 0 0 1 0"/><feBlend in2="shape" result="effect1_innerShadow_3950_1888"/></filter><clipPath id="a"><path fill="#fff" d="M0 0h2800v120H0z"/></clipPath></defs></svg>