<svg xmlns="http://www.w3.org/2000/svg" width="431" height="256" fill="none" viewBox="0 0 431 256"><path fill="#fff" d="m230.757 5.59 2.696-3.465c2.696-4.044 22.916-.384 32.544 36.395 9.628 36.778-27.536 65.853-38.897 77.021-9.088 8.935-8.28 19.128-6.739 23.107 4.313-16.945 29.14-20.154 41.015-19.641 32.657-3.235 42.619 9.179 43.518 15.79l5.006-1.155c6.852 12.167 13.752 18.365 23.239 24.358 16.368 10.341 28.225 14.735 42.348 18.004 15.311-1.685 29.566-8.285 44.797-27.487 3.658 1.348 3.225 6.884 2.551 9.483 3.428 4.236-5.953 13.768-11.072 18.004 17.253 35.739 7.189 60.463 0 68.358-31.579 10.015-56.74-7.445-65.855-20.026q-.29.272-.582.54c-40.432 37.175-105.638 27.975-132.09 17.561-45.636 22.338-89.218 9.435-104.559-.963.154 5.083-2.504 5.712-3.852 5.392-1.283.32-6.084.77-15.018 0-8.935-.771-18.581-5.023-22.304-6.884l-14.27 7.69C38.79 254.54 8.7 260.576 1.613 229.15s27.857-47.882 46.214-52.183c6.008-1.386 12.516 3.145 15.02 5.584 26.573-3.273 35.623 3.274 41.977 4.429 5.084.924 5.456 6.804 5.007 9.628l8.665 3.081v-22.722l2.31-4.236 3.179-.866c.385-15.019 3.852-49.678 26.284-54.878 21.402-4.962 32.735 0 51.22 18.678-7.702-12.016 4.875-25.797 23.588-40.919 30.502-24.647 28.306-46.791 21.856-61.812l-6.162-11.36-10.015-11.362z"/><path fill="#000" d="M232.683 228.806c-3.743-.936-5.848-5.459-6.433-7.603 1.544 2.059 4.932 3.665 6.433 4.211 5.146 6.363 11.033 4.912 13.334 3.392 6.596 3.368 10.156.273 11.111-1.696 7.065.608 9.338-3.178 9.591-5.147.655 6.55-4.951 7.798-7.837 7.603-1.777 5.333-9.006 3.821-12.398 2.398-5.38 4.023-11.442-.429-13.801-3.158M110.577 246.322c-3.49.36-6.427-4.776-7.421-7.502l5.017 2.595z"/><path fill="#ffb195" fill-opacity=".91" d="m230.621 5.515 2.696-3.466c2.696-4.044 22.916-.384 32.544 36.394 9.628 36.779-27.536 65.854-38.897 77.022-9.089 8.935-8.28 19.127-6.739 23.107l-2.561 10.158-16.368-13.767c-7.703-12.016 4.933-25.171 23.646-40.293 30.501-24.647 28.306-46.791 21.856-61.812l-6.162-11.361-10.015-11.36z"/><path fill="url(#a)" d="M430.26 113.584c0 33.458-25.384 58.756-55.08 62.613-19.256-5.392-35.431-11.169-48.525-22.722-4.528-5.568-14.033-13.094-16.527-19.995-2.543-7.038-2.784-11.753-2.784-19.538 0-33.458 27.858-60.94 61.678-60.94 33.821 0 61.238 27.123 61.238 60.582"/><path fill="#f1cfbe" d="M327.618 92.05c11.708-6.316 14.763-.192 14.827 3.659 3.53-4.172 18.099-8.728 32.349-1.54 17.407 8.78 18.677 22.271 17.137 27.92 15.404 2.156 12.58 16.688 9.243 23.684-3.697 9.089-14.635 9.179-19.641 8.088-1.54 12.631-14.634 16.944-20.989 17.522l-29.461-13.671-13.671-14.25c-6.316-13.247.707-27.214 5.007-32.541-3.851.385-9.435-10.976 5.199-18.871"/><path fill="#f1cfbe" d="M327.704 92.05c11.708-6.316 14.763-.192 14.827 3.659 3.53-4.172 18.099-8.728 32.348-1.54 17.408 8.78 18.678 22.271 17.138 27.92 15.404 2.156 12.58 16.688 9.243 23.684-3.697 9.089-14.635 9.179-19.641 8.088-1.541 12.631-14.634 16.944-20.989 17.522l-29.461-13.671-13.671-14.25c-6.316-13.247.707-27.214 5.007-32.541-3.851.385-9.435-10.976 5.199-18.871"/><path fill="#fdf2d4" d="M318.327 120.598c2.085-2.465 7.16-2.029 9.438-1.503v-3.651l.638-5.392 1.896-5.096-1.422 1.066-3.318 2.312c-6.163-3.84-.356-9.856 3.318-12.385l3.851-.532 2.903 2.429v2.903l7.466-5.332 5.688-3.023 5.036.652 5.274 2.903 2.37 4.8v4.207l.474 1.066 8.177-.415 5.866 1.363 6.043 4.089 3.141 5.332.651 7.17-.651 4.029-2.311 5.451-3.615 4.266-4.858 3.555-6.222 1.896-1.185 2.607 1.6 4.8-.415 4.325-1.599 4.918-4.148 3.792-4.148 2.725-3.91 2.667-6.636-2.667-17.657-9.361-13.806-14.932-1.365-10.783.653-6.163c.059-.335.699-1.623 2.783-4.088M382.81 144.37l7.453-14.18c5.963-2.449 7.993 2.244 8.263 4.897 1.305 7.998-5.783 12.65-9.49 13.976-7.998.979-7.483-2.72-6.226-4.693"/><path fill="#ffff78" d="m385.767 174.078-10.013 1.925c0 7.393-3.466 10.911-5.199 11.747 4.159 1.694 9.82 7.253 12.131 9.82-.154-4.467 3.787-13.415 5.776-17.33z"/><path fill="#000" d="M358.201 235.345c-5.641-9.362-3.102-21.105-.752-25.656-1.559 0-8 9.803-11.402 14.554 1.8 4.081 8.853 9.102 12.154 11.102M362.402 192.589c-42.61-10.443-60.564-38.059-64.214-50.562h1.05l5.251 7.352c15.003 20.404 45.86 32.907 59.413 36.608zM253.844 179.69c3.46-4.903 4.688-15.705 4.869-20.493.832 7.201-.645 20.446-1.487 26.169zM257.305 147.937c2.042 1.021 7.394 2.525 12.498.401 2.145-.901 5.156-2.166.04-.017l-.04.017-11.602 5.015zM205.914 138.329c3.704 3.604 10.906.664 12.977-4.44.458 3.023.786 4.136 1.155 5.104l-1.9 10.803-3.442-3.324-8.79-7.085zM175.916 178.033c6.482 6.242 17.604 8.352 22.205 8.852l-14.126 4.276c-18.916 9.838-30.359 10.878-39.886 11.103l4.801-11.103c1.321.24 7.702.7 10.728.9l2.625-6.301c1.861.12 8.677-.5 11.853-.825z"/><path stroke="#000" stroke-width="1.5" d="M264.199 32.533c1.831 6.146 2.985 13.147 3.215 21.05a33 33 0 0 1-.228 4.874c-.829 6.93-3.733 13.842-7.663 20.383m4.676-46.307c-2.429-8.156-6.05-14.808-10.287-20.07-3.979-4.94-8.501-8.654-13.09-11.235-2.488-.942-6.303-.798-9.281 3.277-2.327 3.185-.409 7.437 2.52 10.079 2.242 2.022 4.572 4.52 6.761 7.433 3.205 4.265 6.108 9.423 7.99 15.29m15.387-4.774c-3.288-.635-10.968-.57-15.387 4.774m0 0c1.59 4.956 2.452 10.418 2.153 16.276q-.035.68-.104 1.36c-.547 5.418-2.685 10.874-5.644 16.033m14.306 7.864c-3.304-3.038-10.79-8.863-14.306-7.864m14.306 7.864c-3.673 6.112-8.243 11.9-12.853 17.073-4.743 5.322-9.529 9.994-13.425 13.699m11.972-38.636c-2.964 5.166-6.751 10.032-10.589 14.26a109 109 0 0 1-9.432 9.194c-1.827 1.572-3.751 3.21-5.697 4.922m13.746 10.26c-3.853 3.664-6.836 6.383-8.049 7.853a29.5 29.5 0 0 0-4.555 7.552c-1.053 2.719-2.652 8.682-.476 14.234m13.08-29.639c-1.912-3.333-7.338-10.052-13.746-10.26m0 0c-6.764 5.943-13.817 12.752-18.134 20.585-1.168 2.118-4.062 7.064-.985 14.281"/><path stroke="#000" stroke-linecap="round" stroke-linejoin="round" stroke-width="1.5" d="M364.041 186.347c-1.47 9.535-4.447 17.797-8.593 24.923m-142.042 30.59c-3.962-15.804-8.328-52.061 7.516-70.066m-7.516 70.066c-1.823 1.033-3.96 2.107-6.374 3.176m6.374-3.176c21.336 10.591 78.06 16.276 115.767-5.207m-220.892 5.058c11.984 6.673 24.235 10.361 36.033 11.997m-36.033-11.997c0 4.244-2.202 5.333-3.303 5.347m3.303-5.347-4.686-3.055c-3.601-9.903-3.512-33.914 1.383-43.756m-37.507 44.71c-13.803 9.402-44.77 23.466-58.213 4.501m58.213-4.501c5.412 3.383 18.72 9.548 37.507 7.448m-37.507-7.448c-16.055-15.08-9.692-44.292-4.503-57.013m-53.71 61.514c-11.495-32.964 31.017-54.744 53.71-61.514m-53.71 61.514c-3.08-3.904-6.279-9.753-7.705-16.436m61.415-45.078c9.802-2.801 29.374-.804 42.877 4.201m-42.877-4.201c-1.532-1.531-3.775-3.073-6.237-4.173m49.114 8.374c1.701.4 4.234 2.941 4.234 9.902l-5.101-1.8m.867-8.102c-2.2-.282-6.451 7.084-7.952 14.487-2.135 10.535-3.9 42.772 7.085 45.773m0-52.158c3.596 1.528 8.333 3.127 13.817 4.443m65.703-8.599 15.001-3.946c-2.682-.098-7.029-.657-11.476-2.011m-3.525 5.957c-4.57 2.512-7.55 3.874-12.417 5.956m12.417-5.956c6.229 7.186 20.656 26.148 22.534 54.292m-31.538-67.54-1.296 7.291m1.296-7.291c-10.896-27.02-5.404-51.995-1.296-61.105m1.296 61.105c-5.456-15.587-21.272-47.132-40.891-48.614m40.891 48.614c3.075 3.567 7.857 5.868 12.529 7.291M172.081 196.7l1.059-5.956m-1.059 5.956c-5.279 2.259-10.765 3.727-16.259 4.585m-37.027-1.942v-21.847m0 21.847c7.963 1.91 17.501 3.224 27.404 2.855m-27.404-24.702c-.105-1.601.766-4.981 5.087-5.702m-5.087 5.702c17.055 16.084 43.336 15.533 54.345 13.248m-49.258-18.95c4.437 6.162 20.713 17.386 50.316 12.993m-50.316-12.993c0-11.328 2.492-30.312 10.721-42.912m39.595 55.905-1.058 5.957m44.964-41.455c-25.33-20.834-32.582-30.128-43.906-32.898m200.82 59.608c-48.911-11.402-58.502-32.007-65.104-42.31m65.104 42.31c1.401 2.101 0 10.348-5.112 11.795m5.112-11.795a61.4 61.4 0 0 0 11.494-2.314m-76.598-39.996a61.6 61.6 0 0 1-2.99-19.023c0-34.056 27.608-61.664 61.664-61.664 34.057 0 61.665 27.608 61.665 61.664 0 18.074-7.777 34.333-20.166 45.611m-100.173-26.588c-6.721 0-10.391 4.695-10.792 7.496 13.804 25.206 41.677 38.207 70.784 46.609m41.515-11.795c5.401-4.401 14.328-12.541 11.447-18.062.8-4.001.642-7.163-2.479-9.804m-8.968 27.866c-5.701-.3-17.24 1.254-22.761 3.895m22.761-3.895c6.652 8.995 15.887 38.927 4.876 62.683-1.064 2.294-2.756 4.229-4.876 5.5m-22.761-64.288c-.906 2.096-5.59 12.139-6.169 17.909m6.169-17.909c-.831-.872-2.425-3.333-2.148-6.209m-40.521 50.065c20.782 26.87 48.87 25.48 62.639 21.635a11.4 11.4 0 0 0 2.791-1.203m-28.93-46.379c-1.683-2.669-8.504-9.289-12.585-10.009m12.585 10.009a63 63 0 0 0-.287 4.513m.637 10.885a64 64 0 0 1-.637-7.403m-76.753-71.332c-1.059-3.706-6.412-12.25-18.293-14.546m-61.251 8.962c6.462.208 21.99 5.663 32.406 25.818m-32.406-25.818c5.026-4.712 12-7.373 19.611-8.807 3.762-.708 7.68-1.117 11.595-1.325 8.947-.475 17.88.098 24.907.53 1.84.113 3.55.333 5.138.64m-61.251 8.962c-5.405 5.067-8.624 17.075-7.943 29.226m9.443 25.386c7.443-4.999 20.704-4.483 26.405-3.6m-26.405 3.6c-3.214 7.08-6.801 19.239-4.902 28.919m4.902-28.919c-6.034-6.427-8.914-15.95-9.443-25.386m35.848 21.786 10.92 17.909a21 21 0 0 1 1.8 3.478m-12.72-21.387c2.297-3.829 5.854-13.52 4.501-25.194m-1.908-9.22c.574 2.151 1.67 7.17 1.908 9.22m41.11-12.914c-2.273-.132-6.511.161-12.265 1.373m-28.845 10.329a140 140 0 0 1 13.15-5.702m-38.539 77.667c1.84 2.4 7.056 6.481 13.203 3.6m-13.203-3.6c-3.967-1.539-6.65-4.076-8.367-7.202m8.367 7.202c-.429-.56-.844-1.302-1.231-2.17m14.434 5.77c3.223 1.201 8.972 2.371 10.986-1.95m-10.986 1.95c-.749-.89-1.658-2.119-2.595-3.6m13.581 1.65c2.931.263 9.083-.297 9.57-5.794.15-1.696-.764-3.261-1.92-4.511l-1.063-1.15m-6.587 11.455c-1.01-.941-2.182-2.242-3.377-3.82m2.144-26.583a27.2 27.2 0 0 0 1.233 7.572m-10.986-2.525c-.271 4.868 1.069 9.698 3.017 13.901m-11.118-9.85c-.421 3.319.054 6.697.985 9.85m-8.787-8.65c-.674 1.31-.927 3.253-.876 5.415m-6.843 0c1.44 1.054 4.823 2.531 6.843 0m-6.843 0c.41 2.086 1.074 4.058 2.052 5.838m4.791-5.838a30 30 0 0 0 .475 4.479m0 0c2.891 1.168 8.776 2.555 9.188-1.244m-9.188 1.244c.196 1.092.445 2.172.734 3.191m8.454-4.435a36 36 0 0 0 1.645 4.435m0 0c2.155.739 7.135 1.409 9.811-1.832m-9.811 1.832a42 42 0 0 0 1.593 3.2m8.218-5.032a41 41 0 0 1-1.323-2.603m1.323 2.603a43 43 0 0 0 1.845 3.029m-3.168-5.632c2.679.265 8.462-.6 10.162-6.178m0 0a29.3 29.3 0 0 1-2.193-5.198m2.193 5.198q.508.94 1.051 1.8m-3.244-6.998c2.239 1.148 7.259 2.158 9.419-2.991m0 0a29 29 0 0 1 1.014 5.717m-3.846 8.65a29 29 0 0 1-1.557-1.835m1.557 1.835c3.435-.649 4.127-4.697 3.846-8.65m-42.989 11.253c1.211.971 4.107 2.697 6 1.832m0 0a24 24 0 0 0 1.136 3.2m0 0c2.226 1.677 7.453 4.025 10.556 0m0 0c.425.77.857 1.496 1.283 2.17m0 0c2.275.954 7.502 1.855 10.204-2.17m0 0a41 41 0 0 1-1.424-2.003m0 0c2.592.691 8.188.165 9.831-7.467m0 0a31 31 0 0 1-1.786-2.543m7.189-4.272c-.19 1.748-1.892 5.049-7.189 4.272m151.064 32.912c-.388-9.762-6.775-31.106-29.217-38.384m0 0a65 65 0 0 1 0-3.482m-26.756 8.954c3.566-3.637 13.91-10.519 26.756-8.954m-26.756 8.954c-6.395 10.991-15.568 19.282-26.275 25.383m-42.015-93.494c2.874-3.415 6.898-12.843 0-23.239m0 23.239c-4.409.928-9.708 2.397-15.695 4.627m-97.265-31.395c-5.312-1.299-11.519-1.163-20.909-.109-8.212.921-14.274 5.843-18.686 12.6m11.596 73.316c-6.16 7.584-15.16 28.503-1.885 51.51m1.885-51.51a83 83 0 0 0 9.623-.913m-11.508 52.423c3.894.54 7.739.856 11.508.982m0 0c7.074-5.553 16.976-24.009 0-53.405m0 53.405c20.829.698 39.357-4.406 51.21-9.654M56.731 178.424c-3.327-1.486-9.628-1.913-12.541-.675l-11.558 5.181-11.16 5.779C1.75 199.649-1.001 215.697 1.554 227.675m55.178-49.251c-18.199 5.505-54.712 23.062-55.178 49.251m384.959-53.99a61.6 61.6 0 0 0 23.575-13.408m0 0c1.13-.78 3.954-2.34 6.21-2.34m-198.333.171c-3.219 8.893-13.715 26.679-29.941 26.679m83.44-37.001c.123 23.61 11.838 74.437 57.71 88.867"/><path fill="#000" d="M266.569 218.446c2.705-2.016 1.536-11.206.614-15.55 1.869 9.342-1.27 12.415-3.074 12.784z"/><circle cx="324.921" cy="162.589" r="4.046" fill="#000" stroke="#000" stroke-width="1.5"/><circle cx="323.804" cy="161.376" r="4.046" fill="#ffff78" stroke="#000" stroke-width="1.5"/><path fill="#000" d="M337.383 99.325c1.874-1.442 2.473-6.83 2.538-9.344 2.811 1.573 2.994 4.7 2.733 6.066zM379.344 159.863c.455-1.896-.981-5.903-1.813-7.785l3.796 1.968za2 2 0 0 1-.126.37zM358.967 165.439c4.612 2.025 11.951 1.594 15.044 1.125-2.812 2.475-9.982 4.406-13.216 5.062l-9.701-3.234z"/><path fill="#000" d="M357.208 166.853c-20.937-3.997-36.165-20.383-41.161-28.076l1.308 5.532c1.951 3.712 9.022 9.716 12.313 12.253 8.423 6.377 19.173 10.945 23.496 12.432z"/><path stroke="#000" stroke-linecap="round" stroke-linejoin="round" stroke-width="1.5" d="M317.735 144.599c-3.167-6.571-3.535-14.282-2.119-19.983m76.862-2.561c.829-18.14-13.648-26.246-19.528-28.56-7.856-3.227-15.68-4.572-25.784-.234m42.582 29.224c6.017-1.064 15.851 2.131 14.056 16.826-.88 7.204-9.532 18.494-22.619 14.591m0 0c-1.653 11.018-10.213 16.588-20.766 17.454m20.766-17.454c-.894-.267-3.551-.95-4.992-3.902m-29.027-56.739c2.058-.623 6.163-.933 9.748 1.44 1.793 1.185 5.345 3.74 4.581 10.183-.088.741.588 1.389 1.321 1.244 5.118-1.008 13.355-.956 19.302 5.394 6.777 7.237 4.701 26.623-13.092 31.067-1.485.371-2.291 2.2-1.715 3.617 2.515 6.191 2.12 16.765-15.23 21.755m-4.915-74.7c-2.238.961-1.67.823-4.35 2.564m-10.842 7.151a134 134 0 0 0-7.519 6.406 18 18 0 0 0-1.791 1.719m9.31-8.125c-2.74 2.231-4.854 9.016-3.851 14.78.135.779-.576 1.496-1.347 1.325-3.571-.79-8.608-.973-11.16 5.535m16.358-21.64a116 116 0 0 1 3.523-2.678m-19.881 24.318c1.422-5.722 4.325-10.539 7.048-13.515m20.152-15.276c.426-3.286-2.39-6.405-7.319-6.425-6.866-.027-13.112 6.602-14.69 8.806-2.547 3.558-4.361 11.407 1.857 12.895m20.152-15.276c-1.375.893-5.893 3.431-7.319 4.473m0 0c.496-2.2-.021-6.172-6.064-4.473"/><path stroke="#000" stroke-linecap="round" stroke-linejoin="round" stroke-width="1.5" d="M384.578 140.917c1.011-1.785 1.162-2.076 2.201-4.165m0 0c.901-1.811 1.279-2.42 2.963-5.466.468-.846 1.218-1.54 2.17-1.711 4.684-.843 8.267 2.931 6.535 10.39-1.299 5.594-6.174 8.139-9.25 8.862m-2.418-12.075c2.345-4.715 10.463-1.44 6.84 4.641M360.531 120.973c2.313-3.359 6.385-4.569 9.096-2.703s3.033 6.103.72 9.462c-.819 1.19-1.859 2.11-2.981 2.719"/><ellipse cx="363.651" cy="123.486" fill="#000" rx="4.548" ry="5.635" transform="rotate(34.55 363.651 123.486)"/><path stroke="#000" stroke-width="1.5" d="M334.87 100.587c-1.134-1.487-3.896-1.288-6.169.445s-3.196 4.344-2.061 5.831"/><path fill="#000" d="m351.501 130.621-2.951-2.082c-.696-.491-.331-1.586.52-1.562l3.61.099a1.952 1.952 0 1 1-1.179 3.545M343.218 123.586l2.471 2.633c.583.62 1.617.108 1.475-.732l-.6-3.561a1.952 1.952 0 1 0-3.346 1.66"/><path stroke="#000" stroke-linecap="round" stroke-linejoin="round" stroke-width="1.5" d="M341.453 107.094c2.313-3.359 6.385-4.569 9.096-2.703s3.033 6.103.72 9.462c-.819 1.19-1.859 2.11-2.981 2.719"/><ellipse cx="344.573" cy="109.599" fill="#000" rx="4.548" ry="5.635" transform="rotate(34.55 344.573 109.599)"/><path stroke="#000" stroke-linecap="round" stroke-linejoin="round" stroke-width="1.5" d="M333.438 122.789c-.243 5.431 4.858 18.015 23.548 18.015"/><path fill="#fff" stroke="#000" stroke-linecap="round" stroke-width="1.5" d="M368.567 57.736c10.348 0 20.065 2.735 28.46 7.524a2.54 2.54 0 0 1-2.517 4.41c-7.648-4.362-16.501-6.856-25.943-6.856-11.487 0-22.105 3.69-30.741 9.95a2.54 2.54 0 1 1-2.98-4.11 57.27 57.27 0 0 1 33.721-10.918Z"/><path fill="#fa673a" fill-rule="evenodd" d="M105.965 75.37c18.286 18.286-22.857 18.286-4.571 0-18.286 18.286-18.286-22.858 0-4.571-18.286-18.287 22.857-18.287 4.571 0 18.286-18.287 18.286 22.857 0 4.57" clip-rule="evenodd"/><path stroke="#000" stroke-miterlimit="10" stroke-width=".959" d="M105.965 75.37c18.286 18.286-22.857 18.286-4.571 0-18.286 18.286-18.286-22.858 0-4.571-18.286-18.287 22.857-18.287 4.571 0 18.286-18.287 18.286 22.857 0 4.57Z"/><defs><linearGradient id="a" x1="397.102" x2="318.873" y1="66.102" y2="213.003" gradientUnits="userSpaceOnUse"><stop stop-color="#fff"/><stop offset="1" stop-color="#fff" stop-opacity="0"/></linearGradient></defs></svg>