<svg xmlns="http://www.w3.org/2000/svg" width="111" height="111" fill="none" viewBox="0 0 111 111"><path fill="#c1f174" d="M55.417 110.068c30.179 0 54.644-24.464 54.644-54.643S85.596.78 55.417.78.773 25.246.773 55.425s24.465 54.643 54.644 54.643"/><path stroke="#000" stroke-miterlimit="10" stroke-width="1.532" d="M55.432 110.099c30.192 0 54.667-24.475 54.667-54.667 0-30.191-24.475-54.666-54.667-54.666C25.241.766.766 25.24.766 55.432c0 30.192 24.475 54.667 54.666 54.667Z"/><path stroke="#000" stroke-miterlimit="10" stroke-width="1.532" d="M68.903 68.9C90.252 47.55 101.526 24.212 94.085 16.77c-7.442-7.441-30.78 3.833-52.13 25.181-21.348 21.349-32.622 44.688-25.18 52.13 7.44 7.441 30.78-3.833 52.128-25.182Z"/><path stroke="#000" stroke-miterlimit="10" stroke-width="1.532" d="M94.085 94.083c7.441-7.442-3.833-30.78-25.182-52.13-21.348-21.348-44.687-32.622-52.128-25.18-7.442 7.44 3.832 30.78 25.18 52.128 21.35 21.349 44.688 32.623 52.13 25.182Z"/><path fill="#000" fill-rule="evenodd" d="M66.693 66.488c-6.895-4.038-15.53-3.961-22.35.252 4.2-6.826 4.276-15.468.238-22.364 6.911 4.03 15.546 3.946 22.373-.253-4.207 6.819-4.291 15.454-.26 22.365" clip-rule="evenodd"/></svg>