<svg width="1440" height="240" viewBox="0 0 1440 240" fill="none" xmlns="http://www.w3.org/2000/svg">
<g clip-path="url(#clip0_3924_1814)">
<mask id="mask0_3924_1814" style="mask-type:luminance" maskUnits="userSpaceOnUse" x="0" y="0" width="1440" height="240">
<path d="M1440 0H0V240H1440V0Z" fill="white"/>
</mask>
<g mask="url(#mask0_3924_1814)">
<path d="M1440 0H0V240H1440V0Z" fill="white"/>
<path d="M1440 0H0V240H1440V0Z" fill="#FFFF78"/>
<path d="M719.884 71.8809C1633.95 71.8809 2374.98 812.742 2375.25 1726.74H-935.488C-935.213 812.742 -194.184 71.8809 719.884 71.8809Z" fill="#FDF2D4" stroke="black" stroke-width="1.01775"/>
<path d="M1159.18 221.423C1181.53 222.642 1200.54 217.393 1201.66 209.699C1202.77 202.005 1185.56 194.779 1163.22 193.56C1140.87 192.342 1121.86 197.591 1120.74 205.285C1119.63 212.979 1136.84 220.204 1159.18 221.423Z" fill="#FBE7B1"/>
<path d="M1163.09 216.627C1183.9 217.762 1201.56 213.247 1202.53 206.542C1203.5 199.838 1187.42 193.482 1166.61 192.347C1145.79 191.211 1128.13 195.726 1127.16 202.431C1126.19 209.136 1142.28 215.492 1163.09 216.627Z" fill="#FDF2D4"/>
<path d="M1138.51 194.82C1127.73 196.988 1120.56 201.025 1120.38 205.891C1120.09 213.737 1138.08 220.767 1160.55 221.592C1183.02 222.418 1201.47 216.728 1201.75 208.882C1202.95 213.415 1206.67 220.988 1215.04 223.054" stroke="black"/>
<path d="M1120.52 204.744C1119.76 207.205 1116.99 212.497 1112 213.985" stroke="black"/>
<path d="M408.826 184.992C410.68 187.575 416.445 194.563 424.154 198.664M278.282 196.577C276.648 199.439 274.009 204.809 268 206.749" stroke="black" stroke-width="1.40377"/>
<path d="M305.818 180.954C288.344 185.961 277.147 192.935 277.716 199.74C278.622 210.582 309.049 216.89 345.678 213.829C382.306 210.767 411.265 199.497 410.358 188.655C409.911 183.298 402.257 179.048 390.209 176.488" stroke="black" stroke-width="1.40377"/>
</g>
</g>
<defs>
<clipPath id="clip0_3924_1814">
<rect width="1440" height="240" fill="white"/>
</clipPath>
</defs>
</svg>
